  0
SECTION
  2
HEADER
  9
$ANGBASE
  50
0.0
  9
$ANGDIR
  70
1
  9
$MEASUREMENT
  70
0
  0
ENDSEC
  0
SECTION
  2
TABLES
  0
TABLE
  2
LTYPE
  70
4
  0
LTYPE
  5
40F
  2
CONTINUOUS
  70
0
  3
Solid line
  72
65
  73
0
  40
0.0
  0
LTYPE
  5
410
  2
DASHDOT
 70
0
  3
Dash Dot ____ _ ____ _
 72
65
 73
4
 40
2.0
 49
1.25
 49
-0.25
 49
0.25
 49
-0.25
  0
LTYPE
  5
411
  2
DASHED
 70
0
  3
Dashed __ __ __ __ __
 72
65
 73
2
 40
0.75
 49
0.5
 49
-0.25
  0
LTYPE
  5
43B
  2
DOTTED
 70
0
  3
Dotted .  .  .  .
 72
65
 73
2
 40
0.2
 49
0.0
 49
-0.2
  0
ENDTAB
  0
TABLE
  2
STYLE
  70
4
  0
STYLE
  2
KICAD
  70
0
  40
0
  41
1
  42
1
  50
0
  71
0
  3
isocp.shx
  0
STYLE
  2
KICADB
  70
0
  40
0
  41
1
  42
1
  50
0
  71
0
  3
isocp.shx
  0
STYLE
  2
KICADI
  70
0
  40
0
  41
1
  42
1
  50
15
  71
0
  3
isocp.shx
  0
STYLE
  2
KICADBI
  70
0
  40
0
  41
1
  42
1
  50
15
  71
0
  3
isocp.shx
  0
ENDTAB
  0
TABLE
  2
LAYER
  70
1
  0
LAYER
  2
BLACK
  70
0
  62
7
  6
CONTINUOUS
  0
ENDTAB
  0
ENDSEC
  0
SECTION
  2
ENTITIES
0
LINE
8
BLACK
6
CONTINUOUS
10
0.42051
20
0.516316
11
0.433874
21
0.513148
0
LINE
8
BLACK
6
CONTINUOUS
10
0.433874
20
0.513148
11
0.446781
21
0.508451
0
LINE
8
BLACK
6
CONTINUOUS
10
0.446781
20
0.508451
11
0.459055
21
0.502286
0
LINE
8
BLACK
6
CONTINUOUS
10
0.459055
20
0.502286
11
0.470531
21
0.494739
0
LINE
8
BLACK
6
CONTINUOUS
10
0.470531
20
0.494739
11
0.481052
21
0.48591
0
LINE
8
BLACK
6
CONTINUOUS
10
0.481052
20
0.48591
11
0.490478
21
0.47592
0
LINE
8
BLACK
6
CONTINUOUS
10
0.490478
20
0.47592
11
0.49868
21
0.464903
0
LINE
8
BLACK
6
CONTINUOUS
10
0.49868
20
0.464903
11
0.505547
21
0.453008
0
LINE
8
BLACK
6
CONTINUOUS
10
0.505547
20
0.453008
11
0.510987
21
0.440396
0
LINE
8
BLACK
6
CONTINUOUS
10
0.510987
20
0.440396
11
0.514927
21
0.427238
0
LINE
8
BLACK
6
CONTINUOUS
10
0.514927
20
0.427238
11
0.517312
21
0.413712
0
LINE
8
BLACK
6
CONTINUOUS
10
0.517312
20
0.413712
11
0.51811
21
0.4
0
LINE
8
BLACK
6
CONTINUOUS
10
0.51811
20
0.4
11
0.517312
21
0.386288
0
LINE
8
BLACK
6
CONTINUOUS
10
0.517312
20
0.386288
11
0.514927
21
0.372762
0
LINE
8
BLACK
6
CONTINUOUS
10
0.514927
20
0.372762
11
0.510987
21
0.359604
0
LINE
8
BLACK
6
CONTINUOUS
10
0.510987
20
0.359604
11
0.505547
21
0.346992
0
LINE
8
BLACK
6
CONTINUOUS
10
0.505547
20
0.346992
11
0.49868
21
0.335097
0
LINE
8
BLACK
6
CONTINUOUS
10
0.49868
20
0.335097
11
0.490478
21
0.32408
0
LINE
8
BLACK
6
CONTINUOUS
10
0.490478
20
0.32408
11
0.481052
21
0.31409
0
LINE
8
BLACK
6
CONTINUOUS
10
0.481052
20
0.31409
11
0.470531
21
0.305261
0
LINE
8
BLACK
6
CONTINUOUS
10
0.470531
20
0.305261
11
0.459055
21
0.297714
0
LINE
8
BLACK
6
CONTINUOUS
10
0.459055
20
0.297714
11
0.446781
21
0.291549
0
LINE
8
BLACK
6
CONTINUOUS
10
0.446781
20
0.291549
11
0.433874
21
0.286852
0
LINE
8
BLACK
6
CONTINUOUS
10
0.433874
20
0.286852
11
0.42051
21
0.283684
0
LINE
8
BLACK
6
CONTINUOUS
10
0.42051
20
0.283684
11
0.406867
21
0.28209
0
LINE
8
BLACK
6
CONTINUOUS
10
0.406867
20
0.28209
11
0.393133
21
0.28209
0
LINE
8
BLACK
6
CONTINUOUS
10
0.393133
20
0.28209
11
0.37949
21
0.283684
0
LINE
8
BLACK
6
CONTINUOUS
10
0.37949
20
0.283684
11
0.366126
21
0.286852
0
LINE
8
BLACK
6
CONTINUOUS
10
0.366126
20
0.286852
11
0.353219
21
0.291549
0
LINE
8
BLACK
6
CONTINUOUS
10
0.353219
20
0.291549
11
0.340945
21
0.297714
0
LINE
8
BLACK
6
CONTINUOUS
10
0.340945
20
0.297714
11
0.329469
21
0.305261
0
LINE
8
BLACK
6
CONTINUOUS
10
0.329469
20
0.305261
11
0.318948
21
0.31409
0
LINE
8
BLACK
6
CONTINUOUS
10
0.318948
20
0.31409
11
0.309522
21
0.32408
0
LINE
8
BLACK
6
CONTINUOUS
10
0.309522
20
0.32408
11
0.30132
21
0.335097
0
LINE
8
BLACK
6
CONTINUOUS
10
0.30132
20
0.335097
11
0.294453
21
0.346992
0
LINE
8
BLACK
6
CONTINUOUS
10
0.294453
20
0.346992
11
0.289013
21
0.359604
0
LINE
8
BLACK
6
CONTINUOUS
10
0.289013
20
0.359604
11
0.285073
21
0.372762
0
LINE
8
BLACK
6
CONTINUOUS
10
0.285073
20
0.372762
11
0.282688
21
0.386288
0
LINE
8
BLACK
6
CONTINUOUS
10
0.282688
20
0.386288
11
0.28189
21
0.4
0
LINE
8
BLACK
6
CONTINUOUS
10
0.28189
20
0.4
11
0.282688
21
0.413712
0
LINE
8
BLACK
6
CONTINUOUS
10
0.282688
20
0.413712
11
0.285073
21
0.427238
0
LINE
8
BLACK
6
CONTINUOUS
10
0.285073
20
0.427238
11
0.289013
21
0.440396
0
LINE
8
BLACK
6
CONTINUOUS
10
0.289013
20
0.440396
11
0.294453
21
0.453008
0
LINE
8
BLACK
6
CONTINUOUS
10
0.294453
20
0.453008
11
0.30132
21
0.464903
0
LINE
8
BLACK
6
CONTINUOUS
10
0.30132
20
0.464903
11
0.309522
21
0.47592
0
LINE
8
BLACK
6
CONTINUOUS
10
0.309522
20
0.47592
11
0.318948
21
0.48591
0
LINE
8
BLACK
6
CONTINUOUS
10
0.318948
20
0.48591
11
0.329469
21
0.494739
0
LINE
8
BLACK
6
CONTINUOUS
10
0.329469
20
0.494739
11
0.340945
21
0.502286
0
LINE
8
BLACK
6
CONTINUOUS
10
0.340945
20
0.502286
11
0.353219
21
0.508451
0
LINE
8
BLACK
6
CONTINUOUS
10
0.353219
20
0.508451
11
0.366126
21
0.513148
0
LINE
8
BLACK
6
CONTINUOUS
10
0.366126
20
0.513148
11
0.37949
21
0.516316
0
LINE
8
BLACK
6
CONTINUOUS
10
0.37949
20
0.516316
11
0.393133
21
0.51791
0
LINE
8
BLACK
6
CONTINUOUS
10
0.393133
20
0.51791
11
0.406867
21
0.51791
0
LINE
8
BLACK
6
CONTINUOUS
10
0.406867
20
0.51791
11
0.42051
21
0.516316
0
LINE
8
BLACK
6
CONTINUOUS
10
2.82051
20
0.516316
11
2.83387
21
0.513148
0
LINE
8
BLACK
6
CONTINUOUS
10
2.83387
20
0.513148
11
2.84678
21
0.508451
0
LINE
8
BLACK
6
CONTINUOUS
10
2.84678
20
0.508451
11
2.85906
21
0.502286
0
LINE
8
BLACK
6
CONTINUOUS
10
2.85906
20
0.502286
11
2.87053
21
0.494739
0
LINE
8
BLACK
6
CONTINUOUS
10
2.87053
20
0.494739
11
2.88105
21
0.48591
0
LINE
8
BLACK
6
CONTINUOUS
10
2.88105
20
0.48591
11
2.89048
21
0.47592
0
LINE
8
BLACK
6
CONTINUOUS
10
2.89048
20
0.47592
11
2.89868
21
0.464903
0
LINE
8
BLACK
6
CONTINUOUS
10
2.89868
20
0.464903
11
2.90555
21
0.453008
0
LINE
8
BLACK
6
CONTINUOUS
10
2.90555
20
0.453008
11
2.91099
21
0.440396
0
LINE
8
BLACK
6
CONTINUOUS
10
2.91099
20
0.440396
11
2.91493
21
0.427238
0
LINE
8
BLACK
6
CONTINUOUS
10
2.91493
20
0.427238
11
2.91731
21
0.413712
0
LINE
8
BLACK
6
CONTINUOUS
10
2.91731
20
0.413712
11
2.91811
21
0.4
0
LINE
8
BLACK
6
CONTINUOUS
10
2.91811
20
0.4
11
2.91731
21
0.386288
0
LINE
8
BLACK
6
CONTINUOUS
10
2.91731
20
0.386288
11
2.91493
21
0.372762
0
LINE
8
BLACK
6
CONTINUOUS
10
2.91493
20
0.372762
11
2.91099
21
0.359604
0
LINE
8
BLACK
6
CONTINUOUS
10
2.91099
20
0.359604
11
2.90555
21
0.346992
0
LINE
8
BLACK
6
CONTINUOUS
10
2.90555
20
0.346992
11
2.89868
21
0.335097
0
LINE
8
BLACK
6
CONTINUOUS
10
2.89868
20
0.335097
11
2.89048
21
0.32408
0
LINE
8
BLACK
6
CONTINUOUS
10
2.89048
20
0.32408
11
2.88105
21
0.31409
0
LINE
8
BLACK
6
CONTINUOUS
10
2.88105
20
0.31409
11
2.87053
21
0.305261
0
LINE
8
BLACK
6
CONTINUOUS
10
2.87053
20
0.305261
11
2.85906
21
0.297714
0
LINE
8
BLACK
6
CONTINUOUS
10
2.85906
20
0.297714
11
2.84678
21
0.291549
0
LINE
8
BLACK
6
CONTINUOUS
10
2.84678
20
0.291549
11
2.83387
21
0.286852
0
LINE
8
BLACK
6
CONTINUOUS
10
2.83387
20
0.286852
11
2.82051
21
0.283684
0
LINE
8
BLACK
6
CONTINUOUS
10
2.82051
20
0.283684
11
2.80687
21
0.28209
0
LINE
8
BLACK
6
CONTINUOUS
10
2.80687
20
0.28209
11
2.79313
21
0.28209
0
LINE
8
BLACK
6
CONTINUOUS
10
2.79313
20
0.28209
11
2.77949
21
0.283684
0
LINE
8
BLACK
6
CONTINUOUS
10
2.77949
20
0.283684
11
2.76613
21
0.286852
0
LINE
8
BLACK
6
CONTINUOUS
10
2.76613
20
0.286852
11
2.75322
21
0.291549
0
LINE
8
BLACK
6
CONTINUOUS
10
2.75322
20
0.291549
11
2.74094
21
0.297714
0
LINE
8
BLACK
6
CONTINUOUS
10
2.74094
20
0.297714
11
2.72947
21
0.305261
0
LINE
8
BLACK
6
CONTINUOUS
10
2.72947
20
0.305261
11
2.71895
21
0.31409
0
LINE
8
BLACK
6
CONTINUOUS
10
2.71895
20
0.31409
11
2.70952
21
0.32408
0
LINE
8
BLACK
6
CONTINUOUS
10
2.70952
20
0.32408
11
2.70132
21
0.335097
0
LINE
8
BLACK
6
CONTINUOUS
10
2.70132
20
0.335097
11
2.69445
21
0.346992
0
LINE
8
BLACK
6
CONTINUOUS
10
2.69445
20
0.346992
11
2.68901
21
0.359604
0
LINE
8
BLACK
6
CONTINUOUS
10
2.68901
20
0.359604
11
2.68507
21
0.372762
0
LINE
8
BLACK
6
CONTINUOUS
10
2.68507
20
0.372762
11
2.68269
21
0.386288
0
LINE
8
BLACK
6
CONTINUOUS
10
2.68269
20
0.386288
11
2.68189
21
0.4
0
LINE
8
BLACK
6
CONTINUOUS
10
2.68189
20
0.4
11
2.68269
21
0.413712
0
LINE
8
BLACK
6
CONTINUOUS
10
2.68269
20
0.413712
11
2.68507
21
0.427238
0
LINE
8
BLACK
6
CONTINUOUS
10
2.68507
20
0.427238
11
2.68901
21
0.440396
0
LINE
8
BLACK
6
CONTINUOUS
10
2.68901
20
0.440396
11
2.69445
21
0.453008
0
LINE
8
BLACK
6
CONTINUOUS
10
2.69445
20
0.453008
11
2.70132
21
0.464903
0
LINE
8
BLACK
6
CONTINUOUS
10
2.70132
20
0.464903
11
2.70952
21
0.47592
0
LINE
8
BLACK
6
CONTINUOUS
10
2.70952
20
0.47592
11
2.71895
21
0.48591
0
LINE
8
BLACK
6
CONTINUOUS
10
2.71895
20
0.48591
11
2.72947
21
0.494739
0
LINE
8
BLACK
6
CONTINUOUS
10
2.72947
20
0.494739
11
2.74094
21
0.502286
0
LINE
8
BLACK
6
CONTINUOUS
10
2.74094
20
0.502286
11
2.75322
21
0.508451
0
LINE
8
BLACK
6
CONTINUOUS
10
2.75322
20
0.508451
11
2.76613
21
0.513148
0
LINE
8
BLACK
6
CONTINUOUS
10
2.76613
20
0.513148
11
2.77949
21
0.516316
0
LINE
8
BLACK
6
CONTINUOUS
10
2.77949
20
0.516316
11
2.79313
21
0.51791
0
LINE
8
BLACK
6
CONTINUOUS
10
2.79313
20
0.51791
11
2.80687
21
0.51791
0
LINE
8
BLACK
6
CONTINUOUS
10
2.80687
20
0.51791
11
2.82051
21
0.516316
0
LINE
8
BLACK
6
CONTINUOUS
10
1.64173
20
0.292717
11
1.5748
21
0.292717
0
LINE
8
BLACK
6
CONTINUOUS
10
1.5748
20
0.292717
11
1.5748
21
0.359646
0
LINE
8
BLACK
6
CONTINUOUS
10
1.5748
20
0.359646
11
1.64173
21
0.359646
0
LINE
8
BLACK
6
CONTINUOUS
10
1.64173
20
0.359646
11
1.64173
21
0.292717
0
LINE
8
BLACK
6
CONTINUOUS
10
1.71861
20
0.358008
11
1.725
21
0.355162
0
LINE
8
BLACK
6
CONTINUOUS
10
1.725
20
0.355162
11
1.73066
21
0.35105
0
LINE
8
BLACK
6
CONTINUOUS
10
1.73066
20
0.35105
11
1.73534
21
0.345851
0
LINE
8
BLACK
6
CONTINUOUS
10
1.73534
20
0.345851
11
1.73884
21
0.339792
0
LINE
8
BLACK
6
CONTINUOUS
10
1.73884
20
0.339792
11
1.741
21
0.333139
0
LINE
8
BLACK
6
CONTINUOUS
10
1.741
20
0.333139
11
1.74173
21
0.326181
0
LINE
8
BLACK
6
CONTINUOUS
10
1.74173
20
0.326181
11
1.741
21
0.319223
0
LINE
8
BLACK
6
CONTINUOUS
10
1.741
20
0.319223
11
1.73884
21
0.31257
0
LINE
8
BLACK
6
CONTINUOUS
10
1.73884
20
0.31257
11
1.73534
21
0.306511
0
LINE
8
BLACK
6
CONTINUOUS
10
1.73534
20
0.306511
11
1.73066
21
0.301312
0
LINE
8
BLACK
6
CONTINUOUS
10
1.73066
20
0.301312
11
1.725
21
0.2972
0
LINE
8
BLACK
6
CONTINUOUS
10
1.725
20
0.2972
11
1.71861
21
0.294354
0
LINE
8
BLACK
6
CONTINUOUS
10
1.71861
20
0.294354
11
1.71177
21
0.2929
0
LINE
8
BLACK
6
CONTINUOUS
10
1.71177
20
0.2929
11
1.70477
21
0.2929
0
LINE
8
BLACK
6
CONTINUOUS
10
1.70477
20
0.2929
11
1.69793
21
0.294354
0
LINE
8
BLACK
6
CONTINUOUS
10
1.69793
20
0.294354
11
1.69154
21
0.2972
0
LINE
8
BLACK
6
CONTINUOUS
10
1.69154
20
0.2972
11
1.68588
21
0.301312
0
LINE
8
BLACK
6
CONTINUOUS
10
1.68588
20
0.301312
11
1.68119
21
0.306511
0
LINE
8
BLACK
6
CONTINUOUS
10
1.68119
20
0.306511
11
1.6777
21
0.31257
0
LINE
8
BLACK
6
CONTINUOUS
10
1.6777
20
0.31257
11
1.67553
21
0.319223
0
LINE
8
BLACK
6
CONTINUOUS
10
1.67553
20
0.319223
11
1.6748
21
0.326181
0
LINE
8
BLACK
6
CONTINUOUS
10
1.6748
20
0.326181
11
1.67553
21
0.333139
0
LINE
8
BLACK
6
CONTINUOUS
10
1.67553
20
0.333139
11
1.6777
21
0.339792
0
LINE
8
BLACK
6
CONTINUOUS
10
1.6777
20
0.339792
11
1.68119
21
0.345851
0
LINE
8
BLACK
6
CONTINUOUS
10
1.68119
20
0.345851
11
1.68588
21
0.35105
0
LINE
8
BLACK
6
CONTINUOUS
10
1.68588
20
0.35105
11
1.69154
21
0.355162
0
LINE
8
BLACK
6
CONTINUOUS
10
1.69154
20
0.355162
11
1.69793
21
0.358008
0
LINE
8
BLACK
6
CONTINUOUS
10
1.69793
20
0.358008
11
1.70477
21
0.359462
0
LINE
8
BLACK
6
CONTINUOUS
10
1.70477
20
0.359462
11
1.71177
21
0.359462
0
LINE
8
BLACK
6
CONTINUOUS
10
1.71177
20
0.359462
11
1.71861
21
0.358008
0
LINE
8
BLACK
6
CONTINUOUS
10
1.81861
20
0.358008
11
1.825
21
0.355162
0
LINE
8
BLACK
6
CONTINUOUS
10
1.825
20
0.355162
11
1.83066
21
0.35105
0
LINE
8
BLACK
6
CONTINUOUS
10
1.83066
20
0.35105
11
1.83534
21
0.345851
0
LINE
8
BLACK
6
CONTINUOUS
10
1.83534
20
0.345851
11
1.83884
21
0.339792
0
LINE
8
BLACK
6
CONTINUOUS
10
1.83884
20
0.339792
11
1.841
21
0.333139
0
LINE
8
BLACK
6
CONTINUOUS
10
1.841
20
0.333139
11
1.84173
21
0.326181
0
LINE
8
BLACK
6
CONTINUOUS
10
1.84173
20
0.326181
11
1.841
21
0.319223
0
LINE
8
BLACK
6
CONTINUOUS
10
1.841
20
0.319223
11
1.83884
21
0.31257
0
LINE
8
BLACK
6
CONTINUOUS
10
1.83884
20
0.31257
11
1.83534
21
0.306511
0
LINE
8
BLACK
6
CONTINUOUS
10
1.83534
20
0.306511
11
1.83066
21
0.301312
0
LINE
8
BLACK
6
CONTINUOUS
10
1.83066
20
0.301312
11
1.825
21
0.2972
0
LINE
8
BLACK
6
CONTINUOUS
10
1.825
20
0.2972
11
1.81861
21
0.294354
0
LINE
8
BLACK
6
CONTINUOUS
10
1.81861
20
0.294354
11
1.81177
21
0.2929
0
LINE
8
BLACK
6
CONTINUOUS
10
1.81177
20
0.2929
11
1.80477
21
0.2929
0
LINE
8
BLACK
6
CONTINUOUS
10
1.80477
20
0.2929
11
1.79793
21
0.294354
0
LINE
8
BLACK
6
CONTINUOUS
10
1.79793
20
0.294354
11
1.79154
21
0.2972
0
LINE
8
BLACK
6
CONTINUOUS
10
1.79154
20
0.2972
11
1.78588
21
0.301312
0
LINE
8
BLACK
6
CONTINUOUS
10
1.78588
20
0.301312
11
1.78119
21
0.306511
0
LINE
8
BLACK
6
CONTINUOUS
10
1.78119
20
0.306511
11
1.7777
21
0.31257
0
LINE
8
BLACK
6
CONTINUOUS
10
1.7777
20
0.31257
11
1.77553
21
0.319223
0
LINE
8
BLACK
6
CONTINUOUS
10
1.77553
20
0.319223
11
1.7748
21
0.326181
0
LINE
8
BLACK
6
CONTINUOUS
10
1.7748
20
0.326181
11
1.77553
21
0.333139
0
LINE
8
BLACK
6
CONTINUOUS
10
1.77553
20
0.333139
11
1.7777
21
0.339792
0
LINE
8
BLACK
6
CONTINUOUS
10
1.7777
20
0.339792
11
1.78119
21
0.345851
0
LINE
8
BLACK
6
CONTINUOUS
10
1.78119
20
0.345851
11
1.78588
21
0.35105
0
LINE
8
BLACK
6
CONTINUOUS
10
1.78588
20
0.35105
11
1.79154
21
0.355162
0
LINE
8
BLACK
6
CONTINUOUS
10
1.79154
20
0.355162
11
1.79793
21
0.358008
0
LINE
8
BLACK
6
CONTINUOUS
10
1.79793
20
0.358008
11
1.80477
21
0.359462
0
LINE
8
BLACK
6
CONTINUOUS
10
1.80477
20
0.359462
11
1.81177
21
0.359462
0
LINE
8
BLACK
6
CONTINUOUS
10
1.81177
20
0.359462
11
1.81861
21
0.358008
0
LINE
8
BLACK
6
CONTINUOUS
10
2.53346
20
0.293307
11
2.46654
21
0.293307
0
LINE
8
BLACK
6
CONTINUOUS
10
2.46654
20
0.293307
11
2.46654
21
0.360236
0
LINE
8
BLACK
6
CONTINUOUS
10
2.46654
20
0.360236
11
2.53346
21
0.360236
0
LINE
8
BLACK
6
CONTINUOUS
10
2.53346
20
0.360236
11
2.53346
21
0.293307
0
LINE
8
BLACK
6
CONTINUOUS
10
2.41034
20
0.358598
11
2.41673
21
0.355753
0
LINE
8
BLACK
6
CONTINUOUS
10
2.41673
20
0.355753
11
2.42239
21
0.351641
0
LINE
8
BLACK
6
CONTINUOUS
10
2.42239
20
0.351641
11
2.42707
21
0.346442
0
LINE
8
BLACK
6
CONTINUOUS
10
2.42707
20
0.346442
11
2.43057
21
0.340383
0
LINE
8
BLACK
6
CONTINUOUS
10
2.43057
20
0.340383
11
2.43273
21
0.333729
0
LINE
8
BLACK
6
CONTINUOUS
10
2.43273
20
0.333729
11
2.43346
21
0.326772
0
LINE
8
BLACK
6
CONTINUOUS
10
2.43346
20
0.326772
11
2.43273
21
0.319814
0
LINE
8
BLACK
6
CONTINUOUS
10
2.43273
20
0.319814
11
2.43057
21
0.31316
0
LINE
8
BLACK
6
CONTINUOUS
10
2.43057
20
0.31316
11
2.42707
21
0.307102
0
LINE
8
BLACK
6
CONTINUOUS
10
2.42707
20
0.307102
11
2.42239
21
0.301903
0
LINE
8
BLACK
6
CONTINUOUS
10
2.42239
20
0.301903
11
2.41673
21
0.29779
0
LINE
8
BLACK
6
CONTINUOUS
10
2.41673
20
0.29779
11
2.41034
21
0.294945
0
LINE
8
BLACK
6
CONTINUOUS
10
2.41034
20
0.294945
11
2.4035
21
0.29349
0
LINE
8
BLACK
6
CONTINUOUS
10
2.4035
20
0.29349
11
2.3965
21
0.29349
0
LINE
8
BLACK
6
CONTINUOUS
10
2.3965
20
0.29349
11
2.38966
21
0.294945
0
LINE
8
BLACK
6
CONTINUOUS
10
2.38966
20
0.294945
11
2.38327
21
0.29779
0
LINE
8
BLACK
6
CONTINUOUS
10
2.38327
20
0.29779
11
2.37761
21
0.301903
0
LINE
8
BLACK
6
CONTINUOUS
10
2.37761
20
0.301903
11
2.37293
21
0.307102
0
LINE
8
BLACK
6
CONTINUOUS
10
2.37293
20
0.307102
11
2.36943
21
0.31316
0
LINE
8
BLACK
6
CONTINUOUS
10
2.36943
20
0.31316
11
2.36727
21
0.319814
0
LINE
8
BLACK
6
CONTINUOUS
10
2.36727
20
0.319814
11
2.36654
21
0.326772
0
LINE
8
BLACK
6
CONTINUOUS
10
2.36654
20
0.326772
11
2.36727
21
0.333729
0
LINE
8
BLACK
6
CONTINUOUS
10
2.36727
20
0.333729
11
2.36943
21
0.340383
0
LINE
8
BLACK
6
CONTINUOUS
10
2.36943
20
0.340383
11
2.37293
21
0.346442
0
LINE
8
BLACK
6
CONTINUOUS
10
2.37293
20
0.346442
11
2.37761
21
0.351641
0
LINE
8
BLACK
6
CONTINUOUS
10
2.37761
20
0.351641
11
2.38327
21
0.355753
0
LINE
8
BLACK
6
CONTINUOUS
10
2.38327
20
0.355753
11
2.38966
21
0.358598
0
LINE
8
BLACK
6
CONTINUOUS
10
2.38966
20
0.358598
11
2.3965
21
0.360053
0
LINE
8
BLACK
6
CONTINUOUS
10
2.3965
20
0.360053
11
2.4035
21
0.360053
0
LINE
8
BLACK
6
CONTINUOUS
10
2.4035
20
0.360053
11
2.41034
21
0.358598
0
LINE
8
BLACK
6
CONTINUOUS
10
1.64173
20
0.392717
11
1.5748
21
0.392717
0
LINE
8
BLACK
6
CONTINUOUS
10
1.5748
20
0.392717
11
1.5748
21
0.459646
0
LINE
8
BLACK
6
CONTINUOUS
10
1.5748
20
0.459646
11
1.64173
21
0.459646
0
LINE
8
BLACK
6
CONTINUOUS
10
1.64173
20
0.459646
11
1.64173
21
0.392717
0
LINE
8
BLACK
6
CONTINUOUS
10
0.818609
20
0.458008
11
0.825
21
0.455162
0
LINE
8
BLACK
6
CONTINUOUS
10
0.825
20
0.455162
11
0.83066
21
0.45105
0
LINE
8
BLACK
6
CONTINUOUS
10
0.83066
20
0.45105
11
0.835341
21
0.445851
0
LINE
8
BLACK
6
CONTINUOUS
10
0.835341
20
0.445851
11
0.838839
21
0.439792
0
LINE
8
BLACK
6
CONTINUOUS
10
0.838839
20
0.439792
11
0.841001
21
0.433139
0
LINE
8
BLACK
6
CONTINUOUS
10
0.841001
20
0.433139
11
0.841732
21
0.426181
0
LINE
8
BLACK
6
CONTINUOUS
10
0.841732
20
0.426181
11
0.841001
21
0.419223
0
LINE
8
BLACK
6
CONTINUOUS
10
0.841001
20
0.419223
11
0.838839
21
0.41257
0
LINE
8
BLACK
6
CONTINUOUS
10
0.838839
20
0.41257
11
0.835341
21
0.406511
0
LINE
8
BLACK
6
CONTINUOUS
10
0.835341
20
0.406511
11
0.83066
21
0.401312
0
LINE
8
BLACK
6
CONTINUOUS
10
0.83066
20
0.401312
11
0.825
21
0.3972
0
LINE
8
BLACK
6
CONTINUOUS
10
0.825
20
0.3972
11
0.818609
21
0.394354
0
LINE
8
BLACK
6
CONTINUOUS
10
0.818609
20
0.394354
11
0.811766
21
0.3929
0
LINE
8
BLACK
6
CONTINUOUS
10
0.811766
20
0.3929
11
0.80477
21
0.3929
0
LINE
8
BLACK
6
CONTINUOUS
10
0.80477
20
0.3929
11
0.797927
21
0.394354
0
LINE
8
BLACK
6
CONTINUOUS
10
0.797927
20
0.394354
11
0.791535
21
0.3972
0
LINE
8
BLACK
6
CONTINUOUS
10
0.791535
20
0.3972
11
0.785876
21
0.401312
0
LINE
8
BLACK
6
CONTINUOUS
10
0.785876
20
0.401312
11
0.781194
21
0.406511
0
LINE
8
BLACK
6
CONTINUOUS
10
0.781194
20
0.406511
11
0.777696
21
0.41257
0
LINE
8
BLACK
6
CONTINUOUS
10
0.777696
20
0.41257
11
0.775534
21
0.419223
0
LINE
8
BLACK
6
CONTINUOUS
10
0.775534
20
0.419223
11
0.774803
21
0.426181
0
LINE
8
BLACK
6
CONTINUOUS
10
0.774803
20
0.426181
11
0.775534
21
0.433139
0
LINE
8
BLACK
6
CONTINUOUS
10
0.775534
20
0.433139
11
0.777696
21
0.439792
0
LINE
8
BLACK
6
CONTINUOUS
10
0.777696
20
0.439792
11
0.781194
21
0.445851
0
LINE
8
BLACK
6
CONTINUOUS
10
0.781194
20
0.445851
11
0.785876
21
0.45105
0
LINE
8
BLACK
6
CONTINUOUS
10
0.785876
20
0.45105
11
0.791535
21
0.455162
0
LINE
8
BLACK
6
CONTINUOUS
10
0.791535
20
0.455162
11
0.797927
21
0.458008
0
LINE
8
BLACK
6
CONTINUOUS
10
0.797927
20
0.458008
11
0.80477
21
0.459462
0
LINE
8
BLACK
6
CONTINUOUS
10
0.80477
20
0.459462
11
0.811766
21
0.459462
0
LINE
8
BLACK
6
CONTINUOUS
10
0.811766
20
0.459462
11
0.818609
21
0.458008
0
LINE
8
BLACK
6
CONTINUOUS
10
0.918609
20
0.458008
11
0.925
21
0.455162
0
LINE
8
BLACK
6
CONTINUOUS
10
0.925
20
0.455162
11
0.93066
21
0.45105
0
LINE
8
BLACK
6
CONTINUOUS
10
0.93066
20
0.45105
11
0.935341
21
0.445851
0
LINE
8
BLACK
6
CONTINUOUS
10
0.935341
20
0.445851
11
0.938839
21
0.439792
0
LINE
8
BLACK
6
CONTINUOUS
10
0.938839
20
0.439792
11
0.941001
21
0.433139
0
LINE
8
BLACK
6
CONTINUOUS
10
0.941001
20
0.433139
11
0.941732
21
0.426181
0
LINE
8
BLACK
6
CONTINUOUS
10
0.941732
20
0.426181
11
0.941001
21
0.419223
0
LINE
8
BLACK
6
CONTINUOUS
10
0.941001
20
0.419223
11
0.938839
21
0.41257
0
LINE
8
BLACK
6
CONTINUOUS
10
0.938839
20
0.41257
11
0.935341
21
0.406511
0
LINE
8
BLACK
6
CONTINUOUS
10
0.935341
20
0.406511
11
0.93066
21
0.401312
0
LINE
8
BLACK
6
CONTINUOUS
10
0.93066
20
0.401312
11
0.925
21
0.3972
0
LINE
8
BLACK
6
CONTINUOUS
10
0.925
20
0.3972
11
0.918609
21
0.394354
0
LINE
8
BLACK
6
CONTINUOUS
10
0.918609
20
0.394354
11
0.911766
21
0.3929
0
LINE
8
BLACK
6
CONTINUOUS
10
0.911766
20
0.3929
11
0.90477
21
0.3929
0
LINE
8
BLACK
6
CONTINUOUS
10
0.90477
20
0.3929
11
0.897927
21
0.394354
0
LINE
8
BLACK
6
CONTINUOUS
10
0.897927
20
0.394354
11
0.891535
21
0.3972
0
LINE
8
BLACK
6
CONTINUOUS
10
0.891535
20
0.3972
11
0.885876
21
0.401312
0
LINE
8
BLACK
6
CONTINUOUS
10
0.885876
20
0.401312
11
0.881194
21
0.406511
0
LINE
8
BLACK
6
CONTINUOUS
10
0.881194
20
0.406511
11
0.877696
21
0.41257
0
LINE
8
BLACK
6
CONTINUOUS
10
0.877696
20
0.41257
11
0.875534
21
0.419223
0
LINE
8
BLACK
6
CONTINUOUS
10
0.875534
20
0.419223
11
0.874803
21
0.426181
0
LINE
8
BLACK
6
CONTINUOUS
10
0.874803
20
0.426181
11
0.875534
21
0.433139
0
LINE
8
BLACK
6
CONTINUOUS
10
0.875534
20
0.433139
11
0.877696
21
0.439792
0
LINE
8
BLACK
6
CONTINUOUS
10
0.877696
20
0.439792
11
0.881194
21
0.445851
0
LINE
8
BLACK
6
CONTINUOUS
10
0.881194
20
0.445851
11
0.885876
21
0.45105
0
LINE
8
BLACK
6
CONTINUOUS
10
0.885876
20
0.45105
11
0.891535
21
0.455162
0
LINE
8
BLACK
6
CONTINUOUS
10
0.891535
20
0.455162
11
0.897927
21
0.458008
0
LINE
8
BLACK
6
CONTINUOUS
10
0.897927
20
0.458008
11
0.90477
21
0.459462
0
LINE
8
BLACK
6
CONTINUOUS
10
0.90477
20
0.459462
11
0.911766
21
0.459462
0
LINE
8
BLACK
6
CONTINUOUS
10
0.911766
20
0.459462
11
0.918609
21
0.458008
0
LINE
8
BLACK
6
CONTINUOUS
10
1.01861
20
0.458008
11
1.025
21
0.455162
0
LINE
8
BLACK
6
CONTINUOUS
10
1.025
20
0.455162
11
1.03066
21
0.45105
0
LINE
8
BLACK
6
CONTINUOUS
10
1.03066
20
0.45105
11
1.03534
21
0.445851
0
LINE
8
BLACK
6
CONTINUOUS
10
1.03534
20
0.445851
11
1.03884
21
0.439792
0
LINE
8
BLACK
6
CONTINUOUS
10
1.03884
20
0.439792
11
1.041
21
0.433139
0
LINE
8
BLACK
6
CONTINUOUS
10
1.041
20
0.433139
11
1.04173
21
0.426181
0
LINE
8
BLACK
6
CONTINUOUS
10
1.04173
20
0.426181
11
1.041
21
0.419223
0
LINE
8
BLACK
6
CONTINUOUS
10
1.041
20
0.419223
11
1.03884
21
0.41257
0
LINE
8
BLACK
6
CONTINUOUS
10
1.03884
20
0.41257
11
1.03534
21
0.406511
0
LINE
8
BLACK
6
CONTINUOUS
10
1.03534
20
0.406511
11
1.03066
21
0.401312
0
LINE
8
BLACK
6
CONTINUOUS
10
1.03066
20
0.401312
11
1.025
21
0.3972
0
LINE
8
BLACK
6
CONTINUOUS
10
1.025
20
0.3972
11
1.01861
21
0.394354
0
LINE
8
BLACK
6
CONTINUOUS
10
1.01861
20
0.394354
11
1.01177
21
0.3929
0
LINE
8
BLACK
6
CONTINUOUS
10
1.01177
20
0.3929
11
1.00477
21
0.3929
0
LINE
8
BLACK
6
CONTINUOUS
10
1.00477
20
0.3929
11
0.997927
21
0.394354
0
LINE
8
BLACK
6
CONTINUOUS
10
0.997927
20
0.394354
11
0.991535
21
0.3972
0
LINE
8
BLACK
6
CONTINUOUS
10
0.991535
20
0.3972
11
0.985876
21
0.401312
0
LINE
8
BLACK
6
CONTINUOUS
10
0.985876
20
0.401312
11
0.981194
21
0.406511
0
LINE
8
BLACK
6
CONTINUOUS
10
0.981194
20
0.406511
11
0.977696
21
0.41257
0
LINE
8
BLACK
6
CONTINUOUS
10
0.977696
20
0.41257
11
0.975534
21
0.419223
0
LINE
8
BLACK
6
CONTINUOUS
10
0.975534
20
0.419223
11
0.974803
21
0.426181
0
LINE
8
BLACK
6
CONTINUOUS
10
0.974803
20
0.426181
11
0.975534
21
0.433139
0
LINE
8
BLACK
6
CONTINUOUS
10
0.975534
20
0.433139
11
0.977696
21
0.439792
0
LINE
8
BLACK
6
CONTINUOUS
10
0.977696
20
0.439792
11
0.981194
21
0.445851
0
LINE
8
BLACK
6
CONTINUOUS
10
0.981194
20
0.445851
11
0.985876
21
0.45105
0
LINE
8
BLACK
6
CONTINUOUS
10
0.985876
20
0.45105
11
0.991535
21
0.455162
0
LINE
8
BLACK
6
CONTINUOUS
10
0.991535
20
0.455162
11
0.997927
21
0.458008
0
LINE
8
BLACK
6
CONTINUOUS
10
0.997927
20
0.458008
11
1.00477
21
0.459462
0
LINE
8
BLACK
6
CONTINUOUS
10
1.00477
20
0.459462
11
1.01177
21
0.459462
0
LINE
8
BLACK
6
CONTINUOUS
10
1.01177
20
0.459462
11
1.01861
21
0.458008
0
LINE
8
BLACK
6
CONTINUOUS
10
1.11861
20
0.458008
11
1.125
21
0.455162
0
LINE
8
BLACK
6
CONTINUOUS
10
1.125
20
0.455162
11
1.13066
21
0.45105
0
LINE
8
BLACK
6
CONTINUOUS
10
1.13066
20
0.45105
11
1.13534
21
0.445851
0
LINE
8
BLACK
6
CONTINUOUS
10
1.13534
20
0.445851
11
1.13884
21
0.439792
0
LINE
8
BLACK
6
CONTINUOUS
10
1.13884
20
0.439792
11
1.141
21
0.433139
0
LINE
8
BLACK
6
CONTINUOUS
10
1.141
20
0.433139
11
1.14173
21
0.426181
0
LINE
8
BLACK
6
CONTINUOUS
10
1.14173
20
0.426181
11
1.141
21
0.419223
0
LINE
8
BLACK
6
CONTINUOUS
10
1.141
20
0.419223
11
1.13884
21
0.41257
0
LINE
8
BLACK
6
CONTINUOUS
10
1.13884
20
0.41257
11
1.13534
21
0.406511
0
LINE
8
BLACK
6
CONTINUOUS
10
1.13534
20
0.406511
11
1.13066
21
0.401312
0
LINE
8
BLACK
6
CONTINUOUS
10
1.13066
20
0.401312
11
1.125
21
0.3972
0
LINE
8
BLACK
6
CONTINUOUS
10
1.125
20
0.3972
11
1.11861
21
0.394354
0
LINE
8
BLACK
6
CONTINUOUS
10
1.11861
20
0.394354
11
1.11177
21
0.3929
0
LINE
8
BLACK
6
CONTINUOUS
10
1.11177
20
0.3929
11
1.10477
21
0.3929
0
LINE
8
BLACK
6
CONTINUOUS
10
1.10477
20
0.3929
11
1.09793
21
0.394354
0
LINE
8
BLACK
6
CONTINUOUS
10
1.09793
20
0.394354
11
1.09154
21
0.3972
0
LINE
8
BLACK
6
CONTINUOUS
10
1.09154
20
0.3972
11
1.08588
21
0.401312
0
LINE
8
BLACK
6
CONTINUOUS
10
1.08588
20
0.401312
11
1.08119
21
0.406511
0
LINE
8
BLACK
6
CONTINUOUS
10
1.08119
20
0.406511
11
1.0777
21
0.41257
0
LINE
8
BLACK
6
CONTINUOUS
10
1.0777
20
0.41257
11
1.07553
21
0.419223
0
LINE
8
BLACK
6
CONTINUOUS
10
1.07553
20
0.419223
11
1.0748
21
0.426181
0
LINE
8
BLACK
6
CONTINUOUS
10
1.0748
20
0.426181
11
1.07553
21
0.433139
0
LINE
8
BLACK
6
CONTINUOUS
10
1.07553
20
0.433139
11
1.0777
21
0.439792
0
LINE
8
BLACK
6
CONTINUOUS
10
1.0777
20
0.439792
11
1.08119
21
0.445851
0
LINE
8
BLACK
6
CONTINUOUS
10
1.08119
20
0.445851
11
1.08588
21
0.45105
0
LINE
8
BLACK
6
CONTINUOUS
10
1.08588
20
0.45105
11
1.09154
21
0.455162
0
LINE
8
BLACK
6
CONTINUOUS
10
1.09154
20
0.455162
11
1.09793
21
0.458008
0
LINE
8
BLACK
6
CONTINUOUS
10
1.09793
20
0.458008
11
1.10477
21
0.459462
0
LINE
8
BLACK
6
CONTINUOUS
10
1.10477
20
0.459462
11
1.11177
21
0.459462
0
LINE
8
BLACK
6
CONTINUOUS
10
1.11177
20
0.459462
11
1.11861
21
0.458008
0
LINE
8
BLACK
6
CONTINUOUS
10
1.21861
20
0.458008
11
1.225
21
0.455162
0
LINE
8
BLACK
6
CONTINUOUS
10
1.225
20
0.455162
11
1.23066
21
0.45105
0
LINE
8
BLACK
6
CONTINUOUS
10
1.23066
20
0.45105
11
1.23534
21
0.445851
0
LINE
8
BLACK
6
CONTINUOUS
10
1.23534
20
0.445851
11
1.23884
21
0.439792
0
LINE
8
BLACK
6
CONTINUOUS
10
1.23884
20
0.439792
11
1.241
21
0.433139
0
LINE
8
BLACK
6
CONTINUOUS
10
1.241
20
0.433139
11
1.24173
21
0.426181
0
LINE
8
BLACK
6
CONTINUOUS
10
1.24173
20
0.426181
11
1.241
21
0.419223
0
LINE
8
BLACK
6
CONTINUOUS
10
1.241
20
0.419223
11
1.23884
21
0.41257
0
LINE
8
BLACK
6
CONTINUOUS
10
1.23884
20
0.41257
11
1.23534
21
0.406511
0
LINE
8
BLACK
6
CONTINUOUS
10
1.23534
20
0.406511
11
1.23066
21
0.401312
0
LINE
8
BLACK
6
CONTINUOUS
10
1.23066
20
0.401312
11
1.225
21
0.3972
0
LINE
8
BLACK
6
CONTINUOUS
10
1.225
20
0.3972
11
1.21861
21
0.394354
0
LINE
8
BLACK
6
CONTINUOUS
10
1.21861
20
0.394354
11
1.21177
21
0.3929
0
LINE
8
BLACK
6
CONTINUOUS
10
1.21177
20
0.3929
11
1.20477
21
0.3929
0
LINE
8
BLACK
6
CONTINUOUS
10
1.20477
20
0.3929
11
1.19793
21
0.394354
0
LINE
8
BLACK
6
CONTINUOUS
10
1.19793
20
0.394354
11
1.19154
21
0.3972
0
LINE
8
BLACK
6
CONTINUOUS
10
1.19154
20
0.3972
11
1.18588
21
0.401312
0
LINE
8
BLACK
6
CONTINUOUS
10
1.18588
20
0.401312
11
1.18119
21
0.406511
0
LINE
8
BLACK
6
CONTINUOUS
10
1.18119
20
0.406511
11
1.1777
21
0.41257
0
LINE
8
BLACK
6
CONTINUOUS
10
1.1777
20
0.41257
11
1.17553
21
0.419223
0
LINE
8
BLACK
6
CONTINUOUS
10
1.17553
20
0.419223
11
1.1748
21
0.426181
0
LINE
8
BLACK
6
CONTINUOUS
10
1.1748
20
0.426181
11
1.17553
21
0.433139
0
LINE
8
BLACK
6
CONTINUOUS
10
1.17553
20
0.433139
11
1.1777
21
0.439792
0
LINE
8
BLACK
6
CONTINUOUS
10
1.1777
20
0.439792
11
1.18119
21
0.445851
0
LINE
8
BLACK
6
CONTINUOUS
10
1.18119
20
0.445851
11
1.18588
21
0.45105
0
LINE
8
BLACK
6
CONTINUOUS
10
1.18588
20
0.45105
11
1.19154
21
0.455162
0
LINE
8
BLACK
6
CONTINUOUS
10
1.19154
20
0.455162
11
1.19793
21
0.458008
0
LINE
8
BLACK
6
CONTINUOUS
10
1.19793
20
0.458008
11
1.20477
21
0.459462
0
LINE
8
BLACK
6
CONTINUOUS
10
1.20477
20
0.459462
11
1.21177
21
0.459462
0
LINE
8
BLACK
6
CONTINUOUS
10
1.21177
20
0.459462
11
1.21861
21
0.458008
0
LINE
8
BLACK
6
CONTINUOUS
10
1.31861
20
0.458008
11
1.325
21
0.455162
0
LINE
8
BLACK
6
CONTINUOUS
10
1.325
20
0.455162
11
1.33066
21
0.45105
0
LINE
8
BLACK
6
CONTINUOUS
10
1.33066
20
0.45105
11
1.33534
21
0.445851
0
LINE
8
BLACK
6
CONTINUOUS
10
1.33534
20
0.445851
11
1.33884
21
0.439792
0
LINE
8
BLACK
6
CONTINUOUS
10
1.33884
20
0.439792
11
1.341
21
0.433139
0
LINE
8
BLACK
6
CONTINUOUS
10
1.341
20
0.433139
11
1.34173
21
0.426181
0
LINE
8
BLACK
6
CONTINUOUS
10
1.34173
20
0.426181
11
1.341
21
0.419223
0
LINE
8
BLACK
6
CONTINUOUS
10
1.341
20
0.419223
11
1.33884
21
0.41257
0
LINE
8
BLACK
6
CONTINUOUS
10
1.33884
20
0.41257
11
1.33534
21
0.406511
0
LINE
8
BLACK
6
CONTINUOUS
10
1.33534
20
0.406511
11
1.33066
21
0.401312
0
LINE
8
BLACK
6
CONTINUOUS
10
1.33066
20
0.401312
11
1.325
21
0.3972
0
LINE
8
BLACK
6
CONTINUOUS
10
1.325
20
0.3972
11
1.31861
21
0.394354
0
LINE
8
BLACK
6
CONTINUOUS
10
1.31861
20
0.394354
11
1.31177
21
0.3929
0
LINE
8
BLACK
6
CONTINUOUS
10
1.31177
20
0.3929
11
1.30477
21
0.3929
0
LINE
8
BLACK
6
CONTINUOUS
10
1.30477
20
0.3929
11
1.29793
21
0.394354
0
LINE
8
BLACK
6
CONTINUOUS
10
1.29793
20
0.394354
11
1.29154
21
0.3972
0
LINE
8
BLACK
6
CONTINUOUS
10
1.29154
20
0.3972
11
1.28588
21
0.401312
0
LINE
8
BLACK
6
CONTINUOUS
10
1.28588
20
0.401312
11
1.28119
21
0.406511
0
LINE
8
BLACK
6
CONTINUOUS
10
1.28119
20
0.406511
11
1.2777
21
0.41257
0
LINE
8
BLACK
6
CONTINUOUS
10
1.2777
20
0.41257
11
1.27553
21
0.419223
0
LINE
8
BLACK
6
CONTINUOUS
10
1.27553
20
0.419223
11
1.2748
21
0.426181
0
LINE
8
BLACK
6
CONTINUOUS
10
1.2748
20
0.426181
11
1.27553
21
0.433139
0
LINE
8
BLACK
6
CONTINUOUS
10
1.27553
20
0.433139
11
1.2777
21
0.439792
0
LINE
8
BLACK
6
CONTINUOUS
10
1.2777
20
0.439792
11
1.28119
21
0.445851
0
LINE
8
BLACK
6
CONTINUOUS
10
1.28119
20
0.445851
11
1.28588
21
0.45105
0
LINE
8
BLACK
6
CONTINUOUS
10
1.28588
20
0.45105
11
1.29154
21
0.455162
0
LINE
8
BLACK
6
CONTINUOUS
10
1.29154
20
0.455162
11
1.29793
21
0.458008
0
LINE
8
BLACK
6
CONTINUOUS
10
1.29793
20
0.458008
11
1.30477
21
0.459462
0
LINE
8
BLACK
6
CONTINUOUS
10
1.30477
20
0.459462
11
1.31177
21
0.459462
0
LINE
8
BLACK
6
CONTINUOUS
10
1.31177
20
0.459462
11
1.31861
21
0.458008
0
LINE
8
BLACK
6
CONTINUOUS
10
1.41861
20
0.458008
11
1.425
21
0.455162
0
LINE
8
BLACK
6
CONTINUOUS
10
1.425
20
0.455162
11
1.43066
21
0.45105
0
LINE
8
BLACK
6
CONTINUOUS
10
1.43066
20
0.45105
11
1.43534
21
0.445851
0
LINE
8
BLACK
6
CONTINUOUS
10
1.43534
20
0.445851
11
1.43884
21
0.439792
0
LINE
8
BLACK
6
CONTINUOUS
10
1.43884
20
0.439792
11
1.441
21
0.433139
0
LINE
8
BLACK
6
CONTINUOUS
10
1.441
20
0.433139
11
1.44173
21
0.426181
0
LINE
8
BLACK
6
CONTINUOUS
10
1.44173
20
0.426181
11
1.441
21
0.419223
0
LINE
8
BLACK
6
CONTINUOUS
10
1.441
20
0.419223
11
1.43884
21
0.41257
0
LINE
8
BLACK
6
CONTINUOUS
10
1.43884
20
0.41257
11
1.43534
21
0.406511
0
LINE
8
BLACK
6
CONTINUOUS
10
1.43534
20
0.406511
11
1.43066
21
0.401312
0
LINE
8
BLACK
6
CONTINUOUS
10
1.43066
20
0.401312
11
1.425
21
0.3972
0
LINE
8
BLACK
6
CONTINUOUS
10
1.425
20
0.3972
11
1.41861
21
0.394354
0
LINE
8
BLACK
6
CONTINUOUS
10
1.41861
20
0.394354
11
1.41177
21
0.3929
0
LINE
8
BLACK
6
CONTINUOUS
10
1.41177
20
0.3929
11
1.40477
21
0.3929
0
LINE
8
BLACK
6
CONTINUOUS
10
1.40477
20
0.3929
11
1.39793
21
0.394354
0
LINE
8
BLACK
6
CONTINUOUS
10
1.39793
20
0.394354
11
1.39154
21
0.3972
0
LINE
8
BLACK
6
CONTINUOUS
10
1.39154
20
0.3972
11
1.38588
21
0.401312
0
LINE
8
BLACK
6
CONTINUOUS
10
1.38588
20
0.401312
11
1.38119
21
0.406511
0
LINE
8
BLACK
6
CONTINUOUS
10
1.38119
20
0.406511
11
1.3777
21
0.41257
0
LINE
8
BLACK
6
CONTINUOUS
10
1.3777
20
0.41257
11
1.37553
21
0.419223
0
LINE
8
BLACK
6
CONTINUOUS
10
1.37553
20
0.419223
11
1.3748
21
0.426181
0
LINE
8
BLACK
6
CONTINUOUS
10
1.3748
20
0.426181
11
1.37553
21
0.433139
0
LINE
8
BLACK
6
CONTINUOUS
10
1.37553
20
0.433139
11
1.3777
21
0.439792
0
LINE
8
BLACK
6
CONTINUOUS
10
1.3777
20
0.439792
11
1.38119
21
0.445851
0
LINE
8
BLACK
6
CONTINUOUS
10
1.38119
20
0.445851
11
1.38588
21
0.45105
0
LINE
8
BLACK
6
CONTINUOUS
10
1.38588
20
0.45105
11
1.39154
21
0.455162
0
LINE
8
BLACK
6
CONTINUOUS
10
1.39154
20
0.455162
11
1.39793
21
0.458008
0
LINE
8
BLACK
6
CONTINUOUS
10
1.39793
20
0.458008
11
1.40477
21
0.459462
0
LINE
8
BLACK
6
CONTINUOUS
10
1.40477
20
0.459462
11
1.41177
21
0.459462
0
LINE
8
BLACK
6
CONTINUOUS
10
1.41177
20
0.459462
11
1.41861
21
0.458008
0
LINE
8
BLACK
6
CONTINUOUS
10
1.71861
20
0.458008
11
1.725
21
0.455162
0
LINE
8
BLACK
6
CONTINUOUS
10
1.725
20
0.455162
11
1.73066
21
0.45105
0
LINE
8
BLACK
6
CONTINUOUS
10
1.73066
20
0.45105
11
1.73534
21
0.445851
0
LINE
8
BLACK
6
CONTINUOUS
10
1.73534
20
0.445851
11
1.73884
21
0.439792
0
LINE
8
BLACK
6
CONTINUOUS
10
1.73884
20
0.439792
11
1.741
21
0.433139
0
LINE
8
BLACK
6
CONTINUOUS
10
1.741
20
0.433139
11
1.74173
21
0.426181
0
LINE
8
BLACK
6
CONTINUOUS
10
1.74173
20
0.426181
11
1.741
21
0.419223
0
LINE
8
BLACK
6
CONTINUOUS
10
1.741
20
0.419223
11
1.73884
21
0.41257
0
LINE
8
BLACK
6
CONTINUOUS
10
1.73884
20
0.41257
11
1.73534
21
0.406511
0
LINE
8
BLACK
6
CONTINUOUS
10
1.73534
20
0.406511
11
1.73066
21
0.401312
0
LINE
8
BLACK
6
CONTINUOUS
10
1.73066
20
0.401312
11
1.725
21
0.3972
0
LINE
8
BLACK
6
CONTINUOUS
10
1.725
20
0.3972
11
1.71861
21
0.394354
0
LINE
8
BLACK
6
CONTINUOUS
10
1.71861
20
0.394354
11
1.71177
21
0.3929
0
LINE
8
BLACK
6
CONTINUOUS
10
1.71177
20
0.3929
11
1.70477
21
0.3929
0
LINE
8
BLACK
6
CONTINUOUS
10
1.70477
20
0.3929
11
1.69793
21
0.394354
0
LINE
8
BLACK
6
CONTINUOUS
10
1.69793
20
0.394354
11
1.69154
21
0.3972
0
LINE
8
BLACK
6
CONTINUOUS
10
1.69154
20
0.3972
11
1.68588
21
0.401312
0
LINE
8
BLACK
6
CONTINUOUS
10
1.68588
20
0.401312
11
1.68119
21
0.406511
0
LINE
8
BLACK
6
CONTINUOUS
10
1.68119
20
0.406511
11
1.6777
21
0.41257
0
LINE
8
BLACK
6
CONTINUOUS
10
1.6777
20
0.41257
11
1.67553
21
0.419223
0
LINE
8
BLACK
6
CONTINUOUS
10
1.67553
20
0.419223
11
1.6748
21
0.426181
0
LINE
8
BLACK
6
CONTINUOUS
10
1.6748
20
0.426181
11
1.67553
21
0.433139
0
LINE
8
BLACK
6
CONTINUOUS
10
1.67553
20
0.433139
11
1.6777
21
0.439792
0
LINE
8
BLACK
6
CONTINUOUS
10
1.6777
20
0.439792
11
1.68119
21
0.445851
0
LINE
8
BLACK
6
CONTINUOUS
10
1.68119
20
0.445851
11
1.68588
21
0.45105
0
LINE
8
BLACK
6
CONTINUOUS
10
1.68588
20
0.45105
11
1.69154
21
0.455162
0
LINE
8
BLACK
6
CONTINUOUS
10
1.69154
20
0.455162
11
1.69793
21
0.458008
0
LINE
8
BLACK
6
CONTINUOUS
10
1.69793
20
0.458008
11
1.70477
21
0.459462
0
LINE
8
BLACK
6
CONTINUOUS
10
1.70477
20
0.459462
11
1.71177
21
0.459462
0
LINE
8
BLACK
6
CONTINUOUS
10
1.71177
20
0.459462
11
1.71861
21
0.458008
0
LINE
8
BLACK
6
CONTINUOUS
10
1.81861
20
0.458008
11
1.825
21
0.455162
0
LINE
8
BLACK
6
CONTINUOUS
10
1.825
20
0.455162
11
1.83066
21
0.45105
0
LINE
8
BLACK
6
CONTINUOUS
10
1.83066
20
0.45105
11
1.83534
21
0.445851
0
LINE
8
BLACK
6
CONTINUOUS
10
1.83534
20
0.445851
11
1.83884
21
0.439792
0
LINE
8
BLACK
6
CONTINUOUS
10
1.83884
20
0.439792
11
1.841
21
0.433139
0
LINE
8
BLACK
6
CONTINUOUS
10
1.841
20
0.433139
11
1.84173
21
0.426181
0
LINE
8
BLACK
6
CONTINUOUS
10
1.84173
20
0.426181
11
1.841
21
0.419223
0
LINE
8
BLACK
6
CONTINUOUS
10
1.841
20
0.419223
11
1.83884
21
0.41257
0
LINE
8
BLACK
6
CONTINUOUS
10
1.83884
20
0.41257
11
1.83534
21
0.406511
0
LINE
8
BLACK
6
CONTINUOUS
10
1.83534
20
0.406511
11
1.83066
21
0.401312
0
LINE
8
BLACK
6
CONTINUOUS
10
1.83066
20
0.401312
11
1.825
21
0.3972
0
LINE
8
BLACK
6
CONTINUOUS
10
1.825
20
0.3972
11
1.81861
21
0.394354
0
LINE
8
BLACK
6
CONTINUOUS
10
1.81861
20
0.394354
11
1.81177
21
0.3929
0
LINE
8
BLACK
6
CONTINUOUS
10
1.81177
20
0.3929
11
1.80477
21
0.3929
0
LINE
8
BLACK
6
CONTINUOUS
10
1.80477
20
0.3929
11
1.79793
21
0.394354
0
LINE
8
BLACK
6
CONTINUOUS
10
1.79793
20
0.394354
11
1.79154
21
0.3972
0
LINE
8
BLACK
6
CONTINUOUS
10
1.79154
20
0.3972
11
1.78588
21
0.401312
0
LINE
8
BLACK
6
CONTINUOUS
10
1.78588
20
0.401312
11
1.78119
21
0.406511
0
LINE
8
BLACK
6
CONTINUOUS
10
1.78119
20
0.406511
11
1.7777
21
0.41257
0
LINE
8
BLACK
6
CONTINUOUS
10
1.7777
20
0.41257
11
1.77553
21
0.419223
0
LINE
8
BLACK
6
CONTINUOUS
10
1.77553
20
0.419223
11
1.7748
21
0.426181
0
LINE
8
BLACK
6
CONTINUOUS
10
1.7748
20
0.426181
11
1.77553
21
0.433139
0
LINE
8
BLACK
6
CONTINUOUS
10
1.77553
20
0.433139
11
1.7777
21
0.439792
0
LINE
8
BLACK
6
CONTINUOUS
10
1.7777
20
0.439792
11
1.78119
21
0.445851
0
LINE
8
BLACK
6
CONTINUOUS
10
1.78119
20
0.445851
11
1.78588
21
0.45105
0
LINE
8
BLACK
6
CONTINUOUS
10
1.78588
20
0.45105
11
1.79154
21
0.455162
0
LINE
8
BLACK
6
CONTINUOUS
10
1.79154
20
0.455162
11
1.79793
21
0.458008
0
LINE
8
BLACK
6
CONTINUOUS
10
1.79793
20
0.458008
11
1.80477
21
0.459462
0
LINE
8
BLACK
6
CONTINUOUS
10
1.80477
20
0.459462
11
1.81177
21
0.459462
0
LINE
8
BLACK
6
CONTINUOUS
10
1.81177
20
0.459462
11
1.81861
21
0.458008
0
LINE
8
BLACK
6
CONTINUOUS
10
1.91861
20
0.458008
11
1.925
21
0.455162
0
LINE
8
BLACK
6
CONTINUOUS
10
1.925
20
0.455162
11
1.93066
21
0.45105
0
LINE
8
BLACK
6
CONTINUOUS
10
1.93066
20
0.45105
11
1.93534
21
0.445851
0
LINE
8
BLACK
6
CONTINUOUS
10
1.93534
20
0.445851
11
1.93884
21
0.439792
0
LINE
8
BLACK
6
CONTINUOUS
10
1.93884
20
0.439792
11
1.941
21
0.433139
0
LINE
8
BLACK
6
CONTINUOUS
10
1.941
20
0.433139
11
1.94173
21
0.426181
0
LINE
8
BLACK
6
CONTINUOUS
10
1.94173
20
0.426181
11
1.941
21
0.419223
0
LINE
8
BLACK
6
CONTINUOUS
10
1.941
20
0.419223
11
1.93884
21
0.41257
0
LINE
8
BLACK
6
CONTINUOUS
10
1.93884
20
0.41257
11
1.93534
21
0.406511
0
LINE
8
BLACK
6
CONTINUOUS
10
1.93534
20
0.406511
11
1.93066
21
0.401312
0
LINE
8
BLACK
6
CONTINUOUS
10
1.93066
20
0.401312
11
1.925
21
0.3972
0
LINE
8
BLACK
6
CONTINUOUS
10
1.925
20
0.3972
11
1.91861
21
0.394354
0
LINE
8
BLACK
6
CONTINUOUS
10
1.91861
20
0.394354
11
1.91177
21
0.3929
0
LINE
8
BLACK
6
CONTINUOUS
10
1.91177
20
0.3929
11
1.90477
21
0.3929
0
LINE
8
BLACK
6
CONTINUOUS
10
1.90477
20
0.3929
11
1.89793
21
0.394354
0
LINE
8
BLACK
6
CONTINUOUS
10
1.89793
20
0.394354
11
1.89154
21
0.3972
0
LINE
8
BLACK
6
CONTINUOUS
10
1.89154
20
0.3972
11
1.88588
21
0.401312
0
LINE
8
BLACK
6
CONTINUOUS
10
1.88588
20
0.401312
11
1.88119
21
0.406511
0
LINE
8
BLACK
6
CONTINUOUS
10
1.88119
20
0.406511
11
1.8777
21
0.41257
0
LINE
8
BLACK
6
CONTINUOUS
10
1.8777
20
0.41257
11
1.87553
21
0.419223
0
LINE
8
BLACK
6
CONTINUOUS
10
1.87553
20
0.419223
11
1.8748
21
0.426181
0
LINE
8
BLACK
6
CONTINUOUS
10
1.8748
20
0.426181
11
1.87553
21
0.433139
0
LINE
8
BLACK
6
CONTINUOUS
10
1.87553
20
0.433139
11
1.8777
21
0.439792
0
LINE
8
BLACK
6
CONTINUOUS
10
1.8777
20
0.439792
11
1.88119
21
0.445851
0
LINE
8
BLACK
6
CONTINUOUS
10
1.88119
20
0.445851
11
1.88588
21
0.45105
0
LINE
8
BLACK
6
CONTINUOUS
10
1.88588
20
0.45105
11
1.89154
21
0.455162
0
LINE
8
BLACK
6
CONTINUOUS
10
1.89154
20
0.455162
11
1.89793
21
0.458008
0
LINE
8
BLACK
6
CONTINUOUS
10
1.89793
20
0.458008
11
1.90477
21
0.459462
0
LINE
8
BLACK
6
CONTINUOUS
10
1.90477
20
0.459462
11
1.91177
21
0.459462
0
LINE
8
BLACK
6
CONTINUOUS
10
1.91177
20
0.459462
11
1.91861
21
0.458008
0
LINE
8
BLACK
6
CONTINUOUS
10
2.01861
20
0.458008
11
2.025
21
0.455162
0
LINE
8
BLACK
6
CONTINUOUS
10
2.025
20
0.455162
11
2.03066
21
0.45105
0
LINE
8
BLACK
6
CONTINUOUS
10
2.03066
20
0.45105
11
2.03534
21
0.445851
0
LINE
8
BLACK
6
CONTINUOUS
10
2.03534
20
0.445851
11
2.03884
21
0.439792
0
LINE
8
BLACK
6
CONTINUOUS
10
2.03884
20
0.439792
11
2.041
21
0.433139
0
LINE
8
BLACK
6
CONTINUOUS
10
2.041
20
0.433139
11
2.04173
21
0.426181
0
LINE
8
BLACK
6
CONTINUOUS
10
2.04173
20
0.426181
11
2.041
21
0.419223
0
LINE
8
BLACK
6
CONTINUOUS
10
2.041
20
0.419223
11
2.03884
21
0.41257
0
LINE
8
BLACK
6
CONTINUOUS
10
2.03884
20
0.41257
11
2.03534
21
0.406511
0
LINE
8
BLACK
6
CONTINUOUS
10
2.03534
20
0.406511
11
2.03066
21
0.401312
0
LINE
8
BLACK
6
CONTINUOUS
10
2.03066
20
0.401312
11
2.025
21
0.3972
0
LINE
8
BLACK
6
CONTINUOUS
10
2.025
20
0.3972
11
2.01861
21
0.394354
0
LINE
8
BLACK
6
CONTINUOUS
10
2.01861
20
0.394354
11
2.01177
21
0.3929
0
LINE
8
BLACK
6
CONTINUOUS
10
2.01177
20
0.3929
11
2.00477
21
0.3929
0
LINE
8
BLACK
6
CONTINUOUS
10
2.00477
20
0.3929
11
1.99793
21
0.394354
0
LINE
8
BLACK
6
CONTINUOUS
10
1.99793
20
0.394354
11
1.99154
21
0.3972
0
LINE
8
BLACK
6
CONTINUOUS
10
1.99154
20
0.3972
11
1.98588
21
0.401312
0
LINE
8
BLACK
6
CONTINUOUS
10
1.98588
20
0.401312
11
1.98119
21
0.406511
0
LINE
8
BLACK
6
CONTINUOUS
10
1.98119
20
0.406511
11
1.9777
21
0.41257
0
LINE
8
BLACK
6
CONTINUOUS
10
1.9777
20
0.41257
11
1.97553
21
0.419223
0
LINE
8
BLACK
6
CONTINUOUS
10
1.97553
20
0.419223
11
1.9748
21
0.426181
0
LINE
8
BLACK
6
CONTINUOUS
10
1.9748
20
0.426181
11
1.97553
21
0.433139
0
LINE
8
BLACK
6
CONTINUOUS
10
1.97553
20
0.433139
11
1.9777
21
0.439792
0
LINE
8
BLACK
6
CONTINUOUS
10
1.9777
20
0.439792
11
1.98119
21
0.445851
0
LINE
8
BLACK
6
CONTINUOUS
10
1.98119
20
0.445851
11
1.98588
21
0.45105
0
LINE
8
BLACK
6
CONTINUOUS
10
1.98588
20
0.45105
11
1.99154
21
0.455162
0
LINE
8
BLACK
6
CONTINUOUS
10
1.99154
20
0.455162
11
1.99793
21
0.458008
0
LINE
8
BLACK
6
CONTINUOUS
10
1.99793
20
0.458008
11
2.00477
21
0.459462
0
LINE
8
BLACK
6
CONTINUOUS
10
2.00477
20
0.459462
11
2.01177
21
0.459462
0
LINE
8
BLACK
6
CONTINUOUS
10
2.01177
20
0.459462
11
2.01861
21
0.458008
0
LINE
8
BLACK
6
CONTINUOUS
10
2.11861
20
0.458008
11
2.125
21
0.455162
0
LINE
8
BLACK
6
CONTINUOUS
10
2.125
20
0.455162
11
2.13066
21
0.45105
0
LINE
8
BLACK
6
CONTINUOUS
10
2.13066
20
0.45105
11
2.13534
21
0.445851
0
LINE
8
BLACK
6
CONTINUOUS
10
2.13534
20
0.445851
11
2.13884
21
0.439792
0
LINE
8
BLACK
6
CONTINUOUS
10
2.13884
20
0.439792
11
2.141
21
0.433139
0
LINE
8
BLACK
6
CONTINUOUS
10
2.141
20
0.433139
11
2.14173
21
0.426181
0
LINE
8
BLACK
6
CONTINUOUS
10
2.14173
20
0.426181
11
2.141
21
0.419223
0
LINE
8
BLACK
6
CONTINUOUS
10
2.141
20
0.419223
11
2.13884
21
0.41257
0
LINE
8
BLACK
6
CONTINUOUS
10
2.13884
20
0.41257
11
2.13534
21
0.406511
0
LINE
8
BLACK
6
CONTINUOUS
10
2.13534
20
0.406511
11
2.13066
21
0.401312
0
LINE
8
BLACK
6
CONTINUOUS
10
2.13066
20
0.401312
11
2.125
21
0.3972
0
LINE
8
BLACK
6
CONTINUOUS
10
2.125
20
0.3972
11
2.11861
21
0.394354
0
LINE
8
BLACK
6
CONTINUOUS
10
2.11861
20
0.394354
11
2.11177
21
0.3929
0
LINE
8
BLACK
6
CONTINUOUS
10
2.11177
20
0.3929
11
2.10477
21
0.3929
0
LINE
8
BLACK
6
CONTINUOUS
10
2.10477
20
0.3929
11
2.09793
21
0.394354
0
LINE
8
BLACK
6
CONTINUOUS
10
2.09793
20
0.394354
11
2.09154
21
0.3972
0
LINE
8
BLACK
6
CONTINUOUS
10
2.09154
20
0.3972
11
2.08588
21
0.401312
0
LINE
8
BLACK
6
CONTINUOUS
10
2.08588
20
0.401312
11
2.08119
21
0.406511
0
LINE
8
BLACK
6
CONTINUOUS
10
2.08119
20
0.406511
11
2.0777
21
0.41257
0
LINE
8
BLACK
6
CONTINUOUS
10
2.0777
20
0.41257
11
2.07553
21
0.419223
0
LINE
8
BLACK
6
CONTINUOUS
10
2.07553
20
0.419223
11
2.0748
21
0.426181
0
LINE
8
BLACK
6
CONTINUOUS
10
2.0748
20
0.426181
11
2.07553
21
0.433139
0
LINE
8
BLACK
6
CONTINUOUS
10
2.07553
20
0.433139
11
2.0777
21
0.439792
0
LINE
8
BLACK
6
CONTINUOUS
10
2.0777
20
0.439792
11
2.08119
21
0.445851
0
LINE
8
BLACK
6
CONTINUOUS
10
2.08119
20
0.445851
11
2.08588
21
0.45105
0
LINE
8
BLACK
6
CONTINUOUS
10
2.08588
20
0.45105
11
2.09154
21
0.455162
0
LINE
8
BLACK
6
CONTINUOUS
10
2.09154
20
0.455162
11
2.09793
21
0.458008
0
LINE
8
BLACK
6
CONTINUOUS
10
2.09793
20
0.458008
11
2.10477
21
0.459462
0
LINE
8
BLACK
6
CONTINUOUS
10
2.10477
20
0.459462
11
2.11177
21
0.459462
0
LINE
8
BLACK
6
CONTINUOUS
10
2.11177
20
0.459462
11
2.11861
21
0.458008
0
LINE
8
BLACK
6
CONTINUOUS
10
2.41034
20
0.458598
11
2.41673
21
0.455753
0
LINE
8
BLACK
6
CONTINUOUS
10
2.41673
20
0.455753
11
2.42239
21
0.451641
0
LINE
8
BLACK
6
CONTINUOUS
10
2.42239
20
0.451641
11
2.42707
21
0.446442
0
LINE
8
BLACK
6
CONTINUOUS
10
2.42707
20
0.446442
11
2.43057
21
0.440383
0
LINE
8
BLACK
6
CONTINUOUS
10
2.43057
20
0.440383
11
2.43273
21
0.433729
0
LINE
8
BLACK
6
CONTINUOUS
10
2.43273
20
0.433729
11
2.43346
21
0.426772
0
LINE
8
BLACK
6
CONTINUOUS
10
2.43346
20
0.426772
11
2.43273
21
0.419814
0
LINE
8
BLACK
6
CONTINUOUS
10
2.43273
20
0.419814
11
2.43057
21
0.41316
0
LINE
8
BLACK
6
CONTINUOUS
10
2.43057
20
0.41316
11
2.42707
21
0.407102
0
LINE
8
BLACK
6
CONTINUOUS
10
2.42707
20
0.407102
11
2.42239
21
0.401903
0
LINE
8
BLACK
6
CONTINUOUS
10
2.42239
20
0.401903
11
2.41673
21
0.39779
0
LINE
8
BLACK
6
CONTINUOUS
10
2.41673
20
0.39779
11
2.41034
21
0.394945
0
LINE
8
BLACK
6
CONTINUOUS
10
2.41034
20
0.394945
11
2.4035
21
0.39349
0
LINE
8
BLACK
6
CONTINUOUS
10
2.4035
20
0.39349
11
2.3965
21
0.39349
0
LINE
8
BLACK
6
CONTINUOUS
10
2.3965
20
0.39349
11
2.38966
21
0.394945
0
LINE
8
BLACK
6
CONTINUOUS
10
2.38966
20
0.394945
11
2.38327
21
0.39779
0
LINE
8
BLACK
6
CONTINUOUS
10
2.38327
20
0.39779
11
2.37761
21
0.401903
0
LINE
8
BLACK
6
CONTINUOUS
10
2.37761
20
0.401903
11
2.37293
21
0.407102
0
LINE
8
BLACK
6
CONTINUOUS
10
2.37293
20
0.407102
11
2.36943
21
0.41316
0
LINE
8
BLACK
6
CONTINUOUS
10
2.36943
20
0.41316
11
2.36727
21
0.419814
0
LINE
8
BLACK
6
CONTINUOUS
10
2.36727
20
0.419814
11
2.36654
21
0.426772
0
LINE
8
BLACK
6
CONTINUOUS
10
2.36654
20
0.426772
11
2.36727
21
0.433729
0
LINE
8
BLACK
6
CONTINUOUS
10
2.36727
20
0.433729
11
2.36943
21
0.440383
0
LINE
8
BLACK
6
CONTINUOUS
10
2.36943
20
0.440383
11
2.37293
21
0.446442
0
LINE
8
BLACK
6
CONTINUOUS
10
2.37293
20
0.446442
11
2.37761
21
0.451641
0
LINE
8
BLACK
6
CONTINUOUS
10
2.37761
20
0.451641
11
2.38327
21
0.455753
0
LINE
8
BLACK
6
CONTINUOUS
10
2.38327
20
0.455753
11
2.38966
21
0.458598
0
LINE
8
BLACK
6
CONTINUOUS
10
2.38966
20
0.458598
11
2.3965
21
0.460053
0
LINE
8
BLACK
6
CONTINUOUS
10
2.3965
20
0.460053
11
2.4035
21
0.460053
0
LINE
8
BLACK
6
CONTINUOUS
10
2.4035
20
0.460053
11
2.41034
21
0.458598
0
LINE
8
BLACK
6
CONTINUOUS
10
2.51034
20
0.458598
11
2.51673
21
0.455753
0
LINE
8
BLACK
6
CONTINUOUS
10
2.51673
20
0.455753
11
2.52239
21
0.451641
0
LINE
8
BLACK
6
CONTINUOUS
10
2.52239
20
0.451641
11
2.52707
21
0.446442
0
LINE
8
BLACK
6
CONTINUOUS
10
2.52707
20
0.446442
11
2.53057
21
0.440383
0
LINE
8
BLACK
6
CONTINUOUS
10
2.53057
20
0.440383
11
2.53273
21
0.433729
0
LINE
8
BLACK
6
CONTINUOUS
10
2.53273
20
0.433729
11
2.53346
21
0.426772
0
LINE
8
BLACK
6
CONTINUOUS
10
2.53346
20
0.426772
11
2.53273
21
0.419814
0
LINE
8
BLACK
6
CONTINUOUS
10
2.53273
20
0.419814
11
2.53057
21
0.41316
0
LINE
8
BLACK
6
CONTINUOUS
10
2.53057
20
0.41316
11
2.52707
21
0.407102
0
LINE
8
BLACK
6
CONTINUOUS
10
2.52707
20
0.407102
11
2.52239
21
0.401903
0
LINE
8
BLACK
6
CONTINUOUS
10
2.52239
20
0.401903
11
2.51673
21
0.39779
0
LINE
8
BLACK
6
CONTINUOUS
10
2.51673
20
0.39779
11
2.51034
21
0.394945
0
LINE
8
BLACK
6
CONTINUOUS
10
2.51034
20
0.394945
11
2.5035
21
0.39349
0
LINE
8
BLACK
6
CONTINUOUS
10
2.5035
20
0.39349
11
2.4965
21
0.39349
0
LINE
8
BLACK
6
CONTINUOUS
10
2.4965
20
0.39349
11
2.48966
21
0.394945
0
LINE
8
BLACK
6
CONTINUOUS
10
2.48966
20
0.394945
11
2.48327
21
0.39779
0
LINE
8
BLACK
6
CONTINUOUS
10
2.48327
20
0.39779
11
2.47761
21
0.401903
0
LINE
8
BLACK
6
CONTINUOUS
10
2.47761
20
0.401903
11
2.47293
21
0.407102
0
LINE
8
BLACK
6
CONTINUOUS
10
2.47293
20
0.407102
11
2.46943
21
0.41316
0
LINE
8
BLACK
6
CONTINUOUS
10
2.46943
20
0.41316
11
2.46727
21
0.419814
0
LINE
8
BLACK
6
CONTINUOUS
10
2.46727
20
0.419814
11
2.46654
21
0.426772
0
LINE
8
BLACK
6
CONTINUOUS
10
2.46654
20
0.426772
11
2.46727
21
0.433729
0
LINE
8
BLACK
6
CONTINUOUS
10
2.46727
20
0.433729
11
2.46943
21
0.440383
0
LINE
8
BLACK
6
CONTINUOUS
10
2.46943
20
0.440383
11
2.47293
21
0.446442
0
LINE
8
BLACK
6
CONTINUOUS
10
2.47293
20
0.446442
11
2.47761
21
0.451641
0
LINE
8
BLACK
6
CONTINUOUS
10
2.47761
20
0.451641
11
2.48327
21
0.455753
0
LINE
8
BLACK
6
CONTINUOUS
10
2.48327
20
0.455753
11
2.48966
21
0.458598
0
LINE
8
BLACK
6
CONTINUOUS
10
2.48966
20
0.458598
11
2.4965
21
0.460053
0
LINE
8
BLACK
6
CONTINUOUS
10
2.4965
20
0.460053
11
2.5035
21
0.460053
0
LINE
8
BLACK
6
CONTINUOUS
10
2.5035
20
0.460053
11
2.51034
21
0.458598
0
LINE
8
BLACK
6
CONTINUOUS
10
1.44173
20
0.492717
11
1.3748
21
0.492717
0
LINE
8
BLACK
6
CONTINUOUS
10
1.3748
20
0.492717
11
1.3748
21
0.559646
0
LINE
8
BLACK
6
CONTINUOUS
10
1.3748
20
0.559646
11
1.44173
21
0.559646
0
LINE
8
BLACK
6
CONTINUOUS
10
1.44173
20
0.559646
11
1.44173
21
0.492717
0
LINE
8
BLACK
6
CONTINUOUS
10
0.818609
20
0.558008
11
0.825
21
0.555162
0
LINE
8
BLACK
6
CONTINUOUS
10
0.825
20
0.555162
11
0.83066
21
0.55105
0
LINE
8
BLACK
6
CONTINUOUS
10
0.83066
20
0.55105
11
0.835341
21
0.545851
0
LINE
8
BLACK
6
CONTINUOUS
10
0.835341
20
0.545851
11
0.838839
21
0.539792
0
LINE
8
BLACK
6
CONTINUOUS
10
0.838839
20
0.539792
11
0.841001
21
0.533139
0
LINE
8
BLACK
6
CONTINUOUS
10
0.841001
20
0.533139
11
0.841732
21
0.526181
0
LINE
8
BLACK
6
CONTINUOUS
10
0.841732
20
0.526181
11
0.841001
21
0.519223
0
LINE
8
BLACK
6
CONTINUOUS
10
0.841001
20
0.519223
11
0.838839
21
0.51257
0
LINE
8
BLACK
6
CONTINUOUS
10
0.838839
20
0.51257
11
0.835341
21
0.506511
0
LINE
8
BLACK
6
CONTINUOUS
10
0.835341
20
0.506511
11
0.83066
21
0.501312
0
LINE
8
BLACK
6
CONTINUOUS
10
0.83066
20
0.501312
11
0.825
21
0.4972
0
LINE
8
BLACK
6
CONTINUOUS
10
0.825
20
0.4972
11
0.818609
21
0.494354
0
LINE
8
BLACK
6
CONTINUOUS
10
0.818609
20
0.494354
11
0.811766
21
0.4929
0
LINE
8
BLACK
6
CONTINUOUS
10
0.811766
20
0.4929
11
0.80477
21
0.4929
0
LINE
8
BLACK
6
CONTINUOUS
10
0.80477
20
0.4929
11
0.797927
21
0.494354
0
LINE
8
BLACK
6
CONTINUOUS
10
0.797927
20
0.494354
11
0.791535
21
0.4972
0
LINE
8
BLACK
6
CONTINUOUS
10
0.791535
20
0.4972
11
0.785876
21
0.501312
0
LINE
8
BLACK
6
CONTINUOUS
10
0.785876
20
0.501312
11
0.781194
21
0.506511
0
LINE
8
BLACK
6
CONTINUOUS
10
0.781194
20
0.506511
11
0.777696
21
0.51257
0
LINE
8
BLACK
6
CONTINUOUS
10
0.777696
20
0.51257
11
0.775534
21
0.519223
0
LINE
8
BLACK
6
CONTINUOUS
10
0.775534
20
0.519223
11
0.774803
21
0.526181
0
LINE
8
BLACK
6
CONTINUOUS
10
0.774803
20
0.526181
11
0.775534
21
0.533139
0
LINE
8
BLACK
6
CONTINUOUS
10
0.775534
20
0.533139
11
0.777696
21
0.539792
0
LINE
8
BLACK
6
CONTINUOUS
10
0.777696
20
0.539792
11
0.781194
21
0.545851
0
LINE
8
BLACK
6
CONTINUOUS
10
0.781194
20
0.545851
11
0.785876
21
0.55105
0
LINE
8
BLACK
6
CONTINUOUS
10
0.785876
20
0.55105
11
0.791535
21
0.555162
0
LINE
8
BLACK
6
CONTINUOUS
10
0.791535
20
0.555162
11
0.797927
21
0.558008
0
LINE
8
BLACK
6
CONTINUOUS
10
0.797927
20
0.558008
11
0.80477
21
0.559462
0
LINE
8
BLACK
6
CONTINUOUS
10
0.80477
20
0.559462
11
0.811766
21
0.559462
0
LINE
8
BLACK
6
CONTINUOUS
10
0.811766
20
0.559462
11
0.818609
21
0.558008
0
LINE
8
BLACK
6
CONTINUOUS
10
0.918609
20
0.558008
11
0.925
21
0.555162
0
LINE
8
BLACK
6
CONTINUOUS
10
0.925
20
0.555162
11
0.93066
21
0.55105
0
LINE
8
BLACK
6
CONTINUOUS
10
0.93066
20
0.55105
11
0.935341
21
0.545851
0
LINE
8
BLACK
6
CONTINUOUS
10
0.935341
20
0.545851
11
0.938839
21
0.539792
0
LINE
8
BLACK
6
CONTINUOUS
10
0.938839
20
0.539792
11
0.941001
21
0.533139
0
LINE
8
BLACK
6
CONTINUOUS
10
0.941001
20
0.533139
11
0.941732
21
0.526181
0
LINE
8
BLACK
6
CONTINUOUS
10
0.941732
20
0.526181
11
0.941001
21
0.519223
0
LINE
8
BLACK
6
CONTINUOUS
10
0.941001
20
0.519223
11
0.938839
21
0.51257
0
LINE
8
BLACK
6
CONTINUOUS
10
0.938839
20
0.51257
11
0.935341
21
0.506511
0
LINE
8
BLACK
6
CONTINUOUS
10
0.935341
20
0.506511
11
0.93066
21
0.501312
0
LINE
8
BLACK
6
CONTINUOUS
10
0.93066
20
0.501312
11
0.925
21
0.4972
0
LINE
8
BLACK
6
CONTINUOUS
10
0.925
20
0.4972
11
0.918609
21
0.494354
0
LINE
8
BLACK
6
CONTINUOUS
10
0.918609
20
0.494354
11
0.911766
21
0.4929
0
LINE
8
BLACK
6
CONTINUOUS
10
0.911766
20
0.4929
11
0.90477
21
0.4929
0
LINE
8
BLACK
6
CONTINUOUS
10
0.90477
20
0.4929
11
0.897927
21
0.494354
0
LINE
8
BLACK
6
CONTINUOUS
10
0.897927
20
0.494354
11
0.891535
21
0.4972
0
LINE
8
BLACK
6
CONTINUOUS
10
0.891535
20
0.4972
11
0.885876
21
0.501312
0
LINE
8
BLACK
6
CONTINUOUS
10
0.885876
20
0.501312
11
0.881194
21
0.506511
0
LINE
8
BLACK
6
CONTINUOUS
10
0.881194
20
0.506511
11
0.877696
21
0.51257
0
LINE
8
BLACK
6
CONTINUOUS
10
0.877696
20
0.51257
11
0.875534
21
0.519223
0
LINE
8
BLACK
6
CONTINUOUS
10
0.875534
20
0.519223
11
0.874803
21
0.526181
0
LINE
8
BLACK
6
CONTINUOUS
10
0.874803
20
0.526181
11
0.875534
21
0.533139
0
LINE
8
BLACK
6
CONTINUOUS
10
0.875534
20
0.533139
11
0.877696
21
0.539792
0
LINE
8
BLACK
6
CONTINUOUS
10
0.877696
20
0.539792
11
0.881194
21
0.545851
0
LINE
8
BLACK
6
CONTINUOUS
10
0.881194
20
0.545851
11
0.885876
21
0.55105
0
LINE
8
BLACK
6
CONTINUOUS
10
0.885876
20
0.55105
11
0.891535
21
0.555162
0
LINE
8
BLACK
6
CONTINUOUS
10
0.891535
20
0.555162
11
0.897927
21
0.558008
0
LINE
8
BLACK
6
CONTINUOUS
10
0.897927
20
0.558008
11
0.90477
21
0.559462
0
LINE
8
BLACK
6
CONTINUOUS
10
0.90477
20
0.559462
11
0.911766
21
0.559462
0
LINE
8
BLACK
6
CONTINUOUS
10
0.911766
20
0.559462
11
0.918609
21
0.558008
0
LINE
8
BLACK
6
CONTINUOUS
10
1.01861
20
0.558008
11
1.025
21
0.555162
0
LINE
8
BLACK
6
CONTINUOUS
10
1.025
20
0.555162
11
1.03066
21
0.55105
0
LINE
8
BLACK
6
CONTINUOUS
10
1.03066
20
0.55105
11
1.03534
21
0.545851
0
LINE
8
BLACK
6
CONTINUOUS
10
1.03534
20
0.545851
11
1.03884
21
0.539792
0
LINE
8
BLACK
6
CONTINUOUS
10
1.03884
20
0.539792
11
1.041
21
0.533139
0
LINE
8
BLACK
6
CONTINUOUS
10
1.041
20
0.533139
11
1.04173
21
0.526181
0
LINE
8
BLACK
6
CONTINUOUS
10
1.04173
20
0.526181
11
1.041
21
0.519223
0
LINE
8
BLACK
6
CONTINUOUS
10
1.041
20
0.519223
11
1.03884
21
0.51257
0
LINE
8
BLACK
6
CONTINUOUS
10
1.03884
20
0.51257
11
1.03534
21
0.506511
0
LINE
8
BLACK
6
CONTINUOUS
10
1.03534
20
0.506511
11
1.03066
21
0.501312
0
LINE
8
BLACK
6
CONTINUOUS
10
1.03066
20
0.501312
11
1.025
21
0.4972
0
LINE
8
BLACK
6
CONTINUOUS
10
1.025
20
0.4972
11
1.01861
21
0.494354
0
LINE
8
BLACK
6
CONTINUOUS
10
1.01861
20
0.494354
11
1.01177
21
0.4929
0
LINE
8
BLACK
6
CONTINUOUS
10
1.01177
20
0.4929
11
1.00477
21
0.4929
0
LINE
8
BLACK
6
CONTINUOUS
10
1.00477
20
0.4929
11
0.997927
21
0.494354
0
LINE
8
BLACK
6
CONTINUOUS
10
0.997927
20
0.494354
11
0.991535
21
0.4972
0
LINE
8
BLACK
6
CONTINUOUS
10
0.991535
20
0.4972
11
0.985876
21
0.501312
0
LINE
8
BLACK
6
CONTINUOUS
10
0.985876
20
0.501312
11
0.981194
21
0.506511
0
LINE
8
BLACK
6
CONTINUOUS
10
0.981194
20
0.506511
11
0.977696
21
0.51257
0
LINE
8
BLACK
6
CONTINUOUS
10
0.977696
20
0.51257
11
0.975534
21
0.519223
0
LINE
8
BLACK
6
CONTINUOUS
10
0.975534
20
0.519223
11
0.974803
21
0.526181
0
LINE
8
BLACK
6
CONTINUOUS
10
0.974803
20
0.526181
11
0.975534
21
0.533139
0
LINE
8
BLACK
6
CONTINUOUS
10
0.975534
20
0.533139
11
0.977696
21
0.539792
0
LINE
8
BLACK
6
CONTINUOUS
10
0.977696
20
0.539792
11
0.981194
21
0.545851
0
LINE
8
BLACK
6
CONTINUOUS
10
0.981194
20
0.545851
11
0.985876
21
0.55105
0
LINE
8
BLACK
6
CONTINUOUS
10
0.985876
20
0.55105
11
0.991535
21
0.555162
0
LINE
8
BLACK
6
CONTINUOUS
10
0.991535
20
0.555162
11
0.997927
21
0.558008
0
LINE
8
BLACK
6
CONTINUOUS
10
0.997927
20
0.558008
11
1.00477
21
0.559462
0
LINE
8
BLACK
6
CONTINUOUS
10
1.00477
20
0.559462
11
1.01177
21
0.559462
0
LINE
8
BLACK
6
CONTINUOUS
10
1.01177
20
0.559462
11
1.01861
21
0.558008
0
LINE
8
BLACK
6
CONTINUOUS
10
1.11861
20
0.558008
11
1.125
21
0.555162
0
LINE
8
BLACK
6
CONTINUOUS
10
1.125
20
0.555162
11
1.13066
21
0.55105
0
LINE
8
BLACK
6
CONTINUOUS
10
1.13066
20
0.55105
11
1.13534
21
0.545851
0
LINE
8
BLACK
6
CONTINUOUS
10
1.13534
20
0.545851
11
1.13884
21
0.539792
0
LINE
8
BLACK
6
CONTINUOUS
10
1.13884
20
0.539792
11
1.141
21
0.533139
0
LINE
8
BLACK
6
CONTINUOUS
10
1.141
20
0.533139
11
1.14173
21
0.526181
0
LINE
8
BLACK
6
CONTINUOUS
10
1.14173
20
0.526181
11
1.141
21
0.519223
0
LINE
8
BLACK
6
CONTINUOUS
10
1.141
20
0.519223
11
1.13884
21
0.51257
0
LINE
8
BLACK
6
CONTINUOUS
10
1.13884
20
0.51257
11
1.13534
21
0.506511
0
LINE
8
BLACK
6
CONTINUOUS
10
1.13534
20
0.506511
11
1.13066
21
0.501312
0
LINE
8
BLACK
6
CONTINUOUS
10
1.13066
20
0.501312
11
1.125
21
0.4972
0
LINE
8
BLACK
6
CONTINUOUS
10
1.125
20
0.4972
11
1.11861
21
0.494354
0
LINE
8
BLACK
6
CONTINUOUS
10
1.11861
20
0.494354
11
1.11177
21
0.4929
0
LINE
8
BLACK
6
CONTINUOUS
10
1.11177
20
0.4929
11
1.10477
21
0.4929
0
LINE
8
BLACK
6
CONTINUOUS
10
1.10477
20
0.4929
11
1.09793
21
0.494354
0
LINE
8
BLACK
6
CONTINUOUS
10
1.09793
20
0.494354
11
1.09154
21
0.4972
0
LINE
8
BLACK
6
CONTINUOUS
10
1.09154
20
0.4972
11
1.08588
21
0.501312
0
LINE
8
BLACK
6
CONTINUOUS
10
1.08588
20
0.501312
11
1.08119
21
0.506511
0
LINE
8
BLACK
6
CONTINUOUS
10
1.08119
20
0.506511
11
1.0777
21
0.51257
0
LINE
8
BLACK
6
CONTINUOUS
10
1.0777
20
0.51257
11
1.07553
21
0.519223
0
LINE
8
BLACK
6
CONTINUOUS
10
1.07553
20
0.519223
11
1.0748
21
0.526181
0
LINE
8
BLACK
6
CONTINUOUS
10
1.0748
20
0.526181
11
1.07553
21
0.533139
0
LINE
8
BLACK
6
CONTINUOUS
10
1.07553
20
0.533139
11
1.0777
21
0.539792
0
LINE
8
BLACK
6
CONTINUOUS
10
1.0777
20
0.539792
11
1.08119
21
0.545851
0
LINE
8
BLACK
6
CONTINUOUS
10
1.08119
20
0.545851
11
1.08588
21
0.55105
0
LINE
8
BLACK
6
CONTINUOUS
10
1.08588
20
0.55105
11
1.09154
21
0.555162
0
LINE
8
BLACK
6
CONTINUOUS
10
1.09154
20
0.555162
11
1.09793
21
0.558008
0
LINE
8
BLACK
6
CONTINUOUS
10
1.09793
20
0.558008
11
1.10477
21
0.559462
0
LINE
8
BLACK
6
CONTINUOUS
10
1.10477
20
0.559462
11
1.11177
21
0.559462
0
LINE
8
BLACK
6
CONTINUOUS
10
1.11177
20
0.559462
11
1.11861
21
0.558008
0
LINE
8
BLACK
6
CONTINUOUS
10
1.21861
20
0.558008
11
1.225
21
0.555162
0
LINE
8
BLACK
6
CONTINUOUS
10
1.225
20
0.555162
11
1.23066
21
0.55105
0
LINE
8
BLACK
6
CONTINUOUS
10
1.23066
20
0.55105
11
1.23534
21
0.545851
0
LINE
8
BLACK
6
CONTINUOUS
10
1.23534
20
0.545851
11
1.23884
21
0.539792
0
LINE
8
BLACK
6
CONTINUOUS
10
1.23884
20
0.539792
11
1.241
21
0.533139
0
LINE
8
BLACK
6
CONTINUOUS
10
1.241
20
0.533139
11
1.24173
21
0.526181
0
LINE
8
BLACK
6
CONTINUOUS
10
1.24173
20
0.526181
11
1.241
21
0.519223
0
LINE
8
BLACK
6
CONTINUOUS
10
1.241
20
0.519223
11
1.23884
21
0.51257
0
LINE
8
BLACK
6
CONTINUOUS
10
1.23884
20
0.51257
11
1.23534
21
0.506511
0
LINE
8
BLACK
6
CONTINUOUS
10
1.23534
20
0.506511
11
1.23066
21
0.501312
0
LINE
8
BLACK
6
CONTINUOUS
10
1.23066
20
0.501312
11
1.225
21
0.4972
0
LINE
8
BLACK
6
CONTINUOUS
10
1.225
20
0.4972
11
1.21861
21
0.494354
0
LINE
8
BLACK
6
CONTINUOUS
10
1.21861
20
0.494354
11
1.21177
21
0.4929
0
LINE
8
BLACK
6
CONTINUOUS
10
1.21177
20
0.4929
11
1.20477
21
0.4929
0
LINE
8
BLACK
6
CONTINUOUS
10
1.20477
20
0.4929
11
1.19793
21
0.494354
0
LINE
8
BLACK
6
CONTINUOUS
10
1.19793
20
0.494354
11
1.19154
21
0.4972
0
LINE
8
BLACK
6
CONTINUOUS
10
1.19154
20
0.4972
11
1.18588
21
0.501312
0
LINE
8
BLACK
6
CONTINUOUS
10
1.18588
20
0.501312
11
1.18119
21
0.506511
0
LINE
8
BLACK
6
CONTINUOUS
10
1.18119
20
0.506511
11
1.1777
21
0.51257
0
LINE
8
BLACK
6
CONTINUOUS
10
1.1777
20
0.51257
11
1.17553
21
0.519223
0
LINE
8
BLACK
6
CONTINUOUS
10
1.17553
20
0.519223
11
1.1748
21
0.526181
0
LINE
8
BLACK
6
CONTINUOUS
10
1.1748
20
0.526181
11
1.17553
21
0.533139
0
LINE
8
BLACK
6
CONTINUOUS
10
1.17553
20
0.533139
11
1.1777
21
0.539792
0
LINE
8
BLACK
6
CONTINUOUS
10
1.1777
20
0.539792
11
1.18119
21
0.545851
0
LINE
8
BLACK
6
CONTINUOUS
10
1.18119
20
0.545851
11
1.18588
21
0.55105
0
LINE
8
BLACK
6
CONTINUOUS
10
1.18588
20
0.55105
11
1.19154
21
0.555162
0
LINE
8
BLACK
6
CONTINUOUS
10
1.19154
20
0.555162
11
1.19793
21
0.558008
0
LINE
8
BLACK
6
CONTINUOUS
10
1.19793
20
0.558008
11
1.20477
21
0.559462
0
LINE
8
BLACK
6
CONTINUOUS
10
1.20477
20
0.559462
11
1.21177
21
0.559462
0
LINE
8
BLACK
6
CONTINUOUS
10
1.21177
20
0.559462
11
1.21861
21
0.558008
0
LINE
8
BLACK
6
CONTINUOUS
10
1.31861
20
0.558008
11
1.325
21
0.555162
0
LINE
8
BLACK
6
CONTINUOUS
10
1.325
20
0.555162
11
1.33066
21
0.55105
0
LINE
8
BLACK
6
CONTINUOUS
10
1.33066
20
0.55105
11
1.33534
21
0.545851
0
LINE
8
BLACK
6
CONTINUOUS
10
1.33534
20
0.545851
11
1.33884
21
0.539792
0
LINE
8
BLACK
6
CONTINUOUS
10
1.33884
20
0.539792
11
1.341
21
0.533139
0
LINE
8
BLACK
6
CONTINUOUS
10
1.341
20
0.533139
11
1.34173
21
0.526181
0
LINE
8
BLACK
6
CONTINUOUS
10
1.34173
20
0.526181
11
1.341
21
0.519223
0
LINE
8
BLACK
6
CONTINUOUS
10
1.341
20
0.519223
11
1.33884
21
0.51257
0
LINE
8
BLACK
6
CONTINUOUS
10
1.33884
20
0.51257
11
1.33534
21
0.506511
0
LINE
8
BLACK
6
CONTINUOUS
10
1.33534
20
0.506511
11
1.33066
21
0.501312
0
LINE
8
BLACK
6
CONTINUOUS
10
1.33066
20
0.501312
11
1.325
21
0.4972
0
LINE
8
BLACK
6
CONTINUOUS
10
1.325
20
0.4972
11
1.31861
21
0.494354
0
LINE
8
BLACK
6
CONTINUOUS
10
1.31861
20
0.494354
11
1.31177
21
0.4929
0
LINE
8
BLACK
6
CONTINUOUS
10
1.31177
20
0.4929
11
1.30477
21
0.4929
0
LINE
8
BLACK
6
CONTINUOUS
10
1.30477
20
0.4929
11
1.29793
21
0.494354
0
LINE
8
BLACK
6
CONTINUOUS
10
1.29793
20
0.494354
11
1.29154
21
0.4972
0
LINE
8
BLACK
6
CONTINUOUS
10
1.29154
20
0.4972
11
1.28588
21
0.501312
0
LINE
8
BLACK
6
CONTINUOUS
10
1.28588
20
0.501312
11
1.28119
21
0.506511
0
LINE
8
BLACK
6
CONTINUOUS
10
1.28119
20
0.506511
11
1.2777
21
0.51257
0
LINE
8
BLACK
6
CONTINUOUS
10
1.2777
20
0.51257
11
1.27553
21
0.519223
0
LINE
8
BLACK
6
CONTINUOUS
10
1.27553
20
0.519223
11
1.2748
21
0.526181
0
LINE
8
BLACK
6
CONTINUOUS
10
1.2748
20
0.526181
11
1.27553
21
0.533139
0
LINE
8
BLACK
6
CONTINUOUS
10
1.27553
20
0.533139
11
1.2777
21
0.539792
0
LINE
8
BLACK
6
CONTINUOUS
10
1.2777
20
0.539792
11
1.28119
21
0.545851
0
LINE
8
BLACK
6
CONTINUOUS
10
1.28119
20
0.545851
11
1.28588
21
0.55105
0
LINE
8
BLACK
6
CONTINUOUS
10
1.28588
20
0.55105
11
1.29154
21
0.555162
0
LINE
8
BLACK
6
CONTINUOUS
10
1.29154
20
0.555162
11
1.29793
21
0.558008
0
LINE
8
BLACK
6
CONTINUOUS
10
1.29793
20
0.558008
11
1.30477
21
0.559462
0
LINE
8
BLACK
6
CONTINUOUS
10
1.30477
20
0.559462
11
1.31177
21
0.559462
0
LINE
8
BLACK
6
CONTINUOUS
10
1.31177
20
0.559462
11
1.31861
21
0.558008
0
LINE
8
BLACK
6
CONTINUOUS
10
1.61861
20
0.558008
11
1.625
21
0.555162
0
LINE
8
BLACK
6
CONTINUOUS
10
1.625
20
0.555162
11
1.63066
21
0.55105
0
LINE
8
BLACK
6
CONTINUOUS
10
1.63066
20
0.55105
11
1.63534
21
0.545851
0
LINE
8
BLACK
6
CONTINUOUS
10
1.63534
20
0.545851
11
1.63884
21
0.539792
0
LINE
8
BLACK
6
CONTINUOUS
10
1.63884
20
0.539792
11
1.641
21
0.533139
0
LINE
8
BLACK
6
CONTINUOUS
10
1.641
20
0.533139
11
1.64173
21
0.526181
0
LINE
8
BLACK
6
CONTINUOUS
10
1.64173
20
0.526181
11
1.641
21
0.519223
0
LINE
8
BLACK
6
CONTINUOUS
10
1.641
20
0.519223
11
1.63884
21
0.51257
0
LINE
8
BLACK
6
CONTINUOUS
10
1.63884
20
0.51257
11
1.63534
21
0.506511
0
LINE
8
BLACK
6
CONTINUOUS
10
1.63534
20
0.506511
11
1.63066
21
0.501312
0
LINE
8
BLACK
6
CONTINUOUS
10
1.63066
20
0.501312
11
1.625
21
0.4972
0
LINE
8
BLACK
6
CONTINUOUS
10
1.625
20
0.4972
11
1.61861
21
0.494354
0
LINE
8
BLACK
6
CONTINUOUS
10
1.61861
20
0.494354
11
1.61177
21
0.4929
0
LINE
8
BLACK
6
CONTINUOUS
10
1.61177
20
0.4929
11
1.60477
21
0.4929
0
LINE
8
BLACK
6
CONTINUOUS
10
1.60477
20
0.4929
11
1.59793
21
0.494354
0
LINE
8
BLACK
6
CONTINUOUS
10
1.59793
20
0.494354
11
1.59154
21
0.4972
0
LINE
8
BLACK
6
CONTINUOUS
10
1.59154
20
0.4972
11
1.58588
21
0.501312
0
LINE
8
BLACK
6
CONTINUOUS
10
1.58588
20
0.501312
11
1.58119
21
0.506511
0
LINE
8
BLACK
6
CONTINUOUS
10
1.58119
20
0.506511
11
1.5777
21
0.51257
0
LINE
8
BLACK
6
CONTINUOUS
10
1.5777
20
0.51257
11
1.57553
21
0.519223
0
LINE
8
BLACK
6
CONTINUOUS
10
1.57553
20
0.519223
11
1.5748
21
0.526181
0
LINE
8
BLACK
6
CONTINUOUS
10
1.5748
20
0.526181
11
1.57553
21
0.533139
0
LINE
8
BLACK
6
CONTINUOUS
10
1.57553
20
0.533139
11
1.5777
21
0.539792
0
LINE
8
BLACK
6
CONTINUOUS
10
1.5777
20
0.539792
11
1.58119
21
0.545851
0
LINE
8
BLACK
6
CONTINUOUS
10
1.58119
20
0.545851
11
1.58588
21
0.55105
0
LINE
8
BLACK
6
CONTINUOUS
10
1.58588
20
0.55105
11
1.59154
21
0.555162
0
LINE
8
BLACK
6
CONTINUOUS
10
1.59154
20
0.555162
11
1.59793
21
0.558008
0
LINE
8
BLACK
6
CONTINUOUS
10
1.59793
20
0.558008
11
1.60477
21
0.559462
0
LINE
8
BLACK
6
CONTINUOUS
10
1.60477
20
0.559462
11
1.61177
21
0.559462
0
LINE
8
BLACK
6
CONTINUOUS
10
1.61177
20
0.559462
11
1.61861
21
0.558008
0
LINE
8
BLACK
6
CONTINUOUS
10
1.71861
20
0.558008
11
1.725
21
0.555162
0
LINE
8
BLACK
6
CONTINUOUS
10
1.725
20
0.555162
11
1.73066
21
0.55105
0
LINE
8
BLACK
6
CONTINUOUS
10
1.73066
20
0.55105
11
1.73534
21
0.545851
0
LINE
8
BLACK
6
CONTINUOUS
10
1.73534
20
0.545851
11
1.73884
21
0.539792
0
LINE
8
BLACK
6
CONTINUOUS
10
1.73884
20
0.539792
11
1.741
21
0.533139
0
LINE
8
BLACK
6
CONTINUOUS
10
1.741
20
0.533139
11
1.74173
21
0.526181
0
LINE
8
BLACK
6
CONTINUOUS
10
1.74173
20
0.526181
11
1.741
21
0.519223
0
LINE
8
BLACK
6
CONTINUOUS
10
1.741
20
0.519223
11
1.73884
21
0.51257
0
LINE
8
BLACK
6
CONTINUOUS
10
1.73884
20
0.51257
11
1.73534
21
0.506511
0
LINE
8
BLACK
6
CONTINUOUS
10
1.73534
20
0.506511
11
1.73066
21
0.501312
0
LINE
8
BLACK
6
CONTINUOUS
10
1.73066
20
0.501312
11
1.725
21
0.4972
0
LINE
8
BLACK
6
CONTINUOUS
10
1.725
20
0.4972
11
1.71861
21
0.494354
0
LINE
8
BLACK
6
CONTINUOUS
10
1.71861
20
0.494354
11
1.71177
21
0.4929
0
LINE
8
BLACK
6
CONTINUOUS
10
1.71177
20
0.4929
11
1.70477
21
0.4929
0
LINE
8
BLACK
6
CONTINUOUS
10
1.70477
20
0.4929
11
1.69793
21
0.494354
0
LINE
8
BLACK
6
CONTINUOUS
10
1.69793
20
0.494354
11
1.69154
21
0.4972
0
LINE
8
BLACK
6
CONTINUOUS
10
1.69154
20
0.4972
11
1.68588
21
0.501312
0
LINE
8
BLACK
6
CONTINUOUS
10
1.68588
20
0.501312
11
1.68119
21
0.506511
0
LINE
8
BLACK
6
CONTINUOUS
10
1.68119
20
0.506511
11
1.6777
21
0.51257
0
LINE
8
BLACK
6
CONTINUOUS
10
1.6777
20
0.51257
11
1.67553
21
0.519223
0
LINE
8
BLACK
6
CONTINUOUS
10
1.67553
20
0.519223
11
1.6748
21
0.526181
0
LINE
8
BLACK
6
CONTINUOUS
10
1.6748
20
0.526181
11
1.67553
21
0.533139
0
LINE
8
BLACK
6
CONTINUOUS
10
1.67553
20
0.533139
11
1.6777
21
0.539792
0
LINE
8
BLACK
6
CONTINUOUS
10
1.6777
20
0.539792
11
1.68119
21
0.545851
0
LINE
8
BLACK
6
CONTINUOUS
10
1.68119
20
0.545851
11
1.68588
21
0.55105
0
LINE
8
BLACK
6
CONTINUOUS
10
1.68588
20
0.55105
11
1.69154
21
0.555162
0
LINE
8
BLACK
6
CONTINUOUS
10
1.69154
20
0.555162
11
1.69793
21
0.558008
0
LINE
8
BLACK
6
CONTINUOUS
10
1.69793
20
0.558008
11
1.70477
21
0.559462
0
LINE
8
BLACK
6
CONTINUOUS
10
1.70477
20
0.559462
11
1.71177
21
0.559462
0
LINE
8
BLACK
6
CONTINUOUS
10
1.71177
20
0.559462
11
1.71861
21
0.558008
0
LINE
8
BLACK
6
CONTINUOUS
10
1.81861
20
0.558008
11
1.825
21
0.555162
0
LINE
8
BLACK
6
CONTINUOUS
10
1.825
20
0.555162
11
1.83066
21
0.55105
0
LINE
8
BLACK
6
CONTINUOUS
10
1.83066
20
0.55105
11
1.83534
21
0.545851
0
LINE
8
BLACK
6
CONTINUOUS
10
1.83534
20
0.545851
11
1.83884
21
0.539792
0
LINE
8
BLACK
6
CONTINUOUS
10
1.83884
20
0.539792
11
1.841
21
0.533139
0
LINE
8
BLACK
6
CONTINUOUS
10
1.841
20
0.533139
11
1.84173
21
0.526181
0
LINE
8
BLACK
6
CONTINUOUS
10
1.84173
20
0.526181
11
1.841
21
0.519223
0
LINE
8
BLACK
6
CONTINUOUS
10
1.841
20
0.519223
11
1.83884
21
0.51257
0
LINE
8
BLACK
6
CONTINUOUS
10
1.83884
20
0.51257
11
1.83534
21
0.506511
0
LINE
8
BLACK
6
CONTINUOUS
10
1.83534
20
0.506511
11
1.83066
21
0.501312
0
LINE
8
BLACK
6
CONTINUOUS
10
1.83066
20
0.501312
11
1.825
21
0.4972
0
LINE
8
BLACK
6
CONTINUOUS
10
1.825
20
0.4972
11
1.81861
21
0.494354
0
LINE
8
BLACK
6
CONTINUOUS
10
1.81861
20
0.494354
11
1.81177
21
0.4929
0
LINE
8
BLACK
6
CONTINUOUS
10
1.81177
20
0.4929
11
1.80477
21
0.4929
0
LINE
8
BLACK
6
CONTINUOUS
10
1.80477
20
0.4929
11
1.79793
21
0.494354
0
LINE
8
BLACK
6
CONTINUOUS
10
1.79793
20
0.494354
11
1.79154
21
0.4972
0
LINE
8
BLACK
6
CONTINUOUS
10
1.79154
20
0.4972
11
1.78588
21
0.501312
0
LINE
8
BLACK
6
CONTINUOUS
10
1.78588
20
0.501312
11
1.78119
21
0.506511
0
LINE
8
BLACK
6
CONTINUOUS
10
1.78119
20
0.506511
11
1.7777
21
0.51257
0
LINE
8
BLACK
6
CONTINUOUS
10
1.7777
20
0.51257
11
1.77553
21
0.519223
0
LINE
8
BLACK
6
CONTINUOUS
10
1.77553
20
0.519223
11
1.7748
21
0.526181
0
LINE
8
BLACK
6
CONTINUOUS
10
1.7748
20
0.526181
11
1.77553
21
0.533139
0
LINE
8
BLACK
6
CONTINUOUS
10
1.77553
20
0.533139
11
1.7777
21
0.539792
0
LINE
8
BLACK
6
CONTINUOUS
10
1.7777
20
0.539792
11
1.78119
21
0.545851
0
LINE
8
BLACK
6
CONTINUOUS
10
1.78119
20
0.545851
11
1.78588
21
0.55105
0
LINE
8
BLACK
6
CONTINUOUS
10
1.78588
20
0.55105
11
1.79154
21
0.555162
0
LINE
8
BLACK
6
CONTINUOUS
10
1.79154
20
0.555162
11
1.79793
21
0.558008
0
LINE
8
BLACK
6
CONTINUOUS
10
1.79793
20
0.558008
11
1.80477
21
0.559462
0
LINE
8
BLACK
6
CONTINUOUS
10
1.80477
20
0.559462
11
1.81177
21
0.559462
0
LINE
8
BLACK
6
CONTINUOUS
10
1.81177
20
0.559462
11
1.81861
21
0.558008
0
LINE
8
BLACK
6
CONTINUOUS
10
1.91861
20
0.558008
11
1.925
21
0.555162
0
LINE
8
BLACK
6
CONTINUOUS
10
1.925
20
0.555162
11
1.93066
21
0.55105
0
LINE
8
BLACK
6
CONTINUOUS
10
1.93066
20
0.55105
11
1.93534
21
0.545851
0
LINE
8
BLACK
6
CONTINUOUS
10
1.93534
20
0.545851
11
1.93884
21
0.539792
0
LINE
8
BLACK
6
CONTINUOUS
10
1.93884
20
0.539792
11
1.941
21
0.533139
0
LINE
8
BLACK
6
CONTINUOUS
10
1.941
20
0.533139
11
1.94173
21
0.526181
0
LINE
8
BLACK
6
CONTINUOUS
10
1.94173
20
0.526181
11
1.941
21
0.519223
0
LINE
8
BLACK
6
CONTINUOUS
10
1.941
20
0.519223
11
1.93884
21
0.51257
0
LINE
8
BLACK
6
CONTINUOUS
10
1.93884
20
0.51257
11
1.93534
21
0.506511
0
LINE
8
BLACK
6
CONTINUOUS
10
1.93534
20
0.506511
11
1.93066
21
0.501312
0
LINE
8
BLACK
6
CONTINUOUS
10
1.93066
20
0.501312
11
1.925
21
0.4972
0
LINE
8
BLACK
6
CONTINUOUS
10
1.925
20
0.4972
11
1.91861
21
0.494354
0
LINE
8
BLACK
6
CONTINUOUS
10
1.91861
20
0.494354
11
1.91177
21
0.4929
0
LINE
8
BLACK
6
CONTINUOUS
10
1.91177
20
0.4929
11
1.90477
21
0.4929
0
LINE
8
BLACK
6
CONTINUOUS
10
1.90477
20
0.4929
11
1.89793
21
0.494354
0
LINE
8
BLACK
6
CONTINUOUS
10
1.89793
20
0.494354
11
1.89154
21
0.4972
0
LINE
8
BLACK
6
CONTINUOUS
10
1.89154
20
0.4972
11
1.88588
21
0.501312
0
LINE
8
BLACK
6
CONTINUOUS
10
1.88588
20
0.501312
11
1.88119
21
0.506511
0
LINE
8
BLACK
6
CONTINUOUS
10
1.88119
20
0.506511
11
1.8777
21
0.51257
0
LINE
8
BLACK
6
CONTINUOUS
10
1.8777
20
0.51257
11
1.87553
21
0.519223
0
LINE
8
BLACK
6
CONTINUOUS
10
1.87553
20
0.519223
11
1.8748
21
0.526181
0
LINE
8
BLACK
6
CONTINUOUS
10
1.8748
20
0.526181
11
1.87553
21
0.533139
0
LINE
8
BLACK
6
CONTINUOUS
10
1.87553
20
0.533139
11
1.8777
21
0.539792
0
LINE
8
BLACK
6
CONTINUOUS
10
1.8777
20
0.539792
11
1.88119
21
0.545851
0
LINE
8
BLACK
6
CONTINUOUS
10
1.88119
20
0.545851
11
1.88588
21
0.55105
0
LINE
8
BLACK
6
CONTINUOUS
10
1.88588
20
0.55105
11
1.89154
21
0.555162
0
LINE
8
BLACK
6
CONTINUOUS
10
1.89154
20
0.555162
11
1.89793
21
0.558008
0
LINE
8
BLACK
6
CONTINUOUS
10
1.89793
20
0.558008
11
1.90477
21
0.559462
0
LINE
8
BLACK
6
CONTINUOUS
10
1.90477
20
0.559462
11
1.91177
21
0.559462
0
LINE
8
BLACK
6
CONTINUOUS
10
1.91177
20
0.559462
11
1.91861
21
0.558008
0
LINE
8
BLACK
6
CONTINUOUS
10
2.01861
20
0.558008
11
2.025
21
0.555162
0
LINE
8
BLACK
6
CONTINUOUS
10
2.025
20
0.555162
11
2.03066
21
0.55105
0
LINE
8
BLACK
6
CONTINUOUS
10
2.03066
20
0.55105
11
2.03534
21
0.545851
0
LINE
8
BLACK
6
CONTINUOUS
10
2.03534
20
0.545851
11
2.03884
21
0.539792
0
LINE
8
BLACK
6
CONTINUOUS
10
2.03884
20
0.539792
11
2.041
21
0.533139
0
LINE
8
BLACK
6
CONTINUOUS
10
2.041
20
0.533139
11
2.04173
21
0.526181
0
LINE
8
BLACK
6
CONTINUOUS
10
2.04173
20
0.526181
11
2.041
21
0.519223
0
LINE
8
BLACK
6
CONTINUOUS
10
2.041
20
0.519223
11
2.03884
21
0.51257
0
LINE
8
BLACK
6
CONTINUOUS
10
2.03884
20
0.51257
11
2.03534
21
0.506511
0
LINE
8
BLACK
6
CONTINUOUS
10
2.03534
20
0.506511
11
2.03066
21
0.501312
0
LINE
8
BLACK
6
CONTINUOUS
10
2.03066
20
0.501312
11
2.025
21
0.4972
0
LINE
8
BLACK
6
CONTINUOUS
10
2.025
20
0.4972
11
2.01861
21
0.494354
0
LINE
8
BLACK
6
CONTINUOUS
10
2.01861
20
0.494354
11
2.01177
21
0.4929
0
LINE
8
BLACK
6
CONTINUOUS
10
2.01177
20
0.4929
11
2.00477
21
0.4929
0
LINE
8
BLACK
6
CONTINUOUS
10
2.00477
20
0.4929
11
1.99793
21
0.494354
0
LINE
8
BLACK
6
CONTINUOUS
10
1.99793
20
0.494354
11
1.99154
21
0.4972
0
LINE
8
BLACK
6
CONTINUOUS
10
1.99154
20
0.4972
11
1.98588
21
0.501312
0
LINE
8
BLACK
6
CONTINUOUS
10
1.98588
20
0.501312
11
1.98119
21
0.506511
0
LINE
8
BLACK
6
CONTINUOUS
10
1.98119
20
0.506511
11
1.9777
21
0.51257
0
LINE
8
BLACK
6
CONTINUOUS
10
1.9777
20
0.51257
11
1.97553
21
0.519223
0
LINE
8
BLACK
6
CONTINUOUS
10
1.97553
20
0.519223
11
1.9748
21
0.526181
0
LINE
8
BLACK
6
CONTINUOUS
10
1.9748
20
0.526181
11
1.97553
21
0.533139
0
LINE
8
BLACK
6
CONTINUOUS
10
1.97553
20
0.533139
11
1.9777
21
0.539792
0
LINE
8
BLACK
6
CONTINUOUS
10
1.9777
20
0.539792
11
1.98119
21
0.545851
0
LINE
8
BLACK
6
CONTINUOUS
10
1.98119
20
0.545851
11
1.98588
21
0.55105
0
LINE
8
BLACK
6
CONTINUOUS
10
1.98588
20
0.55105
11
1.99154
21
0.555162
0
LINE
8
BLACK
6
CONTINUOUS
10
1.99154
20
0.555162
11
1.99793
21
0.558008
0
LINE
8
BLACK
6
CONTINUOUS
10
1.99793
20
0.558008
11
2.00477
21
0.559462
0
LINE
8
BLACK
6
CONTINUOUS
10
2.00477
20
0.559462
11
2.01177
21
0.559462
0
LINE
8
BLACK
6
CONTINUOUS
10
2.01177
20
0.559462
11
2.01861
21
0.558008
0
LINE
8
BLACK
6
CONTINUOUS
10
2.11861
20
0.558008
11
2.125
21
0.555162
0
LINE
8
BLACK
6
CONTINUOUS
10
2.125
20
0.555162
11
2.13066
21
0.55105
0
LINE
8
BLACK
6
CONTINUOUS
10
2.13066
20
0.55105
11
2.13534
21
0.545851
0
LINE
8
BLACK
6
CONTINUOUS
10
2.13534
20
0.545851
11
2.13884
21
0.539792
0
LINE
8
BLACK
6
CONTINUOUS
10
2.13884
20
0.539792
11
2.141
21
0.533139
0
LINE
8
BLACK
6
CONTINUOUS
10
2.141
20
0.533139
11
2.14173
21
0.526181
0
LINE
8
BLACK
6
CONTINUOUS
10
2.14173
20
0.526181
11
2.141
21
0.519223
0
LINE
8
BLACK
6
CONTINUOUS
10
2.141
20
0.519223
11
2.13884
21
0.51257
0
LINE
8
BLACK
6
CONTINUOUS
10
2.13884
20
0.51257
11
2.13534
21
0.506511
0
LINE
8
BLACK
6
CONTINUOUS
10
2.13534
20
0.506511
11
2.13066
21
0.501312
0
LINE
8
BLACK
6
CONTINUOUS
10
2.13066
20
0.501312
11
2.125
21
0.4972
0
LINE
8
BLACK
6
CONTINUOUS
10
2.125
20
0.4972
11
2.11861
21
0.494354
0
LINE
8
BLACK
6
CONTINUOUS
10
2.11861
20
0.494354
11
2.11177
21
0.4929
0
LINE
8
BLACK
6
CONTINUOUS
10
2.11177
20
0.4929
11
2.10477
21
0.4929
0
LINE
8
BLACK
6
CONTINUOUS
10
2.10477
20
0.4929
11
2.09793
21
0.494354
0
LINE
8
BLACK
6
CONTINUOUS
10
2.09793
20
0.494354
11
2.09154
21
0.4972
0
LINE
8
BLACK
6
CONTINUOUS
10
2.09154
20
0.4972
11
2.08588
21
0.501312
0
LINE
8
BLACK
6
CONTINUOUS
10
2.08588
20
0.501312
11
2.08119
21
0.506511
0
LINE
8
BLACK
6
CONTINUOUS
10
2.08119
20
0.506511
11
2.0777
21
0.51257
0
LINE
8
BLACK
6
CONTINUOUS
10
2.0777
20
0.51257
11
2.07553
21
0.519223
0
LINE
8
BLACK
6
CONTINUOUS
10
2.07553
20
0.519223
11
2.0748
21
0.526181
0
LINE
8
BLACK
6
CONTINUOUS
10
2.0748
20
0.526181
11
2.07553
21
0.533139
0
LINE
8
BLACK
6
CONTINUOUS
10
2.07553
20
0.533139
11
2.0777
21
0.539792
0
LINE
8
BLACK
6
CONTINUOUS
10
2.0777
20
0.539792
11
2.08119
21
0.545851
0
LINE
8
BLACK
6
CONTINUOUS
10
2.08119
20
0.545851
11
2.08588
21
0.55105
0
LINE
8
BLACK
6
CONTINUOUS
10
2.08588
20
0.55105
11
2.09154
21
0.555162
0
LINE
8
BLACK
6
CONTINUOUS
10
2.09154
20
0.555162
11
2.09793
21
0.558008
0
LINE
8
BLACK
6
CONTINUOUS
10
2.09793
20
0.558008
11
2.10477
21
0.559462
0
LINE
8
BLACK
6
CONTINUOUS
10
2.10477
20
0.559462
11
2.11177
21
0.559462
0
LINE
8
BLACK
6
CONTINUOUS
10
2.11177
20
0.559462
11
2.11861
21
0.558008
0
LINE
8
BLACK
6
CONTINUOUS
10
2.41034
20
0.558598
11
2.41673
21
0.555753
0
LINE
8
BLACK
6
CONTINUOUS
10
2.41673
20
0.555753
11
2.42239
21
0.551641
0
LINE
8
BLACK
6
CONTINUOUS
10
2.42239
20
0.551641
11
2.42707
21
0.546442
0
LINE
8
BLACK
6
CONTINUOUS
10
2.42707
20
0.546442
11
2.43057
21
0.540383
0
LINE
8
BLACK
6
CONTINUOUS
10
2.43057
20
0.540383
11
2.43273
21
0.533729
0
LINE
8
BLACK
6
CONTINUOUS
10
2.43273
20
0.533729
11
2.43346
21
0.526772
0
LINE
8
BLACK
6
CONTINUOUS
10
2.43346
20
0.526772
11
2.43273
21
0.519814
0
LINE
8
BLACK
6
CONTINUOUS
10
2.43273
20
0.519814
11
2.43057
21
0.51316
0
LINE
8
BLACK
6
CONTINUOUS
10
2.43057
20
0.51316
11
2.42707
21
0.507102
0
LINE
8
BLACK
6
CONTINUOUS
10
2.42707
20
0.507102
11
2.42239
21
0.501903
0
LINE
8
BLACK
6
CONTINUOUS
10
2.42239
20
0.501903
11
2.41673
21
0.49779
0
LINE
8
BLACK
6
CONTINUOUS
10
2.41673
20
0.49779
11
2.41034
21
0.494945
0
LINE
8
BLACK
6
CONTINUOUS
10
2.41034
20
0.494945
11
2.4035
21
0.49349
0
LINE
8
BLACK
6
CONTINUOUS
10
2.4035
20
0.49349
11
2.3965
21
0.49349
0
LINE
8
BLACK
6
CONTINUOUS
10
2.3965
20
0.49349
11
2.38966
21
0.494945
0
LINE
8
BLACK
6
CONTINUOUS
10
2.38966
20
0.494945
11
2.38327
21
0.49779
0
LINE
8
BLACK
6
CONTINUOUS
10
2.38327
20
0.49779
11
2.37761
21
0.501903
0
LINE
8
BLACK
6
CONTINUOUS
10
2.37761
20
0.501903
11
2.37293
21
0.507102
0
LINE
8
BLACK
6
CONTINUOUS
10
2.37293
20
0.507102
11
2.36943
21
0.51316
0
LINE
8
BLACK
6
CONTINUOUS
10
2.36943
20
0.51316
11
2.36727
21
0.519814
0
LINE
8
BLACK
6
CONTINUOUS
10
2.36727
20
0.519814
11
2.36654
21
0.526772
0
LINE
8
BLACK
6
CONTINUOUS
10
2.36654
20
0.526772
11
2.36727
21
0.533729
0
LINE
8
BLACK
6
CONTINUOUS
10
2.36727
20
0.533729
11
2.36943
21
0.540383
0
LINE
8
BLACK
6
CONTINUOUS
10
2.36943
20
0.540383
11
2.37293
21
0.546442
0
LINE
8
BLACK
6
CONTINUOUS
10
2.37293
20
0.546442
11
2.37761
21
0.551641
0
LINE
8
BLACK
6
CONTINUOUS
10
2.37761
20
0.551641
11
2.38327
21
0.555753
0
LINE
8
BLACK
6
CONTINUOUS
10
2.38327
20
0.555753
11
2.38966
21
0.558598
0
LINE
8
BLACK
6
CONTINUOUS
10
2.38966
20
0.558598
11
2.3965
21
0.560053
0
LINE
8
BLACK
6
CONTINUOUS
10
2.3965
20
0.560053
11
2.4035
21
0.560053
0
LINE
8
BLACK
6
CONTINUOUS
10
2.4035
20
0.560053
11
2.41034
21
0.558598
0
LINE
8
BLACK
6
CONTINUOUS
10
2.51034
20
0.558598
11
2.51673
21
0.555753
0
LINE
8
BLACK
6
CONTINUOUS
10
2.51673
20
0.555753
11
2.52239
21
0.551641
0
LINE
8
BLACK
6
CONTINUOUS
10
2.52239
20
0.551641
11
2.52707
21
0.546442
0
LINE
8
BLACK
6
CONTINUOUS
10
2.52707
20
0.546442
11
2.53057
21
0.540383
0
LINE
8
BLACK
6
CONTINUOUS
10
2.53057
20
0.540383
11
2.53273
21
0.533729
0
LINE
8
BLACK
6
CONTINUOUS
10
2.53273
20
0.533729
11
2.53346
21
0.526772
0
LINE
8
BLACK
6
CONTINUOUS
10
2.53346
20
0.526772
11
2.53273
21
0.519814
0
LINE
8
BLACK
6
CONTINUOUS
10
2.53273
20
0.519814
11
2.53057
21
0.51316
0
LINE
8
BLACK
6
CONTINUOUS
10
2.53057
20
0.51316
11
2.52707
21
0.507102
0
LINE
8
BLACK
6
CONTINUOUS
10
2.52707
20
0.507102
11
2.52239
21
0.501903
0
LINE
8
BLACK
6
CONTINUOUS
10
2.52239
20
0.501903
11
2.51673
21
0.49779
0
LINE
8
BLACK
6
CONTINUOUS
10
2.51673
20
0.49779
11
2.51034
21
0.494945
0
LINE
8
BLACK
6
CONTINUOUS
10
2.51034
20
0.494945
11
2.5035
21
0.49349
0
LINE
8
BLACK
6
CONTINUOUS
10
2.5035
20
0.49349
11
2.4965
21
0.49349
0
LINE
8
BLACK
6
CONTINUOUS
10
2.4965
20
0.49349
11
2.48966
21
0.494945
0
LINE
8
BLACK
6
CONTINUOUS
10
2.48966
20
0.494945
11
2.48327
21
0.49779
0
LINE
8
BLACK
6
CONTINUOUS
10
2.48327
20
0.49779
11
2.47761
21
0.501903
0
LINE
8
BLACK
6
CONTINUOUS
10
2.47761
20
0.501903
11
2.47293
21
0.507102
0
LINE
8
BLACK
6
CONTINUOUS
10
2.47293
20
0.507102
11
2.46943
21
0.51316
0
LINE
8
BLACK
6
CONTINUOUS
10
2.46943
20
0.51316
11
2.46727
21
0.519814
0
LINE
8
BLACK
6
CONTINUOUS
10
2.46727
20
0.519814
11
2.46654
21
0.526772
0
LINE
8
BLACK
6
CONTINUOUS
10
2.46654
20
0.526772
11
2.46727
21
0.533729
0
LINE
8
BLACK
6
CONTINUOUS
10
2.46727
20
0.533729
11
2.46943
21
0.540383
0
LINE
8
BLACK
6
CONTINUOUS
10
2.46943
20
0.540383
11
2.47293
21
0.546442
0
LINE
8
BLACK
6
CONTINUOUS
10
2.47293
20
0.546442
11
2.47761
21
0.551641
0
LINE
8
BLACK
6
CONTINUOUS
10
2.47761
20
0.551641
11
2.48327
21
0.555753
0
LINE
8
BLACK
6
CONTINUOUS
10
2.48327
20
0.555753
11
2.48966
21
0.558598
0
LINE
8
BLACK
6
CONTINUOUS
10
2.48966
20
0.558598
11
2.4965
21
0.560053
0
LINE
8
BLACK
6
CONTINUOUS
10
2.4965
20
0.560053
11
2.5035
21
0.560053
0
LINE
8
BLACK
6
CONTINUOUS
10
2.5035
20
0.560053
11
2.51034
21
0.558598
0
LINE
8
BLACK
6
CONTINUOUS
10
2.41034
20
0.658598
11
2.41673
21
0.655753
0
LINE
8
BLACK
6
CONTINUOUS
10
2.41673
20
0.655753
11
2.42239
21
0.651641
0
LINE
8
BLACK
6
CONTINUOUS
10
2.42239
20
0.651641
11
2.42707
21
0.646442
0
LINE
8
BLACK
6
CONTINUOUS
10
2.42707
20
0.646442
11
2.43057
21
0.640383
0
LINE
8
BLACK
6
CONTINUOUS
10
2.43057
20
0.640383
11
2.43273
21
0.633729
0
LINE
8
BLACK
6
CONTINUOUS
10
2.43273
20
0.633729
11
2.43346
21
0.626772
0
LINE
8
BLACK
6
CONTINUOUS
10
2.43346
20
0.626772
11
2.43273
21
0.619814
0
LINE
8
BLACK
6
CONTINUOUS
10
2.43273
20
0.619814
11
2.43057
21
0.61316
0
LINE
8
BLACK
6
CONTINUOUS
10
2.43057
20
0.61316
11
2.42707
21
0.607102
0
LINE
8
BLACK
6
CONTINUOUS
10
2.42707
20
0.607102
11
2.42239
21
0.601903
0
LINE
8
BLACK
6
CONTINUOUS
10
2.42239
20
0.601903
11
2.41673
21
0.59779
0
LINE
8
BLACK
6
CONTINUOUS
10
2.41673
20
0.59779
11
2.41034
21
0.594945
0
LINE
8
BLACK
6
CONTINUOUS
10
2.41034
20
0.594945
11
2.4035
21
0.59349
0
LINE
8
BLACK
6
CONTINUOUS
10
2.4035
20
0.59349
11
2.3965
21
0.59349
0
LINE
8
BLACK
6
CONTINUOUS
10
2.3965
20
0.59349
11
2.38966
21
0.594945
0
LINE
8
BLACK
6
CONTINUOUS
10
2.38966
20
0.594945
11
2.38327
21
0.59779
0
LINE
8
BLACK
6
CONTINUOUS
10
2.38327
20
0.59779
11
2.37761
21
0.601903
0
LINE
8
BLACK
6
CONTINUOUS
10
2.37761
20
0.601903
11
2.37293
21
0.607102
0
LINE
8
BLACK
6
CONTINUOUS
10
2.37293
20
0.607102
11
2.36943
21
0.61316
0
LINE
8
BLACK
6
CONTINUOUS
10
2.36943
20
0.61316
11
2.36727
21
0.619814
0
LINE
8
BLACK
6
CONTINUOUS
10
2.36727
20
0.619814
11
2.36654
21
0.626772
0
LINE
8
BLACK
6
CONTINUOUS
10
2.36654
20
0.626772
11
2.36727
21
0.633729
0
LINE
8
BLACK
6
CONTINUOUS
10
2.36727
20
0.633729
11
2.36943
21
0.640383
0
LINE
8
BLACK
6
CONTINUOUS
10
2.36943
20
0.640383
11
2.37293
21
0.646442
0
LINE
8
BLACK
6
CONTINUOUS
10
2.37293
20
0.646442
11
2.37761
21
0.651641
0
LINE
8
BLACK
6
CONTINUOUS
10
2.37761
20
0.651641
11
2.38327
21
0.655753
0
LINE
8
BLACK
6
CONTINUOUS
10
2.38327
20
0.655753
11
2.38966
21
0.658598
0
LINE
8
BLACK
6
CONTINUOUS
10
2.38966
20
0.658598
11
2.3965
21
0.660053
0
LINE
8
BLACK
6
CONTINUOUS
10
2.3965
20
0.660053
11
2.4035
21
0.660053
0
LINE
8
BLACK
6
CONTINUOUS
10
2.4035
20
0.660053
11
2.41034
21
0.658598
0
LINE
8
BLACK
6
CONTINUOUS
10
2.51034
20
0.658598
11
2.51673
21
0.655753
0
LINE
8
BLACK
6
CONTINUOUS
10
2.51673
20
0.655753
11
2.52239
21
0.651641
0
LINE
8
BLACK
6
CONTINUOUS
10
2.52239
20
0.651641
11
2.52707
21
0.646442
0
LINE
8
BLACK
6
CONTINUOUS
10
2.52707
20
0.646442
11
2.53057
21
0.640383
0
LINE
8
BLACK
6
CONTINUOUS
10
2.53057
20
0.640383
11
2.53273
21
0.633729
0
LINE
8
BLACK
6
CONTINUOUS
10
2.53273
20
0.633729
11
2.53346
21
0.626772
0
LINE
8
BLACK
6
CONTINUOUS
10
2.53346
20
0.626772
11
2.53273
21
0.619814
0
LINE
8
BLACK
6
CONTINUOUS
10
2.53273
20
0.619814
11
2.53057
21
0.61316
0
LINE
8
BLACK
6
CONTINUOUS
10
2.53057
20
0.61316
11
2.52707
21
0.607102
0
LINE
8
BLACK
6
CONTINUOUS
10
2.52707
20
0.607102
11
2.52239
21
0.601903
0
LINE
8
BLACK
6
CONTINUOUS
10
2.52239
20
0.601903
11
2.51673
21
0.59779
0
LINE
8
BLACK
6
CONTINUOUS
10
2.51673
20
0.59779
11
2.51034
21
0.594945
0
LINE
8
BLACK
6
CONTINUOUS
10
2.51034
20
0.594945
11
2.5035
21
0.59349
0
LINE
8
BLACK
6
CONTINUOUS
10
2.5035
20
0.59349
11
2.4965
21
0.59349
0
LINE
8
BLACK
6
CONTINUOUS
10
2.4965
20
0.59349
11
2.48966
21
0.594945
0
LINE
8
BLACK
6
CONTINUOUS
10
2.48966
20
0.594945
11
2.48327
21
0.59779
0
LINE
8
BLACK
6
CONTINUOUS
10
2.48327
20
0.59779
11
2.47761
21
0.601903
0
LINE
8
BLACK
6
CONTINUOUS
10
2.47761
20
0.601903
11
2.47293
21
0.607102
0
LINE
8
BLACK
6
CONTINUOUS
10
2.47293
20
0.607102
11
2.46943
21
0.61316
0
LINE
8
BLACK
6
CONTINUOUS
10
2.46943
20
0.61316
11
2.46727
21
0.619814
0
LINE
8
BLACK
6
CONTINUOUS
10
2.46727
20
0.619814
11
2.46654
21
0.626772
0
LINE
8
BLACK
6
CONTINUOUS
10
2.46654
20
0.626772
11
2.46727
21
0.633729
0
LINE
8
BLACK
6
CONTINUOUS
10
2.46727
20
0.633729
11
2.46943
21
0.640383
0
LINE
8
BLACK
6
CONTINUOUS
10
2.46943
20
0.640383
11
2.47293
21
0.646442
0
LINE
8
BLACK
6
CONTINUOUS
10
2.47293
20
0.646442
11
2.47761
21
0.651641
0
LINE
8
BLACK
6
CONTINUOUS
10
2.47761
20
0.651641
11
2.48327
21
0.655753
0
LINE
8
BLACK
6
CONTINUOUS
10
2.48327
20
0.655753
11
2.48966
21
0.658598
0
LINE
8
BLACK
6
CONTINUOUS
10
2.48966
20
0.658598
11
2.4965
21
0.660053
0
LINE
8
BLACK
6
CONTINUOUS
10
2.4965
20
0.660053
11
2.5035
21
0.660053
0
LINE
8
BLACK
6
CONTINUOUS
10
2.5035
20
0.660053
11
2.51034
21
0.658598
0
LINE
8
BLACK
6
CONTINUOUS
10
0.356772
20
0.679055
11
0.296772
21
0.679055
0
LINE
8
BLACK
6
CONTINUOUS
10
0.296772
20
0.679055
11
0.296772
21
0.739055
0
LINE
8
BLACK
6
CONTINUOUS
10
0.296772
20
0.739055
11
0.356772
21
0.739055
0
LINE
8
BLACK
6
CONTINUOUS
10
0.356772
20
0.739055
11
0.356772
21
0.679055
0
LINE
8
BLACK
6
CONTINUOUS
10
0.456772
20
0.679055
11
0.396772
21
0.679055
0
LINE
8
BLACK
6
CONTINUOUS
10
0.396772
20
0.679055
11
0.396772
21
0.739055
0
LINE
8
BLACK
6
CONTINUOUS
10
0.396772
20
0.739055
11
0.456772
21
0.739055
0
LINE
8
BLACK
6
CONTINUOUS
10
0.456772
20
0.739055
11
0.456772
21
0.679055
0
LINE
8
BLACK
6
CONTINUOUS
10
0.556772
20
0.679055
11
0.496772
21
0.679055
0
LINE
8
BLACK
6
CONTINUOUS
10
0.496772
20
0.679055
11
0.496772
21
0.739055
0
LINE
8
BLACK
6
CONTINUOUS
10
0.496772
20
0.739055
11
0.556772
21
0.739055
0
LINE
8
BLACK
6
CONTINUOUS
10
0.556772
20
0.739055
11
0.556772
21
0.679055
0
LINE
8
BLACK
6
CONTINUOUS
10
2.41034
20
0.758598
11
2.41673
21
0.755753
0
LINE
8
BLACK
6
CONTINUOUS
10
2.41673
20
0.755753
11
2.42239
21
0.751641
0
LINE
8
BLACK
6
CONTINUOUS
10
2.42239
20
0.751641
11
2.42707
21
0.746442
0
LINE
8
BLACK
6
CONTINUOUS
10
2.42707
20
0.746442
11
2.43057
21
0.740383
0
LINE
8
BLACK
6
CONTINUOUS
10
2.43057
20
0.740383
11
2.43273
21
0.733729
0
LINE
8
BLACK
6
CONTINUOUS
10
2.43273
20
0.733729
11
2.43346
21
0.726772
0
LINE
8
BLACK
6
CONTINUOUS
10
2.43346
20
0.726772
11
2.43273
21
0.719814
0
LINE
8
BLACK
6
CONTINUOUS
10
2.43273
20
0.719814
11
2.43057
21
0.71316
0
LINE
8
BLACK
6
CONTINUOUS
10
2.43057
20
0.71316
11
2.42707
21
0.707102
0
LINE
8
BLACK
6
CONTINUOUS
10
2.42707
20
0.707102
11
2.42239
21
0.701903
0
LINE
8
BLACK
6
CONTINUOUS
10
2.42239
20
0.701903
11
2.41673
21
0.69779
0
LINE
8
BLACK
6
CONTINUOUS
10
2.41673
20
0.69779
11
2.41034
21
0.694945
0
LINE
8
BLACK
6
CONTINUOUS
10
2.41034
20
0.694945
11
2.4035
21
0.69349
0
LINE
8
BLACK
6
CONTINUOUS
10
2.4035
20
0.69349
11
2.3965
21
0.69349
0
LINE
8
BLACK
6
CONTINUOUS
10
2.3965
20
0.69349
11
2.38966
21
0.694945
0
LINE
8
BLACK
6
CONTINUOUS
10
2.38966
20
0.694945
11
2.38327
21
0.69779
0
LINE
8
BLACK
6
CONTINUOUS
10
2.38327
20
0.69779
11
2.37761
21
0.701903
0
LINE
8
BLACK
6
CONTINUOUS
10
2.37761
20
0.701903
11
2.37293
21
0.707102
0
LINE
8
BLACK
6
CONTINUOUS
10
2.37293
20
0.707102
11
2.36943
21
0.71316
0
LINE
8
BLACK
6
CONTINUOUS
10
2.36943
20
0.71316
11
2.36727
21
0.719814
0
LINE
8
BLACK
6
CONTINUOUS
10
2.36727
20
0.719814
11
2.36654
21
0.726772
0
LINE
8
BLACK
6
CONTINUOUS
10
2.36654
20
0.726772
11
2.36727
21
0.733729
0
LINE
8
BLACK
6
CONTINUOUS
10
2.36727
20
0.733729
11
2.36943
21
0.740383
0
LINE
8
BLACK
6
CONTINUOUS
10
2.36943
20
0.740383
11
2.37293
21
0.746442
0
LINE
8
BLACK
6
CONTINUOUS
10
2.37293
20
0.746442
11
2.37761
21
0.751641
0
LINE
8
BLACK
6
CONTINUOUS
10
2.37761
20
0.751641
11
2.38327
21
0.755753
0
LINE
8
BLACK
6
CONTINUOUS
10
2.38327
20
0.755753
11
2.38966
21
0.758598
0
LINE
8
BLACK
6
CONTINUOUS
10
2.38966
20
0.758598
11
2.3965
21
0.760053
0
LINE
8
BLACK
6
CONTINUOUS
10
2.3965
20
0.760053
11
2.4035
21
0.760053
0
LINE
8
BLACK
6
CONTINUOUS
10
2.4035
20
0.760053
11
2.41034
21
0.758598
0
LINE
8
BLACK
6
CONTINUOUS
10
2.51034
20
0.758598
11
2.51673
21
0.755753
0
LINE
8
BLACK
6
CONTINUOUS
10
2.51673
20
0.755753
11
2.52239
21
0.751641
0
LINE
8
BLACK
6
CONTINUOUS
10
2.52239
20
0.751641
11
2.52707
21
0.746442
0
LINE
8
BLACK
6
CONTINUOUS
10
2.52707
20
0.746442
11
2.53057
21
0.740383
0
LINE
8
BLACK
6
CONTINUOUS
10
2.53057
20
0.740383
11
2.53273
21
0.733729
0
LINE
8
BLACK
6
CONTINUOUS
10
2.53273
20
0.733729
11
2.53346
21
0.726772
0
LINE
8
BLACK
6
CONTINUOUS
10
2.53346
20
0.726772
11
2.53273
21
0.719814
0
LINE
8
BLACK
6
CONTINUOUS
10
2.53273
20
0.719814
11
2.53057
21
0.71316
0
LINE
8
BLACK
6
CONTINUOUS
10
2.53057
20
0.71316
11
2.52707
21
0.707102
0
LINE
8
BLACK
6
CONTINUOUS
10
2.52707
20
0.707102
11
2.52239
21
0.701903
0
LINE
8
BLACK
6
CONTINUOUS
10
2.52239
20
0.701903
11
2.51673
21
0.69779
0
LINE
8
BLACK
6
CONTINUOUS
10
2.51673
20
0.69779
11
2.51034
21
0.694945
0
LINE
8
BLACK
6
CONTINUOUS
10
2.51034
20
0.694945
11
2.5035
21
0.69349
0
LINE
8
BLACK
6
CONTINUOUS
10
2.5035
20
0.69349
11
2.4965
21
0.69349
0
LINE
8
BLACK
6
CONTINUOUS
10
2.4965
20
0.69349
11
2.48966
21
0.694945
0
LINE
8
BLACK
6
CONTINUOUS
10
2.48966
20
0.694945
11
2.48327
21
0.69779
0
LINE
8
BLACK
6
CONTINUOUS
10
2.48327
20
0.69779
11
2.47761
21
0.701903
0
LINE
8
BLACK
6
CONTINUOUS
10
2.47761
20
0.701903
11
2.47293
21
0.707102
0
LINE
8
BLACK
6
CONTINUOUS
10
2.47293
20
0.707102
11
2.46943
21
0.71316
0
LINE
8
BLACK
6
CONTINUOUS
10
2.46943
20
0.71316
11
2.46727
21
0.719814
0
LINE
8
BLACK
6
CONTINUOUS
10
2.46727
20
0.719814
11
2.46654
21
0.726772
0
LINE
8
BLACK
6
CONTINUOUS
10
2.46654
20
0.726772
11
2.46727
21
0.733729
0
LINE
8
BLACK
6
CONTINUOUS
10
2.46727
20
0.733729
11
2.46943
21
0.740383
0
LINE
8
BLACK
6
CONTINUOUS
10
2.46943
20
0.740383
11
2.47293
21
0.746442
0
LINE
8
BLACK
6
CONTINUOUS
10
2.47293
20
0.746442
11
2.47761
21
0.751641
0
LINE
8
BLACK
6
CONTINUOUS
10
2.47761
20
0.751641
11
2.48327
21
0.755753
0
LINE
8
BLACK
6
CONTINUOUS
10
2.48327
20
0.755753
11
2.48966
21
0.758598
0
LINE
8
BLACK
6
CONTINUOUS
10
2.48966
20
0.758598
11
2.4965
21
0.760053
0
LINE
8
BLACK
6
CONTINUOUS
10
2.4965
20
0.760053
11
2.5035
21
0.760053
0
LINE
8
BLACK
6
CONTINUOUS
10
2.5035
20
0.760053
11
2.51034
21
0.758598
0
LINE
8
BLACK
6
CONTINUOUS
10
1.37346
20
0.720472
11
1.32621
21
0.720472
0
LINE
8
BLACK
6
CONTINUOUS
10
1.32621
20
0.720472
11
1.32621
21
0.783465
0
LINE
8
BLACK
6
CONTINUOUS
10
1.32621
20
0.783465
11
1.37346
21
0.783465
0
LINE
8
BLACK
6
CONTINUOUS
10
1.37346
20
0.783465
11
1.37346
21
0.720472
0
LINE
8
BLACK
6
CONTINUOUS
10
1.47188
20
0.720472
11
1.42464
21
0.720472
0
LINE
8
BLACK
6
CONTINUOUS
10
1.42464
20
0.720472
11
1.42464
21
0.783465
0
LINE
8
BLACK
6
CONTINUOUS
10
1.42464
20
0.783465
11
1.47188
21
0.783465
0
LINE
8
BLACK
6
CONTINUOUS
10
1.47188
20
0.783465
11
1.47188
21
0.720472
0
LINE
8
BLACK
6
CONTINUOUS
10
1.57031
20
0.720472
11
1.52306
21
0.720472
0
LINE
8
BLACK
6
CONTINUOUS
10
1.52306
20
0.720472
11
1.52306
21
0.783465
0
LINE
8
BLACK
6
CONTINUOUS
10
1.52306
20
0.783465
11
1.57031
21
0.783465
0
LINE
8
BLACK
6
CONTINUOUS
10
1.57031
20
0.783465
11
1.57031
21
0.720472
0
LINE
8
BLACK
6
CONTINUOUS
10
1.66873
20
0.720472
11
1.62149
21
0.720472
0
LINE
8
BLACK
6
CONTINUOUS
10
1.62149
20
0.720472
11
1.62149
21
0.783465
0
LINE
8
BLACK
6
CONTINUOUS
10
1.62149
20
0.783465
11
1.66873
21
0.783465
0
LINE
8
BLACK
6
CONTINUOUS
10
1.66873
20
0.783465
11
1.66873
21
0.720472
0
LINE
8
BLACK
6
CONTINUOUS
10
1.76716
20
0.720472
11
1.71992
21
0.720472
0
LINE
8
BLACK
6
CONTINUOUS
10
1.71992
20
0.720472
11
1.71992
21
0.783465
0
LINE
8
BLACK
6
CONTINUOUS
10
1.71992
20
0.783465
11
1.76716
21
0.783465
0
LINE
8
BLACK
6
CONTINUOUS
10
1.76716
20
0.783465
11
1.76716
21
0.720472
0
LINE
8
BLACK
6
CONTINUOUS
10
1.86558
20
0.720472
11
1.81834
21
0.720472
0
LINE
8
BLACK
6
CONTINUOUS
10
1.81834
20
0.720472
11
1.81834
21
0.783465
0
LINE
8
BLACK
6
CONTINUOUS
10
1.81834
20
0.783465
11
1.86558
21
0.783465
0
LINE
8
BLACK
6
CONTINUOUS
10
1.86558
20
0.783465
11
1.86558
21
0.720472
0
LINE
8
BLACK
6
CONTINUOUS
10
1.96401
20
0.720472
11
1.91677
21
0.720472
0
LINE
8
BLACK
6
CONTINUOUS
10
1.91677
20
0.720472
11
1.91677
21
0.783465
0
LINE
8
BLACK
6
CONTINUOUS
10
1.91677
20
0.783465
11
1.96401
21
0.783465
0
LINE
8
BLACK
6
CONTINUOUS
10
1.96401
20
0.783465
11
1.96401
21
0.720472
0
LINE
8
BLACK
6
CONTINUOUS
10
2.05968
20
0.720472
11
2.01244
21
0.720472
0
LINE
8
BLACK
6
CONTINUOUS
10
2.01244
20
0.720472
11
2.01244
21
0.783465
0
LINE
8
BLACK
6
CONTINUOUS
10
2.01244
20
0.783465
11
2.05968
21
0.783465
0
LINE
8
BLACK
6
CONTINUOUS
10
2.05968
20
0.783465
11
2.05968
21
0.720472
0
LINE
8
BLACK
6
CONTINUOUS
10
2.13055
20
0.720472
11
2.0833
21
0.720472
0
LINE
8
BLACK
6
CONTINUOUS
10
2.0833
20
0.720472
11
2.0833
21
0.783465
0
LINE
8
BLACK
6
CONTINUOUS
10
2.0833
20
0.783465
11
2.13055
21
0.783465
0
LINE
8
BLACK
6
CONTINUOUS
10
2.13055
20
0.783465
11
2.13055
21
0.720472
0
LINE
8
BLACK
6
CONTINUOUS
10
0.356772
20
0.779055
11
0.296772
21
0.779055
0
LINE
8
BLACK
6
CONTINUOUS
10
0.296772
20
0.779055
11
0.296772
21
0.839055
0
LINE
8
BLACK
6
CONTINUOUS
10
0.296772
20
0.839055
11
0.356772
21
0.839055
0
LINE
8
BLACK
6
CONTINUOUS
10
0.356772
20
0.839055
11
0.356772
21
0.779055
0
LINE
8
BLACK
6
CONTINUOUS
10
0.456772
20
0.779055
11
0.396772
21
0.779055
0
LINE
8
BLACK
6
CONTINUOUS
10
0.396772
20
0.779055
11
0.396772
21
0.839055
0
LINE
8
BLACK
6
CONTINUOUS
10
0.396772
20
0.839055
11
0.456772
21
0.839055
0
LINE
8
BLACK
6
CONTINUOUS
10
0.456772
20
0.839055
11
0.456772
21
0.779055
0
LINE
8
BLACK
6
CONTINUOUS
10
0.556772
20
0.779055
11
0.496772
21
0.779055
0
LINE
8
BLACK
6
CONTINUOUS
10
0.496772
20
0.779055
11
0.496772
21
0.839055
0
LINE
8
BLACK
6
CONTINUOUS
10
0.496772
20
0.839055
11
0.556772
21
0.839055
0
LINE
8
BLACK
6
CONTINUOUS
10
0.556772
20
0.839055
11
0.556772
21
0.779055
0
LINE
8
BLACK
6
CONTINUOUS
10
1.11027
20
0.791339
11
1.01184
21
0.791339
0
LINE
8
BLACK
6
CONTINUOUS
10
1.01184
20
0.791339
11
1.01184
21
0.988189
0
LINE
8
BLACK
6
CONTINUOUS
10
1.01184
20
0.988189
11
1.11027
21
0.988189
0
LINE
8
BLACK
6
CONTINUOUS
10
1.11027
20
0.988189
11
1.11027
21
0.791339
0
LINE
8
BLACK
6
CONTINUOUS
10
2.30909
20
0.791339
11
2.21066
21
0.791339
0
LINE
8
BLACK
6
CONTINUOUS
10
2.21066
20
0.791339
11
2.21066
21
0.988189
0
LINE
8
BLACK
6
CONTINUOUS
10
2.21066
20
0.988189
11
2.30909
21
0.988189
0
LINE
8
BLACK
6
CONTINUOUS
10
2.30909
20
0.988189
11
2.30909
21
0.791339
0
LINE
8
BLACK
6
CONTINUOUS
10
2.58945
20
1.00851
11
2.59929
21
1.00547
0
LINE
8
BLACK
6
CONTINUOUS
10
2.59929
20
1.00547
11
2.60856
21
1.00101
0
LINE
8
BLACK
6
CONTINUOUS
10
2.60856
20
1.00101
11
2.61707
21
0.995205
0
LINE
8
BLACK
6
CONTINUOUS
10
2.61707
20
0.995205
11
2.62462
21
0.988201
0
LINE
8
BLACK
6
CONTINUOUS
10
2.62462
20
0.988201
11
2.63104
21
0.98015
0
LINE
8
BLACK
6
CONTINUOUS
10
2.63104
20
0.98015
11
2.63619
21
0.971232
0
LINE
8
BLACK
6
CONTINUOUS
10
2.63619
20
0.971232
11
2.63995
21
0.961647
0
LINE
8
BLACK
6
CONTINUOUS
10
2.63995
20
0.961647
11
2.64224
21
0.951607
0
LINE
8
BLACK
6
CONTINUOUS
10
2.64224
20
0.951607
11
2.64301
21
0.941339
0
LINE
8
BLACK
6
CONTINUOUS
10
2.64301
20
0.941339
11
2.64224
21
0.93107
0
LINE
8
BLACK
6
CONTINUOUS
10
2.64224
20
0.93107
11
2.63995
21
0.921031
0
LINE
8
BLACK
6
CONTINUOUS
10
2.63995
20
0.921031
11
2.63619
21
0.911445
0
LINE
8
BLACK
6
CONTINUOUS
10
2.63619
20
0.911445
11
2.63104
21
0.902527
0
LINE
8
BLACK
6
CONTINUOUS
10
2.63104
20
0.902527
11
2.62462
21
0.894476
0
LINE
8
BLACK
6
CONTINUOUS
10
2.62462
20
0.894476
11
2.61707
21
0.887472
0
LINE
8
BLACK
6
CONTINUOUS
10
2.61707
20
0.887472
11
2.60856
21
0.881672
0
LINE
8
BLACK
6
CONTINUOUS
10
2.60856
20
0.881672
11
2.59929
21
0.877204
0
LINE
8
BLACK
6
CONTINUOUS
10
2.59929
20
0.877204
11
2.58945
21
0.874168
0
LINE
8
BLACK
6
CONTINUOUS
10
2.58945
20
0.874168
11
2.57926
21
0.872634
0
LINE
8
BLACK
6
CONTINUOUS
10
2.57926
20
0.872634
11
2.56897
21
0.872634
0
LINE
8
BLACK
6
CONTINUOUS
10
2.56897
20
0.872634
11
2.55878
21
0.874168
0
LINE
8
BLACK
6
CONTINUOUS
10
2.55878
20
0.874168
11
2.54894
21
0.877204
0
LINE
8
BLACK
6
CONTINUOUS
10
2.54894
20
0.877204
11
2.53967
21
0.881672
0
LINE
8
BLACK
6
CONTINUOUS
10
2.53967
20
0.881672
11
2.53116
21
0.887472
0
LINE
8
BLACK
6
CONTINUOUS
10
2.53116
20
0.887472
11
2.52361
21
0.894476
0
LINE
8
BLACK
6
CONTINUOUS
10
2.52361
20
0.894476
11
2.51719
21
0.902527
0
LINE
8
BLACK
6
CONTINUOUS
10
2.51719
20
0.902527
11
2.51204
21
0.911445
0
LINE
8
BLACK
6
CONTINUOUS
10
2.51204
20
0.911445
11
2.50828
21
0.921031
0
LINE
8
BLACK
6
CONTINUOUS
10
2.50828
20
0.921031
11
2.50599
21
0.93107
0
LINE
8
BLACK
6
CONTINUOUS
10
2.50599
20
0.93107
11
2.50522
21
0.941339
0
LINE
8
BLACK
6
CONTINUOUS
10
2.50522
20
0.941339
11
2.50599
21
0.951607
0
LINE
8
BLACK
6
CONTINUOUS
10
2.50599
20
0.951607
11
2.50828
21
0.961647
0
LINE
8
BLACK
6
CONTINUOUS
10
2.50828
20
0.961647
11
2.51204
21
0.971232
0
LINE
8
BLACK
6
CONTINUOUS
10
2.51204
20
0.971232
11
2.51719
21
0.98015
0
LINE
8
BLACK
6
CONTINUOUS
10
2.51719
20
0.98015
11
2.52361
21
0.988201
0
LINE
8
BLACK
6
CONTINUOUS
10
2.52361
20
0.988201
11
2.53116
21
0.995205
0
LINE
8
BLACK
6
CONTINUOUS
10
2.53116
20
0.995205
11
2.53967
21
1.00101
0
LINE
8
BLACK
6
CONTINUOUS
10
2.53967
20
1.00101
11
2.54894
21
1.00547
0
LINE
8
BLACK
6
CONTINUOUS
10
2.54894
20
1.00547
11
2.55878
21
1.00851
0
LINE
8
BLACK
6
CONTINUOUS
10
2.55878
20
1.00851
11
2.56897
21
1.01004
0
LINE
8
BLACK
6
CONTINUOUS
10
2.56897
20
1.01004
11
2.57926
21
1.01004
0
LINE
8
BLACK
6
CONTINUOUS
10
2.57926
20
1.01004
11
2.58945
21
1.00851
0
LINE
8
BLACK
6
CONTINUOUS
10
0.646639
20
1.04172
11
0.657617
21
1.03933
0
LINE
8
BLACK
6
CONTINUOUS
10
0.657617
20
1.03933
11
0.668143
21
1.0354
0
LINE
8
BLACK
6
CONTINUOUS
10
0.668143
20
1.0354
11
0.678003
21
1.03002
0
LINE
8
BLACK
6
CONTINUOUS
10
0.678003
20
1.03002
11
0.686997
21
1.02329
0
LINE
8
BLACK
6
CONTINUOUS
10
0.686997
20
1.02329
11
0.694941
21
1.01534
0
LINE
8
BLACK
6
CONTINUOUS
10
0.694941
20
1.01534
11
0.701674
21
1.00635
0
LINE
8
BLACK
6
CONTINUOUS
10
0.701674
20
1.00635
11
0.707058
21
0.996489
0
LINE
8
BLACK
6
CONTINUOUS
10
0.707058
20
0.996489
11
0.710984
21
0.985963
0
LINE
8
BLACK
6
CONTINUOUS
10
0.710984
20
0.985963
11
0.713372
21
0.974985
0
LINE
8
BLACK
6
CONTINUOUS
10
0.713372
20
0.974985
11
0.714173
21
0.96378
0
LINE
8
BLACK
6
CONTINUOUS
10
0.714173
20
0.96378
11
0.713372
21
0.952574
0
LINE
8
BLACK
6
CONTINUOUS
10
0.713372
20
0.952574
11
0.710984
21
0.941596
0
LINE
8
BLACK
6
CONTINUOUS
10
0.710984
20
0.941596
11
0.707058
21
0.93107
0
LINE
8
BLACK
6
CONTINUOUS
10
0.707058
20
0.93107
11
0.701674
21
0.921209
0
LINE
8
BLACK
6
CONTINUOUS
10
0.701674
20
0.921209
11
0.694941
21
0.912216
0
LINE
8
BLACK
6
CONTINUOUS
10
0.694941
20
0.912216
11
0.686997
21
0.904272
0
LINE
8
BLACK
6
CONTINUOUS
10
0.686997
20
0.904272
11
0.678003
21
0.897539
0
LINE
8
BLACK
6
CONTINUOUS
10
0.678003
20
0.897539
11
0.668143
21
0.892155
0
LINE
8
BLACK
6
CONTINUOUS
10
0.668143
20
0.892155
11
0.657617
21
0.888229
0
LINE
8
BLACK
6
CONTINUOUS
10
0.657617
20
0.888229
11
0.646639
21
0.885841
0
LINE
8
BLACK
6
CONTINUOUS
10
0.646639
20
0.885841
11
0.635433
21
0.885039
0
LINE
8
BLACK
6
CONTINUOUS
10
0.635433
20
0.885039
11
0.624227
21
0.885841
0
LINE
8
BLACK
6
CONTINUOUS
10
0.624227
20
0.885841
11
0.613249
21
0.888229
0
LINE
8
BLACK
6
CONTINUOUS
10
0.613249
20
0.888229
11
0.602723
21
0.892155
0
LINE
8
BLACK
6
CONTINUOUS
10
0.602723
20
0.892155
11
0.592863
21
0.897539
0
LINE
8
BLACK
6
CONTINUOUS
10
0.592863
20
0.897539
11
0.583869
21
0.904272
0
LINE
8
BLACK
6
CONTINUOUS
10
0.583869
20
0.904272
11
0.575925
21
0.912216
0
LINE
8
BLACK
6
CONTINUOUS
10
0.575925
20
0.912216
11
0.569193
21
0.921209
0
LINE
8
BLACK
6
CONTINUOUS
10
0.569193
20
0.921209
11
0.563809
21
0.93107
0
LINE
8
BLACK
6
CONTINUOUS
10
0.563809
20
0.93107
11
0.559882
21
0.941596
0
LINE
8
BLACK
6
CONTINUOUS
10
0.559882
20
0.941596
11
0.557494
21
0.952574
0
LINE
8
BLACK
6
CONTINUOUS
10
0.557494
20
0.952574
11
0.556693
21
0.96378
0
LINE
8
BLACK
6
CONTINUOUS
10
0.556693
20
0.96378
11
0.557494
21
0.974985
0
LINE
8
BLACK
6
CONTINUOUS
10
0.557494
20
0.974985
11
0.559882
21
0.985963
0
LINE
8
BLACK
6
CONTINUOUS
10
0.559882
20
0.985963
11
0.563809
21
0.996489
0
LINE
8
BLACK
6
CONTINUOUS
10
0.563809
20
0.996489
11
0.569193
21
1.00635
0
LINE
8
BLACK
6
CONTINUOUS
10
0.569193
20
1.00635
11
0.575925
21
1.01534
0
LINE
8
BLACK
6
CONTINUOUS
10
0.575925
20
1.01534
11
0.583869
21
1.02329
0
LINE
8
BLACK
6
CONTINUOUS
10
0.583869
20
1.02329
11
0.592863
21
1.03002
0
LINE
8
BLACK
6
CONTINUOUS
10
0.592863
20
1.03002
11
0.602723
21
1.0354
0
LINE
8
BLACK
6
CONTINUOUS
10
0.602723
20
1.0354
11
0.613249
21
1.03933
0
LINE
8
BLACK
6
CONTINUOUS
10
0.613249
20
1.03933
11
0.624227
21
1.04172
0
LINE
8
BLACK
6
CONTINUOUS
10
0.624227
20
1.04172
11
0.635433
21
1.04252
0
LINE
8
BLACK
6
CONTINUOUS
10
0.635433
20
1.04252
11
0.646639
21
1.04172
0
LINE
8
BLACK
6
CONTINUOUS
10
2.49742
20
1.0322
11
2.43742
21
1.0322
0
LINE
8
BLACK
6
CONTINUOUS
10
2.43742
20
1.0322
11
2.43742
21
1.0922
0
LINE
8
BLACK
6
CONTINUOUS
10
2.43742
20
1.0922
11
2.49742
21
1.0922
0
LINE
8
BLACK
6
CONTINUOUS
10
2.49742
20
1.0922
11
2.49742
21
1.0322
0
LINE
8
BLACK
6
CONTINUOUS
10
1.00246
20
1.11634
11
0.935531
21
1.11634
0
LINE
8
BLACK
6
CONTINUOUS
10
0.935531
20
1.11634
11
0.935531
21
1.18327
0
LINE
8
BLACK
6
CONTINUOUS
10
0.935531
20
1.18327
11
1.00246
21
1.18327
0
LINE
8
BLACK
6
CONTINUOUS
10
1.00246
20
1.18327
11
1.00246
21
1.11634
0
LINE
8
BLACK
6
CONTINUOUS
10
2.34105
20
1.18202
11
2.34744
21
1.17918
0
LINE
8
BLACK
6
CONTINUOUS
10
2.34744
20
1.17918
11
2.3531
21
1.17507
0
LINE
8
BLACK
6
CONTINUOUS
10
2.3531
20
1.17507
11
2.35778
21
1.16987
0
LINE
8
BLACK
6
CONTINUOUS
10
2.35778
20
1.16987
11
2.36128
21
1.16381
0
LINE
8
BLACK
6
CONTINUOUS
10
2.36128
20
1.16381
11
2.36344
21
1.15715
0
LINE
8
BLACK
6
CONTINUOUS
10
2.36344
20
1.15715
11
2.36417
21
1.1502
0
LINE
8
BLACK
6
CONTINUOUS
10
2.36417
20
1.1502
11
2.36344
21
1.14324
0
LINE
8
BLACK
6
CONTINUOUS
10
2.36344
20
1.14324
11
2.36128
21
1.13659
0
LINE
8
BLACK
6
CONTINUOUS
10
2.36128
20
1.13659
11
2.35778
21
1.13053
0
LINE
8
BLACK
6
CONTINUOUS
10
2.35778
20
1.13053
11
2.3531
21
1.12533
0
LINE
8
BLACK
6
CONTINUOUS
10
2.3531
20
1.12533
11
2.34744
21
1.12122
0
LINE
8
BLACK
6
CONTINUOUS
10
2.34744
20
1.12122
11
2.34105
21
1.11837
0
LINE
8
BLACK
6
CONTINUOUS
10
2.34105
20
1.11837
11
2.33421
21
1.11692
0
LINE
8
BLACK
6
CONTINUOUS
10
2.33421
20
1.11692
11
2.32721
21
1.11692
0
LINE
8
BLACK
6
CONTINUOUS
10
2.32721
20
1.11692
11
2.32037
21
1.11837
0
LINE
8
BLACK
6
CONTINUOUS
10
2.32037
20
1.11837
11
2.31398
21
1.12122
0
LINE
8
BLACK
6
CONTINUOUS
10
2.31398
20
1.12122
11
2.30832
21
1.12533
0
LINE
8
BLACK
6
CONTINUOUS
10
2.30832
20
1.12533
11
2.30364
21
1.13053
0
LINE
8
BLACK
6
CONTINUOUS
10
2.30364
20
1.13053
11
2.30014
21
1.13659
0
LINE
8
BLACK
6
CONTINUOUS
10
2.30014
20
1.13659
11
2.29798
21
1.14324
0
LINE
8
BLACK
6
CONTINUOUS
10
2.29798
20
1.14324
11
2.29724
21
1.1502
0
LINE
8
BLACK
6
CONTINUOUS
10
2.29724
20
1.1502
11
2.29798
21
1.15715
0
LINE
8
BLACK
6
CONTINUOUS
10
2.29798
20
1.15715
11
2.30014
21
1.16381
0
LINE
8
BLACK
6
CONTINUOUS
10
2.30014
20
1.16381
11
2.30364
21
1.16987
0
LINE
8
BLACK
6
CONTINUOUS
10
2.30364
20
1.16987
11
2.30832
21
1.17507
0
LINE
8
BLACK
6
CONTINUOUS
10
2.30832
20
1.17507
11
2.31398
21
1.17918
0
LINE
8
BLACK
6
CONTINUOUS
10
2.31398
20
1.17918
11
2.32037
21
1.18202
0
LINE
8
BLACK
6
CONTINUOUS
10
2.32037
20
1.18202
11
2.32721
21
1.18348
0
LINE
8
BLACK
6
CONTINUOUS
10
2.32721
20
1.18348
11
2.33421
21
1.18348
0
LINE
8
BLACK
6
CONTINUOUS
10
2.33421
20
1.18348
11
2.34105
21
1.18202
0
LINE
8
BLACK
6
CONTINUOUS
10
0.75504
20
1.18149
11
0.761697
21
1.17916
0
LINE
8
BLACK
6
CONTINUOUS
10
0.761697
20
1.17916
11
0.767669
21
1.17541
0
LINE
8
BLACK
6
CONTINUOUS
10
0.767669
20
1.17541
11
0.772656
21
1.17042
0
LINE
8
BLACK
6
CONTINUOUS
10
0.772656
20
1.17042
11
0.776408
21
1.16445
0
LINE
8
BLACK
6
CONTINUOUS
10
0.776408
20
1.16445
11
0.778738
21
1.1578
0
LINE
8
BLACK
6
CONTINUOUS
10
0.778738
20
1.1578
11
0.779528
21
1.15079
0
LINE
8
BLACK
6
CONTINUOUS
10
0.779528
20
1.15079
11
0.778738
21
1.14378
0
LINE
8
BLACK
6
CONTINUOUS
10
0.778738
20
1.14378
11
0.776408
21
1.13712
0
LINE
8
BLACK
6
CONTINUOUS
10
0.776408
20
1.13712
11
0.772656
21
1.13115
0
LINE
8
BLACK
6
CONTINUOUS
10
0.772656
20
1.13115
11
0.767669
21
1.12616
0
LINE
8
BLACK
6
CONTINUOUS
10
0.767669
20
1.12616
11
0.761697
21
1.12241
0
LINE
8
BLACK
6
CONTINUOUS
10
0.761697
20
1.12241
11
0.75504
21
1.12008
0
LINE
8
BLACK
6
CONTINUOUS
10
0.75504
20
1.12008
11
0.748031
21
1.11929
0
LINE
8
BLACK
6
CONTINUOUS
10
0.748031
20
1.11929
11
0.741023
21
1.12008
0
LINE
8
BLACK
6
CONTINUOUS
10
0.741023
20
1.12008
11
0.734366
21
1.12241
0
LINE
8
BLACK
6
CONTINUOUS
10
0.734366
20
1.12241
11
0.728394
21
1.12616
0
LINE
8
BLACK
6
CONTINUOUS
10
0.728394
20
1.12616
11
0.723407
21
1.13115
0
LINE
8
BLACK
6
CONTINUOUS
10
0.723407
20
1.13115
11
0.719655
21
1.13712
0
LINE
8
BLACK
6
CONTINUOUS
10
0.719655
20
1.13712
11
0.717325
21
1.14378
0
LINE
8
BLACK
6
CONTINUOUS
10
0.717325
20
1.14378
11
0.716535
21
1.15079
0
LINE
8
BLACK
6
CONTINUOUS
10
0.716535
20
1.15079
11
0.717325
21
1.1578
0
LINE
8
BLACK
6
CONTINUOUS
10
0.717325
20
1.1578
11
0.719655
21
1.16445
0
LINE
8
BLACK
6
CONTINUOUS
10
0.719655
20
1.16445
11
0.723407
21
1.17042
0
LINE
8
BLACK
6
CONTINUOUS
10
0.723407
20
1.17042
11
0.728394
21
1.17541
0
LINE
8
BLACK
6
CONTINUOUS
10
0.728394
20
1.17541
11
0.734366
21
1.17916
0
LINE
8
BLACK
6
CONTINUOUS
10
0.734366
20
1.17916
11
0.741023
21
1.18149
0
LINE
8
BLACK
6
CONTINUOUS
10
0.741023
20
1.18149
11
0.748031
21
1.18228
0
LINE
8
BLACK
6
CONTINUOUS
10
0.748031
20
1.18228
11
0.75504
21
1.18149
0
LINE
8
BLACK
6
CONTINUOUS
10
0.858268
20
1.11929
11
0.795276
21
1.11929
0
LINE
8
BLACK
6
CONTINUOUS
10
0.795276
20
1.11929
11
0.795276
21
1.18228
0
LINE
8
BLACK
6
CONTINUOUS
10
0.795276
20
1.18228
11
0.858268
21
1.18228
0
LINE
8
BLACK
6
CONTINUOUS
10
0.858268
20
1.18228
11
0.858268
21
1.11929
0
LINE
8
BLACK
6
CONTINUOUS
10
2.4741
20
1.18988
11
2.48044
21
1.18766
0
LINE
8
BLACK
6
CONTINUOUS
10
2.48044
20
1.18766
11
2.48613
21
1.18408
0
LINE
8
BLACK
6
CONTINUOUS
10
2.48613
20
1.18408
11
2.49088
21
1.17933
0
LINE
8
BLACK
6
CONTINUOUS
10
2.49088
20
1.17933
11
2.49445
21
1.17365
0
LINE
8
BLACK
6
CONTINUOUS
10
2.49445
20
1.17365
11
2.49667
21
1.16731
0
LINE
8
BLACK
6
CONTINUOUS
10
2.49667
20
1.16731
11
2.49742
21
1.16063
0
LINE
8
BLACK
6
CONTINUOUS
10
2.49742
20
1.16063
11
2.49667
21
1.15395
0
LINE
8
BLACK
6
CONTINUOUS
10
2.49667
20
1.15395
11
2.49445
21
1.14761
0
LINE
8
BLACK
6
CONTINUOUS
10
2.49445
20
1.14761
11
2.49088
21
1.14193
0
LINE
8
BLACK
6
CONTINUOUS
10
2.49088
20
1.14193
11
2.48613
21
1.13718
0
LINE
8
BLACK
6
CONTINUOUS
10
2.48613
20
1.13718
11
2.48044
21
1.1336
0
LINE
8
BLACK
6
CONTINUOUS
10
2.48044
20
1.1336
11
2.4741
21
1.13138
0
LINE
8
BLACK
6
CONTINUOUS
10
2.4741
20
1.13138
11
2.46742
21
1.13063
0
LINE
8
BLACK
6
CONTINUOUS
10
2.46742
20
1.13063
11
2.46075
21
1.13138
0
LINE
8
BLACK
6
CONTINUOUS
10
2.46075
20
1.13138
11
2.4544
21
1.1336
0
LINE
8
BLACK
6
CONTINUOUS
10
2.4544
20
1.1336
11
2.44872
21
1.13718
0
LINE
8
BLACK
6
CONTINUOUS
10
2.44872
20
1.13718
11
2.44397
21
1.14193
0
LINE
8
BLACK
6
CONTINUOUS
10
2.44397
20
1.14193
11
2.44039
21
1.14761
0
LINE
8
BLACK
6
CONTINUOUS
10
2.44039
20
1.14761
11
2.43817
21
1.15395
0
LINE
8
BLACK
6
CONTINUOUS
10
2.43817
20
1.15395
11
2.43742
21
1.16063
0
LINE
8
BLACK
6
CONTINUOUS
10
2.43742
20
1.16063
11
2.43817
21
1.16731
0
LINE
8
BLACK
6
CONTINUOUS
10
2.43817
20
1.16731
11
2.44039
21
1.17365
0
LINE
8
BLACK
6
CONTINUOUS
10
2.44039
20
1.17365
11
2.44397
21
1.17933
0
LINE
8
BLACK
6
CONTINUOUS
10
2.44397
20
1.17933
11
2.44872
21
1.18408
0
LINE
8
BLACK
6
CONTINUOUS
10
2.44872
20
1.18408
11
2.4544
21
1.18766
0
LINE
8
BLACK
6
CONTINUOUS
10
2.4544
20
1.18766
11
2.46075
21
1.18988
0
LINE
8
BLACK
6
CONTINUOUS
10
2.46075
20
1.18988
11
2.46742
21
1.19063
0
LINE
8
BLACK
6
CONTINUOUS
10
2.46742
20
1.19063
11
2.4741
21
1.18988
0
LINE
8
BLACK
6
CONTINUOUS
10
2.4741
20
1.26862
11
2.48044
21
1.2664
0
LINE
8
BLACK
6
CONTINUOUS
10
2.48044
20
1.2664
11
2.48613
21
1.26283
0
LINE
8
BLACK
6
CONTINUOUS
10
2.48613
20
1.26283
11
2.49088
21
1.25807
0
LINE
8
BLACK
6
CONTINUOUS
10
2.49088
20
1.25807
11
2.49445
21
1.25239
0
LINE
8
BLACK
6
CONTINUOUS
10
2.49445
20
1.25239
11
2.49667
21
1.24605
0
LINE
8
BLACK
6
CONTINUOUS
10
2.49667
20
1.24605
11
2.49742
21
1.23937
0
LINE
8
BLACK
6
CONTINUOUS
10
2.49742
20
1.23937
11
2.49667
21
1.23269
0
LINE
8
BLACK
6
CONTINUOUS
10
2.49667
20
1.23269
11
2.49445
21
1.22635
0
LINE
8
BLACK
6
CONTINUOUS
10
2.49445
20
1.22635
11
2.49088
21
1.22067
0
LINE
8
BLACK
6
CONTINUOUS
10
2.49088
20
1.22067
11
2.48613
21
1.21592
0
LINE
8
BLACK
6
CONTINUOUS
10
2.48613
20
1.21592
11
2.48044
21
1.21234
0
LINE
8
BLACK
6
CONTINUOUS
10
2.48044
20
1.21234
11
2.4741
21
1.21012
0
LINE
8
BLACK
6
CONTINUOUS
10
2.4741
20
1.21012
11
2.46742
21
1.20937
0
LINE
8
BLACK
6
CONTINUOUS
10
2.46742
20
1.20937
11
2.46075
21
1.21012
0
LINE
8
BLACK
6
CONTINUOUS
10
2.46075
20
1.21012
11
2.4544
21
1.21234
0
LINE
8
BLACK
6
CONTINUOUS
10
2.4544
20
1.21234
11
2.44872
21
1.21592
0
LINE
8
BLACK
6
CONTINUOUS
10
2.44872
20
1.21592
11
2.44397
21
1.22067
0
LINE
8
BLACK
6
CONTINUOUS
10
2.44397
20
1.22067
11
2.44039
21
1.22635
0
LINE
8
BLACK
6
CONTINUOUS
10
2.44039
20
1.22635
11
2.43817
21
1.23269
0
LINE
8
BLACK
6
CONTINUOUS
10
2.43817
20
1.23269
11
2.43742
21
1.23937
0
LINE
8
BLACK
6
CONTINUOUS
10
2.43742
20
1.23937
11
2.43817
21
1.24605
0
LINE
8
BLACK
6
CONTINUOUS
10
2.43817
20
1.24605
11
2.44039
21
1.25239
0
LINE
8
BLACK
6
CONTINUOUS
10
2.44039
20
1.25239
11
2.44397
21
1.25807
0
LINE
8
BLACK
6
CONTINUOUS
10
2.44397
20
1.25807
11
2.44872
21
1.26283
0
LINE
8
BLACK
6
CONTINUOUS
10
2.44872
20
1.26283
11
2.4544
21
1.2664
0
LINE
8
BLACK
6
CONTINUOUS
10
2.4544
20
1.2664
11
2.46075
21
1.26862
0
LINE
8
BLACK
6
CONTINUOUS
10
2.46075
20
1.26862
11
2.46742
21
1.26937
0
LINE
8
BLACK
6
CONTINUOUS
10
2.46742
20
1.26937
11
2.4741
21
1.26862
0
LINE
8
BLACK
6
CONTINUOUS
10
0.979337
20
1.28163
11
0.985728
21
1.27878
0
LINE
8
BLACK
6
CONTINUOUS
10
0.985728
20
1.27878
11
0.991388
21
1.27467
0
LINE
8
BLACK
6
CONTINUOUS
10
0.991388
20
1.27467
11
0.996069
21
1.26947
0
LINE
8
BLACK
6
CONTINUOUS
10
0.996069
20
1.26947
11
0.999567
21
1.26341
0
LINE
8
BLACK
6
CONTINUOUS
10
0.999567
20
1.26341
11
1.00173
21
1.25676
0
LINE
8
BLACK
6
CONTINUOUS
10
1.00173
20
1.25676
11
1.00246
21
1.2498
0
LINE
8
BLACK
6
CONTINUOUS
10
1.00246
20
1.2498
11
1.00173
21
1.24285
0
LINE
8
BLACK
6
CONTINUOUS
10
1.00173
20
1.24285
11
0.999567
21
1.23619
0
LINE
8
BLACK
6
CONTINUOUS
10
0.999567
20
1.23619
11
0.996069
21
1.23013
0
LINE
8
BLACK
6
CONTINUOUS
10
0.996069
20
1.23013
11
0.991388
21
1.22493
0
LINE
8
BLACK
6
CONTINUOUS
10
0.991388
20
1.22493
11
0.985728
21
1.22082
0
LINE
8
BLACK
6
CONTINUOUS
10
0.985728
20
1.22082
11
0.979337
21
1.21798
0
LINE
8
BLACK
6
CONTINUOUS
10
0.979337
20
1.21798
11
0.972494
21
1.21652
0
LINE
8
BLACK
6
CONTINUOUS
10
0.972494
20
1.21652
11
0.965498
21
1.21652
0
LINE
8
BLACK
6
CONTINUOUS
10
0.965498
20
1.21652
11
0.958655
21
1.21798
0
LINE
8
BLACK
6
CONTINUOUS
10
0.958655
20
1.21798
11
0.952264
21
1.22082
0
LINE
8
BLACK
6
CONTINUOUS
10
0.952264
20
1.22082
11
0.946604
21
1.22493
0
LINE
8
BLACK
6
CONTINUOUS
10
0.946604
20
1.22493
11
0.941923
21
1.23013
0
LINE
8
BLACK
6
CONTINUOUS
10
0.941923
20
1.23013
11
0.938425
21
1.23619
0
LINE
8
BLACK
6
CONTINUOUS
10
0.938425
20
1.23619
11
0.936263
21
1.24285
0
LINE
8
BLACK
6
CONTINUOUS
10
0.936263
20
1.24285
11
0.935531
21
1.2498
0
LINE
8
BLACK
6
CONTINUOUS
10
0.935531
20
1.2498
11
0.936263
21
1.25676
0
LINE
8
BLACK
6
CONTINUOUS
10
0.936263
20
1.25676
11
0.938425
21
1.26341
0
LINE
8
BLACK
6
CONTINUOUS
10
0.938425
20
1.26341
11
0.941923
21
1.26947
0
LINE
8
BLACK
6
CONTINUOUS
10
0.941923
20
1.26947
11
0.946604
21
1.27467
0
LINE
8
BLACK
6
CONTINUOUS
10
0.946604
20
1.27467
11
0.952264
21
1.27878
0
LINE
8
BLACK
6
CONTINUOUS
10
0.952264
20
1.27878
11
0.958655
21
1.28163
0
LINE
8
BLACK
6
CONTINUOUS
10
0.958655
20
1.28163
11
0.965498
21
1.28308
0
LINE
8
BLACK
6
CONTINUOUS
10
0.965498
20
1.28308
11
0.972494
21
1.28308
0
LINE
8
BLACK
6
CONTINUOUS
10
0.972494
20
1.28308
11
0.979337
21
1.28163
0
LINE
8
BLACK
6
CONTINUOUS
10
2.36417
20
1.21673
11
2.29724
21
1.21673
0
LINE
8
BLACK
6
CONTINUOUS
10
2.29724
20
1.21673
11
2.29724
21
1.28366
0
LINE
8
BLACK
6
CONTINUOUS
10
2.29724
20
1.28366
11
2.36417
21
1.28366
0
LINE
8
BLACK
6
CONTINUOUS
10
2.36417
20
1.28366
11
2.36417
21
1.21673
0
LINE
8
BLACK
6
CONTINUOUS
10
0.75504
20
1.27992
11
0.761697
21
1.27759
0
LINE
8
BLACK
6
CONTINUOUS
10
0.761697
20
1.27759
11
0.767669
21
1.27384
0
LINE
8
BLACK
6
CONTINUOUS
10
0.767669
20
1.27384
11
0.772656
21
1.26885
0
LINE
8
BLACK
6
CONTINUOUS
10
0.772656
20
1.26885
11
0.776408
21
1.26288
0
LINE
8
BLACK
6
CONTINUOUS
10
0.776408
20
1.26288
11
0.778738
21
1.25622
0
LINE
8
BLACK
6
CONTINUOUS
10
0.778738
20
1.25622
11
0.779528
21
1.24921
0
LINE
8
BLACK
6
CONTINUOUS
10
0.779528
20
1.24921
11
0.778738
21
1.2422
0
LINE
8
BLACK
6
CONTINUOUS
10
0.778738
20
1.2422
11
0.776408
21
1.23555
0
LINE
8
BLACK
6
CONTINUOUS
10
0.776408
20
1.23555
11
0.772656
21
1.22958
0
LINE
8
BLACK
6
CONTINUOUS
10
0.772656
20
1.22958
11
0.767669
21
1.22459
0
LINE
8
BLACK
6
CONTINUOUS
10
0.767669
20
1.22459
11
0.761697
21
1.22084
0
LINE
8
BLACK
6
CONTINUOUS
10
0.761697
20
1.22084
11
0.75504
21
1.21851
0
LINE
8
BLACK
6
CONTINUOUS
10
0.75504
20
1.21851
11
0.748031
21
1.21772
0
LINE
8
BLACK
6
CONTINUOUS
10
0.748031
20
1.21772
11
0.741023
21
1.21851
0
LINE
8
BLACK
6
CONTINUOUS
10
0.741023
20
1.21851
11
0.734366
21
1.22084
0
LINE
8
BLACK
6
CONTINUOUS
10
0.734366
20
1.22084
11
0.728394
21
1.22459
0
LINE
8
BLACK
6
CONTINUOUS
10
0.728394
20
1.22459
11
0.723407
21
1.22958
0
LINE
8
BLACK
6
CONTINUOUS
10
0.723407
20
1.22958
11
0.719655
21
1.23555
0
LINE
8
BLACK
6
CONTINUOUS
10
0.719655
20
1.23555
11
0.717325
21
1.2422
0
LINE
8
BLACK
6
CONTINUOUS
10
0.717325
20
1.2422
11
0.716535
21
1.24921
0
LINE
8
BLACK
6
CONTINUOUS
10
0.716535
20
1.24921
11
0.717325
21
1.25622
0
LINE
8
BLACK
6
CONTINUOUS
10
0.717325
20
1.25622
11
0.719655
21
1.26288
0
LINE
8
BLACK
6
CONTINUOUS
10
0.719655
20
1.26288
11
0.723407
21
1.26885
0
LINE
8
BLACK
6
CONTINUOUS
10
0.723407
20
1.26885
11
0.728394
21
1.27384
0
LINE
8
BLACK
6
CONTINUOUS
10
0.728394
20
1.27384
11
0.734366
21
1.27759
0
LINE
8
BLACK
6
CONTINUOUS
10
0.734366
20
1.27759
11
0.741023
21
1.27992
0
LINE
8
BLACK
6
CONTINUOUS
10
0.741023
20
1.27992
11
0.748031
21
1.28071
0
LINE
8
BLACK
6
CONTINUOUS
10
0.748031
20
1.28071
11
0.75504
21
1.27992
0
LINE
8
BLACK
6
CONTINUOUS
10
0.83378
20
1.27992
11
0.840437
21
1.27759
0
LINE
8
BLACK
6
CONTINUOUS
10
0.840437
20
1.27759
11
0.846409
21
1.27384
0
LINE
8
BLACK
6
CONTINUOUS
10
0.846409
20
1.27384
11
0.851396
21
1.26885
0
LINE
8
BLACK
6
CONTINUOUS
10
0.851396
20
1.26885
11
0.855149
21
1.26288
0
LINE
8
BLACK
6
CONTINUOUS
10
0.855149
20
1.26288
11
0.857478
21
1.25622
0
LINE
8
BLACK
6
CONTINUOUS
10
0.857478
20
1.25622
11
0.858268
21
1.24921
0
LINE
8
BLACK
6
CONTINUOUS
10
0.858268
20
1.24921
11
0.857478
21
1.2422
0
LINE
8
BLACK
6
CONTINUOUS
10
0.857478
20
1.2422
11
0.855149
21
1.23555
0
LINE
8
BLACK
6
CONTINUOUS
10
0.855149
20
1.23555
11
0.851396
21
1.22958
0
LINE
8
BLACK
6
CONTINUOUS
10
0.851396
20
1.22958
11
0.846409
21
1.22459
0
LINE
8
BLACK
6
CONTINUOUS
10
0.846409
20
1.22459
11
0.840437
21
1.22084
0
LINE
8
BLACK
6
CONTINUOUS
10
0.840437
20
1.22084
11
0.83378
21
1.21851
0
LINE
8
BLACK
6
CONTINUOUS
10
0.83378
20
1.21851
11
0.826772
21
1.21772
0
LINE
8
BLACK
6
CONTINUOUS
10
0.826772
20
1.21772
11
0.819763
21
1.21851
0
LINE
8
BLACK
6
CONTINUOUS
10
0.819763
20
1.21851
11
0.813106
21
1.22084
0
LINE
8
BLACK
6
CONTINUOUS
10
0.813106
20
1.22084
11
0.807134
21
1.22459
0
LINE
8
BLACK
6
CONTINUOUS
10
0.807134
20
1.22459
11
0.802147
21
1.22958
0
LINE
8
BLACK
6
CONTINUOUS
10
0.802147
20
1.22958
11
0.798395
21
1.23555
0
LINE
8
BLACK
6
CONTINUOUS
10
0.798395
20
1.23555
11
0.796065
21
1.2422
0
LINE
8
BLACK
6
CONTINUOUS
10
0.796065
20
1.2422
11
0.795276
21
1.24921
0
LINE
8
BLACK
6
CONTINUOUS
10
0.795276
20
1.24921
11
0.796065
21
1.25622
0
LINE
8
BLACK
6
CONTINUOUS
10
0.796065
20
1.25622
11
0.798395
21
1.26288
0
LINE
8
BLACK
6
CONTINUOUS
10
0.798395
20
1.26288
11
0.802147
21
1.26885
0
LINE
8
BLACK
6
CONTINUOUS
10
0.802147
20
1.26885
11
0.807134
21
1.27384
0
LINE
8
BLACK
6
CONTINUOUS
10
0.807134
20
1.27384
11
0.813106
21
1.27759
0
LINE
8
BLACK
6
CONTINUOUS
10
0.813106
20
1.27759
11
0.819763
21
1.27992
0
LINE
8
BLACK
6
CONTINUOUS
10
0.819763
20
1.27992
11
0.826772
21
1.28071
0
LINE
8
BLACK
6
CONTINUOUS
10
0.826772
20
1.28071
11
0.83378
21
1.27992
0
LINE
8
BLACK
6
CONTINUOUS
10
2.4741
20
1.36704
11
2.48044
21
1.36482
0
LINE
8
BLACK
6
CONTINUOUS
10
2.48044
20
1.36482
11
2.48613
21
1.36125
0
LINE
8
BLACK
6
CONTINUOUS
10
2.48613
20
1.36125
11
2.49088
21
1.3565
0
LINE
8
BLACK
6
CONTINUOUS
10
2.49088
20
1.3565
11
2.49445
21
1.35081
0
LINE
8
BLACK
6
CONTINUOUS
10
2.49445
20
1.35081
11
2.49667
21
1.34447
0
LINE
8
BLACK
6
CONTINUOUS
10
2.49667
20
1.34447
11
2.49742
21
1.3378
0
LINE
8
BLACK
6
CONTINUOUS
10
2.49742
20
1.3378
11
2.49667
21
1.33112
0
LINE
8
BLACK
6
CONTINUOUS
10
2.49667
20
1.33112
11
2.49445
21
1.32478
0
LINE
8
BLACK
6
CONTINUOUS
10
2.49445
20
1.32478
11
2.49088
21
1.31909
0
LINE
8
BLACK
6
CONTINUOUS
10
2.49088
20
1.31909
11
2.48613
21
1.31434
0
LINE
8
BLACK
6
CONTINUOUS
10
2.48613
20
1.31434
11
2.48044
21
1.31077
0
LINE
8
BLACK
6
CONTINUOUS
10
2.48044
20
1.31077
11
2.4741
21
1.30855
0
LINE
8
BLACK
6
CONTINUOUS
10
2.4741
20
1.30855
11
2.46742
21
1.3078
0
LINE
8
BLACK
6
CONTINUOUS
10
2.46742
20
1.3078
11
2.46075
21
1.30855
0
LINE
8
BLACK
6
CONTINUOUS
10
2.46075
20
1.30855
11
2.4544
21
1.31077
0
LINE
8
BLACK
6
CONTINUOUS
10
2.4544
20
1.31077
11
2.44872
21
1.31434
0
LINE
8
BLACK
6
CONTINUOUS
10
2.44872
20
1.31434
11
2.44397
21
1.31909
0
LINE
8
BLACK
6
CONTINUOUS
10
2.44397
20
1.31909
11
2.44039
21
1.32478
0
LINE
8
BLACK
6
CONTINUOUS
10
2.44039
20
1.32478
11
2.43817
21
1.33112
0
LINE
8
BLACK
6
CONTINUOUS
10
2.43817
20
1.33112
11
2.43742
21
1.3378
0
LINE
8
BLACK
6
CONTINUOUS
10
2.43742
20
1.3378
11
2.43817
21
1.34447
0
LINE
8
BLACK
6
CONTINUOUS
10
2.43817
20
1.34447
11
2.44039
21
1.35081
0
LINE
8
BLACK
6
CONTINUOUS
10
2.44039
20
1.35081
11
2.44397
21
1.3565
0
LINE
8
BLACK
6
CONTINUOUS
10
2.44397
20
1.3565
11
2.44872
21
1.36125
0
LINE
8
BLACK
6
CONTINUOUS
10
2.44872
20
1.36125
11
2.4544
21
1.36482
0
LINE
8
BLACK
6
CONTINUOUS
10
2.4544
20
1.36482
11
2.46075
21
1.36704
0
LINE
8
BLACK
6
CONTINUOUS
10
2.46075
20
1.36704
11
2.46742
21
1.3678
0
LINE
8
BLACK
6
CONTINUOUS
10
2.46742
20
1.3678
11
2.4741
21
1.36704
0
LINE
8
BLACK
6
CONTINUOUS
10
0.646639
20
1.51416
11
0.657617
21
1.51177
0
LINE
8
BLACK
6
CONTINUOUS
10
0.657617
20
1.51177
11
0.668143
21
1.50785
0
LINE
8
BLACK
6
CONTINUOUS
10
0.668143
20
1.50785
11
0.678003
21
1.50246
0
LINE
8
BLACK
6
CONTINUOUS
10
0.678003
20
1.50246
11
0.686997
21
1.49573
0
LINE
8
BLACK
6
CONTINUOUS
10
0.686997
20
1.49573
11
0.694941
21
1.48778
0
LINE
8
BLACK
6
CONTINUOUS
10
0.694941
20
1.48778
11
0.701674
21
1.47879
0
LINE
8
BLACK
6
CONTINUOUS
10
0.701674
20
1.47879
11
0.707058
21
1.46893
0
LINE
8
BLACK
6
CONTINUOUS
10
0.707058
20
1.46893
11
0.710984
21
1.4584
0
LINE
8
BLACK
6
CONTINUOUS
10
0.710984
20
1.4584
11
0.713372
21
1.44743
0
LINE
8
BLACK
6
CONTINUOUS
10
0.713372
20
1.44743
11
0.714173
21
1.43622
0
LINE
8
BLACK
6
CONTINUOUS
10
0.714173
20
1.43622
11
0.713372
21
1.42501
0
LINE
8
BLACK
6
CONTINUOUS
10
0.713372
20
1.42501
11
0.710984
21
1.41404
0
LINE
8
BLACK
6
CONTINUOUS
10
0.710984
20
1.41404
11
0.707058
21
1.40351
0
LINE
8
BLACK
6
CONTINUOUS
10
0.707058
20
1.40351
11
0.701674
21
1.39365
0
LINE
8
BLACK
6
CONTINUOUS
10
0.701674
20
1.39365
11
0.694941
21
1.38466
0
LINE
8
BLACK
6
CONTINUOUS
10
0.694941
20
1.38466
11
0.686997
21
1.37671
0
LINE
8
BLACK
6
CONTINUOUS
10
0.686997
20
1.37671
11
0.678003
21
1.36998
0
LINE
8
BLACK
6
CONTINUOUS
10
0.678003
20
1.36998
11
0.668143
21
1.3646
0
LINE
8
BLACK
6
CONTINUOUS
10
0.668143
20
1.3646
11
0.657617
21
1.36067
0
LINE
8
BLACK
6
CONTINUOUS
10
0.657617
20
1.36067
11
0.646639
21
1.35828
0
LINE
8
BLACK
6
CONTINUOUS
10
0.646639
20
1.35828
11
0.635433
21
1.35748
0
LINE
8
BLACK
6
CONTINUOUS
10
0.635433
20
1.35748
11
0.624227
21
1.35828
0
LINE
8
BLACK
6
CONTINUOUS
10
0.624227
20
1.35828
11
0.613249
21
1.36067
0
LINE
8
BLACK
6
CONTINUOUS
10
0.613249
20
1.36067
11
0.602723
21
1.3646
0
LINE
8
BLACK
6
CONTINUOUS
10
0.602723
20
1.3646
11
0.592863
21
1.36998
0
LINE
8
BLACK
6
CONTINUOUS
10
0.592863
20
1.36998
11
0.583869
21
1.37671
0
LINE
8
BLACK
6
CONTINUOUS
10
0.583869
20
1.37671
11
0.575925
21
1.38466
0
LINE
8
BLACK
6
CONTINUOUS
10
0.575925
20
1.38466
11
0.569193
21
1.39365
0
LINE
8
BLACK
6
CONTINUOUS
10
0.569193
20
1.39365
11
0.563809
21
1.40351
0
LINE
8
BLACK
6
CONTINUOUS
10
0.563809
20
1.40351
11
0.559882
21
1.41404
0
LINE
8
BLACK
6
CONTINUOUS
10
0.559882
20
1.41404
11
0.557494
21
1.42501
0
LINE
8
BLACK
6
CONTINUOUS
10
0.557494
20
1.42501
11
0.556693
21
1.43622
0
LINE
8
BLACK
6
CONTINUOUS
10
0.556693
20
1.43622
11
0.557494
21
1.44743
0
LINE
8
BLACK
6
CONTINUOUS
10
0.557494
20
1.44743
11
0.559882
21
1.4584
0
LINE
8
BLACK
6
CONTINUOUS
10
0.559882
20
1.4584
11
0.563809
21
1.46893
0
LINE
8
BLACK
6
CONTINUOUS
10
0.563809
20
1.46893
11
0.569193
21
1.47879
0
LINE
8
BLACK
6
CONTINUOUS
10
0.569193
20
1.47879
11
0.575925
21
1.48778
0
LINE
8
BLACK
6
CONTINUOUS
10
0.575925
20
1.48778
11
0.583869
21
1.49573
0
LINE
8
BLACK
6
CONTINUOUS
10
0.583869
20
1.49573
11
0.592863
21
1.50246
0
LINE
8
BLACK
6
CONTINUOUS
10
0.592863
20
1.50246
11
0.602723
21
1.50785
0
LINE
8
BLACK
6
CONTINUOUS
10
0.602723
20
1.50785
11
0.613249
21
1.51177
0
LINE
8
BLACK
6
CONTINUOUS
10
0.613249
20
1.51177
11
0.624227
21
1.51416
0
LINE
8
BLACK
6
CONTINUOUS
10
0.624227
20
1.51416
11
0.635433
21
1.51496
0
LINE
8
BLACK
6
CONTINUOUS
10
0.635433
20
1.51496
11
0.646639
21
1.51416
0
LINE
8
BLACK
6
CONTINUOUS
10
2.58945
20
1.52583
11
2.59929
21
1.5228
0
LINE
8
BLACK
6
CONTINUOUS
10
2.59929
20
1.5228
11
2.60856
21
1.51833
0
LINE
8
BLACK
6
CONTINUOUS
10
2.60856
20
1.51833
11
2.61707
21
1.51253
0
LINE
8
BLACK
6
CONTINUOUS
10
2.61707
20
1.51253
11
2.62462
21
1.50552
0
LINE
8
BLACK
6
CONTINUOUS
10
2.62462
20
1.50552
11
2.63104
21
1.49747
0
LINE
8
BLACK
6
CONTINUOUS
10
2.63104
20
1.49747
11
2.63619
21
1.48856
0
LINE
8
BLACK
6
CONTINUOUS
10
2.63619
20
1.48856
11
2.63995
21
1.47897
0
LINE
8
BLACK
6
CONTINUOUS
10
2.63995
20
1.47897
11
2.64224
21
1.46893
0
LINE
8
BLACK
6
CONTINUOUS
10
2.64224
20
1.46893
11
2.64301
21
1.45866
0
LINE
8
BLACK
6
CONTINUOUS
10
2.64301
20
1.45866
11
2.64224
21
1.44839
0
LINE
8
BLACK
6
CONTINUOUS
10
2.64224
20
1.44839
11
2.63995
21
1.43835
0
LINE
8
BLACK
6
CONTINUOUS
10
2.63995
20
1.43835
11
2.63619
21
1.42877
0
LINE
8
BLACK
6
CONTINUOUS
10
2.63619
20
1.42877
11
2.63104
21
1.41985
0
LINE
8
BLACK
6
CONTINUOUS
10
2.63104
20
1.41985
11
2.62462
21
1.4118
0
LINE
8
BLACK
6
CONTINUOUS
10
2.62462
20
1.4118
11
2.61707
21
1.4048
0
LINE
8
BLACK
6
CONTINUOUS
10
2.61707
20
1.4048
11
2.60856
21
1.39899
0
LINE
8
BLACK
6
CONTINUOUS
10
2.60856
20
1.39899
11
2.59929
21
1.39453
0
LINE
8
BLACK
6
CONTINUOUS
10
2.59929
20
1.39453
11
2.58945
21
1.39149
0
LINE
8
BLACK
6
CONTINUOUS
10
2.58945
20
1.39149
11
2.57926
21
1.38996
0
LINE
8
BLACK
6
CONTINUOUS
10
2.57926
20
1.38996
11
2.56897
21
1.38996
0
LINE
8
BLACK
6
CONTINUOUS
10
2.56897
20
1.38996
11
2.55878
21
1.39149
0
LINE
8
BLACK
6
CONTINUOUS
10
2.55878
20
1.39149
11
2.54894
21
1.39453
0
LINE
8
BLACK
6
CONTINUOUS
10
2.54894
20
1.39453
11
2.53967
21
1.39899
0
LINE
8
BLACK
6
CONTINUOUS
10
2.53967
20
1.39899
11
2.53116
21
1.4048
0
LINE
8
BLACK
6
CONTINUOUS
10
2.53116
20
1.4048
11
2.52361
21
1.4118
0
LINE
8
BLACK
6
CONTINUOUS
10
2.52361
20
1.4118
11
2.51719
21
1.41985
0
LINE
8
BLACK
6
CONTINUOUS
10
2.51719
20
1.41985
11
2.51204
21
1.42877
0
LINE
8
BLACK
6
CONTINUOUS
10
2.51204
20
1.42877
11
2.50828
21
1.43835
0
LINE
8
BLACK
6
CONTINUOUS
10
2.50828
20
1.43835
11
2.50599
21
1.44839
0
LINE
8
BLACK
6
CONTINUOUS
10
2.50599
20
1.44839
11
2.50522
21
1.45866
0
LINE
8
BLACK
6
CONTINUOUS
10
2.50522
20
1.45866
11
2.50599
21
1.46893
0
LINE
8
BLACK
6
CONTINUOUS
10
2.50599
20
1.46893
11
2.50828
21
1.47897
0
LINE
8
BLACK
6
CONTINUOUS
10
2.50828
20
1.47897
11
2.51204
21
1.48856
0
LINE
8
BLACK
6
CONTINUOUS
10
2.51204
20
1.48856
11
2.51719
21
1.49747
0
LINE
8
BLACK
6
CONTINUOUS
10
2.51719
20
1.49747
11
2.52361
21
1.50552
0
LINE
8
BLACK
6
CONTINUOUS
10
2.52361
20
1.50552
11
2.53116
21
1.51253
0
LINE
8
BLACK
6
CONTINUOUS
10
2.53116
20
1.51253
11
2.53967
21
1.51833
0
LINE
8
BLACK
6
CONTINUOUS
10
2.53967
20
1.51833
11
2.54894
21
1.5228
0
LINE
8
BLACK
6
CONTINUOUS
10
2.54894
20
1.5228
11
2.55878
21
1.52583
0
LINE
8
BLACK
6
CONTINUOUS
10
2.55878
20
1.52583
11
2.56897
21
1.52737
0
LINE
8
BLACK
6
CONTINUOUS
10
2.56897
20
1.52737
11
2.57926
21
1.52737
0
LINE
8
BLACK
6
CONTINUOUS
10
2.57926
20
1.52737
11
2.58945
21
1.52583
0
LINE
8
BLACK
6
CONTINUOUS
10
2.69299
20
1.6326
11
2.63299
21
1.6326
0
LINE
8
BLACK
6
CONTINUOUS
10
2.63299
20
1.6326
11
2.63299
21
1.6926
0
LINE
8
BLACK
6
CONTINUOUS
10
2.63299
20
1.6926
11
2.69299
21
1.6926
0
LINE
8
BLACK
6
CONTINUOUS
10
2.69299
20
1.6926
11
2.69299
21
1.6326
0
LINE
8
BLACK
6
CONTINUOUS
10
2.79299
20
1.6326
11
2.73299
21
1.6326
0
LINE
8
BLACK
6
CONTINUOUS
10
2.73299
20
1.6326
11
2.73299
21
1.6926
0
LINE
8
BLACK
6
CONTINUOUS
10
2.73299
20
1.6926
11
2.79299
21
1.6926
0
LINE
8
BLACK
6
CONTINUOUS
10
2.79299
20
1.6926
11
2.79299
21
1.6326
0
LINE
8
BLACK
6
CONTINUOUS
10
2.89299
20
1.6326
11
2.83299
21
1.6326
0
LINE
8
BLACK
6
CONTINUOUS
10
2.83299
20
1.6326
11
2.83299
21
1.6926
0
LINE
8
BLACK
6
CONTINUOUS
10
2.83299
20
1.6926
11
2.89299
21
1.6926
0
LINE
8
BLACK
6
CONTINUOUS
10
2.89299
20
1.6926
11
2.89299
21
1.6326
0
LINE
8
BLACK
6
CONTINUOUS
10
2.69299
20
1.7326
11
2.63299
21
1.7326
0
LINE
8
BLACK
6
CONTINUOUS
10
2.63299
20
1.7326
11
2.63299
21
1.7926
0
LINE
8
BLACK
6
CONTINUOUS
10
2.63299
20
1.7926
11
2.69299
21
1.7926
0
LINE
8
BLACK
6
CONTINUOUS
10
2.69299
20
1.7926
11
2.69299
21
1.7326
0
LINE
8
BLACK
6
CONTINUOUS
10
2.79299
20
1.7326
11
2.73299
21
1.7326
0
LINE
8
BLACK
6
CONTINUOUS
10
2.73299
20
1.7326
11
2.73299
21
1.7926
0
LINE
8
BLACK
6
CONTINUOUS
10
2.73299
20
1.7926
11
2.79299
21
1.7926
0
LINE
8
BLACK
6
CONTINUOUS
10
2.79299
20
1.7926
11
2.79299
21
1.7326
0
LINE
8
BLACK
6
CONTINUOUS
10
2.89299
20
1.7326
11
2.83299
21
1.7326
0
LINE
8
BLACK
6
CONTINUOUS
10
2.83299
20
1.7326
11
2.83299
21
1.7926
0
LINE
8
BLACK
6
CONTINUOUS
10
2.83299
20
1.7926
11
2.89299
21
1.7926
0
LINE
8
BLACK
6
CONTINUOUS
10
2.89299
20
1.7926
11
2.89299
21
1.7326
0
LINE
8
BLACK
6
CONTINUOUS
10
1.11027
20
1.74409
11
1.01184
21
1.74409
0
LINE
8
BLACK
6
CONTINUOUS
10
1.01184
20
1.74409
11
1.01184
21
1.94094
0
LINE
8
BLACK
6
CONTINUOUS
10
1.01184
20
1.94094
11
1.11027
21
1.94094
0
LINE
8
BLACK
6
CONTINUOUS
10
1.11027
20
1.94094
11
1.11027
21
1.74409
0
LINE
8
BLACK
6
CONTINUOUS
10
0.42051
20
2.11632
11
0.433874
21
2.11315
0
LINE
8
BLACK
6
CONTINUOUS
10
0.433874
20
2.11315
11
0.446781
21
2.10845
0
LINE
8
BLACK
6
CONTINUOUS
10
0.446781
20
2.10845
11
0.459055
21
2.10229
0
LINE
8
BLACK
6
CONTINUOUS
10
0.459055
20
2.10229
11
0.470531
21
2.09474
0
LINE
8
BLACK
6
CONTINUOUS
10
0.470531
20
2.09474
11
0.481052
21
2.08591
0
LINE
8
BLACK
6
CONTINUOUS
10
0.481052
20
2.08591
11
0.490478
21
2.07592
0
LINE
8
BLACK
6
CONTINUOUS
10
0.490478
20
2.07592
11
0.49868
21
2.0649
0
LINE
8
BLACK
6
CONTINUOUS
10
0.49868
20
2.0649
11
0.505547
21
2.05301
0
LINE
8
BLACK
6
CONTINUOUS
10
0.505547
20
2.05301
11
0.510987
21
2.0404
0
LINE
8
BLACK
6
CONTINUOUS
10
0.510987
20
2.0404
11
0.514927
21
2.02724
0
LINE
8
BLACK
6
CONTINUOUS
10
0.514927
20
2.02724
11
0.517312
21
2.01371
0
LINE
8
BLACK
6
CONTINUOUS
10
0.517312
20
2.01371
11
0.51811
21
2
0
LINE
8
BLACK
6
CONTINUOUS
10
0.51811
20
2
11
0.517312
21
1.98629
0
LINE
8
BLACK
6
CONTINUOUS
10
0.517312
20
1.98629
11
0.514927
21
1.97276
0
LINE
8
BLACK
6
CONTINUOUS
10
0.514927
20
1.97276
11
0.510987
21
1.9596
0
LINE
8
BLACK
6
CONTINUOUS
10
0.510987
20
1.9596
11
0.505547
21
1.94699
0
LINE
8
BLACK
6
CONTINUOUS
10
0.505547
20
1.94699
11
0.49868
21
1.9351
0
LINE
8
BLACK
6
CONTINUOUS
10
0.49868
20
1.9351
11
0.490478
21
1.92408
0
LINE
8
BLACK
6
CONTINUOUS
10
0.490478
20
1.92408
11
0.481052
21
1.91409
0
LINE
8
BLACK
6
CONTINUOUS
10
0.481052
20
1.91409
11
0.470531
21
1.90526
0
LINE
8
BLACK
6
CONTINUOUS
10
0.470531
20
1.90526
11
0.459055
21
1.89771
0
LINE
8
BLACK
6
CONTINUOUS
10
0.459055
20
1.89771
11
0.446781
21
1.89155
0
LINE
8
BLACK
6
CONTINUOUS
10
0.446781
20
1.89155
11
0.433874
21
1.88685
0
LINE
8
BLACK
6
CONTINUOUS
10
0.433874
20
1.88685
11
0.42051
21
1.88368
0
LINE
8
BLACK
6
CONTINUOUS
10
0.42051
20
1.88368
11
0.406867
21
1.88209
0
LINE
8
BLACK
6
CONTINUOUS
10
0.406867
20
1.88209
11
0.393133
21
1.88209
0
LINE
8
BLACK
6
CONTINUOUS
10
0.393133
20
1.88209
11
0.37949
21
1.88368
0
LINE
8
BLACK
6
CONTINUOUS
10
0.37949
20
1.88368
11
0.366126
21
1.88685
0
LINE
8
BLACK
6
CONTINUOUS
10
0.366126
20
1.88685
11
0.353219
21
1.89155
0
LINE
8
BLACK
6
CONTINUOUS
10
0.353219
20
1.89155
11
0.340945
21
1.89771
0
LINE
8
BLACK
6
CONTINUOUS
10
0.340945
20
1.89771
11
0.329469
21
1.90526
0
LINE
8
BLACK
6
CONTINUOUS
10
0.329469
20
1.90526
11
0.318948
21
1.91409
0
LINE
8
BLACK
6
CONTINUOUS
10
0.318948
20
1.91409
11
0.309522
21
1.92408
0
LINE
8
BLACK
6
CONTINUOUS
10
0.309522
20
1.92408
11
0.30132
21
1.9351
0
LINE
8
BLACK
6
CONTINUOUS
10
0.30132
20
1.9351
11
0.294453
21
1.94699
0
LINE
8
BLACK
6
CONTINUOUS
10
0.294453
20
1.94699
11
0.289013
21
1.9596
0
LINE
8
BLACK
6
CONTINUOUS
10
0.289013
20
1.9596
11
0.285073
21
1.97276
0
LINE
8
BLACK
6
CONTINUOUS
10
0.285073
20
1.97276
11
0.282688
21
1.98629
0
LINE
8
BLACK
6
CONTINUOUS
10
0.282688
20
1.98629
11
0.28189
21
2
0
LINE
8
BLACK
6
CONTINUOUS
10
0.28189
20
2
11
0.282688
21
2.01371
0
LINE
8
BLACK
6
CONTINUOUS
10
0.282688
20
2.01371
11
0.285073
21
2.02724
0
LINE
8
BLACK
6
CONTINUOUS
10
0.285073
20
2.02724
11
0.289013
21
2.0404
0
LINE
8
BLACK
6
CONTINUOUS
10
0.289013
20
2.0404
11
0.294453
21
2.05301
0
LINE
8
BLACK
6
CONTINUOUS
10
0.294453
20
2.05301
11
0.30132
21
2.0649
0
LINE
8
BLACK
6
CONTINUOUS
10
0.30132
20
2.0649
11
0.309522
21
2.07592
0
LINE
8
BLACK
6
CONTINUOUS
10
0.309522
20
2.07592
11
0.318948
21
2.08591
0
LINE
8
BLACK
6
CONTINUOUS
10
0.318948
20
2.08591
11
0.329469
21
2.09474
0
LINE
8
BLACK
6
CONTINUOUS
10
0.329469
20
2.09474
11
0.340945
21
2.10229
0
LINE
8
BLACK
6
CONTINUOUS
10
0.340945
20
2.10229
11
0.353219
21
2.10845
0
LINE
8
BLACK
6
CONTINUOUS
10
0.353219
20
2.10845
11
0.366126
21
2.11315
0
LINE
8
BLACK
6
CONTINUOUS
10
0.366126
20
2.11315
11
0.37949
21
2.11632
0
LINE
8
BLACK
6
CONTINUOUS
10
0.37949
20
2.11632
11
0.393133
21
2.11791
0
LINE
8
BLACK
6
CONTINUOUS
10
0.393133
20
2.11791
11
0.406867
21
2.11791
0
LINE
8
BLACK
6
CONTINUOUS
10
0.406867
20
2.11791
11
0.42051
21
2.11632
0
LINE
8
BLACK
6
CONTINUOUS
10
2.82051
20
2.11632
11
2.83387
21
2.11315
0
LINE
8
BLACK
6
CONTINUOUS
10
2.83387
20
2.11315
11
2.84678
21
2.10845
0
LINE
8
BLACK
6
CONTINUOUS
10
2.84678
20
2.10845
11
2.85906
21
2.10229
0
LINE
8
BLACK
6
CONTINUOUS
10
2.85906
20
2.10229
11
2.87053
21
2.09474
0
LINE
8
BLACK
6
CONTINUOUS
10
2.87053
20
2.09474
11
2.88105
21
2.08591
0
LINE
8
BLACK
6
CONTINUOUS
10
2.88105
20
2.08591
11
2.89048
21
2.07592
0
LINE
8
BLACK
6
CONTINUOUS
10
2.89048
20
2.07592
11
2.89868
21
2.0649
0
LINE
8
BLACK
6
CONTINUOUS
10
2.89868
20
2.0649
11
2.90555
21
2.05301
0
LINE
8
BLACK
6
CONTINUOUS
10
2.90555
20
2.05301
11
2.91099
21
2.0404
0
LINE
8
BLACK
6
CONTINUOUS
10
2.91099
20
2.0404
11
2.91493
21
2.02724
0
LINE
8
BLACK
6
CONTINUOUS
10
2.91493
20
2.02724
11
2.91731
21
2.01371
0
LINE
8
BLACK
6
CONTINUOUS
10
2.91731
20
2.01371
11
2.91811
21
2
0
LINE
8
BLACK
6
CONTINUOUS
10
2.91811
20
2
11
2.91731
21
1.98629
0
LINE
8
BLACK
6
CONTINUOUS
10
2.91731
20
1.98629
11
2.91493
21
1.97276
0
LINE
8
BLACK
6
CONTINUOUS
10
2.91493
20
1.97276
11
2.91099
21
1.9596
0
LINE
8
BLACK
6
CONTINUOUS
10
2.91099
20
1.9596
11
2.90555
21
1.94699
0
LINE
8
BLACK
6
CONTINUOUS
10
2.90555
20
1.94699
11
2.89868
21
1.9351
0
LINE
8
BLACK
6
CONTINUOUS
10
2.89868
20
1.9351
11
2.89048
21
1.92408
0
LINE
8
BLACK
6
CONTINUOUS
10
2.89048
20
1.92408
11
2.88105
21
1.91409
0
LINE
8
BLACK
6
CONTINUOUS
10
2.88105
20
1.91409
11
2.87053
21
1.90526
0
LINE
8
BLACK
6
CONTINUOUS
10
2.87053
20
1.90526
11
2.85906
21
1.89771
0
LINE
8
BLACK
6
CONTINUOUS
10
2.85906
20
1.89771
11
2.84678
21
1.89155
0
LINE
8
BLACK
6
CONTINUOUS
10
2.84678
20
1.89155
11
2.83387
21
1.88685
0
LINE
8
BLACK
6
CONTINUOUS
10
2.83387
20
1.88685
11
2.82051
21
1.88368
0
LINE
8
BLACK
6
CONTINUOUS
10
2.82051
20
1.88368
11
2.80687
21
1.88209
0
LINE
8
BLACK
6
CONTINUOUS
10
2.80687
20
1.88209
11
2.79313
21
1.88209
0
LINE
8
BLACK
6
CONTINUOUS
10
2.79313
20
1.88209
11
2.77949
21
1.88368
0
LINE
8
BLACK
6
CONTINUOUS
10
2.77949
20
1.88368
11
2.76613
21
1.88685
0
LINE
8
BLACK
6
CONTINUOUS
10
2.76613
20
1.88685
11
2.75322
21
1.89155
0
LINE
8
BLACK
6
CONTINUOUS
10
2.75322
20
1.89155
11
2.74094
21
1.89771
0
LINE
8
BLACK
6
CONTINUOUS
10
2.74094
20
1.89771
11
2.72947
21
1.90526
0
LINE
8
BLACK
6
CONTINUOUS
10
2.72947
20
1.90526
11
2.71895
21
1.91409
0
LINE
8
BLACK
6
CONTINUOUS
10
2.71895
20
1.91409
11
2.70952
21
1.92408
0
LINE
8
BLACK
6
CONTINUOUS
10
2.70952
20
1.92408
11
2.70132
21
1.9351
0
LINE
8
BLACK
6
CONTINUOUS
10
2.70132
20
1.9351
11
2.69445
21
1.94699
0
LINE
8
BLACK
6
CONTINUOUS
10
2.69445
20
1.94699
11
2.68901
21
1.9596
0
LINE
8
BLACK
6
CONTINUOUS
10
2.68901
20
1.9596
11
2.68507
21
1.97276
0
LINE
8
BLACK
6
CONTINUOUS
10
2.68507
20
1.97276
11
2.68269
21
1.98629
0
LINE
8
BLACK
6
CONTINUOUS
10
2.68269
20
1.98629
11
2.68189
21
2
0
LINE
8
BLACK
6
CONTINUOUS
10
2.68189
20
2
11
2.68269
21
2.01371
0
LINE
8
BLACK
6
CONTINUOUS
10
2.68269
20
2.01371
11
2.68507
21
2.02724
0
LINE
8
BLACK
6
CONTINUOUS
10
2.68507
20
2.02724
11
2.68901
21
2.0404
0
LINE
8
BLACK
6
CONTINUOUS
10
2.68901
20
2.0404
11
2.69445
21
2.05301
0
LINE
8
BLACK
6
CONTINUOUS
10
2.69445
20
2.05301
11
2.70132
21
2.0649
0
LINE
8
BLACK
6
CONTINUOUS
10
2.70132
20
2.0649
11
2.70952
21
2.07592
0
LINE
8
BLACK
6
CONTINUOUS
10
2.70952
20
2.07592
11
2.71895
21
2.08591
0
LINE
8
BLACK
6
CONTINUOUS
10
2.71895
20
2.08591
11
2.72947
21
2.09474
0
LINE
8
BLACK
6
CONTINUOUS
10
2.72947
20
2.09474
11
2.74094
21
2.10229
0
LINE
8
BLACK
6
CONTINUOUS
10
2.74094
20
2.10229
11
2.75322
21
2.10845
0
LINE
8
BLACK
6
CONTINUOUS
10
2.75322
20
2.10845
11
2.76613
21
2.11315
0
LINE
8
BLACK
6
CONTINUOUS
10
2.76613
20
2.11315
11
2.77949
21
2.11632
0
LINE
8
BLACK
6
CONTINUOUS
10
2.77949
20
2.11632
11
2.79313
21
2.11791
0
LINE
8
BLACK
6
CONTINUOUS
10
2.79313
20
2.11791
11
2.80687
21
2.11791
0
LINE
8
BLACK
6
CONTINUOUS
10
2.80687
20
2.11791
11
2.82051
21
2.11632
0
LINE
8
BLACK
6
CONTINUOUS
10
2.30909
20
1.98031
11
2.21066
21
1.98031
0
LINE
8
BLACK
6
CONTINUOUS
10
2.21066
20
1.98031
11
2.21066
21
2.17717
0
LINE
8
BLACK
6
CONTINUOUS
10
2.21066
20
2.17717
11
2.30909
21
2.17717
0
LINE
8
BLACK
6
CONTINUOUS
10
2.30909
20
2.17717
11
2.30909
21
1.98031
  0
ENDSEC
  0
EOF
