  0
SECTION
  2
HEADER
  9
$ANGBASE
  50
0.0
  9
$ANGDIR
  70
1
  9
$MEASUREMENT
  70
0
  0
ENDSEC
  0
SECTION
  2
TABLES
  0
TABLE
  2
LTYPE
  70
4
  0
LTYPE
  5
40F
  2
CONTINUOUS
  70
0
  3
Solid line
  72
65
  73
0
  40
0.0
  0
LTYPE
  5
410
  2
DASHDOT
 70
0
  3
Dash Dot ____ _ ____ _
 72
65
 73
4
 40
2.0
 49
1.25
 49
-0.25
 49
0.25
 49
-0.25
  0
LTYPE
  5
411
  2
DASHED
 70
0
  3
Dashed __ __ __ __ __
 72
65
 73
2
 40
0.75
 49
0.5
 49
-0.25
  0
LTYPE
  5
43B
  2
DOTTED
 70
0
  3
Dotted .  .  .  .
 72
65
 73
2
 40
0.2
 49
0.0
 49
-0.2
  0
ENDTAB
  0
TABLE
  2
STYLE
  70
4
  0
STYLE
  2
KICAD
  70
0
  40
0
  41
1
  42
1
  50
0
  71
0
  3
isocp.shx
  0
STYLE
  2
KICADB
  70
0
  40
0
  41
1
  42
1
  50
0
  71
0
  3
isocp.shx
  0
STYLE
  2
KICADI
  70
0
  40
0
  41
1
  42
1
  50
15
  71
0
  3
isocp.shx
  0
STYLE
  2
KICADBI
  70
0
  40
0
  41
1
  42
1
  50
15
  71
0
  3
isocp.shx
  0
ENDTAB
  0
TABLE
  2
LAYER
  70
1
  0
LAYER
  2
BLACK
  70
0
  62
7
  6
CONTINUOUS
  0
ENDTAB
  0
ENDSEC
  0
SECTION
  2
ENTITIES
0
LINE
8
BLACK
6
CONTINUOUS
10
1.37346
20
0.720472
11
1.32621
21
0.720472
0
LINE
8
BLACK
6
CONTINUOUS
10
1.32621
20
0.720472
11
1.32621
21
0.783465
0
LINE
8
BLACK
6
CONTINUOUS
10
1.32621
20
0.783465
11
1.37346
21
0.783465
0
LINE
8
BLACK
6
CONTINUOUS
10
1.37346
20
0.783465
11
1.37346
21
0.720472
0
LINE
8
BLACK
6
CONTINUOUS
10
1.47188
20
0.720472
11
1.42464
21
0.720472
0
LINE
8
BLACK
6
CONTINUOUS
10
1.42464
20
0.720472
11
1.42464
21
0.783465
0
LINE
8
BLACK
6
CONTINUOUS
10
1.42464
20
0.783465
11
1.47188
21
0.783465
0
LINE
8
BLACK
6
CONTINUOUS
10
1.47188
20
0.783465
11
1.47188
21
0.720472
0
LINE
8
BLACK
6
CONTINUOUS
10
1.57031
20
0.720472
11
1.52306
21
0.720472
0
LINE
8
BLACK
6
CONTINUOUS
10
1.52306
20
0.720472
11
1.52306
21
0.783465
0
LINE
8
BLACK
6
CONTINUOUS
10
1.52306
20
0.783465
11
1.57031
21
0.783465
0
LINE
8
BLACK
6
CONTINUOUS
10
1.57031
20
0.783465
11
1.57031
21
0.720472
0
LINE
8
BLACK
6
CONTINUOUS
10
1.66873
20
0.720472
11
1.62149
21
0.720472
0
LINE
8
BLACK
6
CONTINUOUS
10
1.62149
20
0.720472
11
1.62149
21
0.783465
0
LINE
8
BLACK
6
CONTINUOUS
10
1.62149
20
0.783465
11
1.66873
21
0.783465
0
LINE
8
BLACK
6
CONTINUOUS
10
1.66873
20
0.783465
11
1.66873
21
0.720472
0
LINE
8
BLACK
6
CONTINUOUS
10
1.76716
20
0.720472
11
1.71992
21
0.720472
0
LINE
8
BLACK
6
CONTINUOUS
10
1.71992
20
0.720472
11
1.71992
21
0.783465
0
LINE
8
BLACK
6
CONTINUOUS
10
1.71992
20
0.783465
11
1.76716
21
0.783465
0
LINE
8
BLACK
6
CONTINUOUS
10
1.76716
20
0.783465
11
1.76716
21
0.720472
0
LINE
8
BLACK
6
CONTINUOUS
10
1.86558
20
0.720472
11
1.81834
21
0.720472
0
LINE
8
BLACK
6
CONTINUOUS
10
1.81834
20
0.720472
11
1.81834
21
0.783465
0
LINE
8
BLACK
6
CONTINUOUS
10
1.81834
20
0.783465
11
1.86558
21
0.783465
0
LINE
8
BLACK
6
CONTINUOUS
10
1.86558
20
0.783465
11
1.86558
21
0.720472
0
LINE
8
BLACK
6
CONTINUOUS
10
1.96401
20
0.720472
11
1.91677
21
0.720472
0
LINE
8
BLACK
6
CONTINUOUS
10
1.91677
20
0.720472
11
1.91677
21
0.783465
0
LINE
8
BLACK
6
CONTINUOUS
10
1.91677
20
0.783465
11
1.96401
21
0.783465
0
LINE
8
BLACK
6
CONTINUOUS
10
1.96401
20
0.783465
11
1.96401
21
0.720472
0
LINE
8
BLACK
6
CONTINUOUS
10
2.05968
20
0.720472
11
2.01244
21
0.720472
0
LINE
8
BLACK
6
CONTINUOUS
10
2.01244
20
0.720472
11
2.01244
21
0.783465
0
LINE
8
BLACK
6
CONTINUOUS
10
2.01244
20
0.783465
11
2.05968
21
0.783465
0
LINE
8
BLACK
6
CONTINUOUS
10
2.05968
20
0.783465
11
2.05968
21
0.720472
0
LINE
8
BLACK
6
CONTINUOUS
10
2.13055
20
0.720472
11
2.0833
21
0.720472
0
LINE
8
BLACK
6
CONTINUOUS
10
2.0833
20
0.720472
11
2.0833
21
0.783465
0
LINE
8
BLACK
6
CONTINUOUS
10
2.0833
20
0.783465
11
2.13055
21
0.783465
0
LINE
8
BLACK
6
CONTINUOUS
10
2.13055
20
0.783465
11
2.13055
21
0.720472
0
LINE
8
BLACK
6
CONTINUOUS
10
1.11027
20
0.791339
11
1.01184
21
0.791339
0
LINE
8
BLACK
6
CONTINUOUS
10
1.01184
20
0.791339
11
1.01184
21
0.988189
0
LINE
8
BLACK
6
CONTINUOUS
10
1.01184
20
0.988189
11
1.11027
21
0.988189
0
LINE
8
BLACK
6
CONTINUOUS
10
1.11027
20
0.988189
11
1.11027
21
0.791339
0
LINE
8
BLACK
6
CONTINUOUS
10
2.30909
20
0.791339
11
2.21066
21
0.791339
0
LINE
8
BLACK
6
CONTINUOUS
10
2.21066
20
0.791339
11
2.21066
21
0.988189
0
LINE
8
BLACK
6
CONTINUOUS
10
2.21066
20
0.988189
11
2.30909
21
0.988189
0
LINE
8
BLACK
6
CONTINUOUS
10
2.30909
20
0.988189
11
2.30909
21
0.791339
0
LINE
8
BLACK
6
CONTINUOUS
10
1.11027
20
1.74409
11
1.01184
21
1.74409
0
LINE
8
BLACK
6
CONTINUOUS
10
1.01184
20
1.74409
11
1.01184
21
1.94094
0
LINE
8
BLACK
6
CONTINUOUS
10
1.01184
20
1.94094
11
1.11027
21
1.94094
0
LINE
8
BLACK
6
CONTINUOUS
10
1.11027
20
1.94094
11
1.11027
21
1.74409
0
LINE
8
BLACK
6
CONTINUOUS
10
2.30909
20
1.98031
11
2.21066
21
1.98031
0
LINE
8
BLACK
6
CONTINUOUS
10
2.21066
20
1.98031
11
2.21066
21
2.17717
0
LINE
8
BLACK
6
CONTINUOUS
10
2.21066
20
2.17717
11
2.30909
21
2.17717
0
LINE
8
BLACK
6
CONTINUOUS
10
2.30909
20
2.17717
11
2.30909
21
1.98031
  0
ENDSEC
  0
EOF
