  0
SECTION
  2
HEADER
  9
$ANGBASE
  50
0.0
  9
$ANGDIR
  70
1
  9
$MEASUREMENT
  70
0
  0
ENDSEC
  0
SECTION
  2
TABLES
  0
TABLE
  2
LTYPE
  70
4
  0
LTYPE
  5
40F
  2
CONTINUOUS
  70
0
  3
Solid line
  72
65
  73
0
  40
0.0
  0
LTYPE
  5
410
  2
DASHDOT
 70
0
  3
Dash Dot ____ _ ____ _
 72
65
 73
4
 40
2.0
 49
1.25
 49
-0.25
 49
0.25
 49
-0.25
  0
LTYPE
  5
411
  2
DASHED
 70
0
  3
Dashed __ __ __ __ __
 72
65
 73
2
 40
0.75
 49
0.5
 49
-0.25
  0
LTYPE
  5
43B
  2
DOTTED
 70
0
  3
Dotted .  .  .  .
 72
65
 73
2
 40
0.2
 49
0.0
 49
-0.2
  0
ENDTAB
  0
TABLE
  2
STYLE
  70
4
  0
STYLE
  2
KICAD
  70
0
  40
0
  41
1
  42
1
  50
0
  71
0
  3
isocp.shx
  0
STYLE
  2
KICADB
  70
0
  40
0
  41
1
  42
1
  50
0
  71
0
  3
isocp.shx
  0
STYLE
  2
KICADI
  70
0
  40
0
  41
1
  42
1
  50
15
  71
0
  3
isocp.shx
  0
STYLE
  2
KICADBI
  70
0
  40
0
  41
1
  42
1
  50
15
  71
0
  3
isocp.shx
  0
ENDTAB
  0
TABLE
  2
LAYER
  70
1
  0
LAYER
  2
BLACK
  70
0
  62
7
  6
CONTINUOUS
  0
ENDTAB
  0
ENDSEC
  0
SECTION
  2
ENTITIES
0
LINE
8
BLACK
6
CONTINUOUS
10
2.17913
20
0.598425
11
2.17983
21
0.598137
0
LINE
8
BLACK
6
CONTINUOUS
10
2.17983
20
0.598137
11
2.18012
21
0.597441
0
LINE
8
BLACK
6
CONTINUOUS
10
2.18012
20
0.597441
11
2.18012
21
0.355315
0
LINE
8
BLACK
6
CONTINUOUS
10
2.18012
20
0.355315
11
2.17983
21
0.354619
0
LINE
8
BLACK
6
CONTINUOUS
10
2.17983
20
0.354619
11
2.17913
21
0.354331
0
LINE
8
BLACK
6
CONTINUOUS
10
2.17913
20
0.354331
11
1.87894
21
0.354331
0
LINE
8
BLACK
6
CONTINUOUS
10
1.87894
20
0.354331
11
1.87894
21
0.255315
0
LINE
8
BLACK
6
CONTINUOUS
10
1.87894
20
0.255315
11
1.87865
21
0.254619
0
LINE
8
BLACK
6
CONTINUOUS
10
1.87865
20
0.254619
11
1.87795
21
0.254331
0
LINE
8
BLACK
6
CONTINUOUS
10
1.87795
20
0.254331
11
1.5374
21
0.254331
0
LINE
8
BLACK
6
CONTINUOUS
10
1.5374
20
0.254331
11
1.53671
21
0.254619
0
LINE
8
BLACK
6
CONTINUOUS
10
1.53671
20
0.254619
11
1.53642
21
0.255315
0
LINE
8
BLACK
6
CONTINUOUS
10
1.53642
20
0.255315
11
1.53642
21
0.397047
0
LINE
8
BLACK
6
CONTINUOUS
10
1.53642
20
0.397047
11
1.53642
21
0.597441
0
LINE
8
BLACK
6
CONTINUOUS
10
1.53642
20
0.597441
11
1.53671
21
0.598137
0
LINE
8
BLACK
6
CONTINUOUS
10
1.53671
20
0.598137
11
1.5374
21
0.598425
0
LINE
8
BLACK
6
CONTINUOUS
10
1.5374
20
0.598425
11
2.17913
21
0.598425
0
LINE
8
BLACK
6
CONTINUOUS
10
1.53839
20
0.354331
11
1.53839
21
0.256299
0
LINE
8
BLACK
6
CONTINUOUS
10
1.53839
20
0.256299
11
1.87697
21
0.256299
0
LINE
8
BLACK
6
CONTINUOUS
10
1.87697
20
0.256299
11
1.87697
21
0.354331
0
LINE
8
BLACK
6
CONTINUOUS
10
1.87697
20
0.354331
11
1.53839
21
0.354331
0
LINE
8
BLACK
6
CONTINUOUS
10
1.53839
20
0.396063
11
1.53839
21
0.356299
0
LINE
8
BLACK
6
CONTINUOUS
10
1.53839
20
0.356299
11
1.87697
21
0.356299
0
LINE
8
BLACK
6
CONTINUOUS
10
1.87697
20
0.356299
11
1.87697
21
0.396063
0
LINE
8
BLACK
6
CONTINUOUS
10
1.87697
20
0.396063
11
1.53839
21
0.396063
0
LINE
8
BLACK
6
CONTINUOUS
10
1.53839
20
0.596457
11
1.53839
21
0.398031
0
LINE
8
BLACK
6
CONTINUOUS
10
1.53839
20
0.398031
11
1.87795
21
0.398031
0
LINE
8
BLACK
6
CONTINUOUS
10
1.87795
20
0.398031
11
1.87865
21
0.397743
0
LINE
8
BLACK
6
CONTINUOUS
10
1.87865
20
0.397743
11
1.87894
21
0.397047
0
LINE
8
BLACK
6
CONTINUOUS
10
1.87894
20
0.397047
11
1.87894
21
0.356299
0
LINE
8
BLACK
6
CONTINUOUS
10
1.87894
20
0.356299
11
2.17815
21
0.356299
0
LINE
8
BLACK
6
CONTINUOUS
10
2.17815
20
0.356299
11
2.17815
21
0.596457
0
LINE
8
BLACK
6
CONTINUOUS
10
2.17815
20
0.596457
11
1.53839
21
0.596457
0
LINE
8
BLACK
6
CONTINUOUS
10
2.57087
20
0.798228
11
2.57156
21
0.79794
0
LINE
8
BLACK
6
CONTINUOUS
10
2.57156
20
0.79794
11
2.57185
21
0.797244
0
LINE
8
BLACK
6
CONTINUOUS
10
2.57185
20
0.797244
11
2.57185
21
0.255906
0
LINE
8
BLACK
6
CONTINUOUS
10
2.57185
20
0.255906
11
2.57156
21
0.25521
0
LINE
8
BLACK
6
CONTINUOUS
10
2.57156
20
0.25521
11
2.57087
21
0.254921
0
LINE
8
BLACK
6
CONTINUOUS
10
2.57087
20
0.254921
11
2.32874
21
0.254921
0
LINE
8
BLACK
6
CONTINUOUS
10
2.32874
20
0.254921
11
2.32804
21
0.25521
0
LINE
8
BLACK
6
CONTINUOUS
10
2.32804
20
0.25521
11
2.32776
21
0.255906
0
LINE
8
BLACK
6
CONTINUOUS
10
2.32776
20
0.255906
11
2.32776
21
0.797244
0
LINE
8
BLACK
6
CONTINUOUS
10
2.32776
20
0.797244
11
2.32804
21
0.79794
0
LINE
8
BLACK
6
CONTINUOUS
10
2.32804
20
0.79794
11
2.32874
21
0.798228
0
LINE
8
BLACK
6
CONTINUOUS
10
2.32874
20
0.798228
11
2.57087
21
0.798228
0
LINE
8
BLACK
6
CONTINUOUS
10
2.32972
20
0.79626
11
2.32972
21
0.25689
0
LINE
8
BLACK
6
CONTINUOUS
10
2.32972
20
0.25689
11
2.56988
21
0.25689
0
LINE
8
BLACK
6
CONTINUOUS
10
2.56988
20
0.25689
11
2.56988
21
0.79626
0
LINE
8
BLACK
6
CONTINUOUS
10
2.56988
20
0.79626
11
2.32972
21
0.79626
0
LINE
8
BLACK
6
CONTINUOUS
10
1.47913
20
0.598031
11
1.47983
21
0.597743
0
LINE
8
BLACK
6
CONTINUOUS
10
1.47983
20
0.597743
11
1.48012
21
0.597047
0
LINE
8
BLACK
6
CONTINUOUS
10
1.48012
20
0.597047
11
1.48012
21
0.354921
0
LINE
8
BLACK
6
CONTINUOUS
10
1.48012
20
0.354921
11
1.47983
21
0.354225
0
LINE
8
BLACK
6
CONTINUOUS
10
1.47983
20
0.354225
11
1.47913
21
0.353937
0
LINE
8
BLACK
6
CONTINUOUS
10
1.47913
20
0.353937
11
0.737008
21
0.353937
0
LINE
8
BLACK
6
CONTINUOUS
10
0.737008
20
0.353937
11
0.736312
21
0.354225
0
LINE
8
BLACK
6
CONTINUOUS
10
0.736312
20
0.354225
11
0.736024
21
0.354921
0
LINE
8
BLACK
6
CONTINUOUS
10
0.736024
20
0.354921
11
0.736024
21
0.597047
0
LINE
8
BLACK
6
CONTINUOUS
10
0.736024
20
0.597047
11
0.736312
21
0.597743
0
LINE
8
BLACK
6
CONTINUOUS
10
0.736312
20
0.597743
11
0.737008
21
0.598031
0
LINE
8
BLACK
6
CONTINUOUS
10
0.737008
20
0.598031
11
1.47913
21
0.598031
0
LINE
8
BLACK
6
CONTINUOUS
10
0.737992
20
0.596063
11
0.737992
21
0.355906
0
LINE
8
BLACK
6
CONTINUOUS
10
0.737992
20
0.355906
11
1.47815
21
0.355906
0
LINE
8
BLACK
6
CONTINUOUS
10
1.47815
20
0.355906
11
1.47815
21
0.596063
0
LINE
8
BLACK
6
CONTINUOUS
10
1.47815
20
0.596063
11
0.737992
21
0.596063
0
LINE
8
BLACK
6
CONTINUOUS
10
2.99852
20
1.54823
11
2.99922
21
1.54794
0
LINE
8
BLACK
6
CONTINUOUS
10
2.99922
20
1.54794
11
2.99951
21
1.54724
0
LINE
8
BLACK
6
CONTINUOUS
10
2.99951
20
1.54724
11
2.99951
21
0.852756
0
LINE
8
BLACK
6
CONTINUOUS
10
2.99951
20
0.852756
11
2.99922
21
0.85206
0
LINE
8
BLACK
6
CONTINUOUS
10
2.99922
20
0.85206
11
2.99852
21
0.851772
0
LINE
8
BLACK
6
CONTINUOUS
10
2.99852
20
0.851772
11
2.40797
21
0.851772
0
LINE
8
BLACK
6
CONTINUOUS
10
2.40797
20
0.851772
11
2.40728
21
0.85206
0
LINE
8
BLACK
6
CONTINUOUS
10
2.40728
20
0.85206
11
2.40699
21
0.852756
0
LINE
8
BLACK
6
CONTINUOUS
10
2.40699
20
0.852756
11
2.40699
21
0.852756
0
LINE
8
BLACK
6
CONTINUOUS
10
2.40699
20
0.852756
11
2.40699
21
1.54724
0
LINE
8
BLACK
6
CONTINUOUS
10
2.40699
20
1.54724
11
2.40728
21
1.54794
0
LINE
8
BLACK
6
CONTINUOUS
10
2.40728
20
1.54794
11
2.40797
21
1.54823
0
LINE
8
BLACK
6
CONTINUOUS
10
2.40797
20
1.54823
11
2.99852
21
1.54823
0
LINE
8
BLACK
6
CONTINUOUS
10
2.40896
20
1.54626
11
2.40896
21
0.85374
0
LINE
8
BLACK
6
CONTINUOUS
10
2.40896
20
0.85374
11
2.99754
21
0.85374
0
LINE
8
BLACK
6
CONTINUOUS
10
2.99754
20
0.85374
11
2.99754
21
1.54626
0
LINE
8
BLACK
6
CONTINUOUS
10
2.99754
20
1.54626
11
2.40896
21
1.54626
0
LINE
8
BLACK
6
CONTINUOUS
10
0.895276
20
1.53563
11
0.895972
21
1.53534
0
LINE
8
BLACK
6
CONTINUOUS
10
0.895972
20
1.53534
11
0.89626
21
1.53465
0
LINE
8
BLACK
6
CONTINUOUS
10
0.89626
20
1.53465
11
0.89626
21
0.865354
0
LINE
8
BLACK
6
CONTINUOUS
10
0.89626
20
0.865354
11
0.895972
21
0.864658
0
LINE
8
BLACK
6
CONTINUOUS
10
0.895972
20
0.864658
11
0.895276
21
0.86437
0
LINE
8
BLACK
6
CONTINUOUS
10
0.895276
20
0.86437
11
0.210236
21
0.86437
0
LINE
8
BLACK
6
CONTINUOUS
10
0.210236
20
0.86437
11
0.20954
21
0.864658
0
LINE
8
BLACK
6
CONTINUOUS
10
0.20954
20
0.864658
11
0.209252
21
0.865354
0
LINE
8
BLACK
6
CONTINUOUS
10
0.209252
20
0.865354
11
0.209252
21
1.53465
0
LINE
8
BLACK
6
CONTINUOUS
10
0.209252
20
1.53465
11
0.20954
21
1.53534
0
LINE
8
BLACK
6
CONTINUOUS
10
0.20954
20
1.53534
11
0.210236
21
1.53563
0
LINE
8
BLACK
6
CONTINUOUS
10
0.210236
20
1.53563
11
0.895276
21
1.53563
0
LINE
8
BLACK
6
CONTINUOUS
10
0.21122
20
1.53366
11
0.21122
21
0.866339
0
LINE
8
BLACK
6
CONTINUOUS
10
0.21122
20
0.866339
11
0.894291
21
0.866339
0
LINE
8
BLACK
6
CONTINUOUS
10
0.894291
20
0.866339
11
0.894291
21
1.53366
0
LINE
8
BLACK
6
CONTINUOUS
10
0.894291
20
1.53366
11
0.21122
21
1.53366
0
LINE
8
BLACK
6
CONTINUOUS
10
1.03986
20
1.32205
11
1.04056
21
1.32176
0
LINE
8
BLACK
6
CONTINUOUS
10
1.04056
20
1.32176
11
1.04085
21
1.32106
0
LINE
8
BLACK
6
CONTINUOUS
10
1.04085
20
1.32106
11
1.04085
21
1.07894
0
LINE
8
BLACK
6
CONTINUOUS
10
1.04085
20
1.07894
11
1.04056
21
1.07824
0
LINE
8
BLACK
6
CONTINUOUS
10
1.04056
20
1.07824
11
1.03986
21
1.07795
0
LINE
8
BLACK
6
CONTINUOUS
10
1.03986
20
1.07795
11
0.89813
21
1.07795
0
LINE
8
BLACK
6
CONTINUOUS
10
0.89813
20
1.07795
11
0.897434
21
1.07824
0
LINE
8
BLACK
6
CONTINUOUS
10
0.897434
20
1.07824
11
0.897146
21
1.07894
0
LINE
8
BLACK
6
CONTINUOUS
10
0.897146
20
1.07894
11
0.897146
21
1.07894
0
LINE
8
BLACK
6
CONTINUOUS
10
0.897146
20
1.07894
11
0.897146
21
1.32106
0
LINE
8
BLACK
6
CONTINUOUS
10
0.897146
20
1.32106
11
0.897434
21
1.32176
0
LINE
8
BLACK
6
CONTINUOUS
10
0.897434
20
1.32176
11
0.89813
21
1.32205
0
LINE
8
BLACK
6
CONTINUOUS
10
0.89813
20
1.32205
11
1.03986
21
1.32205
0
LINE
8
BLACK
6
CONTINUOUS
10
0.899114
20
1.32008
11
0.899114
21
1.07992
0
LINE
8
BLACK
6
CONTINUOUS
10
0.899114
20
1.07992
11
1.03888
21
1.07992
0
LINE
8
BLACK
6
CONTINUOUS
10
1.03888
20
1.07992
11
1.03888
21
1.32008
0
LINE
8
BLACK
6
CONTINUOUS
10
1.03888
20
1.32008
11
0.899114
21
1.32008
0
LINE
8
BLACK
6
CONTINUOUS
10
2.40157
20
1.32205
11
2.40227
21
1.32176
0
LINE
8
BLACK
6
CONTINUOUS
10
2.40227
20
1.32176
11
2.40256
21
1.32106
0
LINE
8
BLACK
6
CONTINUOUS
10
2.40256
20
1.32106
11
2.40256
21
1.07894
0
LINE
8
BLACK
6
CONTINUOUS
10
2.40256
20
1.07894
11
2.40227
21
1.07824
0
LINE
8
BLACK
6
CONTINUOUS
10
2.40227
20
1.07824
11
2.40157
21
1.07795
0
LINE
8
BLACK
6
CONTINUOUS
10
2.40157
20
1.07795
11
2.25984
21
1.07795
0
LINE
8
BLACK
6
CONTINUOUS
10
2.25984
20
1.07795
11
2.25915
21
1.07824
0
LINE
8
BLACK
6
CONTINUOUS
10
2.25915
20
1.07824
11
2.25886
21
1.07894
0
LINE
8
BLACK
6
CONTINUOUS
10
2.25886
20
1.07894
11
2.25886
21
1.07894
0
LINE
8
BLACK
6
CONTINUOUS
10
2.25886
20
1.07894
11
2.25886
21
1.32106
0
LINE
8
BLACK
6
CONTINUOUS
10
2.25886
20
1.32106
11
2.25915
21
1.32176
0
LINE
8
BLACK
6
CONTINUOUS
10
2.25915
20
1.32176
11
2.25984
21
1.32205
0
LINE
8
BLACK
6
CONTINUOUS
10
2.25984
20
1.32205
11
2.40157
21
1.32205
0
LINE
8
BLACK
6
CONTINUOUS
10
2.26083
20
1.32008
11
2.26083
21
1.07992
0
LINE
8
BLACK
6
CONTINUOUS
10
2.26083
20
1.07992
11
2.40059
21
1.07992
0
LINE
8
BLACK
6
CONTINUOUS
10
2.40059
20
1.07992
11
2.40059
21
1.32008
0
LINE
8
BLACK
6
CONTINUOUS
10
2.40059
20
1.32008
11
2.26083
21
1.32008
  0
ENDSEC
  0
EOF
