  0
SECTION
  2
HEADER
  9
$ANGBASE
  50
0.0
  9
$ANGDIR
  70
1
  9
$MEASUREMENT
  70
0
  0
ENDSEC
  0
SECTION
  2
TABLES
  0
TABLE
  2
LTYPE
  70
4
  0
LTYPE
  5
40F
  2
CONTINUOUS
  70
0
  3
Solid line
  72
65
  73
0
  40
0.0
  0
LTYPE
  5
410
  2
DASHDOT
 70
0
  3
Dash Dot ____ _ ____ _
 72
65
 73
4
 40
2.0
 49
1.25
 49
-0.25
 49
0.25
 49
-0.25
  0
LTYPE
  5
411
  2
DASHED
 70
0
  3
Dashed __ __ __ __ __
 72
65
 73
2
 40
0.75
 49
0.5
 49
-0.25
  0
LTYPE
  5
43B
  2
DOTTED
 70
0
  3
Dotted .  .  .  .
 72
65
 73
2
 40
0.2
 49
0.0
 49
-0.2
  0
ENDTAB
  0
TABLE
  2
STYLE
  70
4
  0
STYLE
  2
KICAD
  70
0
  40
0
  41
1
  42
1
  50
0
  71
0
  3
isocp.shx
  0
STYLE
  2
KICADB
  70
0
  40
0
  41
1
  42
1
  50
0
  71
0
  3
isocp.shx
  0
STYLE
  2
KICADI
  70
0
  40
0
  41
1
  42
1
  50
15
  71
0
  3
isocp.shx
  0
STYLE
  2
KICADBI
  70
0
  40
0
  41
1
  42
1
  50
15
  71
0
  3
isocp.shx
  0
ENDTAB
  0
TABLE
  2
LAYER
  70
1
  0
LAYER
  2
BLACK
  70
0
  62
7
  6
CONTINUOUS
  0
ENDTAB
  0
ENDSEC
  0
SECTION
  2
ENTITIES
0
LINE
8
BLACK
6
CONTINUOUS
10
1.92463
20
0.340983
11
1.92783
21
0.338849
0
LINE
8
BLACK
6
CONTINUOUS
10
1.92783
20
0.338849
11
1.92996
21
0.335656
0
LINE
8
BLACK
6
CONTINUOUS
10
1.92996
20
0.335656
11
1.93071
21
0.33189
0
LINE
8
BLACK
6
CONTINUOUS
10
1.93071
20
0.33189
11
1.93071
21
0.296457
0
LINE
8
BLACK
6
CONTINUOUS
10
1.93071
20
0.296457
11
1.92996
21
0.29269
0
LINE
8
BLACK
6
CONTINUOUS
10
1.92996
20
0.29269
11
1.92783
21
0.289497
0
LINE
8
BLACK
6
CONTINUOUS
10
1.92783
20
0.289497
11
1.92463
21
0.287363
0
LINE
8
BLACK
6
CONTINUOUS
10
1.92463
20
0.287363
11
1.92087
21
0.286614
0
LINE
8
BLACK
6
CONTINUOUS
10
1.92087
20
0.286614
11
1.9002
21
0.286614
0
LINE
8
BLACK
6
CONTINUOUS
10
1.9002
20
0.286614
11
1.89643
21
0.287363
0
LINE
8
BLACK
6
CONTINUOUS
10
1.89643
20
0.287363
11
1.89324
21
0.289497
0
LINE
8
BLACK
6
CONTINUOUS
10
1.89324
20
0.289497
11
1.8911
21
0.29269
0
LINE
8
BLACK
6
CONTINUOUS
10
1.8911
20
0.29269
11
1.89035
21
0.296457
0
LINE
8
BLACK
6
CONTINUOUS
10
1.89035
20
0.296457
11
1.89035
21
0.33189
0
LINE
8
BLACK
6
CONTINUOUS
10
1.89035
20
0.33189
11
1.8911
21
0.335656
0
LINE
8
BLACK
6
CONTINUOUS
10
1.8911
20
0.335656
11
1.89324
21
0.338849
0
LINE
8
BLACK
6
CONTINUOUS
10
1.89324
20
0.338849
11
1.89643
21
0.340983
0
LINE
8
BLACK
6
CONTINUOUS
10
1.89643
20
0.340983
11
1.9002
21
0.341732
0
LINE
8
BLACK
6
CONTINUOUS
10
1.9002
20
0.341732
11
1.92087
21
0.341732
0
LINE
8
BLACK
6
CONTINUOUS
10
1.92087
20
0.341732
11
1.92463
21
0.340983
0
LINE
8
BLACK
6
CONTINUOUS
10
1.99648
20
0.340983
11
1.99968
21
0.338849
0
LINE
8
BLACK
6
CONTINUOUS
10
1.99968
20
0.338849
11
2.00181
21
0.335656
0
LINE
8
BLACK
6
CONTINUOUS
10
2.00181
20
0.335656
11
2.00256
21
0.33189
0
LINE
8
BLACK
6
CONTINUOUS
10
2.00256
20
0.33189
11
2.00256
21
0.296457
0
LINE
8
BLACK
6
CONTINUOUS
10
2.00256
20
0.296457
11
2.00181
21
0.29269
0
LINE
8
BLACK
6
CONTINUOUS
10
2.00181
20
0.29269
11
1.99968
21
0.289497
0
LINE
8
BLACK
6
CONTINUOUS
10
1.99968
20
0.289497
11
1.99648
21
0.287363
0
LINE
8
BLACK
6
CONTINUOUS
10
1.99648
20
0.287363
11
1.99272
21
0.286614
0
LINE
8
BLACK
6
CONTINUOUS
10
1.99272
20
0.286614
11
1.97205
21
0.286614
0
LINE
8
BLACK
6
CONTINUOUS
10
1.97205
20
0.286614
11
1.96828
21
0.287363
0
LINE
8
BLACK
6
CONTINUOUS
10
1.96828
20
0.287363
11
1.96509
21
0.289497
0
LINE
8
BLACK
6
CONTINUOUS
10
1.96509
20
0.289497
11
1.96295
21
0.29269
0
LINE
8
BLACK
6
CONTINUOUS
10
1.96295
20
0.29269
11
1.9622
21
0.296457
0
LINE
8
BLACK
6
CONTINUOUS
10
1.9622
20
0.296457
11
1.9622
21
0.33189
0
LINE
8
BLACK
6
CONTINUOUS
10
1.9622
20
0.33189
11
1.96295
21
0.335656
0
LINE
8
BLACK
6
CONTINUOUS
10
1.96295
20
0.335656
11
1.96509
21
0.338849
0
LINE
8
BLACK
6
CONTINUOUS
10
1.96509
20
0.338849
11
1.96828
21
0.340983
0
LINE
8
BLACK
6
CONTINUOUS
10
1.96828
20
0.340983
11
1.97205
21
0.341732
0
LINE
8
BLACK
6
CONTINUOUS
10
1.97205
20
0.341732
11
1.99272
21
0.341732
0
LINE
8
BLACK
6
CONTINUOUS
10
1.99272
20
0.341732
11
1.99648
21
0.340983
0
LINE
8
BLACK
6
CONTINUOUS
10
2.06243
20
0.340983
11
2.06562
21
0.338849
0
LINE
8
BLACK
6
CONTINUOUS
10
2.06562
20
0.338849
11
2.06775
21
0.335656
0
LINE
8
BLACK
6
CONTINUOUS
10
2.06775
20
0.335656
11
2.0685
21
0.33189
0
LINE
8
BLACK
6
CONTINUOUS
10
2.0685
20
0.33189
11
2.0685
21
0.296457
0
LINE
8
BLACK
6
CONTINUOUS
10
2.0685
20
0.296457
11
2.06775
21
0.29269
0
LINE
8
BLACK
6
CONTINUOUS
10
2.06775
20
0.29269
11
2.06562
21
0.289497
0
LINE
8
BLACK
6
CONTINUOUS
10
2.06562
20
0.289497
11
2.06243
21
0.287363
0
LINE
8
BLACK
6
CONTINUOUS
10
2.06243
20
0.287363
11
2.05866
21
0.286614
0
LINE
8
BLACK
6
CONTINUOUS
10
2.05866
20
0.286614
11
2.03799
21
0.286614
0
LINE
8
BLACK
6
CONTINUOUS
10
2.03799
20
0.286614
11
2.03423
21
0.287363
0
LINE
8
BLACK
6
CONTINUOUS
10
2.03423
20
0.287363
11
2.03103
21
0.289497
0
LINE
8
BLACK
6
CONTINUOUS
10
2.03103
20
0.289497
11
2.0289
21
0.29269
0
LINE
8
BLACK
6
CONTINUOUS
10
2.0289
20
0.29269
11
2.02815
21
0.296457
0
LINE
8
BLACK
6
CONTINUOUS
10
2.02815
20
0.296457
11
2.02815
21
0.33189
0
LINE
8
BLACK
6
CONTINUOUS
10
2.02815
20
0.33189
11
2.0289
21
0.335656
0
LINE
8
BLACK
6
CONTINUOUS
10
2.0289
20
0.335656
11
2.03103
21
0.338849
0
LINE
8
BLACK
6
CONTINUOUS
10
2.03103
20
0.338849
11
2.03423
21
0.340983
0
LINE
8
BLACK
6
CONTINUOUS
10
2.03423
20
0.340983
11
2.03799
21
0.341732
0
LINE
8
BLACK
6
CONTINUOUS
10
2.03799
20
0.341732
11
2.05866
21
0.341732
0
LINE
8
BLACK
6
CONTINUOUS
10
2.05866
20
0.341732
11
2.06243
21
0.340983
0
LINE
8
BLACK
6
CONTINUOUS
10
2.13428
20
0.340983
11
2.13747
21
0.338849
0
LINE
8
BLACK
6
CONTINUOUS
10
2.13747
20
0.338849
11
2.13961
21
0.335656
0
LINE
8
BLACK
6
CONTINUOUS
10
2.13961
20
0.335656
11
2.14035
21
0.33189
0
LINE
8
BLACK
6
CONTINUOUS
10
2.14035
20
0.33189
11
2.14035
21
0.296457
0
LINE
8
BLACK
6
CONTINUOUS
10
2.14035
20
0.296457
11
2.13961
21
0.29269
0
LINE
8
BLACK
6
CONTINUOUS
10
2.13961
20
0.29269
11
2.13747
21
0.289497
0
LINE
8
BLACK
6
CONTINUOUS
10
2.13747
20
0.289497
11
2.13428
21
0.287363
0
LINE
8
BLACK
6
CONTINUOUS
10
2.13428
20
0.287363
11
2.13051
21
0.286614
0
LINE
8
BLACK
6
CONTINUOUS
10
2.13051
20
0.286614
11
2.10984
21
0.286614
0
LINE
8
BLACK
6
CONTINUOUS
10
2.10984
20
0.286614
11
2.10608
21
0.287363
0
LINE
8
BLACK
6
CONTINUOUS
10
2.10608
20
0.287363
11
2.10288
21
0.289497
0
LINE
8
BLACK
6
CONTINUOUS
10
2.10288
20
0.289497
11
2.10075
21
0.29269
0
LINE
8
BLACK
6
CONTINUOUS
10
2.10075
20
0.29269
11
2.1
21
0.296457
0
LINE
8
BLACK
6
CONTINUOUS
10
2.1
20
0.296457
11
2.1
21
0.33189
0
LINE
8
BLACK
6
CONTINUOUS
10
2.1
20
0.33189
11
2.10075
21
0.335656
0
LINE
8
BLACK
6
CONTINUOUS
10
2.10075
20
0.335656
11
2.10288
21
0.338849
0
LINE
8
BLACK
6
CONTINUOUS
10
2.10288
20
0.338849
11
2.10608
21
0.340983
0
LINE
8
BLACK
6
CONTINUOUS
10
2.10608
20
0.340983
11
2.10984
21
0.341732
0
LINE
8
BLACK
6
CONTINUOUS
10
2.10984
20
0.341732
11
2.13051
21
0.341732
0
LINE
8
BLACK
6
CONTINUOUS
10
2.13051
20
0.341732
11
2.13428
21
0.340983
0
LINE
8
BLACK
6
CONTINUOUS
10
2.20072
20
0.340983
11
2.20391
21
0.338849
0
LINE
8
BLACK
6
CONTINUOUS
10
2.20391
20
0.338849
11
2.20604
21
0.335656
0
LINE
8
BLACK
6
CONTINUOUS
10
2.20604
20
0.335656
11
2.20679
21
0.33189
0
LINE
8
BLACK
6
CONTINUOUS
10
2.20679
20
0.33189
11
2.20679
21
0.296457
0
LINE
8
BLACK
6
CONTINUOUS
10
2.20679
20
0.296457
11
2.20604
21
0.29269
0
LINE
8
BLACK
6
CONTINUOUS
10
2.20604
20
0.29269
11
2.20391
21
0.289497
0
LINE
8
BLACK
6
CONTINUOUS
10
2.20391
20
0.289497
11
2.20072
21
0.287363
0
LINE
8
BLACK
6
CONTINUOUS
10
2.20072
20
0.287363
11
2.19695
21
0.286614
0
LINE
8
BLACK
6
CONTINUOUS
10
2.19695
20
0.286614
11
2.17628
21
0.286614
0
LINE
8
BLACK
6
CONTINUOUS
10
2.17628
20
0.286614
11
2.17251
21
0.287363
0
LINE
8
BLACK
6
CONTINUOUS
10
2.17251
20
0.287363
11
2.16932
21
0.289497
0
LINE
8
BLACK
6
CONTINUOUS
10
2.16932
20
0.289497
11
2.16719
21
0.29269
0
LINE
8
BLACK
6
CONTINUOUS
10
2.16719
20
0.29269
11
2.16644
21
0.296457
0
LINE
8
BLACK
6
CONTINUOUS
10
2.16644
20
0.296457
11
2.16644
21
0.33189
0
LINE
8
BLACK
6
CONTINUOUS
10
2.16644
20
0.33189
11
2.16719
21
0.335656
0
LINE
8
BLACK
6
CONTINUOUS
10
2.16719
20
0.335656
11
2.16932
21
0.338849
0
LINE
8
BLACK
6
CONTINUOUS
10
2.16932
20
0.338849
11
2.17251
21
0.340983
0
LINE
8
BLACK
6
CONTINUOUS
10
2.17251
20
0.340983
11
2.17628
21
0.341732
0
LINE
8
BLACK
6
CONTINUOUS
10
2.17628
20
0.341732
11
2.19695
21
0.341732
0
LINE
8
BLACK
6
CONTINUOUS
10
2.19695
20
0.341732
11
2.20072
21
0.340983
0
LINE
8
BLACK
6
CONTINUOUS
10
2.27257
20
0.340983
11
2.27576
21
0.338849
0
LINE
8
BLACK
6
CONTINUOUS
10
2.27576
20
0.338849
11
2.27789
21
0.335656
0
LINE
8
BLACK
6
CONTINUOUS
10
2.27789
20
0.335656
11
2.27864
21
0.33189
0
LINE
8
BLACK
6
CONTINUOUS
10
2.27864
20
0.33189
11
2.27864
21
0.296457
0
LINE
8
BLACK
6
CONTINUOUS
10
2.27864
20
0.296457
11
2.27789
21
0.29269
0
LINE
8
BLACK
6
CONTINUOUS
10
2.27789
20
0.29269
11
2.27576
21
0.289497
0
LINE
8
BLACK
6
CONTINUOUS
10
2.27576
20
0.289497
11
2.27257
21
0.287363
0
LINE
8
BLACK
6
CONTINUOUS
10
2.27257
20
0.287363
11
2.2688
21
0.286614
0
LINE
8
BLACK
6
CONTINUOUS
10
2.2688
20
0.286614
11
2.24813
21
0.286614
0
LINE
8
BLACK
6
CONTINUOUS
10
2.24813
20
0.286614
11
2.24436
21
0.287363
0
LINE
8
BLACK
6
CONTINUOUS
10
2.24436
20
0.287363
11
2.24117
21
0.289497
0
LINE
8
BLACK
6
CONTINUOUS
10
2.24117
20
0.289497
11
2.23904
21
0.29269
0
LINE
8
BLACK
6
CONTINUOUS
10
2.23904
20
0.29269
11
2.23829
21
0.296457
0
LINE
8
BLACK
6
CONTINUOUS
10
2.23829
20
0.296457
11
2.23829
21
0.33189
0
LINE
8
BLACK
6
CONTINUOUS
10
2.23829
20
0.33189
11
2.23904
21
0.335656
0
LINE
8
BLACK
6
CONTINUOUS
10
2.23904
20
0.335656
11
2.24117
21
0.338849
0
LINE
8
BLACK
6
CONTINUOUS
10
2.24117
20
0.338849
11
2.24436
21
0.340983
0
LINE
8
BLACK
6
CONTINUOUS
10
2.24436
20
0.340983
11
2.24813
21
0.341732
0
LINE
8
BLACK
6
CONTINUOUS
10
2.24813
20
0.341732
11
2.2688
21
0.341732
0
LINE
8
BLACK
6
CONTINUOUS
10
2.2688
20
0.341732
11
2.27257
21
0.340983
0
LINE
8
BLACK
6
CONTINUOUS
10
1.99439
20
0.669334
11
1.9963
21
0.668054
0
LINE
8
BLACK
6
CONTINUOUS
10
1.9963
20
0.668054
11
1.99758
21
0.666138
0
LINE
8
BLACK
6
CONTINUOUS
10
1.99758
20
0.666138
11
1.99803
21
0.663878
0
LINE
8
BLACK
6
CONTINUOUS
10
1.99803
20
0.663878
11
1.99803
21
0.623524
0
LINE
8
BLACK
6
CONTINUOUS
10
1.99803
20
0.623524
11
1.99758
21
0.621264
0
LINE
8
BLACK
6
CONTINUOUS
10
1.99758
20
0.621264
11
1.9963
21
0.619348
0
LINE
8
BLACK
6
CONTINUOUS
10
1.9963
20
0.619348
11
1.99439
21
0.618068
0
LINE
8
BLACK
6
CONTINUOUS
10
1.99439
20
0.618068
11
1.99213
21
0.617618
0
LINE
8
BLACK
6
CONTINUOUS
10
1.99213
20
0.617618
11
1.98031
21
0.617618
0
LINE
8
BLACK
6
CONTINUOUS
10
1.98031
20
0.617618
11
1.97805
21
0.618068
0
LINE
8
BLACK
6
CONTINUOUS
10
1.97805
20
0.618068
11
1.97614
21
0.619348
0
LINE
8
BLACK
6
CONTINUOUS
10
1.97614
20
0.619348
11
1.97486
21
0.621264
0
LINE
8
BLACK
6
CONTINUOUS
10
1.97486
20
0.621264
11
1.97441
21
0.623524
0
LINE
8
BLACK
6
CONTINUOUS
10
1.97441
20
0.623524
11
1.97441
21
0.663878
0
LINE
8
BLACK
6
CONTINUOUS
10
1.97441
20
0.663878
11
1.97486
21
0.666138
0
LINE
8
BLACK
6
CONTINUOUS
10
1.97486
20
0.666138
11
1.97614
21
0.668054
0
LINE
8
BLACK
6
CONTINUOUS
10
1.97614
20
0.668054
11
1.97805
21
0.669334
0
LINE
8
BLACK
6
CONTINUOUS
10
1.97805
20
0.669334
11
1.98031
21
0.669783
0
LINE
8
BLACK
6
CONTINUOUS
10
1.98031
20
0.669783
11
1.99213
21
0.669783
0
LINE
8
BLACK
6
CONTINUOUS
10
1.99213
20
0.669783
11
1.99439
21
0.669334
0
LINE
8
BLACK
6
CONTINUOUS
10
2.06919
20
0.669334
11
2.0711
21
0.668054
0
LINE
8
BLACK
6
CONTINUOUS
10
2.0711
20
0.668054
11
2.07239
21
0.666138
0
LINE
8
BLACK
6
CONTINUOUS
10
2.07239
20
0.666138
11
2.07283
21
0.663878
0
LINE
8
BLACK
6
CONTINUOUS
10
2.07283
20
0.663878
11
2.07283
21
0.623524
0
LINE
8
BLACK
6
CONTINUOUS
10
2.07283
20
0.623524
11
2.07239
21
0.621264
0
LINE
8
BLACK
6
CONTINUOUS
10
2.07239
20
0.621264
11
2.0711
21
0.619348
0
LINE
8
BLACK
6
CONTINUOUS
10
2.0711
20
0.619348
11
2.06919
21
0.618068
0
LINE
8
BLACK
6
CONTINUOUS
10
2.06919
20
0.618068
11
2.06693
21
0.617618
0
LINE
8
BLACK
6
CONTINUOUS
10
2.06693
20
0.617618
11
2.05512
21
0.617618
0
LINE
8
BLACK
6
CONTINUOUS
10
2.05512
20
0.617618
11
2.05286
21
0.618068
0
LINE
8
BLACK
6
CONTINUOUS
10
2.05286
20
0.618068
11
2.05094
21
0.619348
0
LINE
8
BLACK
6
CONTINUOUS
10
2.05094
20
0.619348
11
2.04966
21
0.621264
0
LINE
8
BLACK
6
CONTINUOUS
10
2.04966
20
0.621264
11
2.04921
21
0.623524
0
LINE
8
BLACK
6
CONTINUOUS
10
2.04921
20
0.623524
11
2.04921
21
0.663878
0
LINE
8
BLACK
6
CONTINUOUS
10
2.04921
20
0.663878
11
2.04966
21
0.666138
0
LINE
8
BLACK
6
CONTINUOUS
10
2.04966
20
0.666138
11
2.05094
21
0.668054
0
LINE
8
BLACK
6
CONTINUOUS
10
2.05094
20
0.668054
11
2.05286
21
0.669334
0
LINE
8
BLACK
6
CONTINUOUS
10
2.05286
20
0.669334
11
2.05512
21
0.669783
0
LINE
8
BLACK
6
CONTINUOUS
10
2.05512
20
0.669783
11
2.06693
21
0.669783
0
LINE
8
BLACK
6
CONTINUOUS
10
2.06693
20
0.669783
11
2.06919
21
0.669334
0
LINE
8
BLACK
6
CONTINUOUS
10
2.13218
20
0.669334
11
2.1341
21
0.668054
0
LINE
8
BLACK
6
CONTINUOUS
10
2.1341
20
0.668054
11
2.13538
21
0.666138
0
LINE
8
BLACK
6
CONTINUOUS
10
2.13538
20
0.666138
11
2.13583
21
0.663878
0
LINE
8
BLACK
6
CONTINUOUS
10
2.13583
20
0.663878
11
2.13583
21
0.623524
0
LINE
8
BLACK
6
CONTINUOUS
10
2.13583
20
0.623524
11
2.13538
21
0.621264
0
LINE
8
BLACK
6
CONTINUOUS
10
2.13538
20
0.621264
11
2.1341
21
0.619348
0
LINE
8
BLACK
6
CONTINUOUS
10
2.1341
20
0.619348
11
2.13218
21
0.618068
0
LINE
8
BLACK
6
CONTINUOUS
10
2.13218
20
0.618068
11
2.12992
21
0.617618
0
LINE
8
BLACK
6
CONTINUOUS
10
2.12992
20
0.617618
11
2.11811
21
0.617618
0
LINE
8
BLACK
6
CONTINUOUS
10
2.11811
20
0.617618
11
2.11585
21
0.618068
0
LINE
8
BLACK
6
CONTINUOUS
10
2.11585
20
0.618068
11
2.11393
21
0.619348
0
LINE
8
BLACK
6
CONTINUOUS
10
2.11393
20
0.619348
11
2.11265
21
0.621264
0
LINE
8
BLACK
6
CONTINUOUS
10
2.11265
20
0.621264
11
2.1122
21
0.623524
0
LINE
8
BLACK
6
CONTINUOUS
10
2.1122
20
0.623524
11
2.1122
21
0.663878
0
LINE
8
BLACK
6
CONTINUOUS
10
2.1122
20
0.663878
11
2.11265
21
0.666138
0
LINE
8
BLACK
6
CONTINUOUS
10
2.11265
20
0.666138
11
2.11393
21
0.668054
0
LINE
8
BLACK
6
CONTINUOUS
10
2.11393
20
0.668054
11
2.11585
21
0.669334
0
LINE
8
BLACK
6
CONTINUOUS
10
2.11585
20
0.669334
11
2.11811
21
0.669783
0
LINE
8
BLACK
6
CONTINUOUS
10
2.11811
20
0.669783
11
2.12992
21
0.669783
0
LINE
8
BLACK
6
CONTINUOUS
10
2.12992
20
0.669783
11
2.13218
21
0.669334
0
LINE
8
BLACK
6
CONTINUOUS
10
2.20698
20
0.669334
11
2.2089
21
0.668054
0
LINE
8
BLACK
6
CONTINUOUS
10
2.2089
20
0.668054
11
2.21018
21
0.666138
0
LINE
8
BLACK
6
CONTINUOUS
10
2.21018
20
0.666138
11
2.21063
21
0.663878
0
LINE
8
BLACK
6
CONTINUOUS
10
2.21063
20
0.663878
11
2.21063
21
0.623524
0
LINE
8
BLACK
6
CONTINUOUS
10
2.21063
20
0.623524
11
2.21018
21
0.621264
0
LINE
8
BLACK
6
CONTINUOUS
10
2.21018
20
0.621264
11
2.2089
21
0.619348
0
LINE
8
BLACK
6
CONTINUOUS
10
2.2089
20
0.619348
11
2.20698
21
0.618068
0
LINE
8
BLACK
6
CONTINUOUS
10
2.20698
20
0.618068
11
2.20472
21
0.617618
0
LINE
8
BLACK
6
CONTINUOUS
10
2.20472
20
0.617618
11
2.19291
21
0.617618
0
LINE
8
BLACK
6
CONTINUOUS
10
2.19291
20
0.617618
11
2.19065
21
0.618068
0
LINE
8
BLACK
6
CONTINUOUS
10
2.19065
20
0.618068
11
2.18874
21
0.619348
0
LINE
8
BLACK
6
CONTINUOUS
10
2.18874
20
0.619348
11
2.18746
21
0.621264
0
LINE
8
BLACK
6
CONTINUOUS
10
2.18746
20
0.621264
11
2.18701
21
0.623524
0
LINE
8
BLACK
6
CONTINUOUS
10
2.18701
20
0.623524
11
2.18701
21
0.663878
0
LINE
8
BLACK
6
CONTINUOUS
10
2.18701
20
0.663878
11
2.18746
21
0.666138
0
LINE
8
BLACK
6
CONTINUOUS
10
2.18746
20
0.666138
11
2.18874
21
0.668054
0
LINE
8
BLACK
6
CONTINUOUS
10
2.18874
20
0.668054
11
2.19065
21
0.669334
0
LINE
8
BLACK
6
CONTINUOUS
10
2.19065
20
0.669334
11
2.19291
21
0.669783
0
LINE
8
BLACK
6
CONTINUOUS
10
2.19291
20
0.669783
11
2.20472
21
0.669783
0
LINE
8
BLACK
6
CONTINUOUS
10
2.20472
20
0.669783
11
2.20698
21
0.669334
0
LINE
8
BLACK
6
CONTINUOUS
10
1.67699
20
0.697085
11
1.68019
21
0.694952
0
LINE
8
BLACK
6
CONTINUOUS
10
1.68019
20
0.694952
11
1.68232
21
0.691759
0
LINE
8
BLACK
6
CONTINUOUS
10
1.68232
20
0.691759
11
1.68307
21
0.687992
0
LINE
8
BLACK
6
CONTINUOUS
10
1.68307
20
0.687992
11
1.68307
21
0.650591
0
LINE
8
BLACK
6
CONTINUOUS
10
1.68307
20
0.650591
11
1.68232
21
0.646824
0
LINE
8
BLACK
6
CONTINUOUS
10
1.68232
20
0.646824
11
1.68019
21
0.643631
0
LINE
8
BLACK
6
CONTINUOUS
10
1.68019
20
0.643631
11
1.67699
21
0.641497
0
LINE
8
BLACK
6
CONTINUOUS
10
1.67699
20
0.641497
11
1.67323
21
0.640748
0
LINE
8
BLACK
6
CONTINUOUS
10
1.67323
20
0.640748
11
1.65354
21
0.640748
0
LINE
8
BLACK
6
CONTINUOUS
10
1.65354
20
0.640748
11
1.64978
21
0.641497
0
LINE
8
BLACK
6
CONTINUOUS
10
1.64978
20
0.641497
11
1.64658
21
0.643631
0
LINE
8
BLACK
6
CONTINUOUS
10
1.64658
20
0.643631
11
1.64445
21
0.646824
0
LINE
8
BLACK
6
CONTINUOUS
10
1.64445
20
0.646824
11
1.6437
21
0.650591
0
LINE
8
BLACK
6
CONTINUOUS
10
1.6437
20
0.650591
11
1.6437
21
0.687992
0
LINE
8
BLACK
6
CONTINUOUS
10
1.6437
20
0.687992
11
1.64445
21
0.691759
0
LINE
8
BLACK
6
CONTINUOUS
10
1.64445
20
0.691759
11
1.64658
21
0.694952
0
LINE
8
BLACK
6
CONTINUOUS
10
1.64658
20
0.694952
11
1.64978
21
0.697085
0
LINE
8
BLACK
6
CONTINUOUS
10
1.64978
20
0.697085
11
1.65354
21
0.697835
0
LINE
8
BLACK
6
CONTINUOUS
10
1.65354
20
0.697835
11
1.67323
21
0.697835
0
LINE
8
BLACK
6
CONTINUOUS
10
1.67323
20
0.697835
11
1.67699
21
0.697085
0
LINE
8
BLACK
6
CONTINUOUS
10
1.7518
20
0.697085
11
1.75499
21
0.694952
0
LINE
8
BLACK
6
CONTINUOUS
10
1.75499
20
0.694952
11
1.75712
21
0.691759
0
LINE
8
BLACK
6
CONTINUOUS
10
1.75712
20
0.691759
11
1.75787
21
0.687992
0
LINE
8
BLACK
6
CONTINUOUS
10
1.75787
20
0.687992
11
1.75787
21
0.650591
0
LINE
8
BLACK
6
CONTINUOUS
10
1.75787
20
0.650591
11
1.75712
21
0.646824
0
LINE
8
BLACK
6
CONTINUOUS
10
1.75712
20
0.646824
11
1.75499
21
0.643631
0
LINE
8
BLACK
6
CONTINUOUS
10
1.75499
20
0.643631
11
1.7518
21
0.641497
0
LINE
8
BLACK
6
CONTINUOUS
10
1.7518
20
0.641497
11
1.74803
21
0.640748
0
LINE
8
BLACK
6
CONTINUOUS
10
1.74803
20
0.640748
11
1.72835
21
0.640748
0
LINE
8
BLACK
6
CONTINUOUS
10
1.72835
20
0.640748
11
1.72458
21
0.641497
0
LINE
8
BLACK
6
CONTINUOUS
10
1.72458
20
0.641497
11
1.72139
21
0.643631
0
LINE
8
BLACK
6
CONTINUOUS
10
1.72139
20
0.643631
11
1.71925
21
0.646824
0
LINE
8
BLACK
6
CONTINUOUS
10
1.71925
20
0.646824
11
1.7185
21
0.650591
0
LINE
8
BLACK
6
CONTINUOUS
10
1.7185
20
0.650591
11
1.7185
21
0.687992
0
LINE
8
BLACK
6
CONTINUOUS
10
1.7185
20
0.687992
11
1.71925
21
0.691759
0
LINE
8
BLACK
6
CONTINUOUS
10
1.71925
20
0.691759
11
1.72139
21
0.694952
0
LINE
8
BLACK
6
CONTINUOUS
10
1.72139
20
0.694952
11
1.72458
21
0.697085
0
LINE
8
BLACK
6
CONTINUOUS
10
1.72458
20
0.697085
11
1.72835
21
0.697835
0
LINE
8
BLACK
6
CONTINUOUS
10
1.72835
20
0.697835
11
1.74803
21
0.697835
0
LINE
8
BLACK
6
CONTINUOUS
10
1.74803
20
0.697835
11
1.7518
21
0.697085
0
LINE
8
BLACK
6
CONTINUOUS
10
2.03179
20
0.758901
11
2.0337
21
0.757621
0
LINE
8
BLACK
6
CONTINUOUS
10
2.0337
20
0.757621
11
2.03498
21
0.755705
0
LINE
8
BLACK
6
CONTINUOUS
10
2.03498
20
0.755705
11
2.03543
21
0.753445
0
LINE
8
BLACK
6
CONTINUOUS
10
2.03543
20
0.753445
11
2.03543
21
0.713091
0
LINE
8
BLACK
6
CONTINUOUS
10
2.03543
20
0.713091
11
2.03498
21
0.710831
0
LINE
8
BLACK
6
CONTINUOUS
10
2.03498
20
0.710831
11
2.0337
21
0.708915
0
LINE
8
BLACK
6
CONTINUOUS
10
2.0337
20
0.708915
11
2.03179
21
0.707635
0
LINE
8
BLACK
6
CONTINUOUS
10
2.03179
20
0.707635
11
2.02953
21
0.707185
0
LINE
8
BLACK
6
CONTINUOUS
10
2.02953
20
0.707185
11
2.01772
21
0.707185
0
LINE
8
BLACK
6
CONTINUOUS
10
2.01772
20
0.707185
11
2.01546
21
0.707635
0
LINE
8
BLACK
6
CONTINUOUS
10
2.01546
20
0.707635
11
2.01354
21
0.708915
0
LINE
8
BLACK
6
CONTINUOUS
10
2.01354
20
0.708915
11
2.01226
21
0.710831
0
LINE
8
BLACK
6
CONTINUOUS
10
2.01226
20
0.710831
11
2.01181
21
0.713091
0
LINE
8
BLACK
6
CONTINUOUS
10
2.01181
20
0.713091
11
2.01181
21
0.753445
0
LINE
8
BLACK
6
CONTINUOUS
10
2.01181
20
0.753445
11
2.01226
21
0.755705
0
LINE
8
BLACK
6
CONTINUOUS
10
2.01226
20
0.755705
11
2.01354
21
0.757621
0
LINE
8
BLACK
6
CONTINUOUS
10
2.01354
20
0.757621
11
2.01546
21
0.758901
0
LINE
8
BLACK
6
CONTINUOUS
10
2.01546
20
0.758901
11
2.01772
21
0.75935
0
LINE
8
BLACK
6
CONTINUOUS
10
2.01772
20
0.75935
11
2.02953
21
0.75935
0
LINE
8
BLACK
6
CONTINUOUS
10
2.02953
20
0.75935
11
2.03179
21
0.758901
0
LINE
8
BLACK
6
CONTINUOUS
10
2.16958
20
0.758901
11
2.1715
21
0.757621
0
LINE
8
BLACK
6
CONTINUOUS
10
2.1715
20
0.757621
11
2.17278
21
0.755705
0
LINE
8
BLACK
6
CONTINUOUS
10
2.17278
20
0.755705
11
2.17323
21
0.753445
0
LINE
8
BLACK
6
CONTINUOUS
10
2.17323
20
0.753445
11
2.17323
21
0.713091
0
LINE
8
BLACK
6
CONTINUOUS
10
2.17323
20
0.713091
11
2.17278
21
0.710831
0
LINE
8
BLACK
6
CONTINUOUS
10
2.17278
20
0.710831
11
2.1715
21
0.708915
0
LINE
8
BLACK
6
CONTINUOUS
10
2.1715
20
0.708915
11
2.16958
21
0.707635
0
LINE
8
BLACK
6
CONTINUOUS
10
2.16958
20
0.707635
11
2.16732
21
0.707185
0
LINE
8
BLACK
6
CONTINUOUS
10
2.16732
20
0.707185
11
2.15551
21
0.707185
0
LINE
8
BLACK
6
CONTINUOUS
10
2.15551
20
0.707185
11
2.15325
21
0.707635
0
LINE
8
BLACK
6
CONTINUOUS
10
2.15325
20
0.707635
11
2.15134
21
0.708915
0
LINE
8
BLACK
6
CONTINUOUS
10
2.15134
20
0.708915
11
2.15006
21
0.710831
0
LINE
8
BLACK
6
CONTINUOUS
10
2.15006
20
0.710831
11
2.14961
21
0.713091
0
LINE
8
BLACK
6
CONTINUOUS
10
2.14961
20
0.713091
11
2.14961
21
0.753445
0
LINE
8
BLACK
6
CONTINUOUS
10
2.14961
20
0.753445
11
2.15006
21
0.755705
0
LINE
8
BLACK
6
CONTINUOUS
10
2.15006
20
0.755705
11
2.15134
21
0.757621
0
LINE
8
BLACK
6
CONTINUOUS
10
2.15134
20
0.757621
11
2.15325
21
0.758901
0
LINE
8
BLACK
6
CONTINUOUS
10
2.15325
20
0.758901
11
2.15551
21
0.75935
0
LINE
8
BLACK
6
CONTINUOUS
10
2.15551
20
0.75935
11
2.16732
21
0.75935
0
LINE
8
BLACK
6
CONTINUOUS
10
2.16732
20
0.75935
11
2.16958
21
0.758901
0
LINE
8
BLACK
6
CONTINUOUS
10
1.5707
20
0.792558
11
1.57389
21
0.790424
0
LINE
8
BLACK
6
CONTINUOUS
10
1.57389
20
0.790424
11
1.57602
21
0.787231
0
LINE
8
BLACK
6
CONTINUOUS
10
1.57602
20
0.787231
11
1.57677
21
0.783465
0
LINE
8
BLACK
6
CONTINUOUS
10
1.57677
20
0.783465
11
1.57677
21
0.748031
0
LINE
8
BLACK
6
CONTINUOUS
10
1.57677
20
0.748031
11
1.57602
21
0.744265
0
LINE
8
BLACK
6
CONTINUOUS
10
1.57602
20
0.744265
11
1.57389
21
0.741072
0
LINE
8
BLACK
6
CONTINUOUS
10
1.57389
20
0.741072
11
1.5707
21
0.738938
0
LINE
8
BLACK
6
CONTINUOUS
10
1.5707
20
0.738938
11
1.56693
21
0.738189
0
LINE
8
BLACK
6
CONTINUOUS
10
1.56693
20
0.738189
11
1.54626
21
0.738189
0
LINE
8
BLACK
6
CONTINUOUS
10
1.54626
20
0.738189
11
1.54249
21
0.738938
0
LINE
8
BLACK
6
CONTINUOUS
10
1.54249
20
0.738938
11
1.5393
21
0.741072
0
LINE
8
BLACK
6
CONTINUOUS
10
1.5393
20
0.741072
11
1.53717
21
0.744265
0
LINE
8
BLACK
6
CONTINUOUS
10
1.53717
20
0.744265
11
1.53642
21
0.748031
0
LINE
8
BLACK
6
CONTINUOUS
10
1.53642
20
0.748031
11
1.53642
21
0.783465
0
LINE
8
BLACK
6
CONTINUOUS
10
1.53642
20
0.783465
11
1.53717
21
0.787231
0
LINE
8
BLACK
6
CONTINUOUS
10
1.53717
20
0.787231
11
1.5393
21
0.790424
0
LINE
8
BLACK
6
CONTINUOUS
10
1.5393
20
0.790424
11
1.54249
21
0.792558
0
LINE
8
BLACK
6
CONTINUOUS
10
1.54249
20
0.792558
11
1.54626
21
0.793307
0
LINE
8
BLACK
6
CONTINUOUS
10
1.54626
20
0.793307
11
1.56693
21
0.793307
0
LINE
8
BLACK
6
CONTINUOUS
10
1.56693
20
0.793307
11
1.5707
21
0.792558
0
LINE
8
BLACK
6
CONTINUOUS
10
1.64255
20
0.792558
11
1.64574
21
0.790424
0
LINE
8
BLACK
6
CONTINUOUS
10
1.64574
20
0.790424
11
1.64787
21
0.787231
0
LINE
8
BLACK
6
CONTINUOUS
10
1.64787
20
0.787231
11
1.64862
21
0.783465
0
LINE
8
BLACK
6
CONTINUOUS
10
1.64862
20
0.783465
11
1.64862
21
0.748031
0
LINE
8
BLACK
6
CONTINUOUS
10
1.64862
20
0.748031
11
1.64787
21
0.744265
0
LINE
8
BLACK
6
CONTINUOUS
10
1.64787
20
0.744265
11
1.64574
21
0.741072
0
LINE
8
BLACK
6
CONTINUOUS
10
1.64574
20
0.741072
11
1.64255
21
0.738938
0
LINE
8
BLACK
6
CONTINUOUS
10
1.64255
20
0.738938
11
1.63878
21
0.738189
0
LINE
8
BLACK
6
CONTINUOUS
10
1.63878
20
0.738189
11
1.61811
21
0.738189
0
LINE
8
BLACK
6
CONTINUOUS
10
1.61811
20
0.738189
11
1.61434
21
0.738938
0
LINE
8
BLACK
6
CONTINUOUS
10
1.61434
20
0.738938
11
1.61115
21
0.741072
0
LINE
8
BLACK
6
CONTINUOUS
10
1.61115
20
0.741072
11
1.60902
21
0.744265
0
LINE
8
BLACK
6
CONTINUOUS
10
1.60902
20
0.744265
11
1.60827
21
0.748031
0
LINE
8
BLACK
6
CONTINUOUS
10
1.60827
20
0.748031
11
1.60827
21
0.783465
0
LINE
8
BLACK
6
CONTINUOUS
10
1.60827
20
0.783465
11
1.60902
21
0.787231
0
LINE
8
BLACK
6
CONTINUOUS
10
1.60902
20
0.787231
11
1.61115
21
0.790424
0
LINE
8
BLACK
6
CONTINUOUS
10
1.61115
20
0.790424
11
1.61434
21
0.792558
0
LINE
8
BLACK
6
CONTINUOUS
10
1.61434
20
0.792558
11
1.61811
21
0.793307
0
LINE
8
BLACK
6
CONTINUOUS
10
1.61811
20
0.793307
11
1.63878
21
0.793307
0
LINE
8
BLACK
6
CONTINUOUS
10
1.63878
20
0.793307
11
1.64255
21
0.792558
0
LINE
8
BLACK
6
CONTINUOUS
10
0.695696
20
0.808798
11
0.698889
21
0.806664
0
LINE
8
BLACK
6
CONTINUOUS
10
0.698889
20
0.806664
11
0.701022
21
0.803471
0
LINE
8
BLACK
6
CONTINUOUS
10
0.701022
20
0.803471
11
0.701772
21
0.799705
0
LINE
8
BLACK
6
CONTINUOUS
10
0.701772
20
0.799705
11
0.701772
21
0.78002
0
LINE
8
BLACK
6
CONTINUOUS
10
0.701772
20
0.78002
11
0.701022
21
0.776253
0
LINE
8
BLACK
6
CONTINUOUS
10
0.701022
20
0.776253
11
0.698889
21
0.77306
0
LINE
8
BLACK
6
CONTINUOUS
10
0.698889
20
0.77306
11
0.695696
21
0.770926
0
LINE
8
BLACK
6
CONTINUOUS
10
0.695696
20
0.770926
11
0.691929
21
0.770177
0
LINE
8
BLACK
6
CONTINUOUS
10
0.691929
20
0.770177
11
0.654528
21
0.770177
0
LINE
8
BLACK
6
CONTINUOUS
10
0.654528
20
0.770177
11
0.650761
21
0.770926
0
LINE
8
BLACK
6
CONTINUOUS
10
0.650761
20
0.770926
11
0.647568
21
0.77306
0
LINE
8
BLACK
6
CONTINUOUS
10
0.647568
20
0.77306
11
0.645434
21
0.776253
0
LINE
8
BLACK
6
CONTINUOUS
10
0.645434
20
0.776253
11
0.644685
21
0.78002
0
LINE
8
BLACK
6
CONTINUOUS
10
0.644685
20
0.78002
11
0.644685
21
0.799705
0
LINE
8
BLACK
6
CONTINUOUS
10
0.644685
20
0.799705
11
0.645434
21
0.803471
0
LINE
8
BLACK
6
CONTINUOUS
10
0.645434
20
0.803471
11
0.647568
21
0.806664
0
LINE
8
BLACK
6
CONTINUOUS
10
0.647568
20
0.806664
11
0.650761
21
0.808798
0
LINE
8
BLACK
6
CONTINUOUS
10
0.650761
20
0.808798
11
0.654528
21
0.809547
0
LINE
8
BLACK
6
CONTINUOUS
10
0.654528
20
0.809547
11
0.691929
21
0.809547
0
LINE
8
BLACK
6
CONTINUOUS
10
0.691929
20
0.809547
11
0.695696
21
0.808798
0
LINE
8
BLACK
6
CONTINUOUS
10
0.778373
20
0.808798
11
0.781566
21
0.806664
0
LINE
8
BLACK
6
CONTINUOUS
10
0.781566
20
0.806664
11
0.7837
21
0.803471
0
LINE
8
BLACK
6
CONTINUOUS
10
0.7837
20
0.803471
11
0.784449
21
0.799705
0
LINE
8
BLACK
6
CONTINUOUS
10
0.784449
20
0.799705
11
0.784449
21
0.78002
0
LINE
8
BLACK
6
CONTINUOUS
10
0.784449
20
0.78002
11
0.7837
21
0.776253
0
LINE
8
BLACK
6
CONTINUOUS
10
0.7837
20
0.776253
11
0.781566
21
0.77306
0
LINE
8
BLACK
6
CONTINUOUS
10
0.781566
20
0.77306
11
0.778373
21
0.770926
0
LINE
8
BLACK
6
CONTINUOUS
10
0.778373
20
0.770926
11
0.774606
21
0.770177
0
LINE
8
BLACK
6
CONTINUOUS
10
0.774606
20
0.770177
11
0.737205
21
0.770177
0
LINE
8
BLACK
6
CONTINUOUS
10
0.737205
20
0.770177
11
0.733438
21
0.770926
0
LINE
8
BLACK
6
CONTINUOUS
10
0.733438
20
0.770926
11
0.730245
21
0.77306
0
LINE
8
BLACK
6
CONTINUOUS
10
0.730245
20
0.77306
11
0.728111
21
0.776253
0
LINE
8
BLACK
6
CONTINUOUS
10
0.728111
20
0.776253
11
0.727362
21
0.78002
0
LINE
8
BLACK
6
CONTINUOUS
10
0.727362
20
0.78002
11
0.727362
21
0.799705
0
LINE
8
BLACK
6
CONTINUOUS
10
0.727362
20
0.799705
11
0.728111
21
0.803471
0
LINE
8
BLACK
6
CONTINUOUS
10
0.728111
20
0.803471
11
0.730245
21
0.806664
0
LINE
8
BLACK
6
CONTINUOUS
10
0.730245
20
0.806664
11
0.733438
21
0.808798
0
LINE
8
BLACK
6
CONTINUOUS
10
0.733438
20
0.808798
11
0.737205
21
0.809547
0
LINE
8
BLACK
6
CONTINUOUS
10
0.737205
20
0.809547
11
0.774606
21
0.809547
0
LINE
8
BLACK
6
CONTINUOUS
10
0.774606
20
0.809547
11
0.778373
21
0.808798
0
LINE
8
BLACK
6
CONTINUOUS
10
0.860066
20
0.810767
11
0.863259
21
0.808633
0
LINE
8
BLACK
6
CONTINUOUS
10
0.863259
20
0.808633
11
0.865393
21
0.80544
0
LINE
8
BLACK
6
CONTINUOUS
10
0.865393
20
0.80544
11
0.866142
21
0.801673
0
LINE
8
BLACK
6
CONTINUOUS
10
0.866142
20
0.801673
11
0.866142
21
0.781004
0
LINE
8
BLACK
6
CONTINUOUS
10
0.866142
20
0.781004
11
0.865393
21
0.777237
0
LINE
8
BLACK
6
CONTINUOUS
10
0.865393
20
0.777237
11
0.863259
21
0.774044
0
LINE
8
BLACK
6
CONTINUOUS
10
0.863259
20
0.774044
11
0.860066
21
0.771911
0
LINE
8
BLACK
6
CONTINUOUS
10
0.860066
20
0.771911
11
0.856299
21
0.771161
0
LINE
8
BLACK
6
CONTINUOUS
10
0.856299
20
0.771161
11
0.820866
21
0.771161
0
LINE
8
BLACK
6
CONTINUOUS
10
0.820866
20
0.771161
11
0.8171
21
0.771911
0
LINE
8
BLACK
6
CONTINUOUS
10
0.8171
20
0.771911
11
0.813906
21
0.774044
0
LINE
8
BLACK
6
CONTINUOUS
10
0.813906
20
0.774044
11
0.811773
21
0.777237
0
LINE
8
BLACK
6
CONTINUOUS
10
0.811773
20
0.777237
11
0.811024
21
0.781004
0
LINE
8
BLACK
6
CONTINUOUS
10
0.811024
20
0.781004
11
0.811024
21
0.801673
0
LINE
8
BLACK
6
CONTINUOUS
10
0.811024
20
0.801673
11
0.811773
21
0.80544
0
LINE
8
BLACK
6
CONTINUOUS
10
0.811773
20
0.80544
11
0.813906
21
0.808633
0
LINE
8
BLACK
6
CONTINUOUS
10
0.813906
20
0.808633
11
0.8171
21
0.810767
0
LINE
8
BLACK
6
CONTINUOUS
10
0.8171
20
0.810767
11
0.820866
21
0.811516
0
LINE
8
BLACK
6
CONTINUOUS
10
0.820866
20
0.811516
11
0.856299
21
0.811516
0
LINE
8
BLACK
6
CONTINUOUS
10
0.856299
20
0.811516
11
0.860066
21
0.810767
0
LINE
8
BLACK
6
CONTINUOUS
10
2.06676
20
0.826515
11
2.06995
21
0.824381
0
LINE
8
BLACK
6
CONTINUOUS
10
2.06995
20
0.824381
11
2.07209
21
0.821188
0
LINE
8
BLACK
6
CONTINUOUS
10
2.07209
20
0.821188
11
2.07283
21
0.817421
0
LINE
8
BLACK
6
CONTINUOUS
10
2.07283
20
0.817421
11
2.07283
21
0.796752
0
LINE
8
BLACK
6
CONTINUOUS
10
2.07283
20
0.796752
11
2.07209
21
0.792985
0
LINE
8
BLACK
6
CONTINUOUS
10
2.07209
20
0.792985
11
2.06995
21
0.789792
0
LINE
8
BLACK
6
CONTINUOUS
10
2.06995
20
0.789792
11
2.06676
21
0.787659
0
LINE
8
BLACK
6
CONTINUOUS
10
2.06676
20
0.787659
11
2.06299
21
0.786909
0
LINE
8
BLACK
6
CONTINUOUS
10
2.06299
20
0.786909
11
2.02756
21
0.786909
0
LINE
8
BLACK
6
CONTINUOUS
10
2.02756
20
0.786909
11
2.02379
21
0.787659
0
LINE
8
BLACK
6
CONTINUOUS
10
2.02379
20
0.787659
11
2.0206
21
0.789792
0
LINE
8
BLACK
6
CONTINUOUS
10
2.0206
20
0.789792
11
2.01847
21
0.792985
0
LINE
8
BLACK
6
CONTINUOUS
10
2.01847
20
0.792985
11
2.01772
21
0.796752
0
LINE
8
BLACK
6
CONTINUOUS
10
2.01772
20
0.796752
11
2.01772
21
0.817421
0
LINE
8
BLACK
6
CONTINUOUS
10
2.01772
20
0.817421
11
2.01847
21
0.821188
0
LINE
8
BLACK
6
CONTINUOUS
10
2.01847
20
0.821188
11
2.0206
21
0.824381
0
LINE
8
BLACK
6
CONTINUOUS
10
2.0206
20
0.824381
11
2.02379
21
0.826515
0
LINE
8
BLACK
6
CONTINUOUS
10
2.02379
20
0.826515
11
2.02756
21
0.827264
0
LINE
8
BLACK
6
CONTINUOUS
10
2.02756
20
0.827264
11
2.06299
21
0.827264
0
LINE
8
BLACK
6
CONTINUOUS
10
2.06299
20
0.827264
11
2.06676
21
0.826515
0
LINE
8
BLACK
6
CONTINUOUS
10
2.15731
20
0.827007
11
2.1605
21
0.824873
0
LINE
8
BLACK
6
CONTINUOUS
10
2.1605
20
0.824873
11
2.16264
21
0.82168
0
LINE
8
BLACK
6
CONTINUOUS
10
2.16264
20
0.82168
11
2.16339
21
0.817913
0
LINE
8
BLACK
6
CONTINUOUS
10
2.16339
20
0.817913
11
2.16339
21
0.797244
0
LINE
8
BLACK
6
CONTINUOUS
10
2.16339
20
0.797244
11
2.16264
21
0.793478
0
LINE
8
BLACK
6
CONTINUOUS
10
2.16264
20
0.793478
11
2.1605
21
0.790284
0
LINE
8
BLACK
6
CONTINUOUS
10
2.1605
20
0.790284
11
2.15731
21
0.788151
0
LINE
8
BLACK
6
CONTINUOUS
10
2.15731
20
0.788151
11
2.15354
21
0.787402
0
LINE
8
BLACK
6
CONTINUOUS
10
2.15354
20
0.787402
11
2.11811
21
0.787402
0
LINE
8
BLACK
6
CONTINUOUS
10
2.11811
20
0.787402
11
2.11434
21
0.788151
0
LINE
8
BLACK
6
CONTINUOUS
10
2.11434
20
0.788151
11
2.11115
21
0.790284
0
LINE
8
BLACK
6
CONTINUOUS
10
2.11115
20
0.790284
11
2.10902
21
0.793478
0
LINE
8
BLACK
6
CONTINUOUS
10
2.10902
20
0.793478
11
2.10827
21
0.797244
0
LINE
8
BLACK
6
CONTINUOUS
10
2.10827
20
0.797244
11
2.10827
21
0.817913
0
LINE
8
BLACK
6
CONTINUOUS
10
2.10827
20
0.817913
11
2.10902
21
0.82168
0
LINE
8
BLACK
6
CONTINUOUS
10
2.10902
20
0.82168
11
2.11115
21
0.824873
0
LINE
8
BLACK
6
CONTINUOUS
10
2.11115
20
0.824873
11
2.11434
21
0.827007
0
LINE
8
BLACK
6
CONTINUOUS
10
2.11434
20
0.827007
11
2.11811
21
0.827756
0
LINE
8
BLACK
6
CONTINUOUS
10
2.11811
20
0.827756
11
2.15354
21
0.827756
0
LINE
8
BLACK
6
CONTINUOUS
10
2.15354
20
0.827756
11
2.15731
21
0.827007
0
LINE
8
BLACK
6
CONTINUOUS
10
1.78133
20
0.846692
11
1.78452
21
0.844558
0
LINE
8
BLACK
6
CONTINUOUS
10
1.78452
20
0.844558
11
1.78665
21
0.841365
0
LINE
8
BLACK
6
CONTINUOUS
10
1.78665
20
0.841365
11
1.7874
21
0.837598
0
LINE
8
BLACK
6
CONTINUOUS
10
1.7874
20
0.837598
11
1.7874
21
0.808071
0
LINE
8
BLACK
6
CONTINUOUS
10
1.7874
20
0.808071
11
1.78665
21
0.804304
0
LINE
8
BLACK
6
CONTINUOUS
10
1.78665
20
0.804304
11
1.78452
21
0.801111
0
LINE
8
BLACK
6
CONTINUOUS
10
1.78452
20
0.801111
11
1.78133
21
0.798978
0
LINE
8
BLACK
6
CONTINUOUS
10
1.78133
20
0.798978
11
1.77756
21
0.798228
0
LINE
8
BLACK
6
CONTINUOUS
10
1.77756
20
0.798228
11
1.71063
21
0.798228
0
LINE
8
BLACK
6
CONTINUOUS
10
1.71063
20
0.798228
11
1.70686
21
0.798978
0
LINE
8
BLACK
6
CONTINUOUS
10
1.70686
20
0.798978
11
1.70367
21
0.801111
0
LINE
8
BLACK
6
CONTINUOUS
10
1.70367
20
0.801111
11
1.70154
21
0.804304
0
LINE
8
BLACK
6
CONTINUOUS
10
1.70154
20
0.804304
11
1.70079
21
0.808071
0
LINE
8
BLACK
6
CONTINUOUS
10
1.70079
20
0.808071
11
1.70079
21
0.837598
0
LINE
8
BLACK
6
CONTINUOUS
10
1.70079
20
0.837598
11
1.70154
21
0.841365
0
LINE
8
BLACK
6
CONTINUOUS
10
1.70154
20
0.841365
11
1.70367
21
0.844558
0
LINE
8
BLACK
6
CONTINUOUS
10
1.70367
20
0.844558
11
1.70686
21
0.846692
0
LINE
8
BLACK
6
CONTINUOUS
10
1.70686
20
0.846692
11
1.71063
21
0.847441
0
LINE
8
BLACK
6
CONTINUOUS
10
1.71063
20
0.847441
11
1.77756
21
0.847441
0
LINE
8
BLACK
6
CONTINUOUS
10
1.77756
20
0.847441
11
1.78133
21
0.846692
0
LINE
8
BLACK
6
CONTINUOUS
10
1.58051
20
0.849944
11
1.58242
21
0.848664
0
LINE
8
BLACK
6
CONTINUOUS
10
1.58242
20
0.848664
11
1.5837
21
0.846748
0
LINE
8
BLACK
6
CONTINUOUS
10
1.5837
20
0.846748
11
1.58415
21
0.844488
0
LINE
8
BLACK
6
CONTINUOUS
10
1.58415
20
0.844488
11
1.58415
21
0.832677
0
LINE
8
BLACK
6
CONTINUOUS
10
1.58415
20
0.832677
11
1.5837
21
0.830417
0
LINE
8
BLACK
6
CONTINUOUS
10
1.5837
20
0.830417
11
1.58242
21
0.828501
0
LINE
8
BLACK
6
CONTINUOUS
10
1.58242
20
0.828501
11
1.58051
21
0.827221
0
LINE
8
BLACK
6
CONTINUOUS
10
1.58051
20
0.827221
11
1.57825
21
0.826772
0
LINE
8
BLACK
6
CONTINUOUS
10
1.57825
20
0.826772
11
1.53789
21
0.826772
0
LINE
8
BLACK
6
CONTINUOUS
10
1.53789
20
0.826772
11
1.53563
21
0.827221
0
LINE
8
BLACK
6
CONTINUOUS
10
1.53563
20
0.827221
11
1.53372
21
0.828501
0
LINE
8
BLACK
6
CONTINUOUS
10
1.53372
20
0.828501
11
1.53244
21
0.830417
0
LINE
8
BLACK
6
CONTINUOUS
10
1.53244
20
0.830417
11
1.53199
21
0.832677
0
LINE
8
BLACK
6
CONTINUOUS
10
1.53199
20
0.832677
11
1.53199
21
0.844488
0
LINE
8
BLACK
6
CONTINUOUS
10
1.53199
20
0.844488
11
1.53244
21
0.846748
0
LINE
8
BLACK
6
CONTINUOUS
10
1.53244
20
0.846748
11
1.53372
21
0.848664
0
LINE
8
BLACK
6
CONTINUOUS
10
1.53372
20
0.848664
11
1.53563
21
0.849944
0
LINE
8
BLACK
6
CONTINUOUS
10
1.53563
20
0.849944
11
1.53789
21
0.850394
0
LINE
8
BLACK
6
CONTINUOUS
10
1.53789
20
0.850394
11
1.57825
21
0.850394
0
LINE
8
BLACK
6
CONTINUOUS
10
1.57825
20
0.850394
11
1.58051
21
0.849944
0
LINE
8
BLACK
6
CONTINUOUS
10
1.67007
20
0.849944
11
1.67199
21
0.848664
0
LINE
8
BLACK
6
CONTINUOUS
10
1.67199
20
0.848664
11
1.67327
21
0.846748
0
LINE
8
BLACK
6
CONTINUOUS
10
1.67327
20
0.846748
11
1.67372
21
0.844488
0
LINE
8
BLACK
6
CONTINUOUS
10
1.67372
20
0.844488
11
1.67372
21
0.832677
0
LINE
8
BLACK
6
CONTINUOUS
10
1.67372
20
0.832677
11
1.67327
21
0.830417
0
LINE
8
BLACK
6
CONTINUOUS
10
1.67327
20
0.830417
11
1.67199
21
0.828501
0
LINE
8
BLACK
6
CONTINUOUS
10
1.67199
20
0.828501
11
1.67007
21
0.827221
0
LINE
8
BLACK
6
CONTINUOUS
10
1.67007
20
0.827221
11
1.66781
21
0.826772
0
LINE
8
BLACK
6
CONTINUOUS
10
1.66781
20
0.826772
11
1.62746
21
0.826772
0
LINE
8
BLACK
6
CONTINUOUS
10
1.62746
20
0.826772
11
1.6252
21
0.827221
0
LINE
8
BLACK
6
CONTINUOUS
10
1.6252
20
0.827221
11
1.62328
21
0.828501
0
LINE
8
BLACK
6
CONTINUOUS
10
1.62328
20
0.828501
11
1.622
21
0.830417
0
LINE
8
BLACK
6
CONTINUOUS
10
1.622
20
0.830417
11
1.62156
21
0.832677
0
LINE
8
BLACK
6
CONTINUOUS
10
1.62156
20
0.832677
11
1.62156
21
0.844488
0
LINE
8
BLACK
6
CONTINUOUS
10
1.62156
20
0.844488
11
1.622
21
0.846748
0
LINE
8
BLACK
6
CONTINUOUS
10
1.622
20
0.846748
11
1.62328
21
0.848664
0
LINE
8
BLACK
6
CONTINUOUS
10
1.62328
20
0.848664
11
1.6252
21
0.849944
0
LINE
8
BLACK
6
CONTINUOUS
10
1.6252
20
0.849944
11
1.62746
21
0.850394
0
LINE
8
BLACK
6
CONTINUOUS
10
1.62746
20
0.850394
11
1.66781
21
0.850394
0
LINE
8
BLACK
6
CONTINUOUS
10
1.66781
20
0.850394
11
1.67007
21
0.849944
0
LINE
8
BLACK
6
CONTINUOUS
10
0.860066
20
0.882617
11
0.863259
21
0.880483
0
LINE
8
BLACK
6
CONTINUOUS
10
0.863259
20
0.880483
11
0.865393
21
0.87729
0
LINE
8
BLACK
6
CONTINUOUS
10
0.865393
20
0.87729
11
0.866142
21
0.873524
0
LINE
8
BLACK
6
CONTINUOUS
10
0.866142
20
0.873524
11
0.866142
21
0.852854
0
LINE
8
BLACK
6
CONTINUOUS
10
0.866142
20
0.852854
11
0.865393
21
0.849088
0
LINE
8
BLACK
6
CONTINUOUS
10
0.865393
20
0.849088
11
0.863259
21
0.845895
0
LINE
8
BLACK
6
CONTINUOUS
10
0.863259
20
0.845895
11
0.860066
21
0.843761
0
LINE
8
BLACK
6
CONTINUOUS
10
0.860066
20
0.843761
11
0.856299
21
0.843012
0
LINE
8
BLACK
6
CONTINUOUS
10
0.856299
20
0.843012
11
0.820866
21
0.843012
0
LINE
8
BLACK
6
CONTINUOUS
10
0.820866
20
0.843012
11
0.8171
21
0.843761
0
LINE
8
BLACK
6
CONTINUOUS
10
0.8171
20
0.843761
11
0.813906
21
0.845895
0
LINE
8
BLACK
6
CONTINUOUS
10
0.813906
20
0.845895
11
0.811773
21
0.849088
0
LINE
8
BLACK
6
CONTINUOUS
10
0.811773
20
0.849088
11
0.811024
21
0.852854
0
LINE
8
BLACK
6
CONTINUOUS
10
0.811024
20
0.852854
11
0.811024
21
0.873524
0
LINE
8
BLACK
6
CONTINUOUS
10
0.811024
20
0.873524
11
0.811773
21
0.87729
0
LINE
8
BLACK
6
CONTINUOUS
10
0.811773
20
0.87729
11
0.813906
21
0.880483
0
LINE
8
BLACK
6
CONTINUOUS
10
0.813906
20
0.880483
11
0.8171
21
0.882617
0
LINE
8
BLACK
6
CONTINUOUS
10
0.8171
20
0.882617
11
0.820866
21
0.883366
0
LINE
8
BLACK
6
CONTINUOUS
10
0.820866
20
0.883366
11
0.856299
21
0.883366
0
LINE
8
BLACK
6
CONTINUOUS
10
0.856299
20
0.883366
11
0.860066
21
0.882617
0
LINE
8
BLACK
6
CONTINUOUS
10
0.695696
20
0.883601
11
0.698889
21
0.881468
0
LINE
8
BLACK
6
CONTINUOUS
10
0.698889
20
0.881468
11
0.701022
21
0.878274
0
LINE
8
BLACK
6
CONTINUOUS
10
0.701022
20
0.878274
11
0.701772
21
0.874508
0
LINE
8
BLACK
6
CONTINUOUS
10
0.701772
20
0.874508
11
0.701772
21
0.854823
0
LINE
8
BLACK
6
CONTINUOUS
10
0.701772
20
0.854823
11
0.701022
21
0.851056
0
LINE
8
BLACK
6
CONTINUOUS
10
0.701022
20
0.851056
11
0.698889
21
0.847863
0
LINE
8
BLACK
6
CONTINUOUS
10
0.698889
20
0.847863
11
0.695696
21
0.84573
0
LINE
8
BLACK
6
CONTINUOUS
10
0.695696
20
0.84573
11
0.691929
21
0.84498
0
LINE
8
BLACK
6
CONTINUOUS
10
0.691929
20
0.84498
11
0.654528
21
0.84498
0
LINE
8
BLACK
6
CONTINUOUS
10
0.654528
20
0.84498
11
0.650761
21
0.84573
0
LINE
8
BLACK
6
CONTINUOUS
10
0.650761
20
0.84573
11
0.647568
21
0.847863
0
LINE
8
BLACK
6
CONTINUOUS
10
0.647568
20
0.847863
11
0.645434
21
0.851056
0
LINE
8
BLACK
6
CONTINUOUS
10
0.645434
20
0.851056
11
0.644685
21
0.854823
0
LINE
8
BLACK
6
CONTINUOUS
10
0.644685
20
0.854823
11
0.644685
21
0.874508
0
LINE
8
BLACK
6
CONTINUOUS
10
0.644685
20
0.874508
11
0.645434
21
0.878274
0
LINE
8
BLACK
6
CONTINUOUS
10
0.645434
20
0.878274
11
0.647568
21
0.881468
0
LINE
8
BLACK
6
CONTINUOUS
10
0.647568
20
0.881468
11
0.650761
21
0.883601
0
LINE
8
BLACK
6
CONTINUOUS
10
0.650761
20
0.883601
11
0.654528
21
0.88435
0
LINE
8
BLACK
6
CONTINUOUS
10
0.654528
20
0.88435
11
0.691929
21
0.88435
0
LINE
8
BLACK
6
CONTINUOUS
10
0.691929
20
0.88435
11
0.695696
21
0.883601
0
LINE
8
BLACK
6
CONTINUOUS
10
0.778373
20
0.883601
11
0.781566
21
0.881468
0
LINE
8
BLACK
6
CONTINUOUS
10
0.781566
20
0.881468
11
0.7837
21
0.878274
0
LINE
8
BLACK
6
CONTINUOUS
10
0.7837
20
0.878274
11
0.784449
21
0.874508
0
LINE
8
BLACK
6
CONTINUOUS
10
0.784449
20
0.874508
11
0.784449
21
0.854823
0
LINE
8
BLACK
6
CONTINUOUS
10
0.784449
20
0.854823
11
0.7837
21
0.851056
0
LINE
8
BLACK
6
CONTINUOUS
10
0.7837
20
0.851056
11
0.781566
21
0.847863
0
LINE
8
BLACK
6
CONTINUOUS
10
0.781566
20
0.847863
11
0.778373
21
0.84573
0
LINE
8
BLACK
6
CONTINUOUS
10
0.778373
20
0.84573
11
0.774606
21
0.84498
0
LINE
8
BLACK
6
CONTINUOUS
10
0.774606
20
0.84498
11
0.737205
21
0.84498
0
LINE
8
BLACK
6
CONTINUOUS
10
0.737205
20
0.84498
11
0.733438
21
0.84573
0
LINE
8
BLACK
6
CONTINUOUS
10
0.733438
20
0.84573
11
0.730245
21
0.847863
0
LINE
8
BLACK
6
CONTINUOUS
10
0.730245
20
0.847863
11
0.728111
21
0.851056
0
LINE
8
BLACK
6
CONTINUOUS
10
0.728111
20
0.851056
11
0.727362
21
0.854823
0
LINE
8
BLACK
6
CONTINUOUS
10
0.727362
20
0.854823
11
0.727362
21
0.874508
0
LINE
8
BLACK
6
CONTINUOUS
10
0.727362
20
0.874508
11
0.728111
21
0.878274
0
LINE
8
BLACK
6
CONTINUOUS
10
0.728111
20
0.878274
11
0.730245
21
0.881468
0
LINE
8
BLACK
6
CONTINUOUS
10
0.730245
20
0.881468
11
0.733438
21
0.883601
0
LINE
8
BLACK
6
CONTINUOUS
10
0.733438
20
0.883601
11
0.737205
21
0.88435
0
LINE
8
BLACK
6
CONTINUOUS
10
0.737205
20
0.88435
11
0.774606
21
0.88435
0
LINE
8
BLACK
6
CONTINUOUS
10
0.774606
20
0.88435
11
0.778373
21
0.883601
0
LINE
8
BLACK
6
CONTINUOUS
10
2.06676
20
0.898365
11
2.06995
21
0.896231
0
LINE
8
BLACK
6
CONTINUOUS
10
2.06995
20
0.896231
11
2.07209
21
0.893038
0
LINE
8
BLACK
6
CONTINUOUS
10
2.07209
20
0.893038
11
2.07283
21
0.889272
0
LINE
8
BLACK
6
CONTINUOUS
10
2.07283
20
0.889272
11
2.07283
21
0.868602
0
LINE
8
BLACK
6
CONTINUOUS
10
2.07283
20
0.868602
11
2.07209
21
0.864836
0
LINE
8
BLACK
6
CONTINUOUS
10
2.07209
20
0.864836
11
2.06995
21
0.861643
0
LINE
8
BLACK
6
CONTINUOUS
10
2.06995
20
0.861643
11
2.06676
21
0.859509
0
LINE
8
BLACK
6
CONTINUOUS
10
2.06676
20
0.859509
11
2.06299
21
0.85876
0
LINE
8
BLACK
6
CONTINUOUS
10
2.06299
20
0.85876
11
2.02756
21
0.85876
0
LINE
8
BLACK
6
CONTINUOUS
10
2.02756
20
0.85876
11
2.02379
21
0.859509
0
LINE
8
BLACK
6
CONTINUOUS
10
2.02379
20
0.859509
11
2.0206
21
0.861643
0
LINE
8
BLACK
6
CONTINUOUS
10
2.0206
20
0.861643
11
2.01847
21
0.864836
0
LINE
8
BLACK
6
CONTINUOUS
10
2.01847
20
0.864836
11
2.01772
21
0.868602
0
LINE
8
BLACK
6
CONTINUOUS
10
2.01772
20
0.868602
11
2.01772
21
0.889272
0
LINE
8
BLACK
6
CONTINUOUS
10
2.01772
20
0.889272
11
2.01847
21
0.893038
0
LINE
8
BLACK
6
CONTINUOUS
10
2.01847
20
0.893038
11
2.0206
21
0.896231
0
LINE
8
BLACK
6
CONTINUOUS
10
2.0206
20
0.896231
11
2.02379
21
0.898365
0
LINE
8
BLACK
6
CONTINUOUS
10
2.02379
20
0.898365
11
2.02756
21
0.899114
0
LINE
8
BLACK
6
CONTINUOUS
10
2.02756
20
0.899114
11
2.06299
21
0.899114
0
LINE
8
BLACK
6
CONTINUOUS
10
2.06299
20
0.899114
11
2.06676
21
0.898365
0
LINE
8
BLACK
6
CONTINUOUS
10
2.15731
20
0.898857
11
2.1605
21
0.896724
0
LINE
8
BLACK
6
CONTINUOUS
10
2.1605
20
0.896724
11
2.16264
21
0.89353
0
LINE
8
BLACK
6
CONTINUOUS
10
2.16264
20
0.89353
11
2.16339
21
0.889764
0
LINE
8
BLACK
6
CONTINUOUS
10
2.16339
20
0.889764
11
2.16339
21
0.869094
0
LINE
8
BLACK
6
CONTINUOUS
10
2.16339
20
0.869094
11
2.16264
21
0.865328
0
LINE
8
BLACK
6
CONTINUOUS
10
2.16264
20
0.865328
11
2.1605
21
0.862135
0
LINE
8
BLACK
6
CONTINUOUS
10
2.1605
20
0.862135
11
2.15731
21
0.860001
0
LINE
8
BLACK
6
CONTINUOUS
10
2.15731
20
0.860001
11
2.15354
21
0.859252
0
LINE
8
BLACK
6
CONTINUOUS
10
2.15354
20
0.859252
11
2.11811
21
0.859252
0
LINE
8
BLACK
6
CONTINUOUS
10
2.11811
20
0.859252
11
2.11434
21
0.860001
0
LINE
8
BLACK
6
CONTINUOUS
10
2.11434
20
0.860001
11
2.11115
21
0.862135
0
LINE
8
BLACK
6
CONTINUOUS
10
2.11115
20
0.862135
11
2.10902
21
0.865328
0
LINE
8
BLACK
6
CONTINUOUS
10
2.10902
20
0.865328
11
2.10827
21
0.869094
0
LINE
8
BLACK
6
CONTINUOUS
10
2.10827
20
0.869094
11
2.10827
21
0.889764
0
LINE
8
BLACK
6
CONTINUOUS
10
2.10827
20
0.889764
11
2.10902
21
0.89353
0
LINE
8
BLACK
6
CONTINUOUS
10
2.10902
20
0.89353
11
2.11115
21
0.896724
0
LINE
8
BLACK
6
CONTINUOUS
10
2.11115
20
0.896724
11
2.11434
21
0.898857
0
LINE
8
BLACK
6
CONTINUOUS
10
2.11434
20
0.898857
11
2.11811
21
0.899606
0
LINE
8
BLACK
6
CONTINUOUS
10
2.11811
20
0.899606
11
2.15354
21
0.899606
0
LINE
8
BLACK
6
CONTINUOUS
10
2.15354
20
0.899606
11
2.15731
21
0.898857
0
LINE
8
BLACK
6
CONTINUOUS
10
1.67007
20
0.887346
11
1.67199
21
0.886066
0
LINE
8
BLACK
6
CONTINUOUS
10
1.67199
20
0.886066
11
1.67327
21
0.88415
0
LINE
8
BLACK
6
CONTINUOUS
10
1.67327
20
0.88415
11
1.67372
21
0.88189
0
LINE
8
BLACK
6
CONTINUOUS
10
1.67372
20
0.88189
11
1.67372
21
0.870079
0
LINE
8
BLACK
6
CONTINUOUS
10
1.67372
20
0.870079
11
1.67327
21
0.867819
0
LINE
8
BLACK
6
CONTINUOUS
10
1.67327
20
0.867819
11
1.67199
21
0.865903
0
LINE
8
BLACK
6
CONTINUOUS
10
1.67199
20
0.865903
11
1.67007
21
0.864623
0
LINE
8
BLACK
6
CONTINUOUS
10
1.67007
20
0.864623
11
1.66781
21
0.864173
0
LINE
8
BLACK
6
CONTINUOUS
10
1.66781
20
0.864173
11
1.62746
21
0.864173
0
LINE
8
BLACK
6
CONTINUOUS
10
1.62746
20
0.864173
11
1.6252
21
0.864623
0
LINE
8
BLACK
6
CONTINUOUS
10
1.6252
20
0.864623
11
1.62328
21
0.865903
0
LINE
8
BLACK
6
CONTINUOUS
10
1.62328
20
0.865903
11
1.622
21
0.867819
0
LINE
8
BLACK
6
CONTINUOUS
10
1.622
20
0.867819
11
1.62156
21
0.870079
0
LINE
8
BLACK
6
CONTINUOUS
10
1.62156
20
0.870079
11
1.62156
21
0.88189
0
LINE
8
BLACK
6
CONTINUOUS
10
1.62156
20
0.88189
11
1.622
21
0.88415
0
LINE
8
BLACK
6
CONTINUOUS
10
1.622
20
0.88415
11
1.62328
21
0.886066
0
LINE
8
BLACK
6
CONTINUOUS
10
1.62328
20
0.886066
11
1.6252
21
0.887346
0
LINE
8
BLACK
6
CONTINUOUS
10
1.6252
20
0.887346
11
1.62746
21
0.887795
0
LINE
8
BLACK
6
CONTINUOUS
10
1.62746
20
0.887795
11
1.66781
21
0.887795
0
LINE
8
BLACK
6
CONTINUOUS
10
1.66781
20
0.887795
11
1.67007
21
0.887346
0
LINE
8
BLACK
6
CONTINUOUS
10
1.78133
20
0.931337
11
1.78452
21
0.929204
0
LINE
8
BLACK
6
CONTINUOUS
10
1.78452
20
0.929204
11
1.78665
21
0.926011
0
LINE
8
BLACK
6
CONTINUOUS
10
1.78665
20
0.926011
11
1.7874
21
0.922244
0
LINE
8
BLACK
6
CONTINUOUS
10
1.7874
20
0.922244
11
1.7874
21
0.892717
0
LINE
8
BLACK
6
CONTINUOUS
10
1.7874
20
0.892717
11
1.78665
21
0.88895
0
LINE
8
BLACK
6
CONTINUOUS
10
1.78665
20
0.88895
11
1.78452
21
0.885757
0
LINE
8
BLACK
6
CONTINUOUS
10
1.78452
20
0.885757
11
1.78133
21
0.883623
0
LINE
8
BLACK
6
CONTINUOUS
10
1.78133
20
0.883623
11
1.77756
21
0.882874
0
LINE
8
BLACK
6
CONTINUOUS
10
1.77756
20
0.882874
11
1.71063
21
0.882874
0
LINE
8
BLACK
6
CONTINUOUS
10
1.71063
20
0.882874
11
1.70686
21
0.883623
0
LINE
8
BLACK
6
CONTINUOUS
10
1.70686
20
0.883623
11
1.70367
21
0.885757
0
LINE
8
BLACK
6
CONTINUOUS
10
1.70367
20
0.885757
11
1.70154
21
0.88895
0
LINE
8
BLACK
6
CONTINUOUS
10
1.70154
20
0.88895
11
1.70079
21
0.892717
0
LINE
8
BLACK
6
CONTINUOUS
10
1.70079
20
0.892717
11
1.70079
21
0.922244
0
LINE
8
BLACK
6
CONTINUOUS
10
1.70079
20
0.922244
11
1.70154
21
0.926011
0
LINE
8
BLACK
6
CONTINUOUS
10
1.70154
20
0.926011
11
1.70367
21
0.929204
0
LINE
8
BLACK
6
CONTINUOUS
10
1.70367
20
0.929204
11
1.70686
21
0.931337
0
LINE
8
BLACK
6
CONTINUOUS
10
1.70686
20
0.931337
11
1.71063
21
0.932087
0
LINE
8
BLACK
6
CONTINUOUS
10
1.71063
20
0.932087
11
1.77756
21
0.932087
0
LINE
8
BLACK
6
CONTINUOUS
10
1.77756
20
0.932087
11
1.78133
21
0.931337
0
LINE
8
BLACK
6
CONTINUOUS
10
1.58051
20
0.924747
11
1.58242
21
0.923467
0
LINE
8
BLACK
6
CONTINUOUS
10
1.58242
20
0.923467
11
1.5837
21
0.921551
0
LINE
8
BLACK
6
CONTINUOUS
10
1.5837
20
0.921551
11
1.58415
21
0.919291
0
LINE
8
BLACK
6
CONTINUOUS
10
1.58415
20
0.919291
11
1.58415
21
0.90748
0
LINE
8
BLACK
6
CONTINUOUS
10
1.58415
20
0.90748
11
1.5837
21
0.90522
0
LINE
8
BLACK
6
CONTINUOUS
10
1.5837
20
0.90522
11
1.58242
21
0.903304
0
LINE
8
BLACK
6
CONTINUOUS
10
1.58242
20
0.903304
11
1.58051
21
0.902024
0
LINE
8
BLACK
6
CONTINUOUS
10
1.58051
20
0.902024
11
1.57825
21
0.901575
0
LINE
8
BLACK
6
CONTINUOUS
10
1.57825
20
0.901575
11
1.53789
21
0.901575
0
LINE
8
BLACK
6
CONTINUOUS
10
1.53789
20
0.901575
11
1.53563
21
0.902024
0
LINE
8
BLACK
6
CONTINUOUS
10
1.53563
20
0.902024
11
1.53372
21
0.903304
0
LINE
8
BLACK
6
CONTINUOUS
10
1.53372
20
0.903304
11
1.53244
21
0.90522
0
LINE
8
BLACK
6
CONTINUOUS
10
1.53244
20
0.90522
11
1.53199
21
0.90748
0
LINE
8
BLACK
6
CONTINUOUS
10
1.53199
20
0.90748
11
1.53199
21
0.919291
0
LINE
8
BLACK
6
CONTINUOUS
10
1.53199
20
0.919291
11
1.53244
21
0.921551
0
LINE
8
BLACK
6
CONTINUOUS
10
1.53244
20
0.921551
11
1.53372
21
0.923467
0
LINE
8
BLACK
6
CONTINUOUS
10
1.53372
20
0.923467
11
1.53563
21
0.924747
0
LINE
8
BLACK
6
CONTINUOUS
10
1.53563
20
0.924747
11
1.53789
21
0.925197
0
LINE
8
BLACK
6
CONTINUOUS
10
1.53789
20
0.925197
11
1.57825
21
0.925197
0
LINE
8
BLACK
6
CONTINUOUS
10
1.57825
20
0.925197
11
1.58051
21
0.924747
0
LINE
8
BLACK
6
CONTINUOUS
10
1.67007
20
0.924747
11
1.67199
21
0.923467
0
LINE
8
BLACK
6
CONTINUOUS
10
1.67199
20
0.923467
11
1.67327
21
0.921551
0
LINE
8
BLACK
6
CONTINUOUS
10
1.67327
20
0.921551
11
1.67372
21
0.919291
0
LINE
8
BLACK
6
CONTINUOUS
10
1.67372
20
0.919291
11
1.67372
21
0.90748
0
LINE
8
BLACK
6
CONTINUOUS
10
1.67372
20
0.90748
11
1.67327
21
0.90522
0
LINE
8
BLACK
6
CONTINUOUS
10
1.67327
20
0.90522
11
1.67199
21
0.903304
0
LINE
8
BLACK
6
CONTINUOUS
10
1.67199
20
0.903304
11
1.67007
21
0.902024
0
LINE
8
BLACK
6
CONTINUOUS
10
1.67007
20
0.902024
11
1.66781
21
0.901575
0
LINE
8
BLACK
6
CONTINUOUS
10
1.66781
20
0.901575
11
1.62746
21
0.901575
0
LINE
8
BLACK
6
CONTINUOUS
10
1.62746
20
0.901575
11
1.6252
21
0.902024
0
LINE
8
BLACK
6
CONTINUOUS
10
1.6252
20
0.902024
11
1.62328
21
0.903304
0
LINE
8
BLACK
6
CONTINUOUS
10
1.62328
20
0.903304
11
1.622
21
0.90522
0
LINE
8
BLACK
6
CONTINUOUS
10
1.622
20
0.90522
11
1.62156
21
0.90748
0
LINE
8
BLACK
6
CONTINUOUS
10
1.62156
20
0.90748
11
1.62156
21
0.919291
0
LINE
8
BLACK
6
CONTINUOUS
10
1.62156
20
0.919291
11
1.622
21
0.921551
0
LINE
8
BLACK
6
CONTINUOUS
10
1.622
20
0.921551
11
1.62328
21
0.923467
0
LINE
8
BLACK
6
CONTINUOUS
10
1.62328
20
0.923467
11
1.6252
21
0.924747
0
LINE
8
BLACK
6
CONTINUOUS
10
1.6252
20
0.924747
11
1.62746
21
0.925197
0
LINE
8
BLACK
6
CONTINUOUS
10
1.62746
20
0.925197
11
1.66781
21
0.925197
0
LINE
8
BLACK
6
CONTINUOUS
10
1.66781
20
0.925197
11
1.67007
21
0.924747
0
LINE
8
BLACK
6
CONTINUOUS
10
0.860066
20
0.94807
11
0.863259
21
0.945936
0
LINE
8
BLACK
6
CONTINUOUS
10
0.863259
20
0.945936
11
0.865393
21
0.942743
0
LINE
8
BLACK
6
CONTINUOUS
10
0.865393
20
0.942743
11
0.866142
21
0.938976
0
LINE
8
BLACK
6
CONTINUOUS
10
0.866142
20
0.938976
11
0.866142
21
0.918307
0
LINE
8
BLACK
6
CONTINUOUS
10
0.866142
20
0.918307
11
0.865393
21
0.914541
0
LINE
8
BLACK
6
CONTINUOUS
10
0.865393
20
0.914541
11
0.863259
21
0.911347
0
LINE
8
BLACK
6
CONTINUOUS
10
0.863259
20
0.911347
11
0.860066
21
0.909214
0
LINE
8
BLACK
6
CONTINUOUS
10
0.860066
20
0.909214
11
0.856299
21
0.908465
0
LINE
8
BLACK
6
CONTINUOUS
10
0.856299
20
0.908465
11
0.820866
21
0.908465
0
LINE
8
BLACK
6
CONTINUOUS
10
0.820866
20
0.908465
11
0.8171
21
0.909214
0
LINE
8
BLACK
6
CONTINUOUS
10
0.8171
20
0.909214
11
0.813906
21
0.911347
0
LINE
8
BLACK
6
CONTINUOUS
10
0.813906
20
0.911347
11
0.811773
21
0.914541
0
LINE
8
BLACK
6
CONTINUOUS
10
0.811773
20
0.914541
11
0.811024
21
0.918307
0
LINE
8
BLACK
6
CONTINUOUS
10
0.811024
20
0.918307
11
0.811024
21
0.938976
0
LINE
8
BLACK
6
CONTINUOUS
10
0.811024
20
0.938976
11
0.811773
21
0.942743
0
LINE
8
BLACK
6
CONTINUOUS
10
0.811773
20
0.942743
11
0.813906
21
0.945936
0
LINE
8
BLACK
6
CONTINUOUS
10
0.813906
20
0.945936
11
0.8171
21
0.94807
0
LINE
8
BLACK
6
CONTINUOUS
10
0.8171
20
0.94807
11
0.820866
21
0.948819
0
LINE
8
BLACK
6
CONTINUOUS
10
0.820866
20
0.948819
11
0.856299
21
0.948819
0
LINE
8
BLACK
6
CONTINUOUS
10
0.856299
20
0.948819
11
0.860066
21
0.94807
0
LINE
8
BLACK
6
CONTINUOUS
10
0.860066
20
1.01992
11
0.863259
21
1.01779
0
LINE
8
BLACK
6
CONTINUOUS
10
0.863259
20
1.01779
11
0.865393
21
1.01459
0
LINE
8
BLACK
6
CONTINUOUS
10
0.865393
20
1.01459
11
0.866142
21
1.01083
0
LINE
8
BLACK
6
CONTINUOUS
10
0.866142
20
1.01083
11
0.866142
21
0.990157
0
LINE
8
BLACK
6
CONTINUOUS
10
0.866142
20
0.990157
11
0.865393
21
0.986391
0
LINE
8
BLACK
6
CONTINUOUS
10
0.865393
20
0.986391
11
0.863259
21
0.983198
0
LINE
8
BLACK
6
CONTINUOUS
10
0.863259
20
0.983198
11
0.860066
21
0.981064
0
LINE
8
BLACK
6
CONTINUOUS
10
0.860066
20
0.981064
11
0.856299
21
0.980315
0
LINE
8
BLACK
6
CONTINUOUS
10
0.856299
20
0.980315
11
0.820866
21
0.980315
0
LINE
8
BLACK
6
CONTINUOUS
10
0.820866
20
0.980315
11
0.8171
21
0.981064
0
LINE
8
BLACK
6
CONTINUOUS
10
0.8171
20
0.981064
11
0.813906
21
0.983198
0
LINE
8
BLACK
6
CONTINUOUS
10
0.813906
20
0.983198
11
0.811773
21
0.986391
0
LINE
8
BLACK
6
CONTINUOUS
10
0.811773
20
0.986391
11
0.811024
21
0.990157
0
LINE
8
BLACK
6
CONTINUOUS
10
0.811024
20
0.990157
11
0.811024
21
1.01083
0
LINE
8
BLACK
6
CONTINUOUS
10
0.811024
20
1.01083
11
0.811773
21
1.01459
0
LINE
8
BLACK
6
CONTINUOUS
10
0.811773
20
1.01459
11
0.813906
21
1.01779
0
LINE
8
BLACK
6
CONTINUOUS
10
0.813906
20
1.01779
11
0.8171
21
1.01992
0
LINE
8
BLACK
6
CONTINUOUS
10
0.8171
20
1.01992
11
0.820866
21
1.02067
0
LINE
8
BLACK
6
CONTINUOUS
10
0.820866
20
1.02067
11
0.856299
21
1.02067
0
LINE
8
BLACK
6
CONTINUOUS
10
0.856299
20
1.02067
11
0.860066
21
1.01992
0
LINE
8
BLACK
6
CONTINUOUS
10
1.42126
20
1.14075
11
1.41339
21
1.14075
0
LINE
8
BLACK
6
CONTINUOUS
10
1.41339
20
1.14075
11
1.41339
21
1.17421
0
LINE
8
BLACK
6
CONTINUOUS
10
1.41339
20
1.17421
11
1.42126
21
1.17421
0
LINE
8
BLACK
6
CONTINUOUS
10
1.42126
20
1.17421
11
1.42126
21
1.14075
0
LINE
8
BLACK
6
CONTINUOUS
10
1.43701
20
1.14075
11
1.42913
21
1.14075
0
LINE
8
BLACK
6
CONTINUOUS
10
1.42913
20
1.14075
11
1.42913
21
1.17421
0
LINE
8
BLACK
6
CONTINUOUS
10
1.42913
20
1.17421
11
1.43701
21
1.17421
0
LINE
8
BLACK
6
CONTINUOUS
10
1.43701
20
1.17421
11
1.43701
21
1.14075
0
LINE
8
BLACK
6
CONTINUOUS
10
1.45276
20
1.14075
11
1.44488
21
1.14075
0
LINE
8
BLACK
6
CONTINUOUS
10
1.44488
20
1.14075
11
1.44488
21
1.17421
0
LINE
8
BLACK
6
CONTINUOUS
10
1.44488
20
1.17421
11
1.45276
21
1.17421
0
LINE
8
BLACK
6
CONTINUOUS
10
1.45276
20
1.17421
11
1.45276
21
1.14075
0
LINE
8
BLACK
6
CONTINUOUS
10
1.4685
20
1.14075
11
1.46063
21
1.14075
0
LINE
8
BLACK
6
CONTINUOUS
10
1.46063
20
1.14075
11
1.46063
21
1.17421
0
LINE
8
BLACK
6
CONTINUOUS
10
1.46063
20
1.17421
11
1.4685
21
1.17421
0
LINE
8
BLACK
6
CONTINUOUS
10
1.4685
20
1.17421
11
1.4685
21
1.14075
0
LINE
8
BLACK
6
CONTINUOUS
10
1.48425
20
1.14075
11
1.47638
21
1.14075
0
LINE
8
BLACK
6
CONTINUOUS
10
1.47638
20
1.14075
11
1.47638
21
1.17421
0
LINE
8
BLACK
6
CONTINUOUS
10
1.47638
20
1.17421
11
1.48425
21
1.17421
0
LINE
8
BLACK
6
CONTINUOUS
10
1.48425
20
1.17421
11
1.48425
21
1.14075
0
LINE
8
BLACK
6
CONTINUOUS
10
1.5
20
1.14075
11
1.49213
21
1.14075
0
LINE
8
BLACK
6
CONTINUOUS
10
1.49213
20
1.14075
11
1.49213
21
1.17421
0
LINE
8
BLACK
6
CONTINUOUS
10
1.49213
20
1.17421
11
1.5
21
1.17421
0
LINE
8
BLACK
6
CONTINUOUS
10
1.5
20
1.17421
11
1.5
21
1.14075
0
LINE
8
BLACK
6
CONTINUOUS
10
1.51575
20
1.14075
11
1.50787
21
1.14075
0
LINE
8
BLACK
6
CONTINUOUS
10
1.50787
20
1.14075
11
1.50787
21
1.17421
0
LINE
8
BLACK
6
CONTINUOUS
10
1.50787
20
1.17421
11
1.51575
21
1.17421
0
LINE
8
BLACK
6
CONTINUOUS
10
1.51575
20
1.17421
11
1.51575
21
1.14075
0
LINE
8
BLACK
6
CONTINUOUS
10
1.5315
20
1.14075
11
1.52362
21
1.14075
0
LINE
8
BLACK
6
CONTINUOUS
10
1.52362
20
1.14075
11
1.52362
21
1.17421
0
LINE
8
BLACK
6
CONTINUOUS
10
1.52362
20
1.17421
11
1.5315
21
1.17421
0
LINE
8
BLACK
6
CONTINUOUS
10
1.5315
20
1.17421
11
1.5315
21
1.14075
0
LINE
8
BLACK
6
CONTINUOUS
10
1.54724
20
1.14075
11
1.53937
21
1.14075
0
LINE
8
BLACK
6
CONTINUOUS
10
1.53937
20
1.14075
11
1.53937
21
1.17421
0
LINE
8
BLACK
6
CONTINUOUS
10
1.53937
20
1.17421
11
1.54724
21
1.17421
0
LINE
8
BLACK
6
CONTINUOUS
10
1.54724
20
1.17421
11
1.54724
21
1.14075
0
LINE
8
BLACK
6
CONTINUOUS
10
1.56299
20
1.14075
11
1.55512
21
1.14075
0
LINE
8
BLACK
6
CONTINUOUS
10
1.55512
20
1.14075
11
1.55512
21
1.17421
0
LINE
8
BLACK
6
CONTINUOUS
10
1.55512
20
1.17421
11
1.56299
21
1.17421
0
LINE
8
BLACK
6
CONTINUOUS
10
1.56299
20
1.17421
11
1.56299
21
1.14075
0
LINE
8
BLACK
6
CONTINUOUS
10
1.40846
20
1.17913
11
1.375
21
1.17913
0
LINE
8
BLACK
6
CONTINUOUS
10
1.375
20
1.17913
11
1.375
21
1.18701
0
LINE
8
BLACK
6
CONTINUOUS
10
1.375
20
1.18701
11
1.40846
21
1.18701
0
LINE
8
BLACK
6
CONTINUOUS
10
1.40846
20
1.18701
11
1.40846
21
1.17913
0
LINE
8
BLACK
6
CONTINUOUS
10
1.60138
20
1.17913
11
1.56791
21
1.17913
0
LINE
8
BLACK
6
CONTINUOUS
10
1.56791
20
1.17913
11
1.56791
21
1.18701
0
LINE
8
BLACK
6
CONTINUOUS
10
1.56791
20
1.18701
11
1.60138
21
1.18701
0
LINE
8
BLACK
6
CONTINUOUS
10
1.60138
20
1.18701
11
1.60138
21
1.17913
0
LINE
8
BLACK
6
CONTINUOUS
10
1.81837
20
1.23991
11
1.82156
21
1.23777
0
LINE
8
BLACK
6
CONTINUOUS
10
1.82156
20
1.23777
11
1.84801
21
1.21133
0
LINE
8
BLACK
6
CONTINUOUS
10
1.84801
20
1.21133
11
1.85014
21
1.20813
0
LINE
8
BLACK
6
CONTINUOUS
10
1.85014
20
1.20813
11
1.85089
21
1.20437
0
LINE
8
BLACK
6
CONTINUOUS
10
1.85089
20
1.20437
11
1.85014
21
1.2006
0
LINE
8
BLACK
6
CONTINUOUS
10
1.85014
20
1.2006
11
1.84801
21
1.19741
0
LINE
8
BLACK
6
CONTINUOUS
10
1.84801
20
1.19741
11
1.83409
21
1.18349
0
LINE
8
BLACK
6
CONTINUOUS
10
1.83409
20
1.18349
11
1.8309
21
1.18135
0
LINE
8
BLACK
6
CONTINUOUS
10
1.8309
20
1.18135
11
1.82713
21
1.1806
0
LINE
8
BLACK
6
CONTINUOUS
10
1.82713
20
1.1806
11
1.82336
21
1.18135
0
LINE
8
BLACK
6
CONTINUOUS
10
1.82336
20
1.18135
11
1.82017
21
1.18349
0
LINE
8
BLACK
6
CONTINUOUS
10
1.82017
20
1.18349
11
1.79372
21
1.20993
0
LINE
8
BLACK
6
CONTINUOUS
10
1.79372
20
1.20993
11
1.79159
21
1.21313
0
LINE
8
BLACK
6
CONTINUOUS
10
1.79159
20
1.21313
11
1.79084
21
1.21689
0
LINE
8
BLACK
6
CONTINUOUS
10
1.79084
20
1.21689
11
1.79159
21
1.22066
0
LINE
8
BLACK
6
CONTINUOUS
10
1.79159
20
1.22066
11
1.79372
21
1.22385
0
LINE
8
BLACK
6
CONTINUOUS
10
1.79372
20
1.22385
11
1.80764
21
1.23777
0
LINE
8
BLACK
6
CONTINUOUS
10
1.80764
20
1.23777
11
1.81084
21
1.23991
0
LINE
8
BLACK
6
CONTINUOUS
10
1.81084
20
1.23991
11
1.8146
21
1.24066
0
LINE
8
BLACK
6
CONTINUOUS
10
1.8146
20
1.24066
11
1.81837
21
1.23991
0
LINE
8
BLACK
6
CONTINUOUS
10
1.55906
20
1.18307
11
1.41732
21
1.18307
0
LINE
8
BLACK
6
CONTINUOUS
10
1.41732
20
1.18307
11
1.41732
21
1.3248
0
LINE
8
BLACK
6
CONTINUOUS
10
1.41732
20
1.3248
11
1.55906
21
1.3248
0
LINE
8
BLACK
6
CONTINUOUS
10
1.55906
20
1.3248
11
1.55906
21
1.18307
0
LINE
8
BLACK
6
CONTINUOUS
10
1.40846
20
1.19488
11
1.375
21
1.19488
0
LINE
8
BLACK
6
CONTINUOUS
10
1.375
20
1.19488
11
1.375
21
1.20276
0
LINE
8
BLACK
6
CONTINUOUS
10
1.375
20
1.20276
11
1.40846
21
1.20276
0
LINE
8
BLACK
6
CONTINUOUS
10
1.40846
20
1.20276
11
1.40846
21
1.19488
0
LINE
8
BLACK
6
CONTINUOUS
10
1.60138
20
1.19488
11
1.56791
21
1.19488
0
LINE
8
BLACK
6
CONTINUOUS
10
1.56791
20
1.19488
11
1.56791
21
1.20276
0
LINE
8
BLACK
6
CONTINUOUS
10
1.56791
20
1.20276
11
1.60138
21
1.20276
0
LINE
8
BLACK
6
CONTINUOUS
10
1.60138
20
1.20276
11
1.60138
21
1.19488
0
LINE
8
BLACK
6
CONTINUOUS
10
1.40846
20
1.21063
11
1.375
21
1.21063
0
LINE
8
BLACK
6
CONTINUOUS
10
1.375
20
1.21063
11
1.375
21
1.2185
0
LINE
8
BLACK
6
CONTINUOUS
10
1.375
20
1.2185
11
1.40846
21
1.2185
0
LINE
8
BLACK
6
CONTINUOUS
10
1.40846
20
1.2185
11
1.40846
21
1.21063
0
LINE
8
BLACK
6
CONTINUOUS
10
1.60138
20
1.21063
11
1.56791
21
1.21063
0
LINE
8
BLACK
6
CONTINUOUS
10
1.56791
20
1.21063
11
1.56791
21
1.2185
0
LINE
8
BLACK
6
CONTINUOUS
10
1.56791
20
1.2185
11
1.60138
21
1.2185
0
LINE
8
BLACK
6
CONTINUOUS
10
1.60138
20
1.2185
11
1.60138
21
1.21063
0
LINE
8
BLACK
6
CONTINUOUS
10
1.40846
20
1.22638
11
1.375
21
1.22638
0
LINE
8
BLACK
6
CONTINUOUS
10
1.375
20
1.22638
11
1.375
21
1.23425
0
LINE
8
BLACK
6
CONTINUOUS
10
1.375
20
1.23425
11
1.40846
21
1.23425
0
LINE
8
BLACK
6
CONTINUOUS
10
1.40846
20
1.23425
11
1.40846
21
1.22638
0
LINE
8
BLACK
6
CONTINUOUS
10
1.60138
20
1.22638
11
1.56791
21
1.22638
0
LINE
8
BLACK
6
CONTINUOUS
10
1.56791
20
1.22638
11
1.56791
21
1.23425
0
LINE
8
BLACK
6
CONTINUOUS
10
1.56791
20
1.23425
11
1.60138
21
1.23425
0
LINE
8
BLACK
6
CONTINUOUS
10
1.60138
20
1.23425
11
1.60138
21
1.22638
0
LINE
8
BLACK
6
CONTINUOUS
10
1.87126
20
1.2928
11
1.87446
21
1.29067
0
LINE
8
BLACK
6
CONTINUOUS
10
1.87446
20
1.29067
11
1.9009
21
1.26422
0
LINE
8
BLACK
6
CONTINUOUS
10
1.9009
20
1.26422
11
1.90304
21
1.26103
0
LINE
8
BLACK
6
CONTINUOUS
10
1.90304
20
1.26103
11
1.90379
21
1.25726
0
LINE
8
BLACK
6
CONTINUOUS
10
1.90379
20
1.25726
11
1.90304
21
1.25349
0
LINE
8
BLACK
6
CONTINUOUS
10
1.90304
20
1.25349
11
1.9009
21
1.2503
0
LINE
8
BLACK
6
CONTINUOUS
10
1.9009
20
1.2503
11
1.88698
21
1.23638
0
LINE
8
BLACK
6
CONTINUOUS
10
1.88698
20
1.23638
11
1.88379
21
1.23425
0
LINE
8
BLACK
6
CONTINUOUS
10
1.88379
20
1.23425
11
1.88002
21
1.2335
0
LINE
8
BLACK
6
CONTINUOUS
10
1.88002
20
1.2335
11
1.87626
21
1.23425
0
LINE
8
BLACK
6
CONTINUOUS
10
1.87626
20
1.23425
11
1.87306
21
1.23638
0
LINE
8
BLACK
6
CONTINUOUS
10
1.87306
20
1.23638
11
1.84662
21
1.26283
0
LINE
8
BLACK
6
CONTINUOUS
10
1.84662
20
1.26283
11
1.84448
21
1.26602
0
LINE
8
BLACK
6
CONTINUOUS
10
1.84448
20
1.26602
11
1.84373
21
1.26979
0
LINE
8
BLACK
6
CONTINUOUS
10
1.84373
20
1.26979
11
1.84448
21
1.27355
0
LINE
8
BLACK
6
CONTINUOUS
10
1.84448
20
1.27355
11
1.84662
21
1.27675
0
LINE
8
BLACK
6
CONTINUOUS
10
1.84662
20
1.27675
11
1.86054
21
1.29067
0
LINE
8
BLACK
6
CONTINUOUS
10
1.86054
20
1.29067
11
1.86373
21
1.2928
0
LINE
8
BLACK
6
CONTINUOUS
10
1.86373
20
1.2928
11
1.8675
21
1.29355
0
LINE
8
BLACK
6
CONTINUOUS
10
1.8675
20
1.29355
11
1.87126
21
1.2928
0
LINE
8
BLACK
6
CONTINUOUS
10
1.40846
20
1.24213
11
1.375
21
1.24213
0
LINE
8
BLACK
6
CONTINUOUS
10
1.375
20
1.24213
11
1.375
21
1.25
0
LINE
8
BLACK
6
CONTINUOUS
10
1.375
20
1.25
11
1.40846
21
1.25
0
LINE
8
BLACK
6
CONTINUOUS
10
1.40846
20
1.25
11
1.40846
21
1.24213
0
LINE
8
BLACK
6
CONTINUOUS
10
1.60138
20
1.24213
11
1.56791
21
1.24213
0
LINE
8
BLACK
6
CONTINUOUS
10
1.56791
20
1.24213
11
1.56791
21
1.25
0
LINE
8
BLACK
6
CONTINUOUS
10
1.56791
20
1.25
11
1.60138
21
1.25
0
LINE
8
BLACK
6
CONTINUOUS
10
1.60138
20
1.25
11
1.60138
21
1.24213
0
LINE
8
BLACK
6
CONTINUOUS
10
1.40846
20
1.25787
11
1.375
21
1.25787
0
LINE
8
BLACK
6
CONTINUOUS
10
1.375
20
1.25787
11
1.375
21
1.26575
0
LINE
8
BLACK
6
CONTINUOUS
10
1.375
20
1.26575
11
1.40846
21
1.26575
0
LINE
8
BLACK
6
CONTINUOUS
10
1.40846
20
1.26575
11
1.40846
21
1.25787
0
LINE
8
BLACK
6
CONTINUOUS
10
1.60138
20
1.25787
11
1.56791
21
1.25787
0
LINE
8
BLACK
6
CONTINUOUS
10
1.56791
20
1.25787
11
1.56791
21
1.26575
0
LINE
8
BLACK
6
CONTINUOUS
10
1.56791
20
1.26575
11
1.60138
21
1.26575
0
LINE
8
BLACK
6
CONTINUOUS
10
1.60138
20
1.26575
11
1.60138
21
1.25787
0
LINE
8
BLACK
6
CONTINUOUS
10
1.2577
20
1.31815
11
1.2609
21
1.31601
0
LINE
8
BLACK
6
CONTINUOUS
10
1.2609
20
1.31601
11
1.26303
21
1.31282
0
LINE
8
BLACK
6
CONTINUOUS
10
1.26303
20
1.31282
11
1.26378
21
1.30906
0
LINE
8
BLACK
6
CONTINUOUS
10
1.26378
20
1.30906
11
1.26378
21
1.27362
0
LINE
8
BLACK
6
CONTINUOUS
10
1.26378
20
1.27362
11
1.26303
21
1.26986
0
LINE
8
BLACK
6
CONTINUOUS
10
1.26303
20
1.26986
11
1.2609
21
1.26666
0
LINE
8
BLACK
6
CONTINUOUS
10
1.2609
20
1.26666
11
1.2577
21
1.26453
0
LINE
8
BLACK
6
CONTINUOUS
10
1.2577
20
1.26453
11
1.25394
21
1.26378
0
LINE
8
BLACK
6
CONTINUOUS
10
1.25394
20
1.26378
11
1.23327
21
1.26378
0
LINE
8
BLACK
6
CONTINUOUS
10
1.23327
20
1.26378
11
1.2295
21
1.26453
0
LINE
8
BLACK
6
CONTINUOUS
10
1.2295
20
1.26453
11
1.22631
21
1.26666
0
LINE
8
BLACK
6
CONTINUOUS
10
1.22631
20
1.26666
11
1.22417
21
1.26986
0
LINE
8
BLACK
6
CONTINUOUS
10
1.22417
20
1.26986
11
1.22343
21
1.27362
0
LINE
8
BLACK
6
CONTINUOUS
10
1.22343
20
1.27362
11
1.22343
21
1.30906
0
LINE
8
BLACK
6
CONTINUOUS
10
1.22343
20
1.30906
11
1.22417
21
1.31282
0
LINE
8
BLACK
6
CONTINUOUS
10
1.22417
20
1.31282
11
1.22631
21
1.31601
0
LINE
8
BLACK
6
CONTINUOUS
10
1.22631
20
1.31601
11
1.2295
21
1.31815
0
LINE
8
BLACK
6
CONTINUOUS
10
1.2295
20
1.31815
11
1.23327
21
1.3189
0
LINE
8
BLACK
6
CONTINUOUS
10
1.23327
20
1.3189
11
1.25394
21
1.3189
0
LINE
8
BLACK
6
CONTINUOUS
10
1.25394
20
1.3189
11
1.2577
21
1.31815
0
LINE
8
BLACK
6
CONTINUOUS
10
1.32955
20
1.31815
11
1.33275
21
1.31601
0
LINE
8
BLACK
6
CONTINUOUS
10
1.33275
20
1.31601
11
1.33488
21
1.31282
0
LINE
8
BLACK
6
CONTINUOUS
10
1.33488
20
1.31282
11
1.33563
21
1.30906
0
LINE
8
BLACK
6
CONTINUOUS
10
1.33563
20
1.30906
11
1.33563
21
1.27362
0
LINE
8
BLACK
6
CONTINUOUS
10
1.33563
20
1.27362
11
1.33488
21
1.26986
0
LINE
8
BLACK
6
CONTINUOUS
10
1.33488
20
1.26986
11
1.33275
21
1.26666
0
LINE
8
BLACK
6
CONTINUOUS
10
1.33275
20
1.26666
11
1.32955
21
1.26453
0
LINE
8
BLACK
6
CONTINUOUS
10
1.32955
20
1.26453
11
1.32579
21
1.26378
0
LINE
8
BLACK
6
CONTINUOUS
10
1.32579
20
1.26378
11
1.30512
21
1.26378
0
LINE
8
BLACK
6
CONTINUOUS
10
1.30512
20
1.26378
11
1.30135
21
1.26453
0
LINE
8
BLACK
6
CONTINUOUS
10
1.30135
20
1.26453
11
1.29816
21
1.26666
0
LINE
8
BLACK
6
CONTINUOUS
10
1.29816
20
1.26666
11
1.29602
21
1.26986
0
LINE
8
BLACK
6
CONTINUOUS
10
1.29602
20
1.26986
11
1.29528
21
1.27362
0
LINE
8
BLACK
6
CONTINUOUS
10
1.29528
20
1.27362
11
1.29528
21
1.30906
0
LINE
8
BLACK
6
CONTINUOUS
10
1.29528
20
1.30906
11
1.29602
21
1.31282
0
LINE
8
BLACK
6
CONTINUOUS
10
1.29602
20
1.31282
11
1.29816
21
1.31601
0
LINE
8
BLACK
6
CONTINUOUS
10
1.29816
20
1.31601
11
1.30135
21
1.31815
0
LINE
8
BLACK
6
CONTINUOUS
10
1.30135
20
1.31815
11
1.30512
21
1.3189
0
LINE
8
BLACK
6
CONTINUOUS
10
1.30512
20
1.3189
11
1.32579
21
1.3189
0
LINE
8
BLACK
6
CONTINUOUS
10
1.32579
20
1.3189
11
1.32955
21
1.31815
0
LINE
8
BLACK
6
CONTINUOUS
10
1.40846
20
1.27362
11
1.375
21
1.27362
0
LINE
8
BLACK
6
CONTINUOUS
10
1.375
20
1.27362
11
1.375
21
1.2815
0
LINE
8
BLACK
6
CONTINUOUS
10
1.375
20
1.2815
11
1.40846
21
1.2815
0
LINE
8
BLACK
6
CONTINUOUS
10
1.40846
20
1.2815
11
1.40846
21
1.27362
0
LINE
8
BLACK
6
CONTINUOUS
10
1.60138
20
1.27362
11
1.56791
21
1.27362
0
LINE
8
BLACK
6
CONTINUOUS
10
1.56791
20
1.27362
11
1.56791
21
1.2815
0
LINE
8
BLACK
6
CONTINUOUS
10
1.56791
20
1.2815
11
1.60138
21
1.2815
0
LINE
8
BLACK
6
CONTINUOUS
10
1.60138
20
1.2815
11
1.60138
21
1.27362
0
LINE
8
BLACK
6
CONTINUOUS
10
1.40846
20
1.28937
11
1.375
21
1.28937
0
LINE
8
BLACK
6
CONTINUOUS
10
1.375
20
1.28937
11
1.375
21
1.29724
0
LINE
8
BLACK
6
CONTINUOUS
10
1.375
20
1.29724
11
1.40846
21
1.29724
0
LINE
8
BLACK
6
CONTINUOUS
10
1.40846
20
1.29724
11
1.40846
21
1.28937
0
LINE
8
BLACK
6
CONTINUOUS
10
1.60138
20
1.28937
11
1.56791
21
1.28937
0
LINE
8
BLACK
6
CONTINUOUS
10
1.56791
20
1.28937
11
1.56791
21
1.29724
0
LINE
8
BLACK
6
CONTINUOUS
10
1.56791
20
1.29724
11
1.60138
21
1.29724
0
LINE
8
BLACK
6
CONTINUOUS
10
1.60138
20
1.29724
11
1.60138
21
1.28937
0
LINE
8
BLACK
6
CONTINUOUS
10
1.40846
20
1.30512
11
1.375
21
1.30512
0
LINE
8
BLACK
6
CONTINUOUS
10
1.375
20
1.30512
11
1.375
21
1.31299
0
LINE
8
BLACK
6
CONTINUOUS
10
1.375
20
1.31299
11
1.40846
21
1.31299
0
LINE
8
BLACK
6
CONTINUOUS
10
1.40846
20
1.31299
11
1.40846
21
1.30512
0
LINE
8
BLACK
6
CONTINUOUS
10
1.60138
20
1.30512
11
1.56791
21
1.30512
0
LINE
8
BLACK
6
CONTINUOUS
10
1.56791
20
1.30512
11
1.56791
21
1.31299
0
LINE
8
BLACK
6
CONTINUOUS
10
1.56791
20
1.31299
11
1.60138
21
1.31299
0
LINE
8
BLACK
6
CONTINUOUS
10
1.60138
20
1.31299
11
1.60138
21
1.30512
0
LINE
8
BLACK
6
CONTINUOUS
10
1.40846
20
1.32087
11
1.375
21
1.32087
0
LINE
8
BLACK
6
CONTINUOUS
10
1.375
20
1.32087
11
1.375
21
1.32874
0
LINE
8
BLACK
6
CONTINUOUS
10
1.375
20
1.32874
11
1.40846
21
1.32874
0
LINE
8
BLACK
6
CONTINUOUS
10
1.40846
20
1.32874
11
1.40846
21
1.32087
0
LINE
8
BLACK
6
CONTINUOUS
10
1.60138
20
1.32087
11
1.56791
21
1.32087
0
LINE
8
BLACK
6
CONTINUOUS
10
1.56791
20
1.32087
11
1.56791
21
1.32874
0
LINE
8
BLACK
6
CONTINUOUS
10
1.56791
20
1.32874
11
1.60138
21
1.32874
0
LINE
8
BLACK
6
CONTINUOUS
10
1.60138
20
1.32874
11
1.60138
21
1.32087
0
LINE
8
BLACK
6
CONTINUOUS
10
1.42126
20
1.33366
11
1.41339
21
1.33366
0
LINE
8
BLACK
6
CONTINUOUS
10
1.41339
20
1.33366
11
1.41339
21
1.36713
0
LINE
8
BLACK
6
CONTINUOUS
10
1.41339
20
1.36713
11
1.42126
21
1.36713
0
LINE
8
BLACK
6
CONTINUOUS
10
1.42126
20
1.36713
11
1.42126
21
1.33366
0
LINE
8
BLACK
6
CONTINUOUS
10
1.43701
20
1.33366
11
1.42913
21
1.33366
0
LINE
8
BLACK
6
CONTINUOUS
10
1.42913
20
1.33366
11
1.42913
21
1.36713
0
LINE
8
BLACK
6
CONTINUOUS
10
1.42913
20
1.36713
11
1.43701
21
1.36713
0
LINE
8
BLACK
6
CONTINUOUS
10
1.43701
20
1.36713
11
1.43701
21
1.33366
0
LINE
8
BLACK
6
CONTINUOUS
10
1.45276
20
1.33366
11
1.44488
21
1.33366
0
LINE
8
BLACK
6
CONTINUOUS
10
1.44488
20
1.33366
11
1.44488
21
1.36713
0
LINE
8
BLACK
6
CONTINUOUS
10
1.44488
20
1.36713
11
1.45276
21
1.36713
0
LINE
8
BLACK
6
CONTINUOUS
10
1.45276
20
1.36713
11
1.45276
21
1.33366
0
LINE
8
BLACK
6
CONTINUOUS
10
1.4685
20
1.33366
11
1.46063
21
1.33366
0
LINE
8
BLACK
6
CONTINUOUS
10
1.46063
20
1.33366
11
1.46063
21
1.36713
0
LINE
8
BLACK
6
CONTINUOUS
10
1.46063
20
1.36713
11
1.4685
21
1.36713
0
LINE
8
BLACK
6
CONTINUOUS
10
1.4685
20
1.36713
11
1.4685
21
1.33366
0
LINE
8
BLACK
6
CONTINUOUS
10
1.48425
20
1.33366
11
1.47638
21
1.33366
0
LINE
8
BLACK
6
CONTINUOUS
10
1.47638
20
1.33366
11
1.47638
21
1.36713
0
LINE
8
BLACK
6
CONTINUOUS
10
1.47638
20
1.36713
11
1.48425
21
1.36713
0
LINE
8
BLACK
6
CONTINUOUS
10
1.48425
20
1.36713
11
1.48425
21
1.33366
0
LINE
8
BLACK
6
CONTINUOUS
10
1.5
20
1.33366
11
1.49213
21
1.33366
0
LINE
8
BLACK
6
CONTINUOUS
10
1.49213
20
1.33366
11
1.49213
21
1.36713
0
LINE
8
BLACK
6
CONTINUOUS
10
1.49213
20
1.36713
11
1.5
21
1.36713
0
LINE
8
BLACK
6
CONTINUOUS
10
1.5
20
1.36713
11
1.5
21
1.33366
0
LINE
8
BLACK
6
CONTINUOUS
10
1.51575
20
1.33366
11
1.50787
21
1.33366
0
LINE
8
BLACK
6
CONTINUOUS
10
1.50787
20
1.33366
11
1.50787
21
1.36713
0
LINE
8
BLACK
6
CONTINUOUS
10
1.50787
20
1.36713
11
1.51575
21
1.36713
0
LINE
8
BLACK
6
CONTINUOUS
10
1.51575
20
1.36713
11
1.51575
21
1.33366
0
LINE
8
BLACK
6
CONTINUOUS
10
1.5315
20
1.33366
11
1.52362
21
1.33366
0
LINE
8
BLACK
6
CONTINUOUS
10
1.52362
20
1.33366
11
1.52362
21
1.36713
0
LINE
8
BLACK
6
CONTINUOUS
10
1.52362
20
1.36713
11
1.5315
21
1.36713
0
LINE
8
BLACK
6
CONTINUOUS
10
1.5315
20
1.36713
11
1.5315
21
1.33366
0
LINE
8
BLACK
6
CONTINUOUS
10
1.54724
20
1.33366
11
1.53937
21
1.33366
0
LINE
8
BLACK
6
CONTINUOUS
10
1.53937
20
1.33366
11
1.53937
21
1.36713
0
LINE
8
BLACK
6
CONTINUOUS
10
1.53937
20
1.36713
11
1.54724
21
1.36713
0
LINE
8
BLACK
6
CONTINUOUS
10
1.54724
20
1.36713
11
1.54724
21
1.33366
0
LINE
8
BLACK
6
CONTINUOUS
10
1.56299
20
1.33366
11
1.55512
21
1.33366
0
LINE
8
BLACK
6
CONTINUOUS
10
1.55512
20
1.33366
11
1.55512
21
1.36713
0
LINE
8
BLACK
6
CONTINUOUS
10
1.55512
20
1.36713
11
1.56299
21
1.36713
0
LINE
8
BLACK
6
CONTINUOUS
10
1.56299
20
1.36713
11
1.56299
21
1.33366
0
LINE
8
BLACK
6
CONTINUOUS
10
1.44127
20
1.47071
11
1.44446
21
1.46857
0
LINE
8
BLACK
6
CONTINUOUS
10
1.44446
20
1.46857
11
1.44659
21
1.46538
0
LINE
8
BLACK
6
CONTINUOUS
10
1.44659
20
1.46538
11
1.44734
21
1.46161
0
LINE
8
BLACK
6
CONTINUOUS
10
1.44734
20
1.46161
11
1.44734
21
1.42421
0
LINE
8
BLACK
6
CONTINUOUS
10
1.44734
20
1.42421
11
1.44659
21
1.42045
0
LINE
8
BLACK
6
CONTINUOUS
10
1.44659
20
1.42045
11
1.44446
21
1.41725
0
LINE
8
BLACK
6
CONTINUOUS
10
1.44446
20
1.41725
11
1.44127
21
1.41512
0
LINE
8
BLACK
6
CONTINUOUS
10
1.44127
20
1.41512
11
1.4375
21
1.41437
0
LINE
8
BLACK
6
CONTINUOUS
10
1.4375
20
1.41437
11
1.41781
21
1.41437
0
LINE
8
BLACK
6
CONTINUOUS
10
1.41781
20
1.41437
11
1.41405
21
1.41512
0
LINE
8
BLACK
6
CONTINUOUS
10
1.41405
20
1.41512
11
1.41086
21
1.41725
0
LINE
8
BLACK
6
CONTINUOUS
10
1.41086
20
1.41725
11
1.40872
21
1.42045
0
LINE
8
BLACK
6
CONTINUOUS
10
1.40872
20
1.42045
11
1.40797
21
1.42421
0
LINE
8
BLACK
6
CONTINUOUS
10
1.40797
20
1.42421
11
1.40797
21
1.46161
0
LINE
8
BLACK
6
CONTINUOUS
10
1.40797
20
1.46161
11
1.40872
21
1.46538
0
LINE
8
BLACK
6
CONTINUOUS
10
1.40872
20
1.46538
11
1.41086
21
1.46857
0
LINE
8
BLACK
6
CONTINUOUS
10
1.41086
20
1.46857
11
1.41405
21
1.47071
0
LINE
8
BLACK
6
CONTINUOUS
10
1.41405
20
1.47071
11
1.41781
21
1.47146
0
LINE
8
BLACK
6
CONTINUOUS
10
1.41781
20
1.47146
11
1.4375
21
1.47146
0
LINE
8
BLACK
6
CONTINUOUS
10
1.4375
20
1.47146
11
1.44127
21
1.47071
0
LINE
8
BLACK
6
CONTINUOUS
10
1.51607
20
1.47071
11
1.51926
21
1.46857
0
LINE
8
BLACK
6
CONTINUOUS
10
1.51926
20
1.46857
11
1.5214
21
1.46538
0
LINE
8
BLACK
6
CONTINUOUS
10
1.5214
20
1.46538
11
1.52215
21
1.46161
0
LINE
8
BLACK
6
CONTINUOUS
10
1.52215
20
1.46161
11
1.52215
21
1.42421
0
LINE
8
BLACK
6
CONTINUOUS
10
1.52215
20
1.42421
11
1.5214
21
1.42045
0
LINE
8
BLACK
6
CONTINUOUS
10
1.5214
20
1.42045
11
1.51926
21
1.41725
0
LINE
8
BLACK
6
CONTINUOUS
10
1.51926
20
1.41725
11
1.51607
21
1.41512
0
LINE
8
BLACK
6
CONTINUOUS
10
1.51607
20
1.41512
11
1.5123
21
1.41437
0
LINE
8
BLACK
6
CONTINUOUS
10
1.5123
20
1.41437
11
1.49262
21
1.41437
0
LINE
8
BLACK
6
CONTINUOUS
10
1.49262
20
1.41437
11
1.48885
21
1.41512
0
LINE
8
BLACK
6
CONTINUOUS
10
1.48885
20
1.41512
11
1.48566
21
1.41725
0
LINE
8
BLACK
6
CONTINUOUS
10
1.48566
20
1.41725
11
1.48352
21
1.42045
0
LINE
8
BLACK
6
CONTINUOUS
10
1.48352
20
1.42045
11
1.48278
21
1.42421
0
LINE
8
BLACK
6
CONTINUOUS
10
1.48278
20
1.42421
11
1.48278
21
1.46161
0
LINE
8
BLACK
6
CONTINUOUS
10
1.48278
20
1.46161
11
1.48352
21
1.46538
0
LINE
8
BLACK
6
CONTINUOUS
10
1.48352
20
1.46538
11
1.48566
21
1.46857
0
LINE
8
BLACK
6
CONTINUOUS
10
1.48566
20
1.46857
11
1.48885
21
1.47071
0
LINE
8
BLACK
6
CONTINUOUS
10
1.48885
20
1.47071
11
1.49262
21
1.47146
0
LINE
8
BLACK
6
CONTINUOUS
10
1.49262
20
1.47146
11
1.5123
21
1.47146
0
LINE
8
BLACK
6
CONTINUOUS
10
1.5123
20
1.47146
11
1.51607
21
1.47071
0
LINE
8
BLACK
6
CONTINUOUS
10
1.58497
20
1.47071
11
1.58816
21
1.46857
0
LINE
8
BLACK
6
CONTINUOUS
10
1.58816
20
1.46857
11
1.59029
21
1.46538
0
LINE
8
BLACK
6
CONTINUOUS
10
1.59029
20
1.46538
11
1.59104
21
1.46161
0
LINE
8
BLACK
6
CONTINUOUS
10
1.59104
20
1.46161
11
1.59104
21
1.42421
0
LINE
8
BLACK
6
CONTINUOUS
10
1.59104
20
1.42421
11
1.59029
21
1.42045
0
LINE
8
BLACK
6
CONTINUOUS
10
1.59029
20
1.42045
11
1.58816
21
1.41725
0
LINE
8
BLACK
6
CONTINUOUS
10
1.58816
20
1.41725
11
1.58497
21
1.41512
0
LINE
8
BLACK
6
CONTINUOUS
10
1.58497
20
1.41512
11
1.5812
21
1.41437
0
LINE
8
BLACK
6
CONTINUOUS
10
1.5812
20
1.41437
11
1.56152
21
1.41437
0
LINE
8
BLACK
6
CONTINUOUS
10
1.56152
20
1.41437
11
1.55775
21
1.41512
0
LINE
8
BLACK
6
CONTINUOUS
10
1.55775
20
1.41512
11
1.55456
21
1.41725
0
LINE
8
BLACK
6
CONTINUOUS
10
1.55456
20
1.41725
11
1.55242
21
1.42045
0
LINE
8
BLACK
6
CONTINUOUS
10
1.55242
20
1.42045
11
1.55167
21
1.42421
0
LINE
8
BLACK
6
CONTINUOUS
10
1.55167
20
1.42421
11
1.55167
21
1.46161
0
LINE
8
BLACK
6
CONTINUOUS
10
1.55167
20
1.46161
11
1.55242
21
1.46538
0
LINE
8
BLACK
6
CONTINUOUS
10
1.55242
20
1.46538
11
1.55456
21
1.46857
0
LINE
8
BLACK
6
CONTINUOUS
10
1.55456
20
1.46857
11
1.55775
21
1.47071
0
LINE
8
BLACK
6
CONTINUOUS
10
1.55775
20
1.47071
11
1.56152
21
1.47146
0
LINE
8
BLACK
6
CONTINUOUS
10
1.56152
20
1.47146
11
1.5812
21
1.47146
0
LINE
8
BLACK
6
CONTINUOUS
10
1.5812
20
1.47146
11
1.58497
21
1.47071
0
LINE
8
BLACK
6
CONTINUOUS
10
1.65977
20
1.47071
11
1.66296
21
1.46857
0
LINE
8
BLACK
6
CONTINUOUS
10
1.66296
20
1.46857
11
1.6651
21
1.46538
0
LINE
8
BLACK
6
CONTINUOUS
10
1.6651
20
1.46538
11
1.66585
21
1.46161
0
LINE
8
BLACK
6
CONTINUOUS
10
1.66585
20
1.46161
11
1.66585
21
1.42421
0
LINE
8
BLACK
6
CONTINUOUS
10
1.66585
20
1.42421
11
1.6651
21
1.42045
0
LINE
8
BLACK
6
CONTINUOUS
10
1.6651
20
1.42045
11
1.66296
21
1.41725
0
LINE
8
BLACK
6
CONTINUOUS
10
1.66296
20
1.41725
11
1.65977
21
1.41512
0
LINE
8
BLACK
6
CONTINUOUS
10
1.65977
20
1.41512
11
1.656
21
1.41437
0
LINE
8
BLACK
6
CONTINUOUS
10
1.656
20
1.41437
11
1.63632
21
1.41437
0
LINE
8
BLACK
6
CONTINUOUS
10
1.63632
20
1.41437
11
1.63255
21
1.41512
0
LINE
8
BLACK
6
CONTINUOUS
10
1.63255
20
1.41512
11
1.62936
21
1.41725
0
LINE
8
BLACK
6
CONTINUOUS
10
1.62936
20
1.41725
11
1.62723
21
1.42045
0
LINE
8
BLACK
6
CONTINUOUS
10
1.62723
20
1.42045
11
1.62648
21
1.42421
0
LINE
8
BLACK
6
CONTINUOUS
10
1.62648
20
1.42421
11
1.62648
21
1.46161
0
LINE
8
BLACK
6
CONTINUOUS
10
1.62648
20
1.46161
11
1.62723
21
1.46538
0
LINE
8
BLACK
6
CONTINUOUS
10
1.62723
20
1.46538
11
1.62936
21
1.46857
0
LINE
8
BLACK
6
CONTINUOUS
10
1.62936
20
1.46857
11
1.63255
21
1.47071
0
LINE
8
BLACK
6
CONTINUOUS
10
1.63255
20
1.47071
11
1.63632
21
1.47146
0
LINE
8
BLACK
6
CONTINUOUS
10
1.63632
20
1.47146
11
1.656
21
1.47146
0
LINE
8
BLACK
6
CONTINUOUS
10
1.656
20
1.47146
11
1.65977
21
1.47071
0
LINE
8
BLACK
6
CONTINUOUS
10
1.19471
20
1.47661
11
1.1979
21
1.47448
0
LINE
8
BLACK
6
CONTINUOUS
10
1.1979
20
1.47448
11
1.20004
21
1.47129
0
LINE
8
BLACK
6
CONTINUOUS
10
1.20004
20
1.47129
11
1.20079
21
1.46752
0
LINE
8
BLACK
6
CONTINUOUS
10
1.20079
20
1.46752
11
1.20079
21
1.43012
0
LINE
8
BLACK
6
CONTINUOUS
10
1.20079
20
1.43012
11
1.20004
21
1.42635
0
LINE
8
BLACK
6
CONTINUOUS
10
1.20004
20
1.42635
11
1.1979
21
1.42316
0
LINE
8
BLACK
6
CONTINUOUS
10
1.1979
20
1.42316
11
1.19471
21
1.42102
0
LINE
8
BLACK
6
CONTINUOUS
10
1.19471
20
1.42102
11
1.19094
21
1.42028
0
LINE
8
BLACK
6
CONTINUOUS
10
1.19094
20
1.42028
11
1.17126
21
1.42028
0
LINE
8
BLACK
6
CONTINUOUS
10
1.17126
20
1.42028
11
1.16749
21
1.42102
0
LINE
8
BLACK
6
CONTINUOUS
10
1.16749
20
1.42102
11
1.1643
21
1.42316
0
LINE
8
BLACK
6
CONTINUOUS
10
1.1643
20
1.42316
11
1.16217
21
1.42635
0
LINE
8
BLACK
6
CONTINUOUS
10
1.16217
20
1.42635
11
1.16142
21
1.43012
0
LINE
8
BLACK
6
CONTINUOUS
10
1.16142
20
1.43012
11
1.16142
21
1.46752
0
LINE
8
BLACK
6
CONTINUOUS
10
1.16142
20
1.46752
11
1.16217
21
1.47129
0
LINE
8
BLACK
6
CONTINUOUS
10
1.16217
20
1.47129
11
1.1643
21
1.47448
0
LINE
8
BLACK
6
CONTINUOUS
10
1.1643
20
1.47448
11
1.16749
21
1.47661
0
LINE
8
BLACK
6
CONTINUOUS
10
1.16749
20
1.47661
11
1.17126
21
1.47736
0
LINE
8
BLACK
6
CONTINUOUS
10
1.17126
20
1.47736
11
1.19094
21
1.47736
0
LINE
8
BLACK
6
CONTINUOUS
10
1.19094
20
1.47736
11
1.19471
21
1.47661
0
LINE
8
BLACK
6
CONTINUOUS
10
1.26951
20
1.47661
11
1.27271
21
1.47448
0
LINE
8
BLACK
6
CONTINUOUS
10
1.27271
20
1.47448
11
1.27484
21
1.47129
0
LINE
8
BLACK
6
CONTINUOUS
10
1.27484
20
1.47129
11
1.27559
21
1.46752
0
LINE
8
BLACK
6
CONTINUOUS
10
1.27559
20
1.46752
11
1.27559
21
1.43012
0
LINE
8
BLACK
6
CONTINUOUS
10
1.27559
20
1.43012
11
1.27484
21
1.42635
0
LINE
8
BLACK
6
CONTINUOUS
10
1.27484
20
1.42635
11
1.27271
21
1.42316
0
LINE
8
BLACK
6
CONTINUOUS
10
1.27271
20
1.42316
11
1.26951
21
1.42102
0
LINE
8
BLACK
6
CONTINUOUS
10
1.26951
20
1.42102
11
1.26575
21
1.42028
0
LINE
8
BLACK
6
CONTINUOUS
10
1.26575
20
1.42028
11
1.24606
21
1.42028
0
LINE
8
BLACK
6
CONTINUOUS
10
1.24606
20
1.42028
11
1.2423
21
1.42102
0
LINE
8
BLACK
6
CONTINUOUS
10
1.2423
20
1.42102
11
1.2391
21
1.42316
0
LINE
8
BLACK
6
CONTINUOUS
10
1.2391
20
1.42316
11
1.23697
21
1.42635
0
LINE
8
BLACK
6
CONTINUOUS
10
1.23697
20
1.42635
11
1.23622
21
1.43012
0
LINE
8
BLACK
6
CONTINUOUS
10
1.23622
20
1.43012
11
1.23622
21
1.46752
0
LINE
8
BLACK
6
CONTINUOUS
10
1.23622
20
1.46752
11
1.23697
21
1.47129
0
LINE
8
BLACK
6
CONTINUOUS
10
1.23697
20
1.47129
11
1.2391
21
1.47448
0
LINE
8
BLACK
6
CONTINUOUS
10
1.2391
20
1.47448
11
1.2423
21
1.47661
0
LINE
8
BLACK
6
CONTINUOUS
10
1.2423
20
1.47661
11
1.24606
21
1.47736
0
LINE
8
BLACK
6
CONTINUOUS
10
1.24606
20
1.47736
11
1.26575
21
1.47736
0
LINE
8
BLACK
6
CONTINUOUS
10
1.26575
20
1.47736
11
1.26951
21
1.47661
0
LINE
8
BLACK
6
CONTINUOUS
10
2.0889
20
1.54945
11
2.0921
21
1.54731
0
LINE
8
BLACK
6
CONTINUOUS
10
2.0921
20
1.54731
11
2.09423
21
1.54412
0
LINE
8
BLACK
6
CONTINUOUS
10
2.09423
20
1.54412
11
2.09498
21
1.54035
0
LINE
8
BLACK
6
CONTINUOUS
10
2.09498
20
1.54035
11
2.09498
21
1.50295
0
LINE
8
BLACK
6
CONTINUOUS
10
2.09498
20
1.50295
11
2.09423
21
1.49919
0
LINE
8
BLACK
6
CONTINUOUS
10
2.09423
20
1.49919
11
2.0921
21
1.49599
0
LINE
8
BLACK
6
CONTINUOUS
10
2.0921
20
1.49599
11
2.0889
21
1.49386
0
LINE
8
BLACK
6
CONTINUOUS
10
2.0889
20
1.49386
11
2.08514
21
1.49311
0
LINE
8
BLACK
6
CONTINUOUS
10
2.08514
20
1.49311
11
2.06545
21
1.49311
0
LINE
8
BLACK
6
CONTINUOUS
10
2.06545
20
1.49311
11
2.06169
21
1.49386
0
LINE
8
BLACK
6
CONTINUOUS
10
2.06169
20
1.49386
11
2.05849
21
1.49599
0
LINE
8
BLACK
6
CONTINUOUS
10
2.05849
20
1.49599
11
2.05636
21
1.49919
0
LINE
8
BLACK
6
CONTINUOUS
10
2.05636
20
1.49919
11
2.05561
21
1.50295
0
LINE
8
BLACK
6
CONTINUOUS
10
2.05561
20
1.50295
11
2.05561
21
1.54035
0
LINE
8
BLACK
6
CONTINUOUS
10
2.05561
20
1.54035
11
2.05636
21
1.54412
0
LINE
8
BLACK
6
CONTINUOUS
10
2.05636
20
1.54412
11
2.05849
21
1.54731
0
LINE
8
BLACK
6
CONTINUOUS
10
2.05849
20
1.54731
11
2.06169
21
1.54945
0
LINE
8
BLACK
6
CONTINUOUS
10
2.06169
20
1.54945
11
2.06545
21
1.5502
0
LINE
8
BLACK
6
CONTINUOUS
10
2.06545
20
1.5502
11
2.08514
21
1.5502
0
LINE
8
BLACK
6
CONTINUOUS
10
2.08514
20
1.5502
11
2.0889
21
1.54945
0
LINE
8
BLACK
6
CONTINUOUS
10
2.16371
20
1.54945
11
2.1669
21
1.54731
0
LINE
8
BLACK
6
CONTINUOUS
10
2.1669
20
1.54731
11
2.16903
21
1.54412
0
LINE
8
BLACK
6
CONTINUOUS
10
2.16903
20
1.54412
11
2.16978
21
1.54035
0
LINE
8
BLACK
6
CONTINUOUS
10
2.16978
20
1.54035
11
2.16978
21
1.50295
0
LINE
8
BLACK
6
CONTINUOUS
10
2.16978
20
1.50295
11
2.16903
21
1.49919
0
LINE
8
BLACK
6
CONTINUOUS
10
2.16903
20
1.49919
11
2.1669
21
1.49599
0
LINE
8
BLACK
6
CONTINUOUS
10
2.1669
20
1.49599
11
2.16371
21
1.49386
0
LINE
8
BLACK
6
CONTINUOUS
10
2.16371
20
1.49386
11
2.15994
21
1.49311
0
LINE
8
BLACK
6
CONTINUOUS
10
2.15994
20
1.49311
11
2.14026
21
1.49311
0
LINE
8
BLACK
6
CONTINUOUS
10
2.14026
20
1.49311
11
2.13649
21
1.49386
0
LINE
8
BLACK
6
CONTINUOUS
10
2.13649
20
1.49386
11
2.1333
21
1.49599
0
LINE
8
BLACK
6
CONTINUOUS
10
2.1333
20
1.49599
11
2.13116
21
1.49919
0
LINE
8
BLACK
6
CONTINUOUS
10
2.13116
20
1.49919
11
2.13041
21
1.50295
0
LINE
8
BLACK
6
CONTINUOUS
10
2.13041
20
1.50295
11
2.13041
21
1.54035
0
LINE
8
BLACK
6
CONTINUOUS
10
2.13041
20
1.54035
11
2.13116
21
1.54412
0
LINE
8
BLACK
6
CONTINUOUS
10
2.13116
20
1.54412
11
2.1333
21
1.54731
0
LINE
8
BLACK
6
CONTINUOUS
10
2.1333
20
1.54731
11
2.13649
21
1.54945
0
LINE
8
BLACK
6
CONTINUOUS
10
2.13649
20
1.54945
11
2.14026
21
1.5502
0
LINE
8
BLACK
6
CONTINUOUS
10
2.14026
20
1.5502
11
2.15994
21
1.5502
0
LINE
8
BLACK
6
CONTINUOUS
10
2.15994
20
1.5502
11
2.16371
21
1.54945
0
LINE
8
BLACK
6
CONTINUOUS
10
1.83398
20
1.55634
11
1.83718
21
1.5542
0
LINE
8
BLACK
6
CONTINUOUS
10
1.83718
20
1.5542
11
1.83931
21
1.55101
0
LINE
8
BLACK
6
CONTINUOUS
10
1.83931
20
1.55101
11
1.84006
21
1.54724
0
LINE
8
BLACK
6
CONTINUOUS
10
1.84006
20
1.54724
11
1.84006
21
1.51181
0
LINE
8
BLACK
6
CONTINUOUS
10
1.84006
20
1.51181
11
1.83931
21
1.50804
0
LINE
8
BLACK
6
CONTINUOUS
10
1.83931
20
1.50804
11
1.83718
21
1.50485
0
LINE
8
BLACK
6
CONTINUOUS
10
1.83718
20
1.50485
11
1.83398
21
1.50272
0
LINE
8
BLACK
6
CONTINUOUS
10
1.83398
20
1.50272
11
1.83022
21
1.50197
0
LINE
8
BLACK
6
CONTINUOUS
10
1.83022
20
1.50197
11
1.80955
21
1.50197
0
LINE
8
BLACK
6
CONTINUOUS
10
1.80955
20
1.50197
11
1.80578
21
1.50272
0
LINE
8
BLACK
6
CONTINUOUS
10
1.80578
20
1.50272
11
1.80259
21
1.50485
0
LINE
8
BLACK
6
CONTINUOUS
10
1.80259
20
1.50485
11
1.80045
21
1.50804
0
LINE
8
BLACK
6
CONTINUOUS
10
1.80045
20
1.50804
11
1.7997
21
1.51181
0
LINE
8
BLACK
6
CONTINUOUS
10
1.7997
20
1.51181
11
1.7997
21
1.54724
0
LINE
8
BLACK
6
CONTINUOUS
10
1.7997
20
1.54724
11
1.80045
21
1.55101
0
LINE
8
BLACK
6
CONTINUOUS
10
1.80045
20
1.55101
11
1.80259
21
1.5542
0
LINE
8
BLACK
6
CONTINUOUS
10
1.80259
20
1.5542
11
1.80578
21
1.55634
0
LINE
8
BLACK
6
CONTINUOUS
10
1.80578
20
1.55634
11
1.80955
21
1.55709
0
LINE
8
BLACK
6
CONTINUOUS
10
1.80955
20
1.55709
11
1.83022
21
1.55709
0
LINE
8
BLACK
6
CONTINUOUS
10
1.83022
20
1.55709
11
1.83398
21
1.55634
0
LINE
8
BLACK
6
CONTINUOUS
10
1.90583
20
1.55634
11
1.90903
21
1.5542
0
LINE
8
BLACK
6
CONTINUOUS
10
1.90903
20
1.5542
11
1.91116
21
1.55101
0
LINE
8
BLACK
6
CONTINUOUS
10
1.91116
20
1.55101
11
1.91191
21
1.54724
0
LINE
8
BLACK
6
CONTINUOUS
10
1.91191
20
1.54724
11
1.91191
21
1.51181
0
LINE
8
BLACK
6
CONTINUOUS
10
1.91191
20
1.51181
11
1.91116
21
1.50804
0
LINE
8
BLACK
6
CONTINUOUS
10
1.91116
20
1.50804
11
1.90903
21
1.50485
0
LINE
8
BLACK
6
CONTINUOUS
10
1.90903
20
1.50485
11
1.90583
21
1.50272
0
LINE
8
BLACK
6
CONTINUOUS
10
1.90583
20
1.50272
11
1.90207
21
1.50197
0
LINE
8
BLACK
6
CONTINUOUS
10
1.90207
20
1.50197
11
1.8814
21
1.50197
0
LINE
8
BLACK
6
CONTINUOUS
10
1.8814
20
1.50197
11
1.87763
21
1.50272
0
LINE
8
BLACK
6
CONTINUOUS
10
1.87763
20
1.50272
11
1.87444
21
1.50485
0
LINE
8
BLACK
6
CONTINUOUS
10
1.87444
20
1.50485
11
1.8723
21
1.50804
0
LINE
8
BLACK
6
CONTINUOUS
10
1.8723
20
1.50804
11
1.87156
21
1.51181
0
LINE
8
BLACK
6
CONTINUOUS
10
1.87156
20
1.51181
11
1.87156
21
1.54724
0
LINE
8
BLACK
6
CONTINUOUS
10
1.87156
20
1.54724
11
1.8723
21
1.55101
0
LINE
8
BLACK
6
CONTINUOUS
10
1.8723
20
1.55101
11
1.87444
21
1.5542
0
LINE
8
BLACK
6
CONTINUOUS
10
1.87444
20
1.5542
11
1.87763
21
1.55634
0
LINE
8
BLACK
6
CONTINUOUS
10
1.87763
20
1.55634
11
1.8814
21
1.55709
0
LINE
8
BLACK
6
CONTINUOUS
10
1.8814
20
1.55709
11
1.90207
21
1.55709
0
LINE
8
BLACK
6
CONTINUOUS
10
1.90207
20
1.55709
11
1.90583
21
1.55634
0
LINE
8
BLACK
6
CONTINUOUS
10
2.32441
20
1.56417
11
2.25354
21
1.56417
0
LINE
8
BLACK
6
CONTINUOUS
10
2.25354
20
1.56417
11
2.25354
21
1.6626
0
LINE
8
BLACK
6
CONTINUOUS
10
2.25354
20
1.6626
11
2.32441
21
1.6626
0
LINE
8
BLACK
6
CONTINUOUS
10
2.32441
20
1.6626
11
2.32441
21
1.56417
0
LINE
8
BLACK
6
CONTINUOUS
10
2.52798
20
1.66185
11
2.53117
21
1.65972
0
LINE
8
BLACK
6
CONTINUOUS
10
2.53117
20
1.65972
11
2.53331
21
1.65652
0
LINE
8
BLACK
6
CONTINUOUS
10
2.53331
20
1.65652
11
2.53406
21
1.65276
0
LINE
8
BLACK
6
CONTINUOUS
10
2.53406
20
1.65276
11
2.53406
21
1.63307
0
LINE
8
BLACK
6
CONTINUOUS
10
2.53406
20
1.63307
11
2.53331
21
1.6293
0
LINE
8
BLACK
6
CONTINUOUS
10
2.53331
20
1.6293
11
2.53117
21
1.62611
0
LINE
8
BLACK
6
CONTINUOUS
10
2.53117
20
1.62611
11
2.52798
21
1.62398
0
LINE
8
BLACK
6
CONTINUOUS
10
2.52798
20
1.62398
11
2.52421
21
1.62323
0
LINE
8
BLACK
6
CONTINUOUS
10
2.52421
20
1.62323
11
2.48681
21
1.62323
0
LINE
8
BLACK
6
CONTINUOUS
10
2.48681
20
1.62323
11
2.48304
21
1.62398
0
LINE
8
BLACK
6
CONTINUOUS
10
2.48304
20
1.62398
11
2.47985
21
1.62611
0
LINE
8
BLACK
6
CONTINUOUS
10
2.47985
20
1.62611
11
2.47772
21
1.6293
0
LINE
8
BLACK
6
CONTINUOUS
10
2.47772
20
1.6293
11
2.47697
21
1.63307
0
LINE
8
BLACK
6
CONTINUOUS
10
2.47697
20
1.63307
11
2.47697
21
1.65276
0
LINE
8
BLACK
6
CONTINUOUS
10
2.47697
20
1.65276
11
2.47772
21
1.65652
0
LINE
8
BLACK
6
CONTINUOUS
10
2.47772
20
1.65652
11
2.47985
21
1.65972
0
LINE
8
BLACK
6
CONTINUOUS
10
2.47985
20
1.65972
11
2.48304
21
1.66185
0
LINE
8
BLACK
6
CONTINUOUS
10
2.48304
20
1.66185
11
2.48681
21
1.6626
0
LINE
8
BLACK
6
CONTINUOUS
10
2.48681
20
1.6626
11
2.52421
21
1.6626
0
LINE
8
BLACK
6
CONTINUOUS
10
2.52421
20
1.6626
11
2.52798
21
1.66185
0
LINE
8
BLACK
6
CONTINUOUS
10
2.44924
20
1.66382
11
2.45243
21
1.66168
0
LINE
8
BLACK
6
CONTINUOUS
10
2.45243
20
1.66168
11
2.45457
21
1.65849
0
LINE
8
BLACK
6
CONTINUOUS
10
2.45457
20
1.65849
11
2.45531
21
1.65472
0
LINE
8
BLACK
6
CONTINUOUS
10
2.45531
20
1.65472
11
2.45531
21
1.63504
0
LINE
8
BLACK
6
CONTINUOUS
10
2.45531
20
1.63504
11
2.45457
21
1.63127
0
LINE
8
BLACK
6
CONTINUOUS
10
2.45457
20
1.63127
11
2.45243
21
1.62808
0
LINE
8
BLACK
6
CONTINUOUS
10
2.45243
20
1.62808
11
2.44924
21
1.62595
0
LINE
8
BLACK
6
CONTINUOUS
10
2.44924
20
1.62595
11
2.44547
21
1.6252
0
LINE
8
BLACK
6
CONTINUOUS
10
2.44547
20
1.6252
11
2.40807
21
1.6252
0
LINE
8
BLACK
6
CONTINUOUS
10
2.40807
20
1.6252
11
2.4043
21
1.62595
0
LINE
8
BLACK
6
CONTINUOUS
10
2.4043
20
1.62595
11
2.40111
21
1.62808
0
LINE
8
BLACK
6
CONTINUOUS
10
2.40111
20
1.62808
11
2.39898
21
1.63127
0
LINE
8
BLACK
6
CONTINUOUS
10
2.39898
20
1.63127
11
2.39823
21
1.63504
0
LINE
8
BLACK
6
CONTINUOUS
10
2.39823
20
1.63504
11
2.39823
21
1.65472
0
LINE
8
BLACK
6
CONTINUOUS
10
2.39823
20
1.65472
11
2.39898
21
1.65849
0
LINE
8
BLACK
6
CONTINUOUS
10
2.39898
20
1.65849
11
2.40111
21
1.66168
0
LINE
8
BLACK
6
CONTINUOUS
10
2.40111
20
1.66168
11
2.4043
21
1.66382
0
LINE
8
BLACK
6
CONTINUOUS
10
2.4043
20
1.66382
11
2.40807
21
1.66457
0
LINE
8
BLACK
6
CONTINUOUS
10
2.40807
20
1.66457
11
2.44547
21
1.66457
0
LINE
8
BLACK
6
CONTINUOUS
10
2.44547
20
1.66457
11
2.44924
21
1.66382
0
LINE
8
BLACK
6
CONTINUOUS
10
2.52798
20
1.73665
11
2.53117
21
1.73452
0
LINE
8
BLACK
6
CONTINUOUS
10
2.53117
20
1.73452
11
2.53331
21
1.73133
0
LINE
8
BLACK
6
CONTINUOUS
10
2.53331
20
1.73133
11
2.53406
21
1.72756
0
LINE
8
BLACK
6
CONTINUOUS
10
2.53406
20
1.72756
11
2.53406
21
1.70787
0
LINE
8
BLACK
6
CONTINUOUS
10
2.53406
20
1.70787
11
2.53331
21
1.70411
0
LINE
8
BLACK
6
CONTINUOUS
10
2.53331
20
1.70411
11
2.53117
21
1.70091
0
LINE
8
BLACK
6
CONTINUOUS
10
2.53117
20
1.70091
11
2.52798
21
1.69878
0
LINE
8
BLACK
6
CONTINUOUS
10
2.52798
20
1.69878
11
2.52421
21
1.69803
0
LINE
8
BLACK
6
CONTINUOUS
10
2.52421
20
1.69803
11
2.48681
21
1.69803
0
LINE
8
BLACK
6
CONTINUOUS
10
2.48681
20
1.69803
11
2.48304
21
1.69878
0
LINE
8
BLACK
6
CONTINUOUS
10
2.48304
20
1.69878
11
2.47985
21
1.70091
0
LINE
8
BLACK
6
CONTINUOUS
10
2.47985
20
1.70091
11
2.47772
21
1.70411
0
LINE
8
BLACK
6
CONTINUOUS
10
2.47772
20
1.70411
11
2.47697
21
1.70787
0
LINE
8
BLACK
6
CONTINUOUS
10
2.47697
20
1.70787
11
2.47697
21
1.72756
0
LINE
8
BLACK
6
CONTINUOUS
10
2.47697
20
1.72756
11
2.47772
21
1.73133
0
LINE
8
BLACK
6
CONTINUOUS
10
2.47772
20
1.73133
11
2.47985
21
1.73452
0
LINE
8
BLACK
6
CONTINUOUS
10
2.47985
20
1.73452
11
2.48304
21
1.73665
0
LINE
8
BLACK
6
CONTINUOUS
10
2.48304
20
1.73665
11
2.48681
21
1.7374
0
LINE
8
BLACK
6
CONTINUOUS
10
2.48681
20
1.7374
11
2.52421
21
1.7374
0
LINE
8
BLACK
6
CONTINUOUS
10
2.52421
20
1.7374
11
2.52798
21
1.73665
0
LINE
8
BLACK
6
CONTINUOUS
10
2.44924
20
1.73862
11
2.45243
21
1.73649
0
LINE
8
BLACK
6
CONTINUOUS
10
2.45243
20
1.73649
11
2.45457
21
1.73329
0
LINE
8
BLACK
6
CONTINUOUS
10
2.45457
20
1.73329
11
2.45531
21
1.72953
0
LINE
8
BLACK
6
CONTINUOUS
10
2.45531
20
1.72953
11
2.45531
21
1.70984
0
LINE
8
BLACK
6
CONTINUOUS
10
2.45531
20
1.70984
11
2.45457
21
1.70608
0
LINE
8
BLACK
6
CONTINUOUS
10
2.45457
20
1.70608
11
2.45243
21
1.70288
0
LINE
8
BLACK
6
CONTINUOUS
10
2.45243
20
1.70288
11
2.44924
21
1.70075
0
LINE
8
BLACK
6
CONTINUOUS
10
2.44924
20
1.70075
11
2.44547
21
1.7
0
LINE
8
BLACK
6
CONTINUOUS
10
2.44547
20
1.7
11
2.40807
21
1.7
0
LINE
8
BLACK
6
CONTINUOUS
10
2.40807
20
1.7
11
2.4043
21
1.70075
0
LINE
8
BLACK
6
CONTINUOUS
10
2.4043
20
1.70075
11
2.40111
21
1.70288
0
LINE
8
BLACK
6
CONTINUOUS
10
2.40111
20
1.70288
11
2.39898
21
1.70608
0
LINE
8
BLACK
6
CONTINUOUS
10
2.39898
20
1.70608
11
2.39823
21
1.70984
0
LINE
8
BLACK
6
CONTINUOUS
10
2.39823
20
1.70984
11
2.39823
21
1.72953
0
LINE
8
BLACK
6
CONTINUOUS
10
2.39823
20
1.72953
11
2.39898
21
1.73329
0
LINE
8
BLACK
6
CONTINUOUS
10
2.39898
20
1.73329
11
2.40111
21
1.73649
0
LINE
8
BLACK
6
CONTINUOUS
10
2.40111
20
1.73649
11
2.4043
21
1.73862
0
LINE
8
BLACK
6
CONTINUOUS
10
2.4043
20
1.73862
11
2.40807
21
1.73937
0
LINE
8
BLACK
6
CONTINUOUS
10
2.40807
20
1.73937
11
2.44547
21
1.73937
0
LINE
8
BLACK
6
CONTINUOUS
10
2.44547
20
1.73937
11
2.44924
21
1.73862
0
LINE
8
BLACK
6
CONTINUOUS
10
2.32441
20
1.72165
11
2.25354
21
1.72165
0
LINE
8
BLACK
6
CONTINUOUS
10
2.25354
20
1.72165
11
2.25354
21
1.82008
0
LINE
8
BLACK
6
CONTINUOUS
10
2.25354
20
1.82008
11
2.32441
21
1.82008
0
LINE
8
BLACK
6
CONTINUOUS
10
2.32441
20
1.82008
11
2.32441
21
1.72165
0
LINE
8
BLACK
6
CONTINUOUS
10
2.4581
20
1.85279
11
2.46129
21
1.85066
0
LINE
8
BLACK
6
CONTINUOUS
10
2.46129
20
1.85066
11
2.46342
21
1.84747
0
LINE
8
BLACK
6
CONTINUOUS
10
2.46342
20
1.84747
11
2.46417
21
1.8437
0
LINE
8
BLACK
6
CONTINUOUS
10
2.46417
20
1.8437
11
2.46417
21
1.82303
0
LINE
8
BLACK
6
CONTINUOUS
10
2.46417
20
1.82303
11
2.46342
21
1.81926
0
LINE
8
BLACK
6
CONTINUOUS
10
2.46342
20
1.81926
11
2.46129
21
1.81607
0
LINE
8
BLACK
6
CONTINUOUS
10
2.46129
20
1.81607
11
2.4581
21
1.81394
0
LINE
8
BLACK
6
CONTINUOUS
10
2.4581
20
1.81394
11
2.45433
21
1.81319
0
LINE
8
BLACK
6
CONTINUOUS
10
2.45433
20
1.81319
11
2.4189
21
1.81319
0
LINE
8
BLACK
6
CONTINUOUS
10
2.4189
20
1.81319
11
2.41513
21
1.81394
0
LINE
8
BLACK
6
CONTINUOUS
10
2.41513
20
1.81394
11
2.41194
21
1.81607
0
LINE
8
BLACK
6
CONTINUOUS
10
2.41194
20
1.81607
11
2.4098
21
1.81926
0
LINE
8
BLACK
6
CONTINUOUS
10
2.4098
20
1.81926
11
2.40906
21
1.82303
0
LINE
8
BLACK
6
CONTINUOUS
10
2.40906
20
1.82303
11
2.40906
21
1.8437
0
LINE
8
BLACK
6
CONTINUOUS
10
2.40906
20
1.8437
11
2.4098
21
1.84747
0
LINE
8
BLACK
6
CONTINUOUS
10
2.4098
20
1.84747
11
2.41194
21
1.85066
0
LINE
8
BLACK
6
CONTINUOUS
10
2.41194
20
1.85066
11
2.41513
21
1.85279
0
LINE
8
BLACK
6
CONTINUOUS
10
2.41513
20
1.85279
11
2.4189
21
1.85354
0
LINE
8
BLACK
6
CONTINUOUS
10
2.4189
20
1.85354
11
2.45433
21
1.85354
0
LINE
8
BLACK
6
CONTINUOUS
10
2.45433
20
1.85354
11
2.4581
21
1.85279
0
LINE
8
BLACK
6
CONTINUOUS
10
2.53684
20
1.85279
11
2.54003
21
1.85066
0
LINE
8
BLACK
6
CONTINUOUS
10
2.54003
20
1.85066
11
2.54216
21
1.84747
0
LINE
8
BLACK
6
CONTINUOUS
10
2.54216
20
1.84747
11
2.54291
21
1.8437
0
LINE
8
BLACK
6
CONTINUOUS
10
2.54291
20
1.8437
11
2.54291
21
1.82303
0
LINE
8
BLACK
6
CONTINUOUS
10
2.54291
20
1.82303
11
2.54216
21
1.81926
0
LINE
8
BLACK
6
CONTINUOUS
10
2.54216
20
1.81926
11
2.54003
21
1.81607
0
LINE
8
BLACK
6
CONTINUOUS
10
2.54003
20
1.81607
11
2.53684
21
1.81394
0
LINE
8
BLACK
6
CONTINUOUS
10
2.53684
20
1.81394
11
2.53307
21
1.81319
0
LINE
8
BLACK
6
CONTINUOUS
10
2.53307
20
1.81319
11
2.49764
21
1.81319
0
LINE
8
BLACK
6
CONTINUOUS
10
2.49764
20
1.81319
11
2.49387
21
1.81394
0
LINE
8
BLACK
6
CONTINUOUS
10
2.49387
20
1.81394
11
2.49068
21
1.81607
0
LINE
8
BLACK
6
CONTINUOUS
10
2.49068
20
1.81607
11
2.48854
21
1.81926
0
LINE
8
BLACK
6
CONTINUOUS
10
2.48854
20
1.81926
11
2.4878
21
1.82303
0
LINE
8
BLACK
6
CONTINUOUS
10
2.4878
20
1.82303
11
2.4878
21
1.8437
0
LINE
8
BLACK
6
CONTINUOUS
10
2.4878
20
1.8437
11
2.48854
21
1.84747
0
LINE
8
BLACK
6
CONTINUOUS
10
2.48854
20
1.84747
11
2.49068
21
1.85066
0
LINE
8
BLACK
6
CONTINUOUS
10
2.49068
20
1.85066
11
2.49387
21
1.85279
0
LINE
8
BLACK
6
CONTINUOUS
10
2.49387
20
1.85279
11
2.49764
21
1.85354
0
LINE
8
BLACK
6
CONTINUOUS
10
2.49764
20
1.85354
11
2.53307
21
1.85354
0
LINE
8
BLACK
6
CONTINUOUS
10
2.53307
20
1.85354
11
2.53684
21
1.85279
0
LINE
8
BLACK
6
CONTINUOUS
10
2.4581
20
1.92464
11
2.46129
21
1.92251
0
LINE
8
BLACK
6
CONTINUOUS
10
2.46129
20
1.92251
11
2.46342
21
1.91932
0
LINE
8
BLACK
6
CONTINUOUS
10
2.46342
20
1.91932
11
2.46417
21
1.91555
0
LINE
8
BLACK
6
CONTINUOUS
10
2.46417
20
1.91555
11
2.46417
21
1.89488
0
LINE
8
BLACK
6
CONTINUOUS
10
2.46417
20
1.89488
11
2.46342
21
1.89112
0
LINE
8
BLACK
6
CONTINUOUS
10
2.46342
20
1.89112
11
2.46129
21
1.88792
0
LINE
8
BLACK
6
CONTINUOUS
10
2.46129
20
1.88792
11
2.4581
21
1.88579
0
LINE
8
BLACK
6
CONTINUOUS
10
2.4581
20
1.88579
11
2.45433
21
1.88504
0
LINE
8
BLACK
6
CONTINUOUS
10
2.45433
20
1.88504
11
2.4189
21
1.88504
0
LINE
8
BLACK
6
CONTINUOUS
10
2.4189
20
1.88504
11
2.41513
21
1.88579
0
LINE
8
BLACK
6
CONTINUOUS
10
2.41513
20
1.88579
11
2.41194
21
1.88792
0
LINE
8
BLACK
6
CONTINUOUS
10
2.41194
20
1.88792
11
2.4098
21
1.89112
0
LINE
8
BLACK
6
CONTINUOUS
10
2.4098
20
1.89112
11
2.40906
21
1.89488
0
LINE
8
BLACK
6
CONTINUOUS
10
2.40906
20
1.89488
11
2.40906
21
1.91555
0
LINE
8
BLACK
6
CONTINUOUS
10
2.40906
20
1.91555
11
2.4098
21
1.91932
0
LINE
8
BLACK
6
CONTINUOUS
10
2.4098
20
1.91932
11
2.41194
21
1.92251
0
LINE
8
BLACK
6
CONTINUOUS
10
2.41194
20
1.92251
11
2.41513
21
1.92464
0
LINE
8
BLACK
6
CONTINUOUS
10
2.41513
20
1.92464
11
2.4189
21
1.92539
0
LINE
8
BLACK
6
CONTINUOUS
10
2.4189
20
1.92539
11
2.45433
21
1.92539
0
LINE
8
BLACK
6
CONTINUOUS
10
2.45433
20
1.92539
11
2.4581
21
1.92464
0
LINE
8
BLACK
6
CONTINUOUS
10
2.53684
20
1.92464
11
2.54003
21
1.92251
0
LINE
8
BLACK
6
CONTINUOUS
10
2.54003
20
1.92251
11
2.54216
21
1.91932
0
LINE
8
BLACK
6
CONTINUOUS
10
2.54216
20
1.91932
11
2.54291
21
1.91555
0
LINE
8
BLACK
6
CONTINUOUS
10
2.54291
20
1.91555
11
2.54291
21
1.89488
0
LINE
8
BLACK
6
CONTINUOUS
10
2.54291
20
1.89488
11
2.54216
21
1.89112
0
LINE
8
BLACK
6
CONTINUOUS
10
2.54216
20
1.89112
11
2.54003
21
1.88792
0
LINE
8
BLACK
6
CONTINUOUS
10
2.54003
20
1.88792
11
2.53684
21
1.88579
0
LINE
8
BLACK
6
CONTINUOUS
10
2.53684
20
1.88579
11
2.53307
21
1.88504
0
LINE
8
BLACK
6
CONTINUOUS
10
2.53307
20
1.88504
11
2.49764
21
1.88504
0
LINE
8
BLACK
6
CONTINUOUS
10
2.49764
20
1.88504
11
2.49387
21
1.88579
0
LINE
8
BLACK
6
CONTINUOUS
10
2.49387
20
1.88579
11
2.49068
21
1.88792
0
LINE
8
BLACK
6
CONTINUOUS
10
2.49068
20
1.88792
11
2.48854
21
1.89112
0
LINE
8
BLACK
6
CONTINUOUS
10
2.48854
20
1.89112
11
2.4878
21
1.89488
0
LINE
8
BLACK
6
CONTINUOUS
10
2.4878
20
1.89488
11
2.4878
21
1.91555
0
LINE
8
BLACK
6
CONTINUOUS
10
2.4878
20
1.91555
11
2.48854
21
1.91932
0
LINE
8
BLACK
6
CONTINUOUS
10
2.48854
20
1.91932
11
2.49068
21
1.92251
0
LINE
8
BLACK
6
CONTINUOUS
10
2.49068
20
1.92251
11
2.49387
21
1.92464
0
LINE
8
BLACK
6
CONTINUOUS
10
2.49387
20
1.92464
11
2.49764
21
1.92539
0
LINE
8
BLACK
6
CONTINUOUS
10
2.49764
20
1.92539
11
2.53307
21
1.92539
0
LINE
8
BLACK
6
CONTINUOUS
10
2.53307
20
1.92539
11
2.53684
21
1.92464
0
LINE
8
BLACK
6
CONTINUOUS
10
2.45225
20
1.99655
11
2.45438
21
1.99513
0
LINE
8
BLACK
6
CONTINUOUS
10
2.45438
20
1.99513
11
2.4558
21
1.993
0
LINE
8
BLACK
6
CONTINUOUS
10
2.4558
20
1.993
11
2.4563
21
1.99049
0
LINE
8
BLACK
6
CONTINUOUS
10
2.4563
20
1.99049
11
2.4563
21
1.9544
0
LINE
8
BLACK
6
CONTINUOUS
10
2.4563
20
1.9544
11
2.4558
21
1.95189
0
LINE
8
BLACK
6
CONTINUOUS
10
2.4558
20
1.95189
11
2.45438
21
1.94976
0
LINE
8
BLACK
6
CONTINUOUS
10
2.45438
20
1.94976
11
2.45225
21
1.94833
0
LINE
8
BLACK
6
CONTINUOUS
10
2.45225
20
1.94833
11
2.44974
21
1.94783
0
LINE
8
BLACK
6
CONTINUOUS
10
2.44974
20
1.94783
11
2.40381
21
1.94783
0
LINE
8
BLACK
6
CONTINUOUS
10
2.40381
20
1.94783
11
2.40129
21
1.94833
0
LINE
8
BLACK
6
CONTINUOUS
10
2.40129
20
1.94833
11
2.39917
21
1.94976
0
LINE
8
BLACK
6
CONTINUOUS
10
2.39917
20
1.94976
11
2.39774
21
1.95189
0
LINE
8
BLACK
6
CONTINUOUS
10
2.39774
20
1.95189
11
2.39724
21
1.9544
0
LINE
8
BLACK
6
CONTINUOUS
10
2.39724
20
1.9544
11
2.39724
21
1.99049
0
LINE
8
BLACK
6
CONTINUOUS
10
2.39724
20
1.99049
11
2.39774
21
1.993
0
LINE
8
BLACK
6
CONTINUOUS
10
2.39774
20
1.993
11
2.39917
21
1.99513
0
LINE
8
BLACK
6
CONTINUOUS
10
2.39917
20
1.99513
11
2.40129
21
1.99655
0
LINE
8
BLACK
6
CONTINUOUS
10
2.40129
20
1.99655
11
2.40381
21
1.99705
0
LINE
8
BLACK
6
CONTINUOUS
10
2.40381
20
1.99705
11
2.44974
21
1.99705
0
LINE
8
BLACK
6
CONTINUOUS
10
2.44974
20
1.99705
11
2.45225
21
1.99655
0
LINE
8
BLACK
6
CONTINUOUS
10
2.55619
20
1.99655
11
2.55831
21
1.99513
0
LINE
8
BLACK
6
CONTINUOUS
10
2.55831
20
1.99513
11
2.55974
21
1.993
0
LINE
8
BLACK
6
CONTINUOUS
10
2.55974
20
1.993
11
2.56024
21
1.99049
0
LINE
8
BLACK
6
CONTINUOUS
10
2.56024
20
1.99049
11
2.56024
21
1.9544
0
LINE
8
BLACK
6
CONTINUOUS
10
2.56024
20
1.9544
11
2.55974
21
1.95189
0
LINE
8
BLACK
6
CONTINUOUS
10
2.55974
20
1.95189
11
2.55831
21
1.94976
0
LINE
8
BLACK
6
CONTINUOUS
10
2.55831
20
1.94976
11
2.55619
21
1.94833
0
LINE
8
BLACK
6
CONTINUOUS
10
2.55619
20
1.94833
11
2.55367
21
1.94783
0
LINE
8
BLACK
6
CONTINUOUS
10
2.55367
20
1.94783
11
2.50774
21
1.94783
0
LINE
8
BLACK
6
CONTINUOUS
10
2.50774
20
1.94783
11
2.50523
21
1.94833
0
LINE
8
BLACK
6
CONTINUOUS
10
2.50523
20
1.94833
11
2.5031
21
1.94976
0
LINE
8
BLACK
6
CONTINUOUS
10
2.5031
20
1.94976
11
2.50168
21
1.95189
0
LINE
8
BLACK
6
CONTINUOUS
10
2.50168
20
1.95189
11
2.50118
21
1.9544
0
LINE
8
BLACK
6
CONTINUOUS
10
2.50118
20
1.9544
11
2.50118
21
1.99049
0
LINE
8
BLACK
6
CONTINUOUS
10
2.50118
20
1.99049
11
2.50168
21
1.993
0
LINE
8
BLACK
6
CONTINUOUS
10
2.50168
20
1.993
11
2.5031
21
1.99513
0
LINE
8
BLACK
6
CONTINUOUS
10
2.5031
20
1.99513
11
2.50523
21
1.99655
0
LINE
8
BLACK
6
CONTINUOUS
10
2.50523
20
1.99655
11
2.50774
21
1.99705
0
LINE
8
BLACK
6
CONTINUOUS
10
2.50774
20
1.99705
11
2.55367
21
1.99705
0
LINE
8
BLACK
6
CONTINUOUS
10
2.55367
20
1.99705
11
2.55619
21
1.99655
0
LINE
8
BLACK
6
CONTINUOUS
10
0.795597
20
2.03272
11
0.79879
21
2.03058
0
LINE
8
BLACK
6
CONTINUOUS
10
0.79879
20
2.03058
11
0.800924
21
2.02739
0
LINE
8
BLACK
6
CONTINUOUS
10
0.800924
20
2.02739
11
0.801673
21
2.02362
0
LINE
8
BLACK
6
CONTINUOUS
10
0.801673
20
2.02362
11
0.801673
21
1.97244
0
LINE
8
BLACK
6
CONTINUOUS
10
0.801673
20
1.97244
11
0.800924
21
1.96867
0
LINE
8
BLACK
6
CONTINUOUS
10
0.800924
20
1.96867
11
0.79879
21
1.96548
0
LINE
8
BLACK
6
CONTINUOUS
10
0.79879
20
1.96548
11
0.795597
21
1.96335
0
LINE
8
BLACK
6
CONTINUOUS
10
0.795597
20
1.96335
11
0.791831
21
1.9626
0
LINE
8
BLACK
6
CONTINUOUS
10
0.791831
20
1.9626
11
0.713091
21
1.9626
0
LINE
8
BLACK
6
CONTINUOUS
10
0.713091
20
1.9626
11
0.709324
21
1.96335
0
LINE
8
BLACK
6
CONTINUOUS
10
0.709324
20
1.96335
11
0.706131
21
1.96548
0
LINE
8
BLACK
6
CONTINUOUS
10
0.706131
20
1.96548
11
0.703997
21
1.96867
0
LINE
8
BLACK
6
CONTINUOUS
10
0.703997
20
1.96867
11
0.703248
21
1.97244
0
LINE
8
BLACK
6
CONTINUOUS
10
0.703248
20
1.97244
11
0.703248
21
2.02362
0
LINE
8
BLACK
6
CONTINUOUS
10
0.703248
20
2.02362
11
0.703997
21
2.02739
0
LINE
8
BLACK
6
CONTINUOUS
10
0.703997
20
2.02739
11
0.706131
21
2.03058
0
LINE
8
BLACK
6
CONTINUOUS
10
0.706131
20
2.03058
11
0.709324
21
2.03272
0
LINE
8
BLACK
6
CONTINUOUS
10
0.709324
20
2.03272
11
0.713091
21
2.03346
0
LINE
8
BLACK
6
CONTINUOUS
10
0.713091
20
2.03346
11
0.791831
21
2.03346
0
LINE
8
BLACK
6
CONTINUOUS
10
0.791831
20
2.03346
11
0.795597
21
2.03272
0
LINE
8
BLACK
6
CONTINUOUS
10
0.953078
20
2.03272
11
0.956271
21
2.03058
0
LINE
8
BLACK
6
CONTINUOUS
10
0.956271
20
2.03058
11
0.958404
21
2.02739
0
LINE
8
BLACK
6
CONTINUOUS
10
0.958404
20
2.02739
11
0.959154
21
2.02362
0
LINE
8
BLACK
6
CONTINUOUS
10
0.959154
20
2.02362
11
0.959154
21
1.97244
0
LINE
8
BLACK
6
CONTINUOUS
10
0.959154
20
1.97244
11
0.958404
21
1.96867
0
LINE
8
BLACK
6
CONTINUOUS
10
0.958404
20
1.96867
11
0.956271
21
1.96548
0
LINE
8
BLACK
6
CONTINUOUS
10
0.956271
20
1.96548
11
0.953078
21
1.96335
0
LINE
8
BLACK
6
CONTINUOUS
10
0.953078
20
1.96335
11
0.949311
21
1.9626
0
LINE
8
BLACK
6
CONTINUOUS
10
0.949311
20
1.9626
11
0.870571
21
1.9626
0
LINE
8
BLACK
6
CONTINUOUS
10
0.870571
20
1.9626
11
0.866804
21
1.96335
0
LINE
8
BLACK
6
CONTINUOUS
10
0.866804
20
1.96335
11
0.863611
21
1.96548
0
LINE
8
BLACK
6
CONTINUOUS
10
0.863611
20
1.96548
11
0.861478
21
1.96867
0
LINE
8
BLACK
6
CONTINUOUS
10
0.861478
20
1.96867
11
0.860728
21
1.97244
0
LINE
8
BLACK
6
CONTINUOUS
10
0.860728
20
1.97244
11
0.860728
21
2.02362
0
LINE
8
BLACK
6
CONTINUOUS
10
0.860728
20
2.02362
11
0.861478
21
2.02739
0
LINE
8
BLACK
6
CONTINUOUS
10
0.861478
20
2.02739
11
0.863611
21
2.03058
0
LINE
8
BLACK
6
CONTINUOUS
10
0.863611
20
2.03058
11
0.866804
21
2.03272
0
LINE
8
BLACK
6
CONTINUOUS
10
0.866804
20
2.03272
11
0.870571
21
2.03346
0
LINE
8
BLACK
6
CONTINUOUS
10
0.870571
20
2.03346
11
0.949311
21
2.03346
0
LINE
8
BLACK
6
CONTINUOUS
10
0.949311
20
2.03346
11
0.953078
21
2.03272
0
LINE
8
BLACK
6
CONTINUOUS
10
2.45225
20
2.13828
11
2.45438
21
2.13686
0
LINE
8
BLACK
6
CONTINUOUS
10
2.45438
20
2.13686
11
2.4558
21
2.13473
0
LINE
8
BLACK
6
CONTINUOUS
10
2.4558
20
2.13473
11
2.4563
21
2.13222
0
LINE
8
BLACK
6
CONTINUOUS
10
2.4563
20
2.13222
11
2.4563
21
2.09613
0
LINE
8
BLACK
6
CONTINUOUS
10
2.4563
20
2.09613
11
2.4558
21
2.09362
0
LINE
8
BLACK
6
CONTINUOUS
10
2.4558
20
2.09362
11
2.45438
21
2.09149
0
LINE
8
BLACK
6
CONTINUOUS
10
2.45438
20
2.09149
11
2.45225
21
2.09007
0
LINE
8
BLACK
6
CONTINUOUS
10
2.45225
20
2.09007
11
2.44974
21
2.08957
0
LINE
8
BLACK
6
CONTINUOUS
10
2.44974
20
2.08957
11
2.40381
21
2.08957
0
LINE
8
BLACK
6
CONTINUOUS
10
2.40381
20
2.08957
11
2.40129
21
2.09007
0
LINE
8
BLACK
6
CONTINUOUS
10
2.40129
20
2.09007
11
2.39917
21
2.09149
0
LINE
8
BLACK
6
CONTINUOUS
10
2.39917
20
2.09149
11
2.39774
21
2.09362
0
LINE
8
BLACK
6
CONTINUOUS
10
2.39774
20
2.09362
11
2.39724
21
2.09613
0
LINE
8
BLACK
6
CONTINUOUS
10
2.39724
20
2.09613
11
2.39724
21
2.13222
0
LINE
8
BLACK
6
CONTINUOUS
10
2.39724
20
2.13222
11
2.39774
21
2.13473
0
LINE
8
BLACK
6
CONTINUOUS
10
2.39774
20
2.13473
11
2.39917
21
2.13686
0
LINE
8
BLACK
6
CONTINUOUS
10
2.39917
20
2.13686
11
2.40129
21
2.13828
0
LINE
8
BLACK
6
CONTINUOUS
10
2.40129
20
2.13828
11
2.40381
21
2.13878
0
LINE
8
BLACK
6
CONTINUOUS
10
2.40381
20
2.13878
11
2.44974
21
2.13878
0
LINE
8
BLACK
6
CONTINUOUS
10
2.44974
20
2.13878
11
2.45225
21
2.13828
0
LINE
8
BLACK
6
CONTINUOUS
10
2.55619
20
2.13828
11
2.55831
21
2.13686
0
LINE
8
BLACK
6
CONTINUOUS
10
2.55831
20
2.13686
11
2.55974
21
2.13473
0
LINE
8
BLACK
6
CONTINUOUS
10
2.55974
20
2.13473
11
2.56024
21
2.13222
0
LINE
8
BLACK
6
CONTINUOUS
10
2.56024
20
2.13222
11
2.56024
21
2.09613
0
LINE
8
BLACK
6
CONTINUOUS
10
2.56024
20
2.09613
11
2.55974
21
2.09362
0
LINE
8
BLACK
6
CONTINUOUS
10
2.55974
20
2.09362
11
2.55831
21
2.09149
0
LINE
8
BLACK
6
CONTINUOUS
10
2.55831
20
2.09149
11
2.55619
21
2.09007
0
LINE
8
BLACK
6
CONTINUOUS
10
2.55619
20
2.09007
11
2.55367
21
2.08957
0
LINE
8
BLACK
6
CONTINUOUS
10
2.55367
20
2.08957
11
2.50774
21
2.08957
0
LINE
8
BLACK
6
CONTINUOUS
10
2.50774
20
2.08957
11
2.50523
21
2.09007
0
LINE
8
BLACK
6
CONTINUOUS
10
2.50523
20
2.09007
11
2.5031
21
2.09149
0
LINE
8
BLACK
6
CONTINUOUS
10
2.5031
20
2.09149
11
2.50168
21
2.09362
0
LINE
8
BLACK
6
CONTINUOUS
10
2.50168
20
2.09362
11
2.50118
21
2.09613
0
LINE
8
BLACK
6
CONTINUOUS
10
2.50118
20
2.09613
11
2.50118
21
2.13222
0
LINE
8
BLACK
6
CONTINUOUS
10
2.50118
20
2.13222
11
2.50168
21
2.13473
0
LINE
8
BLACK
6
CONTINUOUS
10
2.50168
20
2.13473
11
2.5031
21
2.13686
0
LINE
8
BLACK
6
CONTINUOUS
10
2.5031
20
2.13686
11
2.50523
21
2.13828
0
LINE
8
BLACK
6
CONTINUOUS
10
2.50523
20
2.13828
11
2.50774
21
2.13878
0
LINE
8
BLACK
6
CONTINUOUS
10
2.50774
20
2.13878
11
2.55367
21
2.13878
0
LINE
8
BLACK
6
CONTINUOUS
10
2.55367
20
2.13878
11
2.55619
21
2.13828
  0
ENDSEC
  0
EOF
