  0
SECTION
  2
HEADER
  9
$ANGBASE
  50
0.0
  9
$ANGDIR
  70
1
  9
$MEASUREMENT
  70
0
  0
ENDSEC
  0
SECTION
  2
TABLES
  0
TABLE
  2
LTYPE
  70
4
  0
LTYPE
  5
40F
  2
CONTINUOUS
  70
0
  3
Solid line
  72
65
  73
0
  40
0.0
  0
LTYPE
  5
410
  2
DASHDOT
 70
0
  3
Dash Dot ____ _ ____ _
 72
65
 73
4
 40
2.0
 49
1.25
 49
-0.25
 49
0.25
 49
-0.25
  0
LTYPE
  5
411
  2
DASHED
 70
0
  3
Dashed __ __ __ __ __
 72
65
 73
2
 40
0.75
 49
0.5
 49
-0.25
  0
LTYPE
  5
43B
  2
DOTTED
 70
0
  3
Dotted .  .  .  .
 72
65
 73
2
 40
0.2
 49
0.0
 49
-0.2
  0
ENDTAB
  0
TABLE
  2
STYLE
  70
4
  0
STYLE
  2
KICAD
  70
0
  40
0
  41
1
  42
1
  50
0
  71
0
  3
isocp.shx
  0
STYLE
  2
KICADB
  70
0
  40
0
  41
1
  42
1
  50
0
  71
0
  3
isocp.shx
  0
STYLE
  2
KICADI
  70
0
  40
0
  41
1
  42
1
  50
15
  71
0
  3
isocp.shx
  0
STYLE
  2
KICADBI
  70
0
  40
0
  41
1
  42
1
  50
15
  71
0
  3
isocp.shx
  0
ENDTAB
  0
TABLE
  2
LAYER
  70
1
  0
LAYER
  2
BLACK
  70
0
  62
7
  6
CONTINUOUS
  0
ENDTAB
  0
ENDSEC
  0
SECTION
  2
ENTITIES
0
LINE
8
BLACK
6
CONTINUOUS
10
1.55758
20
0.327851
11
1.55827
21
0.326181
0
LINE
8
BLACK
6
CONTINUOUS
10
1.55827
20
0.326181
11
1.55827
21
0.276181
0
LINE
8
BLACK
6
CONTINUOUS
10
1.55827
20
0.276181
11
1.60827
21
0.276181
0
LINE
8
BLACK
6
CONTINUOUS
10
1.60827
20
0.276181
11
1.60994
21
0.275489
0
LINE
8
BLACK
6
CONTINUOUS
10
1.60994
20
0.275489
11
1.61063
21
0.273819
0
LINE
8
BLACK
6
CONTINUOUS
10
1.61063
20
0.273819
11
1.60994
21
0.272149
0
LINE
8
BLACK
6
CONTINUOUS
10
1.60994
20
0.272149
11
1.60827
21
0.271457
0
LINE
8
BLACK
6
CONTINUOUS
10
1.60827
20
0.271457
11
1.55591
21
0.271457
0
LINE
8
BLACK
6
CONTINUOUS
10
1.55591
20
0.271457
11
1.55424
21
0.272149
0
LINE
8
BLACK
6
CONTINUOUS
10
1.55424
20
0.272149
11
1.55354
21
0.273819
0
LINE
8
BLACK
6
CONTINUOUS
10
1.55354
20
0.273819
11
1.55354
21
0.326181
0
LINE
8
BLACK
6
CONTINUOUS
10
1.55354
20
0.326181
11
1.55424
21
0.327851
0
LINE
8
BLACK
6
CONTINUOUS
10
1.55424
20
0.327851
11
1.55591
21
0.328543
0
LINE
8
BLACK
6
CONTINUOUS
10
1.55591
20
0.328543
11
1.55758
21
0.327851
0
LINE
8
BLACK
6
CONTINUOUS
10
2.16063
20
0.580906
11
2.1623
21
0.580214
0
LINE
8
BLACK
6
CONTINUOUS
10
2.1623
20
0.580214
11
2.16299
21
0.578543
0
LINE
8
BLACK
6
CONTINUOUS
10
2.16299
20
0.578543
11
2.16299
21
0.373819
0
LINE
8
BLACK
6
CONTINUOUS
10
2.16299
20
0.373819
11
2.1623
21
0.372149
0
LINE
8
BLACK
6
CONTINUOUS
10
2.1623
20
0.372149
11
2.16063
21
0.371457
0
LINE
8
BLACK
6
CONTINUOUS
10
2.16063
20
0.371457
11
1.86299
21
0.371457
0
LINE
8
BLACK
6
CONTINUOUS
10
1.86299
20
0.371457
11
1.86299
21
0.273819
0
LINE
8
BLACK
6
CONTINUOUS
10
1.86299
20
0.273819
11
1.8623
21
0.272149
0
LINE
8
BLACK
6
CONTINUOUS
10
1.8623
20
0.272149
11
1.86063
21
0.271457
0
LINE
8
BLACK
6
CONTINUOUS
10
1.86063
20
0.271457
11
1.65827
21
0.271457
0
LINE
8
BLACK
6
CONTINUOUS
10
1.65827
20
0.271457
11
1.6566
21
0.272149
0
LINE
8
BLACK
6
CONTINUOUS
10
1.6566
20
0.272149
11
1.65591
21
0.273819
0
LINE
8
BLACK
6
CONTINUOUS
10
1.65591
20
0.273819
11
1.65591
21
0.378543
0
LINE
8
BLACK
6
CONTINUOUS
10
1.65591
20
0.378543
11
1.65591
21
0.473819
0
LINE
8
BLACK
6
CONTINUOUS
10
1.65591
20
0.473819
11
1.55591
21
0.473819
0
LINE
8
BLACK
6
CONTINUOUS
10
1.55591
20
0.473819
11
1.55424
21
0.474511
0
LINE
8
BLACK
6
CONTINUOUS
10
1.55424
20
0.474511
11
1.55354
21
0.476181
0
LINE
8
BLACK
6
CONTINUOUS
10
1.55354
20
0.476181
11
1.55354
21
0.578543
0
LINE
8
BLACK
6
CONTINUOUS
10
1.55354
20
0.578543
11
1.55424
21
0.580214
0
LINE
8
BLACK
6
CONTINUOUS
10
1.55424
20
0.580214
11
1.55591
21
0.580906
0
LINE
8
BLACK
6
CONTINUOUS
10
1.55591
20
0.580906
11
2.16063
21
0.580906
0
LINE
8
BLACK
6
CONTINUOUS
10
1.66063
20
0.371457
11
1.66063
21
0.276181
0
LINE
8
BLACK
6
CONTINUOUS
10
1.66063
20
0.276181
11
1.85827
21
0.276181
0
LINE
8
BLACK
6
CONTINUOUS
10
1.85827
20
0.276181
11
1.85827
21
0.371457
0
LINE
8
BLACK
6
CONTINUOUS
10
1.85827
20
0.371457
11
1.66063
21
0.371457
0
LINE
8
BLACK
6
CONTINUOUS
10
1.55827
20
0.576181
11
1.55827
21
0.478543
0
LINE
8
BLACK
6
CONTINUOUS
10
1.55827
20
0.478543
11
1.65827
21
0.478543
0
LINE
8
BLACK
6
CONTINUOUS
10
1.65827
20
0.478543
11
1.65994
21
0.477851
0
LINE
8
BLACK
6
CONTINUOUS
10
1.65994
20
0.477851
11
1.66063
21
0.476181
0
LINE
8
BLACK
6
CONTINUOUS
10
1.66063
20
0.476181
11
1.66063
21
0.380906
0
LINE
8
BLACK
6
CONTINUOUS
10
1.66063
20
0.380906
11
1.86063
21
0.380906
0
LINE
8
BLACK
6
CONTINUOUS
10
1.86063
20
0.380906
11
1.8623
21
0.380214
0
LINE
8
BLACK
6
CONTINUOUS
10
1.8623
20
0.380214
11
1.86299
21
0.378543
0
LINE
8
BLACK
6
CONTINUOUS
10
1.86299
20
0.378543
11
1.86299
21
0.376181
0
LINE
8
BLACK
6
CONTINUOUS
10
1.86299
20
0.376181
11
2.15827
21
0.376181
0
LINE
8
BLACK
6
CONTINUOUS
10
2.15827
20
0.376181
11
2.15827
21
0.576181
0
LINE
8
BLACK
6
CONTINUOUS
10
2.15827
20
0.576181
11
1.55827
21
0.576181
0
LINE
8
BLACK
6
CONTINUOUS
10
2.55236
20
0.781496
11
2.55403
21
0.780804
0
LINE
8
BLACK
6
CONTINUOUS
10
2.55403
20
0.780804
11
2.55472
21
0.779134
0
LINE
8
BLACK
6
CONTINUOUS
10
2.55472
20
0.779134
11
2.55472
21
0.376772
0
LINE
8
BLACK
6
CONTINUOUS
10
2.55472
20
0.376772
11
2.55403
21
0.375101
0
LINE
8
BLACK
6
CONTINUOUS
10
2.55403
20
0.375101
11
2.55236
21
0.374409
0
LINE
8
BLACK
6
CONTINUOUS
10
2.55236
20
0.374409
11
2.45236
21
0.374409
0
LINE
8
BLACK
6
CONTINUOUS
10
2.45236
20
0.374409
11
2.45236
21
0.274409
0
LINE
8
BLACK
6
CONTINUOUS
10
2.45236
20
0.274409
11
2.45167
21
0.272739
0
LINE
8
BLACK
6
CONTINUOUS
10
2.45167
20
0.272739
11
2.45
21
0.272047
0
LINE
8
BLACK
6
CONTINUOUS
10
2.45
20
0.272047
11
2.34764
21
0.272047
0
LINE
8
BLACK
6
CONTINUOUS
10
2.34764
20
0.272047
11
2.34597
21
0.272739
0
LINE
8
BLACK
6
CONTINUOUS
10
2.34597
20
0.272739
11
2.34528
21
0.274409
0
LINE
8
BLACK
6
CONTINUOUS
10
2.34528
20
0.274409
11
2.34528
21
0.274409
0
LINE
8
BLACK
6
CONTINUOUS
10
2.34528
20
0.274409
11
2.34528
21
0.779134
0
LINE
8
BLACK
6
CONTINUOUS
10
2.34528
20
0.779134
11
2.34597
21
0.780804
0
LINE
8
BLACK
6
CONTINUOUS
10
2.34597
20
0.780804
11
2.34764
21
0.781496
0
LINE
8
BLACK
6
CONTINUOUS
10
2.34764
20
0.781496
11
2.55236
21
0.781496
0
LINE
8
BLACK
6
CONTINUOUS
10
2.35
20
0.776772
11
2.35
21
0.276772
0
LINE
8
BLACK
6
CONTINUOUS
10
2.35
20
0.276772
11
2.44764
21
0.276772
0
LINE
8
BLACK
6
CONTINUOUS
10
2.44764
20
0.276772
11
2.44764
21
0.376772
0
LINE
8
BLACK
6
CONTINUOUS
10
2.44764
20
0.376772
11
2.44833
21
0.378442
0
LINE
8
BLACK
6
CONTINUOUS
10
2.44833
20
0.378442
11
2.45
21
0.379134
0
LINE
8
BLACK
6
CONTINUOUS
10
2.45
20
0.379134
11
2.55
21
0.379134
0
LINE
8
BLACK
6
CONTINUOUS
10
2.55
20
0.379134
11
2.55
21
0.776772
0
LINE
8
BLACK
6
CONTINUOUS
10
2.55
20
0.776772
11
2.35
21
0.776772
0
LINE
8
BLACK
6
CONTINUOUS
10
2.55403
20
0.328442
11
2.55472
21
0.326772
0
LINE
8
BLACK
6
CONTINUOUS
10
2.55472
20
0.326772
11
2.55472
21
0.274409
0
LINE
8
BLACK
6
CONTINUOUS
10
2.55472
20
0.274409
11
2.55403
21
0.272739
0
LINE
8
BLACK
6
CONTINUOUS
10
2.55403
20
0.272739
11
2.55236
21
0.272047
0
LINE
8
BLACK
6
CONTINUOUS
10
2.55236
20
0.272047
11
2.5
21
0.272047
0
LINE
8
BLACK
6
CONTINUOUS
10
2.5
20
0.272047
11
2.49833
21
0.272739
0
LINE
8
BLACK
6
CONTINUOUS
10
2.49833
20
0.272739
11
2.49764
21
0.274409
0
LINE
8
BLACK
6
CONTINUOUS
10
2.49764
20
0.274409
11
2.49833
21
0.27608
0
LINE
8
BLACK
6
CONTINUOUS
10
2.49833
20
0.27608
11
2.5
21
0.276772
0
LINE
8
BLACK
6
CONTINUOUS
10
2.5
20
0.276772
11
2.55
21
0.276772
0
LINE
8
BLACK
6
CONTINUOUS
10
2.55
20
0.276772
11
2.55
21
0.326772
0
LINE
8
BLACK
6
CONTINUOUS
10
2.55
20
0.326772
11
2.55069
21
0.328442
0
LINE
8
BLACK
6
CONTINUOUS
10
2.55069
20
0.328442
11
2.55236
21
0.329134
0
LINE
8
BLACK
6
CONTINUOUS
10
2.55236
20
0.329134
11
2.55403
21
0.328442
0
LINE
8
BLACK
6
CONTINUOUS
10
1.35827
20
0.580906
11
1.35994
21
0.580214
0
LINE
8
BLACK
6
CONTINUOUS
10
1.35994
20
0.580214
11
1.36063
21
0.578543
0
LINE
8
BLACK
6
CONTINUOUS
10
1.36063
20
0.578543
11
1.36063
21
0.478543
0
LINE
8
BLACK
6
CONTINUOUS
10
1.36063
20
0.478543
11
1.46063
21
0.478543
0
LINE
8
BLACK
6
CONTINUOUS
10
1.46063
20
0.478543
11
1.4623
21
0.477851
0
LINE
8
BLACK
6
CONTINUOUS
10
1.4623
20
0.477851
11
1.46299
21
0.476181
0
LINE
8
BLACK
6
CONTINUOUS
10
1.46299
20
0.476181
11
1.46299
21
0.373819
0
LINE
8
BLACK
6
CONTINUOUS
10
1.46299
20
0.373819
11
1.4623
21
0.372149
0
LINE
8
BLACK
6
CONTINUOUS
10
1.4623
20
0.372149
11
1.46063
21
0.371457
0
LINE
8
BLACK
6
CONTINUOUS
10
1.46063
20
0.371457
11
0.755906
21
0.371457
0
LINE
8
BLACK
6
CONTINUOUS
10
0.755906
20
0.371457
11
0.754235
21
0.372149
0
LINE
8
BLACK
6
CONTINUOUS
10
0.754235
20
0.372149
11
0.753543
21
0.373819
0
LINE
8
BLACK
6
CONTINUOUS
10
0.753543
20
0.373819
11
0.753543
21
0.578543
0
LINE
8
BLACK
6
CONTINUOUS
10
0.753543
20
0.578543
11
0.754235
21
0.580214
0
LINE
8
BLACK
6
CONTINUOUS
10
0.754235
20
0.580214
11
0.755906
21
0.580906
0
LINE
8
BLACK
6
CONTINUOUS
10
0.755906
20
0.580906
11
1.35827
21
0.580906
0
LINE
8
BLACK
6
CONTINUOUS
10
0.758268
20
0.576181
11
0.758268
21
0.376181
0
LINE
8
BLACK
6
CONTINUOUS
10
0.758268
20
0.376181
11
1.45827
21
0.376181
0
LINE
8
BLACK
6
CONTINUOUS
10
1.45827
20
0.376181
11
1.45827
21
0.473819
0
LINE
8
BLACK
6
CONTINUOUS
10
1.45827
20
0.473819
11
1.35827
21
0.473819
0
LINE
8
BLACK
6
CONTINUOUS
10
1.35827
20
0.473819
11
1.3566
21
0.474511
0
LINE
8
BLACK
6
CONTINUOUS
10
1.3566
20
0.474511
11
1.35591
21
0.476181
0
LINE
8
BLACK
6
CONTINUOUS
10
1.35591
20
0.476181
11
1.35591
21
0.576181
0
LINE
8
BLACK
6
CONTINUOUS
10
1.35591
20
0.576181
11
0.758268
21
0.576181
0
LINE
8
BLACK
6
CONTINUOUS
10
1.55758
20
0.427851
11
1.55827
21
0.426181
0
LINE
8
BLACK
6
CONTINUOUS
10
1.55827
20
0.426181
11
1.55827
21
0.376181
0
LINE
8
BLACK
6
CONTINUOUS
10
1.55827
20
0.376181
11
1.60827
21
0.376181
0
LINE
8
BLACK
6
CONTINUOUS
10
1.60827
20
0.376181
11
1.60994
21
0.375489
0
LINE
8
BLACK
6
CONTINUOUS
10
1.60994
20
0.375489
11
1.61063
21
0.373819
0
LINE
8
BLACK
6
CONTINUOUS
10
1.61063
20
0.373819
11
1.60994
21
0.372149
0
LINE
8
BLACK
6
CONTINUOUS
10
1.60994
20
0.372149
11
1.60827
21
0.371457
0
LINE
8
BLACK
6
CONTINUOUS
10
1.60827
20
0.371457
11
1.55591
21
0.371457
0
LINE
8
BLACK
6
CONTINUOUS
10
1.55591
20
0.371457
11
1.55424
21
0.372149
0
LINE
8
BLACK
6
CONTINUOUS
10
1.55424
20
0.372149
11
1.55354
21
0.373819
0
LINE
8
BLACK
6
CONTINUOUS
10
1.55354
20
0.373819
11
1.55354
21
0.373819
0
LINE
8
BLACK
6
CONTINUOUS
10
1.55354
20
0.373819
11
1.55354
21
0.426181
0
LINE
8
BLACK
6
CONTINUOUS
10
1.55354
20
0.426181
11
1.55424
21
0.427851
0
LINE
8
BLACK
6
CONTINUOUS
10
1.55424
20
0.427851
11
1.55591
21
0.428543
0
LINE
8
BLACK
6
CONTINUOUS
10
1.55591
20
0.428543
11
1.55758
21
0.427851
0
LINE
8
BLACK
6
CONTINUOUS
10
1.46063
20
0.580906
11
1.4623
21
0.580214
0
LINE
8
BLACK
6
CONTINUOUS
10
1.4623
20
0.580214
11
1.46299
21
0.578543
0
LINE
8
BLACK
6
CONTINUOUS
10
1.46299
20
0.578543
11
1.46299
21
0.526181
0
LINE
8
BLACK
6
CONTINUOUS
10
1.46299
20
0.526181
11
1.4623
21
0.524511
0
LINE
8
BLACK
6
CONTINUOUS
10
1.4623
20
0.524511
11
1.46063
21
0.523819
0
LINE
8
BLACK
6
CONTINUOUS
10
1.46063
20
0.523819
11
1.45896
21
0.524511
0
LINE
8
BLACK
6
CONTINUOUS
10
1.45896
20
0.524511
11
1.45827
21
0.526181
0
LINE
8
BLACK
6
CONTINUOUS
10
1.45827
20
0.526181
11
1.45827
21
0.576181
0
LINE
8
BLACK
6
CONTINUOUS
10
1.45827
20
0.576181
11
1.40827
21
0.576181
0
LINE
8
BLACK
6
CONTINUOUS
10
1.40827
20
0.576181
11
1.4066
21
0.576873
0
LINE
8
BLACK
6
CONTINUOUS
10
1.4066
20
0.576873
11
1.40591
21
0.578543
0
LINE
8
BLACK
6
CONTINUOUS
10
1.40591
20
0.578543
11
1.4066
21
0.580214
0
LINE
8
BLACK
6
CONTINUOUS
10
1.4066
20
0.580214
11
1.40827
21
0.580906
0
LINE
8
BLACK
6
CONTINUOUS
10
1.40827
20
0.580906
11
1.46063
21
0.580906
0
LINE
8
BLACK
6
CONTINUOUS
10
0.577155
20
0.86194
11
0.577284
21
0.861963
0
LINE
8
BLACK
6
CONTINUOUS
10
0.577284
20
0.861963
11
0.577398
21
0.861897
0
LINE
8
BLACK
6
CONTINUOUS
10
0.577398
20
0.861897
11
0.577782
21
0.86183
0
LINE
8
BLACK
6
CONTINUOUS
10
0.577782
20
0.86183
11
0.578369
21
0.861337
0
LINE
8
BLACK
6
CONTINUOUS
10
0.578369
20
0.861337
11
0.579034
21
0.860953
0
LINE
8
BLACK
6
CONTINUOUS
10
0.579034
20
0.860953
11
0.579125
21
0.860703
0
LINE
8
BLACK
6
CONTINUOUS
10
0.579125
20
0.860703
11
0.579329
21
0.860531
0
LINE
8
BLACK
6
CONTINUOUS
10
0.579329
20
0.860531
11
0.579462
21
0.859776
0
LINE
8
BLACK
6
CONTINUOUS
10
0.579462
20
0.859776
11
0.579724
21
0.859055
0
LINE
8
BLACK
6
CONTINUOUS
10
0.579724
20
0.859055
11
0.579724
21
0.659055
0
LINE
8
BLACK
6
CONTINUOUS
10
0.579724
20
0.659055
11
0.579657
21
0.658672
0
LINE
8
BLACK
6
CONTINUOUS
10
0.579657
20
0.658672
11
0.57968
21
0.658542
0
LINE
8
BLACK
6
CONTINUOUS
10
0.57968
20
0.658542
11
0.579614
21
0.658429
0
LINE
8
BLACK
6
CONTINUOUS
10
0.579614
20
0.658429
11
0.579546
21
0.658045
0
LINE
8
BLACK
6
CONTINUOUS
10
0.579546
20
0.658045
11
0.579053
21
0.657458
0
LINE
8
BLACK
6
CONTINUOUS
10
0.579053
20
0.657458
11
0.57867
21
0.656793
0
LINE
8
BLACK
6
CONTINUOUS
10
0.57867
20
0.656793
11
0.578419
21
0.656702
0
LINE
8
BLACK
6
CONTINUOUS
10
0.578419
20
0.656702
11
0.578248
21
0.656498
0
LINE
8
BLACK
6
CONTINUOUS
10
0.578248
20
0.656498
11
0.577492
21
0.656365
0
LINE
8
BLACK
6
CONTINUOUS
10
0.577492
20
0.656365
11
0.576772
21
0.656102
0
LINE
8
BLACK
6
CONTINUOUS
10
0.576772
20
0.656102
11
0.276772
21
0.656102
0
LINE
8
BLACK
6
CONTINUOUS
10
0.276772
20
0.656102
11
0.276388
21
0.65617
0
LINE
8
BLACK
6
CONTINUOUS
10
0.276388
20
0.65617
11
0.276259
21
0.656147
0
LINE
8
BLACK
6
CONTINUOUS
10
0.276259
20
0.656147
11
0.276145
21
0.656213
0
LINE
8
BLACK
6
CONTINUOUS
10
0.276145
20
0.656213
11
0.275762
21
0.65628
0
LINE
8
BLACK
6
CONTINUOUS
10
0.275762
20
0.65628
11
0.275174
21
0.656774
0
LINE
8
BLACK
6
CONTINUOUS
10
0.275174
20
0.656774
11
0.27451
21
0.657157
0
LINE
8
BLACK
6
CONTINUOUS
10
0.27451
20
0.657157
11
0.274419
21
0.657407
0
LINE
8
BLACK
6
CONTINUOUS
10
0.274419
20
0.657407
11
0.274214
21
0.657579
0
LINE
8
BLACK
6
CONTINUOUS
10
0.274214
20
0.657579
11
0.274081
21
0.658334
0
LINE
8
BLACK
6
CONTINUOUS
10
0.274081
20
0.658334
11
0.273819
21
0.659055
0
LINE
8
BLACK
6
CONTINUOUS
10
0.273819
20
0.659055
11
0.273819
21
0.859055
0
LINE
8
BLACK
6
CONTINUOUS
10
0.273819
20
0.859055
11
0.273886
21
0.859439
0
LINE
8
BLACK
6
CONTINUOUS
10
0.273886
20
0.859439
11
0.273864
21
0.859568
0
LINE
8
BLACK
6
CONTINUOUS
10
0.273864
20
0.859568
11
0.273929
21
0.859681
0
LINE
8
BLACK
6
CONTINUOUS
10
0.273929
20
0.859681
11
0.273997
21
0.860065
0
LINE
8
BLACK
6
CONTINUOUS
10
0.273997
20
0.860065
11
0.27449
21
0.860653
0
LINE
8
BLACK
6
CONTINUOUS
10
0.27449
20
0.860653
11
0.274874
21
0.861317
0
LINE
8
BLACK
6
CONTINUOUS
10
0.274874
20
0.861317
11
0.275124
21
0.861408
0
LINE
8
BLACK
6
CONTINUOUS
10
0.275124
20
0.861408
11
0.275295
21
0.861612
0
LINE
8
BLACK
6
CONTINUOUS
10
0.275295
20
0.861612
11
0.276051
21
0.861746
0
LINE
8
BLACK
6
CONTINUOUS
10
0.276051
20
0.861746
11
0.276772
21
0.862008
0
LINE
8
BLACK
6
CONTINUOUS
10
0.276772
20
0.862008
11
0.576772
21
0.862008
0
LINE
8
BLACK
6
CONTINUOUS
10
0.576772
20
0.862008
11
0.577155
21
0.86194
0
LINE
8
BLACK
6
CONTINUOUS
10
0.279724
20
0.856102
11
0.279724
21
0.662008
0
LINE
8
BLACK
6
CONTINUOUS
10
0.279724
20
0.662008
11
0.573819
21
0.662008
0
LINE
8
BLACK
6
CONTINUOUS
10
0.573819
20
0.662008
11
0.573819
21
0.856102
0
LINE
8
BLACK
6
CONTINUOUS
10
0.573819
20
0.856102
11
0.279724
21
0.856102
0
LINE
8
BLACK
6
CONTINUOUS
10
1.31248
20
0.78394
11
1.31402
21
0.782642
0
LINE
8
BLACK
6
CONTINUOUS
10
1.31402
20
0.782642
11
1.31437
21
0.780653
0
LINE
8
BLACK
6
CONTINUOUS
10
1.31437
20
0.780653
11
1.31336
21
0.778903
0
LINE
8
BLACK
6
CONTINUOUS
10
1.31336
20
0.778903
11
1.31147
21
0.778213
0
LINE
8
BLACK
6
CONTINUOUS
10
1.31147
20
0.778213
11
1.10047
21
0.778213
0
LINE
8
BLACK
6
CONTINUOUS
10
1.10047
20
0.778213
11
1.09946
21
0.778391
0
LINE
8
BLACK
6
CONTINUOUS
10
1.09946
20
0.778391
11
1.09791
21
0.779689
0
LINE
8
BLACK
6
CONTINUOUS
10
1.09791
20
0.779689
11
1.09756
21
0.781678
0
LINE
8
BLACK
6
CONTINUOUS
10
1.09756
20
0.781678
11
1.09857
21
0.783427
0
LINE
8
BLACK
6
CONTINUOUS
10
1.09857
20
0.783427
11
1.10047
21
0.784118
0
LINE
8
BLACK
6
CONTINUOUS
10
1.10047
20
0.784118
11
1.31147
21
0.784118
0
LINE
8
BLACK
6
CONTINUOUS
10
1.31147
20
0.784118
11
1.31248
21
0.78394
0
LINE
8
BLACK
6
CONTINUOUS
10
1.41098
20
0.78494
11
1.41252
21
0.783642
0
LINE
8
BLACK
6
CONTINUOUS
10
1.41252
20
0.783642
11
1.41287
21
0.781653
0
LINE
8
BLACK
6
CONTINUOUS
10
1.41287
20
0.781653
11
1.41186
21
0.779903
0
LINE
8
BLACK
6
CONTINUOUS
10
1.41186
20
0.779903
11
1.40997
21
0.779213
0
LINE
8
BLACK
6
CONTINUOUS
10
1.40997
20
0.779213
11
1.38547
21
0.779213
0
LINE
8
BLACK
6
CONTINUOUS
10
1.38547
20
0.779213
11
1.38446
21
0.779391
0
LINE
8
BLACK
6
CONTINUOUS
10
1.38446
20
0.779391
11
1.38291
21
0.780689
0
LINE
8
BLACK
6
CONTINUOUS
10
1.38291
20
0.780689
11
1.38256
21
0.782678
0
LINE
8
BLACK
6
CONTINUOUS
10
1.38256
20
0.782678
11
1.38357
21
0.784427
0
LINE
8
BLACK
6
CONTINUOUS
10
1.38357
20
0.784427
11
1.38547
21
0.785118
0
LINE
8
BLACK
6
CONTINUOUS
10
1.38547
20
0.785118
11
1.40997
21
0.785118
0
LINE
8
BLACK
6
CONTINUOUS
10
1.40997
20
0.785118
11
1.41098
21
0.78494
0
LINE
8
BLACK
6
CONTINUOUS
10
1.51148
20
0.78494
11
1.51302
21
0.783642
0
LINE
8
BLACK
6
CONTINUOUS
10
1.51302
20
0.783642
11
1.51337
21
0.781653
0
LINE
8
BLACK
6
CONTINUOUS
10
1.51337
20
0.781653
11
1.51236
21
0.779903
0
LINE
8
BLACK
6
CONTINUOUS
10
1.51236
20
0.779903
11
1.51047
21
0.779213
0
LINE
8
BLACK
6
CONTINUOUS
10
1.51047
20
0.779213
11
1.48597
21
0.779213
0
LINE
8
BLACK
6
CONTINUOUS
10
1.48597
20
0.779213
11
1.48496
21
0.779391
0
LINE
8
BLACK
6
CONTINUOUS
10
1.48496
20
0.779391
11
1.48341
21
0.780689
0
LINE
8
BLACK
6
CONTINUOUS
10
1.48341
20
0.780689
11
1.48306
21
0.782678
0
LINE
8
BLACK
6
CONTINUOUS
10
1.48306
20
0.782678
11
1.48407
21
0.784427
0
LINE
8
BLACK
6
CONTINUOUS
10
1.48407
20
0.784427
11
1.48597
21
0.785118
0
LINE
8
BLACK
6
CONTINUOUS
10
1.48597
20
0.785118
11
1.51047
21
0.785118
0
LINE
8
BLACK
6
CONTINUOUS
10
1.51047
20
0.785118
11
1.51148
21
0.78494
0
LINE
8
BLACK
6
CONTINUOUS
10
1.61148
20
0.78494
11
1.61302
21
0.783642
0
LINE
8
BLACK
6
CONTINUOUS
10
1.61302
20
0.783642
11
1.61337
21
0.781653
0
LINE
8
BLACK
6
CONTINUOUS
10
1.61337
20
0.781653
11
1.61236
21
0.779903
0
LINE
8
BLACK
6
CONTINUOUS
10
1.61236
20
0.779903
11
1.61047
21
0.779213
0
LINE
8
BLACK
6
CONTINUOUS
10
1.61047
20
0.779213
11
1.58497
21
0.779213
0
LINE
8
BLACK
6
CONTINUOUS
10
1.58497
20
0.779213
11
1.58396
21
0.779391
0
LINE
8
BLACK
6
CONTINUOUS
10
1.58396
20
0.779391
11
1.58241
21
0.780689
0
LINE
8
BLACK
6
CONTINUOUS
10
1.58241
20
0.780689
11
1.58206
21
0.782678
0
LINE
8
BLACK
6
CONTINUOUS
10
1.58206
20
0.782678
11
1.58307
21
0.784427
0
LINE
8
BLACK
6
CONTINUOUS
10
1.58307
20
0.784427
11
1.58497
21
0.785118
0
LINE
8
BLACK
6
CONTINUOUS
10
1.58497
20
0.785118
11
1.61047
21
0.785118
0
LINE
8
BLACK
6
CONTINUOUS
10
1.61047
20
0.785118
11
1.61148
21
0.78494
0
LINE
8
BLACK
6
CONTINUOUS
10
1.78147
20
0.785118
11
1.80947
21
0.785118
0
LINE
8
BLACK
6
CONTINUOUS
10
1.80947
20
0.785118
11
1.81048
21
0.78494
0
LINE
8
BLACK
6
CONTINUOUS
10
1.81048
20
0.78494
11
1.81202
21
0.783642
0
LINE
8
BLACK
6
CONTINUOUS
10
1.81202
20
0.783642
11
1.81237
21
0.781653
0
LINE
8
BLACK
6
CONTINUOUS
10
1.81237
20
0.781653
11
1.81136
21
0.779903
0
LINE
8
BLACK
6
CONTINUOUS
10
1.81136
20
0.779903
11
1.80947
21
0.779213
0
LINE
8
BLACK
6
CONTINUOUS
10
1.80947
20
0.779213
11
1.78147
21
0.779213
0
LINE
8
BLACK
6
CONTINUOUS
10
1.78147
20
0.779213
11
1.77547
21
0.779213
0
LINE
8
BLACK
6
CONTINUOUS
10
1.77547
20
0.779213
11
1.77446
21
0.779391
0
LINE
8
BLACK
6
CONTINUOUS
10
1.77446
20
0.779391
11
1.77291
21
0.780689
0
LINE
8
BLACK
6
CONTINUOUS
10
1.77291
20
0.780689
11
1.77256
21
0.782678
0
LINE
8
BLACK
6
CONTINUOUS
10
1.77256
20
0.782678
11
1.77357
21
0.784427
0
LINE
8
BLACK
6
CONTINUOUS
10
1.77357
20
0.784427
11
1.77547
21
0.785118
0
LINE
8
BLACK
6
CONTINUOUS
10
1.77547
20
0.785118
11
1.78147
21
0.785118
0
LINE
8
BLACK
6
CONTINUOUS
10
1.90748
20
0.78494
11
1.90902
21
0.783642
0
LINE
8
BLACK
6
CONTINUOUS
10
1.90902
20
0.783642
11
1.90937
21
0.781653
0
LINE
8
BLACK
6
CONTINUOUS
10
1.90937
20
0.781653
11
1.90836
21
0.779903
0
LINE
8
BLACK
6
CONTINUOUS
10
1.90836
20
0.779903
11
1.90647
21
0.779213
0
LINE
8
BLACK
6
CONTINUOUS
10
1.90647
20
0.779213
11
1.88047
21
0.779213
0
LINE
8
BLACK
6
CONTINUOUS
10
1.88047
20
0.779213
11
1.87946
21
0.779391
0
LINE
8
BLACK
6
CONTINUOUS
10
1.87946
20
0.779391
11
1.87791
21
0.780689
0
LINE
8
BLACK
6
CONTINUOUS
10
1.87791
20
0.780689
11
1.87756
21
0.782678
0
LINE
8
BLACK
6
CONTINUOUS
10
1.87756
20
0.782678
11
1.87857
21
0.784427
0
LINE
8
BLACK
6
CONTINUOUS
10
1.87857
20
0.784427
11
1.88047
21
0.785118
0
LINE
8
BLACK
6
CONTINUOUS
10
1.88047
20
0.785118
11
1.90647
21
0.785118
0
LINE
8
BLACK
6
CONTINUOUS
10
1.90647
20
0.785118
11
1.90748
21
0.78494
0
LINE
8
BLACK
6
CONTINUOUS
10
2.00598
20
0.78494
11
2.00752
21
0.783642
0
LINE
8
BLACK
6
CONTINUOUS
10
2.00752
20
0.783642
11
2.00787
21
0.781653
0
LINE
8
BLACK
6
CONTINUOUS
10
2.00787
20
0.781653
11
2.00686
21
0.779903
0
LINE
8
BLACK
6
CONTINUOUS
10
2.00686
20
0.779903
11
2.00497
21
0.779213
0
LINE
8
BLACK
6
CONTINUOUS
10
2.00497
20
0.779213
11
1.97597
21
0.779213
0
LINE
8
BLACK
6
CONTINUOUS
10
1.97597
20
0.779213
11
1.97496
21
0.779391
0
LINE
8
BLACK
6
CONTINUOUS
10
1.97496
20
0.779391
11
1.97341
21
0.780689
0
LINE
8
BLACK
6
CONTINUOUS
10
1.97341
20
0.780689
11
1.97306
21
0.782678
0
LINE
8
BLACK
6
CONTINUOUS
10
1.97306
20
0.782678
11
1.97407
21
0.784427
0
LINE
8
BLACK
6
CONTINUOUS
10
1.97407
20
0.784427
11
1.97597
21
0.785118
0
LINE
8
BLACK
6
CONTINUOUS
10
1.97597
20
0.785118
11
2.00497
21
0.785118
0
LINE
8
BLACK
6
CONTINUOUS
10
2.00497
20
0.785118
11
2.00598
21
0.78494
0
LINE
8
BLACK
6
CONTINUOUS
10
1.70998
20
0.78544
11
1.71152
21
0.784142
0
LINE
8
BLACK
6
CONTINUOUS
10
1.71152
20
0.784142
11
1.71187
21
0.782153
0
LINE
8
BLACK
6
CONTINUOUS
10
1.71187
20
0.782153
11
1.71086
21
0.780403
0
LINE
8
BLACK
6
CONTINUOUS
10
1.71086
20
0.780403
11
1.70897
21
0.779713
0
LINE
8
BLACK
6
CONTINUOUS
10
1.70897
20
0.779713
11
1.68097
21
0.779713
0
LINE
8
BLACK
6
CONTINUOUS
10
1.68097
20
0.779713
11
1.67996
21
0.779891
0
LINE
8
BLACK
6
CONTINUOUS
10
1.67996
20
0.779891
11
1.67841
21
0.781189
0
LINE
8
BLACK
6
CONTINUOUS
10
1.67841
20
0.781189
11
1.67806
21
0.783178
0
LINE
8
BLACK
6
CONTINUOUS
10
1.67806
20
0.783178
11
1.67907
21
0.784927
0
LINE
8
BLACK
6
CONTINUOUS
10
1.67907
20
0.784927
11
1.68097
21
0.785618
0
LINE
8
BLACK
6
CONTINUOUS
10
1.68097
20
0.785618
11
1.70897
21
0.785618
0
LINE
8
BLACK
6
CONTINUOUS
10
1.70897
20
0.785618
11
1.70998
21
0.78544
0
LINE
8
BLACK
6
CONTINUOUS
10
2.20098
20
0.78544
11
2.20252
21
0.784142
0
LINE
8
BLACK
6
CONTINUOUS
10
2.20252
20
0.784142
11
2.20287
21
0.782153
0
LINE
8
BLACK
6
CONTINUOUS
10
2.20287
20
0.782153
11
2.20186
21
0.780403
0
LINE
8
BLACK
6
CONTINUOUS
10
2.20186
20
0.780403
11
2.19997
21
0.779713
0
LINE
8
BLACK
6
CONTINUOUS
10
2.19997
20
0.779713
11
2.14547
21
0.779713
0
LINE
8
BLACK
6
CONTINUOUS
10
2.14547
20
0.779713
11
2.14446
21
0.779891
0
LINE
8
BLACK
6
CONTINUOUS
10
2.14446
20
0.779891
11
2.14291
21
0.781189
0
LINE
8
BLACK
6
CONTINUOUS
10
2.14291
20
0.781189
11
2.14256
21
0.783178
0
LINE
8
BLACK
6
CONTINUOUS
10
2.14256
20
0.783178
11
2.14357
21
0.784927
0
LINE
8
BLACK
6
CONTINUOUS
10
2.14357
20
0.784927
11
2.14547
21
0.785618
0
LINE
8
BLACK
6
CONTINUOUS
10
2.14547
20
0.785618
11
2.19997
21
0.785618
0
LINE
8
BLACK
6
CONTINUOUS
10
2.19997
20
0.785618
11
2.20098
21
0.78544
0
LINE
8
BLACK
6
CONTINUOUS
10
0.536472
20
0.880375
11
0.53676
21
0.879679
0
LINE
8
BLACK
6
CONTINUOUS
10
0.53676
20
0.879679
11
0.53676
21
0.868431
0
LINE
8
BLACK
6
CONTINUOUS
10
0.53676
20
0.868431
11
0.536472
21
0.867735
0
LINE
8
BLACK
6
CONTINUOUS
10
0.536472
20
0.867735
11
0.535776
21
0.867447
0
LINE
8
BLACK
6
CONTINUOUS
10
0.535776
20
0.867447
11
0.53508
21
0.867735
0
LINE
8
BLACK
6
CONTINUOUS
10
0.53508
20
0.867735
11
0.534792
21
0.868431
0
LINE
8
BLACK
6
CONTINUOUS
10
0.534792
20
0.868431
11
0.534792
21
0.873071
0
LINE
8
BLACK
6
CONTINUOUS
10
0.534792
20
0.873071
11
0.519342
21
0.873071
0
LINE
8
BLACK
6
CONTINUOUS
10
0.519342
20
0.873071
11
0.519449
21
0.872999
0
LINE
8
BLACK
6
CONTINUOUS
10
0.519449
20
0.872999
11
0.519505
21
0.872915
0
LINE
8
BLACK
6
CONTINUOUS
10
0.519505
20
0.872915
11
0.519599
21
0.872876
0
LINE
8
BLACK
6
CONTINUOUS
10
0.519599
20
0.872876
11
0.521474
21
0.871002
0
LINE
8
BLACK
6
CONTINUOUS
10
0.521474
20
0.871002
11
0.521536
21
0.870852
0
LINE
8
BLACK
6
CONTINUOUS
10
0.521536
20
0.870852
11
0.521658
21
0.870746
0
LINE
8
BLACK
6
CONTINUOUS
10
0.521658
20
0.870746
11
0.522596
21
0.868871
0
LINE
8
BLACK
6
CONTINUOUS
10
0.522596
20
0.868871
11
0.522649
21
0.86812
0
LINE
8
BLACK
6
CONTINUOUS
10
0.522649
20
0.86812
11
0.522155
21
0.867551
0
LINE
8
BLACK
6
CONTINUOUS
10
0.522155
20
0.867551
11
0.521404
21
0.867497
0
LINE
8
BLACK
6
CONTINUOUS
10
0.521404
20
0.867497
11
0.520835
21
0.867991
0
LINE
8
BLACK
6
CONTINUOUS
10
0.520835
20
0.867991
11
0.519969
21
0.869723
0
LINE
8
BLACK
6
CONTINUOUS
10
0.519969
20
0.869723
11
0.518276
21
0.871416
0
LINE
8
BLACK
6
CONTINUOUS
10
0.518276
20
0.871416
11
0.515545
21
0.873236
0
LINE
8
BLACK
6
CONTINUOUS
10
0.515545
20
0.873236
11
0.515489
21
0.87332
0
LINE
8
BLACK
6
CONTINUOUS
10
0.515489
20
0.87332
11
0.515395
21
0.873359
0
LINE
8
BLACK
6
CONTINUOUS
10
0.515395
20
0.873359
11
0.515285
21
0.873624
0
LINE
8
BLACK
6
CONTINUOUS
10
0.515285
20
0.873624
11
0.515126
21
0.873862
0
LINE
8
BLACK
6
CONTINUOUS
10
0.515126
20
0.873862
11
0.515145
21
0.873962
0
LINE
8
BLACK
6
CONTINUOUS
10
0.515145
20
0.873962
11
0.515107
21
0.874055
0
LINE
8
BLACK
6
CONTINUOUS
10
0.515107
20
0.874055
11
0.515216
21
0.87432
0
LINE
8
BLACK
6
CONTINUOUS
10
0.515216
20
0.87432
11
0.515272
21
0.874601
0
LINE
8
BLACK
6
CONTINUOUS
10
0.515272
20
0.874601
11
0.515356
21
0.874657
0
LINE
8
BLACK
6
CONTINUOUS
10
0.515356
20
0.874657
11
0.515395
21
0.874751
0
LINE
8
BLACK
6
CONTINUOUS
10
0.515395
20
0.874751
11
0.51566
21
0.874861
0
LINE
8
BLACK
6
CONTINUOUS
10
0.51566
20
0.874861
11
0.515898
21
0.87502
0
LINE
8
BLACK
6
CONTINUOUS
10
0.515898
20
0.87502
11
0.515997
21
0.875001
0
LINE
8
BLACK
6
CONTINUOUS
10
0.515997
20
0.875001
11
0.516091
21
0.875039
0
LINE
8
BLACK
6
CONTINUOUS
10
0.516091
20
0.875039
11
0.534792
21
0.875039
0
LINE
8
BLACK
6
CONTINUOUS
10
0.534792
20
0.875039
11
0.534792
21
0.879679
0
LINE
8
BLACK
6
CONTINUOUS
10
0.534792
20
0.879679
11
0.53508
21
0.880375
0
LINE
8
BLACK
6
CONTINUOUS
10
0.53508
20
0.880375
11
0.535776
21
0.880664
0
LINE
8
BLACK
6
CONTINUOUS
10
0.535776
20
0.880664
11
0.536472
21
0.880375
0
LINE
8
BLACK
6
CONTINUOUS
10
2.50295
20
1.49143
11
2.50364
21
1.48976
0
LINE
8
BLACK
6
CONTINUOUS
10
2.50364
20
1.48976
11
2.50295
21
1.48809
0
LINE
8
BLACK
6
CONTINUOUS
10
2.50295
20
1.48809
11
2.50128
21
1.4874
0
LINE
8
BLACK
6
CONTINUOUS
10
2.50128
20
1.4874
11
2.42569
21
1.4874
0
LINE
8
BLACK
6
CONTINUOUS
10
2.42569
20
1.4874
11
2.42569
21
0.912598
0
LINE
8
BLACK
6
CONTINUOUS
10
2.42569
20
0.912598
11
2.50128
21
0.912598
0
LINE
8
BLACK
6
CONTINUOUS
10
2.50128
20
0.912598
11
2.50295
21
0.911907
0
LINE
8
BLACK
6
CONTINUOUS
10
2.50295
20
0.911907
11
2.50364
21
0.910236
0
LINE
8
BLACK
6
CONTINUOUS
10
2.50364
20
0.910236
11
2.50295
21
0.908566
0
LINE
8
BLACK
6
CONTINUOUS
10
2.50295
20
0.908566
11
2.50128
21
0.907874
0
LINE
8
BLACK
6
CONTINUOUS
10
2.50128
20
0.907874
11
2.42333
21
0.907874
0
LINE
8
BLACK
6
CONTINUOUS
10
2.42333
20
0.907874
11
2.42166
21
0.908566
0
LINE
8
BLACK
6
CONTINUOUS
10
2.42166
20
0.908566
11
2.42096
21
0.910236
0
LINE
8
BLACK
6
CONTINUOUS
10
2.42096
20
0.910236
11
2.42096
21
0.910236
0
LINE
8
BLACK
6
CONTINUOUS
10
2.42096
20
0.910236
11
2.42096
21
1.48976
0
LINE
8
BLACK
6
CONTINUOUS
10
2.42096
20
1.48976
11
2.42166
21
1.49143
0
LINE
8
BLACK
6
CONTINUOUS
10
2.42166
20
1.49143
11
2.42333
21
1.49213
0
LINE
8
BLACK
6
CONTINUOUS
10
2.42333
20
1.49213
11
2.50128
21
1.49213
0
LINE
8
BLACK
6
CONTINUOUS
10
2.50128
20
1.49213
11
2.50295
21
1.49143
0
LINE
8
BLACK
6
CONTINUOUS
10
2.98317
20
1.49213
11
2.98484
21
1.49143
0
LINE
8
BLACK
6
CONTINUOUS
10
2.98484
20
1.49143
11
2.98553
21
1.48976
0
LINE
8
BLACK
6
CONTINUOUS
10
2.98553
20
1.48976
11
2.98553
21
0.910236
0
LINE
8
BLACK
6
CONTINUOUS
10
2.98553
20
0.910236
11
2.98484
21
0.908566
0
LINE
8
BLACK
6
CONTINUOUS
10
2.98484
20
0.908566
11
2.98317
21
0.907874
0
LINE
8
BLACK
6
CONTINUOUS
10
2.98317
20
0.907874
11
2.64695
21
0.907874
0
LINE
8
BLACK
6
CONTINUOUS
10
2.64695
20
0.907874
11
2.64528
21
0.908566
0
LINE
8
BLACK
6
CONTINUOUS
10
2.64528
20
0.908566
11
2.64459
21
0.910236
0
LINE
8
BLACK
6
CONTINUOUS
10
2.64459
20
0.910236
11
2.64528
21
0.911907
0
LINE
8
BLACK
6
CONTINUOUS
10
2.64528
20
0.911907
11
2.64695
21
0.912598
0
LINE
8
BLACK
6
CONTINUOUS
10
2.64695
20
0.912598
11
2.98081
21
0.912598
0
LINE
8
BLACK
6
CONTINUOUS
10
2.98081
20
0.912598
11
2.98081
21
1.4874
0
LINE
8
BLACK
6
CONTINUOUS
10
2.98081
20
1.4874
11
2.64695
21
1.4874
0
LINE
8
BLACK
6
CONTINUOUS
10
2.64695
20
1.4874
11
2.64528
21
1.48809
0
LINE
8
BLACK
6
CONTINUOUS
10
2.64528
20
1.48809
11
2.64459
21
1.48976
0
LINE
8
BLACK
6
CONTINUOUS
10
2.64459
20
1.48976
11
2.64528
21
1.49143
0
LINE
8
BLACK
6
CONTINUOUS
10
2.64528
20
1.49143
11
2.64695
21
1.49213
0
LINE
8
BLACK
6
CONTINUOUS
10
2.64695
20
1.49213
11
2.98317
21
1.49213
0
LINE
8
BLACK
6
CONTINUOUS
10
0.54104
20
1.44222
11
0.541732
21
1.44055
0
LINE
8
BLACK
6
CONTINUOUS
10
0.541732
20
1.44055
11
0.54104
21
1.43888
0
LINE
8
BLACK
6
CONTINUOUS
10
0.54104
20
1.43888
11
0.53937
21
1.43819
0
LINE
8
BLACK
6
CONTINUOUS
10
0.53937
20
1.43819
11
0.227953
21
1.43819
0
LINE
8
BLACK
6
CONTINUOUS
10
0.227953
20
1.43819
11
0.227953
21
0.961811
0
LINE
8
BLACK
6
CONTINUOUS
10
0.227953
20
0.961811
11
0.53937
21
0.961811
0
LINE
8
BLACK
6
CONTINUOUS
10
0.53937
20
0.961811
11
0.54104
21
0.961119
0
LINE
8
BLACK
6
CONTINUOUS
10
0.54104
20
0.961119
11
0.541732
21
0.959449
0
LINE
8
BLACK
6
CONTINUOUS
10
0.541732
20
0.959449
11
0.54104
21
0.957779
0
LINE
8
BLACK
6
CONTINUOUS
10
0.54104
20
0.957779
11
0.53937
21
0.957087
0
LINE
8
BLACK
6
CONTINUOUS
10
0.53937
20
0.957087
11
0.225591
21
0.957087
0
LINE
8
BLACK
6
CONTINUOUS
10
0.225591
20
0.957087
11
0.22392
21
0.957779
0
LINE
8
BLACK
6
CONTINUOUS
10
0.22392
20
0.957779
11
0.223228
21
0.959449
0
LINE
8
BLACK
6
CONTINUOUS
10
0.223228
20
0.959449
11
0.223228
21
1.44055
0
LINE
8
BLACK
6
CONTINUOUS
10
0.223228
20
1.44055
11
0.22392
21
1.44222
0
LINE
8
BLACK
6
CONTINUOUS
10
0.22392
20
1.44222
11
0.225591
21
1.44291
0
LINE
8
BLACK
6
CONTINUOUS
10
0.225591
20
1.44291
11
0.53937
21
1.44291
0
LINE
8
BLACK
6
CONTINUOUS
10
0.53937
20
1.44291
11
0.54104
21
1.44222
0
LINE
8
BLACK
6
CONTINUOUS
10
0.879921
20
1.44291
11
0.881592
21
1.44222
0
LINE
8
BLACK
6
CONTINUOUS
10
0.881592
20
1.44222
11
0.882283
21
1.44055
0
LINE
8
BLACK
6
CONTINUOUS
10
0.882283
20
1.44055
11
0.882283
21
0.959449
0
LINE
8
BLACK
6
CONTINUOUS
10
0.882283
20
0.959449
11
0.881592
21
0.957779
0
LINE
8
BLACK
6
CONTINUOUS
10
0.881592
20
0.957779
11
0.879921
21
0.957087
0
LINE
8
BLACK
6
CONTINUOUS
10
0.879921
20
0.957087
11
0.732283
21
0.957087
0
LINE
8
BLACK
6
CONTINUOUS
10
0.732283
20
0.957087
11
0.730613
21
0.957779
0
LINE
8
BLACK
6
CONTINUOUS
10
0.730613
20
0.957779
11
0.729921
21
0.959449
0
LINE
8
BLACK
6
CONTINUOUS
10
0.729921
20
0.959449
11
0.730613
21
0.961119
0
LINE
8
BLACK
6
CONTINUOUS
10
0.730613
20
0.961119
11
0.732283
21
0.961811
0
LINE
8
BLACK
6
CONTINUOUS
10
0.732283
20
0.961811
11
0.877559
21
0.961811
0
LINE
8
BLACK
6
CONTINUOUS
10
0.877559
20
0.961811
11
0.877559
21
1.43819
0
LINE
8
BLACK
6
CONTINUOUS
10
0.877559
20
1.43819
11
0.732283
21
1.43819
0
LINE
8
BLACK
6
CONTINUOUS
10
0.732283
20
1.43819
11
0.730613
21
1.43888
0
LINE
8
BLACK
6
CONTINUOUS
10
0.730613
20
1.43888
11
0.729921
21
1.44055
0
LINE
8
BLACK
6
CONTINUOUS
10
0.729921
20
1.44055
11
0.730613
21
1.44222
0
LINE
8
BLACK
6
CONTINUOUS
10
0.730613
20
1.44222
11
0.732283
21
1.44291
0
LINE
8
BLACK
6
CONTINUOUS
10
0.732283
20
1.44291
11
0.879921
21
1.44291
0
LINE
8
BLACK
6
CONTINUOUS
10
2.23261
20
1.97506
11
2.2333
21
1.97317
0
LINE
8
BLACK
6
CONTINUOUS
10
2.2333
20
1.97317
11
2.2333
21
0.995165
0
LINE
8
BLACK
6
CONTINUOUS
10
2.2333
20
0.995165
11
2.23312
21
0.994155
0
LINE
8
BLACK
6
CONTINUOUS
10
2.23312
20
0.994155
11
2.23182
21
0.992608
0
LINE
8
BLACK
6
CONTINUOUS
10
2.23182
20
0.992608
11
2.22984
21
0.992257
0
LINE
8
BLACK
6
CONTINUOUS
10
2.22984
20
0.992257
11
2.22809
21
0.993267
0
LINE
8
BLACK
6
CONTINUOUS
10
2.22809
20
0.993267
11
2.2274
21
0.995165
0
LINE
8
BLACK
6
CONTINUOUS
10
2.2274
20
0.995165
11
2.2274
21
1.97317
0
LINE
8
BLACK
6
CONTINUOUS
10
2.2274
20
1.97317
11
2.22757
21
1.97418
0
LINE
8
BLACK
6
CONTINUOUS
10
2.22757
20
1.97418
11
2.22887
21
1.97572
0
LINE
8
BLACK
6
CONTINUOUS
10
2.22887
20
1.97572
11
2.23086
21
1.97607
0
LINE
8
BLACK
6
CONTINUOUS
10
2.23086
20
1.97607
11
2.23261
21
1.97506
0
LINE
8
BLACK
6
CONTINUOUS
10
1.09285
20
1.72906
11
1.09354
21
1.72717
0
LINE
8
BLACK
6
CONTINUOUS
10
1.09354
20
1.72717
11
1.09354
21
0.996665
0
LINE
8
BLACK
6
CONTINUOUS
10
1.09354
20
0.996665
11
1.09336
21
0.995655
0
LINE
8
BLACK
6
CONTINUOUS
10
1.09336
20
0.995655
11
1.09206
21
0.994108
0
LINE
8
BLACK
6
CONTINUOUS
10
1.09206
20
0.994108
11
1.09007
21
0.993757
0
LINE
8
BLACK
6
CONTINUOUS
10
1.09007
20
0.993757
11
1.08832
21
0.994767
0
LINE
8
BLACK
6
CONTINUOUS
10
1.08832
20
0.994767
11
1.08763
21
0.996665
0
LINE
8
BLACK
6
CONTINUOUS
10
1.08763
20
0.996665
11
1.08763
21
1.72717
0
LINE
8
BLACK
6
CONTINUOUS
10
1.08763
20
1.72717
11
1.08781
21
1.72818
0
LINE
8
BLACK
6
CONTINUOUS
10
1.08781
20
1.72818
11
1.08911
21
1.72972
0
LINE
8
BLACK
6
CONTINUOUS
10
1.08911
20
1.72972
11
1.0911
21
1.73007
0
LINE
8
BLACK
6
CONTINUOUS
10
1.0911
20
1.73007
11
1.09285
21
1.72906
0
LINE
8
BLACK
6
CONTINUOUS
10
2.39035
20
1.08356
11
2.39035
21
1.08356
0
LINE
8
BLACK
6
CONTINUOUS
10
2.39035
20
1.08356
11
2.41004
21
1.06388
0
LINE
8
BLACK
6
CONTINUOUS
10
2.41004
20
1.06388
11
2.41004
21
1.06388
0
LINE
8
BLACK
6
CONTINUOUS
10
2.41004
20
1.06388
11
2.41004
21
1.06388
0
LINE
8
BLACK
6
CONTINUOUS
10
2.41004
20
1.06388
11
2.41073
21
1.0622
0
LINE
8
BLACK
6
CONTINUOUS
10
2.41073
20
1.0622
11
2.41004
21
1.06053
0
LINE
8
BLACK
6
CONTINUOUS
10
2.41004
20
1.06053
11
2.41004
21
1.06053
0
LINE
8
BLACK
6
CONTINUOUS
10
2.41004
20
1.06053
11
2.39035
21
1.04085
0
LINE
8
BLACK
6
CONTINUOUS
10
2.39035
20
1.04085
11
2.38868
21
1.04016
0
LINE
8
BLACK
6
CONTINUOUS
10
2.38868
20
1.04016
11
2.38701
21
1.04085
0
LINE
8
BLACK
6
CONTINUOUS
10
2.38701
20
1.04085
11
2.38632
21
1.04252
0
LINE
8
BLACK
6
CONTINUOUS
10
2.38632
20
1.04252
11
2.38632
21
1.08189
0
LINE
8
BLACK
6
CONTINUOUS
10
2.38632
20
1.08189
11
2.38701
21
1.08356
0
LINE
8
BLACK
6
CONTINUOUS
10
2.38701
20
1.08356
11
2.38868
21
1.08425
0
LINE
8
BLACK
6
CONTINUOUS
10
2.38868
20
1.08425
11
2.39035
21
1.08356
0
LINE
8
BLACK
6
CONTINUOUS
10
2.39104
20
1.04822
11
2.40503
21
1.0622
0
LINE
8
BLACK
6
CONTINUOUS
10
2.40503
20
1.0622
11
2.39104
21
1.07619
0
LINE
8
BLACK
6
CONTINUOUS
10
2.39104
20
1.07619
11
2.39104
21
1.04822
0
LINE
8
BLACK
6
CONTINUOUS
10
1.02303
20
1.15147
11
1.02372
21
1.1498
0
LINE
8
BLACK
6
CONTINUOUS
10
1.02372
20
1.1498
11
1.02372
21
1.09744
0
LINE
8
BLACK
6
CONTINUOUS
10
1.02372
20
1.09744
11
1.02303
21
1.09577
0
LINE
8
BLACK
6
CONTINUOUS
10
1.02303
20
1.09577
11
1.02136
21
1.09508
0
LINE
8
BLACK
6
CONTINUOUS
10
1.02136
20
1.09508
11
0.968996
21
1.09508
0
LINE
8
BLACK
6
CONTINUOUS
10
0.968996
20
1.09508
11
0.967326
21
1.09577
0
LINE
8
BLACK
6
CONTINUOUS
10
0.967326
20
1.09577
11
0.966634
21
1.09744
0
LINE
8
BLACK
6
CONTINUOUS
10
0.966634
20
1.09744
11
0.967326
21
1.09911
0
LINE
8
BLACK
6
CONTINUOUS
10
0.967326
20
1.09911
11
0.968996
21
1.0998
0
LINE
8
BLACK
6
CONTINUOUS
10
0.968996
20
1.0998
11
1.019
21
1.0998
0
LINE
8
BLACK
6
CONTINUOUS
10
1.019
20
1.0998
11
1.019
21
1.1498
0
LINE
8
BLACK
6
CONTINUOUS
10
1.019
20
1.1498
11
1.01969
21
1.15147
0
LINE
8
BLACK
6
CONTINUOUS
10
1.01969
20
1.15147
11
1.02136
21
1.15217
0
LINE
8
BLACK
6
CONTINUOUS
10
1.02136
20
1.15217
11
1.02303
21
1.15147
0
LINE
8
BLACK
6
CONTINUOUS
10
2.38307
20
1.20256
11
2.38474
21
1.20187
0
LINE
8
BLACK
6
CONTINUOUS
10
2.38474
20
1.20187
11
2.38543
21
1.2002
0
LINE
8
BLACK
6
CONTINUOUS
10
2.38543
20
1.2002
11
2.38543
21
1.09783
0
LINE
8
BLACK
6
CONTINUOUS
10
2.38543
20
1.09783
11
2.38474
21
1.09616
0
LINE
8
BLACK
6
CONTINUOUS
10
2.38474
20
1.09616
11
2.38307
21
1.09547
0
LINE
8
BLACK
6
CONTINUOUS
10
2.38307
20
1.09547
11
2.27835
21
1.09547
0
LINE
8
BLACK
6
CONTINUOUS
10
2.27835
20
1.09547
11
2.27668
21
1.09616
0
LINE
8
BLACK
6
CONTINUOUS
10
2.27668
20
1.09616
11
2.27598
21
1.09783
0
LINE
8
BLACK
6
CONTINUOUS
10
2.27598
20
1.09783
11
2.27598
21
1.2002
0
LINE
8
BLACK
6
CONTINUOUS
10
2.27598
20
1.2002
11
2.27668
21
1.20187
0
LINE
8
BLACK
6
CONTINUOUS
10
2.27668
20
1.20187
11
2.27835
21
1.20256
0
LINE
8
BLACK
6
CONTINUOUS
10
2.27835
20
1.20256
11
2.38307
21
1.20256
0
LINE
8
BLACK
6
CONTINUOUS
10
2.28071
20
1.19783
11
2.28071
21
1.1002
0
LINE
8
BLACK
6
CONTINUOUS
10
2.28071
20
1.1002
11
2.38071
21
1.1002
0
LINE
8
BLACK
6
CONTINUOUS
10
2.38071
20
1.1002
11
2.38071
21
1.19783
0
LINE
8
BLACK
6
CONTINUOUS
10
2.38071
20
1.19783
11
2.28071
21
1.19783
0
LINE
8
BLACK
6
CONTINUOUS
10
0.90748
20
1.17283
11
0.909151
21
1.17214
0
LINE
8
BLACK
6
CONTINUOUS
10
0.909151
20
1.17214
11
0.909843
21
1.17047
0
LINE
8
BLACK
6
CONTINUOUS
10
0.909843
20
1.17047
11
0.909843
21
1.1311
0
LINE
8
BLACK
6
CONTINUOUS
10
0.909843
20
1.1311
11
0.909843
21
1.1311
0
LINE
8
BLACK
6
CONTINUOUS
10
0.909843
20
1.1311
11
0.909151
21
1.12943
0
LINE
8
BLACK
6
CONTINUOUS
10
0.909151
20
1.12943
11
0.90748
21
1.12874
0
LINE
8
BLACK
6
CONTINUOUS
10
0.90748
20
1.12874
11
0.90581
21
1.12943
0
LINE
8
BLACK
6
CONTINUOUS
10
0.90581
20
1.12943
11
0.886125
21
1.14912
0
LINE
8
BLACK
6
CONTINUOUS
10
0.886125
20
1.14912
11
0.885433
21
1.15079
0
LINE
8
BLACK
6
CONTINUOUS
10
0.885433
20
1.15079
11
0.886125
21
1.15246
0
LINE
8
BLACK
6
CONTINUOUS
10
0.886125
20
1.15246
11
0.90581
21
1.17214
0
LINE
8
BLACK
6
CONTINUOUS
10
0.90581
20
1.17214
11
0.90748
21
1.17283
0
LINE
8
BLACK
6
CONTINUOUS
10
0.891136
20
1.15079
11
0.905118
21
1.13681
0
LINE
8
BLACK
6
CONTINUOUS
10
0.905118
20
1.13681
11
0.905118
21
1.16477
0
LINE
8
BLACK
6
CONTINUOUS
10
0.905118
20
1.16477
11
0.891136
21
1.15079
0
LINE
8
BLACK
6
CONTINUOUS
10
1.02136
20
1.30453
11
1.02303
21
1.30384
0
LINE
8
BLACK
6
CONTINUOUS
10
1.02303
20
1.30384
11
1.02372
21
1.30217
0
LINE
8
BLACK
6
CONTINUOUS
10
1.02372
20
1.30217
11
1.02372
21
1.1998
0
LINE
8
BLACK
6
CONTINUOUS
10
1.02372
20
1.1998
11
1.02303
21
1.19813
0
LINE
8
BLACK
6
CONTINUOUS
10
1.02303
20
1.19813
11
1.02136
21
1.19744
0
LINE
8
BLACK
6
CONTINUOUS
10
1.02136
20
1.19744
11
0.916634
21
1.19744
0
LINE
8
BLACK
6
CONTINUOUS
10
0.916634
20
1.19744
11
0.914964
21
1.19813
0
LINE
8
BLACK
6
CONTINUOUS
10
0.914964
20
1.19813
11
0.914272
21
1.1998
0
LINE
8
BLACK
6
CONTINUOUS
10
0.914272
20
1.1998
11
0.914272
21
1.1998
0
LINE
8
BLACK
6
CONTINUOUS
10
0.914272
20
1.1998
11
0.914272
21
1.30217
0
LINE
8
BLACK
6
CONTINUOUS
10
0.914272
20
1.30217
11
0.914964
21
1.30384
0
LINE
8
BLACK
6
CONTINUOUS
10
0.914964
20
1.30384
11
0.916634
21
1.30453
0
LINE
8
BLACK
6
CONTINUOUS
10
0.916634
20
1.30453
11
1.02136
21
1.30453
0
LINE
8
BLACK
6
CONTINUOUS
10
0.918996
20
1.2998
11
0.918996
21
1.20217
0
LINE
8
BLACK
6
CONTINUOUS
10
0.918996
20
1.20217
11
1.019
21
1.20217
0
LINE
8
BLACK
6
CONTINUOUS
10
1.019
20
1.20217
11
1.019
21
1.2998
0
LINE
8
BLACK
6
CONTINUOUS
10
1.019
20
1.2998
11
0.918996
21
1.2998
0
LINE
8
BLACK
6
CONTINUOUS
10
2.33238
20
1.30423
11
2.33307
21
1.30256
0
LINE
8
BLACK
6
CONTINUOUS
10
2.33307
20
1.30256
11
2.33238
21
1.30089
0
LINE
8
BLACK
6
CONTINUOUS
10
2.33238
20
1.30089
11
2.33071
21
1.3002
0
LINE
8
BLACK
6
CONTINUOUS
10
2.33071
20
1.3002
11
2.28071
21
1.3002
0
LINE
8
BLACK
6
CONTINUOUS
10
2.28071
20
1.3002
11
2.28071
21
1.2502
0
LINE
8
BLACK
6
CONTINUOUS
10
2.28071
20
1.2502
11
2.28002
21
1.24853
0
LINE
8
BLACK
6
CONTINUOUS
10
2.28002
20
1.24853
11
2.27835
21
1.24783
0
LINE
8
BLACK
6
CONTINUOUS
10
2.27835
20
1.24783
11
2.27668
21
1.24853
0
LINE
8
BLACK
6
CONTINUOUS
10
2.27668
20
1.24853
11
2.27598
21
1.2502
0
LINE
8
BLACK
6
CONTINUOUS
10
2.27598
20
1.2502
11
2.27598
21
1.30256
0
LINE
8
BLACK
6
CONTINUOUS
10
2.27598
20
1.30256
11
2.27668
21
1.30423
0
LINE
8
BLACK
6
CONTINUOUS
10
2.27668
20
1.30423
11
2.27835
21
1.30492
0
LINE
8
BLACK
6
CONTINUOUS
10
2.27835
20
1.30492
11
2.33071
21
1.30492
0
LINE
8
BLACK
6
CONTINUOUS
10
2.33071
20
1.30492
11
2.33238
21
1.30423
0
LINE
8
BLACK
6
CONTINUOUS
10
2.91338
20
1.81548
11
2.9135
21
1.81551
0
LINE
8
BLACK
6
CONTINUOUS
10
2.9135
20
1.81551
11
2.91362
21
1.81544
0
LINE
8
BLACK
6
CONTINUOUS
10
2.91362
20
1.81544
11
2.914
21
1.81537
0
LINE
8
BLACK
6
CONTINUOUS
10
2.914
20
1.81537
11
2.91459
21
1.81488
0
LINE
8
BLACK
6
CONTINUOUS
10
2.91459
20
1.81488
11
2.91525
21
1.8145
0
LINE
8
BLACK
6
CONTINUOUS
10
2.91525
20
1.8145
11
2.91535
21
1.81425
0
LINE
8
BLACK
6
CONTINUOUS
10
2.91535
20
1.81425
11
2.91555
21
1.81407
0
LINE
8
BLACK
6
CONTINUOUS
10
2.91555
20
1.81407
11
2.91568
21
1.81332
0
LINE
8
BLACK
6
CONTINUOUS
10
2.91568
20
1.81332
11
2.91594
21
1.8126
0
LINE
8
BLACK
6
CONTINUOUS
10
2.91594
20
1.8126
11
2.91594
21
1.6126
0
LINE
8
BLACK
6
CONTINUOUS
10
2.91594
20
1.6126
11
2.91588
21
1.61221
0
LINE
8
BLACK
6
CONTINUOUS
10
2.91588
20
1.61221
11
2.9159
21
1.61209
0
LINE
8
BLACK
6
CONTINUOUS
10
2.9159
20
1.61209
11
2.91583
21
1.61197
0
LINE
8
BLACK
6
CONTINUOUS
10
2.91583
20
1.61197
11
2.91577
21
1.61159
0
LINE
8
BLACK
6
CONTINUOUS
10
2.91577
20
1.61159
11
2.91527
21
1.611
0
LINE
8
BLACK
6
CONTINUOUS
10
2.91527
20
1.611
11
2.91489
21
1.61034
0
LINE
8
BLACK
6
CONTINUOUS
10
2.91489
20
1.61034
11
2.91464
21
1.61025
0
LINE
8
BLACK
6
CONTINUOUS
10
2.91464
20
1.61025
11
2.91447
21
1.61004
0
LINE
8
BLACK
6
CONTINUOUS
10
2.91447
20
1.61004
11
2.91371
21
1.60991
0
LINE
8
BLACK
6
CONTINUOUS
10
2.91371
20
1.60991
11
2.91299
21
1.60965
0
LINE
8
BLACK
6
CONTINUOUS
10
2.91299
20
1.60965
11
2.61299
21
1.60965
0
LINE
8
BLACK
6
CONTINUOUS
10
2.61299
20
1.60965
11
2.61261
21
1.60971
0
LINE
8
BLACK
6
CONTINUOUS
10
2.61261
20
1.60971
11
2.61248
21
1.60969
0
LINE
8
BLACK
6
CONTINUOUS
10
2.61248
20
1.60969
11
2.61237
21
1.60976
0
LINE
8
BLACK
6
CONTINUOUS
10
2.61237
20
1.60976
11
2.61198
21
1.60982
0
LINE
8
BLACK
6
CONTINUOUS
10
2.61198
20
1.60982
11
2.61139
21
1.61032
0
LINE
8
BLACK
6
CONTINUOUS
10
2.61139
20
1.61032
11
2.61073
21
1.6107
0
LINE
8
BLACK
6
CONTINUOUS
10
2.61073
20
1.6107
11
2.61064
21
1.61095
0
LINE
8
BLACK
6
CONTINUOUS
10
2.61064
20
1.61095
11
2.61043
21
1.61112
0
LINE
8
BLACK
6
CONTINUOUS
10
2.61043
20
1.61112
11
2.6103
21
1.61188
0
LINE
8
BLACK
6
CONTINUOUS
10
2.6103
20
1.61188
11
2.61004
21
1.6126
0
LINE
8
BLACK
6
CONTINUOUS
10
2.61004
20
1.6126
11
2.61004
21
1.8126
0
LINE
8
BLACK
6
CONTINUOUS
10
2.61004
20
1.8126
11
2.61011
21
1.81298
0
LINE
8
BLACK
6
CONTINUOUS
10
2.61011
20
1.81298
11
2.61008
21
1.81311
0
LINE
8
BLACK
6
CONTINUOUS
10
2.61008
20
1.81311
11
2.61015
21
1.81322
0
LINE
8
BLACK
6
CONTINUOUS
10
2.61015
20
1.81322
11
2.61022
21
1.81361
0
LINE
8
BLACK
6
CONTINUOUS
10
2.61022
20
1.81361
11
2.61071
21
1.8142
0
LINE
8
BLACK
6
CONTINUOUS
10
2.61071
20
1.8142
11
2.61109
21
1.81486
0
LINE
8
BLACK
6
CONTINUOUS
10
2.61109
20
1.81486
11
2.61134
21
1.81495
0
LINE
8
BLACK
6
CONTINUOUS
10
2.61134
20
1.81495
11
2.61152
21
1.81516
0
LINE
8
BLACK
6
CONTINUOUS
10
2.61152
20
1.81516
11
2.61227
21
1.81529
0
LINE
8
BLACK
6
CONTINUOUS
10
2.61227
20
1.81529
11
2.61299
21
1.81555
0
LINE
8
BLACK
6
CONTINUOUS
10
2.61299
20
1.81555
11
2.91299
21
1.81555
0
LINE
8
BLACK
6
CONTINUOUS
10
2.91299
20
1.81555
11
2.91338
21
1.81548
0
LINE
8
BLACK
6
CONTINUOUS
10
2.61594
20
1.80965
11
2.61594
21
1.61555
0
LINE
8
BLACK
6
CONTINUOUS
10
2.61594
20
1.61555
11
2.91004
21
1.61555
0
LINE
8
BLACK
6
CONTINUOUS
10
2.91004
20
1.61555
11
2.91004
21
1.80965
0
LINE
8
BLACK
6
CONTINUOUS
10
2.91004
20
1.80965
11
2.61594
21
1.80965
0
LINE
8
BLACK
6
CONTINUOUS
10
1.67911
20
1.66109
11
1.6798
21
1.6592
0
LINE
8
BLACK
6
CONTINUOUS
10
1.6798
20
1.6592
11
1.6798
21
1.63107
0
LINE
8
BLACK
6
CONTINUOUS
10
1.6798
20
1.63107
11
1.67964
21
1.63021
0
LINE
8
BLACK
6
CONTINUOUS
10
1.67964
20
1.63021
11
1.67964
21
1.63014
0
LINE
8
BLACK
6
CONTINUOUS
10
1.67964
20
1.63014
11
1.67777
21
1.62452
0
LINE
8
BLACK
6
CONTINUOUS
10
1.67777
20
1.62452
11
1.67728
21
1.62361
0
LINE
8
BLACK
6
CONTINUOUS
10
1.67728
20
1.62361
11
1.67713
21
1.62352
0
LINE
8
BLACK
6
CONTINUOUS
10
1.67713
20
1.62352
11
1.67706
21
1.62336
0
LINE
8
BLACK
6
CONTINUOUS
10
1.67706
20
1.62336
11
1.67331
21
1.61961
0
LINE
8
BLACK
6
CONTINUOUS
10
1.67331
20
1.61961
11
1.67247
21
1.61902
0
LINE
8
BLACK
6
CONTINUOUS
10
1.67247
20
1.61902
11
1.67229
21
1.61901
0
LINE
8
BLACK
6
CONTINUOUS
10
1.67229
20
1.61901
11
1.67215
21
1.6189
0
LINE
8
BLACK
6
CONTINUOUS
10
1.67215
20
1.6189
11
1.66653
21
1.61702
0
LINE
8
BLACK
6
CONTINUOUS
10
1.66653
20
1.61702
11
1.66566
21
1.6169
0
LINE
8
BLACK
6
CONTINUOUS
10
1.66566
20
1.6169
11
1.66559
21
1.61687
0
LINE
8
BLACK
6
CONTINUOUS
10
1.66559
20
1.61687
11
1.66185
21
1.61687
0
LINE
8
BLACK
6
CONTINUOUS
10
1.66185
20
1.61687
11
1.66084
21
1.61705
0
LINE
8
BLACK
6
CONTINUOUS
10
1.66084
20
1.61705
11
1.65929
21
1.61835
0
LINE
8
BLACK
6
CONTINUOUS
10
1.65929
20
1.61835
11
1.65894
21
1.62034
0
LINE
8
BLACK
6
CONTINUOUS
10
1.65894
20
1.62034
11
1.65995
21
1.62209
0
LINE
8
BLACK
6
CONTINUOUS
10
1.65995
20
1.62209
11
1.66185
21
1.62278
0
LINE
8
BLACK
6
CONTINUOUS
10
1.66185
20
1.62278
11
1.66512
21
1.62278
0
LINE
8
BLACK
6
CONTINUOUS
10
1.66512
20
1.62278
11
1.66962
21
1.62428
0
LINE
8
BLACK
6
CONTINUOUS
10
1.66962
20
1.62428
11
1.67239
21
1.62705
0
LINE
8
BLACK
6
CONTINUOUS
10
1.67239
20
1.62705
11
1.67389
21
1.63155
0
LINE
8
BLACK
6
CONTINUOUS
10
1.67389
20
1.63155
11
1.67389
21
1.6592
0
LINE
8
BLACK
6
CONTINUOUS
10
1.67389
20
1.6592
11
1.67407
21
1.66021
0
LINE
8
BLACK
6
CONTINUOUS
10
1.67407
20
1.66021
11
1.67537
21
1.66175
0
LINE
8
BLACK
6
CONTINUOUS
10
1.67537
20
1.66175
11
1.67736
21
1.6621
0
LINE
8
BLACK
6
CONTINUOUS
10
1.67736
20
1.6621
11
1.67911
21
1.66109
0
LINE
8
BLACK
6
CONTINUOUS
10
1.70972
20
1.66197
11
1.70986
21
1.66186
0
LINE
8
BLACK
6
CONTINUOUS
10
1.70986
20
1.66186
11
1.71003
21
1.66184
0
LINE
8
BLACK
6
CONTINUOUS
10
1.71003
20
1.66184
11
1.71378
21
1.65996
0
LINE
8
BLACK
6
CONTINUOUS
10
1.71378
20
1.65996
11
1.71449
21
1.65944
0
LINE
8
BLACK
6
CONTINUOUS
10
1.71449
20
1.65944
11
1.71455
21
1.65941
0
LINE
8
BLACK
6
CONTINUOUS
10
1.71455
20
1.65941
11
1.71643
21
1.65753
0
LINE
8
BLACK
6
CONTINUOUS
10
1.71643
20
1.65753
11
1.71693
21
1.65681
0
LINE
8
BLACK
6
CONTINUOUS
10
1.71693
20
1.65681
11
1.71698
21
1.65677
0
LINE
8
BLACK
6
CONTINUOUS
10
1.71698
20
1.65677
11
1.71885
21
1.65302
0
LINE
8
BLACK
6
CONTINUOUS
10
1.71885
20
1.65302
11
1.71915
21
1.65203
0
LINE
8
BLACK
6
CONTINUOUS
10
1.71915
20
1.65203
11
1.71911
21
1.65186
0
LINE
8
BLACK
6
CONTINUOUS
10
1.71911
20
1.65186
11
1.71917
21
1.6517
0
LINE
8
BLACK
6
CONTINUOUS
10
1.71917
20
1.6517
11
1.71917
21
1.6367
0
LINE
8
BLACK
6
CONTINUOUS
10
1.71917
20
1.6367
11
1.71906
21
1.63612
0
LINE
8
BLACK
6
CONTINUOUS
10
1.71906
20
1.63612
11
1.71908
21
1.63598
0
LINE
8
BLACK
6
CONTINUOUS
10
1.71908
20
1.63598
11
1.7172
21
1.62848
0
LINE
8
BLACK
6
CONTINUOUS
10
1.7172
20
1.62848
11
1.7168
21
1.62758
0
LINE
8
BLACK
6
CONTINUOUS
10
1.7168
20
1.62758
11
1.7168
21
1.62756
0
LINE
8
BLACK
6
CONTINUOUS
10
1.7168
20
1.62756
11
1.71305
21
1.62194
0
LINE
8
BLACK
6
CONTINUOUS
10
1.71305
20
1.62194
11
1.71273
21
1.62161
0
LINE
8
BLACK
6
CONTINUOUS
10
1.71273
20
1.62161
11
1.71268
21
1.62149
0
LINE
8
BLACK
6
CONTINUOUS
10
1.71268
20
1.62149
11
1.7108
21
1.61961
0
LINE
8
BLACK
6
CONTINUOUS
10
1.7108
20
1.61961
11
1.71008
21
1.61911
0
LINE
8
BLACK
6
CONTINUOUS
10
1.71008
20
1.61911
11
1.71003
21
1.61906
0
LINE
8
BLACK
6
CONTINUOUS
10
1.71003
20
1.61906
11
1.70629
21
1.61718
0
LINE
8
BLACK
6
CONTINUOUS
10
1.70629
20
1.61718
11
1.7053
21
1.61689
0
LINE
8
BLACK
6
CONTINUOUS
10
1.7053
20
1.61689
11
1.70513
21
1.61693
0
LINE
8
BLACK
6
CONTINUOUS
10
1.70513
20
1.61693
11
1.70496
21
1.61687
0
LINE
8
BLACK
6
CONTINUOUS
10
1.70496
20
1.61687
11
1.69747
21
1.61687
0
LINE
8
BLACK
6
CONTINUOUS
10
1.69747
20
1.61687
11
1.69646
21
1.61705
0
LINE
8
BLACK
6
CONTINUOUS
10
1.69646
20
1.61705
11
1.69491
21
1.61835
0
LINE
8
BLACK
6
CONTINUOUS
10
1.69491
20
1.61835
11
1.69456
21
1.62034
0
LINE
8
BLACK
6
CONTINUOUS
10
1.69456
20
1.62034
11
1.69557
21
1.62209
0
LINE
8
BLACK
6
CONTINUOUS
10
1.69557
20
1.62209
11
1.69747
21
1.62278
0
LINE
8
BLACK
6
CONTINUOUS
10
1.69747
20
1.62278
11
1.70427
21
1.62278
0
LINE
8
BLACK
6
CONTINUOUS
10
1.70427
20
1.62278
11
1.70697
21
1.62413
0
LINE
8
BLACK
6
CONTINUOUS
10
1.70697
20
1.62413
11
1.70829
21
1.62546
0
LINE
8
BLACK
6
CONTINUOUS
10
1.70829
20
1.62546
11
1.7116
21
1.63041
0
LINE
8
BLACK
6
CONTINUOUS
10
1.7116
20
1.63041
11
1.71233
21
1.63333
0
LINE
8
BLACK
6
CONTINUOUS
10
1.71233
20
1.63333
11
1.71003
21
1.63218
0
LINE
8
BLACK
6
CONTINUOUS
10
1.71003
20
1.63218
11
1.70905
21
1.63189
0
LINE
8
BLACK
6
CONTINUOUS
10
1.70905
20
1.63189
11
1.70888
21
1.63193
0
LINE
8
BLACK
6
CONTINUOUS
10
1.70888
20
1.63193
11
1.70871
21
1.63187
0
LINE
8
BLACK
6
CONTINUOUS
10
1.70871
20
1.63187
11
1.70122
21
1.63187
0
LINE
8
BLACK
6
CONTINUOUS
10
1.70122
20
1.63187
11
1.70021
21
1.63205
0
LINE
8
BLACK
6
CONTINUOUS
10
1.70021
20
1.63205
11
1.70007
21
1.63216
0
LINE
8
BLACK
6
CONTINUOUS
10
1.70007
20
1.63216
11
1.69989
21
1.63218
0
LINE
8
BLACK
6
CONTINUOUS
10
1.69989
20
1.63218
11
1.69615
21
1.63406
0
LINE
8
BLACK
6
CONTINUOUS
10
1.69615
20
1.63406
11
1.69544
21
1.63458
0
LINE
8
BLACK
6
CONTINUOUS
10
1.69544
20
1.63458
11
1.69538
21
1.63461
0
LINE
8
BLACK
6
CONTINUOUS
10
1.69538
20
1.63461
11
1.6935
21
1.63649
0
LINE
8
BLACK
6
CONTINUOUS
10
1.6935
20
1.63649
11
1.693
21
1.63721
0
LINE
8
BLACK
6
CONTINUOUS
10
1.693
20
1.63721
11
1.69295
21
1.63725
0
LINE
8
BLACK
6
CONTINUOUS
10
1.69295
20
1.63725
11
1.69108
21
1.641
0
LINE
8
BLACK
6
CONTINUOUS
10
1.69108
20
1.641
11
1.69078
21
1.64199
0
LINE
8
BLACK
6
CONTINUOUS
10
1.69078
20
1.64199
11
1.69082
21
1.64216
0
LINE
8
BLACK
6
CONTINUOUS
10
1.69082
20
1.64216
11
1.69076
21
1.64232
0
LINE
8
BLACK
6
CONTINUOUS
10
1.69076
20
1.64232
11
1.69076
21
1.6517
0
LINE
8
BLACK
6
CONTINUOUS
10
1.69076
20
1.6517
11
1.69094
21
1.65271
0
LINE
8
BLACK
6
CONTINUOUS
10
1.69094
20
1.65271
11
1.69105
21
1.65284
0
LINE
8
BLACK
6
CONTINUOUS
10
1.69105
20
1.65284
11
1.69108
21
1.65302
0
LINE
8
BLACK
6
CONTINUOUS
10
1.69108
20
1.65302
11
1.69295
21
1.65677
0
LINE
8
BLACK
6
CONTINUOUS
10
1.69295
20
1.65677
11
1.69348
21
1.65748
0
LINE
8
BLACK
6
CONTINUOUS
10
1.69348
20
1.65748
11
1.6935
21
1.65753
0
LINE
8
BLACK
6
CONTINUOUS
10
1.6935
20
1.65753
11
1.69538
21
1.65941
0
LINE
8
BLACK
6
CONTINUOUS
10
1.69538
20
1.65941
11
1.6961
21
1.65992
0
LINE
8
BLACK
6
CONTINUOUS
10
1.6961
20
1.65992
11
1.69615
21
1.65996
0
LINE
8
BLACK
6
CONTINUOUS
10
1.69615
20
1.65996
11
1.69989
21
1.66184
0
LINE
8
BLACK
6
CONTINUOUS
10
1.69989
20
1.66184
11
1.70088
21
1.66213
0
LINE
8
BLACK
6
CONTINUOUS
10
1.70088
20
1.66213
11
1.70105
21
1.66209
0
LINE
8
BLACK
6
CONTINUOUS
10
1.70105
20
1.66209
11
1.70122
21
1.66215
0
LINE
8
BLACK
6
CONTINUOUS
10
1.70122
20
1.66215
11
1.70871
21
1.66215
0
LINE
8
BLACK
6
CONTINUOUS
10
1.70871
20
1.66215
11
1.70972
21
1.66197
0
LINE
8
BLACK
6
CONTINUOUS
10
1.69921
20
1.65489
11
1.69802
21
1.6537
0
LINE
8
BLACK
6
CONTINUOUS
10
1.69802
20
1.6537
11
1.69667
21
1.651
0
LINE
8
BLACK
6
CONTINUOUS
10
1.69667
20
1.651
11
1.69667
21
1.64302
0
LINE
8
BLACK
6
CONTINUOUS
10
1.69667
20
1.64302
11
1.69802
21
1.64032
0
LINE
8
BLACK
6
CONTINUOUS
10
1.69802
20
1.64032
11
1.69921
21
1.63913
0
LINE
8
BLACK
6
CONTINUOUS
10
1.69921
20
1.63913
11
1.70191
21
1.63778
0
LINE
8
BLACK
6
CONTINUOUS
10
1.70191
20
1.63778
11
1.70802
21
1.63778
0
LINE
8
BLACK
6
CONTINUOUS
10
1.70802
20
1.63778
11
1.71071
21
1.63913
0
LINE
8
BLACK
6
CONTINUOUS
10
1.71071
20
1.63913
11
1.71191
21
1.64032
0
LINE
8
BLACK
6
CONTINUOUS
10
1.71191
20
1.64032
11
1.71326
21
1.64302
0
LINE
8
BLACK
6
CONTINUOUS
10
1.71326
20
1.64302
11
1.71326
21
1.651
0
LINE
8
BLACK
6
CONTINUOUS
10
1.71326
20
1.651
11
1.71191
21
1.6537
0
LINE
8
BLACK
6
CONTINUOUS
10
1.71191
20
1.6537
11
1.71071
21
1.65489
0
LINE
8
BLACK
6
CONTINUOUS
10
1.71071
20
1.65489
11
1.70802
21
1.65624
0
LINE
8
BLACK
6
CONTINUOUS
10
1.70802
20
1.65624
11
1.70191
21
1.65624
0
LINE
8
BLACK
6
CONTINUOUS
10
1.70191
20
1.65624
11
1.69921
21
1.65489
0
LINE
8
BLACK
6
CONTINUOUS
10
2.17329
20
2.17994
11
2.17483
21
2.17864
0
LINE
8
BLACK
6
CONTINUOUS
10
2.17483
20
2.17864
11
2.17519
21
2.17665
0
LINE
8
BLACK
6
CONTINUOUS
10
2.17519
20
2.17665
11
2.17418
21
2.1749
0
LINE
8
BLACK
6
CONTINUOUS
10
2.17418
20
2.1749
11
2.17228
21
2.17421
0
LINE
8
BLACK
6
CONTINUOUS
10
2.17228
20
2.17421
11
0.877986
21
2.17421
0
LINE
8
BLACK
6
CONTINUOUS
10
0.877986
20
2.17421
11
0.877986
21
1.98212
0
LINE
8
BLACK
6
CONTINUOUS
10
0.877986
20
1.98212
11
1.09058
21
1.98212
0
LINE
8
BLACK
6
CONTINUOUS
10
1.09058
20
1.98212
11
1.09097
21
1.98205
0
LINE
8
BLACK
6
CONTINUOUS
10
1.09097
20
1.98205
11
1.0911
21
1.98207
0
LINE
8
BLACK
6
CONTINUOUS
10
1.0911
20
1.98207
11
1.09121
21
1.98201
0
LINE
8
BLACK
6
CONTINUOUS
10
1.09121
20
1.98201
11
1.09159
21
1.98194
0
LINE
8
BLACK
6
CONTINUOUS
10
1.09159
20
1.98194
11
1.09218
21
1.98145
0
LINE
8
BLACK
6
CONTINUOUS
10
1.09218
20
1.98145
11
1.09285
21
1.98106
0
LINE
8
BLACK
6
CONTINUOUS
10
1.09285
20
1.98106
11
1.09294
21
1.98081
0
LINE
8
BLACK
6
CONTINUOUS
10
1.09294
20
1.98081
11
1.09314
21
1.98064
0
LINE
8
BLACK
6
CONTINUOUS
10
1.09314
20
1.98064
11
1.09328
21
1.97989
0
LINE
8
BLACK
6
CONTINUOUS
10
1.09328
20
1.97989
11
1.09354
21
1.97917
0
LINE
8
BLACK
6
CONTINUOUS
10
1.09354
20
1.97917
11
1.09354
21
1.94667
0
LINE
8
BLACK
6
CONTINUOUS
10
1.09354
20
1.94667
11
1.09336
21
1.94566
0
LINE
8
BLACK
6
CONTINUOUS
10
1.09336
20
1.94566
11
1.09206
21
1.94411
0
LINE
8
BLACK
6
CONTINUOUS
10
1.09206
20
1.94411
11
1.09007
21
1.94376
0
LINE
8
BLACK
6
CONTINUOUS
10
1.09007
20
1.94376
11
1.08832
21
1.94477
0
LINE
8
BLACK
6
CONTINUOUS
10
1.08832
20
1.94477
11
1.08763
21
1.94667
0
LINE
8
BLACK
6
CONTINUOUS
10
1.08763
20
1.94667
11
1.08763
21
1.97621
0
LINE
8
BLACK
6
CONTINUOUS
10
1.08763
20
1.97621
11
0.875033
21
1.97621
0
LINE
8
BLACK
6
CONTINUOUS
10
0.875033
20
1.97621
11
0.87465
21
1.97628
0
LINE
8
BLACK
6
CONTINUOUS
10
0.87465
20
1.97628
11
0.874521
21
1.97626
0
LINE
8
BLACK
6
CONTINUOUS
10
0.874521
20
1.97626
11
0.874407
21
1.97632
0
LINE
8
BLACK
6
CONTINUOUS
10
0.874407
20
1.97632
11
0.874024
21
1.97639
0
LINE
8
BLACK
6
CONTINUOUS
10
0.874024
20
1.97639
11
0.873436
21
1.97688
0
LINE
8
BLACK
6
CONTINUOUS
10
0.873436
20
1.97688
11
0.872772
21
1.97727
0
LINE
8
BLACK
6
CONTINUOUS
10
0.872772
20
1.97727
11
0.87268
21
1.97752
0
LINE
8
BLACK
6
CONTINUOUS
10
0.87268
20
1.97752
11
0.872476
21
1.97769
0
LINE
8
BLACK
6
CONTINUOUS
10
0.872476
20
1.97769
11
0.872343
21
1.97844
0
LINE
8
BLACK
6
CONTINUOUS
10
0.872343
20
1.97844
11
0.872081
21
1.97917
0
LINE
8
BLACK
6
CONTINUOUS
10
0.872081
20
1.97917
11
0.872081
21
2.17717
0
LINE
8
BLACK
6
CONTINUOUS
10
0.872081
20
2.17717
11
0.872148
21
2.17755
0
LINE
8
BLACK
6
CONTINUOUS
10
0.872148
20
2.17755
11
0.872126
21
2.17768
0
LINE
8
BLACK
6
CONTINUOUS
10
0.872126
20
2.17768
11
0.872191
21
2.17779
0
LINE
8
BLACK
6
CONTINUOUS
10
0.872191
20
2.17779
11
0.872259
21
2.17818
0
LINE
8
BLACK
6
CONTINUOUS
10
0.872259
20
2.17818
11
0.872752
21
2.17876
0
LINE
8
BLACK
6
CONTINUOUS
10
0.872752
20
2.17876
11
0.873135
21
2.17943
0
LINE
8
BLACK
6
CONTINUOUS
10
0.873135
20
2.17943
11
0.873386
21
2.17952
0
LINE
8
BLACK
6
CONTINUOUS
10
0.873386
20
2.17952
11
0.873557
21
2.17972
0
LINE
8
BLACK
6
CONTINUOUS
10
0.873557
20
2.17972
11
0.874313
21
2.17986
0
LINE
8
BLACK
6
CONTINUOUS
10
0.874313
20
2.17986
11
0.875033
21
2.18012
0
LINE
8
BLACK
6
CONTINUOUS
10
0.875033
20
2.18012
11
2.17228
21
2.18012
0
LINE
8
BLACK
6
CONTINUOUS
10
2.17228
20
2.18012
11
2.17329
21
2.17994
0
CIRCLE
8
BLACK
10
2.8
20
2
40
0.00688976
0
CIRCLE
8
BLACK
10
1.60827
20
0.426181
40
0.00688976
0
CIRCLE
8
BLACK
10
1.60827
20
0.526181
40
0.00688976
0
CIRCLE
8
BLACK
10
1.70827
20
0.426181
40
0.00688976
0
CIRCLE
8
BLACK
10
1.70827
20
0.526181
40
0.00688976
0
CIRCLE
8
BLACK
10
1.80827
20
0.426181
40
0.00688976
0
CIRCLE
8
BLACK
10
1.80827
20
0.526181
40
0.00688976
0
CIRCLE
8
BLACK
10
1.90827
20
0.426181
40
0.00688976
0
CIRCLE
8
BLACK
10
1.90827
20
0.526181
40
0.00688976
0
CIRCLE
8
BLACK
10
2.00827
20
0.426181
40
0.00688976
0
CIRCLE
8
BLACK
10
2.00827
20
0.526181
40
0.00688976
0
CIRCLE
8
BLACK
10
2.10827
20
0.426181
40
0.00688976
0
CIRCLE
8
BLACK
10
2.10827
20
0.526181
40
0.00688976
0
CIRCLE
8
BLACK
10
2.8
20
0.4
40
0.00688976
0
CIRCLE
8
BLACK
10
2.5
20
0.326772
40
0.00688976
0
CIRCLE
8
BLACK
10
2.4
20
0.326772
40
0.00688976
0
CIRCLE
8
BLACK
10
2.5
20
0.426772
40
0.00688976
0
CIRCLE
8
BLACK
10
2.4
20
0.426772
40
0.00688976
0
CIRCLE
8
BLACK
10
2.5
20
0.526772
40
0.00688976
0
CIRCLE
8
BLACK
10
2.4
20
0.526772
40
0.00688976
0
CIRCLE
8
BLACK
10
2.5
20
0.626772
40
0.00688976
0
CIRCLE
8
BLACK
10
2.4
20
0.626772
40
0.00688976
0
CIRCLE
8
BLACK
10
2.5
20
0.726772
40
0.00688976
0
CIRCLE
8
BLACK
10
2.4
20
0.726772
40
0.00688976
0
CIRCLE
8
BLACK
10
0.968996
20
1.1498
40
0.00688976
0
CIRCLE
8
BLACK
10
0.968996
20
1.2498
40
0.00688976
0
CIRCLE
8
BLACK
10
0.826772
20
1.15079
40
0.00688976
0
CIRCLE
8
BLACK
10
0.826772
20
1.24921
40
0.00688976
0
CIRCLE
8
BLACK
10
0.748031
20
1.24921
40
0.00688976
0
CIRCLE
8
BLACK
10
0.748031
20
1.15079
40
0.00688976
0
CIRCLE
8
BLACK
10
0.635433
20
0.96378
40
0.00688976
0
CIRCLE
8
BLACK
10
0.635433
20
1.43622
40
0.00688976
0
CIRCLE
8
BLACK
10
2.66299
20
1.6626
40
0.00688976
0
CIRCLE
8
BLACK
10
2.66299
20
1.7626
40
0.00688976
0
CIRCLE
8
BLACK
10
2.76299
20
1.6626
40
0.00688976
0
CIRCLE
8
BLACK
10
2.76299
20
1.7626
40
0.00688976
0
CIRCLE
8
BLACK
10
2.86299
20
1.6626
40
0.00688976
0
CIRCLE
8
BLACK
10
2.86299
20
1.7626
40
0.00688976
0
CIRCLE
8
BLACK
10
0.4
20
0.4
40
0.00688976
0
CIRCLE
8
BLACK
10
2.46742
20
1.0622
40
0.00688976
0
CIRCLE
8
BLACK
10
2.46742
20
1.16063
40
0.00688976
0
CIRCLE
8
BLACK
10
2.46742
20
1.23937
40
0.00688976
0
CIRCLE
8
BLACK
10
2.46742
20
1.3378
40
0.00688976
0
CIRCLE
8
BLACK
10
2.57411
20
0.941339
40
0.00688976
0
CIRCLE
8
BLACK
10
2.57411
20
1.45866
40
0.00688976
0
CIRCLE
8
BLACK
10
0.4
20
2
40
0.00688976
0
CIRCLE
8
BLACK
10
1.40827
20
0.526181
40
0.00688976
0
CIRCLE
8
BLACK
10
1.40827
20
0.426181
40
0.00688976
0
CIRCLE
8
BLACK
10
1.30827
20
0.526181
40
0.00688976
0
CIRCLE
8
BLACK
10
1.30827
20
0.426181
40
0.00688976
0
CIRCLE
8
BLACK
10
1.20827
20
0.526181
40
0.00688976
0
CIRCLE
8
BLACK
10
1.20827
20
0.426181
40
0.00688976
0
CIRCLE
8
BLACK
10
1.10827
20
0.526181
40
0.00688976
0
CIRCLE
8
BLACK
10
1.10827
20
0.426181
40
0.00688976
0
CIRCLE
8
BLACK
10
1.00827
20
0.526181
40
0.00688976
0
CIRCLE
8
BLACK
10
1.00827
20
0.426181
40
0.00688976
0
CIRCLE
8
BLACK
10
0.908268
20
0.526181
40
0.00688976
0
CIRCLE
8
BLACK
10
0.908268
20
0.426181
40
0.00688976
0
CIRCLE
8
BLACK
10
0.808268
20
0.526181
40
0.00688976
0
CIRCLE
8
BLACK
10
0.808268
20
0.426181
40
0.00688976
0
CIRCLE
8
BLACK
10
2.33071
20
1.2502
40
0.00688976
0
CIRCLE
8
BLACK
10
2.33071
20
1.1502
40
0.00688976
0
CIRCLE
8
BLACK
10
1.60827
20
0.326181
40
0.00688976
0
CIRCLE
8
BLACK
10
1.70827
20
0.326181
40
0.00688976
0
CIRCLE
8
BLACK
10
1.80827
20
0.326181
40
0.00688976
0
CIRCLE
8
BLACK
10
0.526772
20
0.809055
40
0.00688976
0
CIRCLE
8
BLACK
10
0.526772
20
0.709055
40
0.00688976
0
CIRCLE
8
BLACK
10
0.426772
20
0.809055
40
0.00688976
0
CIRCLE
8
BLACK
10
0.426772
20
0.709055
40
0.00688976
0
CIRCLE
8
BLACK
10
0.326772
20
0.809055
40
0.00688976
0
CIRCLE
8
BLACK
10
0.326772
20
0.709055
40
0.00688976
  0
ENDSEC
  0
EOF
