  0
SECTION
  2
HEADER
  9
$ANGBASE
  50
0.0
  9
$ANGDIR
  70
1
  9
$MEASUREMENT
  70
0
  0
ENDSEC
  0
SECTION
  2
TABLES
  0
TABLE
  2
LTYPE
  70
4
  0
LTYPE
  5
40F
  2
CONTINUOUS
  70
0
  3
Solid line
  72
65
  73
0
  40
0.0
  0
LTYPE
  5
410
  2
DASHDOT
 70
0
  3
Dash Dot ____ _ ____ _
 72
65
 73
4
 40
2.0
 49
1.25
 49
-0.25
 49
0.25
 49
-0.25
  0
LTYPE
  5
411
  2
DASHED
 70
0
  3
Dashed __ __ __ __ __
 72
65
 73
2
 40
0.75
 49
0.5
 49
-0.25
  0
LTYPE
  5
43B
  2
DOTTED
 70
0
  3
Dotted .  .  .  .
 72
65
 73
2
 40
0.2
 49
0.0
 49
-0.2
  0
ENDTAB
  0
TABLE
  2
STYLE
  70
4
  0
STYLE
  2
KICAD
  70
0
  40
0
  41
1
  42
1
  50
0
  71
0
  3
isocp.shx
  0
STYLE
  2
KICADB
  70
0
  40
0
  41
1
  42
1
  50
0
  71
0
  3
isocp.shx
  0
STYLE
  2
KICADI
  70
0
  40
0
  41
1
  42
1
  50
15
  71
0
  3
isocp.shx
  0
STYLE
  2
KICADBI
  70
0
  40
0
  41
1
  42
1
  50
15
  71
0
  3
isocp.shx
  0
ENDTAB
  0
TABLE
  2
LAYER
  70
1
  0
LAYER
  2
BLACK
  70
0
  62
7
  6
CONTINUOUS
  0
ENDTAB
  0
ENDSEC
  0
SECTION
  2
ENTITIES
0
LINE
8
BLACK
6
CONTINUOUS
10
0.719388
20
0.309274
11
0.725837
21
0.307018
0
LINE
8
BLACK
6
CONTINUOUS
10
0.725837
20
0.307018
11
0.731622
21
0.303383
0
LINE
8
BLACK
6
CONTINUOUS
10
0.731622
20
0.303383
11
0.736454
21
0.298551
0
LINE
8
BLACK
6
CONTINUOUS
10
0.736454
20
0.298551
11
0.740089
21
0.292766
0
LINE
8
BLACK
6
CONTINUOUS
10
0.740089
20
0.292766
11
0.742345
21
0.286317
0
LINE
8
BLACK
6
CONTINUOUS
10
0.742345
20
0.286317
11
0.74311
21
0.279528
0
LINE
8
BLACK
6
CONTINUOUS
10
0.74311
20
0.279528
11
0.742345
21
0.272738
0
LINE
8
BLACK
6
CONTINUOUS
10
0.742345
20
0.272738
11
0.740089
21
0.266289
0
LINE
8
BLACK
6
CONTINUOUS
10
0.740089
20
0.266289
11
0.736454
21
0.260504
0
LINE
8
BLACK
6
CONTINUOUS
10
0.736454
20
0.260504
11
0.731622
21
0.255672
0
LINE
8
BLACK
6
CONTINUOUS
10
0.731622
20
0.255672
11
0.725837
21
0.252037
0
LINE
8
BLACK
6
CONTINUOUS
10
0.725837
20
0.252037
11
0.719388
21
0.249781
0
LINE
8
BLACK
6
CONTINUOUS
10
0.719388
20
0.249781
11
0.712598
21
0.249016
0
LINE
8
BLACK
6
CONTINUOUS
10
0.712598
20
0.249016
11
0.705809
21
0.249781
0
LINE
8
BLACK
6
CONTINUOUS
10
0.705809
20
0.249781
11
0.69936
21
0.252037
0
LINE
8
BLACK
6
CONTINUOUS
10
0.69936
20
0.252037
11
0.693575
21
0.255672
0
LINE
8
BLACK
6
CONTINUOUS
10
0.693575
20
0.255672
11
0.688743
21
0.260504
0
LINE
8
BLACK
6
CONTINUOUS
10
0.688743
20
0.260504
11
0.685108
21
0.266289
0
LINE
8
BLACK
6
CONTINUOUS
10
0.685108
20
0.266289
11
0.682852
21
0.272738
0
LINE
8
BLACK
6
CONTINUOUS
10
0.682852
20
0.272738
11
0.682087
21
0.279528
0
LINE
8
BLACK
6
CONTINUOUS
10
0.682087
20
0.279528
11
0.682852
21
0.286317
0
LINE
8
BLACK
6
CONTINUOUS
10
0.682852
20
0.286317
11
0.685108
21
0.292766
0
LINE
8
BLACK
6
CONTINUOUS
10
0.685108
20
0.292766
11
0.688743
21
0.298551
0
LINE
8
BLACK
6
CONTINUOUS
10
0.688743
20
0.298551
11
0.693575
21
0.303383
0
LINE
8
BLACK
6
CONTINUOUS
10
0.693575
20
0.303383
11
0.69936
21
0.307018
0
LINE
8
BLACK
6
CONTINUOUS
10
0.69936
20
0.307018
11
0.705809
21
0.309274
0
LINE
8
BLACK
6
CONTINUOUS
10
0.705809
20
0.309274
11
0.712598
21
0.310039
0
LINE
8
BLACK
6
CONTINUOUS
10
0.712598
20
0.310039
11
0.719388
21
0.309274
0
LINE
8
BLACK
6
CONTINUOUS
10
0.684595
20
0.273136
11
0.686719
21
0.267065
0
LINE
8
BLACK
6
CONTINUOUS
10
0.686719
20
0.267065
11
0.690141
21
0.261619
0
LINE
8
BLACK
6
CONTINUOUS
10
0.690141
20
0.261619
11
0.694689
21
0.25707
0
LINE
8
BLACK
6
CONTINUOUS
10
0.694689
20
0.25707
11
0.700136
21
0.253648
0
LINE
8
BLACK
6
CONTINUOUS
10
0.700136
20
0.253648
11
0.706207
21
0.251524
0
LINE
8
BLACK
6
CONTINUOUS
10
0.706207
20
0.251524
11
0.712598
21
0.250804
0
LINE
8
BLACK
6
CONTINUOUS
10
0.712598
20
0.250804
11
0.71899
21
0.251524
0
LINE
8
BLACK
6
CONTINUOUS
10
0.71899
20
0.251524
11
0.725061
21
0.253648
0
LINE
8
BLACK
6
CONTINUOUS
10
0.725061
20
0.253648
11
0.730507
21
0.25707
0
LINE
8
BLACK
6
CONTINUOUS
10
0.730507
20
0.25707
11
0.735056
21
0.261619
0
LINE
8
BLACK
6
CONTINUOUS
10
0.735056
20
0.261619
11
0.738478
21
0.267065
0
LINE
8
BLACK
6
CONTINUOUS
10
0.738478
20
0.267065
11
0.740602
21
0.273136
0
LINE
8
BLACK
6
CONTINUOUS
10
0.740602
20
0.273136
11
0.741322
21
0.279528
0
LINE
8
BLACK
6
CONTINUOUS
10
0.741322
20
0.279528
11
0.740602
21
0.285919
0
LINE
8
BLACK
6
CONTINUOUS
10
0.740602
20
0.285919
11
0.738478
21
0.29199
0
LINE
8
BLACK
6
CONTINUOUS
10
0.738478
20
0.29199
11
0.735056
21
0.297437
0
LINE
8
BLACK
6
CONTINUOUS
10
0.735056
20
0.297437
11
0.730507
21
0.301985
0
LINE
8
BLACK
6
CONTINUOUS
10
0.730507
20
0.301985
11
0.725061
21
0.305407
0
LINE
8
BLACK
6
CONTINUOUS
10
0.725061
20
0.305407
11
0.71899
21
0.307531
0
LINE
8
BLACK
6
CONTINUOUS
10
0.71899
20
0.307531
11
0.712598
21
0.308251
0
LINE
8
BLACK
6
CONTINUOUS
10
0.712598
20
0.308251
11
0.706207
21
0.307531
0
LINE
8
BLACK
6
CONTINUOUS
10
0.706207
20
0.307531
11
0.700136
21
0.305407
0
LINE
8
BLACK
6
CONTINUOUS
10
0.700136
20
0.305407
11
0.694689
21
0.301985
0
LINE
8
BLACK
6
CONTINUOUS
10
0.694689
20
0.301985
11
0.690141
21
0.297437
0
LINE
8
BLACK
6
CONTINUOUS
10
0.690141
20
0.297437
11
0.686719
21
0.29199
0
LINE
8
BLACK
6
CONTINUOUS
10
0.686719
20
0.29199
11
0.684595
21
0.285919
0
LINE
8
BLACK
6
CONTINUOUS
10
0.684595
20
0.285919
11
0.683875
21
0.279528
0
LINE
8
BLACK
6
CONTINUOUS
10
0.683875
20
0.279528
11
0.684595
21
0.273136
0
LINE
8
BLACK
6
CONTINUOUS
10
2.0126
20
0.352559
11
2.01329
21
0.352271
0
LINE
8
BLACK
6
CONTINUOUS
10
2.01329
20
0.352271
11
2.01358
21
0.351575
0
LINE
8
BLACK
6
CONTINUOUS
10
2.01358
20
0.351575
11
2.01358
21
0.276772
0
LINE
8
BLACK
6
CONTINUOUS
10
2.01358
20
0.276772
11
2.01329
21
0.276076
0
LINE
8
BLACK
6
CONTINUOUS
10
2.01329
20
0.276076
11
2.0126
21
0.275787
0
LINE
8
BLACK
6
CONTINUOUS
10
2.0126
20
0.275787
11
1.88031
21
0.275787
0
LINE
8
BLACK
6
CONTINUOUS
10
1.88031
20
0.275787
11
1.87962
21
0.276076
0
LINE
8
BLACK
6
CONTINUOUS
10
1.87962
20
0.276076
11
1.87933
21
0.276772
0
LINE
8
BLACK
6
CONTINUOUS
10
1.87933
20
0.276772
11
1.87933
21
0.276772
0
LINE
8
BLACK
6
CONTINUOUS
10
1.87933
20
0.276772
11
1.87933
21
0.351575
0
LINE
8
BLACK
6
CONTINUOUS
10
1.87933
20
0.351575
11
1.87962
21
0.352271
0
LINE
8
BLACK
6
CONTINUOUS
10
1.87962
20
0.352271
11
1.88031
21
0.352559
0
LINE
8
BLACK
6
CONTINUOUS
10
1.88031
20
0.352559
11
2.0126
21
0.352559
0
LINE
8
BLACK
6
CONTINUOUS
10
1.8813
20
0.350591
11
1.8813
21
0.277756
0
LINE
8
BLACK
6
CONTINUOUS
10
1.8813
20
0.277756
11
2.01161
21
0.277756
0
LINE
8
BLACK
6
CONTINUOUS
10
2.01161
20
0.277756
11
2.01161
21
0.350591
0
LINE
8
BLACK
6
CONTINUOUS
10
2.01161
20
0.350591
11
1.8813
21
0.350591
0
LINE
8
BLACK
6
CONTINUOUS
10
2.15039
20
0.352559
11
2.15109
21
0.352271
0
LINE
8
BLACK
6
CONTINUOUS
10
2.15109
20
0.352271
11
2.15138
21
0.351575
0
LINE
8
BLACK
6
CONTINUOUS
10
2.15138
20
0.351575
11
2.15138
21
0.276772
0
LINE
8
BLACK
6
CONTINUOUS
10
2.15138
20
0.276772
11
2.15109
21
0.276076
0
LINE
8
BLACK
6
CONTINUOUS
10
2.15109
20
0.276076
11
2.15039
21
0.275787
0
LINE
8
BLACK
6
CONTINUOUS
10
2.15039
20
0.275787
11
2.01811
21
0.275787
0
LINE
8
BLACK
6
CONTINUOUS
10
2.01811
20
0.275787
11
2.01741
21
0.276076
0
LINE
8
BLACK
6
CONTINUOUS
10
2.01741
20
0.276076
11
2.01713
21
0.276772
0
LINE
8
BLACK
6
CONTINUOUS
10
2.01713
20
0.276772
11
2.01713
21
0.276772
0
LINE
8
BLACK
6
CONTINUOUS
10
2.01713
20
0.276772
11
2.01713
21
0.351575
0
LINE
8
BLACK
6
CONTINUOUS
10
2.01713
20
0.351575
11
2.01741
21
0.352271
0
LINE
8
BLACK
6
CONTINUOUS
10
2.01741
20
0.352271
11
2.01811
21
0.352559
0
LINE
8
BLACK
6
CONTINUOUS
10
2.01811
20
0.352559
11
2.15039
21
0.352559
0
LINE
8
BLACK
6
CONTINUOUS
10
2.01909
20
0.350591
11
2.01909
21
0.277756
0
LINE
8
BLACK
6
CONTINUOUS
10
2.01909
20
0.277756
11
2.14941
21
0.277756
0
LINE
8
BLACK
6
CONTINUOUS
10
2.14941
20
0.277756
11
2.14941
21
0.350591
0
LINE
8
BLACK
6
CONTINUOUS
10
2.14941
20
0.350591
11
2.01909
21
0.350591
0
LINE
8
BLACK
6
CONTINUOUS
10
2.28868
20
0.352559
11
2.28938
21
0.352271
0
LINE
8
BLACK
6
CONTINUOUS
10
2.28938
20
0.352271
11
2.28967
21
0.351575
0
LINE
8
BLACK
6
CONTINUOUS
10
2.28967
20
0.351575
11
2.28967
21
0.276772
0
LINE
8
BLACK
6
CONTINUOUS
10
2.28967
20
0.276772
11
2.28938
21
0.276076
0
LINE
8
BLACK
6
CONTINUOUS
10
2.28938
20
0.276076
11
2.28868
21
0.275787
0
LINE
8
BLACK
6
CONTINUOUS
10
2.28868
20
0.275787
11
2.1564
21
0.275787
0
LINE
8
BLACK
6
CONTINUOUS
10
2.1564
20
0.275787
11
2.1557
21
0.276076
0
LINE
8
BLACK
6
CONTINUOUS
10
2.1557
20
0.276076
11
2.15541
21
0.276772
0
LINE
8
BLACK
6
CONTINUOUS
10
2.15541
20
0.276772
11
2.15541
21
0.351575
0
LINE
8
BLACK
6
CONTINUOUS
10
2.15541
20
0.351575
11
2.1557
21
0.352271
0
LINE
8
BLACK
6
CONTINUOUS
10
2.1557
20
0.352271
11
2.1564
21
0.352559
0
LINE
8
BLACK
6
CONTINUOUS
10
2.1564
20
0.352559
11
2.28868
21
0.352559
0
LINE
8
BLACK
6
CONTINUOUS
10
2.15738
20
0.350591
11
2.15738
21
0.277756
0
LINE
8
BLACK
6
CONTINUOUS
10
2.15738
20
0.277756
11
2.2877
21
0.277756
0
LINE
8
BLACK
6
CONTINUOUS
10
2.2877
20
0.277756
11
2.2877
21
0.350591
0
LINE
8
BLACK
6
CONTINUOUS
10
2.2877
20
0.350591
11
2.15738
21
0.350591
0
LINE
8
BLACK
6
CONTINUOUS
10
2.09055
20
0.770177
11
2.09125
21
0.769889
0
LINE
8
BLACK
6
CONTINUOUS
10
2.09125
20
0.769889
11
2.09154
21
0.769193
0
LINE
8
BLACK
6
CONTINUOUS
10
2.09154
20
0.769193
11
2.09154
21
0.607776
0
LINE
8
BLACK
6
CONTINUOUS
10
2.09154
20
0.607776
11
2.09125
21
0.60708
0
LINE
8
BLACK
6
CONTINUOUS
10
2.09125
20
0.60708
11
2.09055
21
0.606791
0
LINE
8
BLACK
6
CONTINUOUS
10
2.09055
20
0.606791
11
1.95669
21
0.606791
0
LINE
8
BLACK
6
CONTINUOUS
10
1.95669
20
0.606791
11
1.956
21
0.60708
0
LINE
8
BLACK
6
CONTINUOUS
10
1.956
20
0.60708
11
1.95571
21
0.607776
0
LINE
8
BLACK
6
CONTINUOUS
10
1.95571
20
0.607776
11
1.95571
21
0.607776
0
LINE
8
BLACK
6
CONTINUOUS
10
1.95571
20
0.607776
11
1.95571
21
0.769193
0
LINE
8
BLACK
6
CONTINUOUS
10
1.95571
20
0.769193
11
1.956
21
0.769889
0
LINE
8
BLACK
6
CONTINUOUS
10
1.956
20
0.769889
11
1.95669
21
0.770177
0
LINE
8
BLACK
6
CONTINUOUS
10
1.95669
20
0.770177
11
2.09055
21
0.770177
0
LINE
8
BLACK
6
CONTINUOUS
10
1.95768
20
0.768209
11
1.95768
21
0.60876
0
LINE
8
BLACK
6
CONTINUOUS
10
1.95768
20
0.60876
11
2.08957
21
0.60876
0
LINE
8
BLACK
6
CONTINUOUS
10
2.08957
20
0.60876
11
2.08957
21
0.768209
0
LINE
8
BLACK
6
CONTINUOUS
10
2.08957
20
0.768209
11
1.95768
21
0.768209
0
LINE
8
BLACK
6
CONTINUOUS
10
2.22835
20
0.770177
11
2.22904
21
0.769889
0
LINE
8
BLACK
6
CONTINUOUS
10
2.22904
20
0.769889
11
2.22933
21
0.769193
0
LINE
8
BLACK
6
CONTINUOUS
10
2.22933
20
0.769193
11
2.22933
21
0.607776
0
LINE
8
BLACK
6
CONTINUOUS
10
2.22933
20
0.607776
11
2.22904
21
0.60708
0
LINE
8
BLACK
6
CONTINUOUS
10
2.22904
20
0.60708
11
2.22835
21
0.606791
0
LINE
8
BLACK
6
CONTINUOUS
10
2.22835
20
0.606791
11
2.09449
21
0.606791
0
LINE
8
BLACK
6
CONTINUOUS
10
2.09449
20
0.606791
11
2.09379
21
0.60708
0
LINE
8
BLACK
6
CONTINUOUS
10
2.09379
20
0.60708
11
2.0935
21
0.607776
0
LINE
8
BLACK
6
CONTINUOUS
10
2.0935
20
0.607776
11
2.0935
21
0.607776
0
LINE
8
BLACK
6
CONTINUOUS
10
2.0935
20
0.607776
11
2.0935
21
0.769193
0
LINE
8
BLACK
6
CONTINUOUS
10
2.0935
20
0.769193
11
2.09379
21
0.769889
0
LINE
8
BLACK
6
CONTINUOUS
10
2.09379
20
0.769889
11
2.09449
21
0.770177
0
LINE
8
BLACK
6
CONTINUOUS
10
2.09449
20
0.770177
11
2.22835
21
0.770177
0
LINE
8
BLACK
6
CONTINUOUS
10
2.09547
20
0.768209
11
2.09547
21
0.60876
0
LINE
8
BLACK
6
CONTINUOUS
10
2.09547
20
0.60876
11
2.22736
21
0.60876
0
LINE
8
BLACK
6
CONTINUOUS
10
2.22736
20
0.60876
11
2.22736
21
0.768209
0
LINE
8
BLACK
6
CONTINUOUS
10
2.22736
20
0.768209
11
2.09547
21
0.768209
0
LINE
8
BLACK
6
CONTINUOUS
10
1.76772
20
0.708858
11
1.76841
21
0.70857
0
LINE
8
BLACK
6
CONTINUOUS
10
1.76841
20
0.70857
11
1.7687
21
0.707874
0
LINE
8
BLACK
6
CONTINUOUS
10
1.7687
20
0.707874
11
1.7687
21
0.630709
0
LINE
8
BLACK
6
CONTINUOUS
10
1.7687
20
0.630709
11
1.76841
21
0.630013
0
LINE
8
BLACK
6
CONTINUOUS
10
1.76841
20
0.630013
11
1.76772
21
0.629724
0
LINE
8
BLACK
6
CONTINUOUS
10
1.76772
20
0.629724
11
1.63386
21
0.629724
0
LINE
8
BLACK
6
CONTINUOUS
10
1.63386
20
0.629724
11
1.63316
21
0.630013
0
LINE
8
BLACK
6
CONTINUOUS
10
1.63316
20
0.630013
11
1.63287
21
0.630709
0
LINE
8
BLACK
6
CONTINUOUS
10
1.63287
20
0.630709
11
1.63287
21
0.707874
0
LINE
8
BLACK
6
CONTINUOUS
10
1.63287
20
0.707874
11
1.63316
21
0.70857
0
LINE
8
BLACK
6
CONTINUOUS
10
1.63316
20
0.70857
11
1.63386
21
0.708858
0
LINE
8
BLACK
6
CONTINUOUS
10
1.63386
20
0.708858
11
1.76772
21
0.708858
0
LINE
8
BLACK
6
CONTINUOUS
10
1.63484
20
0.70689
11
1.63484
21
0.631693
0
LINE
8
BLACK
6
CONTINUOUS
10
1.63484
20
0.631693
11
1.76673
21
0.631693
0
LINE
8
BLACK
6
CONTINUOUS
10
1.76673
20
0.631693
11
1.76673
21
0.70689
0
LINE
8
BLACK
6
CONTINUOUS
10
1.76673
20
0.70689
11
1.63484
21
0.70689
0
LINE
8
BLACK
6
CONTINUOUS
10
1.65866
20
0.804134
11
1.65936
21
0.803846
0
LINE
8
BLACK
6
CONTINUOUS
10
1.65936
20
0.803846
11
1.65965
21
0.80315
0
LINE
8
BLACK
6
CONTINUOUS
10
1.65965
20
0.80315
11
1.65965
21
0.728346
0
LINE
8
BLACK
6
CONTINUOUS
10
1.65965
20
0.728346
11
1.65936
21
0.72765
0
LINE
8
BLACK
6
CONTINUOUS
10
1.65936
20
0.72765
11
1.65866
21
0.727362
0
LINE
8
BLACK
6
CONTINUOUS
10
1.65866
20
0.727362
11
1.52638
21
0.727362
0
LINE
8
BLACK
6
CONTINUOUS
10
1.52638
20
0.727362
11
1.52568
21
0.72765
0
LINE
8
BLACK
6
CONTINUOUS
10
1.52568
20
0.72765
11
1.52539
21
0.728346
0
LINE
8
BLACK
6
CONTINUOUS
10
1.52539
20
0.728346
11
1.52539
21
0.80315
0
LINE
8
BLACK
6
CONTINUOUS
10
1.52539
20
0.80315
11
1.52568
21
0.803846
0
LINE
8
BLACK
6
CONTINUOUS
10
1.52568
20
0.803846
11
1.52638
21
0.804134
0
LINE
8
BLACK
6
CONTINUOUS
10
1.52638
20
0.804134
11
1.65866
21
0.804134
0
LINE
8
BLACK
6
CONTINUOUS
10
1.52736
20
0.802165
11
1.52736
21
0.729331
0
LINE
8
BLACK
6
CONTINUOUS
10
1.52736
20
0.729331
11
1.65768
21
0.729331
0
LINE
8
BLACK
6
CONTINUOUS
10
1.65768
20
0.729331
11
1.65768
21
0.802165
0
LINE
8
BLACK
6
CONTINUOUS
10
1.65768
20
0.802165
11
1.52736
21
0.802165
0
LINE
8
BLACK
6
CONTINUOUS
10
0.711811
20
0.895177
11
0.712507
21
0.894889
0
LINE
8
BLACK
6
CONTINUOUS
10
0.712507
20
0.894889
11
0.712795
21
0.894193
0
LINE
8
BLACK
6
CONTINUOUS
10
0.712795
20
0.894193
11
0.712795
21
0.760335
0
LINE
8
BLACK
6
CONTINUOUS
10
0.712795
20
0.760335
11
0.712507
21
0.759639
0
LINE
8
BLACK
6
CONTINUOUS
10
0.712507
20
0.759639
11
0.711811
21
0.75935
0
LINE
8
BLACK
6
CONTINUOUS
10
0.711811
20
0.75935
11
0.634646
21
0.75935
0
LINE
8
BLACK
6
CONTINUOUS
10
0.634646
20
0.75935
11
0.63395
21
0.759639
0
LINE
8
BLACK
6
CONTINUOUS
10
0.63395
20
0.759639
11
0.633661
21
0.760335
0
LINE
8
BLACK
6
CONTINUOUS
10
0.633661
20
0.760335
11
0.633661
21
0.760335
0
LINE
8
BLACK
6
CONTINUOUS
10
0.633661
20
0.760335
11
0.633661
21
0.894193
0
LINE
8
BLACK
6
CONTINUOUS
10
0.633661
20
0.894193
11
0.63395
21
0.894889
0
LINE
8
BLACK
6
CONTINUOUS
10
0.63395
20
0.894889
11
0.634646
21
0.895177
0
LINE
8
BLACK
6
CONTINUOUS
10
0.634646
20
0.895177
11
0.711811
21
0.895177
0
LINE
8
BLACK
6
CONTINUOUS
10
0.63563
20
0.893209
11
0.63563
21
0.761319
0
LINE
8
BLACK
6
CONTINUOUS
10
0.63563
20
0.761319
11
0.710827
21
0.761319
0
LINE
8
BLACK
6
CONTINUOUS
10
0.710827
20
0.761319
11
0.710827
21
0.893209
0
LINE
8
BLACK
6
CONTINUOUS
10
0.710827
20
0.893209
11
0.63563
21
0.893209
0
LINE
8
BLACK
6
CONTINUOUS
10
0.794488
20
0.895177
11
0.795184
21
0.894889
0
LINE
8
BLACK
6
CONTINUOUS
10
0.795184
20
0.894889
11
0.795472
21
0.894193
0
LINE
8
BLACK
6
CONTINUOUS
10
0.795472
20
0.894193
11
0.795472
21
0.760335
0
LINE
8
BLACK
6
CONTINUOUS
10
0.795472
20
0.760335
11
0.795184
21
0.759639
0
LINE
8
BLACK
6
CONTINUOUS
10
0.795184
20
0.759639
11
0.794488
21
0.75935
0
LINE
8
BLACK
6
CONTINUOUS
10
0.794488
20
0.75935
11
0.717323
21
0.75935
0
LINE
8
BLACK
6
CONTINUOUS
10
0.717323
20
0.75935
11
0.716627
21
0.759639
0
LINE
8
BLACK
6
CONTINUOUS
10
0.716627
20
0.759639
11
0.716339
21
0.760335
0
LINE
8
BLACK
6
CONTINUOUS
10
0.716339
20
0.760335
11
0.716339
21
0.760335
0
LINE
8
BLACK
6
CONTINUOUS
10
0.716339
20
0.760335
11
0.716339
21
0.894193
0
LINE
8
BLACK
6
CONTINUOUS
10
0.716339
20
0.894193
11
0.716627
21
0.894889
0
LINE
8
BLACK
6
CONTINUOUS
10
0.716627
20
0.894889
11
0.717323
21
0.895177
0
LINE
8
BLACK
6
CONTINUOUS
10
0.717323
20
0.895177
11
0.794488
21
0.895177
0
LINE
8
BLACK
6
CONTINUOUS
10
0.718307
20
0.893209
11
0.718307
21
0.761319
0
LINE
8
BLACK
6
CONTINUOUS
10
0.718307
20
0.761319
11
0.793504
21
0.761319
0
LINE
8
BLACK
6
CONTINUOUS
10
0.793504
20
0.761319
11
0.793504
21
0.893209
0
LINE
8
BLACK
6
CONTINUOUS
10
0.793504
20
0.893209
11
0.718307
21
0.893209
0
LINE
8
BLACK
6
CONTINUOUS
10
0.875984
20
0.89439
11
0.87668
21
0.894101
0
LINE
8
BLACK
6
CONTINUOUS
10
0.87668
20
0.894101
11
0.876969
21
0.893406
0
LINE
8
BLACK
6
CONTINUOUS
10
0.876969
20
0.893406
11
0.876969
21
0.761122
0
LINE
8
BLACK
6
CONTINUOUS
10
0.876969
20
0.761122
11
0.87668
21
0.760426
0
LINE
8
BLACK
6
CONTINUOUS
10
0.87668
20
0.760426
11
0.875984
21
0.760138
0
LINE
8
BLACK
6
CONTINUOUS
10
0.875984
20
0.760138
11
0.801181
21
0.760138
0
LINE
8
BLACK
6
CONTINUOUS
10
0.801181
20
0.760138
11
0.800485
21
0.760426
0
LINE
8
BLACK
6
CONTINUOUS
10
0.800485
20
0.760426
11
0.800197
21
0.761122
0
LINE
8
BLACK
6
CONTINUOUS
10
0.800197
20
0.761122
11
0.800197
21
0.893406
0
LINE
8
BLACK
6
CONTINUOUS
10
0.800197
20
0.893406
11
0.800485
21
0.894101
0
LINE
8
BLACK
6
CONTINUOUS
10
0.800485
20
0.894101
11
0.801181
21
0.89439
0
LINE
8
BLACK
6
CONTINUOUS
10
0.801181
20
0.89439
11
0.875984
21
0.89439
0
LINE
8
BLACK
6
CONTINUOUS
10
0.802165
20
0.892421
11
0.802165
21
0.762106
0
LINE
8
BLACK
6
CONTINUOUS
10
0.802165
20
0.762106
11
0.875
21
0.762106
0
LINE
8
BLACK
6
CONTINUOUS
10
0.875
20
0.762106
11
0.875
21
0.892421
0
LINE
8
BLACK
6
CONTINUOUS
10
0.875
20
0.892421
11
0.802165
21
0.892421
0
LINE
8
BLACK
6
CONTINUOUS
10
2.08268
20
0.910138
11
2.08337
21
0.90985
0
LINE
8
BLACK
6
CONTINUOUS
10
2.08337
20
0.90985
11
2.08366
21
0.909154
0
LINE
8
BLACK
6
CONTINUOUS
10
2.08366
20
0.909154
11
2.08366
21
0.77687
0
LINE
8
BLACK
6
CONTINUOUS
10
2.08366
20
0.77687
11
2.08337
21
0.776174
0
LINE
8
BLACK
6
CONTINUOUS
10
2.08337
20
0.776174
11
2.08268
21
0.775886
0
LINE
8
BLACK
6
CONTINUOUS
10
2.08268
20
0.775886
11
2.00787
21
0.775886
0
LINE
8
BLACK
6
CONTINUOUS
10
2.00787
20
0.775886
11
2.00718
21
0.776174
0
LINE
8
BLACK
6
CONTINUOUS
10
2.00718
20
0.776174
11
2.00689
21
0.77687
0
LINE
8
BLACK
6
CONTINUOUS
10
2.00689
20
0.77687
11
2.00689
21
0.909154
0
LINE
8
BLACK
6
CONTINUOUS
10
2.00689
20
0.909154
11
2.00718
21
0.90985
0
LINE
8
BLACK
6
CONTINUOUS
10
2.00718
20
0.90985
11
2.00787
21
0.910138
0
LINE
8
BLACK
6
CONTINUOUS
10
2.00787
20
0.910138
11
2.08268
21
0.910138
0
LINE
8
BLACK
6
CONTINUOUS
10
2.00886
20
0.908169
11
2.00886
21
0.777854
0
LINE
8
BLACK
6
CONTINUOUS
10
2.00886
20
0.777854
11
2.08169
21
0.777854
0
LINE
8
BLACK
6
CONTINUOUS
10
2.08169
20
0.777854
11
2.08169
21
0.908169
0
LINE
8
BLACK
6
CONTINUOUS
10
2.08169
20
0.908169
11
2.00886
21
0.908169
0
LINE
8
BLACK
6
CONTINUOUS
10
2.17323
20
0.91063
11
2.17392
21
0.910342
0
LINE
8
BLACK
6
CONTINUOUS
10
2.17392
20
0.910342
11
2.17421
21
0.909646
0
LINE
8
BLACK
6
CONTINUOUS
10
2.17421
20
0.909646
11
2.17421
21
0.777362
0
LINE
8
BLACK
6
CONTINUOUS
10
2.17421
20
0.777362
11
2.17392
21
0.776666
0
LINE
8
BLACK
6
CONTINUOUS
10
2.17392
20
0.776666
11
2.17323
21
0.776378
0
LINE
8
BLACK
6
CONTINUOUS
10
2.17323
20
0.776378
11
2.09843
21
0.776378
0
LINE
8
BLACK
6
CONTINUOUS
10
2.09843
20
0.776378
11
2.09773
21
0.776666
0
LINE
8
BLACK
6
CONTINUOUS
10
2.09773
20
0.776666
11
2.09744
21
0.777362
0
LINE
8
BLACK
6
CONTINUOUS
10
2.09744
20
0.777362
11
2.09744
21
0.909646
0
LINE
8
BLACK
6
CONTINUOUS
10
2.09744
20
0.909646
11
2.09773
21
0.910342
0
LINE
8
BLACK
6
CONTINUOUS
10
2.09773
20
0.910342
11
2.09843
21
0.91063
0
LINE
8
BLACK
6
CONTINUOUS
10
2.09843
20
0.91063
11
2.17323
21
0.91063
0
LINE
8
BLACK
6
CONTINUOUS
10
2.09941
20
0.908661
11
2.09941
21
0.778346
0
LINE
8
BLACK
6
CONTINUOUS
10
2.09941
20
0.778346
11
2.17224
21
0.778346
0
LINE
8
BLACK
6
CONTINUOUS
10
2.17224
20
0.778346
11
2.17224
21
0.908661
0
LINE
8
BLACK
6
CONTINUOUS
10
2.17224
20
0.908661
11
2.09941
21
0.908661
0
LINE
8
BLACK
6
CONTINUOUS
10
1.79724
20
0.942913
11
1.79794
21
0.942625
0
LINE
8
BLACK
6
CONTINUOUS
10
1.79794
20
0.942625
11
1.79823
21
0.941929
0
LINE
8
BLACK
6
CONTINUOUS
10
1.79823
20
0.941929
11
1.79823
21
0.788386
0
LINE
8
BLACK
6
CONTINUOUS
10
1.79823
20
0.788386
11
1.79794
21
0.78769
0
LINE
8
BLACK
6
CONTINUOUS
10
1.79794
20
0.78769
11
1.79724
21
0.787402
0
LINE
8
BLACK
6
CONTINUOUS
10
1.79724
20
0.787402
11
1.69094
21
0.787402
0
LINE
8
BLACK
6
CONTINUOUS
10
1.69094
20
0.787402
11
1.69025
21
0.78769
0
LINE
8
BLACK
6
CONTINUOUS
10
1.69025
20
0.78769
11
1.68996
21
0.788386
0
LINE
8
BLACK
6
CONTINUOUS
10
1.68996
20
0.788386
11
1.68996
21
0.941929
0
LINE
8
BLACK
6
CONTINUOUS
10
1.68996
20
0.941929
11
1.69025
21
0.942625
0
LINE
8
BLACK
6
CONTINUOUS
10
1.69025
20
0.942625
11
1.69094
21
0.942913
0
LINE
8
BLACK
6
CONTINUOUS
10
1.69094
20
0.942913
11
1.79724
21
0.942913
0
LINE
8
BLACK
6
CONTINUOUS
10
1.69193
20
0.940945
11
1.69193
21
0.78937
0
LINE
8
BLACK
6
CONTINUOUS
10
1.69193
20
0.78937
11
1.79626
21
0.78937
0
LINE
8
BLACK
6
CONTINUOUS
10
1.79626
20
0.78937
11
1.79626
21
0.940945
0
LINE
8
BLACK
6
CONTINUOUS
10
1.79626
20
0.940945
11
1.69193
21
0.940945
0
LINE
8
BLACK
6
CONTINUOUS
10
1.68356
20
0.943898
11
1.68426
21
0.943609
0
LINE
8
BLACK
6
CONTINUOUS
10
1.68426
20
0.943609
11
1.68455
21
0.942913
0
LINE
8
BLACK
6
CONTINUOUS
10
1.68455
20
0.942913
11
1.68455
21
0.809055
0
LINE
8
BLACK
6
CONTINUOUS
10
1.68455
20
0.809055
11
1.68426
21
0.808359
0
LINE
8
BLACK
6
CONTINUOUS
10
1.68426
20
0.808359
11
1.68356
21
0.808071
0
LINE
8
BLACK
6
CONTINUOUS
10
1.68356
20
0.808071
11
1.52215
21
0.808071
0
LINE
8
BLACK
6
CONTINUOUS
10
1.52215
20
0.808071
11
1.52145
21
0.808359
0
LINE
8
BLACK
6
CONTINUOUS
10
1.52145
20
0.808359
11
1.52116
21
0.809055
0
LINE
8
BLACK
6
CONTINUOUS
10
1.52116
20
0.809055
11
1.52116
21
0.942913
0
LINE
8
BLACK
6
CONTINUOUS
10
1.52116
20
0.942913
11
1.52145
21
0.943609
0
LINE
8
BLACK
6
CONTINUOUS
10
1.52145
20
0.943609
11
1.52215
21
0.943898
0
LINE
8
BLACK
6
CONTINUOUS
10
1.52215
20
0.943898
11
1.68356
21
0.943898
0
LINE
8
BLACK
6
CONTINUOUS
10
1.52313
20
0.941929
11
1.52313
21
0.810039
0
LINE
8
BLACK
6
CONTINUOUS
10
1.52313
20
0.810039
11
1.68258
21
0.810039
0
LINE
8
BLACK
6
CONTINUOUS
10
1.68258
20
0.810039
11
1.68258
21
0.941929
0
LINE
8
BLACK
6
CONTINUOUS
10
1.68258
20
0.941929
11
1.52313
21
0.941929
0
LINE
8
BLACK
6
CONTINUOUS
10
0.875984
20
1.03169
11
0.87668
21
1.0314
0
LINE
8
BLACK
6
CONTINUOUS
10
0.87668
20
1.0314
11
0.876969
21
1.03071
0
LINE
8
BLACK
6
CONTINUOUS
10
0.876969
20
1.03071
11
0.876969
21
0.898425
0
LINE
8
BLACK
6
CONTINUOUS
10
0.876969
20
0.898425
11
0.87668
21
0.897729
0
LINE
8
BLACK
6
CONTINUOUS
10
0.87668
20
0.897729
11
0.875984
21
0.897441
0
LINE
8
BLACK
6
CONTINUOUS
10
0.875984
20
0.897441
11
0.801181
21
0.897441
0
LINE
8
BLACK
6
CONTINUOUS
10
0.801181
20
0.897441
11
0.800485
21
0.897729
0
LINE
8
BLACK
6
CONTINUOUS
10
0.800485
20
0.897729
11
0.800197
21
0.898425
0
LINE
8
BLACK
6
CONTINUOUS
10
0.800197
20
0.898425
11
0.800197
21
1.03071
0
LINE
8
BLACK
6
CONTINUOUS
10
0.800197
20
1.03071
11
0.800485
21
1.0314
0
LINE
8
BLACK
6
CONTINUOUS
10
0.800485
20
1.0314
11
0.801181
21
1.03169
0
LINE
8
BLACK
6
CONTINUOUS
10
0.801181
20
1.03169
11
0.875984
21
1.03169
0
LINE
8
BLACK
6
CONTINUOUS
10
0.802165
20
1.02972
11
0.802165
21
0.899409
0
LINE
8
BLACK
6
CONTINUOUS
10
0.802165
20
0.899409
11
0.875
21
0.899409
0
LINE
8
BLACK
6
CONTINUOUS
10
0.875
20
0.899409
11
0.875
21
1.02972
0
LINE
8
BLACK
6
CONTINUOUS
10
0.875
20
1.02972
11
0.802165
21
1.02972
0
LINE
8
BLACK
6
CONTINUOUS
10
1.61122
20
1.37795
11
1.61192
21
1.37766
0
LINE
8
BLACK
6
CONTINUOUS
10
1.61192
20
1.37766
11
1.6122
21
1.37697
0
LINE
8
BLACK
6
CONTINUOUS
10
1.6122
20
1.37697
11
1.6122
21
1.13091
0
LINE
8
BLACK
6
CONTINUOUS
10
1.6122
20
1.13091
11
1.61192
21
1.13021
0
LINE
8
BLACK
6
CONTINUOUS
10
1.61192
20
1.13021
11
1.61122
21
1.12992
0
LINE
8
BLACK
6
CONTINUOUS
10
1.61122
20
1.12992
11
1.36516
21
1.12992
0
LINE
8
BLACK
6
CONTINUOUS
10
1.36516
20
1.12992
11
1.36446
21
1.13021
0
LINE
8
BLACK
6
CONTINUOUS
10
1.36446
20
1.13021
11
1.36417
21
1.13091
0
LINE
8
BLACK
6
CONTINUOUS
10
1.36417
20
1.13091
11
1.36417
21
1.13091
0
LINE
8
BLACK
6
CONTINUOUS
10
1.36417
20
1.13091
11
1.36417
21
1.37697
0
LINE
8
BLACK
6
CONTINUOUS
10
1.36417
20
1.37697
11
1.36446
21
1.37766
0
LINE
8
BLACK
6
CONTINUOUS
10
1.36446
20
1.37766
11
1.36516
21
1.37795
0
LINE
8
BLACK
6
CONTINUOUS
10
1.36516
20
1.37795
11
1.61122
21
1.37795
0
LINE
8
BLACK
6
CONTINUOUS
10
1.36614
20
1.37598
11
1.36614
21
1.13189
0
LINE
8
BLACK
6
CONTINUOUS
10
1.36614
20
1.13189
11
1.61024
21
1.13189
0
LINE
8
BLACK
6
CONTINUOUS
10
1.61024
20
1.13189
11
1.61024
21
1.37598
0
LINE
8
BLACK
6
CONTINUOUS
10
1.61024
20
1.37598
11
1.36614
21
1.37598
0
LINE
8
BLACK
6
CONTINUOUS
10
1.86805
20
1.31238
11
1.92262
21
1.25782
0
LINE
8
BLACK
6
CONTINUOUS
10
1.92262
20
1.25782
11
1.92262
21
1.25782
0
LINE
8
BLACK
6
CONTINUOUS
10
1.92262
20
1.25782
11
1.92291
21
1.25712
0
LINE
8
BLACK
6
CONTINUOUS
10
1.92291
20
1.25712
11
1.92262
21
1.25642
0
LINE
8
BLACK
6
CONTINUOUS
10
1.92262
20
1.25642
11
1.82797
21
1.16177
0
LINE
8
BLACK
6
CONTINUOUS
10
1.82797
20
1.16177
11
1.82797
21
1.16177
0
LINE
8
BLACK
6
CONTINUOUS
10
1.82797
20
1.16177
11
1.82727
21
1.16148
0
LINE
8
BLACK
6
CONTINUOUS
10
1.82727
20
1.16148
11
1.82678
21
1.16169
0
LINE
8
BLACK
6
CONTINUOUS
10
1.82678
20
1.16169
11
1.82657
21
1.16177
0
LINE
8
BLACK
6
CONTINUOUS
10
1.82657
20
1.16177
11
1.82657
21
1.16177
0
LINE
8
BLACK
6
CONTINUOUS
10
1.82657
20
1.16177
11
1.77201
21
1.21634
0
LINE
8
BLACK
6
CONTINUOUS
10
1.77201
20
1.21634
11
1.77172
21
1.21703
0
LINE
8
BLACK
6
CONTINUOUS
10
1.77172
20
1.21703
11
1.77201
21
1.21773
0
LINE
8
BLACK
6
CONTINUOUS
10
1.77201
20
1.21773
11
1.86666
21
1.31238
0
LINE
8
BLACK
6
CONTINUOUS
10
1.86666
20
1.31238
11
1.86736
21
1.31267
0
LINE
8
BLACK
6
CONTINUOUS
10
1.86736
20
1.31267
11
1.86805
21
1.31238
0
LINE
8
BLACK
6
CONTINUOUS
10
1.7741
20
1.21703
11
1.82727
21
1.16386
0
LINE
8
BLACK
6
CONTINUOUS
10
1.82727
20
1.16386
11
1.92053
21
1.25712
0
LINE
8
BLACK
6
CONTINUOUS
10
1.92053
20
1.25712
11
1.86736
21
1.31029
0
LINE
8
BLACK
6
CONTINUOUS
10
1.86736
20
1.31029
11
1.7741
21
1.21703
0
LINE
8
BLACK
6
CONTINUOUS
10
1.34567
20
1.32972
11
1.34637
21
1.32944
0
LINE
8
BLACK
6
CONTINUOUS
10
1.34637
20
1.32944
11
1.34665
21
1.32874
0
LINE
8
BLACK
6
CONTINUOUS
10
1.34665
20
1.32874
11
1.34665
21
1.25394
0
LINE
8
BLACK
6
CONTINUOUS
10
1.34665
20
1.25394
11
1.34637
21
1.25324
0
LINE
8
BLACK
6
CONTINUOUS
10
1.34637
20
1.25324
11
1.34567
21
1.25295
0
LINE
8
BLACK
6
CONTINUOUS
10
1.34567
20
1.25295
11
1.21339
21
1.25295
0
LINE
8
BLACK
6
CONTINUOUS
10
1.21339
20
1.25295
11
1.21269
21
1.25324
0
LINE
8
BLACK
6
CONTINUOUS
10
1.21269
20
1.25324
11
1.2124
21
1.25394
0
LINE
8
BLACK
6
CONTINUOUS
10
1.2124
20
1.25394
11
1.2124
21
1.25394
0
LINE
8
BLACK
6
CONTINUOUS
10
1.2124
20
1.25394
11
1.2124
21
1.32874
0
LINE
8
BLACK
6
CONTINUOUS
10
1.2124
20
1.32874
11
1.21269
21
1.32944
0
LINE
8
BLACK
6
CONTINUOUS
10
1.21269
20
1.32944
11
1.21339
21
1.32972
0
LINE
8
BLACK
6
CONTINUOUS
10
1.21339
20
1.32972
11
1.34567
21
1.32972
0
LINE
8
BLACK
6
CONTINUOUS
10
1.21437
20
1.32776
11
1.21437
21
1.25492
0
LINE
8
BLACK
6
CONTINUOUS
10
1.21437
20
1.25492
11
1.34469
21
1.25492
0
LINE
8
BLACK
6
CONTINUOUS
10
1.34469
20
1.25492
11
1.34469
21
1.32776
0
LINE
8
BLACK
6
CONTINUOUS
10
1.34469
20
1.32776
11
1.21437
21
1.32776
0
LINE
8
BLACK
6
CONTINUOUS
10
1.53199
20
1.48248
11
1.53268
21
1.48219
0
LINE
8
BLACK
6
CONTINUOUS
10
1.53268
20
1.48219
11
1.53297
21
1.4815
0
LINE
8
BLACK
6
CONTINUOUS
10
1.53297
20
1.4815
11
1.53297
21
1.40433
0
LINE
8
BLACK
6
CONTINUOUS
10
1.53297
20
1.40433
11
1.53268
21
1.40363
0
LINE
8
BLACK
6
CONTINUOUS
10
1.53268
20
1.40363
11
1.53199
21
1.40335
0
LINE
8
BLACK
6
CONTINUOUS
10
1.53199
20
1.40335
11
1.39813
21
1.40335
0
LINE
8
BLACK
6
CONTINUOUS
10
1.39813
20
1.40335
11
1.39743
21
1.40363
0
LINE
8
BLACK
6
CONTINUOUS
10
1.39743
20
1.40363
11
1.39715
21
1.40433
0
LINE
8
BLACK
6
CONTINUOUS
10
1.39715
20
1.40433
11
1.39715
21
1.4815
0
LINE
8
BLACK
6
CONTINUOUS
10
1.39715
20
1.4815
11
1.39743
21
1.48219
0
LINE
8
BLACK
6
CONTINUOUS
10
1.39743
20
1.48219
11
1.39813
21
1.48248
0
LINE
8
BLACK
6
CONTINUOUS
10
1.39813
20
1.48248
11
1.53199
21
1.48248
0
LINE
8
BLACK
6
CONTINUOUS
10
1.39911
20
1.48051
11
1.39911
21
1.40531
0
LINE
8
BLACK
6
CONTINUOUS
10
1.39911
20
1.40531
11
1.531
21
1.40531
0
LINE
8
BLACK
6
CONTINUOUS
10
1.531
20
1.40531
11
1.531
21
1.48051
0
LINE
8
BLACK
6
CONTINUOUS
10
1.531
20
1.48051
11
1.39911
21
1.48051
0
LINE
8
BLACK
6
CONTINUOUS
10
1.67569
20
1.48248
11
1.67638
21
1.48219
0
LINE
8
BLACK
6
CONTINUOUS
10
1.67638
20
1.48219
11
1.67667
21
1.4815
0
LINE
8
BLACK
6
CONTINUOUS
10
1.67667
20
1.4815
11
1.67667
21
1.40433
0
LINE
8
BLACK
6
CONTINUOUS
10
1.67667
20
1.40433
11
1.67638
21
1.40363
0
LINE
8
BLACK
6
CONTINUOUS
10
1.67638
20
1.40363
11
1.67569
21
1.40335
0
LINE
8
BLACK
6
CONTINUOUS
10
1.67569
20
1.40335
11
1.54183
21
1.40335
0
LINE
8
BLACK
6
CONTINUOUS
10
1.54183
20
1.40335
11
1.54113
21
1.40363
0
LINE
8
BLACK
6
CONTINUOUS
10
1.54113
20
1.40363
11
1.54085
21
1.40433
0
LINE
8
BLACK
6
CONTINUOUS
10
1.54085
20
1.40433
11
1.54085
21
1.4815
0
LINE
8
BLACK
6
CONTINUOUS
10
1.54085
20
1.4815
11
1.54113
21
1.48219
0
LINE
8
BLACK
6
CONTINUOUS
10
1.54113
20
1.48219
11
1.54183
21
1.48248
0
LINE
8
BLACK
6
CONTINUOUS
10
1.54183
20
1.48248
11
1.67569
21
1.48248
0
LINE
8
BLACK
6
CONTINUOUS
10
1.54281
20
1.48051
11
1.54281
21
1.40531
0
LINE
8
BLACK
6
CONTINUOUS
10
1.54281
20
1.40531
11
1.6747
21
1.40531
0
LINE
8
BLACK
6
CONTINUOUS
10
1.6747
20
1.40531
11
1.6747
21
1.48051
0
LINE
8
BLACK
6
CONTINUOUS
10
1.6747
20
1.48051
11
1.54281
21
1.48051
0
LINE
8
BLACK
6
CONTINUOUS
10
1.28543
20
1.48839
11
1.28613
21
1.4881
0
LINE
8
BLACK
6
CONTINUOUS
10
1.28613
20
1.4881
11
1.28642
21
1.4874
0
LINE
8
BLACK
6
CONTINUOUS
10
1.28642
20
1.4874
11
1.28642
21
1.41024
0
LINE
8
BLACK
6
CONTINUOUS
10
1.28642
20
1.41024
11
1.28613
21
1.40954
0
LINE
8
BLACK
6
CONTINUOUS
10
1.28613
20
1.40954
11
1.28543
21
1.40925
0
LINE
8
BLACK
6
CONTINUOUS
10
1.28543
20
1.40925
11
1.15157
21
1.40925
0
LINE
8
BLACK
6
CONTINUOUS
10
1.15157
20
1.40925
11
1.15088
21
1.40954
0
LINE
8
BLACK
6
CONTINUOUS
10
1.15088
20
1.40954
11
1.15059
21
1.41024
0
LINE
8
BLACK
6
CONTINUOUS
10
1.15059
20
1.41024
11
1.15059
21
1.4874
0
LINE
8
BLACK
6
CONTINUOUS
10
1.15059
20
1.4874
11
1.15088
21
1.4881
0
LINE
8
BLACK
6
CONTINUOUS
10
1.15088
20
1.4881
11
1.15157
21
1.48839
0
LINE
8
BLACK
6
CONTINUOUS
10
1.15157
20
1.48839
11
1.28543
21
1.48839
0
LINE
8
BLACK
6
CONTINUOUS
10
1.15256
20
1.48642
11
1.15256
21
1.41122
0
LINE
8
BLACK
6
CONTINUOUS
10
1.15256
20
1.41122
11
1.28445
21
1.41122
0
LINE
8
BLACK
6
CONTINUOUS
10
1.28445
20
1.41122
11
1.28445
21
1.48642
0
LINE
8
BLACK
6
CONTINUOUS
10
1.28445
20
1.48642
11
1.15256
21
1.48642
0
LINE
8
BLACK
6
CONTINUOUS
10
2.32529
20
1.48565
11
2.33174
21
1.4834
0
LINE
8
BLACK
6
CONTINUOUS
10
2.33174
20
1.4834
11
2.33753
21
1.47976
0
LINE
8
BLACK
6
CONTINUOUS
10
2.33753
20
1.47976
11
2.34236
21
1.47493
0
LINE
8
BLACK
6
CONTINUOUS
10
2.34236
20
1.47493
11
2.34599
21
1.46914
0
LINE
8
BLACK
6
CONTINUOUS
10
2.34599
20
1.46914
11
2.34825
21
1.4627
0
LINE
8
BLACK
6
CONTINUOUS
10
2.34825
20
1.4627
11
2.34902
21
1.45591
0
LINE
8
BLACK
6
CONTINUOUS
10
2.34902
20
1.45591
11
2.34825
21
1.44912
0
LINE
8
BLACK
6
CONTINUOUS
10
2.34825
20
1.44912
11
2.34599
21
1.44267
0
LINE
8
BLACK
6
CONTINUOUS
10
2.34599
20
1.44267
11
2.34236
21
1.43688
0
LINE
8
BLACK
6
CONTINUOUS
10
2.34236
20
1.43688
11
2.33753
21
1.43205
0
LINE
8
BLACK
6
CONTINUOUS
10
2.33753
20
1.43205
11
2.33174
21
1.42842
0
LINE
8
BLACK
6
CONTINUOUS
10
2.33174
20
1.42842
11
2.32529
21
1.42616
0
LINE
8
BLACK
6
CONTINUOUS
10
2.32529
20
1.42616
11
2.3185
21
1.42539
0
LINE
8
BLACK
6
CONTINUOUS
10
2.3185
20
1.42539
11
2.31171
21
1.42616
0
LINE
8
BLACK
6
CONTINUOUS
10
2.31171
20
1.42616
11
2.30527
21
1.42842
0
LINE
8
BLACK
6
CONTINUOUS
10
2.30527
20
1.42842
11
2.29948
21
1.43205
0
LINE
8
BLACK
6
CONTINUOUS
10
2.29948
20
1.43205
11
2.29465
21
1.43688
0
LINE
8
BLACK
6
CONTINUOUS
10
2.29465
20
1.43688
11
2.29101
21
1.44267
0
LINE
8
BLACK
6
CONTINUOUS
10
2.29101
20
1.44267
11
2.28876
21
1.44912
0
LINE
8
BLACK
6
CONTINUOUS
10
2.28876
20
1.44912
11
2.28799
21
1.45591
0
LINE
8
BLACK
6
CONTINUOUS
10
2.28799
20
1.45591
11
2.28876
21
1.4627
0
LINE
8
BLACK
6
CONTINUOUS
10
2.28876
20
1.4627
11
2.29101
21
1.46914
0
LINE
8
BLACK
6
CONTINUOUS
10
2.29101
20
1.46914
11
2.29465
21
1.47493
0
LINE
8
BLACK
6
CONTINUOUS
10
2.29465
20
1.47493
11
2.29948
21
1.47976
0
LINE
8
BLACK
6
CONTINUOUS
10
2.29948
20
1.47976
11
2.30527
21
1.4834
0
LINE
8
BLACK
6
CONTINUOUS
10
2.30527
20
1.4834
11
2.31171
21
1.48565
0
LINE
8
BLACK
6
CONTINUOUS
10
2.31171
20
1.48565
11
2.3185
21
1.48642
0
LINE
8
BLACK
6
CONTINUOUS
10
2.3185
20
1.48642
11
2.32529
21
1.48565
0
LINE
8
BLACK
6
CONTINUOUS
10
2.2905
20
1.44951
11
2.29262
21
1.44344
0
LINE
8
BLACK
6
CONTINUOUS
10
2.29262
20
1.44344
11
2.29605
21
1.438
0
LINE
8
BLACK
6
CONTINUOUS
10
2.29605
20
1.438
11
2.30059
21
1.43345
0
LINE
8
BLACK
6
CONTINUOUS
10
2.30059
20
1.43345
11
2.30604
21
1.43003
0
LINE
8
BLACK
6
CONTINUOUS
10
2.30604
20
1.43003
11
2.31211
21
1.4279
0
LINE
8
BLACK
6
CONTINUOUS
10
2.31211
20
1.4279
11
2.3185
21
1.42718
0
LINE
8
BLACK
6
CONTINUOUS
10
2.3185
20
1.42718
11
2.3249
21
1.4279
0
LINE
8
BLACK
6
CONTINUOUS
10
2.3249
20
1.4279
11
2.33097
21
1.43003
0
LINE
8
BLACK
6
CONTINUOUS
10
2.33097
20
1.43003
11
2.33641
21
1.43345
0
LINE
8
BLACK
6
CONTINUOUS
10
2.33641
20
1.43345
11
2.34096
21
1.438
0
LINE
8
BLACK
6
CONTINUOUS
10
2.34096
20
1.438
11
2.34438
21
1.44344
0
LINE
8
BLACK
6
CONTINUOUS
10
2.34438
20
1.44344
11
2.34651
21
1.44951
0
LINE
8
BLACK
6
CONTINUOUS
10
2.34651
20
1.44951
11
2.34723
21
1.45591
0
LINE
8
BLACK
6
CONTINUOUS
10
2.34723
20
1.45591
11
2.34651
21
1.4623
0
LINE
8
BLACK
6
CONTINUOUS
10
2.34651
20
1.4623
11
2.34438
21
1.46837
0
LINE
8
BLACK
6
CONTINUOUS
10
2.34438
20
1.46837
11
2.34096
21
1.47381
0
LINE
8
BLACK
6
CONTINUOUS
10
2.34096
20
1.47381
11
2.33641
21
1.47836
0
LINE
8
BLACK
6
CONTINUOUS
10
2.33641
20
1.47836
11
2.33097
21
1.48178
0
LINE
8
BLACK
6
CONTINUOUS
10
2.33097
20
1.48178
11
2.3249
21
1.48391
0
LINE
8
BLACK
6
CONTINUOUS
10
2.3249
20
1.48391
11
2.3185
21
1.48463
0
LINE
8
BLACK
6
CONTINUOUS
10
2.3185
20
1.48463
11
2.31211
21
1.48391
0
LINE
8
BLACK
6
CONTINUOUS
10
2.31211
20
1.48391
11
2.30604
21
1.48178
0
LINE
8
BLACK
6
CONTINUOUS
10
2.30604
20
1.48178
11
2.30059
21
1.47836
0
LINE
8
BLACK
6
CONTINUOUS
10
2.30059
20
1.47836
11
2.29605
21
1.47381
0
LINE
8
BLACK
6
CONTINUOUS
10
2.29605
20
1.47381
11
2.29262
21
1.46837
0
LINE
8
BLACK
6
CONTINUOUS
10
2.29262
20
1.46837
11
2.2905
21
1.4623
0
LINE
8
BLACK
6
CONTINUOUS
10
2.2905
20
1.4623
11
2.28978
21
1.45591
0
LINE
8
BLACK
6
CONTINUOUS
10
2.28978
20
1.45591
11
2.2905
21
1.44951
0
LINE
8
BLACK
6
CONTINUOUS
10
2.17963
20
1.56122
11
2.18032
21
1.56093
0
LINE
8
BLACK
6
CONTINUOUS
10
2.18032
20
1.56093
11
2.18061
21
1.56024
0
LINE
8
BLACK
6
CONTINUOUS
10
2.18061
20
1.56024
11
2.18061
21
1.48307
0
LINE
8
BLACK
6
CONTINUOUS
10
2.18061
20
1.48307
11
2.18032
21
1.48237
0
LINE
8
BLACK
6
CONTINUOUS
10
2.18032
20
1.48237
11
2.17963
21
1.48209
0
LINE
8
BLACK
6
CONTINUOUS
10
2.17963
20
1.48209
11
2.04577
21
1.48209
0
LINE
8
BLACK
6
CONTINUOUS
10
2.04577
20
1.48209
11
2.04507
21
1.48237
0
LINE
8
BLACK
6
CONTINUOUS
10
2.04507
20
1.48237
11
2.04478
21
1.48307
0
LINE
8
BLACK
6
CONTINUOUS
10
2.04478
20
1.48307
11
2.04478
21
1.56024
0
LINE
8
BLACK
6
CONTINUOUS
10
2.04478
20
1.56024
11
2.04507
21
1.56093
0
LINE
8
BLACK
6
CONTINUOUS
10
2.04507
20
1.56093
11
2.04577
21
1.56122
0
LINE
8
BLACK
6
CONTINUOUS
10
2.04577
20
1.56122
11
2.17963
21
1.56122
0
LINE
8
BLACK
6
CONTINUOUS
10
2.04675
20
1.55925
11
2.04675
21
1.48406
0
LINE
8
BLACK
6
CONTINUOUS
10
2.04675
20
1.48406
11
2.17864
21
1.48406
0
LINE
8
BLACK
6
CONTINUOUS
10
2.17864
20
1.48406
11
2.17864
21
1.55925
0
LINE
8
BLACK
6
CONTINUOUS
10
2.17864
20
1.55925
11
2.04675
21
1.55925
0
LINE
8
BLACK
6
CONTINUOUS
10
1.92195
20
1.56791
11
1.92264
21
1.56763
0
LINE
8
BLACK
6
CONTINUOUS
10
1.92264
20
1.56763
11
1.92293
21
1.56693
0
LINE
8
BLACK
6
CONTINUOUS
10
1.92293
20
1.56693
11
1.92293
21
1.49213
0
LINE
8
BLACK
6
CONTINUOUS
10
1.92293
20
1.49213
11
1.92264
21
1.49143
0
LINE
8
BLACK
6
CONTINUOUS
10
1.92264
20
1.49143
11
1.92195
21
1.49114
0
LINE
8
BLACK
6
CONTINUOUS
10
1.92195
20
1.49114
11
1.78967
21
1.49114
0
LINE
8
BLACK
6
CONTINUOUS
10
1.78967
20
1.49114
11
1.78897
21
1.49143
0
LINE
8
BLACK
6
CONTINUOUS
10
1.78897
20
1.49143
11
1.78868
21
1.49213
0
LINE
8
BLACK
6
CONTINUOUS
10
1.78868
20
1.49213
11
1.78868
21
1.56693
0
LINE
8
BLACK
6
CONTINUOUS
10
1.78868
20
1.56693
11
1.78897
21
1.56763
0
LINE
8
BLACK
6
CONTINUOUS
10
1.78897
20
1.56763
11
1.78967
21
1.56791
0
LINE
8
BLACK
6
CONTINUOUS
10
1.78967
20
1.56791
11
1.92195
21
1.56791
0
LINE
8
BLACK
6
CONTINUOUS
10
1.79065
20
1.56594
11
1.79065
21
1.49311
0
LINE
8
BLACK
6
CONTINUOUS
10
1.79065
20
1.49311
11
1.92096
21
1.49311
0
LINE
8
BLACK
6
CONTINUOUS
10
1.92096
20
1.49311
11
1.92096
21
1.56594
0
LINE
8
BLACK
6
CONTINUOUS
10
1.92096
20
1.56594
11
1.79065
21
1.56594
0
LINE
8
BLACK
6
CONTINUOUS
10
2.35787
20
1.83091
11
2.35857
21
1.83062
0
LINE
8
BLACK
6
CONTINUOUS
10
2.35857
20
1.83062
11
2.35886
21
1.82992
0
LINE
8
BLACK
6
CONTINUOUS
10
2.35886
20
1.82992
11
2.35886
21
1.55433
0
LINE
8
BLACK
6
CONTINUOUS
10
2.35886
20
1.55433
11
2.35857
21
1.55363
0
LINE
8
BLACK
6
CONTINUOUS
10
2.35857
20
1.55363
11
2.35787
21
1.55335
0
LINE
8
BLACK
6
CONTINUOUS
10
2.35787
20
1.55335
11
2.22008
21
1.55335
0
LINE
8
BLACK
6
CONTINUOUS
10
2.22008
20
1.55335
11
2.21938
21
1.55363
0
LINE
8
BLACK
6
CONTINUOUS
10
2.21938
20
1.55363
11
2.21909
21
1.55433
0
LINE
8
BLACK
6
CONTINUOUS
10
2.21909
20
1.55433
11
2.21909
21
1.82992
0
LINE
8
BLACK
6
CONTINUOUS
10
2.21909
20
1.82992
11
2.21938
21
1.83062
0
LINE
8
BLACK
6
CONTINUOUS
10
2.21938
20
1.83062
11
2.22008
21
1.83091
0
LINE
8
BLACK
6
CONTINUOUS
10
2.22008
20
1.83091
11
2.35787
21
1.83091
0
LINE
8
BLACK
6
CONTINUOUS
10
2.22106
20
1.82894
11
2.22106
21
1.55531
0
LINE
8
BLACK
6
CONTINUOUS
10
2.22106
20
1.55531
11
2.35689
21
1.55531
0
LINE
8
BLACK
6
CONTINUOUS
10
2.35689
20
1.55531
11
2.35689
21
1.82894
0
LINE
8
BLACK
6
CONTINUOUS
10
2.35689
20
1.82894
11
2.22106
21
1.82894
0
LINE
8
BLACK
6
CONTINUOUS
10
1.92244
20
1.64665
11
1.92314
21
1.64637
0
LINE
8
BLACK
6
CONTINUOUS
10
1.92314
20
1.64637
11
1.92343
21
1.64567
0
LINE
8
BLACK
6
CONTINUOUS
10
1.92343
20
1.64567
11
1.92343
21
1.57087
0
LINE
8
BLACK
6
CONTINUOUS
10
1.92343
20
1.57087
11
1.92314
21
1.57017
0
LINE
8
BLACK
6
CONTINUOUS
10
1.92314
20
1.57017
11
1.92244
21
1.56988
0
LINE
8
BLACK
6
CONTINUOUS
10
1.92244
20
1.56988
11
1.79016
21
1.56988
0
LINE
8
BLACK
6
CONTINUOUS
10
1.79016
20
1.56988
11
1.78946
21
1.57017
0
LINE
8
BLACK
6
CONTINUOUS
10
1.78946
20
1.57017
11
1.78917
21
1.57087
0
LINE
8
BLACK
6
CONTINUOUS
10
1.78917
20
1.57087
11
1.78917
21
1.64567
0
LINE
8
BLACK
6
CONTINUOUS
10
1.78917
20
1.64567
11
1.78946
21
1.64637
0
LINE
8
BLACK
6
CONTINUOUS
10
1.78946
20
1.64637
11
1.79016
21
1.64665
0
LINE
8
BLACK
6
CONTINUOUS
10
1.79016
20
1.64665
11
1.92244
21
1.64665
0
LINE
8
BLACK
6
CONTINUOUS
10
1.79114
20
1.64469
11
1.79114
21
1.57185
0
LINE
8
BLACK
6
CONTINUOUS
10
1.79114
20
1.57185
11
1.92146
21
1.57185
0
LINE
8
BLACK
6
CONTINUOUS
10
1.92146
20
1.57185
11
1.92146
21
1.64469
0
LINE
8
BLACK
6
CONTINUOUS
10
1.92146
20
1.64469
11
1.79114
21
1.64469
0
LINE
8
BLACK
6
CONTINUOUS
10
2.46535
20
1.7502
11
2.46605
21
1.74991
0
LINE
8
BLACK
6
CONTINUOUS
10
2.46605
20
1.74991
11
2.46634
21
1.74921
0
LINE
8
BLACK
6
CONTINUOUS
10
2.46634
20
1.74921
11
2.46634
21
1.74798
0
LINE
8
BLACK
6
CONTINUOUS
10
2.46634
20
1.74798
11
2.46693
21
1.74823
0
LINE
8
BLACK
6
CONTINUOUS
10
2.46693
20
1.74823
11
2.54409
21
1.74823
0
LINE
8
BLACK
6
CONTINUOUS
10
2.54409
20
1.74823
11
2.54479
21
1.74794
0
LINE
8
BLACK
6
CONTINUOUS
10
2.54479
20
1.74794
11
2.54508
21
1.74724
0
LINE
8
BLACK
6
CONTINUOUS
10
2.54508
20
1.74724
11
2.54508
21
1.61339
0
LINE
8
BLACK
6
CONTINUOUS
10
2.54508
20
1.61339
11
2.54479
21
1.61269
0
LINE
8
BLACK
6
CONTINUOUS
10
2.54479
20
1.61269
11
2.54409
21
1.6124
0
LINE
8
BLACK
6
CONTINUOUS
10
2.54409
20
1.6124
11
2.46693
21
1.6124
0
LINE
8
BLACK
6
CONTINUOUS
10
2.46693
20
1.6124
11
2.46623
21
1.61269
0
LINE
8
BLACK
6
CONTINUOUS
10
2.46623
20
1.61269
11
2.46594
21
1.61339
0
LINE
8
BLACK
6
CONTINUOUS
10
2.46594
20
1.61339
11
2.46594
21
1.61461
0
LINE
8
BLACK
6
CONTINUOUS
10
2.46594
20
1.61461
11
2.46535
21
1.61437
0
LINE
8
BLACK
6
CONTINUOUS
10
2.46535
20
1.61437
11
2.38819
21
1.61437
0
LINE
8
BLACK
6
CONTINUOUS
10
2.38819
20
1.61437
11
2.38749
21
1.61466
0
LINE
8
BLACK
6
CONTINUOUS
10
2.38749
20
1.61466
11
2.3872
21
1.61535
0
LINE
8
BLACK
6
CONTINUOUS
10
2.3872
20
1.61535
11
2.3872
21
1.74921
0
LINE
8
BLACK
6
CONTINUOUS
10
2.3872
20
1.74921
11
2.38749
21
1.74991
0
LINE
8
BLACK
6
CONTINUOUS
10
2.38749
20
1.74991
11
2.38819
21
1.7502
0
LINE
8
BLACK
6
CONTINUOUS
10
2.38819
20
1.7502
11
2.46535
21
1.7502
0
LINE
8
BLACK
6
CONTINUOUS
10
2.46791
20
1.74626
11
2.46791
21
1.61437
0
LINE
8
BLACK
6
CONTINUOUS
10
2.46791
20
1.61437
11
2.54311
21
1.61437
0
LINE
8
BLACK
6
CONTINUOUS
10
2.54311
20
1.61437
11
2.54311
21
1.74626
0
LINE
8
BLACK
6
CONTINUOUS
10
2.54311
20
1.74626
11
2.46791
21
1.74626
0
LINE
8
BLACK
6
CONTINUOUS
10
2.38917
20
1.74823
11
2.38917
21
1.61634
0
LINE
8
BLACK
6
CONTINUOUS
10
2.38917
20
1.61634
11
2.46437
21
1.61634
0
LINE
8
BLACK
6
CONTINUOUS
10
2.46437
20
1.61634
11
2.46437
21
1.74823
0
LINE
8
BLACK
6
CONTINUOUS
10
2.46437
20
1.74823
11
2.38917
21
1.74823
0
LINE
8
BLACK
6
CONTINUOUS
10
2.47402
20
1.93642
11
2.47471
21
1.93613
0
LINE
8
BLACK
6
CONTINUOUS
10
2.47471
20
1.93613
11
2.475
21
1.93543
0
LINE
8
BLACK
6
CONTINUOUS
10
2.475
20
1.93543
11
2.475
21
1.80315
0
LINE
8
BLACK
6
CONTINUOUS
10
2.475
20
1.80315
11
2.47471
21
1.80245
0
LINE
8
BLACK
6
CONTINUOUS
10
2.47471
20
1.80245
11
2.47402
21
1.80217
0
LINE
8
BLACK
6
CONTINUOUS
10
2.47402
20
1.80217
11
2.39921
21
1.80217
0
LINE
8
BLACK
6
CONTINUOUS
10
2.39921
20
1.80217
11
2.39852
21
1.80245
0
LINE
8
BLACK
6
CONTINUOUS
10
2.39852
20
1.80245
11
2.39823
21
1.80315
0
LINE
8
BLACK
6
CONTINUOUS
10
2.39823
20
1.80315
11
2.39823
21
1.93543
0
LINE
8
BLACK
6
CONTINUOUS
10
2.39823
20
1.93543
11
2.39852
21
1.93613
0
LINE
8
BLACK
6
CONTINUOUS
10
2.39852
20
1.93613
11
2.39921
21
1.93642
0
LINE
8
BLACK
6
CONTINUOUS
10
2.39921
20
1.93642
11
2.47402
21
1.93642
0
LINE
8
BLACK
6
CONTINUOUS
10
2.4002
20
1.93445
11
2.4002
21
1.80413
0
LINE
8
BLACK
6
CONTINUOUS
10
2.4002
20
1.80413
11
2.47303
21
1.80413
0
LINE
8
BLACK
6
CONTINUOUS
10
2.47303
20
1.80413
11
2.47303
21
1.93445
0
LINE
8
BLACK
6
CONTINUOUS
10
2.47303
20
1.93445
11
2.4002
21
1.93445
0
LINE
8
BLACK
6
CONTINUOUS
10
2.55276
20
1.93642
11
2.55345
21
1.93613
0
LINE
8
BLACK
6
CONTINUOUS
10
2.55345
20
1.93613
11
2.55374
21
1.93543
0
LINE
8
BLACK
6
CONTINUOUS
10
2.55374
20
1.93543
11
2.55374
21
1.80315
0
LINE
8
BLACK
6
CONTINUOUS
10
2.55374
20
1.80315
11
2.55345
21
1.80245
0
LINE
8
BLACK
6
CONTINUOUS
10
2.55345
20
1.80245
11
2.55276
21
1.80217
0
LINE
8
BLACK
6
CONTINUOUS
10
2.55276
20
1.80217
11
2.47795
21
1.80217
0
LINE
8
BLACK
6
CONTINUOUS
10
2.47795
20
1.80217
11
2.47726
21
1.80245
0
LINE
8
BLACK
6
CONTINUOUS
10
2.47726
20
1.80245
11
2.47697
21
1.80315
0
LINE
8
BLACK
6
CONTINUOUS
10
2.47697
20
1.80315
11
2.47697
21
1.93543
0
LINE
8
BLACK
6
CONTINUOUS
10
2.47697
20
1.93543
11
2.47726
21
1.93613
0
LINE
8
BLACK
6
CONTINUOUS
10
2.47726
20
1.93613
11
2.47795
21
1.93642
0
LINE
8
BLACK
6
CONTINUOUS
10
2.47795
20
1.93642
11
2.55276
21
1.93642
0
LINE
8
BLACK
6
CONTINUOUS
10
2.47894
20
1.93445
11
2.47894
21
1.80413
0
LINE
8
BLACK
6
CONTINUOUS
10
2.47894
20
1.80413
11
2.55177
21
1.80413
0
LINE
8
BLACK
6
CONTINUOUS
10
2.55177
20
1.80413
11
2.55177
21
1.93445
0
LINE
8
BLACK
6
CONTINUOUS
10
2.55177
20
1.93445
11
2.47894
21
1.93445
0
LINE
8
BLACK
6
CONTINUOUS
10
0.968996
20
2.06791
11
0.969692
21
2.06763
0
LINE
8
BLACK
6
CONTINUOUS
10
0.969692
20
2.06763
11
0.96998
21
2.06693
0
LINE
8
BLACK
6
CONTINUOUS
10
0.96998
20
2.06693
11
0.96998
21
1.92913
0
LINE
8
BLACK
6
CONTINUOUS
10
0.96998
20
1.92913
11
0.969692
21
1.92844
0
LINE
8
BLACK
6
CONTINUOUS
10
0.969692
20
1.92844
11
0.968996
21
1.92815
0
LINE
8
BLACK
6
CONTINUOUS
10
0.968996
20
1.92815
11
0.693406
21
1.92815
0
LINE
8
BLACK
6
CONTINUOUS
10
0.693406
20
1.92815
11
0.69271
21
1.92844
0
LINE
8
BLACK
6
CONTINUOUS
10
0.69271
20
1.92844
11
0.692421
21
1.92913
0
LINE
8
BLACK
6
CONTINUOUS
10
0.692421
20
1.92913
11
0.692421
21
1.92913
0
LINE
8
BLACK
6
CONTINUOUS
10
0.692421
20
1.92913
11
0.692421
21
2.06693
0
LINE
8
BLACK
6
CONTINUOUS
10
0.692421
20
2.06693
11
0.69271
21
2.06763
0
LINE
8
BLACK
6
CONTINUOUS
10
0.69271
20
2.06763
11
0.693406
21
2.06791
0
LINE
8
BLACK
6
CONTINUOUS
10
0.693406
20
2.06791
11
0.968996
21
2.06791
0
LINE
8
BLACK
6
CONTINUOUS
10
0.69439
20
2.06594
11
0.69439
21
1.93012
0
LINE
8
BLACK
6
CONTINUOUS
10
0.69439
20
1.93012
11
0.968012
21
1.93012
0
LINE
8
BLACK
6
CONTINUOUS
10
0.968012
20
1.93012
11
0.968012
21
2.06594
0
LINE
8
BLACK
6
CONTINUOUS
10
0.968012
20
2.06594
11
0.69439
21
2.06594
  0
ENDSEC
  0
EOF
