<?xml version='1.0' encoding='ASCII' standalone='yes'?>
<svg xmlns:svg="http://www.w3.org/2000/svg" xmlns="http://www.w3.org/2000/svg" xmlns:xlink="http://www.w3.org/1999/xlink" version="1.1" width="297.0022mm" height="210.0072mm" viewBox="0.0000 0.0000 297.0022 210.0072">
<title>SVG Image created as USBSDREADER01-F_Fab.svg date 2023/09/27 06:58:05 </title>
  <desc>Image generated by PCBNEW </desc>
<g style="fill:#848484; fill-opacity:1.0000;stroke:#848484; stroke-opacity:1.0000; stroke-linecap:round; stroke-linejoin:round;" transform="translate(0 0) scale(1 1)">
</g>
<g style="fill:#848484; fill-opacity:0.0;  stroke:#848484; stroke-width:0.0000; stroke-opacity:1;  stroke-linecap:round; stroke-linejoin:round;">
</g>
<g style="fill:#848484; fill-opacity:0.01;  stroke:#848484; stroke-width:0.6245; stroke-opacity:1;  stroke-linecap:round; stroke-linejoin:round;">
<text x="175.8117" y="183.6256" textLength="8.1777" font-size="5.5509" lengthAdjust="spacingAndGlyphs" text-anchor="middle" opacity="0.01" style="font-family:monospace">J7</text>
<g class="stroked-text"><desc>J7</desc>
<path d="M174.4239 179.2743 L174.4239 182.2480 "/>
<path d="M174.4239 182.2480 L174.2257 182.8427 "/>
<path d="M174.2257 182.8427 L173.8292 183.2392 "/>
<path d="M173.8292 183.2392 L173.2345 183.4375 "/>
<path d="M173.2345 183.4375 L172.8380 183.4375 "/>
<path d="M176.0099 179.2743 L178.7854 179.2743 "/>
<path d="M178.7854 179.2743 L177.0012 183.4375 "/>
</g><text x="168.8006" y="88.8795" textLength="85.4942" font-size="5.5509" lengthAdjust="spacingAndGlyphs" text-anchor="middle" opacity="0.01" style="font-family:monospace">SD_Card-FPS009-4200-0</text>
<g class="stroked-text"><desc>SD_Card-FPS009-4200-0</desc>
<path d="M127.3669 88.4932 L127.9617 88.6914 "/>
<path d="M127.9617 88.6914 L128.9529 88.6914 "/>
<path d="M128.9529 88.6914 L129.3494 88.4932 "/>
<path d="M129.3494 88.4932 L129.5476 88.2949 "/>
<path d="M129.5476 88.2949 L129.7459 87.8984 "/>
<path d="M129.7459 87.8984 L129.7459 87.5020 "/>
<path d="M129.7459 87.5020 L129.5476 87.1055 "/>
<path d="M129.5476 87.1055 L129.3494 86.9072 "/>
<path d="M129.3494 86.9072 L128.9529 86.7090 "/>
<path d="M128.9529 86.7090 L128.1599 86.5107 "/>
<path d="M128.1599 86.5107 L127.7634 86.3125 "/>
<path d="M127.7634 86.3125 L127.5652 86.1142 "/>
<path d="M127.5652 86.1142 L127.3669 85.7177 "/>
<path d="M127.3669 85.7177 L127.3669 85.3212 "/>
<path d="M127.3669 85.3212 L127.5652 84.9247 "/>
<path d="M127.5652 84.9247 L127.7634 84.7265 "/>
<path d="M127.7634 84.7265 L128.1599 84.5282 "/>
<path d="M128.1599 84.5282 L129.1511 84.5282 "/>
<path d="M129.1511 84.5282 L129.7459 84.7265 "/>
<path d="M131.5301 88.6914 L131.5301 84.5282 "/>
<path d="M131.5301 84.5282 L132.5214 84.5282 "/>
<path d="M132.5214 84.5282 L133.1161 84.7265 "/>
<path d="M133.1161 84.7265 L133.5126 85.1230 "/>
<path d="M133.5126 85.1230 L133.7108 85.5195 "/>
<path d="M133.7108 85.5195 L133.9091 86.3125 "/>
<path d="M133.9091 86.3125 L133.9091 86.9072 "/>
<path d="M133.9091 86.9072 L133.7108 87.7002 "/>
<path d="M133.7108 87.7002 L133.5126 88.0967 "/>
<path d="M133.5126 88.0967 L133.1161 88.4932 "/>
<path d="M133.1161 88.4932 L132.5214 88.6914 "/>
<path d="M132.5214 88.6914 L131.5301 88.6914 "/>
<path d="M134.7021 89.0879 L137.8740 89.0879 "/>
<path d="M141.2442 88.2949 L141.0460 88.4932 "/>
<path d="M141.0460 88.4932 L140.4513 88.6914 "/>
<path d="M140.4513 88.6914 L140.0548 88.6914 "/>
<path d="M140.0548 88.6914 L139.4600 88.4932 "/>
<path d="M139.4600 88.4932 L139.0635 88.0967 "/>
<path d="M139.0635 88.0967 L138.8653 87.7002 "/>
<path d="M138.8653 87.7002 L138.6670 86.9072 "/>
<path d="M138.6670 86.9072 L138.6670 86.3125 "/>
<path d="M138.6670 86.3125 L138.8653 85.5195 "/>
<path d="M138.8653 85.5195 L139.0635 85.1230 "/>
<path d="M139.0635 85.1230 L139.4600 84.7265 "/>
<path d="M139.4600 84.7265 L140.0548 84.5282 "/>
<path d="M140.0548 84.5282 L140.4513 84.5282 "/>
<path d="M140.4513 84.5282 L141.0460 84.7265 "/>
<path d="M141.0460 84.7265 L141.2442 84.9247 "/>
<path d="M144.8127 88.6914 L144.8127 86.5107 "/>
<path d="M144.8127 86.5107 L144.6144 86.1142 "/>
<path d="M144.6144 86.1142 L144.2180 85.9160 "/>
<path d="M144.2180 85.9160 L143.4250 85.9160 "/>
<path d="M143.4250 85.9160 L143.0285 86.1142 "/>
<path d="M144.8127 88.4932 L144.4162 88.6914 "/>
<path d="M144.4162 88.6914 L143.4250 88.6914 "/>
<path d="M143.4250 88.6914 L143.0285 88.4932 "/>
<path d="M143.0285 88.4932 L142.8302 88.0967 "/>
<path d="M142.8302 88.0967 L142.8302 87.7002 "/>
<path d="M142.8302 87.7002 L143.0285 87.3037 "/>
<path d="M143.0285 87.3037 L143.4250 87.1055 "/>
<path d="M143.4250 87.1055 L144.4162 87.1055 "/>
<path d="M144.4162 87.1055 L144.8127 86.9072 "/>
<path d="M146.7952 88.6914 L146.7952 85.9160 "/>
<path d="M146.7952 86.7090 L146.9934 86.3125 "/>
<path d="M146.9934 86.3125 L147.1917 86.1142 "/>
<path d="M147.1917 86.1142 L147.5882 85.9160 "/>
<path d="M147.5882 85.9160 L147.9847 85.9160 "/>
<path d="M151.1566 88.6914 L151.1566 84.5282 "/>
<path d="M151.1566 88.4932 L150.7601 88.6914 "/>
<path d="M150.7601 88.6914 L149.9671 88.6914 "/>
<path d="M149.9671 88.6914 L149.5706 88.4932 "/>
<path d="M149.5706 88.4932 L149.3724 88.2949 "/>
<path d="M149.3724 88.2949 L149.1741 87.8984 "/>
<path d="M149.1741 87.8984 L149.1741 86.7090 "/>
<path d="M149.1741 86.7090 L149.3724 86.3125 "/>
<path d="M149.3724 86.3125 L149.5706 86.1142 "/>
<path d="M149.5706 86.1142 L149.9671 85.9160 "/>
<path d="M149.9671 85.9160 L150.7601 85.9160 "/>
<path d="M150.7601 85.9160 L151.1566 86.1142 "/>
<path d="M153.1391 87.1055 L156.3111 87.1055 "/>
<path d="M159.6813 86.5107 L158.2935 86.5107 "/>
<path d="M158.2935 88.6914 L158.2935 84.5282 "/>
<path d="M158.2935 84.5282 L160.2760 84.5282 "/>
<path d="M161.8620 88.6914 L161.8620 84.5282 "/>
<path d="M161.8620 84.5282 L163.4480 84.5282 "/>
<path d="M163.4480 84.5282 L163.8445 84.7265 "/>
<path d="M163.8445 84.7265 L164.0427 84.9247 "/>
<path d="M164.0427 84.9247 L164.2410 85.3212 "/>
<path d="M164.2410 85.3212 L164.2410 85.9160 "/>
<path d="M164.2410 85.9160 L164.0427 86.3125 "/>
<path d="M164.0427 86.3125 L163.8445 86.5107 "/>
<path d="M163.8445 86.5107 L163.4480 86.7090 "/>
<path d="M163.4480 86.7090 L161.8620 86.7090 "/>
<path d="M165.8269 88.4932 L166.4217 88.6914 "/>
<path d="M166.4217 88.6914 L167.4129 88.6914 "/>
<path d="M167.4129 88.6914 L167.8094 88.4932 "/>
<path d="M167.8094 88.4932 L168.0077 88.2949 "/>
<path d="M168.0077 88.2949 L168.2059 87.8984 "/>
<path d="M168.2059 87.8984 L168.2059 87.5020 "/>
<path d="M168.2059 87.5020 L168.0077 87.1055 "/>
<path d="M168.0077 87.1055 L167.8094 86.9072 "/>
<path d="M167.8094 86.9072 L167.4129 86.7090 "/>
<path d="M167.4129 86.7090 L166.6199 86.5107 "/>
<path d="M166.6199 86.5107 L166.2234 86.3125 "/>
<path d="M166.2234 86.3125 L166.0252 86.1142 "/>
<path d="M166.0252 86.1142 L165.8269 85.7177 "/>
<path d="M165.8269 85.7177 L165.8269 85.3212 "/>
<path d="M165.8269 85.3212 L166.0252 84.9247 "/>
<path d="M166.0252 84.9247 L166.2234 84.7265 "/>
<path d="M166.2234 84.7265 L166.6199 84.5282 "/>
<path d="M166.6199 84.5282 L167.6112 84.5282 "/>
<path d="M167.6112 84.5282 L168.2059 84.7265 "/>
<path d="M170.7831 84.5282 L171.1796 84.5282 "/>
<path d="M171.1796 84.5282 L171.5761 84.7265 "/>
<path d="M171.5761 84.7265 L171.7744 84.9247 "/>
<path d="M171.7744 84.9247 L171.9726 85.3212 "/>
<path d="M171.9726 85.3212 L172.1709 86.1142 "/>
<path d="M172.1709 86.1142 L172.1709 87.1055 "/>
<path d="M172.1709 87.1055 L171.9726 87.8984 "/>
<path d="M171.9726 87.8984 L171.7744 88.2949 "/>
<path d="M171.7744 88.2949 L171.5761 88.4932 "/>
<path d="M171.5761 88.4932 L171.1796 88.6914 "/>
<path d="M171.1796 88.6914 L170.7831 88.6914 "/>
<path d="M170.7831 88.6914 L170.3866 88.4932 "/>
<path d="M170.3866 88.4932 L170.1884 88.2949 "/>
<path d="M170.1884 88.2949 L169.9901 87.8984 "/>
<path d="M169.9901 87.8984 L169.7919 87.1055 "/>
<path d="M169.7919 87.1055 L169.7919 86.1142 "/>
<path d="M169.7919 86.1142 L169.9901 85.3212 "/>
<path d="M169.9901 85.3212 L170.1884 84.9247 "/>
<path d="M170.1884 84.9247 L170.3866 84.7265 "/>
<path d="M170.3866 84.7265 L170.7831 84.5282 "/>
<path d="M174.7481 84.5282 L175.1446 84.5282 "/>
<path d="M175.1446 84.5282 L175.5411 84.7265 "/>
<path d="M175.5411 84.7265 L175.7393 84.9247 "/>
<path d="M175.7393 84.9247 L175.9376 85.3212 "/>
<path d="M175.9376 85.3212 L176.1358 86.1142 "/>
<path d="M176.1358 86.1142 L176.1358 87.1055 "/>
<path d="M176.1358 87.1055 L175.9376 87.8984 "/>
<path d="M175.9376 87.8984 L175.7393 88.2949 "/>
<path d="M175.7393 88.2949 L175.5411 88.4932 "/>
<path d="M175.5411 88.4932 L175.1446 88.6914 "/>
<path d="M175.1446 88.6914 L174.7481 88.6914 "/>
<path d="M174.7481 88.6914 L174.3516 88.4932 "/>
<path d="M174.3516 88.4932 L174.1533 88.2949 "/>
<path d="M174.1533 88.2949 L173.9551 87.8984 "/>
<path d="M173.9551 87.8984 L173.7568 87.1055 "/>
<path d="M173.7568 87.1055 L173.7568 86.1142 "/>
<path d="M173.7568 86.1142 L173.9551 85.3212 "/>
<path d="M173.9551 85.3212 L174.1533 84.9247 "/>
<path d="M174.1533 84.9247 L174.3516 84.7265 "/>
<path d="M174.3516 84.7265 L174.7481 84.5282 "/>
<path d="M178.1183 88.6914 L178.9113 88.6914 "/>
<path d="M178.9113 88.6914 L179.3078 88.4932 "/>
<path d="M179.3078 88.4932 L179.5060 88.2949 "/>
<path d="M179.5060 88.2949 L179.9025 87.7002 "/>
<path d="M179.9025 87.7002 L180.1008 86.9072 "/>
<path d="M180.1008 86.9072 L180.1008 85.3212 "/>
<path d="M180.1008 85.3212 L179.9025 84.9247 "/>
<path d="M179.9025 84.9247 L179.7043 84.7265 "/>
<path d="M179.7043 84.7265 L179.3078 84.5282 "/>
<path d="M179.3078 84.5282 L178.5148 84.5282 "/>
<path d="M178.5148 84.5282 L178.1183 84.7265 "/>
<path d="M178.1183 84.7265 L177.9200 84.9247 "/>
<path d="M177.9200 84.9247 L177.7218 85.3212 "/>
<path d="M177.7218 85.3212 L177.7218 86.3125 "/>
<path d="M177.7218 86.3125 L177.9200 86.7090 "/>
<path d="M177.9200 86.7090 L178.1183 86.9072 "/>
<path d="M178.1183 86.9072 L178.5148 87.1055 "/>
<path d="M178.5148 87.1055 L179.3078 87.1055 "/>
<path d="M179.3078 87.1055 L179.7043 86.9072 "/>
<path d="M179.7043 86.9072 L179.9025 86.7090 "/>
<path d="M179.9025 86.7090 L180.1008 86.3125 "/>
<path d="M181.8850 87.1055 L185.0569 87.1055 "/>
<path d="M188.8236 85.9160 L188.8236 88.6914 "/>
<path d="M187.8324 84.3300 L186.8412 87.3037 "/>
<path d="M186.8412 87.3037 L189.4184 87.3037 "/>
<path d="M190.8061 84.9247 L191.0044 84.7265 "/>
<path d="M191.0044 84.7265 L191.4009 84.5282 "/>
<path d="M191.4009 84.5282 L192.3921 84.5282 "/>
<path d="M192.3921 84.5282 L192.7886 84.7265 "/>
<path d="M192.7886 84.7265 L192.9868 84.9247 "/>
<path d="M192.9868 84.9247 L193.1851 85.3212 "/>
<path d="M193.1851 85.3212 L193.1851 85.7177 "/>
<path d="M193.1851 85.7177 L192.9868 86.3125 "/>
<path d="M192.9868 86.3125 L190.6079 88.6914 "/>
<path d="M190.6079 88.6914 L193.1851 88.6914 "/>
<path d="M195.7623 84.5282 L196.1588 84.5282 "/>
<path d="M196.1588 84.5282 L196.5553 84.7265 "/>
<path d="M196.5553 84.7265 L196.7535 84.9247 "/>
<path d="M196.7535 84.9247 L196.9518 85.3212 "/>
<path d="M196.9518 85.3212 L197.1500 86.1142 "/>
<path d="M197.1500 86.1142 L197.1500 87.1055 "/>
<path d="M197.1500 87.1055 L196.9518 87.8984 "/>
<path d="M196.9518 87.8984 L196.7535 88.2949 "/>
<path d="M196.7535 88.2949 L196.5553 88.4932 "/>
<path d="M196.5553 88.4932 L196.1588 88.6914 "/>
<path d="M196.1588 88.6914 L195.7623 88.6914 "/>
<path d="M195.7623 88.6914 L195.3658 88.4932 "/>
<path d="M195.3658 88.4932 L195.1676 88.2949 "/>
<path d="M195.1676 88.2949 L194.9693 87.8984 "/>
<path d="M194.9693 87.8984 L194.7711 87.1055 "/>
<path d="M194.7711 87.1055 L194.7711 86.1142 "/>
<path d="M194.7711 86.1142 L194.9693 85.3212 "/>
<path d="M194.9693 85.3212 L195.1676 84.9247 "/>
<path d="M195.1676 84.9247 L195.3658 84.7265 "/>
<path d="M195.3658 84.7265 L195.7623 84.5282 "/>
<path d="M199.7273 84.5282 L200.1238 84.5282 "/>
<path d="M200.1238 84.5282 L200.5202 84.7265 "/>
<path d="M200.5202 84.7265 L200.7185 84.9247 "/>
<path d="M200.7185 84.9247 L200.9167 85.3212 "/>
<path d="M200.9167 85.3212 L201.1150 86.1142 "/>
<path d="M201.1150 86.1142 L201.1150 87.1055 "/>
<path d="M201.1150 87.1055 L200.9167 87.8984 "/>
<path d="M200.9167 87.8984 L200.7185 88.2949 "/>
<path d="M200.7185 88.2949 L200.5202 88.4932 "/>
<path d="M200.5202 88.4932 L200.1238 88.6914 "/>
<path d="M200.1238 88.6914 L199.7273 88.6914 "/>
<path d="M199.7273 88.6914 L199.3308 88.4932 "/>
<path d="M199.3308 88.4932 L199.1325 88.2949 "/>
<path d="M199.1325 88.2949 L198.9343 87.8984 "/>
<path d="M198.9343 87.8984 L198.7360 87.1055 "/>
<path d="M198.7360 87.1055 L198.7360 86.1142 "/>
<path d="M198.7360 86.1142 L198.9343 85.3212 "/>
<path d="M198.9343 85.3212 L199.1325 84.9247 "/>
<path d="M199.1325 84.9247 L199.3308 84.7265 "/>
<path d="M199.3308 84.7265 L199.7273 84.5282 "/>
<path d="M202.8992 87.1055 L206.0712 87.1055 "/>
<path d="M208.8466 84.5282 L209.2431 84.5282 "/>
<path d="M209.2431 84.5282 L209.6396 84.7265 "/>
<path d="M209.6396 84.7265 L209.8379 84.9247 "/>
<path d="M209.8379 84.9247 L210.0361 85.3212 "/>
<path d="M210.0361 85.3212 L210.2344 86.1142 "/>
<path d="M210.2344 86.1142 L210.2344 87.1055 "/>
<path d="M210.2344 87.1055 L210.0361 87.8984 "/>
<path d="M210.0361 87.8984 L209.8379 88.2949 "/>
<path d="M209.8379 88.2949 L209.6396 88.4932 "/>
<path d="M209.6396 88.4932 L209.2431 88.6914 "/>
<path d="M209.2431 88.6914 L208.8466 88.6914 "/>
<path d="M208.8466 88.6914 L208.4501 88.4932 "/>
<path d="M208.4501 88.4932 L208.2519 88.2949 "/>
<path d="M208.2519 88.2949 L208.0537 87.8984 "/>
<path d="M208.0537 87.8984 L207.8554 87.1055 "/>
<path d="M207.8554 87.1055 L207.8554 86.1142 "/>
<path d="M207.8554 86.1142 L208.0537 85.3212 "/>
<path d="M208.0537 85.3212 L208.2519 84.9247 "/>
<path d="M208.2519 84.9247 L208.4501 84.7265 "/>
<path d="M208.4501 84.7265 L208.8466 84.5282 "/>
</g><text x="183.2877" y="100.1414" textLength="8.1777" font-size="5.5509" lengthAdjust="spacingAndGlyphs" text-anchor="middle" opacity="0.01" style="font-family:monospace">J9</text>
<g class="stroked-text"><desc>J9</desc>
<path d="M181.9000 95.7901 L181.9000 98.7638 "/>
<path d="M181.9000 98.7638 L181.7018 99.3586 "/>
<path d="M181.7018 99.3586 L181.3053 99.7551 "/>
<path d="M181.3053 99.7551 L180.7105 99.9533 "/>
<path d="M180.7105 99.9533 L180.3140 99.9533 "/>
<path d="M184.0807 99.9533 L184.8737 99.9533 "/>
<path d="M184.8737 99.9533 L185.2702 99.7551 "/>
<path d="M185.2702 99.7551 L185.4685 99.5568 "/>
<path d="M185.4685 99.5568 L185.8650 98.9621 "/>
<path d="M185.8650 98.9621 L186.0632 98.1691 "/>
<path d="M186.0632 98.1691 L186.0632 96.5831 "/>
<path d="M186.0632 96.5831 L185.8650 96.1866 "/>
<path d="M185.8650 96.1866 L185.6667 95.9884 "/>
<path d="M185.6667 95.9884 L185.2702 95.7901 "/>
<path d="M185.2702 95.7901 L184.4772 95.7901 "/>
<path d="M184.4772 95.7901 L184.0807 95.9884 "/>
<path d="M184.0807 95.9884 L183.8825 96.1866 "/>
<path d="M183.8825 96.1866 L183.6842 96.5831 "/>
<path d="M183.6842 96.5831 L183.6842 97.5743 "/>
<path d="M183.6842 97.5743 L183.8825 97.9708 "/>
<path d="M183.8825 97.9708 L184.0807 98.1691 "/>
<path d="M184.0807 98.1691 L184.4772 98.3673 "/>
<path d="M184.4772 98.3673 L185.2702 98.3673 "/>
<path d="M185.2702 98.3673 L185.6667 98.1691 "/>
<path d="M185.6667 98.1691 L185.8650 97.9708 "/>
<path d="M185.8650 97.9708 L186.0632 97.5743 "/>
</g><g transform="rotate(-90.000000 238.3845 176.1943)">
<text x="238.3845" y="178.2759" textLength="8.1777" font-size="5.5509" lengthAdjust="spacingAndGlyphs" text-anchor="middle" opacity="0.01" style="font-family:monospace">J6</text>
</g>
<g class="stroked-text"><desc>J6</desc>
<path d="M236.1148 177.5820 L239.0885 177.5820 "/>
<path d="M239.0885 177.5820 L239.6833 177.7803 "/>
<path d="M239.6833 177.7803 L240.0798 178.1768 "/>
<path d="M240.0798 178.1768 L240.2780 178.7715 "/>
<path d="M240.2780 178.7715 L240.2780 179.1680 "/>
<path d="M236.1148 173.8153 L236.1148 174.6083 "/>
<path d="M236.1148 174.6083 L236.3131 175.0048 "/>
<path d="M236.3131 175.0048 L236.5113 175.2030 "/>
<path d="M236.5113 175.2030 L237.1061 175.5995 "/>
<path d="M237.1061 175.5995 L237.8991 175.7978 "/>
<path d="M237.8991 175.7978 L239.4850 175.7978 "/>
<path d="M239.4850 175.7978 L239.8815 175.5995 "/>
<path d="M239.8815 175.5995 L240.0798 175.4013 "/>
<path d="M240.0798 175.4013 L240.2780 175.0048 "/>
<path d="M240.2780 175.0048 L240.2780 174.2118 "/>
<path d="M240.2780 174.2118 L240.0798 173.8153 "/>
<path d="M240.0798 173.8153 L239.8815 173.6171 "/>
<path d="M239.8815 173.6171 L239.4850 173.4188 "/>
<path d="M239.4850 173.4188 L238.4938 173.4188 "/>
<path d="M238.4938 173.4188 L238.0973 173.6171 "/>
<path d="M238.0973 173.6171 L237.8991 173.8153 "/>
<path d="M237.8991 173.8153 L237.7008 174.2118 "/>
<path d="M237.7008 174.2118 L237.7008 175.0048 "/>
<path d="M237.7008 175.0048 L237.8991 175.4013 "/>
<path d="M237.8991 175.4013 L238.0973 175.5995 "/>
<path d="M238.0973 175.5995 L238.4938 175.7978 "/>
</g><g transform="rotate(-90.000000 81.7755 105.0244)">
<text x="81.7755" y="107.1060" textLength="12.1427" font-size="5.5509" lengthAdjust="spacingAndGlyphs" text-anchor="middle" opacity="0.01" style="font-family:monospace">J10</text>
</g>
<g class="stroked-text"><desc>J10</desc>
<path d="M79.5058 108.3946 L82.4795 108.3946 "/>
<path d="M82.4795 108.3946 L83.0742 108.5929 "/>
<path d="M83.0742 108.5929 L83.4707 108.9894 "/>
<path d="M83.4707 108.9894 L83.6690 109.5841 "/>
<path d="M83.6690 109.5841 L83.6690 109.9806 "/>
<path d="M83.6690 104.2314 L83.6690 106.6104 "/>
<path d="M83.6690 105.4209 L79.5058 105.4209 "/>
<path d="M79.5058 105.4209 L80.1005 105.8174 "/>
<path d="M80.1005 105.8174 L80.4970 106.2139 "/>
<path d="M80.4970 106.2139 L80.6952 106.6104 "/>
<path d="M79.5058 101.6542 L79.5058 101.2577 "/>
<path d="M79.5058 101.2577 L79.7040 100.8612 "/>
<path d="M79.7040 100.8612 L79.9023 100.6630 "/>
<path d="M79.9023 100.6630 L80.2987 100.4647 "/>
<path d="M80.2987 100.4647 L81.0917 100.2665 "/>
<path d="M81.0917 100.2665 L82.0830 100.2665 "/>
<path d="M82.0830 100.2665 L82.8760 100.4647 "/>
<path d="M82.8760 100.4647 L83.2725 100.6630 "/>
<path d="M83.2725 100.6630 L83.4707 100.8612 "/>
<path d="M83.4707 100.8612 L83.6690 101.2577 "/>
<path d="M83.6690 101.2577 L83.6690 101.6542 "/>
<path d="M83.6690 101.6542 L83.4707 102.0507 "/>
<path d="M83.4707 102.0507 L83.2725 102.2489 "/>
<path d="M83.2725 102.2489 L82.8760 102.4472 "/>
<path d="M82.8760 102.4472 L82.0830 102.6454 "/>
<path d="M82.0830 102.6454 L81.0917 102.6454 "/>
<path d="M81.0917 102.6454 L80.2987 102.4472 "/>
<path d="M80.2987 102.4472 L79.9023 102.2489 "/>
<path d="M79.9023 102.2489 L79.7040 102.0507 "/>
<path d="M79.7040 102.0507 L79.5058 101.6542 "/>
</g><text x="35.5119" y="107.0852" textLength="8.1777" font-size="5.5509" lengthAdjust="spacingAndGlyphs" text-anchor="middle" opacity="0.01" style="font-family:monospace">J2</text>
<g class="stroked-text"><desc>J2</desc>
<path d="M34.1242 102.7339 L34.1242 105.7076 "/>
<path d="M34.1242 105.7076 L33.9259 106.3024 "/>
<path d="M33.9259 106.3024 L33.5294 106.6989 "/>
<path d="M33.5294 106.6989 L32.9347 106.8971 "/>
<path d="M32.9347 106.8971 L32.5382 106.8971 "/>
<path d="M35.9084 103.1304 L36.1067 102.9322 "/>
<path d="M36.1067 102.9322 L36.5032 102.7339 "/>
<path d="M36.5032 102.7339 L37.4944 102.7339 "/>
<path d="M37.4944 102.7339 L37.8909 102.9322 "/>
<path d="M37.8909 102.9322 L38.0891 103.1304 "/>
<path d="M38.0891 103.1304 L38.2874 103.5269 "/>
<path d="M38.2874 103.5269 L38.2874 103.9234 "/>
<path d="M38.2874 103.9234 L38.0891 104.5181 "/>
<path d="M38.0891 104.5181 L35.7102 106.8971 "/>
<path d="M35.7102 106.8971 L38.2874 106.8971 "/>
</g><text x="262.5623" y="87.6743" textLength="20.2708" font-size="5.5509" lengthAdjust="spacingAndGlyphs" text-anchor="middle" opacity="0.01" style="font-family:monospace">USB_A</text>
<g class="stroked-text"><desc>USB_A</desc>
<path d="M253.9385 83.3230 L253.9385 86.6932 "/>
<path d="M253.9385 86.6932 L254.1368 87.0897 "/>
<path d="M254.1368 87.0897 L254.3350 87.2879 "/>
<path d="M254.3350 87.2879 L254.7315 87.4862 "/>
<path d="M254.7315 87.4862 L255.5245 87.4862 "/>
<path d="M255.5245 87.4862 L255.9210 87.2879 "/>
<path d="M255.9210 87.2879 L256.1193 87.0897 "/>
<path d="M256.1193 87.0897 L256.3175 86.6932 "/>
<path d="M256.3175 86.6932 L256.3175 83.3230 "/>
<path d="M258.1017 87.2879 L258.6965 87.4862 "/>
<path d="M258.6965 87.4862 L259.6877 87.4862 "/>
<path d="M259.6877 87.4862 L260.0842 87.2879 "/>
<path d="M260.0842 87.2879 L260.2825 87.0897 "/>
<path d="M260.2825 87.0897 L260.4807 86.6932 "/>
<path d="M260.4807 86.6932 L260.4807 86.2967 "/>
<path d="M260.4807 86.2967 L260.2825 85.9002 "/>
<path d="M260.2825 85.9002 L260.0842 85.7020 "/>
<path d="M260.0842 85.7020 L259.6877 85.5037 "/>
<path d="M259.6877 85.5037 L258.8947 85.3055 "/>
<path d="M258.8947 85.3055 L258.4982 85.1072 "/>
<path d="M258.4982 85.1072 L258.3000 84.9090 "/>
<path d="M258.3000 84.9090 L258.1017 84.5125 "/>
<path d="M258.1017 84.5125 L258.1017 84.1160 "/>
<path d="M258.1017 84.1160 L258.3000 83.7195 "/>
<path d="M258.3000 83.7195 L258.4982 83.5212 "/>
<path d="M258.4982 83.5212 L258.8947 83.3230 "/>
<path d="M258.8947 83.3230 L259.8860 83.3230 "/>
<path d="M259.8860 83.3230 L260.4807 83.5212 "/>
<path d="M263.6527 85.3055 L264.2474 85.5037 "/>
<path d="M264.2474 85.5037 L264.4457 85.7020 "/>
<path d="M264.4457 85.7020 L264.6439 86.0985 "/>
<path d="M264.6439 86.0985 L264.6439 86.6932 "/>
<path d="M264.6439 86.6932 L264.4457 87.0897 "/>
<path d="M264.4457 87.0897 L264.2474 87.2879 "/>
<path d="M264.2474 87.2879 L263.8509 87.4862 "/>
<path d="M263.8509 87.4862 L262.2649 87.4862 "/>
<path d="M262.2649 87.4862 L262.2649 83.3230 "/>
<path d="M262.2649 83.3230 L263.6527 83.3230 "/>
<path d="M263.6527 83.3230 L264.0492 83.5212 "/>
<path d="M264.0492 83.5212 L264.2474 83.7195 "/>
<path d="M264.2474 83.7195 L264.4457 84.1160 "/>
<path d="M264.4457 84.1160 L264.4457 84.5125 "/>
<path d="M264.4457 84.5125 L264.2474 84.9090 "/>
<path d="M264.2474 84.9090 L264.0492 85.1072 "/>
<path d="M264.0492 85.1072 L263.6527 85.3055 "/>
<path d="M263.6527 85.3055 L262.2649 85.3055 "/>
<path d="M265.4369 87.8827 L268.6088 87.8827 "/>
<path d="M269.4018 86.2967 L271.3843 86.2967 "/>
<path d="M269.0053 87.4862 L270.3931 83.3230 "/>
<path d="M270.3931 83.3230 L271.7808 87.4862 "/>
</g><g transform="rotate(-90.000000 261.0427 105.0036)">
<text x="261.0427" y="107.0852" textLength="8.1777" font-size="5.5509" lengthAdjust="spacingAndGlyphs" text-anchor="middle" opacity="0.01" style="font-family:monospace">J3</text>
</g>
<g class="stroked-text"><desc>J3</desc>
<path d="M258.7730 106.3913 L261.7467 106.3913 "/>
<path d="M261.7467 106.3913 L262.3415 106.5896 "/>
<path d="M262.3415 106.5896 L262.7380 106.9861 "/>
<path d="M262.7380 106.9861 L262.9362 107.5808 "/>
<path d="M262.9362 107.5808 L262.9362 107.9773 "/>
<path d="M258.7730 104.8053 L258.7730 102.2281 "/>
<path d="M258.7730 102.2281 L260.3590 103.6159 "/>
<path d="M260.3590 103.6159 L260.3590 103.0211 "/>
<path d="M260.3590 103.0211 L260.5573 102.6246 "/>
<path d="M260.5573 102.6246 L260.7555 102.4264 "/>
<path d="M260.7555 102.4264 L261.1520 102.2281 "/>
<path d="M261.1520 102.2281 L262.1432 102.2281 "/>
<path d="M262.1432 102.2281 L262.5397 102.4264 "/>
<path d="M262.5397 102.4264 L262.7380 102.6246 "/>
<path d="M262.7380 102.6246 L262.9362 103.0211 "/>
<path d="M262.9362 103.0211 L262.9362 104.2106 "/>
<path d="M262.9362 104.2106 L262.7380 104.6071 "/>
<path d="M262.7380 104.6071 L262.5397 104.8053 "/>
</g><text x="96.5028" y="183.6256" textLength="8.1777" font-size="5.5509" lengthAdjust="spacingAndGlyphs" text-anchor="middle" opacity="0.01" style="font-family:monospace">J5</text>
<g class="stroked-text"><desc>J5</desc>
<path d="M95.1150 179.2743 L95.1150 182.2480 "/>
<path d="M95.1150 182.2480 L94.9168 182.8427 "/>
<path d="M94.9168 182.8427 L94.5203 183.2392 "/>
<path d="M94.5203 183.2392 L93.9255 183.4375 "/>
<path d="M93.9255 183.4375 L93.5291 183.4375 "/>
<path d="M99.0800 179.2743 L97.0975 179.2743 "/>
<path d="M97.0975 179.2743 L96.8993 181.2568 "/>
<path d="M96.8993 181.2568 L97.0975 181.0585 "/>
<path d="M97.0975 181.0585 L97.4940 180.8603 "/>
<path d="M97.4940 180.8603 L98.4852 180.8603 "/>
<path d="M98.4852 180.8603 L98.8817 181.0585 "/>
<path d="M98.8817 181.0585 L99.0800 181.2568 "/>
<path d="M99.0800 181.2568 L99.2782 181.6533 "/>
<path d="M99.2782 181.6533 L99.2782 182.6445 "/>
<path d="M99.2782 182.6445 L99.0800 183.0410 "/>
<path d="M99.0800 183.0410 L98.8817 183.2392 "/>
<path d="M98.8817 183.2392 L98.4852 183.4375 "/>
<path d="M98.4852 183.4375 L97.4940 183.4375 "/>
<path d="M97.4940 183.4375 L97.0975 183.2392 "/>
<path d="M97.0975 183.2392 L96.8993 183.0410 "/>
</g><g transform="rotate(-90.000000 225.7700 104.9828)">
<text x="225.7700" y="107.0644" textLength="12.1427" font-size="5.5509" lengthAdjust="spacingAndGlyphs" text-anchor="middle" opacity="0.01" style="font-family:monospace">J11</text>
</g>
<g class="stroked-text"><desc>J11</desc>
<path d="M223.5003 108.3530 L226.4741 108.3530 "/>
<path d="M226.4741 108.3530 L227.0688 108.5512 "/>
<path d="M227.0688 108.5512 L227.4653 108.9477 "/>
<path d="M227.4653 108.9477 L227.6635 109.5425 "/>
<path d="M227.6635 109.5425 L227.6635 109.9390 "/>
<path d="M227.6635 104.1898 L227.6635 106.5688 "/>
<path d="M227.6635 105.3793 L223.5003 105.3793 "/>
<path d="M223.5003 105.3793 L224.0951 105.7758 "/>
<path d="M224.0951 105.7758 L224.4916 106.1723 "/>
<path d="M224.4916 106.1723 L224.6898 106.5688 "/>
<path d="M227.6635 100.2248 L227.6635 102.6038 "/>
<path d="M227.6635 101.4143 L223.5003 101.4143 "/>
<path d="M223.5003 101.4143 L224.0951 101.8108 "/>
<path d="M224.0951 101.8108 L224.4916 102.2073 "/>
<path d="M224.4916 102.2073 L224.6898 102.6038 "/>
</g><text x="159.9499" y="199.4874" textLength="8.1777" font-size="5.5509" lengthAdjust="spacingAndGlyphs" text-anchor="middle" opacity="0.01" style="font-family:monospace">J8</text>
<g class="stroked-text"><desc>J8</desc>
<path d="M158.5622 195.1361 L158.5622 198.1098 "/>
<path d="M158.5622 198.1098 L158.3639 198.7045 "/>
<path d="M158.3639 198.7045 L157.9674 199.1010 "/>
<path d="M157.9674 199.1010 L157.3727 199.2993 "/>
<path d="M157.3727 199.2993 L156.9762 199.2993 "/>
<path d="M161.1394 196.9203 L160.7429 196.7221 "/>
<path d="M160.7429 196.7221 L160.5446 196.5238 "/>
<path d="M160.5446 196.5238 L160.3464 196.1273 "/>
<path d="M160.3464 196.1273 L160.3464 195.9291 "/>
<path d="M160.3464 195.9291 L160.5446 195.5326 "/>
<path d="M160.5446 195.5326 L160.7429 195.3343 "/>
<path d="M160.7429 195.3343 L161.1394 195.1361 "/>
<path d="M161.1394 195.1361 L161.9324 195.1361 "/>
<path d="M161.9324 195.1361 L162.3289 195.3343 "/>
<path d="M162.3289 195.3343 L162.5271 195.5326 "/>
<path d="M162.5271 195.5326 L162.7254 195.9291 "/>
<path d="M162.7254 195.9291 L162.7254 196.1273 "/>
<path d="M162.7254 196.1273 L162.5271 196.5238 "/>
<path d="M162.5271 196.5238 L162.3289 196.7221 "/>
<path d="M162.3289 196.7221 L161.9324 196.9203 "/>
<path d="M161.9324 196.9203 L161.1394 196.9203 "/>
<path d="M161.1394 196.9203 L160.7429 197.1185 "/>
<path d="M160.7429 197.1185 L160.5446 197.3168 "/>
<path d="M160.5446 197.3168 L160.3464 197.7133 "/>
<path d="M160.3464 197.7133 L160.3464 198.5063 "/>
<path d="M160.3464 198.5063 L160.5446 198.9028 "/>
<path d="M160.5446 198.9028 L160.7429 199.1010 "/>
<path d="M160.7429 199.1010 L161.1394 199.2993 "/>
<path d="M161.1394 199.2993 L161.9324 199.2993 "/>
<path d="M161.9324 199.2993 L162.3289 199.1010 "/>
<path d="M162.3289 199.1010 L162.5271 198.9028 "/>
<path d="M162.5271 198.9028 L162.7254 198.5063 "/>
<path d="M162.7254 198.5063 L162.7254 197.7133 "/>
<path d="M162.7254 197.7133 L162.5271 197.3168 "/>
<path d="M162.5271 197.3168 L162.3289 197.1185 "/>
<path d="M162.3289 197.1185 L161.9324 196.9203 "/>
</g><g transform="rotate(-270.000000 246.7076 7.3683)">
<text x="246.7076" y="9.4499" transform="scale(-1 1) translate(-493.415197 0)" textLength="5.2040" font-size="5.5509" lengthAdjust="spacingAndGlyphs" text-anchor="middle" opacity="0.01" style="font-family:monospace">K</text>
</g>
<g class="stroked-text"><desc>K</desc>
<path d="M244.8141 8.4587 L248.9773 8.4587 "/>
<path d="M244.8141 6.0797 L247.1931 7.8639 "/>
<path d="M248.9773 6.0797 L246.5983 8.4587 "/>
</g><g transform="rotate(-270.000000 235.7168 7.3683)">
<text x="235.7168" y="9.4499" transform="scale(-1 1) translate(-471.433515 0)" textLength="5.2040" font-size="5.5509" lengthAdjust="spacingAndGlyphs" text-anchor="middle" opacity="0.01" style="font-family:monospace">K</text>
</g>
<g class="stroked-text"><desc>K</desc>
<path d="M233.8233 8.4587 L237.9864 8.4587 "/>
<path d="M233.8233 6.0797 L236.2022 7.8639 "/>
<path d="M237.9864 6.0797 L235.6075 8.4587 "/>
</g></g>
<g style="fill:#848484; fill-opacity:0.0;  stroke:#848484; stroke-width:1.5862; stroke-opacity:1;  stroke-linecap:round; stroke-linejoin:round;">
<circle cx="275.3954" cy="20.4074" r="12.4885"/> 
</g>
<g style="fill:#848484; fill-opacity:0.0;  stroke:#848484; stroke-width:0.4163; stroke-opacity:1;  stroke-linecap:round; stroke-linejoin:round;">
<path d="M149.3754 192.1185 L144.0881 186.8312 "/>
<path d="M207.5352 192.1185 L149.3754 192.1185 "/>
<path d="M144.0881 186.8312 L144.0881 170.9695 "/>
<path d="M144.0881 170.9695 L207.5352 170.9695 "/>
<path d="M207.5352 170.9695 L207.5352 192.1185 "/>
</g>
<g style="fill:#848484; fill-opacity:0.0;  stroke:#848484; stroke-width:1.5862; stroke-opacity:1;  stroke-linecap:round; stroke-linejoin:round;">
<circle cx="275.3954" cy="189.5998" r="12.4885"/> 
</g>
<g style="fill:#848484; fill-opacity:0.0;  stroke:#848484; stroke-width:0.6245; stroke-opacity:1;  stroke-linecap:round; stroke-linejoin:round;">
<path d="M94.6204 149.2934 L94.6204 26.1002 "/>
<path d="M215.1574 149.2934 L95.6778 149.2934 "/>
<path d="M215.1574 149.2934 L215.1574 1.6730 "/>
<path d="M94.6329 26.1002 L94.6329 22.6635 "/>
<path d="M71.8323 22.6106 L71.8323 1.6730 "/>
<path d="M94.6329 22.6106 L71.8394 22.6106 "/>
<path d="M71.8593 1.6730 L215.1574 1.6730 "/>
</g>
<g style="fill:#848484; fill-opacity:0.0;  stroke:#848484; stroke-width:0.4163; stroke-opacity:1;  stroke-linecap:round; stroke-linejoin:round;">
<path d="M248.9591 197.3433 L243.6718 202.6306 "/>
<path d="M248.9591 149.7580 L248.9591 197.3433 "/>
<path d="M243.6718 202.6306 L227.8100 202.6306 "/>
<path d="M227.8100 202.6306 L227.8100 149.7580 "/>
<path d="M227.8100 149.7580 L248.9591 149.7580 "/>
<path d="M87.0627 112.9553 L84.4191 115.5989 "/>
<path d="M87.0627 94.4499 L87.0627 112.9553 "/>
<path d="M84.4191 115.5989 L76.4882 115.5989 "/>
<path d="M76.4882 115.5989 L76.4882 94.4499 "/>
<path d="M76.4882 94.4499 L87.0627 94.4499 "/>
<path d="M71.8983 129.9828 L3.6218 129.9828 "/>
<path d="M71.8983 108.1676 L69.8583 110.2076 "/>
<path d="M71.8983 80.0244 L71.8983 129.9828 "/>
<path d="M69.8583 110.2076 L71.8983 112.2476 "/>
<path d="M3.6218 129.9828 L3.6218 80.0244 "/>
<path d="M3.6218 80.0244 L71.8983 80.0244 "/>
</g>
<g style="fill:#848484; fill-opacity:0.0;  stroke:#848484; stroke-width:0.6245; stroke-opacity:1;  stroke-linecap:round; stroke-linejoin:round;">
<path d="M255.6202 61.3733 L255.6202 40.2243 "/>
<path d="M287.3437 61.3733 L255.6202 61.3733 "/>
<path d="M255.6202 40.2243 L287.3437 40.2243 "/>
<path d="M287.3437 40.2243 L287.3437 61.3733 "/>
</g>
<g style="fill:#848484; fill-opacity:0.0;  stroke:#848484; stroke-width:1.5862; stroke-opacity:1;  stroke-linecap:round; stroke-linejoin:round;">
<circle cx="21.6068" cy="189.5998" r="12.4885"/> 
</g>
<g style="fill:#848484; fill-opacity:0.0;  stroke:#848484; stroke-width:0.4163; stroke-opacity:1;  stroke-linecap:round; stroke-linejoin:round;">
<path d="M239.6855 135.1868 L294.3067 135.1868 "/>
<path d="M294.3067 135.1868 L294.3067 74.8204 "/>
<path d="M236.0219 131.5232 L239.6855 135.1868 "/>
<path d="M236.0219 131.5232 L236.0219 74.8204 "/>
<path d="M236.0219 74.8204 L294.3067 74.8204 "/>
</g>
<g style="fill:#848484; fill-opacity:0.0;  stroke:#848484; stroke-width:1.5862; stroke-opacity:1;  stroke-linecap:round; stroke-linejoin:round;">
<circle cx="21.6068" cy="20.4074" r="12.4885"/> 
</g>
<g style="fill:#848484; fill-opacity:0.0;  stroke:#848484; stroke-width:0.4163; stroke-opacity:1;  stroke-linecap:round; stroke-linejoin:round;">
<path d="M128.2263 170.9695 L133.5136 176.2567 "/>
<path d="M59.4919 170.9695 L128.2263 170.9695 "/>
<path d="M133.5136 176.2567 L133.5136 192.1185 "/>
<path d="M133.5136 192.1185 L59.4919 192.1185 "/>
<path d="M59.4919 192.1185 L59.4919 170.9695 "/>
<path d="M220.4828 97.0519 L223.1264 94.4083 "/>
<path d="M220.4828 115.5573 L220.4828 97.0519 "/>
<path d="M223.1264 94.4083 L231.0573 94.4083 "/>
<path d="M231.0573 94.4083 L231.0573 115.5573 "/>
<path d="M231.0573 115.5573 L220.4828 115.5573 "/>
<path d="M146.7317 202.6930 L144.0881 200.0494 "/>
<path d="M175.8117 202.6930 L146.7317 202.6930 "/>
<path d="M144.0881 200.0494 L144.0881 192.1185 "/>
<path d="M144.0881 192.1185 L175.8117 192.1185 "/>
<path d="M175.8117 192.1185 L175.8117 202.6930 "/>
</g>
<g style="fill:#848484; fill-opacity:0.0;  stroke:#848484; stroke-width:0.6245; stroke-opacity:1;  stroke-linecap:round; stroke-linejoin:round;">
<path d="M40.2996 141.0569 L40.2996 162.2059 "/>
<path d="M8.5760 141.0569 L40.2996 141.0569 "/>
<path d="M40.2996 162.2059 L8.5760 162.2059 "/>
<path d="M8.5760 162.2059 L8.5760 141.0569 "/>
<g>
</g>
<g>
</g>
<g>
</g>
<g>
</g>
<g>
</g>
<g>
</g>
<g>
</g>
<g>
</g>
<g>
</g>
<g>
</g>
<g>
</g>
<g>
</g>
<g>
</g>
<g>
</g>
<g>
</g>
<g>
</g>
<g>
</g>
<g>
</g>
<g>
</g>
<g>
</g>
<g>
</g>
<g>
</g>
<g>
</g>
<g>
</g>
<g>
</g>
<g>
</g>
<g>
</g>
<g>
</g>
<g>
</g>
<g>
</g>
<g>
</g>
<g>
</g>
<g>
</g>
<g>
</g>
<g>
</g>
<g>
</g>
<g>
</g>
<g>
</g>
<g>
</g>
<g>
</g>
<g>
</g>
<g>
</g>
<g>
</g>
<g>
</g>
<g>
</g>
<g>
</g>
<g>
</g>
<g>
</g>
<g>
</g>
<g>
</g>
<g>
</g>
<g>
</g>
</g> 
<svg:g><svg:g><svg:title>SVG Image created as USBSDREADER01-Edge_Cuts.svg date 2023/09/27 06:58:05 </svg:title>
  <svg:desc>Image generated by PCBNEW </svg:desc>
<svg:g style="fill:#C2C200; fill-opacity:1.0000;stroke:#C2C200; stroke-opacity:1.0000; stroke-linecap:round; stroke-linejoin:round;" transform="translate(0 0) scale(1 1)">
</svg:g>
<svg:g style="fill:#C2C200; fill-opacity:0.0;  stroke:#C2C200; stroke-width:0.0000; stroke-opacity:1;  stroke-linecap:round; stroke-linejoin:round;">
</svg:g>
<svg:g style="fill:#C2C200; fill-opacity:0.0;  stroke:#C2C200; stroke-width:0.6245; stroke-opacity:1;  stroke-linecap:round; stroke-linejoin:round;">
<svg:path style="fill:#C2C200; fill-opacity:0.0;  stroke:#C2C200; stroke-width:0.6245; stroke-opacity:1;  stroke-linecap:round; stroke-linejoin:round;fill:none" d="M 1.5153,0.3158 295.4870,0.3158 295.4870,209.6914 1.5153,209.6914 Z"/> 
</svg:g>
<svg:g style="fill:#C2C200; fill-opacity:0.0;  stroke:#C2C200; stroke-width:0.2082; stroke-opacity:1;  stroke-linecap:round; stroke-linejoin:round;">
<svg:path d="M249.8333 20.4074 L244.0049 20.4074 "/>
<svg:path d="M242.7559 19.1585 L242.7559 12.4974 "/>
<svg:path d="M251.0823 12.4974 L251.0823 19.1585 "/>
<svg:path d="M244.0049 11.2484 L249.8333 11.2484 "/>
<svg:path d="M242.7559 19.1585 A1.2490 1.2490 0.0 0 0 244.0049 20.4074"/>
<svg:path d="M249.8333 20.4074 A1.2490 1.2490 0.0 0 0 251.0823 19.1585"/>
<svg:path d="M244.0049 11.2484 A1.2490 1.2490 0.0 0 0 242.7559 12.4974"/>
<svg:path d="M251.0823 12.4974 A1.2490 1.2490 0.0 0 0 249.8333 11.2484"/>
<svg:path d="M238.8425 20.4074 L233.0140 20.4074 "/>
<svg:path d="M231.7651 19.1585 L231.7651 12.4974 "/>
<svg:path d="M240.0914 12.4974 L240.0914 19.1585 "/>
<svg:path d="M233.0140 11.2484 L238.8425 11.2484 "/>
<svg:path d="M231.7651 19.1585 A1.2490 1.2490 0.0 0 0 233.0140 20.4074"/>
<svg:path d="M238.8425 20.4074 A1.2490 1.2490 0.0 0 0 240.0914 19.1585"/>
<svg:path d="M233.0140 11.2484 A1.2490 1.2490 0.0 0 0 231.7651 12.4974"/>
<svg:path d="M240.0914 12.4974 A1.2490 1.2490 0.0 0 0 238.8425 11.2484"/>
<svg:g>
</svg:g>
<svg:g>
</svg:g>
<svg:g>
</svg:g>
<svg:g>
</svg:g>
<svg:g>
</svg:g>
<svg:g>
</svg:g>
<svg:g>
</svg:g>
<svg:g>
</svg:g>
<svg:g>
</svg:g>
<svg:g>
</svg:g>
<svg:g>
</svg:g>
<svg:g>
</svg:g>
<svg:g>
</svg:g>
<svg:g>
</svg:g>
<svg:g>
</svg:g>
<svg:g>
</svg:g>
<svg:g>
</svg:g>
<svg:g>
</svg:g>
<svg:g>
</svg:g>
<svg:g>
</svg:g>
<svg:g>
</svg:g>
<svg:g>
</svg:g>
<svg:g>
</svg:g>
<svg:g>
</svg:g>
<svg:g>
</svg:g>
<svg:g>
</svg:g>
<svg:g>
</svg:g>
<svg:g>
</svg:g>
<svg:g>
</svg:g>
<svg:g>
</svg:g>
<svg:g>
</svg:g>
<svg:g>
</svg:g>
<svg:g>
</svg:g>
<svg:g>
</svg:g>
<svg:g>
</svg:g>
<svg:g>
</svg:g>
<svg:g>
</svg:g>
<svg:g>
</svg:g>
<svg:g>
</svg:g>
<svg:g>
</svg:g>
<svg:g>
</svg:g>
<svg:g>
</svg:g>
<svg:g>
</svg:g>
<svg:g>
</svg:g>
<svg:g>
</svg:g>
<svg:g>
</svg:g>
<svg:g>
</svg:g>
<svg:g>
</svg:g>
<svg:g>
</svg:g>
<svg:g>
</svg:g>
<svg:g>
</svg:g>
<svg:g>
</svg:g>
</svg:g> 
</svg:g></svg:g></svg>
