%TF.GenerationSoftware,KiCad,Pcbnew,7.0.7-7.0.7~ubuntu23.04.1*%
%TF.CreationDate,2023-09-27T06:57:11+00:00*%
%TF.ProjectId,USBSDREADER01,55534253-4452-4454-9144-455230312e6b,rev?*%
%TF.SameCoordinates,Original*%
%TF.FileFunction,Legend,Top*%
%TF.FilePolarity,Positive*%
%FSLAX46Y46*%
G04 Gerber Fmt 4.6, Leading zero omitted, Abs format (unit mm)*
G04 Created by KiCad (PCBNEW 7.0.7-7.0.7~ubuntu23.04.1) date 2023-09-27 06:57:11*
%MOMM*%
%LPD*%
G01*
G04 APERTURE LIST*
%ADD10C,0.150000*%
%ADD11C,0.050000*%
%ADD12C,0.120000*%
G04 APERTURE END LIST*
D10*
X42591816Y42143581D02*
X42591816Y41429296D01*
X42591816Y41429296D02*
X42544197Y41286439D01*
X42544197Y41286439D02*
X42448959Y41191200D01*
X42448959Y41191200D02*
X42306102Y41143581D01*
X42306102Y41143581D02*
X42210864Y41143581D01*
X43115626Y41143581D02*
X43306102Y41143581D01*
X43306102Y41143581D02*
X43401340Y41191200D01*
X43401340Y41191200D02*
X43448959Y41238820D01*
X43448959Y41238820D02*
X43544197Y41381677D01*
X43544197Y41381677D02*
X43591816Y41572153D01*
X43591816Y41572153D02*
X43591816Y41953105D01*
X43591816Y41953105D02*
X43544197Y42048343D01*
X43544197Y42048343D02*
X43496578Y42095962D01*
X43496578Y42095962D02*
X43401340Y42143581D01*
X43401340Y42143581D02*
X43210864Y42143581D01*
X43210864Y42143581D02*
X43115626Y42095962D01*
X43115626Y42095962D02*
X43068007Y42048343D01*
X43068007Y42048343D02*
X43020388Y41953105D01*
X43020388Y41953105D02*
X43020388Y41715010D01*
X43020388Y41715010D02*
X43068007Y41619772D01*
X43068007Y41619772D02*
X43115626Y41572153D01*
X43115626Y41572153D02*
X43210864Y41524534D01*
X43210864Y41524534D02*
X43401340Y41524534D01*
X43401340Y41524534D02*
X43496578Y41572153D01*
X43496578Y41572153D02*
X43544197Y41619772D01*
X43544197Y41619772D02*
X43591816Y41715010D01*
D11*
X13608709Y22343858D02*
X13608709Y22058144D01*
X13608709Y22201001D02*
X13108709Y22201001D01*
X13108709Y22201001D02*
X13180138Y22153382D01*
X13180138Y22153382D02*
X13227757Y22105763D01*
X13227757Y22105763D02*
X13251566Y22058144D01*
D12*
%TO.C,J7*%
X39520000Y9495000D02*
X39520000Y10825000D01*
X40850000Y9495000D02*
X39520000Y9495000D01*
X42120000Y9495000D02*
X54880000Y9495000D01*
X42120000Y9495000D02*
X42120000Y12095000D01*
X54880000Y9495000D02*
X54880000Y14695000D01*
X39520000Y12095000D02*
X39520000Y14695000D01*
X42120000Y12095000D02*
X39520000Y12095000D01*
X39520000Y14695000D02*
X54880000Y14695000D01*
D10*
%TO.C,J9*%
X33311250Y19841600D02*
X27951850Y19841600D01*
X35190850Y19867000D02*
X35813150Y19867000D01*
X37743550Y19867000D02*
X38365850Y19867000D01*
X40258150Y19867000D02*
X40905850Y19867000D01*
X45096850Y19867000D02*
X45249250Y19867000D01*
X45249250Y19867000D02*
X45960450Y19867000D01*
X47763850Y19867000D02*
X48424250Y19867000D01*
X50189550Y19867000D02*
X50926150Y19867000D01*
X42696550Y19879700D02*
X43407750Y19879700D01*
X54494850Y19879700D02*
X55879150Y19879700D01*
X56650850Y25277200D02*
X56650850Y50118400D01*
X27700850Y25315300D02*
X27700850Y43870000D01*
X27700850Y49445300D02*
X27700850Y50270800D01*
X22225850Y50270800D02*
X22225850Y55300000D01*
X27700850Y50270800D02*
X22225850Y50270800D01*
X22225850Y55300000D02*
X55175850Y55300000D01*
D12*
%TO.C,J6*%
X64830000Y6970000D02*
X63500000Y6970000D01*
X64830000Y8300000D02*
X64830000Y6970000D01*
X64830000Y9570000D02*
X64830000Y19790000D01*
X64830000Y9570000D02*
X62230000Y9570000D01*
X64830000Y19790000D02*
X59630000Y19790000D01*
X62230000Y6970000D02*
X59630000Y6970000D01*
X62230000Y9570000D02*
X62230000Y6970000D01*
X59630000Y6970000D02*
X59630000Y19790000D01*
%TO.C,J10*%
X25942500Y27875001D02*
X24612500Y27875001D01*
X25942500Y29205001D02*
X25942500Y27875001D01*
X25942500Y30475001D02*
X25942500Y33075001D01*
X25942500Y30475001D02*
X23282500Y30475001D01*
X25942500Y33075001D02*
X23282500Y33075001D01*
X23282500Y30475001D02*
X23282500Y33075001D01*
%TO.C,J2*%
X23050000Y28730001D02*
X23050000Y29730001D01*
X23050000Y29730001D02*
X22550000Y29230001D01*
X22550000Y29230001D02*
X23050000Y28730001D01*
X22350000Y24370001D02*
X18600000Y24370001D01*
X22350000Y36590001D02*
X22350000Y24370001D01*
X22350000Y36590001D02*
X18600000Y36590001D01*
X5730000Y24370001D02*
X13700000Y24370001D01*
X5730000Y36590001D02*
X13700000Y36590001D01*
X5730000Y36590001D02*
X5730000Y24370001D01*
D10*
%TO.C,J1*%
X66370000Y40960000D02*
X66370000Y46040000D01*
X73990000Y40960000D02*
X66370000Y40960000D01*
X66370000Y46040000D02*
X73990000Y46040000D01*
X73990000Y46040000D02*
X73990000Y40960000D01*
D12*
%TO.C,J3*%
X61552500Y23120001D02*
X63532500Y23120001D01*
X61552500Y23120001D02*
X61552500Y37840001D01*
X67232500Y23120001D02*
X75772500Y23120001D01*
X75772500Y23120001D02*
X75772500Y37840001D01*
X60672500Y26480001D02*
X61172500Y26980001D01*
X61172500Y26980001D02*
X60672500Y27480001D01*
X60672500Y27480001D02*
X60672500Y26480001D01*
X63532500Y37840001D02*
X61552500Y37840001D01*
X67232500Y37840001D02*
X75772500Y37840001D01*
%TO.C,J5*%
X37100000Y14695000D02*
X37100000Y13365000D01*
X35770000Y14695000D02*
X37100000Y14695000D01*
X34500000Y14695000D02*
X19200000Y14695000D01*
X34500000Y14695000D02*
X34500000Y12095000D01*
X19200000Y14695000D02*
X19200000Y9495000D01*
X37100000Y12095000D02*
X37100000Y9495000D01*
X34500000Y12095000D02*
X37100000Y12095000D01*
X37100000Y9495000D02*
X19200000Y9495000D01*
%TO.C,J11*%
X57870000Y33085001D02*
X59200000Y33085001D01*
X57870000Y31755001D02*
X57870000Y33085001D01*
X57870000Y30485001D02*
X57870000Y27885001D01*
X57870000Y30485001D02*
X60530000Y30485001D01*
X57870000Y27885001D02*
X60530000Y27885001D01*
X60530000Y30485001D02*
X60530000Y27885001D01*
%TO.C,J8*%
X39520000Y6955000D02*
X39520000Y8285000D01*
X40850000Y6955000D02*
X39520000Y6955000D01*
X42120000Y6955000D02*
X47260000Y6955000D01*
X42120000Y6955000D02*
X42120000Y9615000D01*
X47260000Y6955000D02*
X47260000Y9615000D01*
X42120000Y9615000D02*
X47260000Y9615000D01*
D10*
%TO.C,J4*%
X14650000Y21820000D02*
X14650000Y16740000D01*
X7030000Y21820000D02*
X14650000Y21820000D01*
X14650000Y16740000D02*
X7030000Y16740000D01*
X7030000Y16740000D02*
X7030000Y21820000D01*
%TD*%
M02*
