%TF.GenerationSoftware,KiCad,Pcbnew,7.0.7-7.0.7~ubuntu23.04.1*%
%TF.CreationDate,2023-09-27T06:57:11+00:00*%
%TF.ProjectId,USBSDREADER01,55534253-4452-4454-9144-455230312e6b,rev?*%
%TF.SameCoordinates,Original*%
%TF.FileFunction,Legend,Bot*%
%TF.FilePolarity,Positive*%
%FSLAX46Y46*%
G04 Gerber Fmt 4.6, Leading zero omitted, Abs format (unit mm)*
G04 Created by KiCad (PCBNEW 7.0.7-7.0.7~ubuntu23.04.1) date 2023-09-27 06:57:11*
%MOMM*%
%LPD*%
G01*
G04 APERTURE LIST*
%ADD10C,0.150000*%
%ADD11C,0.254000*%
%ADD12C,0.120000*%
%ADD13C,0.200000*%
G04 APERTURE END LIST*
D10*
X53106666Y9175181D02*
X53439999Y9651372D01*
X53678094Y9175181D02*
X53678094Y10175181D01*
X53678094Y10175181D02*
X53297142Y10175181D01*
X53297142Y10175181D02*
X53201904Y10127562D01*
X53201904Y10127562D02*
X53154285Y10079943D01*
X53154285Y10079943D02*
X53106666Y9984705D01*
X53106666Y9984705D02*
X53106666Y9841848D01*
X53106666Y9841848D02*
X53154285Y9746610D01*
X53154285Y9746610D02*
X53201904Y9698991D01*
X53201904Y9698991D02*
X53297142Y9651372D01*
X53297142Y9651372D02*
X53678094Y9651372D01*
X52249523Y9841848D02*
X52249523Y9175181D01*
X52487618Y10222800D02*
X52725713Y9508515D01*
X52725713Y9508515D02*
X52106666Y9508515D01*
X54350057Y17582739D02*
X54302438Y17677977D01*
X54302438Y17677977D02*
X54207200Y17773215D01*
X54207200Y17773215D02*
X54064342Y17916072D01*
X54064342Y17916072D02*
X54016723Y18011310D01*
X54016723Y18011310D02*
X54016723Y18106548D01*
X54254819Y18058929D02*
X54207200Y18154167D01*
X54207200Y18154167D02*
X54111961Y18249405D01*
X54111961Y18249405D02*
X53921485Y18297024D01*
X53921485Y18297024D02*
X53588152Y18297024D01*
X53588152Y18297024D02*
X53397676Y18249405D01*
X53397676Y18249405D02*
X53302438Y18154167D01*
X53302438Y18154167D02*
X53254819Y18058929D01*
X53254819Y18058929D02*
X53254819Y17868453D01*
X53254819Y17868453D02*
X53302438Y17773215D01*
X53302438Y17773215D02*
X53397676Y17677977D01*
X53397676Y17677977D02*
X53588152Y17630358D01*
X53588152Y17630358D02*
X53921485Y17630358D01*
X53921485Y17630358D02*
X54111961Y17677977D01*
X54111961Y17677977D02*
X54207200Y17773215D01*
X54207200Y17773215D02*
X54254819Y17868453D01*
X54254819Y17868453D02*
X54254819Y18058929D01*
X53350057Y17249405D02*
X53302438Y17201786D01*
X53302438Y17201786D02*
X53254819Y17106548D01*
X53254819Y17106548D02*
X53254819Y16868453D01*
X53254819Y16868453D02*
X53302438Y16773215D01*
X53302438Y16773215D02*
X53350057Y16725596D01*
X53350057Y16725596D02*
X53445295Y16677977D01*
X53445295Y16677977D02*
X53540533Y16677977D01*
X53540533Y16677977D02*
X53683390Y16725596D01*
X53683390Y16725596D02*
X54254819Y17297024D01*
X54254819Y17297024D02*
X54254819Y16677977D01*
X23404819Y24666667D02*
X22928628Y25000000D01*
X23404819Y25238095D02*
X22404819Y25238095D01*
X22404819Y25238095D02*
X22404819Y24857143D01*
X22404819Y24857143D02*
X22452438Y24761905D01*
X22452438Y24761905D02*
X22500057Y24714286D01*
X22500057Y24714286D02*
X22595295Y24666667D01*
X22595295Y24666667D02*
X22738152Y24666667D01*
X22738152Y24666667D02*
X22833390Y24714286D01*
X22833390Y24714286D02*
X22881009Y24761905D01*
X22881009Y24761905D02*
X22928628Y24857143D01*
X22928628Y24857143D02*
X22928628Y25238095D01*
X22404819Y24333333D02*
X22404819Y23714286D01*
X22404819Y23714286D02*
X22785771Y24047619D01*
X22785771Y24047619D02*
X22785771Y23904762D01*
X22785771Y23904762D02*
X22833390Y23809524D01*
X22833390Y23809524D02*
X22881009Y23761905D01*
X22881009Y23761905D02*
X22976247Y23714286D01*
X22976247Y23714286D02*
X23214342Y23714286D01*
X23214342Y23714286D02*
X23309580Y23761905D01*
X23309580Y23761905D02*
X23357200Y23809524D01*
X23357200Y23809524D02*
X23404819Y23904762D01*
X23404819Y23904762D02*
X23404819Y24190476D01*
X23404819Y24190476D02*
X23357200Y24285714D01*
X23357200Y24285714D02*
X23309580Y24333333D01*
X32666666Y33995181D02*
X32999999Y34471372D01*
X33238094Y33995181D02*
X33238094Y34995181D01*
X33238094Y34995181D02*
X32857142Y34995181D01*
X32857142Y34995181D02*
X32761904Y34947562D01*
X32761904Y34947562D02*
X32714285Y34899943D01*
X32714285Y34899943D02*
X32666666Y34804705D01*
X32666666Y34804705D02*
X32666666Y34661848D01*
X32666666Y34661848D02*
X32714285Y34566610D01*
X32714285Y34566610D02*
X32761904Y34518991D01*
X32761904Y34518991D02*
X32857142Y34471372D01*
X32857142Y34471372D02*
X33238094Y34471372D01*
X31714285Y33995181D02*
X32285713Y33995181D01*
X31999999Y33995181D02*
X31999999Y34995181D01*
X31999999Y34995181D02*
X32095237Y34852324D01*
X32095237Y34852324D02*
X32190475Y34757086D01*
X32190475Y34757086D02*
X32285713Y34709467D01*
X65679580Y42846667D02*
X65727200Y42894286D01*
X65727200Y42894286D02*
X65774819Y43037143D01*
X65774819Y43037143D02*
X65774819Y43132381D01*
X65774819Y43132381D02*
X65727200Y43275238D01*
X65727200Y43275238D02*
X65631961Y43370476D01*
X65631961Y43370476D02*
X65536723Y43418095D01*
X65536723Y43418095D02*
X65346247Y43465714D01*
X65346247Y43465714D02*
X65203390Y43465714D01*
X65203390Y43465714D02*
X65012914Y43418095D01*
X65012914Y43418095D02*
X64917676Y43370476D01*
X64917676Y43370476D02*
X64822438Y43275238D01*
X64822438Y43275238D02*
X64774819Y43132381D01*
X64774819Y43132381D02*
X64774819Y43037143D01*
X64774819Y43037143D02*
X64822438Y42894286D01*
X64822438Y42894286D02*
X64870057Y42846667D01*
X65774819Y41894286D02*
X65774819Y42465714D01*
X65774819Y42180000D02*
X64774819Y42180000D01*
X64774819Y42180000D02*
X64917676Y42275238D01*
X64917676Y42275238D02*
X65012914Y42370476D01*
X65012914Y42370476D02*
X65060533Y42465714D01*
X31116666Y38120420D02*
X31164285Y38072800D01*
X31164285Y38072800D02*
X31307142Y38025181D01*
X31307142Y38025181D02*
X31402380Y38025181D01*
X31402380Y38025181D02*
X31545237Y38072800D01*
X31545237Y38072800D02*
X31640475Y38168039D01*
X31640475Y38168039D02*
X31688094Y38263277D01*
X31688094Y38263277D02*
X31735713Y38453753D01*
X31735713Y38453753D02*
X31735713Y38596610D01*
X31735713Y38596610D02*
X31688094Y38787086D01*
X31688094Y38787086D02*
X31640475Y38882324D01*
X31640475Y38882324D02*
X31545237Y38977562D01*
X31545237Y38977562D02*
X31402380Y39025181D01*
X31402380Y39025181D02*
X31307142Y39025181D01*
X31307142Y39025181D02*
X31164285Y38977562D01*
X31164285Y38977562D02*
X31116666Y38929943D01*
X30783332Y39025181D02*
X30116666Y39025181D01*
X30116666Y39025181D02*
X30545237Y38025181D01*
X62694819Y47646667D02*
X62218628Y47980000D01*
X62694819Y48218095D02*
X61694819Y48218095D01*
X61694819Y48218095D02*
X61694819Y47837143D01*
X61694819Y47837143D02*
X61742438Y47741905D01*
X61742438Y47741905D02*
X61790057Y47694286D01*
X61790057Y47694286D02*
X61885295Y47646667D01*
X61885295Y47646667D02*
X62028152Y47646667D01*
X62028152Y47646667D02*
X62123390Y47694286D01*
X62123390Y47694286D02*
X62171009Y47741905D01*
X62171009Y47741905D02*
X62218628Y47837143D01*
X62218628Y47837143D02*
X62218628Y48218095D01*
X62694819Y47170476D02*
X62694819Y46980000D01*
X62694819Y46980000D02*
X62647200Y46884762D01*
X62647200Y46884762D02*
X62599580Y46837143D01*
X62599580Y46837143D02*
X62456723Y46741905D01*
X62456723Y46741905D02*
X62266247Y46694286D01*
X62266247Y46694286D02*
X61885295Y46694286D01*
X61885295Y46694286D02*
X61790057Y46741905D01*
X61790057Y46741905D02*
X61742438Y46789524D01*
X61742438Y46789524D02*
X61694819Y46884762D01*
X61694819Y46884762D02*
X61694819Y47075238D01*
X61694819Y47075238D02*
X61742438Y47170476D01*
X61742438Y47170476D02*
X61790057Y47218095D01*
X61790057Y47218095D02*
X61885295Y47265714D01*
X61885295Y47265714D02*
X62123390Y47265714D01*
X62123390Y47265714D02*
X62218628Y47218095D01*
X62218628Y47218095D02*
X62266247Y47170476D01*
X62266247Y47170476D02*
X62313866Y47075238D01*
X62313866Y47075238D02*
X62313866Y46884762D01*
X62313866Y46884762D02*
X62266247Y46789524D01*
X62266247Y46789524D02*
X62218628Y46741905D01*
X62218628Y46741905D02*
X62123390Y46694286D01*
X61094819Y43718095D02*
X60094819Y43718095D01*
X60094819Y43718095D02*
X60094819Y43480000D01*
X60094819Y43480000D02*
X60142438Y43337143D01*
X60142438Y43337143D02*
X60237676Y43241905D01*
X60237676Y43241905D02*
X60332914Y43194286D01*
X60332914Y43194286D02*
X60523390Y43146667D01*
X60523390Y43146667D02*
X60666247Y43146667D01*
X60666247Y43146667D02*
X60856723Y43194286D01*
X60856723Y43194286D02*
X60951961Y43241905D01*
X60951961Y43241905D02*
X61047200Y43337143D01*
X61047200Y43337143D02*
X61094819Y43480000D01*
X61094819Y43480000D02*
X61094819Y43718095D01*
X61094819Y42194286D02*
X61094819Y42765714D01*
X61094819Y42480000D02*
X60094819Y42480000D01*
X60094819Y42480000D02*
X60237676Y42575238D01*
X60237676Y42575238D02*
X60332914Y42670476D01*
X60332914Y42670476D02*
X60380533Y42765714D01*
X57850057Y17582739D02*
X57802438Y17677977D01*
X57802438Y17677977D02*
X57707200Y17773215D01*
X57707200Y17773215D02*
X57564342Y17916072D01*
X57564342Y17916072D02*
X57516723Y18011310D01*
X57516723Y18011310D02*
X57516723Y18106548D01*
X57754819Y18058929D02*
X57707200Y18154167D01*
X57707200Y18154167D02*
X57611961Y18249405D01*
X57611961Y18249405D02*
X57421485Y18297024D01*
X57421485Y18297024D02*
X57088152Y18297024D01*
X57088152Y18297024D02*
X56897676Y18249405D01*
X56897676Y18249405D02*
X56802438Y18154167D01*
X56802438Y18154167D02*
X56754819Y18058929D01*
X56754819Y18058929D02*
X56754819Y17868453D01*
X56754819Y17868453D02*
X56802438Y17773215D01*
X56802438Y17773215D02*
X56897676Y17677977D01*
X56897676Y17677977D02*
X57088152Y17630358D01*
X57088152Y17630358D02*
X57421485Y17630358D01*
X57421485Y17630358D02*
X57611961Y17677977D01*
X57611961Y17677977D02*
X57707200Y17773215D01*
X57707200Y17773215D02*
X57754819Y17868453D01*
X57754819Y17868453D02*
X57754819Y18058929D01*
X57754819Y16677977D02*
X57754819Y17249405D01*
X57754819Y16963691D02*
X56754819Y16963691D01*
X56754819Y16963691D02*
X56897676Y17058929D01*
X56897676Y17058929D02*
X56992914Y17154167D01*
X56992914Y17154167D02*
X57040533Y17249405D01*
X21850594Y52795181D02*
X21850594Y53795181D01*
X21850594Y53795181D02*
X21612499Y53795181D01*
X21612499Y53795181D02*
X21469642Y53747562D01*
X21469642Y53747562D02*
X21374404Y53652324D01*
X21374404Y53652324D02*
X21326785Y53557086D01*
X21326785Y53557086D02*
X21279166Y53366610D01*
X21279166Y53366610D02*
X21279166Y53223753D01*
X21279166Y53223753D02*
X21326785Y53033277D01*
X21326785Y53033277D02*
X21374404Y52938039D01*
X21374404Y52938039D02*
X21469642Y52842800D01*
X21469642Y52842800D02*
X21612499Y52795181D01*
X21612499Y52795181D02*
X21850594Y52795181D01*
X20898213Y53699943D02*
X20850594Y53747562D01*
X20850594Y53747562D02*
X20755356Y53795181D01*
X20755356Y53795181D02*
X20517261Y53795181D01*
X20517261Y53795181D02*
X20422023Y53747562D01*
X20422023Y53747562D02*
X20374404Y53699943D01*
X20374404Y53699943D02*
X20326785Y53604705D01*
X20326785Y53604705D02*
X20326785Y53509467D01*
X20326785Y53509467D02*
X20374404Y53366610D01*
X20374404Y53366610D02*
X20945832Y52795181D01*
X20945832Y52795181D02*
X20326785Y52795181D01*
X37379166Y37970420D02*
X37426785Y37922800D01*
X37426785Y37922800D02*
X37569642Y37875181D01*
X37569642Y37875181D02*
X37664880Y37875181D01*
X37664880Y37875181D02*
X37807737Y37922800D01*
X37807737Y37922800D02*
X37902975Y38018039D01*
X37902975Y38018039D02*
X37950594Y38113277D01*
X37950594Y38113277D02*
X37998213Y38303753D01*
X37998213Y38303753D02*
X37998213Y38446610D01*
X37998213Y38446610D02*
X37950594Y38637086D01*
X37950594Y38637086D02*
X37902975Y38732324D01*
X37902975Y38732324D02*
X37807737Y38827562D01*
X37807737Y38827562D02*
X37664880Y38875181D01*
X37664880Y38875181D02*
X37569642Y38875181D01*
X37569642Y38875181D02*
X37426785Y38827562D01*
X37426785Y38827562D02*
X37379166Y38779943D01*
X36474404Y38875181D02*
X36950594Y38875181D01*
X36950594Y38875181D02*
X36998213Y38398991D01*
X36998213Y38398991D02*
X36950594Y38446610D01*
X36950594Y38446610D02*
X36855356Y38494229D01*
X36855356Y38494229D02*
X36617261Y38494229D01*
X36617261Y38494229D02*
X36522023Y38446610D01*
X36522023Y38446610D02*
X36474404Y38398991D01*
X36474404Y38398991D02*
X36426785Y38303753D01*
X36426785Y38303753D02*
X36426785Y38065658D01*
X36426785Y38065658D02*
X36474404Y37970420D01*
X36474404Y37970420D02*
X36522023Y37922800D01*
X36522023Y37922800D02*
X36617261Y37875181D01*
X36617261Y37875181D02*
X36855356Y37875181D01*
X36855356Y37875181D02*
X36950594Y37922800D01*
X36950594Y37922800D02*
X36998213Y37970420D01*
X21239580Y21179167D02*
X21287200Y21226786D01*
X21287200Y21226786D02*
X21334819Y21369643D01*
X21334819Y21369643D02*
X21334819Y21464881D01*
X21334819Y21464881D02*
X21287200Y21607738D01*
X21287200Y21607738D02*
X21191961Y21702976D01*
X21191961Y21702976D02*
X21096723Y21750595D01*
X21096723Y21750595D02*
X20906247Y21798214D01*
X20906247Y21798214D02*
X20763390Y21798214D01*
X20763390Y21798214D02*
X20572914Y21750595D01*
X20572914Y21750595D02*
X20477676Y21702976D01*
X20477676Y21702976D02*
X20382438Y21607738D01*
X20382438Y21607738D02*
X20334819Y21464881D01*
X20334819Y21464881D02*
X20334819Y21369643D01*
X20334819Y21369643D02*
X20382438Y21226786D01*
X20382438Y21226786D02*
X20430057Y21179167D01*
X21334819Y20702976D02*
X21334819Y20512500D01*
X21334819Y20512500D02*
X21287200Y20417262D01*
X21287200Y20417262D02*
X21239580Y20369643D01*
X21239580Y20369643D02*
X21096723Y20274405D01*
X21096723Y20274405D02*
X20906247Y20226786D01*
X20906247Y20226786D02*
X20525295Y20226786D01*
X20525295Y20226786D02*
X20430057Y20274405D01*
X20430057Y20274405D02*
X20382438Y20322024D01*
X20382438Y20322024D02*
X20334819Y20417262D01*
X20334819Y20417262D02*
X20334819Y20607738D01*
X20334819Y20607738D02*
X20382438Y20702976D01*
X20382438Y20702976D02*
X20430057Y20750595D01*
X20430057Y20750595D02*
X20525295Y20798214D01*
X20525295Y20798214D02*
X20763390Y20798214D01*
X20763390Y20798214D02*
X20858628Y20750595D01*
X20858628Y20750595D02*
X20906247Y20702976D01*
X20906247Y20702976D02*
X20953866Y20607738D01*
X20953866Y20607738D02*
X20953866Y20417262D01*
X20953866Y20417262D02*
X20906247Y20322024D01*
X20906247Y20322024D02*
X20858628Y20274405D01*
X20858628Y20274405D02*
X20763390Y20226786D01*
X56619166Y9175181D02*
X56952499Y9651372D01*
X57190594Y9175181D02*
X57190594Y10175181D01*
X57190594Y10175181D02*
X56809642Y10175181D01*
X56809642Y10175181D02*
X56714404Y10127562D01*
X56714404Y10127562D02*
X56666785Y10079943D01*
X56666785Y10079943D02*
X56619166Y9984705D01*
X56619166Y9984705D02*
X56619166Y9841848D01*
X56619166Y9841848D02*
X56666785Y9746610D01*
X56666785Y9746610D02*
X56714404Y9698991D01*
X56714404Y9698991D02*
X56809642Y9651372D01*
X56809642Y9651372D02*
X57190594Y9651372D01*
X55714404Y10175181D02*
X56190594Y10175181D01*
X56190594Y10175181D02*
X56238213Y9698991D01*
X56238213Y9698991D02*
X56190594Y9746610D01*
X56190594Y9746610D02*
X56095356Y9794229D01*
X56095356Y9794229D02*
X55857261Y9794229D01*
X55857261Y9794229D02*
X55762023Y9746610D01*
X55762023Y9746610D02*
X55714404Y9698991D01*
X55714404Y9698991D02*
X55666785Y9603753D01*
X55666785Y9603753D02*
X55666785Y9365658D01*
X55666785Y9365658D02*
X55714404Y9270420D01*
X55714404Y9270420D02*
X55762023Y9222800D01*
X55762023Y9222800D02*
X55857261Y9175181D01*
X55857261Y9175181D02*
X56095356Y9175181D01*
X56095356Y9175181D02*
X56190594Y9222800D01*
X56190594Y9222800D02*
X56238213Y9270420D01*
D11*
X33959762Y33815682D02*
X33959762Y35085682D01*
X32629285Y33936635D02*
X32689761Y33876158D01*
X32689761Y33876158D02*
X32871190Y33815682D01*
X32871190Y33815682D02*
X32992142Y33815682D01*
X32992142Y33815682D02*
X33173571Y33876158D01*
X33173571Y33876158D02*
X33294523Y33997111D01*
X33294523Y33997111D02*
X33355000Y34118063D01*
X33355000Y34118063D02*
X33415476Y34359968D01*
X33415476Y34359968D02*
X33415476Y34541397D01*
X33415476Y34541397D02*
X33355000Y34783301D01*
X33355000Y34783301D02*
X33294523Y34904254D01*
X33294523Y34904254D02*
X33173571Y35025206D01*
X33173571Y35025206D02*
X32992142Y35085682D01*
X32992142Y35085682D02*
X32871190Y35085682D01*
X32871190Y35085682D02*
X32689761Y35025206D01*
X32689761Y35025206D02*
X32629285Y34964730D01*
X31419761Y33815682D02*
X32145476Y33815682D01*
X31782619Y33815682D02*
X31782619Y35085682D01*
X31782619Y35085682D02*
X31903571Y34904254D01*
X31903571Y34904254D02*
X32024523Y34783301D01*
X32024523Y34783301D02*
X32145476Y34722825D01*
D10*
X46804819Y22141667D02*
X46804819Y22617857D01*
X46804819Y22617857D02*
X45804819Y22617857D01*
X46804819Y21284524D02*
X46804819Y21855952D01*
X46804819Y21570238D02*
X45804819Y21570238D01*
X45804819Y21570238D02*
X45947676Y21665476D01*
X45947676Y21665476D02*
X46042914Y21760714D01*
X46042914Y21760714D02*
X46090533Y21855952D01*
X41092857Y20645181D02*
X41426190Y21121372D01*
X41664285Y20645181D02*
X41664285Y21645181D01*
X41664285Y21645181D02*
X41283333Y21645181D01*
X41283333Y21645181D02*
X41188095Y21597562D01*
X41188095Y21597562D02*
X41140476Y21549943D01*
X41140476Y21549943D02*
X41092857Y21454705D01*
X41092857Y21454705D02*
X41092857Y21311848D01*
X41092857Y21311848D02*
X41140476Y21216610D01*
X41140476Y21216610D02*
X41188095Y21168991D01*
X41188095Y21168991D02*
X41283333Y21121372D01*
X41283333Y21121372D02*
X41664285Y21121372D01*
X40140476Y20645181D02*
X40711904Y20645181D01*
X40426190Y20645181D02*
X40426190Y21645181D01*
X40426190Y21645181D02*
X40521428Y21502324D01*
X40521428Y21502324D02*
X40616666Y21407086D01*
X40616666Y21407086D02*
X40711904Y21359467D01*
X39807142Y21645181D02*
X39188095Y21645181D01*
X39188095Y21645181D02*
X39521428Y21264229D01*
X39521428Y21264229D02*
X39378571Y21264229D01*
X39378571Y21264229D02*
X39283333Y21216610D01*
X39283333Y21216610D02*
X39235714Y21168991D01*
X39235714Y21168991D02*
X39188095Y21073753D01*
X39188095Y21073753D02*
X39188095Y20835658D01*
X39188095Y20835658D02*
X39235714Y20740420D01*
X39235714Y20740420D02*
X39283333Y20692800D01*
X39283333Y20692800D02*
X39378571Y20645181D01*
X39378571Y20645181D02*
X39664285Y20645181D01*
X39664285Y20645181D02*
X39759523Y20692800D01*
X39759523Y20692800D02*
X39807142Y20740420D01*
X50082857Y9175181D02*
X50416190Y9651372D01*
X50654285Y9175181D02*
X50654285Y10175181D01*
X50654285Y10175181D02*
X50273333Y10175181D01*
X50273333Y10175181D02*
X50178095Y10127562D01*
X50178095Y10127562D02*
X50130476Y10079943D01*
X50130476Y10079943D02*
X50082857Y9984705D01*
X50082857Y9984705D02*
X50082857Y9841848D01*
X50082857Y9841848D02*
X50130476Y9746610D01*
X50130476Y9746610D02*
X50178095Y9698991D01*
X50178095Y9698991D02*
X50273333Y9651372D01*
X50273333Y9651372D02*
X50654285Y9651372D01*
X49130476Y9175181D02*
X49701904Y9175181D01*
X49416190Y9175181D02*
X49416190Y10175181D01*
X49416190Y10175181D02*
X49511428Y10032324D01*
X49511428Y10032324D02*
X49606666Y9937086D01*
X49606666Y9937086D02*
X49701904Y9889467D01*
X48749523Y10079943D02*
X48701904Y10127562D01*
X48701904Y10127562D02*
X48606666Y10175181D01*
X48606666Y10175181D02*
X48368571Y10175181D01*
X48368571Y10175181D02*
X48273333Y10127562D01*
X48273333Y10127562D02*
X48225714Y10079943D01*
X48225714Y10079943D02*
X48178095Y9984705D01*
X48178095Y9984705D02*
X48178095Y9889467D01*
X48178095Y9889467D02*
X48225714Y9746610D01*
X48225714Y9746610D02*
X48797142Y9175181D01*
X48797142Y9175181D02*
X48178095Y9175181D01*
X47316666Y38745181D02*
X47649999Y39221372D01*
X47888094Y38745181D02*
X47888094Y39745181D01*
X47888094Y39745181D02*
X47507142Y39745181D01*
X47507142Y39745181D02*
X47411904Y39697562D01*
X47411904Y39697562D02*
X47364285Y39649943D01*
X47364285Y39649943D02*
X47316666Y39554705D01*
X47316666Y39554705D02*
X47316666Y39411848D01*
X47316666Y39411848D02*
X47364285Y39316610D01*
X47364285Y39316610D02*
X47411904Y39268991D01*
X47411904Y39268991D02*
X47507142Y39221372D01*
X47507142Y39221372D02*
X47888094Y39221372D01*
X46983332Y39745181D02*
X46316666Y39745181D01*
X46316666Y39745181D02*
X46745237Y38745181D01*
X59961428Y38548991D02*
X60294761Y38548991D01*
X60294761Y38025181D02*
X60294761Y39025181D01*
X60294761Y39025181D02*
X59818571Y39025181D01*
X59437618Y38025181D02*
X59437618Y39025181D01*
X58961428Y38025181D02*
X58961428Y39025181D01*
X58961428Y39025181D02*
X58723333Y39025181D01*
X58723333Y39025181D02*
X58580476Y38977562D01*
X58580476Y38977562D02*
X58485238Y38882324D01*
X58485238Y38882324D02*
X58437619Y38787086D01*
X58437619Y38787086D02*
X58390000Y38596610D01*
X58390000Y38596610D02*
X58390000Y38453753D01*
X58390000Y38453753D02*
X58437619Y38263277D01*
X58437619Y38263277D02*
X58485238Y38168039D01*
X58485238Y38168039D02*
X58580476Y38072800D01*
X58580476Y38072800D02*
X58723333Y38025181D01*
X58723333Y38025181D02*
X58961428Y38025181D01*
X58009047Y38929943D02*
X57961428Y38977562D01*
X57961428Y38977562D02*
X57866190Y39025181D01*
X57866190Y39025181D02*
X57628095Y39025181D01*
X57628095Y39025181D02*
X57532857Y38977562D01*
X57532857Y38977562D02*
X57485238Y38929943D01*
X57485238Y38929943D02*
X57437619Y38834705D01*
X57437619Y38834705D02*
X57437619Y38739467D01*
X57437619Y38739467D02*
X57485238Y38596610D01*
X57485238Y38596610D02*
X58056666Y38025181D01*
X58056666Y38025181D02*
X57437619Y38025181D01*
X19139580Y21655358D02*
X19187200Y21702977D01*
X19187200Y21702977D02*
X19234819Y21845834D01*
X19234819Y21845834D02*
X19234819Y21941072D01*
X19234819Y21941072D02*
X19187200Y22083929D01*
X19187200Y22083929D02*
X19091961Y22179167D01*
X19091961Y22179167D02*
X18996723Y22226786D01*
X18996723Y22226786D02*
X18806247Y22274405D01*
X18806247Y22274405D02*
X18663390Y22274405D01*
X18663390Y22274405D02*
X18472914Y22226786D01*
X18472914Y22226786D02*
X18377676Y22179167D01*
X18377676Y22179167D02*
X18282438Y22083929D01*
X18282438Y22083929D02*
X18234819Y21941072D01*
X18234819Y21941072D02*
X18234819Y21845834D01*
X18234819Y21845834D02*
X18282438Y21702977D01*
X18282438Y21702977D02*
X18330057Y21655358D01*
X19234819Y20702977D02*
X19234819Y21274405D01*
X19234819Y20988691D02*
X18234819Y20988691D01*
X18234819Y20988691D02*
X18377676Y21083929D01*
X18377676Y21083929D02*
X18472914Y21179167D01*
X18472914Y21179167D02*
X18520533Y21274405D01*
X18234819Y20083929D02*
X18234819Y19988691D01*
X18234819Y19988691D02*
X18282438Y19893453D01*
X18282438Y19893453D02*
X18330057Y19845834D01*
X18330057Y19845834D02*
X18425295Y19798215D01*
X18425295Y19798215D02*
X18615771Y19750596D01*
X18615771Y19750596D02*
X18853866Y19750596D01*
X18853866Y19750596D02*
X19044342Y19798215D01*
X19044342Y19798215D02*
X19139580Y19845834D01*
X19139580Y19845834D02*
X19187200Y19893453D01*
X19187200Y19893453D02*
X19234819Y19988691D01*
X19234819Y19988691D02*
X19234819Y20083929D01*
X19234819Y20083929D02*
X19187200Y20179167D01*
X19187200Y20179167D02*
X19139580Y20226786D01*
X19139580Y20226786D02*
X19044342Y20274405D01*
X19044342Y20274405D02*
X18853866Y20322024D01*
X18853866Y20322024D02*
X18615771Y20322024D01*
X18615771Y20322024D02*
X18425295Y20274405D01*
X18425295Y20274405D02*
X18330057Y20226786D01*
X18330057Y20226786D02*
X18282438Y20179167D01*
X18282438Y20179167D02*
X18234819Y20083929D01*
X19171428Y8668991D02*
X19504761Y8668991D01*
X19504761Y8145181D02*
X19504761Y9145181D01*
X19504761Y9145181D02*
X19028571Y9145181D01*
X18647618Y8145181D02*
X18647618Y9145181D01*
X18171428Y8145181D02*
X18171428Y9145181D01*
X18171428Y9145181D02*
X17933333Y9145181D01*
X17933333Y9145181D02*
X17790476Y9097562D01*
X17790476Y9097562D02*
X17695238Y9002324D01*
X17695238Y9002324D02*
X17647619Y8907086D01*
X17647619Y8907086D02*
X17600000Y8716610D01*
X17600000Y8716610D02*
X17600000Y8573753D01*
X17600000Y8573753D02*
X17647619Y8383277D01*
X17647619Y8383277D02*
X17695238Y8288039D01*
X17695238Y8288039D02*
X17790476Y8192800D01*
X17790476Y8192800D02*
X17933333Y8145181D01*
X17933333Y8145181D02*
X18171428Y8145181D01*
X16647619Y8145181D02*
X17219047Y8145181D01*
X16933333Y8145181D02*
X16933333Y9145181D01*
X16933333Y9145181D02*
X17028571Y9002324D01*
X17028571Y9002324D02*
X17123809Y8907086D01*
X17123809Y8907086D02*
X17219047Y8859467D01*
X56354819Y22067858D02*
X55878628Y22401191D01*
X56354819Y22639286D02*
X55354819Y22639286D01*
X55354819Y22639286D02*
X55354819Y22258334D01*
X55354819Y22258334D02*
X55402438Y22163096D01*
X55402438Y22163096D02*
X55450057Y22115477D01*
X55450057Y22115477D02*
X55545295Y22067858D01*
X55545295Y22067858D02*
X55688152Y22067858D01*
X55688152Y22067858D02*
X55783390Y22115477D01*
X55783390Y22115477D02*
X55831009Y22163096D01*
X55831009Y22163096D02*
X55878628Y22258334D01*
X55878628Y22258334D02*
X55878628Y22639286D01*
X56354819Y21115477D02*
X56354819Y21686905D01*
X56354819Y21401191D02*
X55354819Y21401191D01*
X55354819Y21401191D02*
X55497676Y21496429D01*
X55497676Y21496429D02*
X55592914Y21591667D01*
X55592914Y21591667D02*
X55640533Y21686905D01*
X56354819Y20163096D02*
X56354819Y20734524D01*
X56354819Y20448810D02*
X55354819Y20448810D01*
X55354819Y20448810D02*
X55497676Y20544048D01*
X55497676Y20544048D02*
X55592914Y20639286D01*
X55592914Y20639286D02*
X55640533Y20734524D01*
X63679580Y42896667D02*
X63727200Y42944286D01*
X63727200Y42944286D02*
X63774819Y43087143D01*
X63774819Y43087143D02*
X63774819Y43182381D01*
X63774819Y43182381D02*
X63727200Y43325238D01*
X63727200Y43325238D02*
X63631961Y43420476D01*
X63631961Y43420476D02*
X63536723Y43468095D01*
X63536723Y43468095D02*
X63346247Y43515714D01*
X63346247Y43515714D02*
X63203390Y43515714D01*
X63203390Y43515714D02*
X63012914Y43468095D01*
X63012914Y43468095D02*
X62917676Y43420476D01*
X62917676Y43420476D02*
X62822438Y43325238D01*
X62822438Y43325238D02*
X62774819Y43182381D01*
X62774819Y43182381D02*
X62774819Y43087143D01*
X62774819Y43087143D02*
X62822438Y42944286D01*
X62822438Y42944286D02*
X62870057Y42896667D01*
X62870057Y42515714D02*
X62822438Y42468095D01*
X62822438Y42468095D02*
X62774819Y42372857D01*
X62774819Y42372857D02*
X62774819Y42134762D01*
X62774819Y42134762D02*
X62822438Y42039524D01*
X62822438Y42039524D02*
X62870057Y41991905D01*
X62870057Y41991905D02*
X62965295Y41944286D01*
X62965295Y41944286D02*
X63060533Y41944286D01*
X63060533Y41944286D02*
X63203390Y41991905D01*
X63203390Y41991905D02*
X63774819Y42563333D01*
X63774819Y42563333D02*
X63774819Y41944286D01*
X41029166Y34610420D02*
X41076785Y34562800D01*
X41076785Y34562800D02*
X41219642Y34515181D01*
X41219642Y34515181D02*
X41314880Y34515181D01*
X41314880Y34515181D02*
X41457737Y34562800D01*
X41457737Y34562800D02*
X41552975Y34658039D01*
X41552975Y34658039D02*
X41600594Y34753277D01*
X41600594Y34753277D02*
X41648213Y34943753D01*
X41648213Y34943753D02*
X41648213Y35086610D01*
X41648213Y35086610D02*
X41600594Y35277086D01*
X41600594Y35277086D02*
X41552975Y35372324D01*
X41552975Y35372324D02*
X41457737Y35467562D01*
X41457737Y35467562D02*
X41314880Y35515181D01*
X41314880Y35515181D02*
X41219642Y35515181D01*
X41219642Y35515181D02*
X41076785Y35467562D01*
X41076785Y35467562D02*
X41029166Y35419943D01*
X40695832Y35515181D02*
X40076785Y35515181D01*
X40076785Y35515181D02*
X40410118Y35134229D01*
X40410118Y35134229D02*
X40267261Y35134229D01*
X40267261Y35134229D02*
X40172023Y35086610D01*
X40172023Y35086610D02*
X40124404Y35038991D01*
X40124404Y35038991D02*
X40076785Y34943753D01*
X40076785Y34943753D02*
X40076785Y34705658D01*
X40076785Y34705658D02*
X40124404Y34610420D01*
X40124404Y34610420D02*
X40172023Y34562800D01*
X40172023Y34562800D02*
X40267261Y34515181D01*
X40267261Y34515181D02*
X40552975Y34515181D01*
X40552975Y34515181D02*
X40648213Y34562800D01*
X40648213Y34562800D02*
X40695832Y34610420D01*
X54054819Y22055358D02*
X53578628Y22388691D01*
X54054819Y22626786D02*
X53054819Y22626786D01*
X53054819Y22626786D02*
X53054819Y22245834D01*
X53054819Y22245834D02*
X53102438Y22150596D01*
X53102438Y22150596D02*
X53150057Y22102977D01*
X53150057Y22102977D02*
X53245295Y22055358D01*
X53245295Y22055358D02*
X53388152Y22055358D01*
X53388152Y22055358D02*
X53483390Y22102977D01*
X53483390Y22102977D02*
X53531009Y22150596D01*
X53531009Y22150596D02*
X53578628Y22245834D01*
X53578628Y22245834D02*
X53578628Y22626786D01*
X54054819Y21102977D02*
X54054819Y21674405D01*
X54054819Y21388691D02*
X53054819Y21388691D01*
X53054819Y21388691D02*
X53197676Y21483929D01*
X53197676Y21483929D02*
X53292914Y21579167D01*
X53292914Y21579167D02*
X53340533Y21674405D01*
X53054819Y20483929D02*
X53054819Y20388691D01*
X53054819Y20388691D02*
X53102438Y20293453D01*
X53102438Y20293453D02*
X53150057Y20245834D01*
X53150057Y20245834D02*
X53245295Y20198215D01*
X53245295Y20198215D02*
X53435771Y20150596D01*
X53435771Y20150596D02*
X53673866Y20150596D01*
X53673866Y20150596D02*
X53864342Y20198215D01*
X53864342Y20198215D02*
X53959580Y20245834D01*
X53959580Y20245834D02*
X54007200Y20293453D01*
X54007200Y20293453D02*
X54054819Y20388691D01*
X54054819Y20388691D02*
X54054819Y20483929D01*
X54054819Y20483929D02*
X54007200Y20579167D01*
X54007200Y20579167D02*
X53959580Y20626786D01*
X53959580Y20626786D02*
X53864342Y20674405D01*
X53864342Y20674405D02*
X53673866Y20722024D01*
X53673866Y20722024D02*
X53435771Y20722024D01*
X53435771Y20722024D02*
X53245295Y20674405D01*
X53245295Y20674405D02*
X53150057Y20626786D01*
X53150057Y20626786D02*
X53102438Y20579167D01*
X53102438Y20579167D02*
X53054819Y20483929D01*
X23404819Y21179167D02*
X22928628Y21512500D01*
X23404819Y21750595D02*
X22404819Y21750595D01*
X22404819Y21750595D02*
X22404819Y21369643D01*
X22404819Y21369643D02*
X22452438Y21274405D01*
X22452438Y21274405D02*
X22500057Y21226786D01*
X22500057Y21226786D02*
X22595295Y21179167D01*
X22595295Y21179167D02*
X22738152Y21179167D01*
X22738152Y21179167D02*
X22833390Y21226786D01*
X22833390Y21226786D02*
X22881009Y21274405D01*
X22881009Y21274405D02*
X22928628Y21369643D01*
X22928628Y21369643D02*
X22928628Y21750595D01*
X22500057Y20798214D02*
X22452438Y20750595D01*
X22452438Y20750595D02*
X22404819Y20655357D01*
X22404819Y20655357D02*
X22404819Y20417262D01*
X22404819Y20417262D02*
X22452438Y20322024D01*
X22452438Y20322024D02*
X22500057Y20274405D01*
X22500057Y20274405D02*
X22595295Y20226786D01*
X22595295Y20226786D02*
X22690533Y20226786D01*
X22690533Y20226786D02*
X22833390Y20274405D01*
X22833390Y20274405D02*
X23404819Y20845833D01*
X23404819Y20845833D02*
X23404819Y20226786D01*
X48481802Y30097401D02*
X48549146Y30097401D01*
X48549146Y30097401D02*
X48683833Y30164745D01*
X48683833Y30164745D02*
X48751176Y30232088D01*
X48751176Y30232088D02*
X48818520Y30366775D01*
X48818520Y30366775D02*
X48818520Y30501462D01*
X48818520Y30501462D02*
X48784848Y30602477D01*
X48784848Y30602477D02*
X48683833Y30770836D01*
X48683833Y30770836D02*
X48582818Y30871851D01*
X48582818Y30871851D02*
X48414459Y30972867D01*
X48414459Y30972867D02*
X48313444Y31006538D01*
X48313444Y31006538D02*
X48178757Y31006538D01*
X48178757Y31006538D02*
X48044070Y30939195D01*
X48044070Y30939195D02*
X47976726Y30871851D01*
X47976726Y30871851D02*
X47909383Y30737164D01*
X47909383Y30737164D02*
X47909383Y30669821D01*
X47235948Y30131073D02*
X47370635Y30265760D01*
X47370635Y30265760D02*
X47471650Y30299432D01*
X47471650Y30299432D02*
X47538993Y30299432D01*
X47538993Y30299432D02*
X47707352Y30265760D01*
X47707352Y30265760D02*
X47875711Y30164745D01*
X47875711Y30164745D02*
X48145085Y29895371D01*
X48145085Y29895371D02*
X48178757Y29794355D01*
X48178757Y29794355D02*
X48178757Y29727012D01*
X48178757Y29727012D02*
X48145085Y29625997D01*
X48145085Y29625997D02*
X48010398Y29491310D01*
X48010398Y29491310D02*
X47909383Y29457638D01*
X47909383Y29457638D02*
X47842039Y29457638D01*
X47842039Y29457638D02*
X47741024Y29491310D01*
X47741024Y29491310D02*
X47572665Y29659668D01*
X47572665Y29659668D02*
X47538993Y29760684D01*
X47538993Y29760684D02*
X47538993Y29828027D01*
X47538993Y29828027D02*
X47572665Y29929042D01*
X47572665Y29929042D02*
X47707352Y30063729D01*
X47707352Y30063729D02*
X47808367Y30097401D01*
X47808367Y30097401D02*
X47875711Y30097401D01*
X47875711Y30097401D02*
X47976726Y30063729D01*
X43366666Y18320420D02*
X43414285Y18272800D01*
X43414285Y18272800D02*
X43557142Y18225181D01*
X43557142Y18225181D02*
X43652380Y18225181D01*
X43652380Y18225181D02*
X43795237Y18272800D01*
X43795237Y18272800D02*
X43890475Y18368039D01*
X43890475Y18368039D02*
X43938094Y18463277D01*
X43938094Y18463277D02*
X43985713Y18653753D01*
X43985713Y18653753D02*
X43985713Y18796610D01*
X43985713Y18796610D02*
X43938094Y18987086D01*
X43938094Y18987086D02*
X43890475Y19082324D01*
X43890475Y19082324D02*
X43795237Y19177562D01*
X43795237Y19177562D02*
X43652380Y19225181D01*
X43652380Y19225181D02*
X43557142Y19225181D01*
X43557142Y19225181D02*
X43414285Y19177562D01*
X43414285Y19177562D02*
X43366666Y19129943D01*
X42795237Y18796610D02*
X42890475Y18844229D01*
X42890475Y18844229D02*
X42938094Y18891848D01*
X42938094Y18891848D02*
X42985713Y18987086D01*
X42985713Y18987086D02*
X42985713Y19034705D01*
X42985713Y19034705D02*
X42938094Y19129943D01*
X42938094Y19129943D02*
X42890475Y19177562D01*
X42890475Y19177562D02*
X42795237Y19225181D01*
X42795237Y19225181D02*
X42604761Y19225181D01*
X42604761Y19225181D02*
X42509523Y19177562D01*
X42509523Y19177562D02*
X42461904Y19129943D01*
X42461904Y19129943D02*
X42414285Y19034705D01*
X42414285Y19034705D02*
X42414285Y18987086D01*
X42414285Y18987086D02*
X42461904Y18891848D01*
X42461904Y18891848D02*
X42509523Y18844229D01*
X42509523Y18844229D02*
X42604761Y18796610D01*
X42604761Y18796610D02*
X42795237Y18796610D01*
X42795237Y18796610D02*
X42890475Y18748991D01*
X42890475Y18748991D02*
X42938094Y18701372D01*
X42938094Y18701372D02*
X42985713Y18606134D01*
X42985713Y18606134D02*
X42985713Y18415658D01*
X42985713Y18415658D02*
X42938094Y18320420D01*
X42938094Y18320420D02*
X42890475Y18272800D01*
X42890475Y18272800D02*
X42795237Y18225181D01*
X42795237Y18225181D02*
X42604761Y18225181D01*
X42604761Y18225181D02*
X42509523Y18272800D01*
X42509523Y18272800D02*
X42461904Y18320420D01*
X42461904Y18320420D02*
X42414285Y18415658D01*
X42414285Y18415658D02*
X42414285Y18606134D01*
X42414285Y18606134D02*
X42461904Y18701372D01*
X42461904Y18701372D02*
X42509523Y18748991D01*
X42509523Y18748991D02*
X42604761Y18796610D01*
X60694819Y47646667D02*
X60218628Y47980000D01*
X60694819Y48218095D02*
X59694819Y48218095D01*
X59694819Y48218095D02*
X59694819Y47837143D01*
X59694819Y47837143D02*
X59742438Y47741905D01*
X59742438Y47741905D02*
X59790057Y47694286D01*
X59790057Y47694286D02*
X59885295Y47646667D01*
X59885295Y47646667D02*
X60028152Y47646667D01*
X60028152Y47646667D02*
X60123390Y47694286D01*
X60123390Y47694286D02*
X60171009Y47741905D01*
X60171009Y47741905D02*
X60218628Y47837143D01*
X60218628Y47837143D02*
X60218628Y48218095D01*
X60123390Y47075238D02*
X60075771Y47170476D01*
X60075771Y47170476D02*
X60028152Y47218095D01*
X60028152Y47218095D02*
X59932914Y47265714D01*
X59932914Y47265714D02*
X59885295Y47265714D01*
X59885295Y47265714D02*
X59790057Y47218095D01*
X59790057Y47218095D02*
X59742438Y47170476D01*
X59742438Y47170476D02*
X59694819Y47075238D01*
X59694819Y47075238D02*
X59694819Y46884762D01*
X59694819Y46884762D02*
X59742438Y46789524D01*
X59742438Y46789524D02*
X59790057Y46741905D01*
X59790057Y46741905D02*
X59885295Y46694286D01*
X59885295Y46694286D02*
X59932914Y46694286D01*
X59932914Y46694286D02*
X60028152Y46741905D01*
X60028152Y46741905D02*
X60075771Y46789524D01*
X60075771Y46789524D02*
X60123390Y46884762D01*
X60123390Y46884762D02*
X60123390Y47075238D01*
X60123390Y47075238D02*
X60171009Y47170476D01*
X60171009Y47170476D02*
X60218628Y47218095D01*
X60218628Y47218095D02*
X60313866Y47265714D01*
X60313866Y47265714D02*
X60504342Y47265714D01*
X60504342Y47265714D02*
X60599580Y47218095D01*
X60599580Y47218095D02*
X60647200Y47170476D01*
X60647200Y47170476D02*
X60694819Y47075238D01*
X60694819Y47075238D02*
X60694819Y46884762D01*
X60694819Y46884762D02*
X60647200Y46789524D01*
X60647200Y46789524D02*
X60599580Y46741905D01*
X60599580Y46741905D02*
X60504342Y46694286D01*
X60504342Y46694286D02*
X60313866Y46694286D01*
X60313866Y46694286D02*
X60218628Y46741905D01*
X60218628Y46741905D02*
X60171009Y46789524D01*
X60171009Y46789524D02*
X60123390Y46884762D01*
X41474404Y25195181D02*
X41474404Y24385658D01*
X41474404Y24385658D02*
X41426785Y24290420D01*
X41426785Y24290420D02*
X41379166Y24242800D01*
X41379166Y24242800D02*
X41283928Y24195181D01*
X41283928Y24195181D02*
X41093452Y24195181D01*
X41093452Y24195181D02*
X40998214Y24242800D01*
X40998214Y24242800D02*
X40950595Y24290420D01*
X40950595Y24290420D02*
X40902976Y24385658D01*
X40902976Y24385658D02*
X40902976Y25195181D01*
X39902976Y24195181D02*
X40474404Y24195181D01*
X40188690Y24195181D02*
X40188690Y25195181D01*
X40188690Y25195181D02*
X40283928Y25052324D01*
X40283928Y25052324D02*
X40379166Y24957086D01*
X40379166Y24957086D02*
X40474404Y24909467D01*
X47304166Y40045181D02*
X47637499Y40521372D01*
X47875594Y40045181D02*
X47875594Y41045181D01*
X47875594Y41045181D02*
X47494642Y41045181D01*
X47494642Y41045181D02*
X47399404Y40997562D01*
X47399404Y40997562D02*
X47351785Y40949943D01*
X47351785Y40949943D02*
X47304166Y40854705D01*
X47304166Y40854705D02*
X47304166Y40711848D01*
X47304166Y40711848D02*
X47351785Y40616610D01*
X47351785Y40616610D02*
X47399404Y40568991D01*
X47399404Y40568991D02*
X47494642Y40521372D01*
X47494642Y40521372D02*
X47875594Y40521372D01*
X46447023Y41045181D02*
X46637499Y41045181D01*
X46637499Y41045181D02*
X46732737Y40997562D01*
X46732737Y40997562D02*
X46780356Y40949943D01*
X46780356Y40949943D02*
X46875594Y40807086D01*
X46875594Y40807086D02*
X46923213Y40616610D01*
X46923213Y40616610D02*
X46923213Y40235658D01*
X46923213Y40235658D02*
X46875594Y40140420D01*
X46875594Y40140420D02*
X46827975Y40092800D01*
X46827975Y40092800D02*
X46732737Y40045181D01*
X46732737Y40045181D02*
X46542261Y40045181D01*
X46542261Y40045181D02*
X46447023Y40092800D01*
X46447023Y40092800D02*
X46399404Y40140420D01*
X46399404Y40140420D02*
X46351785Y40235658D01*
X46351785Y40235658D02*
X46351785Y40473753D01*
X46351785Y40473753D02*
X46399404Y40568991D01*
X46399404Y40568991D02*
X46447023Y40616610D01*
X46447023Y40616610D02*
X46542261Y40664229D01*
X46542261Y40664229D02*
X46732737Y40664229D01*
X46732737Y40664229D02*
X46827975Y40616610D01*
X46827975Y40616610D02*
X46875594Y40568991D01*
X46875594Y40568991D02*
X46923213Y40473753D01*
X53829166Y36610420D02*
X53876785Y36562800D01*
X53876785Y36562800D02*
X54019642Y36515181D01*
X54019642Y36515181D02*
X54114880Y36515181D01*
X54114880Y36515181D02*
X54257737Y36562800D01*
X54257737Y36562800D02*
X54352975Y36658039D01*
X54352975Y36658039D02*
X54400594Y36753277D01*
X54400594Y36753277D02*
X54448213Y36943753D01*
X54448213Y36943753D02*
X54448213Y37086610D01*
X54448213Y37086610D02*
X54400594Y37277086D01*
X54400594Y37277086D02*
X54352975Y37372324D01*
X54352975Y37372324D02*
X54257737Y37467562D01*
X54257737Y37467562D02*
X54114880Y37515181D01*
X54114880Y37515181D02*
X54019642Y37515181D01*
X54019642Y37515181D02*
X53876785Y37467562D01*
X53876785Y37467562D02*
X53829166Y37419943D01*
X52972023Y37181848D02*
X52972023Y36515181D01*
X53210118Y37562800D02*
X53448213Y36848515D01*
X53448213Y36848515D02*
X52829166Y36848515D01*
D12*
%TO.C,R4*%
X53167064Y7245000D02*
X52712936Y7245000D01*
X53167064Y8715000D02*
X52712936Y8715000D01*
%TO.C,Q2*%
X49840000Y17487500D02*
X49840000Y16687500D01*
X49840000Y17487500D02*
X49840000Y18287500D01*
X52960000Y17487500D02*
X52960000Y15687500D01*
X52960000Y17487500D02*
X52960000Y18287500D01*
%TO.C,R3*%
X20565000Y24272936D02*
X20565000Y24727064D01*
X22035000Y24272936D02*
X22035000Y24727064D01*
%TO.C,R1*%
X32727064Y32065000D02*
X32272936Y32065000D01*
X32727064Y33535000D02*
X32272936Y33535000D01*
%TO.C,C1*%
X62905000Y42418748D02*
X62905000Y42941252D01*
X64375000Y42418748D02*
X64375000Y42941252D01*
%TO.C,C7*%
X31211252Y36065000D02*
X30688748Y36065000D01*
X31211252Y37535000D02*
X30688748Y37535000D01*
%TO.C,R9*%
X64625000Y47707064D02*
X64625000Y47252936D01*
X63155000Y47707064D02*
X63155000Y47252936D01*
%TO.C,D1*%
X56490000Y39580000D02*
X56490000Y44980000D01*
X59790000Y39580000D02*
X56490000Y39580000D01*
X59790000Y39580000D02*
X59790000Y44980000D01*
%TO.C,Q1*%
X53340000Y17487500D02*
X53340000Y16687500D01*
X53340000Y17487500D02*
X53340000Y18287500D01*
X56460000Y17487500D02*
X56460000Y15687500D01*
X56460000Y17487500D02*
X56460000Y18287500D01*
%TO.C,D2*%
X24622500Y49100000D02*
X19112500Y49100000D01*
X24622500Y52400000D02*
X24622500Y49100000D01*
X24622500Y52400000D02*
X19112500Y52400000D01*
%TO.C,C5*%
X37473752Y35915000D02*
X36951248Y35915000D01*
X37473752Y37385000D02*
X36951248Y37385000D01*
%TO.C,C9*%
X18465000Y20751248D02*
X18465000Y21273752D01*
X19935000Y20751248D02*
X19935000Y21273752D01*
%TO.C,R5*%
X56679564Y7245000D02*
X56225436Y7245000D01*
X56679564Y8715000D02*
X56225436Y8715000D01*
D13*
%TO.C,IC1*%
X40775000Y34250000D02*
G75*
G03*
X40775000Y34250000I-100000J0D01*
G01*
D12*
%TO.C,L1*%
X43190000Y21713748D02*
X43190000Y22236252D01*
X45410000Y21713748D02*
X45410000Y22236252D01*
%TO.C,R13*%
X40677064Y18715000D02*
X40222936Y18715000D01*
X40677064Y20185000D02*
X40222936Y20185000D01*
%TO.C,R12*%
X49667064Y7245000D02*
X49212936Y7245000D01*
X49667064Y8715000D02*
X49212936Y8715000D01*
%TO.C,R7*%
X46922936Y41585000D02*
X47377064Y41585000D01*
X46922936Y40115000D02*
X47377064Y40115000D01*
%TO.C,C10*%
X16365000Y20751248D02*
X16365000Y21273752D01*
X17835000Y20751248D02*
X17835000Y21273752D01*
%TO.C,R11*%
X53515000Y21197936D02*
X53515000Y21652064D01*
X54985000Y21197936D02*
X54985000Y21652064D01*
%TO.C,C2*%
X60905000Y42468748D02*
X60905000Y42991252D01*
X62375000Y42468748D02*
X62375000Y42991252D01*
%TO.C,C3*%
X40601248Y37385000D02*
X41123752Y37385000D01*
X40601248Y35915000D02*
X41123752Y35915000D01*
%TO.C,R10*%
X51215000Y21185436D02*
X51215000Y21639564D01*
X52685000Y21185436D02*
X52685000Y21639564D01*
%TO.C,R2*%
X20565000Y20785436D02*
X20565000Y21239564D01*
X22035000Y20785436D02*
X22035000Y21239564D01*
%TO.C,C6*%
X46217294Y31756741D02*
X46586761Y32126208D01*
X47256741Y30717294D02*
X47626208Y31086761D01*
%TO.C,C8*%
X43461252Y16265000D02*
X42938748Y16265000D01*
X43461252Y17735000D02*
X42938748Y17735000D01*
%TO.C,R8*%
X62625000Y47707064D02*
X62625000Y47252936D01*
X61155000Y47707064D02*
X61155000Y47252936D01*
%TO.C,U1*%
X40712500Y20690000D02*
X41512500Y20690000D01*
X40712500Y20690000D02*
X39912500Y20690000D01*
X40712500Y23810000D02*
X42512500Y23810000D01*
X40712500Y23810000D02*
X39912500Y23810000D01*
%TO.C,R6*%
X47364564Y38115000D02*
X46910436Y38115000D01*
X47364564Y39585000D02*
X46910436Y39585000D01*
%TO.C,C4*%
X53401248Y39385000D02*
X53923752Y39385000D01*
X53401248Y37915000D02*
X53923752Y37915000D01*
%TD*%
M02*
