%TF.GenerationSoftware,KiCad,Pcbnew,7.0.7-7.0.7~ubuntu23.04.1*%
%TF.CreationDate,2023-09-27T06:57:11+00:00*%
%TF.ProjectId,USBSDREADER01,55534253-4452-4454-9144-455230312e6b,rev?*%
%TF.SameCoordinates,Original*%
%TF.FileFunction,Copper,L1,Top*%
%TF.FilePolarity,Positive*%
%FSLAX46Y46*%
G04 Gerber Fmt 4.6, Leading zero omitted, Abs format (unit mm)*
G04 Created by KiCad (PCBNEW 7.0.7-7.0.7~ubuntu23.04.1) date 2023-09-27 06:57:11*
%MOMM*%
%LPD*%
G01*
G04 APERTURE LIST*
%TA.AperFunction,ComponentPad*%
%ADD10C,6.000000*%
%TD*%
%TA.AperFunction,ComponentPad*%
%ADD11R,1.700000X1.700000*%
%TD*%
%TA.AperFunction,ComponentPad*%
%ADD12O,1.700000X1.700000*%
%TD*%
%TA.AperFunction,SMDPad,CuDef*%
%ADD13R,1.200000X1.600000*%
%TD*%
%TA.AperFunction,SMDPad,CuDef*%
%ADD14R,2.500000X5.000000*%
%TD*%
%TA.AperFunction,ComponentPad*%
%ADD15R,1.600000X1.600000*%
%TD*%
%TA.AperFunction,ComponentPad*%
%ADD16C,1.600000*%
%TD*%
%TA.AperFunction,ComponentPad*%
%ADD17C,4.000000*%
%TD*%
%TA.AperFunction,ComponentPad*%
%ADD18R,1.524000X1.524000*%
%TD*%
%TA.AperFunction,ComponentPad*%
%ADD19C,1.524000*%
%TD*%
%TA.AperFunction,ComponentPad*%
%ADD20C,3.500000*%
%TD*%
%TA.AperFunction,ViaPad*%
%ADD21C,0.800000*%
%TD*%
%TA.AperFunction,Conductor*%
%ADD22C,0.400000*%
%TD*%
%TA.AperFunction,Conductor*%
%ADD23C,0.300000*%
%TD*%
%TA.AperFunction,Conductor*%
%ADD24C,0.200000*%
%TD*%
%TA.AperFunction,Conductor*%
%ADD25C,1.000000*%
%TD*%
G04 APERTURE END LIST*
D10*
%TO.P,M2,1*%
%TO.N,GND*%
X71120000Y50800000D03*
%TD*%
D11*
%TO.P,J7,1*%
%TO.N,/SDP*%
X40850000Y10825000D03*
D12*
%TO.P,J7,2*%
X40850000Y13365000D03*
%TO.P,J7,3*%
%TO.N,/#RST*%
X43390000Y10825000D03*
%TO.P,J7,4*%
X43390000Y13365000D03*
%TO.P,J7,5*%
%TO.N,/mode*%
X45930000Y10825000D03*
%TO.P,J7,6*%
X45930000Y13365000D03*
%TO.P,J7,7*%
%TO.N,/i2c*%
X48470000Y10825000D03*
%TO.P,J7,8*%
X48470000Y13365000D03*
%TO.P,J7,9*%
%TO.N,Net-(Q2-C)*%
X51010000Y10825000D03*
%TO.P,J7,10*%
X51010000Y13365000D03*
%TO.P,J7,11*%
%TO.N,Net-(Q1-C)*%
X53550000Y10825000D03*
%TO.P,J7,12*%
X53550000Y13365000D03*
%TD*%
D10*
%TO.P,M4,1*%
%TO.N,GND*%
X71120000Y10160000D03*
%TD*%
D13*
%TO.P,J9,1,CD/DAT3*%
%TO.N,Net-(IC1-CDAT1_3)*%
X36785850Y19100000D03*
%TO.P,J9,2,CMD*%
%TO.N,/CCMD*%
X39285850Y19100000D03*
%TO.P,J9,3,VSS*%
%TO.N,GND*%
X41785850Y19100000D03*
%TO.P,J9,4,VDD*%
%TO.N,/VSD*%
X44285850Y19100000D03*
%TO.P,J9,5,CLK*%
%TO.N,/CCLK*%
X46785850Y19100000D03*
%TO.P,J9,6,VSS*%
%TO.N,GND*%
X49285850Y19100000D03*
%TO.P,J9,7,DAT0*%
%TO.N,Net-(IC1-CDAT1_0)*%
X51715850Y19100000D03*
%TO.P,J9,8,DAT1*%
%TO.N,Net-(IC1-CDAT1_1)*%
X53515850Y19100000D03*
%TO.P,J9,9,DAT2*%
%TO.N,Net-(IC1-CDAT1_2)*%
X34285850Y19100000D03*
D14*
%TO.P,J9,12,SHELL1*%
%TO.N,unconnected-(J9-SHELL1-Pad12)*%
X26950850Y22600000D03*
X57400850Y22600000D03*
X26950850Y46800000D03*
X57400850Y52800000D03*
%TD*%
D11*
%TO.P,J6,1*%
%TO.N,GND*%
X63500000Y8300000D03*
D12*
%TO.P,J6,2*%
X60960000Y8300000D03*
%TO.P,J6,3*%
%TO.N,/SDA*%
X63500000Y10840000D03*
%TO.P,J6,4*%
X60960000Y10840000D03*
%TO.P,J6,5*%
%TO.N,VCC*%
X63500000Y13380000D03*
%TO.P,J6,6*%
X60960000Y13380000D03*
%TO.P,J6,7*%
%TO.N,/SCL*%
X63500000Y15920000D03*
%TO.P,J6,8*%
X60960000Y15920000D03*
%TO.P,J6,9*%
%TO.N,GND*%
X63500000Y18460000D03*
%TO.P,J6,10*%
X60960000Y18460000D03*
%TD*%
D11*
%TO.P,J10,1*%
%TO.N,/USB_IN_D-*%
X24612500Y29205001D03*
D12*
%TO.P,J10,2*%
%TO.N,/USB_IN_D+*%
X24612500Y31745001D03*
%TD*%
D15*
%TO.P,J2,1,VBUS*%
%TO.N,/VBUS*%
X21000000Y29230001D03*
D16*
%TO.P,J2,2,D-*%
%TO.N,/USB_IN_D-*%
X21000000Y31730001D03*
%TO.P,J2,3,D+*%
%TO.N,/USB_IN_D+*%
X19000000Y31730001D03*
%TO.P,J2,4,GND*%
%TO.N,GND*%
X19000000Y29230001D03*
D17*
%TO.P,J2,5,Shield*%
X16140000Y24480001D03*
X16140000Y36480001D03*
%TD*%
D18*
%TO.P,J1,1*%
%TO.N,GND*%
X67640000Y42230000D03*
%TO.P,J1,2*%
X67640000Y44770000D03*
%TO.P,J1,3*%
%TO.N,VCC*%
X70180000Y42230000D03*
%TO.P,J1,4*%
X70180000Y44770000D03*
%TO.P,J1,5*%
%TO.N,GND*%
X72720000Y42230000D03*
%TO.P,J1,6*%
X72720000Y44770000D03*
%TD*%
D10*
%TO.P,M3,1*%
%TO.N,GND*%
X10160000Y10160000D03*
%TD*%
D18*
%TO.P,J3,1,VBUS*%
%TO.N,/VBUS*%
X62672500Y26980001D03*
D19*
%TO.P,J3,2,D-*%
%TO.N,/USB_OUT_D-*%
X62672500Y29480001D03*
%TO.P,J3,3,D+*%
%TO.N,/USB_OUT_D+*%
X62672500Y31480001D03*
%TO.P,J3,4,GND*%
%TO.N,GND*%
X62672500Y33980001D03*
D20*
%TO.P,J3,5,Shield*%
X65382500Y23910001D03*
X65382500Y37050001D03*
%TD*%
D10*
%TO.P,M1,1*%
%TO.N,GND*%
X10160000Y50800000D03*
%TD*%
D11*
%TO.P,J5,1*%
%TO.N,/DAT3*%
X35770000Y13365000D03*
D12*
%TO.P,J5,2*%
X35770000Y10825000D03*
%TO.P,J5,3*%
%TO.N,/DAT2*%
X33230000Y13365000D03*
%TO.P,J5,4*%
X33230000Y10825000D03*
%TO.P,J5,5*%
%TO.N,/DAT1*%
X30690000Y13365000D03*
%TO.P,J5,6*%
X30690000Y10825000D03*
%TO.P,J5,7*%
%TO.N,/DAT0*%
X28150000Y13365000D03*
%TO.P,J5,8*%
X28150000Y10825000D03*
%TO.P,J5,9*%
%TO.N,/PRST*%
X25610000Y13365000D03*
%TO.P,J5,10*%
X25610000Y10825000D03*
%TO.P,J5,11*%
%TO.N,/CMD*%
X23070000Y13365000D03*
%TO.P,J5,12*%
X23070000Y10825000D03*
%TO.P,J5,13*%
%TO.N,/CLK*%
X20530000Y13365000D03*
%TO.P,J5,14*%
X20530000Y10825000D03*
%TD*%
D11*
%TO.P,J11,1*%
%TO.N,/USB_OUT_D+*%
X59200000Y31755001D03*
D12*
%TO.P,J11,2*%
%TO.N,/USB_OUT_D-*%
X59200000Y29215001D03*
%TD*%
D11*
%TO.P,J8,1*%
%TO.N,GND*%
X40850000Y8285000D03*
D12*
%TO.P,J8,2*%
X43390000Y8285000D03*
%TO.P,J8,3*%
X45930000Y8285000D03*
%TD*%
D18*
%TO.P,J4,1*%
%TO.N,GND*%
X13380000Y20550000D03*
%TO.P,J4,2*%
X13380000Y18010000D03*
%TO.P,J4,3*%
%TO.N,/VBUS*%
X10840000Y20550000D03*
%TO.P,J4,4*%
X10840000Y18010000D03*
%TO.P,J4,5*%
%TO.N,GND*%
X8300000Y20550000D03*
%TO.P,J4,6*%
X8300000Y18010000D03*
%TD*%
D21*
%TO.N,VCC*%
X46150500Y21950000D03*
%TO.N,/i2c*%
X44758530Y29508530D03*
X41250000Y34000000D03*
%TO.N,/i2c_addr*%
X47890000Y39980000D03*
X45500000Y32000000D03*
%TO.N,/USB_OUT_D-*%
X36912500Y27175501D03*
X57374647Y30125353D03*
%TO.N,/USB_OUT_D+*%
X58000000Y31500000D03*
X36107492Y27778869D03*
%TO.N,Net-(Q2-C)*%
X64890000Y46730000D03*
%TO.N,Net-(Q1-C)*%
X61140000Y47230000D03*
%TO.N,/VSD*%
X44637944Y18160343D03*
X43800000Y18200000D03*
%TD*%
D22*
%TO.N,VCC*%
X61190000Y13810000D02*
X61190000Y13360000D01*
X60960000Y13380000D02*
X63500000Y13380000D01*
X46150500Y21950000D02*
X53050000Y21950000D01*
%TO.N,/i2c*%
X44401424Y29865636D02*
X44401424Y30948576D01*
X44758530Y29508530D02*
X44401424Y29865636D01*
D23*
X44401424Y30948576D02*
X41350000Y34000000D01*
X41350000Y34000000D02*
X41250000Y34000000D01*
D24*
%TO.N,/i2c_addr*%
X47890000Y39980000D02*
X47890000Y39230000D01*
X45500000Y32000000D02*
X45500000Y37590000D01*
X47890000Y39230000D02*
X48140000Y38980000D01*
X45500000Y37590000D02*
X47890000Y39980000D01*
%TO.N,/USB_OUT_D-*%
X37161998Y27424999D02*
X36912500Y27175501D01*
X54674293Y27424999D02*
X37161998Y27424999D01*
X57374647Y30125353D02*
X54674293Y27424999D01*
%TO.N,/USB_OUT_D+*%
X58000000Y31500000D02*
X57760050Y31500000D01*
X57760050Y31500000D02*
X54135051Y27875001D01*
X36203624Y27875001D02*
X36107492Y27778869D01*
X54135051Y27875001D02*
X36203624Y27875001D01*
D23*
%TO.N,Net-(Q2-C)*%
X61890000Y46730000D02*
X64890000Y46730000D01*
X59640000Y25772894D02*
X61140000Y27272894D01*
X61140000Y45980000D02*
X61890000Y46730000D01*
X52210000Y12025000D02*
X54685000Y12025000D01*
X54685000Y12025000D02*
X59640000Y16980000D01*
X59640000Y16980000D02*
X59640000Y25772894D01*
X61140000Y27272894D02*
X61140000Y45980000D01*
X51010000Y10825000D02*
X52210000Y12025000D01*
%TO.N,Net-(Q1-C)*%
X59140000Y17187106D02*
X59140000Y25980000D01*
X60640000Y27480000D02*
X60640000Y46730000D01*
X53550000Y13365000D02*
X55317894Y13365000D01*
X60640000Y46730000D02*
X61140000Y47230000D01*
X55317894Y13365000D02*
X59140000Y17187106D01*
X59140000Y25980000D02*
X60640000Y27480000D01*
D25*
%TO.N,/VSD*%
X44285850Y19100000D02*
X44285850Y18185850D01*
%TD*%
%TA.AperFunction,Conductor*%
%TO.N,GND*%
G36*
X55969776Y55561093D02*
G01*
X56005740Y55511593D01*
X56005740Y55450407D01*
X55993900Y55425998D01*
X55961984Y55378234D01*
X55961982Y55378228D01*
X55950351Y55319759D01*
X55950350Y55319747D01*
X55950350Y50280254D01*
X55950351Y50280242D01*
X55961982Y50221773D01*
X55961983Y50221769D01*
X56006298Y50155448D01*
X56072619Y50111133D01*
X56117081Y50102289D01*
X56131091Y50099502D01*
X56131096Y50099502D01*
X56131102Y50099500D01*
X56131103Y50099500D01*
X58670597Y50099500D01*
X58670598Y50099500D01*
X58729081Y50111133D01*
X58795402Y50155448D01*
X58839717Y50221769D01*
X58851350Y50280252D01*
X58851350Y51050823D01*
X60629500Y51050823D01*
X60659894Y50957278D01*
X60717702Y50877713D01*
X60717704Y50877711D01*
X60717707Y50877707D01*
X60717710Y50877705D01*
X60717712Y50877703D01*
X60797277Y50819895D01*
X60797278Y50819895D01*
X60797279Y50819894D01*
X60890822Y50789500D01*
X60890823Y50789500D01*
X62389177Y50789500D01*
X62389178Y50789500D01*
X62482721Y50819894D01*
X62562293Y50877707D01*
X62620106Y50957279D01*
X62650500Y51050822D01*
X62650500Y51050823D01*
X63269500Y51050823D01*
X63299894Y50957278D01*
X63357702Y50877713D01*
X63357704Y50877711D01*
X63357707Y50877707D01*
X63357710Y50877705D01*
X63357712Y50877703D01*
X63437277Y50819895D01*
X63437278Y50819895D01*
X63437279Y50819894D01*
X63530822Y50789500D01*
X63530823Y50789500D01*
X65029177Y50789500D01*
X65029178Y50789500D01*
X65122721Y50819894D01*
X65202293Y50877707D01*
X65260106Y50957279D01*
X65290500Y51050822D01*
X65290500Y51100000D01*
X65290500Y51103412D01*
X65290500Y51103413D01*
X65290500Y52702088D01*
X65290500Y52749178D01*
X65260106Y52842721D01*
X65240167Y52870164D01*
X65202297Y52922288D01*
X65202295Y52922290D01*
X65202293Y52922293D01*
X65202289Y52922296D01*
X65202287Y52922298D01*
X65122722Y52980106D01*
X65075949Y52995304D01*
X65029178Y53010500D01*
X64982088Y53010500D01*
X63583412Y53010500D01*
X63580000Y53010500D01*
X63530822Y53010500D01*
X63499640Y53000369D01*
X63437277Y52980106D01*
X63357712Y52922298D01*
X63357702Y52922288D01*
X63299894Y52842723D01*
X63269500Y52749178D01*
X63269500Y51050823D01*
X62650500Y51050823D01*
X62650500Y51100000D01*
X62650500Y51103412D01*
X62650500Y51103413D01*
X62650500Y52702088D01*
X62650500Y52749178D01*
X62620106Y52842721D01*
X62600167Y52870164D01*
X62562297Y52922288D01*
X62562295Y52922290D01*
X62562293Y52922293D01*
X62562289Y52922296D01*
X62562287Y52922298D01*
X62482722Y52980106D01*
X62435949Y52995304D01*
X62389178Y53010500D01*
X62342088Y53010500D01*
X60943412Y53010500D01*
X60940000Y53010500D01*
X60890822Y53010500D01*
X60859640Y53000369D01*
X60797277Y52980106D01*
X60717712Y52922298D01*
X60717702Y52922288D01*
X60659894Y52842723D01*
X60629500Y52749178D01*
X60629500Y51050823D01*
X58851350Y51050823D01*
X58851350Y55319748D01*
X58839717Y55378231D01*
X58807800Y55425998D01*
X58791191Y55484886D01*
X58812368Y55542290D01*
X58863242Y55576283D01*
X58890115Y55580000D01*
X75836500Y55580000D01*
X75894691Y55561093D01*
X75930655Y55511593D01*
X75935500Y55481000D01*
X75935500Y5479000D01*
X75916593Y5420809D01*
X75867093Y5384845D01*
X75836500Y5380000D01*
X5443500Y5380000D01*
X5385309Y5398907D01*
X5349345Y5448407D01*
X5344500Y5479000D01*
X5344500Y7415300D01*
X39800000Y7415300D01*
X39811603Y7356964D01*
X39855806Y7290811D01*
X39855810Y7290807D01*
X39921963Y7246604D01*
X39980299Y7235001D01*
X39980303Y7235000D01*
X40599999Y7235000D01*
X40600000Y7235001D01*
X40600000Y7701551D01*
X40618907Y7759742D01*
X40668407Y7795706D01*
X40713089Y7799543D01*
X40731565Y7796887D01*
X40814233Y7785000D01*
X40814237Y7785000D01*
X40885767Y7785000D01*
X40968434Y7796887D01*
X40986910Y7799543D01*
X41047199Y7789110D01*
X41089842Y7745233D01*
X41100000Y7701551D01*
X41100000Y7235001D01*
X41100001Y7235000D01*
X41719697Y7235000D01*
X41719700Y7235001D01*
X41778036Y7246604D01*
X41844189Y7290807D01*
X41844193Y7290811D01*
X41888396Y7356964D01*
X41899999Y7415300D01*
X41900000Y7415303D01*
X41900000Y8034999D01*
X41899999Y8035000D01*
X41429951Y8035000D01*
X41371760Y8053907D01*
X41335796Y8103407D01*
X41334961Y8161891D01*
X41349999Y8213108D01*
X41350000Y8213112D01*
X41350000Y8356889D01*
X41349999Y8356893D01*
X41334961Y8408109D01*
X41336708Y8469269D01*
X41374071Y8517722D01*
X41429951Y8535000D01*
X41899999Y8535000D01*
X41900000Y8535001D01*
X42368588Y8535001D01*
X42368589Y8535000D01*
X42810049Y8535000D01*
X42868240Y8516093D01*
X42904204Y8466593D01*
X42905039Y8408109D01*
X42890000Y8356893D01*
X42890000Y8213108D01*
X42905039Y8161891D01*
X42903292Y8100731D01*
X42865929Y8052278D01*
X42810049Y8035000D01*
X42368589Y8035000D01*
X42415232Y7881238D01*
X42415234Y7881233D01*
X42512724Y7698840D01*
X42512731Y7698830D01*
X42643940Y7538950D01*
X42643949Y7538941D01*
X42803829Y7407732D01*
X42803839Y7407725D01*
X42986232Y7310235D01*
X42986237Y7310233D01*
X43139999Y7263589D01*
X43140000Y7263589D01*
X43140000Y7701551D01*
X43158907Y7759742D01*
X43208407Y7795706D01*
X43253089Y7799543D01*
X43271565Y7796887D01*
X43354233Y7785000D01*
X43354237Y7785000D01*
X43425767Y7785000D01*
X43508434Y7796887D01*
X43526910Y7799543D01*
X43587199Y7789110D01*
X43629842Y7745233D01*
X43640000Y7701551D01*
X43640000Y7263589D01*
X43793762Y7310233D01*
X43793767Y7310235D01*
X43976160Y7407725D01*
X43976170Y7407732D01*
X44136050Y7538941D01*
X44136059Y7538950D01*
X44267268Y7698830D01*
X44267275Y7698840D01*
X44364765Y7881233D01*
X44364767Y7881238D01*
X44411411Y8035000D01*
X43969951Y8035000D01*
X43911760Y8053907D01*
X43875796Y8103407D01*
X43874961Y8161891D01*
X43889999Y8213108D01*
X43890000Y8213112D01*
X43890000Y8356889D01*
X43889999Y8356893D01*
X43874961Y8408109D01*
X43876708Y8469269D01*
X43914071Y8517722D01*
X43969951Y8535000D01*
X44411411Y8535000D01*
X44411411Y8535001D01*
X44908588Y8535001D01*
X44908589Y8535000D01*
X45350049Y8535000D01*
X45408240Y8516093D01*
X45444204Y8466593D01*
X45445039Y8408109D01*
X45430000Y8356893D01*
X45430000Y8213108D01*
X45445039Y8161891D01*
X45443292Y8100731D01*
X45405929Y8052278D01*
X45350049Y8035000D01*
X44908589Y8035000D01*
X44955232Y7881238D01*
X44955234Y7881233D01*
X45052724Y7698840D01*
X45052731Y7698830D01*
X45183940Y7538950D01*
X45183949Y7538941D01*
X45343829Y7407732D01*
X45343839Y7407725D01*
X45526232Y7310235D01*
X45526237Y7310233D01*
X45679999Y7263589D01*
X45680000Y7263589D01*
X45680000Y7701551D01*
X45698907Y7759742D01*
X45748407Y7795706D01*
X45793089Y7799543D01*
X45811565Y7796887D01*
X45894233Y7785000D01*
X45894237Y7785000D01*
X45965767Y7785000D01*
X46048434Y7796887D01*
X46066910Y7799543D01*
X46127199Y7789110D01*
X46169842Y7745233D01*
X46180000Y7701551D01*
X46180000Y7263589D01*
X46333762Y7310233D01*
X46333767Y7310235D01*
X46516160Y7407725D01*
X46516170Y7407732D01*
X46676050Y7538941D01*
X46676059Y7538950D01*
X46807268Y7698830D01*
X46807275Y7698840D01*
X46904765Y7881233D01*
X46904767Y7881238D01*
X46951411Y8035000D01*
X46509951Y8035000D01*
X46451760Y8053907D01*
X46415796Y8103407D01*
X46414961Y8161891D01*
X46429999Y8213108D01*
X46430000Y8213112D01*
X46430000Y8356889D01*
X46429999Y8356893D01*
X46414961Y8408109D01*
X46416708Y8469269D01*
X46454071Y8517722D01*
X46509951Y8535000D01*
X46951411Y8535000D01*
X46951411Y8535001D01*
X46946861Y8550001D01*
X59938588Y8550001D01*
X59938589Y8550000D01*
X60380049Y8550000D01*
X60438240Y8531093D01*
X60474204Y8481593D01*
X60475039Y8423109D01*
X60460000Y8371893D01*
X60460000Y8228108D01*
X60475039Y8176891D01*
X60473292Y8115731D01*
X60435929Y8067278D01*
X60380049Y8050000D01*
X59938589Y8050000D01*
X59985232Y7896238D01*
X59985234Y7896233D01*
X60082724Y7713840D01*
X60082731Y7713830D01*
X60213940Y7553950D01*
X60213949Y7553941D01*
X60373829Y7422732D01*
X60373839Y7422725D01*
X60556232Y7325235D01*
X60556237Y7325233D01*
X60709999Y7278589D01*
X60710000Y7278589D01*
X60710000Y7716551D01*
X60728907Y7774742D01*
X60778407Y7810706D01*
X60823089Y7814543D01*
X60841565Y7811887D01*
X60924233Y7800000D01*
X60924237Y7800000D01*
X60995767Y7800000D01*
X61078434Y7811887D01*
X61096910Y7814543D01*
X61157199Y7804110D01*
X61199842Y7760233D01*
X61210000Y7716551D01*
X61210000Y7278589D01*
X61363762Y7325233D01*
X61363767Y7325235D01*
X61546160Y7422725D01*
X61546170Y7422732D01*
X61555392Y7430300D01*
X62450000Y7430300D01*
X62461603Y7371964D01*
X62505806Y7305811D01*
X62505810Y7305807D01*
X62571963Y7261604D01*
X62630299Y7250001D01*
X62630303Y7250000D01*
X63249999Y7250000D01*
X63250000Y7250001D01*
X63250000Y7716551D01*
X63268907Y7774742D01*
X63318407Y7810706D01*
X63363089Y7814543D01*
X63381565Y7811887D01*
X63464233Y7800000D01*
X63464237Y7800000D01*
X63535767Y7800000D01*
X63618434Y7811887D01*
X63636910Y7814543D01*
X63697199Y7804110D01*
X63739842Y7760233D01*
X63750000Y7716551D01*
X63750000Y7250001D01*
X63750001Y7250000D01*
X64369697Y7250000D01*
X64369700Y7250001D01*
X64428036Y7261604D01*
X64494189Y7305807D01*
X64494193Y7305811D01*
X64538396Y7371964D01*
X64549999Y7430300D01*
X64550000Y7430303D01*
X64550000Y8049999D01*
X64549999Y8050000D01*
X64079951Y8050000D01*
X64021760Y8068907D01*
X63985796Y8118407D01*
X63984961Y8176891D01*
X63999999Y8228108D01*
X64000000Y8228112D01*
X64000000Y8371889D01*
X63999999Y8371893D01*
X63984961Y8423109D01*
X63986708Y8484269D01*
X64024071Y8532722D01*
X64079951Y8550000D01*
X64549999Y8550000D01*
X64550000Y8550001D01*
X64550000Y9169698D01*
X64549999Y9169701D01*
X64538396Y9228037D01*
X64494193Y9294190D01*
X64494189Y9294194D01*
X64428036Y9338397D01*
X64369700Y9350000D01*
X63750000Y9350000D01*
X63750000Y8883450D01*
X63731093Y8825259D01*
X63681593Y8789295D01*
X63636911Y8785458D01*
X63535768Y8800000D01*
X63535763Y8800000D01*
X63464237Y8800000D01*
X63464232Y8800000D01*
X63363089Y8785458D01*
X63302800Y8795891D01*
X63260158Y8839769D01*
X63250000Y8883450D01*
X63250000Y9349999D01*
X63249999Y9350000D01*
X62630299Y9350000D01*
X62571963Y9338397D01*
X62505810Y9294194D01*
X62505806Y9294190D01*
X62461603Y9228037D01*
X62450000Y9169701D01*
X62450000Y8550002D01*
X62450001Y8550000D01*
X62920049Y8550000D01*
X62978240Y8531093D01*
X63014204Y8481593D01*
X63015039Y8423109D01*
X63000000Y8371893D01*
X63000000Y8228108D01*
X63015039Y8176891D01*
X63013292Y8115731D01*
X62975929Y8067278D01*
X62920049Y8050000D01*
X62450001Y8050000D01*
X62450000Y8049999D01*
X62450000Y7430300D01*
X61555392Y7430300D01*
X61706050Y7553941D01*
X61706059Y7553950D01*
X61837268Y7713830D01*
X61837275Y7713840D01*
X61934765Y7896233D01*
X61934767Y7896238D01*
X61981411Y8050000D01*
X61539951Y8050000D01*
X61481760Y8068907D01*
X61445796Y8118407D01*
X61444961Y8176891D01*
X61459999Y8228108D01*
X61460000Y8228112D01*
X61460000Y8371889D01*
X61459999Y8371893D01*
X61444961Y8423109D01*
X61446708Y8484269D01*
X61484071Y8532722D01*
X61539951Y8550000D01*
X61981411Y8550000D01*
X61981411Y8550001D01*
X61934767Y8703763D01*
X61934765Y8703768D01*
X61837275Y8886161D01*
X61837268Y8886171D01*
X61706059Y9046051D01*
X61706050Y9046060D01*
X61546170Y9177269D01*
X61546160Y9177276D01*
X61363771Y9274764D01*
X61363758Y9274769D01*
X61210000Y9321412D01*
X61210000Y8883450D01*
X61191093Y8825259D01*
X61141593Y8789295D01*
X61096911Y8785458D01*
X60995768Y8800000D01*
X60995763Y8800000D01*
X60924237Y8800000D01*
X60924232Y8800000D01*
X60823089Y8785458D01*
X60762800Y8795891D01*
X60720158Y8839769D01*
X60710000Y8883450D01*
X60710000Y9321412D01*
X60556241Y9274769D01*
X60556228Y9274764D01*
X60373839Y9177276D01*
X60373829Y9177269D01*
X60213949Y9046060D01*
X60213940Y9046051D01*
X60082731Y8886171D01*
X60082724Y8886161D01*
X59985234Y8703768D01*
X59985232Y8703763D01*
X59938588Y8550001D01*
X46946861Y8550001D01*
X46904767Y8688763D01*
X46904765Y8688768D01*
X46807275Y8871161D01*
X46807268Y8871171D01*
X46676059Y9031051D01*
X46676050Y9031060D01*
X46516170Y9162269D01*
X46516160Y9162276D01*
X46333771Y9259764D01*
X46333758Y9259769D01*
X46180000Y9306412D01*
X46180000Y8868450D01*
X46161093Y8810259D01*
X46111593Y8774295D01*
X46066911Y8770458D01*
X45965768Y8785000D01*
X45965763Y8785000D01*
X45894237Y8785000D01*
X45894232Y8785000D01*
X45793089Y8770458D01*
X45732800Y8780891D01*
X45690158Y8824769D01*
X45680000Y8868450D01*
X45680000Y9306412D01*
X45526241Y9259769D01*
X45526228Y9259764D01*
X45343839Y9162276D01*
X45343829Y9162269D01*
X45183949Y9031060D01*
X45183940Y9031051D01*
X45052731Y8871171D01*
X45052724Y8871161D01*
X44955234Y8688768D01*
X44955232Y8688763D01*
X44908588Y8535001D01*
X44411411Y8535001D01*
X44364767Y8688763D01*
X44364765Y8688768D01*
X44267275Y8871161D01*
X44267268Y8871171D01*
X44136059Y9031051D01*
X44136050Y9031060D01*
X43976170Y9162269D01*
X43976160Y9162276D01*
X43793771Y9259764D01*
X43793758Y9259769D01*
X43640000Y9306412D01*
X43640000Y8868450D01*
X43621093Y8810259D01*
X43571593Y8774295D01*
X43526911Y8770458D01*
X43425768Y8785000D01*
X43425763Y8785000D01*
X43354237Y8785000D01*
X43354232Y8785000D01*
X43253089Y8770458D01*
X43192800Y8780891D01*
X43150158Y8824769D01*
X43140000Y8868450D01*
X43140000Y9306412D01*
X42986241Y9259769D01*
X42986228Y9259764D01*
X42803839Y9162276D01*
X42803829Y9162269D01*
X42643949Y9031060D01*
X42643940Y9031051D01*
X42512731Y8871171D01*
X42512724Y8871161D01*
X42415234Y8688768D01*
X42415232Y8688763D01*
X42368588Y8535001D01*
X41900000Y8535001D01*
X41900000Y9154698D01*
X41899999Y9154701D01*
X41888396Y9213037D01*
X41844193Y9279190D01*
X41844189Y9279194D01*
X41778036Y9323397D01*
X41719700Y9335000D01*
X41100001Y9335000D01*
X41100000Y9334999D01*
X41100000Y8868450D01*
X41081093Y8810259D01*
X41031593Y8774295D01*
X40986911Y8770458D01*
X40885768Y8785000D01*
X40885763Y8785000D01*
X40814237Y8785000D01*
X40814232Y8785000D01*
X40713089Y8770458D01*
X40652800Y8780891D01*
X40610158Y8824769D01*
X40600000Y8868450D01*
X40600000Y9335000D01*
X39980299Y9335000D01*
X39921963Y9323397D01*
X39855810Y9279194D01*
X39855806Y9279190D01*
X39811603Y9213037D01*
X39800000Y9154701D01*
X39800000Y8535001D01*
X39800001Y8535000D01*
X40270049Y8535000D01*
X40328240Y8516093D01*
X40364204Y8466593D01*
X40365039Y8408109D01*
X40350000Y8356893D01*
X40350000Y8213108D01*
X40365039Y8161891D01*
X40363292Y8100731D01*
X40325929Y8052278D01*
X40270049Y8035000D01*
X39800000Y8035000D01*
X39800000Y7415300D01*
X5344500Y7415300D01*
X5344500Y10824997D01*
X19474417Y10824997D01*
X19494698Y10619071D01*
X19494699Y10619066D01*
X19554768Y10421046D01*
X19652316Y10238548D01*
X19771275Y10093596D01*
X19783590Y10078590D01*
X19783595Y10078586D01*
X19943547Y9947317D01*
X19943548Y9947317D01*
X19943550Y9947315D01*
X20126046Y9849768D01*
X20263996Y9807922D01*
X20324065Y9789700D01*
X20324070Y9789699D01*
X20529997Y9769417D01*
X20530000Y9769417D01*
X20530003Y9769417D01*
X20735929Y9789699D01*
X20735934Y9789700D01*
X20735933Y9789700D01*
X20933954Y9849768D01*
X21116450Y9947315D01*
X21276410Y10078590D01*
X21407685Y10238550D01*
X21505232Y10421046D01*
X21565300Y10619066D01*
X21565301Y10619071D01*
X21585583Y10824997D01*
X22014417Y10824997D01*
X22034698Y10619071D01*
X22034699Y10619066D01*
X22094768Y10421046D01*
X22192316Y10238548D01*
X22311275Y10093596D01*
X22323590Y10078590D01*
X22323595Y10078586D01*
X22483547Y9947317D01*
X22483548Y9947317D01*
X22483550Y9947315D01*
X22666046Y9849768D01*
X22803996Y9807922D01*
X22864065Y9789700D01*
X22864070Y9789699D01*
X23069997Y9769417D01*
X23070000Y9769417D01*
X23070003Y9769417D01*
X23275929Y9789699D01*
X23275934Y9789700D01*
X23473954Y9849768D01*
X23656450Y9947315D01*
X23816410Y10078590D01*
X23947685Y10238550D01*
X24045232Y10421046D01*
X24105300Y10619066D01*
X24105301Y10619071D01*
X24125583Y10824997D01*
X24554417Y10824997D01*
X24574698Y10619071D01*
X24574699Y10619066D01*
X24634768Y10421046D01*
X24732316Y10238548D01*
X24851275Y10093596D01*
X24863590Y10078590D01*
X24863595Y10078586D01*
X25023547Y9947317D01*
X25023548Y9947317D01*
X25023550Y9947315D01*
X25206046Y9849768D01*
X25343997Y9807922D01*
X25404065Y9789700D01*
X25404070Y9789699D01*
X25609997Y9769417D01*
X25610000Y9769417D01*
X25610003Y9769417D01*
X25815929Y9789699D01*
X25815934Y9789700D01*
X26013954Y9849768D01*
X26196450Y9947315D01*
X26356410Y10078590D01*
X26487685Y10238550D01*
X26585232Y10421046D01*
X26645300Y10619066D01*
X26645301Y10619071D01*
X26665583Y10824997D01*
X27094417Y10824997D01*
X27114698Y10619071D01*
X27114699Y10619066D01*
X27174768Y10421046D01*
X27272316Y10238548D01*
X27391275Y10093596D01*
X27403590Y10078590D01*
X27403595Y10078586D01*
X27563547Y9947317D01*
X27563548Y9947317D01*
X27563550Y9947315D01*
X27746046Y9849768D01*
X27883996Y9807922D01*
X27944065Y9789700D01*
X27944070Y9789699D01*
X28149997Y9769417D01*
X28150000Y9769417D01*
X28150003Y9769417D01*
X28355929Y9789699D01*
X28355934Y9789700D01*
X28355933Y9789700D01*
X28553954Y9849768D01*
X28736450Y9947315D01*
X28896410Y10078590D01*
X29027685Y10238550D01*
X29125232Y10421046D01*
X29185300Y10619066D01*
X29185301Y10619071D01*
X29205583Y10824997D01*
X29634417Y10824997D01*
X29654698Y10619071D01*
X29654699Y10619066D01*
X29714768Y10421046D01*
X29812316Y10238548D01*
X29931275Y10093596D01*
X29943590Y10078590D01*
X29943595Y10078586D01*
X30103547Y9947317D01*
X30103548Y9947317D01*
X30103550Y9947315D01*
X30286046Y9849768D01*
X30423996Y9807922D01*
X30484065Y9789700D01*
X30484070Y9789699D01*
X30689997Y9769417D01*
X30690000Y9769417D01*
X30690003Y9769417D01*
X30895929Y9789699D01*
X30895934Y9789700D01*
X31093954Y9849768D01*
X31276450Y9947315D01*
X31436410Y10078590D01*
X31567685Y10238550D01*
X31665232Y10421046D01*
X31725300Y10619066D01*
X31725301Y10619071D01*
X31745583Y10824997D01*
X32174417Y10824997D01*
X32194698Y10619071D01*
X32194699Y10619066D01*
X32254768Y10421046D01*
X32352316Y10238548D01*
X32471275Y10093596D01*
X32483590Y10078590D01*
X32483595Y10078586D01*
X32643547Y9947317D01*
X32643548Y9947317D01*
X32643550Y9947315D01*
X32826046Y9849768D01*
X32963996Y9807922D01*
X33024065Y9789700D01*
X33024070Y9789699D01*
X33229997Y9769417D01*
X33230000Y9769417D01*
X33230003Y9769417D01*
X33435929Y9789699D01*
X33435934Y9789700D01*
X33435933Y9789700D01*
X33633954Y9849768D01*
X33816450Y9947315D01*
X33976410Y10078590D01*
X34107685Y10238550D01*
X34205232Y10421046D01*
X34265300Y10619066D01*
X34265301Y10619071D01*
X34285583Y10824997D01*
X34714417Y10824997D01*
X34734698Y10619071D01*
X34734699Y10619066D01*
X34794768Y10421046D01*
X34892316Y10238548D01*
X35011275Y10093596D01*
X35023590Y10078590D01*
X35023595Y10078586D01*
X35183547Y9947317D01*
X35183548Y9947317D01*
X35183550Y9947315D01*
X35366046Y9849768D01*
X35503997Y9807922D01*
X35564065Y9789700D01*
X35564070Y9789699D01*
X35769997Y9769417D01*
X35770000Y9769417D01*
X35770003Y9769417D01*
X35975929Y9789699D01*
X35975934Y9789700D01*
X36173954Y9849768D01*
X36356450Y9947315D01*
X36366124Y9955254D01*
X39799500Y9955254D01*
X39799501Y9955242D01*
X39811132Y9896773D01*
X39811134Y9896767D01*
X39855445Y9830452D01*
X39855448Y9830448D01*
X39921769Y9786133D01*
X39966231Y9777289D01*
X39980241Y9774502D01*
X39980246Y9774502D01*
X39980252Y9774500D01*
X39980253Y9774500D01*
X41719747Y9774500D01*
X41719748Y9774500D01*
X41778231Y9786133D01*
X41844552Y9830448D01*
X41888867Y9896769D01*
X41900500Y9955252D01*
X41900500Y10824997D01*
X42334417Y10824997D01*
X42354698Y10619071D01*
X42354699Y10619066D01*
X42414768Y10421046D01*
X42512316Y10238548D01*
X42631275Y10093596D01*
X42643590Y10078590D01*
X42643595Y10078586D01*
X42803547Y9947317D01*
X42803548Y9947317D01*
X42803550Y9947315D01*
X42986046Y9849768D01*
X43123996Y9807922D01*
X43184065Y9789700D01*
X43184070Y9789699D01*
X43389997Y9769417D01*
X43390000Y9769417D01*
X43390003Y9769417D01*
X43595929Y9789699D01*
X43595934Y9789700D01*
X43793954Y9849768D01*
X43976450Y9947315D01*
X44136410Y10078590D01*
X44267685Y10238550D01*
X44365232Y10421046D01*
X44425300Y10619066D01*
X44425301Y10619071D01*
X44445583Y10824997D01*
X44874417Y10824997D01*
X44894698Y10619071D01*
X44894699Y10619066D01*
X44954768Y10421046D01*
X45052316Y10238548D01*
X45171275Y10093596D01*
X45183590Y10078590D01*
X45183595Y10078586D01*
X45343547Y9947317D01*
X45343548Y9947317D01*
X45343550Y9947315D01*
X45526046Y9849768D01*
X45663997Y9807922D01*
X45724065Y9789700D01*
X45724070Y9789699D01*
X45929997Y9769417D01*
X45930000Y9769417D01*
X45930003Y9769417D01*
X46135929Y9789699D01*
X46135934Y9789700D01*
X46333954Y9849768D01*
X46516450Y9947315D01*
X46676410Y10078590D01*
X46807685Y10238550D01*
X46905232Y10421046D01*
X46965300Y10619066D01*
X46965301Y10619071D01*
X46985583Y10824997D01*
X47414417Y10824997D01*
X47434698Y10619071D01*
X47434699Y10619066D01*
X47494768Y10421046D01*
X47592316Y10238548D01*
X47711275Y10093596D01*
X47723590Y10078590D01*
X47723595Y10078586D01*
X47883547Y9947317D01*
X47883548Y9947317D01*
X47883550Y9947315D01*
X48066046Y9849768D01*
X48203996Y9807922D01*
X48264065Y9789700D01*
X48264070Y9789699D01*
X48469997Y9769417D01*
X48470000Y9769417D01*
X48470003Y9769417D01*
X48675929Y9789699D01*
X48675934Y9789700D01*
X48675933Y9789700D01*
X48873954Y9849768D01*
X49056450Y9947315D01*
X49216410Y10078590D01*
X49347685Y10238550D01*
X49445232Y10421046D01*
X49505300Y10619066D01*
X49505301Y10619071D01*
X49525583Y10824997D01*
X49525583Y10825004D01*
X49505301Y11030930D01*
X49505300Y11030935D01*
X49487078Y11091004D01*
X49445232Y11228954D01*
X49347685Y11411450D01*
X49335372Y11426453D01*
X49216414Y11571405D01*
X49216410Y11571410D01*
X49216404Y11571415D01*
X49056452Y11702684D01*
X48873954Y11800232D01*
X48675934Y11860301D01*
X48675929Y11860302D01*
X48470003Y11880583D01*
X48469997Y11880583D01*
X48264070Y11860302D01*
X48264065Y11860301D01*
X48066045Y11800232D01*
X47883547Y11702684D01*
X47723595Y11571415D01*
X47723585Y11571405D01*
X47592316Y11411453D01*
X47494768Y11228955D01*
X47434699Y11030935D01*
X47434698Y11030930D01*
X47414417Y10825004D01*
X47414417Y10824997D01*
X46985583Y10824997D01*
X46985583Y10825004D01*
X46965301Y11030930D01*
X46965300Y11030935D01*
X46947078Y11091003D01*
X46905232Y11228954D01*
X46807685Y11411450D01*
X46795372Y11426453D01*
X46676414Y11571405D01*
X46676410Y11571410D01*
X46676404Y11571415D01*
X46516452Y11702684D01*
X46333954Y11800232D01*
X46135934Y11860301D01*
X46135929Y11860302D01*
X45930003Y11880583D01*
X45929997Y11880583D01*
X45724070Y11860302D01*
X45724065Y11860301D01*
X45526045Y11800232D01*
X45343547Y11702684D01*
X45183595Y11571415D01*
X45183585Y11571405D01*
X45052316Y11411453D01*
X44954768Y11228955D01*
X44894699Y11030935D01*
X44894698Y11030930D01*
X44874417Y10825004D01*
X44874417Y10824997D01*
X44445583Y10824997D01*
X44445583Y10825004D01*
X44425301Y11030930D01*
X44425300Y11030935D01*
X44407078Y11091003D01*
X44365232Y11228954D01*
X44267685Y11411450D01*
X44255372Y11426453D01*
X44136414Y11571405D01*
X44136410Y11571410D01*
X44136404Y11571415D01*
X43976452Y11702684D01*
X43793954Y11800232D01*
X43595934Y11860301D01*
X43595929Y11860302D01*
X43390003Y11880583D01*
X43389997Y11880583D01*
X43184070Y11860302D01*
X43184065Y11860301D01*
X42986045Y11800232D01*
X42803547Y11702684D01*
X42643595Y11571415D01*
X42643585Y11571405D01*
X42512316Y11411453D01*
X42414768Y11228955D01*
X42354699Y11030935D01*
X42354698Y11030930D01*
X42334417Y10825004D01*
X42334417Y10824997D01*
X41900500Y10824997D01*
X41900500Y11694748D01*
X41898921Y11702684D01*
X41895938Y11717684D01*
X41888867Y11753231D01*
X41844552Y11819552D01*
X41844548Y11819555D01*
X41778233Y11863866D01*
X41778231Y11863867D01*
X41778228Y11863868D01*
X41778227Y11863868D01*
X41719758Y11875499D01*
X41719748Y11875500D01*
X39980252Y11875500D01*
X39980251Y11875500D01*
X39980241Y11875499D01*
X39921772Y11863868D01*
X39921766Y11863866D01*
X39855451Y11819555D01*
X39855445Y11819549D01*
X39811134Y11753234D01*
X39811132Y11753228D01*
X39799501Y11694759D01*
X39799500Y11694747D01*
X39799500Y9955254D01*
X36366124Y9955254D01*
X36516410Y10078590D01*
X36647685Y10238550D01*
X36745232Y10421046D01*
X36805300Y10619066D01*
X36805301Y10619071D01*
X36825583Y10824997D01*
X36825583Y10825004D01*
X36805301Y11030930D01*
X36805300Y11030935D01*
X36787078Y11091003D01*
X36745232Y11228954D01*
X36647685Y11411450D01*
X36635372Y11426453D01*
X36516414Y11571405D01*
X36516410Y11571410D01*
X36516404Y11571415D01*
X36356452Y11702684D01*
X36173954Y11800232D01*
X35975934Y11860301D01*
X35975929Y11860302D01*
X35770003Y11880583D01*
X35769997Y11880583D01*
X35564070Y11860302D01*
X35564065Y11860301D01*
X35366045Y11800232D01*
X35183547Y11702684D01*
X35023595Y11571415D01*
X35023585Y11571405D01*
X34892316Y11411453D01*
X34794768Y11228955D01*
X34734699Y11030935D01*
X34734698Y11030930D01*
X34714417Y10825004D01*
X34714417Y10824997D01*
X34285583Y10824997D01*
X34285583Y10825004D01*
X34265301Y11030930D01*
X34265300Y11030935D01*
X34247078Y11091003D01*
X34205232Y11228954D01*
X34107685Y11411450D01*
X34095372Y11426453D01*
X33976414Y11571405D01*
X33976410Y11571410D01*
X33976404Y11571415D01*
X33816452Y11702684D01*
X33633954Y11800232D01*
X33435934Y11860301D01*
X33435929Y11860302D01*
X33230003Y11880583D01*
X33229997Y11880583D01*
X33024070Y11860302D01*
X33024065Y11860301D01*
X32826045Y11800232D01*
X32643547Y11702684D01*
X32483595Y11571415D01*
X32483585Y11571405D01*
X32352316Y11411453D01*
X32254768Y11228955D01*
X32194699Y11030935D01*
X32194698Y11030930D01*
X32174417Y10825004D01*
X32174417Y10824997D01*
X31745583Y10824997D01*
X31745583Y10825004D01*
X31725301Y11030930D01*
X31725300Y11030935D01*
X31707078Y11091003D01*
X31665232Y11228954D01*
X31567685Y11411450D01*
X31555372Y11426453D01*
X31436414Y11571405D01*
X31436410Y11571410D01*
X31436404Y11571415D01*
X31276452Y11702684D01*
X31093954Y11800232D01*
X30895934Y11860301D01*
X30895929Y11860302D01*
X30690003Y11880583D01*
X30689997Y11880583D01*
X30484070Y11860302D01*
X30484065Y11860301D01*
X30286045Y11800232D01*
X30103547Y11702684D01*
X29943595Y11571415D01*
X29943585Y11571405D01*
X29812316Y11411453D01*
X29714768Y11228955D01*
X29654699Y11030935D01*
X29654698Y11030930D01*
X29634417Y10825004D01*
X29634417Y10824997D01*
X29205583Y10824997D01*
X29205583Y10825004D01*
X29185301Y11030930D01*
X29185300Y11030935D01*
X29167078Y11091003D01*
X29125232Y11228954D01*
X29027685Y11411450D01*
X29015372Y11426453D01*
X28896414Y11571405D01*
X28896410Y11571410D01*
X28896404Y11571415D01*
X28736452Y11702684D01*
X28553954Y11800232D01*
X28355934Y11860301D01*
X28355929Y11860302D01*
X28150003Y11880583D01*
X28149997Y11880583D01*
X27944070Y11860302D01*
X27944065Y11860301D01*
X27746045Y11800232D01*
X27563547Y11702684D01*
X27403595Y11571415D01*
X27403585Y11571405D01*
X27272316Y11411453D01*
X27174768Y11228955D01*
X27114699Y11030935D01*
X27114698Y11030930D01*
X27094417Y10825004D01*
X27094417Y10824997D01*
X26665583Y10824997D01*
X26665583Y10825004D01*
X26645301Y11030930D01*
X26645300Y11030935D01*
X26627078Y11091003D01*
X26585232Y11228954D01*
X26487685Y11411450D01*
X26475372Y11426453D01*
X26356414Y11571405D01*
X26356410Y11571410D01*
X26356404Y11571415D01*
X26196452Y11702684D01*
X26013954Y11800232D01*
X25815934Y11860301D01*
X25815929Y11860302D01*
X25610003Y11880583D01*
X25609997Y11880583D01*
X25404070Y11860302D01*
X25404065Y11860301D01*
X25206045Y11800232D01*
X25023547Y11702684D01*
X24863595Y11571415D01*
X24863585Y11571405D01*
X24732316Y11411453D01*
X24634768Y11228955D01*
X24574699Y11030935D01*
X24574698Y11030930D01*
X24554417Y10825004D01*
X24554417Y10824997D01*
X24125583Y10824997D01*
X24125583Y10825004D01*
X24105301Y11030930D01*
X24105300Y11030935D01*
X24087078Y11091003D01*
X24045232Y11228954D01*
X23947685Y11411450D01*
X23935372Y11426453D01*
X23816414Y11571405D01*
X23816410Y11571410D01*
X23816404Y11571415D01*
X23656452Y11702684D01*
X23473954Y11800232D01*
X23275934Y11860301D01*
X23275929Y11860302D01*
X23070003Y11880583D01*
X23069997Y11880583D01*
X22864070Y11860302D01*
X22864065Y11860301D01*
X22666045Y11800232D01*
X22483547Y11702684D01*
X22323595Y11571415D01*
X22323585Y11571405D01*
X22192316Y11411453D01*
X22094768Y11228955D01*
X22034699Y11030935D01*
X22034698Y11030930D01*
X22014417Y10825004D01*
X22014417Y10824997D01*
X21585583Y10824997D01*
X21585583Y10825004D01*
X21565301Y11030930D01*
X21565300Y11030935D01*
X21547078Y11091003D01*
X21505232Y11228954D01*
X21407685Y11411450D01*
X21395372Y11426453D01*
X21276414Y11571405D01*
X21276410Y11571410D01*
X21276404Y11571415D01*
X21116452Y11702684D01*
X20933954Y11800232D01*
X20735934Y11860301D01*
X20735929Y11860302D01*
X20530003Y11880583D01*
X20529997Y11880583D01*
X20324070Y11860302D01*
X20324065Y11860301D01*
X20126045Y11800232D01*
X19943547Y11702684D01*
X19783595Y11571415D01*
X19783585Y11571405D01*
X19652316Y11411453D01*
X19554768Y11228955D01*
X19494699Y11030935D01*
X19494698Y11030930D01*
X19474417Y10825004D01*
X19474417Y10824997D01*
X5344500Y10824997D01*
X5344500Y13364997D01*
X19474417Y13364997D01*
X19494698Y13159071D01*
X19494699Y13159066D01*
X19554768Y12961046D01*
X19652316Y12778548D01*
X19771275Y12633596D01*
X19783590Y12618590D01*
X19783595Y12618586D01*
X19943547Y12487317D01*
X19943548Y12487317D01*
X19943550Y12487315D01*
X20126046Y12389768D01*
X20263996Y12347922D01*
X20324065Y12329700D01*
X20324070Y12329699D01*
X20529997Y12309417D01*
X20530000Y12309417D01*
X20530003Y12309417D01*
X20735929Y12329699D01*
X20735934Y12329700D01*
X20735933Y12329701D01*
X20933954Y12389768D01*
X21116450Y12487315D01*
X21276410Y12618590D01*
X21407685Y12778550D01*
X21505232Y12961046D01*
X21565300Y13159066D01*
X21565301Y13159071D01*
X21585583Y13364997D01*
X22014417Y13364997D01*
X22034698Y13159071D01*
X22034699Y13159066D01*
X22094768Y12961046D01*
X22192316Y12778548D01*
X22311275Y12633596D01*
X22323590Y12618590D01*
X22323595Y12618586D01*
X22483547Y12487317D01*
X22483548Y12487317D01*
X22483550Y12487315D01*
X22666046Y12389768D01*
X22803996Y12347922D01*
X22864065Y12329700D01*
X22864070Y12329699D01*
X23069997Y12309417D01*
X23070000Y12309417D01*
X23070003Y12309417D01*
X23275929Y12329699D01*
X23275934Y12329700D01*
X23473954Y12389768D01*
X23656450Y12487315D01*
X23816410Y12618590D01*
X23947685Y12778550D01*
X24045232Y12961046D01*
X24105300Y13159066D01*
X24105301Y13159071D01*
X24125583Y13364997D01*
X24554417Y13364997D01*
X24574698Y13159071D01*
X24574699Y13159066D01*
X24634768Y12961046D01*
X24732316Y12778548D01*
X24851275Y12633596D01*
X24863590Y12618590D01*
X24863595Y12618586D01*
X25023547Y12487317D01*
X25023548Y12487317D01*
X25023550Y12487315D01*
X25206046Y12389768D01*
X25343997Y12347922D01*
X25404065Y12329700D01*
X25404070Y12329699D01*
X25609997Y12309417D01*
X25610000Y12309417D01*
X25610003Y12309417D01*
X25815929Y12329699D01*
X25815934Y12329700D01*
X25815934Y12329701D01*
X26013954Y12389768D01*
X26196450Y12487315D01*
X26356410Y12618590D01*
X26487685Y12778550D01*
X26585232Y12961046D01*
X26645300Y13159066D01*
X26645301Y13159071D01*
X26665583Y13364997D01*
X27094417Y13364997D01*
X27114698Y13159071D01*
X27114699Y13159066D01*
X27174768Y12961046D01*
X27272316Y12778548D01*
X27391275Y12633596D01*
X27403590Y12618590D01*
X27403595Y12618586D01*
X27563547Y12487317D01*
X27563548Y12487317D01*
X27563550Y12487315D01*
X27746046Y12389768D01*
X27883996Y12347922D01*
X27944065Y12329700D01*
X27944070Y12329699D01*
X28149997Y12309417D01*
X28150000Y12309417D01*
X28150003Y12309417D01*
X28355929Y12329699D01*
X28355934Y12329700D01*
X28553954Y12389768D01*
X28736450Y12487315D01*
X28896410Y12618590D01*
X29027685Y12778550D01*
X29125232Y12961046D01*
X29185300Y13159066D01*
X29185301Y13159071D01*
X29205583Y13364997D01*
X29634417Y13364997D01*
X29654698Y13159071D01*
X29654699Y13159066D01*
X29714768Y12961046D01*
X29812316Y12778548D01*
X29931275Y12633596D01*
X29943590Y12618590D01*
X29943595Y12618586D01*
X30103547Y12487317D01*
X30103548Y12487317D01*
X30103550Y12487315D01*
X30286046Y12389768D01*
X30423996Y12347922D01*
X30484065Y12329700D01*
X30484070Y12329699D01*
X30689997Y12309417D01*
X30690000Y12309417D01*
X30690003Y12309417D01*
X30895929Y12329699D01*
X30895934Y12329700D01*
X30895933Y12329701D01*
X31093954Y12389768D01*
X31276450Y12487315D01*
X31436410Y12618590D01*
X31567685Y12778550D01*
X31665232Y12961046D01*
X31725300Y13159066D01*
X31725301Y13159071D01*
X31745583Y13364997D01*
X32174417Y13364997D01*
X32194698Y13159071D01*
X32194699Y13159066D01*
X32254768Y12961046D01*
X32352316Y12778548D01*
X32471275Y12633596D01*
X32483590Y12618590D01*
X32483595Y12618586D01*
X32643547Y12487317D01*
X32643548Y12487317D01*
X32643550Y12487315D01*
X32826046Y12389768D01*
X32963996Y12347922D01*
X33024065Y12329700D01*
X33024070Y12329699D01*
X33229997Y12309417D01*
X33230000Y12309417D01*
X33230003Y12309417D01*
X33435929Y12329699D01*
X33435934Y12329700D01*
X33633954Y12389768D01*
X33816450Y12487315D01*
X33826124Y12495254D01*
X34719500Y12495254D01*
X34719501Y12495242D01*
X34731132Y12436773D01*
X34731134Y12436767D01*
X34771818Y12375880D01*
X34775448Y12370448D01*
X34841769Y12326133D01*
X34886231Y12317289D01*
X34900241Y12314502D01*
X34900246Y12314502D01*
X34900252Y12314500D01*
X34900253Y12314500D01*
X36639747Y12314500D01*
X36639748Y12314500D01*
X36698231Y12326133D01*
X36764552Y12370448D01*
X36808867Y12436769D01*
X36820500Y12495252D01*
X36820500Y13364997D01*
X39794417Y13364997D01*
X39814698Y13159071D01*
X39814699Y13159066D01*
X39874768Y12961046D01*
X39972316Y12778548D01*
X40091275Y12633596D01*
X40103590Y12618590D01*
X40103595Y12618586D01*
X40263547Y12487317D01*
X40263548Y12487317D01*
X40263550Y12487315D01*
X40446046Y12389768D01*
X40583996Y12347922D01*
X40644065Y12329700D01*
X40644070Y12329699D01*
X40849997Y12309417D01*
X40850000Y12309417D01*
X40850003Y12309417D01*
X41055929Y12329699D01*
X41055934Y12329700D01*
X41055933Y12329701D01*
X41253954Y12389768D01*
X41436450Y12487315D01*
X41596410Y12618590D01*
X41727685Y12778550D01*
X41825232Y12961046D01*
X41885300Y13159066D01*
X41885301Y13159071D01*
X41905583Y13364997D01*
X42334417Y13364997D01*
X42354698Y13159071D01*
X42354699Y13159066D01*
X42414768Y12961046D01*
X42512316Y12778548D01*
X42631275Y12633596D01*
X42643590Y12618590D01*
X42643595Y12618586D01*
X42803547Y12487317D01*
X42803548Y12487317D01*
X42803550Y12487315D01*
X42986046Y12389768D01*
X43123996Y12347922D01*
X43184065Y12329700D01*
X43184070Y12329699D01*
X43389997Y12309417D01*
X43390000Y12309417D01*
X43390003Y12309417D01*
X43595929Y12329699D01*
X43595934Y12329700D01*
X43793954Y12389768D01*
X43976450Y12487315D01*
X44136410Y12618590D01*
X44267685Y12778550D01*
X44365232Y12961046D01*
X44425300Y13159066D01*
X44425301Y13159071D01*
X44445583Y13364997D01*
X44874417Y13364997D01*
X44894698Y13159071D01*
X44894699Y13159066D01*
X44954768Y12961046D01*
X45052316Y12778548D01*
X45171275Y12633596D01*
X45183590Y12618590D01*
X45183595Y12618586D01*
X45343547Y12487317D01*
X45343548Y12487317D01*
X45343550Y12487315D01*
X45526046Y12389768D01*
X45663997Y12347922D01*
X45724065Y12329700D01*
X45724070Y12329699D01*
X45929997Y12309417D01*
X45930000Y12309417D01*
X45930003Y12309417D01*
X46135929Y12329699D01*
X46135934Y12329700D01*
X46135934Y12329701D01*
X46333954Y12389768D01*
X46516450Y12487315D01*
X46676410Y12618590D01*
X46807685Y12778550D01*
X46905232Y12961046D01*
X46965300Y13159066D01*
X46965301Y13159071D01*
X46985583Y13364997D01*
X47414417Y13364997D01*
X47434698Y13159071D01*
X47434699Y13159066D01*
X47494768Y12961046D01*
X47592316Y12778548D01*
X47711275Y12633596D01*
X47723590Y12618590D01*
X47723595Y12618586D01*
X47883547Y12487317D01*
X47883548Y12487317D01*
X47883550Y12487315D01*
X48066046Y12389768D01*
X48203996Y12347922D01*
X48264065Y12329700D01*
X48264070Y12329699D01*
X48469997Y12309417D01*
X48470000Y12309417D01*
X48470003Y12309417D01*
X48675929Y12329699D01*
X48675934Y12329700D01*
X48873954Y12389768D01*
X49056450Y12487315D01*
X49216410Y12618590D01*
X49347685Y12778550D01*
X49445232Y12961046D01*
X49505300Y13159066D01*
X49505301Y13159071D01*
X49525583Y13364997D01*
X49954417Y13364997D01*
X49974698Y13159071D01*
X49974699Y13159066D01*
X50034768Y12961046D01*
X50132316Y12778548D01*
X50251275Y12633596D01*
X50263590Y12618590D01*
X50263595Y12618586D01*
X50423547Y12487317D01*
X50423548Y12487317D01*
X50423550Y12487315D01*
X50606046Y12389768D01*
X50743996Y12347922D01*
X50804065Y12329700D01*
X50804070Y12329699D01*
X51009997Y12309417D01*
X51010000Y12309417D01*
X51010003Y12309417D01*
X51215929Y12329699D01*
X51215934Y12329700D01*
X51215933Y12329701D01*
X51413954Y12389768D01*
X51596450Y12487315D01*
X51756410Y12618590D01*
X51887685Y12778550D01*
X51985232Y12961046D01*
X52045300Y13159066D01*
X52045301Y13159071D01*
X52065583Y13364997D01*
X52065583Y13365004D01*
X52045301Y13570930D01*
X52045300Y13570935D01*
X52027078Y13631003D01*
X51985232Y13768954D01*
X51887685Y13951450D01*
X51875372Y13966453D01*
X51756414Y14111405D01*
X51756410Y14111410D01*
X51756404Y14111415D01*
X51596452Y14242684D01*
X51413954Y14340232D01*
X51215934Y14400301D01*
X51215929Y14400302D01*
X51010003Y14420583D01*
X51009997Y14420583D01*
X50804070Y14400302D01*
X50804065Y14400301D01*
X50606045Y14340232D01*
X50423547Y14242684D01*
X50263595Y14111415D01*
X50263585Y14111405D01*
X50132316Y13951453D01*
X50034768Y13768955D01*
X49974699Y13570935D01*
X49974698Y13570930D01*
X49954417Y13365004D01*
X49954417Y13364997D01*
X49525583Y13364997D01*
X49525583Y13365004D01*
X49505301Y13570930D01*
X49505300Y13570935D01*
X49487078Y13631004D01*
X49445232Y13768954D01*
X49347685Y13951450D01*
X49335372Y13966453D01*
X49216414Y14111405D01*
X49216410Y14111410D01*
X49216404Y14111415D01*
X49056452Y14242684D01*
X48873954Y14340232D01*
X48675934Y14400301D01*
X48675929Y14400302D01*
X48470003Y14420583D01*
X48469997Y14420583D01*
X48264070Y14400302D01*
X48264065Y14400301D01*
X48066045Y14340232D01*
X47883547Y14242684D01*
X47723595Y14111415D01*
X47723585Y14111405D01*
X47592316Y13951453D01*
X47494768Y13768955D01*
X47434699Y13570935D01*
X47434698Y13570930D01*
X47414417Y13365004D01*
X47414417Y13364997D01*
X46985583Y13364997D01*
X46985583Y13365004D01*
X46965301Y13570930D01*
X46965300Y13570935D01*
X46947078Y13631003D01*
X46905232Y13768954D01*
X46807685Y13951450D01*
X46795372Y13966453D01*
X46676414Y14111405D01*
X46676410Y14111410D01*
X46676404Y14111415D01*
X46516452Y14242684D01*
X46333954Y14340232D01*
X46135934Y14400301D01*
X46135929Y14400302D01*
X45930003Y14420583D01*
X45929997Y14420583D01*
X45724070Y14400302D01*
X45724065Y14400301D01*
X45526045Y14340232D01*
X45343547Y14242684D01*
X45183595Y14111415D01*
X45183585Y14111405D01*
X45052316Y13951453D01*
X44954768Y13768955D01*
X44894699Y13570935D01*
X44894698Y13570930D01*
X44874417Y13365004D01*
X44874417Y13364997D01*
X44445583Y13364997D01*
X44445583Y13365004D01*
X44425301Y13570930D01*
X44425300Y13570935D01*
X44407078Y13631004D01*
X44365232Y13768954D01*
X44267685Y13951450D01*
X44255372Y13966453D01*
X44136414Y14111405D01*
X44136410Y14111410D01*
X44136404Y14111415D01*
X43976452Y14242684D01*
X43793954Y14340232D01*
X43595934Y14400301D01*
X43595929Y14400302D01*
X43390003Y14420583D01*
X43389997Y14420583D01*
X43184070Y14400302D01*
X43184065Y14400301D01*
X42986045Y14340232D01*
X42803547Y14242684D01*
X42643595Y14111415D01*
X42643585Y14111405D01*
X42512316Y13951453D01*
X42414768Y13768955D01*
X42354699Y13570935D01*
X42354698Y13570930D01*
X42334417Y13365004D01*
X42334417Y13364997D01*
X41905583Y13364997D01*
X41905583Y13365004D01*
X41885301Y13570930D01*
X41885300Y13570935D01*
X41867078Y13631004D01*
X41825232Y13768954D01*
X41727685Y13951450D01*
X41715372Y13966453D01*
X41596414Y14111405D01*
X41596410Y14111410D01*
X41596404Y14111415D01*
X41436452Y14242684D01*
X41253954Y14340232D01*
X41055934Y14400301D01*
X41055929Y14400302D01*
X40850003Y14420583D01*
X40849997Y14420583D01*
X40644070Y14400302D01*
X40644065Y14400301D01*
X40446045Y14340232D01*
X40263547Y14242684D01*
X40103595Y14111415D01*
X40103585Y14111405D01*
X39972316Y13951453D01*
X39874768Y13768955D01*
X39814699Y13570935D01*
X39814698Y13570930D01*
X39794417Y13365004D01*
X39794417Y13364997D01*
X36820500Y13364997D01*
X36820500Y14234748D01*
X36818921Y14242684D01*
X36815938Y14257684D01*
X36808867Y14293231D01*
X36764552Y14359552D01*
X36764548Y14359555D01*
X36698233Y14403866D01*
X36698231Y14403867D01*
X36698228Y14403868D01*
X36698227Y14403868D01*
X36639758Y14415499D01*
X36639748Y14415500D01*
X34900252Y14415500D01*
X34900251Y14415500D01*
X34900241Y14415499D01*
X34841772Y14403868D01*
X34841766Y14403866D01*
X34775451Y14359555D01*
X34775445Y14359549D01*
X34731134Y14293234D01*
X34731132Y14293228D01*
X34719501Y14234759D01*
X34719500Y14234747D01*
X34719500Y12495254D01*
X33826124Y12495254D01*
X33976410Y12618590D01*
X34107685Y12778550D01*
X34205232Y12961046D01*
X34265300Y13159066D01*
X34265301Y13159071D01*
X34285583Y13364997D01*
X34285583Y13365004D01*
X34265301Y13570930D01*
X34265300Y13570935D01*
X34247078Y13631004D01*
X34205232Y13768954D01*
X34107685Y13951450D01*
X34095372Y13966453D01*
X33976414Y14111405D01*
X33976410Y14111410D01*
X33976404Y14111415D01*
X33816452Y14242684D01*
X33633954Y14340232D01*
X33435934Y14400301D01*
X33435929Y14400302D01*
X33230003Y14420583D01*
X33229997Y14420583D01*
X33024070Y14400302D01*
X33024065Y14400301D01*
X32826045Y14340232D01*
X32643547Y14242684D01*
X32483595Y14111415D01*
X32483585Y14111405D01*
X32352316Y13951453D01*
X32254768Y13768955D01*
X32194699Y13570935D01*
X32194698Y13570930D01*
X32174417Y13365004D01*
X32174417Y13364997D01*
X31745583Y13364997D01*
X31745583Y13365004D01*
X31725301Y13570930D01*
X31725300Y13570935D01*
X31707078Y13631004D01*
X31665232Y13768954D01*
X31567685Y13951450D01*
X31555372Y13966453D01*
X31436414Y14111405D01*
X31436410Y14111410D01*
X31436404Y14111415D01*
X31276452Y14242684D01*
X31093954Y14340232D01*
X30895934Y14400301D01*
X30895929Y14400302D01*
X30690003Y14420583D01*
X30689997Y14420583D01*
X30484070Y14400302D01*
X30484065Y14400301D01*
X30286045Y14340232D01*
X30103547Y14242684D01*
X29943595Y14111415D01*
X29943585Y14111405D01*
X29812316Y13951453D01*
X29714768Y13768955D01*
X29654699Y13570935D01*
X29654698Y13570930D01*
X29634417Y13365004D01*
X29634417Y13364997D01*
X29205583Y13364997D01*
X29205583Y13365004D01*
X29185301Y13570930D01*
X29185300Y13570935D01*
X29167078Y13631004D01*
X29125232Y13768954D01*
X29027685Y13951450D01*
X29015372Y13966453D01*
X28896414Y14111405D01*
X28896410Y14111410D01*
X28896404Y14111415D01*
X28736452Y14242684D01*
X28553954Y14340232D01*
X28355934Y14400301D01*
X28355929Y14400302D01*
X28150003Y14420583D01*
X28149997Y14420583D01*
X27944070Y14400302D01*
X27944065Y14400301D01*
X27746045Y14340232D01*
X27563547Y14242684D01*
X27403595Y14111415D01*
X27403585Y14111405D01*
X27272316Y13951453D01*
X27174768Y13768955D01*
X27114699Y13570935D01*
X27114698Y13570930D01*
X27094417Y13365004D01*
X27094417Y13364997D01*
X26665583Y13364997D01*
X26665583Y13365004D01*
X26645301Y13570930D01*
X26645300Y13570935D01*
X26627078Y13631004D01*
X26585232Y13768954D01*
X26487685Y13951450D01*
X26475372Y13966453D01*
X26356414Y14111405D01*
X26356410Y14111410D01*
X26356404Y14111415D01*
X26196452Y14242684D01*
X26013954Y14340232D01*
X25815934Y14400301D01*
X25815929Y14400302D01*
X25610003Y14420583D01*
X25609997Y14420583D01*
X25404070Y14400302D01*
X25404065Y14400301D01*
X25206045Y14340232D01*
X25023547Y14242684D01*
X24863595Y14111415D01*
X24863585Y14111405D01*
X24732316Y13951453D01*
X24634768Y13768955D01*
X24574699Y13570935D01*
X24574698Y13570930D01*
X24554417Y13365004D01*
X24554417Y13364997D01*
X24125583Y13364997D01*
X24125583Y13365004D01*
X24105301Y13570930D01*
X24105300Y13570935D01*
X24087078Y13631004D01*
X24045232Y13768954D01*
X23947685Y13951450D01*
X23935372Y13966453D01*
X23816414Y14111405D01*
X23816410Y14111410D01*
X23816404Y14111415D01*
X23656452Y14242684D01*
X23473954Y14340232D01*
X23275934Y14400301D01*
X23275929Y14400302D01*
X23070003Y14420583D01*
X23069997Y14420583D01*
X22864070Y14400302D01*
X22864065Y14400301D01*
X22666045Y14340232D01*
X22483547Y14242684D01*
X22323595Y14111415D01*
X22323585Y14111405D01*
X22192316Y13951453D01*
X22094768Y13768955D01*
X22034699Y13570935D01*
X22034698Y13570930D01*
X22014417Y13365004D01*
X22014417Y13364997D01*
X21585583Y13364997D01*
X21585583Y13365004D01*
X21565301Y13570930D01*
X21565300Y13570935D01*
X21547078Y13631004D01*
X21505232Y13768954D01*
X21407685Y13951450D01*
X21395372Y13966453D01*
X21276414Y14111405D01*
X21276410Y14111410D01*
X21276404Y14111415D01*
X21116452Y14242684D01*
X20933954Y14340232D01*
X20735934Y14400301D01*
X20735929Y14400302D01*
X20530003Y14420583D01*
X20529997Y14420583D01*
X20324070Y14400302D01*
X20324065Y14400301D01*
X20126045Y14340232D01*
X19943547Y14242684D01*
X19783595Y14111415D01*
X19783585Y14111405D01*
X19652316Y13951453D01*
X19554768Y13768955D01*
X19494699Y13570935D01*
X19494698Y13570930D01*
X19474417Y13365004D01*
X19474417Y13364997D01*
X5344500Y13364997D01*
X5344500Y17228300D01*
X7338000Y17228300D01*
X7349603Y17169964D01*
X7393806Y17103811D01*
X7393810Y17103807D01*
X7459963Y17059604D01*
X7518299Y17048001D01*
X7518303Y17048000D01*
X8049999Y17048000D01*
X8049999Y17048001D01*
X8050000Y17487809D01*
X8068907Y17546000D01*
X8118407Y17581964D01*
X8178178Y17582411D01*
X8233002Y17565500D01*
X8233006Y17565500D01*
X8333307Y17565500D01*
X8333312Y17565500D01*
X8432499Y17580450D01*
X8432500Y17580451D01*
X8436245Y17581015D01*
X8496603Y17570992D01*
X8539543Y17527405D01*
X8550000Y17483121D01*
X8550000Y17048001D01*
X8550001Y17048000D01*
X9081697Y17048000D01*
X9081700Y17048001D01*
X9140036Y17059604D01*
X9206189Y17103807D01*
X9206193Y17103811D01*
X9250396Y17169964D01*
X9261990Y17228254D01*
X9877500Y17228254D01*
X9877501Y17228242D01*
X9889094Y17169964D01*
X9889133Y17169769D01*
X9933448Y17103448D01*
X9999769Y17059133D01*
X10044231Y17050289D01*
X10058241Y17047502D01*
X10058246Y17047502D01*
X10058252Y17047500D01*
X10058253Y17047500D01*
X11621747Y17047500D01*
X11621748Y17047500D01*
X11680231Y17059133D01*
X11746552Y17103448D01*
X11790867Y17169769D01*
X11802500Y17228252D01*
X11802500Y17228300D01*
X12418000Y17228300D01*
X12429603Y17169964D01*
X12473806Y17103811D01*
X12473810Y17103807D01*
X12539963Y17059604D01*
X12598299Y17048001D01*
X12598303Y17048000D01*
X13129999Y17048000D01*
X13129999Y17048001D01*
X13130000Y17487809D01*
X13148907Y17546000D01*
X13198407Y17581964D01*
X13258178Y17582411D01*
X13313002Y17565500D01*
X13313006Y17565500D01*
X13413307Y17565500D01*
X13413312Y17565500D01*
X13512499Y17580450D01*
X13512500Y17580451D01*
X13516245Y17581015D01*
X13576603Y17570992D01*
X13619543Y17527405D01*
X13630000Y17483121D01*
X13630000Y17048001D01*
X13630001Y17048000D01*
X14161697Y17048000D01*
X14161700Y17048001D01*
X14220036Y17059604D01*
X14286189Y17103807D01*
X14286193Y17103811D01*
X14330396Y17169964D01*
X14341999Y17228300D01*
X14342000Y17228303D01*
X14342000Y17759999D01*
X14341999Y17760000D01*
X13903012Y17760000D01*
X13844821Y17778907D01*
X13808857Y17828407D01*
X13806494Y17881029D01*
X13828264Y17976407D01*
X13818251Y18110028D01*
X13812441Y18124832D01*
X13808783Y18185908D01*
X13841722Y18237470D01*
X13898678Y18259823D01*
X13904598Y18260000D01*
X14341999Y18260000D01*
X14342000Y18260001D01*
X14342000Y18280254D01*
X33485350Y18280254D01*
X33485351Y18280242D01*
X33496982Y18221773D01*
X33496984Y18221767D01*
X33538027Y18160343D01*
X33541298Y18155448D01*
X33607619Y18111133D01*
X33652081Y18102289D01*
X33666091Y18099502D01*
X33666096Y18099502D01*
X33666102Y18099500D01*
X33666103Y18099500D01*
X34905597Y18099500D01*
X34905598Y18099500D01*
X34964081Y18111133D01*
X35030402Y18155448D01*
X35074717Y18221769D01*
X35086350Y18280252D01*
X35086350Y18280254D01*
X35985350Y18280254D01*
X35985351Y18280242D01*
X35996982Y18221773D01*
X35996984Y18221767D01*
X36038027Y18160343D01*
X36041298Y18155448D01*
X36107619Y18111133D01*
X36152081Y18102289D01*
X36166091Y18099502D01*
X36166096Y18099502D01*
X36166102Y18099500D01*
X36166103Y18099500D01*
X37405597Y18099500D01*
X37405598Y18099500D01*
X37464081Y18111133D01*
X37530402Y18155448D01*
X37574717Y18221769D01*
X37586350Y18280252D01*
X37586350Y18280254D01*
X38485350Y18280254D01*
X38485351Y18280242D01*
X38496982Y18221773D01*
X38496984Y18221767D01*
X38538027Y18160343D01*
X38541298Y18155448D01*
X38607619Y18111133D01*
X38652081Y18102289D01*
X38666091Y18099502D01*
X38666096Y18099502D01*
X38666102Y18099500D01*
X38666103Y18099500D01*
X39905597Y18099500D01*
X39905598Y18099500D01*
X39964081Y18111133D01*
X40030402Y18155448D01*
X40074717Y18221769D01*
X40086350Y18280252D01*
X40086350Y18850000D01*
X40985850Y18850000D01*
X40985850Y18280300D01*
X40997453Y18221964D01*
X41041656Y18155811D01*
X41041660Y18155807D01*
X41107813Y18111604D01*
X41166149Y18100001D01*
X41166153Y18100000D01*
X41535849Y18100000D01*
X41535850Y18100001D01*
X41535850Y18850000D01*
X42035850Y18850000D01*
X42035850Y18100002D01*
X42035851Y18100000D01*
X42405547Y18100000D01*
X42405550Y18100001D01*
X42463886Y18111604D01*
X42530039Y18155807D01*
X42530043Y18155811D01*
X42559570Y18200000D01*
X43194318Y18200000D01*
X43214955Y18043242D01*
X43214957Y18043234D01*
X43275462Y17897162D01*
X43275462Y17897161D01*
X43371713Y17771724D01*
X43371718Y17771718D01*
X43371722Y17771715D01*
X43371723Y17771714D01*
X43401082Y17749187D01*
X43497159Y17675464D01*
X43497160Y17675464D01*
X43497161Y17675463D01*
X43643233Y17614958D01*
X43643238Y17614956D01*
X43800000Y17594318D01*
X43853272Y17601332D01*
X43912199Y17590840D01*
X44035625Y17526060D01*
X44200794Y17485350D01*
X44200797Y17485350D01*
X44370903Y17485350D01*
X44370906Y17485350D01*
X44536075Y17526060D01*
X44572266Y17545056D01*
X44631202Y17555549D01*
X44637944Y17554661D01*
X44794706Y17575299D01*
X44940785Y17635807D01*
X45066226Y17732061D01*
X45162480Y17857502D01*
X45222988Y18003581D01*
X45243626Y18160343D01*
X45227840Y18280254D01*
X45985350Y18280254D01*
X45985351Y18280242D01*
X45996982Y18221773D01*
X45996984Y18221767D01*
X46038027Y18160343D01*
X46041298Y18155448D01*
X46107619Y18111133D01*
X46152081Y18102289D01*
X46166091Y18099502D01*
X46166096Y18099502D01*
X46166102Y18099500D01*
X46166103Y18099500D01*
X47405597Y18099500D01*
X47405598Y18099500D01*
X47464081Y18111133D01*
X47530402Y18155448D01*
X47574717Y18221769D01*
X47586350Y18280252D01*
X47586350Y18280300D01*
X48485850Y18280300D01*
X48497453Y18221964D01*
X48541656Y18155811D01*
X48541660Y18155807D01*
X48607813Y18111604D01*
X48666149Y18100001D01*
X48666153Y18100000D01*
X49035849Y18100000D01*
X49035850Y18100001D01*
X49035850Y18849999D01*
X49035849Y18850000D01*
X49535850Y18850000D01*
X49535850Y18100001D01*
X49535851Y18100000D01*
X49905547Y18100000D01*
X49905550Y18100001D01*
X49963886Y18111604D01*
X50030039Y18155807D01*
X50030043Y18155811D01*
X50074246Y18221964D01*
X50085840Y18280254D01*
X50915350Y18280254D01*
X50915351Y18280242D01*
X50926982Y18221773D01*
X50926984Y18221767D01*
X50968027Y18160343D01*
X50971298Y18155448D01*
X51037619Y18111133D01*
X51082081Y18102289D01*
X51096091Y18099502D01*
X51096096Y18099502D01*
X51096102Y18099500D01*
X51096103Y18099500D01*
X52335597Y18099500D01*
X52335598Y18099500D01*
X52394081Y18111133D01*
X52460402Y18155448D01*
X52504717Y18221769D01*
X52516350Y18280252D01*
X52516350Y18280254D01*
X52715350Y18280254D01*
X52715351Y18280242D01*
X52726982Y18221773D01*
X52726984Y18221767D01*
X52768027Y18160343D01*
X52771298Y18155448D01*
X52837619Y18111133D01*
X52882081Y18102289D01*
X52896091Y18099502D01*
X52896096Y18099502D01*
X52896102Y18099500D01*
X52896103Y18099500D01*
X54135597Y18099500D01*
X54135598Y18099500D01*
X54194081Y18111133D01*
X54260402Y18155448D01*
X54304717Y18221769D01*
X54316350Y18280252D01*
X54316350Y19919748D01*
X54304717Y19978231D01*
X54260402Y20044552D01*
X54226201Y20067405D01*
X54194083Y20088866D01*
X54194081Y20088867D01*
X54194078Y20088868D01*
X54194077Y20088868D01*
X54135608Y20100499D01*
X54135598Y20100500D01*
X52896102Y20100500D01*
X52896101Y20100500D01*
X52896091Y20100499D01*
X52837622Y20088868D01*
X52837616Y20088866D01*
X52771301Y20044555D01*
X52771295Y20044549D01*
X52726984Y19978234D01*
X52726982Y19978228D01*
X52715351Y19919759D01*
X52715350Y19919747D01*
X52715350Y18280254D01*
X52516350Y18280254D01*
X52516350Y19919748D01*
X52504717Y19978231D01*
X52460402Y20044552D01*
X52426201Y20067405D01*
X52394083Y20088866D01*
X52394081Y20088867D01*
X52394078Y20088868D01*
X52394077Y20088868D01*
X52335608Y20100499D01*
X52335598Y20100500D01*
X51096102Y20100500D01*
X51096101Y20100500D01*
X51096091Y20100499D01*
X51037622Y20088868D01*
X51037616Y20088866D01*
X50971301Y20044555D01*
X50971295Y20044549D01*
X50926984Y19978234D01*
X50926982Y19978228D01*
X50915351Y19919759D01*
X50915350Y19919747D01*
X50915350Y18280254D01*
X50085840Y18280254D01*
X50085849Y18280300D01*
X50085850Y18280303D01*
X50085850Y18850000D01*
X49535850Y18850000D01*
X49035849Y18850000D01*
X48485851Y18850000D01*
X48485850Y18849999D01*
X48485850Y18280300D01*
X47586350Y18280300D01*
X47586350Y19350002D01*
X48485850Y19350002D01*
X48485851Y19350000D01*
X49035849Y19350000D01*
X49035850Y19350001D01*
X49535850Y19350001D01*
X49535851Y19350000D01*
X50085849Y19350000D01*
X50085850Y19350001D01*
X50085850Y19919698D01*
X50085849Y19919701D01*
X50074246Y19978037D01*
X50030043Y20044190D01*
X50030039Y20044194D01*
X49963886Y20088397D01*
X49905550Y20100000D01*
X49535851Y20100000D01*
X49535850Y20099999D01*
X49535850Y19350001D01*
X49035850Y19350001D01*
X49035850Y19350002D01*
X49035850Y20099999D01*
X49035849Y20100000D01*
X48666149Y20100000D01*
X48607813Y20088397D01*
X48541660Y20044194D01*
X48541656Y20044190D01*
X48497453Y19978037D01*
X48485850Y19919701D01*
X48485850Y19350002D01*
X47586350Y19350002D01*
X47586350Y19919748D01*
X47574717Y19978231D01*
X47530402Y20044552D01*
X47496201Y20067405D01*
X47464083Y20088866D01*
X47464081Y20088867D01*
X47464078Y20088868D01*
X47464077Y20088868D01*
X47405608Y20100499D01*
X47405598Y20100500D01*
X46166102Y20100500D01*
X46166101Y20100500D01*
X46166091Y20100499D01*
X46107622Y20088868D01*
X46107616Y20088866D01*
X46041301Y20044555D01*
X46041295Y20044549D01*
X45996984Y19978234D01*
X45996982Y19978228D01*
X45985351Y19919759D01*
X45985350Y19919747D01*
X45985350Y18280254D01*
X45227840Y18280254D01*
X45222988Y18317105D01*
X45206562Y18356762D01*
X45162481Y18463182D01*
X45162481Y18463183D01*
X45106808Y18535738D01*
X45086384Y18593414D01*
X45086350Y18596005D01*
X45086350Y19919747D01*
X45086348Y19919759D01*
X45079248Y19955452D01*
X45074717Y19978231D01*
X45030402Y20044552D01*
X44996201Y20067405D01*
X44964083Y20088866D01*
X44964081Y20088867D01*
X44964078Y20088868D01*
X44964077Y20088868D01*
X44905608Y20100499D01*
X44905598Y20100500D01*
X43666102Y20100500D01*
X43666101Y20100500D01*
X43666091Y20100499D01*
X43607622Y20088868D01*
X43607616Y20088866D01*
X43541301Y20044555D01*
X43541295Y20044549D01*
X43496984Y19978234D01*
X43496982Y19978228D01*
X43485351Y19919759D01*
X43485350Y19919747D01*
X43485350Y18764297D01*
X43466443Y18706106D01*
X43446618Y18685755D01*
X43371720Y18628284D01*
X43371713Y18628277D01*
X43275462Y18502840D01*
X43275462Y18502839D01*
X43214957Y18356767D01*
X43214955Y18356759D01*
X43194318Y18200001D01*
X43194318Y18200000D01*
X42559570Y18200000D01*
X42574246Y18221964D01*
X42585849Y18280300D01*
X42585850Y18280303D01*
X42585850Y18849999D01*
X42585849Y18850000D01*
X42035850Y18850000D01*
X41535850Y18850000D01*
X40985850Y18850000D01*
X40086350Y18850000D01*
X40086350Y19350001D01*
X40985850Y19350001D01*
X40985851Y19350000D01*
X41535849Y19350000D01*
X41535850Y19350001D01*
X42035850Y19350001D01*
X42035851Y19350000D01*
X42585849Y19350000D01*
X42585850Y19350001D01*
X42585850Y19919698D01*
X42585849Y19919701D01*
X42574246Y19978037D01*
X42530043Y20044190D01*
X42530039Y20044194D01*
X42463886Y20088397D01*
X42405550Y20100000D01*
X42035851Y20100000D01*
X42035850Y20099999D01*
X42035850Y19350001D01*
X41535850Y19350001D01*
X41535850Y20099999D01*
X41535849Y20100000D01*
X41166149Y20100000D01*
X41107813Y20088397D01*
X41041660Y20044194D01*
X41041656Y20044190D01*
X40997453Y19978037D01*
X40985850Y19919701D01*
X40985850Y19350001D01*
X40086350Y19350001D01*
X40086350Y19919748D01*
X40074717Y19978231D01*
X40030402Y20044552D01*
X39996201Y20067405D01*
X39964083Y20088866D01*
X39964081Y20088867D01*
X39964078Y20088868D01*
X39964077Y20088868D01*
X39905608Y20100499D01*
X39905598Y20100500D01*
X38666102Y20100500D01*
X38666101Y20100500D01*
X38666091Y20100499D01*
X38607622Y20088868D01*
X38607616Y20088866D01*
X38541301Y20044555D01*
X38541295Y20044549D01*
X38496984Y19978234D01*
X38496982Y19978228D01*
X38485351Y19919759D01*
X38485350Y19919747D01*
X38485350Y18280254D01*
X37586350Y18280254D01*
X37586350Y19919748D01*
X37574717Y19978231D01*
X37530402Y20044552D01*
X37496201Y20067405D01*
X37464083Y20088866D01*
X37464081Y20088867D01*
X37464078Y20088868D01*
X37464077Y20088868D01*
X37405608Y20100499D01*
X37405598Y20100500D01*
X36166102Y20100500D01*
X36166101Y20100500D01*
X36166091Y20100499D01*
X36107622Y20088868D01*
X36107616Y20088866D01*
X36041301Y20044555D01*
X36041295Y20044549D01*
X35996984Y19978234D01*
X35996982Y19978228D01*
X35985351Y19919759D01*
X35985350Y19919747D01*
X35985350Y18280254D01*
X35086350Y18280254D01*
X35086350Y19919748D01*
X35074717Y19978231D01*
X35030402Y20044552D01*
X34996201Y20067405D01*
X34964083Y20088866D01*
X34964081Y20088867D01*
X34964078Y20088868D01*
X34964077Y20088868D01*
X34905608Y20100499D01*
X34905598Y20100500D01*
X33666102Y20100500D01*
X33666101Y20100500D01*
X33666091Y20100499D01*
X33607622Y20088868D01*
X33607616Y20088866D01*
X33541301Y20044555D01*
X33541295Y20044549D01*
X33496984Y19978234D01*
X33496982Y19978228D01*
X33485351Y19919759D01*
X33485350Y19919747D01*
X33485350Y18280254D01*
X14342000Y18280254D01*
X14342000Y18791698D01*
X14341999Y18791701D01*
X14330396Y18850037D01*
X14286193Y18916190D01*
X14286189Y18916194D01*
X14220036Y18960397D01*
X14161700Y18972000D01*
X13630001Y18972000D01*
X13630000Y18971999D01*
X13630000Y18532192D01*
X13611093Y18474001D01*
X13561593Y18438037D01*
X13501821Y18437590D01*
X13447000Y18454500D01*
X13446998Y18454500D01*
X13346688Y18454500D01*
X13346681Y18454500D01*
X13243754Y18438987D01*
X13183395Y18449011D01*
X13140456Y18492598D01*
X13130000Y18536881D01*
X13130000Y18972000D01*
X12598299Y18972000D01*
X12539963Y18960397D01*
X12473810Y18916194D01*
X12473806Y18916190D01*
X12429603Y18850037D01*
X12418000Y18791701D01*
X12418000Y18260001D01*
X12418001Y18260000D01*
X12856988Y18260000D01*
X12915179Y18241093D01*
X12951143Y18191593D01*
X12953505Y18138972D01*
X12931736Y18043593D01*
X12931735Y18043593D01*
X12941748Y17909976D01*
X12941749Y17909972D01*
X12947559Y17895168D01*
X12951217Y17834092D01*
X12918278Y17782530D01*
X12861322Y17760177D01*
X12855402Y17760000D01*
X12418001Y17760000D01*
X12418000Y17759999D01*
X12418000Y17228300D01*
X11802500Y17228300D01*
X11802500Y18791748D01*
X11790867Y18850231D01*
X11746552Y18916552D01*
X11746548Y18916555D01*
X11680233Y18960866D01*
X11680231Y18960867D01*
X11680228Y18960868D01*
X11680227Y18960868D01*
X11621758Y18972499D01*
X11621748Y18972500D01*
X10058252Y18972500D01*
X10058251Y18972500D01*
X10058241Y18972499D01*
X9999772Y18960868D01*
X9999766Y18960866D01*
X9933451Y18916555D01*
X9933445Y18916549D01*
X9889134Y18850234D01*
X9889132Y18850228D01*
X9877501Y18791759D01*
X9877500Y18791747D01*
X9877500Y17228254D01*
X9261990Y17228254D01*
X9261999Y17228300D01*
X9262000Y17228303D01*
X9262000Y17759999D01*
X9261999Y17760000D01*
X8823012Y17760000D01*
X8764821Y17778907D01*
X8728857Y17828407D01*
X8726494Y17881029D01*
X8748264Y17976407D01*
X8738251Y18110028D01*
X8732441Y18124832D01*
X8728783Y18185908D01*
X8761722Y18237470D01*
X8818678Y18259823D01*
X8824598Y18260000D01*
X9261999Y18260000D01*
X9262000Y18260001D01*
X9262000Y18791698D01*
X9261999Y18791701D01*
X9250396Y18850037D01*
X9206193Y18916190D01*
X9206189Y18916194D01*
X9140036Y18960397D01*
X9081700Y18972000D01*
X8550001Y18972000D01*
X8550000Y18971999D01*
X8550000Y18532192D01*
X8531093Y18474001D01*
X8481593Y18438037D01*
X8421821Y18437590D01*
X8367000Y18454500D01*
X8366998Y18454500D01*
X8266688Y18454500D01*
X8266681Y18454500D01*
X8163754Y18438987D01*
X8103395Y18449011D01*
X8060456Y18492598D01*
X8050000Y18536881D01*
X8050000Y18972000D01*
X7518299Y18972000D01*
X7459963Y18960397D01*
X7393810Y18916194D01*
X7393806Y18916190D01*
X7349603Y18850037D01*
X7338000Y18791701D01*
X7338000Y18260001D01*
X7338001Y18260000D01*
X7776988Y18260000D01*
X7835179Y18241093D01*
X7871143Y18191593D01*
X7873505Y18138972D01*
X7851736Y18043593D01*
X7851735Y18043593D01*
X7861748Y17909976D01*
X7861749Y17909972D01*
X7867559Y17895168D01*
X7871217Y17834092D01*
X7838278Y17782530D01*
X7781322Y17760177D01*
X7775402Y17760000D01*
X7338001Y17760000D01*
X7338000Y17759999D01*
X7338000Y17228300D01*
X5344500Y17228300D01*
X5344500Y19768300D01*
X7338000Y19768300D01*
X7349603Y19709964D01*
X7393806Y19643811D01*
X7393810Y19643807D01*
X7459963Y19599604D01*
X7518299Y19588001D01*
X7518303Y19588000D01*
X8049999Y19588000D01*
X8049999Y19588001D01*
X8050000Y20027809D01*
X8068907Y20086000D01*
X8118407Y20121964D01*
X8178178Y20122411D01*
X8233002Y20105500D01*
X8233006Y20105500D01*
X8333307Y20105500D01*
X8333312Y20105500D01*
X8432499Y20120450D01*
X8432500Y20120451D01*
X8436245Y20121015D01*
X8496603Y20110992D01*
X8539543Y20067405D01*
X8550000Y20023121D01*
X8550000Y19588001D01*
X8550001Y19588000D01*
X9081697Y19588000D01*
X9081700Y19588001D01*
X9140036Y19599604D01*
X9206189Y19643807D01*
X9206193Y19643811D01*
X9250396Y19709964D01*
X9261990Y19768254D01*
X9877500Y19768254D01*
X9877501Y19768242D01*
X9889094Y19709964D01*
X9889133Y19709769D01*
X9933448Y19643448D01*
X9999769Y19599133D01*
X10044231Y19590289D01*
X10058241Y19587502D01*
X10058246Y19587502D01*
X10058252Y19587500D01*
X10058253Y19587500D01*
X11621747Y19587500D01*
X11621748Y19587500D01*
X11680231Y19599133D01*
X11746552Y19643448D01*
X11790867Y19709769D01*
X11802500Y19768252D01*
X11802500Y19768300D01*
X12418000Y19768300D01*
X12429603Y19709964D01*
X12473806Y19643811D01*
X12473810Y19643807D01*
X12539963Y19599604D01*
X12598299Y19588001D01*
X12598303Y19588000D01*
X13129999Y19588000D01*
X13129999Y19588001D01*
X13130000Y20027809D01*
X13148907Y20086000D01*
X13198407Y20121964D01*
X13258178Y20122411D01*
X13313002Y20105500D01*
X13313006Y20105500D01*
X13413307Y20105500D01*
X13413312Y20105500D01*
X13512499Y20120450D01*
X13512500Y20120451D01*
X13516245Y20121015D01*
X13576603Y20110992D01*
X13619543Y20067405D01*
X13630000Y20023121D01*
X13630000Y19588001D01*
X13630001Y19588000D01*
X14161697Y19588000D01*
X14161700Y19588001D01*
X14220036Y19599604D01*
X14286189Y19643807D01*
X14286193Y19643811D01*
X14330396Y19709964D01*
X14341999Y19768300D01*
X14342000Y19768303D01*
X14342000Y20080254D01*
X25500350Y20080254D01*
X25500351Y20080242D01*
X25511982Y20021773D01*
X25511984Y20021767D01*
X25541204Y19978037D01*
X25556298Y19955448D01*
X25622619Y19911133D01*
X25667081Y19902289D01*
X25681091Y19899502D01*
X25681096Y19899502D01*
X25681102Y19899500D01*
X25681103Y19899500D01*
X28220597Y19899500D01*
X28220598Y19899500D01*
X28279081Y19911133D01*
X28345402Y19955448D01*
X28389717Y20021769D01*
X28401350Y20080252D01*
X28401350Y21950000D01*
X45544818Y21950000D01*
X45565455Y21793242D01*
X45565457Y21793234D01*
X45625961Y21647164D01*
X45625962Y21647161D01*
X45722213Y21521724D01*
X45722218Y21521718D01*
X45847659Y21425464D01*
X45847660Y21425464D01*
X45847661Y21425463D01*
X45932719Y21390231D01*
X45993738Y21364956D01*
X46111309Y21349478D01*
X46150499Y21344318D01*
X46150500Y21344318D01*
X46150501Y21344318D01*
X46181852Y21348446D01*
X46307262Y21364956D01*
X46453341Y21425464D01*
X46578782Y21521718D01*
X46578781Y21521718D01*
X46583930Y21525668D01*
X46584990Y21524287D01*
X46632084Y21548281D01*
X46647571Y21549500D01*
X53081522Y21549500D01*
X53111729Y21554285D01*
X53175304Y21564354D01*
X53288342Y21621950D01*
X53378050Y21711658D01*
X53435646Y21824696D01*
X53455492Y21950000D01*
X53435646Y22075304D01*
X53378050Y22188342D01*
X53288342Y22278050D01*
X53175304Y22335646D01*
X53175305Y22335646D01*
X53081522Y22350500D01*
X53081519Y22350500D01*
X46647571Y22350500D01*
X46589380Y22369407D01*
X46580812Y22376724D01*
X46494298Y22443108D01*
X46453341Y22474536D01*
X46453340Y22474537D01*
X46453338Y22474538D01*
X46307266Y22535043D01*
X46307258Y22535045D01*
X46150501Y22555682D01*
X46150499Y22555682D01*
X45993741Y22535045D01*
X45993733Y22535043D01*
X45847661Y22474538D01*
X45847660Y22474538D01*
X45722223Y22378287D01*
X45722213Y22378277D01*
X45625962Y22252840D01*
X45625962Y22252839D01*
X45565457Y22106767D01*
X45565455Y22106759D01*
X45544818Y21950001D01*
X45544818Y21950000D01*
X28401350Y21950000D01*
X28401350Y25119748D01*
X28389717Y25178231D01*
X28345402Y25244552D01*
X28345398Y25244555D01*
X28279083Y25288866D01*
X28279081Y25288867D01*
X28279078Y25288868D01*
X28279077Y25288868D01*
X28220608Y25300499D01*
X28220598Y25300500D01*
X25681102Y25300500D01*
X25681101Y25300500D01*
X25681091Y25300499D01*
X25622622Y25288868D01*
X25622616Y25288866D01*
X25556301Y25244555D01*
X25556295Y25244549D01*
X25511984Y25178234D01*
X25511982Y25178228D01*
X25500351Y25119759D01*
X25500350Y25119747D01*
X25500350Y20080254D01*
X14342000Y20080254D01*
X14342000Y20299999D01*
X14341999Y20300000D01*
X13903012Y20300000D01*
X13844821Y20318907D01*
X13808857Y20368407D01*
X13806494Y20421029D01*
X13828264Y20516407D01*
X13818251Y20650028D01*
X13812441Y20664832D01*
X13808783Y20725908D01*
X13841722Y20777470D01*
X13898678Y20799823D01*
X13904598Y20800000D01*
X14341999Y20800000D01*
X14342000Y20800001D01*
X14342000Y21331698D01*
X14341999Y21331701D01*
X14330396Y21390037D01*
X14286193Y21456190D01*
X14286189Y21456194D01*
X14220036Y21500397D01*
X14161700Y21512000D01*
X13630001Y21512000D01*
X13630000Y21511999D01*
X13630000Y21072192D01*
X13611093Y21014001D01*
X13561593Y20978037D01*
X13501821Y20977590D01*
X13447000Y20994500D01*
X13446998Y20994500D01*
X13346688Y20994500D01*
X13346681Y20994500D01*
X13243754Y20978987D01*
X13183395Y20989011D01*
X13140456Y21032598D01*
X13130000Y21076881D01*
X13130000Y21512000D01*
X12598299Y21512000D01*
X12539963Y21500397D01*
X12473810Y21456194D01*
X12473806Y21456190D01*
X12429603Y21390037D01*
X12418000Y21331701D01*
X12418000Y20800001D01*
X12418001Y20800000D01*
X12856988Y20800000D01*
X12915179Y20781093D01*
X12951143Y20731593D01*
X12953505Y20678972D01*
X12931736Y20583593D01*
X12931735Y20583593D01*
X12941748Y20449976D01*
X12941749Y20449972D01*
X12947559Y20435168D01*
X12951217Y20374092D01*
X12918278Y20322530D01*
X12861322Y20300177D01*
X12855402Y20300000D01*
X12418001Y20300000D01*
X12418000Y20299999D01*
X12418000Y19768300D01*
X11802500Y19768300D01*
X11802500Y21331748D01*
X11790867Y21390231D01*
X11746552Y21456552D01*
X11746548Y21456555D01*
X11680233Y21500866D01*
X11680231Y21500867D01*
X11680228Y21500868D01*
X11680227Y21500868D01*
X11621758Y21512499D01*
X11621748Y21512500D01*
X10058252Y21512500D01*
X10058251Y21512500D01*
X10058241Y21512499D01*
X9999772Y21500868D01*
X9999766Y21500866D01*
X9933451Y21456555D01*
X9933445Y21456549D01*
X9889134Y21390234D01*
X9889132Y21390228D01*
X9877501Y21331759D01*
X9877500Y21331747D01*
X9877500Y19768254D01*
X9261990Y19768254D01*
X9261999Y19768300D01*
X9262000Y19768303D01*
X9262000Y20299999D01*
X9261999Y20300000D01*
X8823012Y20300000D01*
X8764821Y20318907D01*
X8728857Y20368407D01*
X8726494Y20421029D01*
X8748264Y20516407D01*
X8738251Y20650028D01*
X8732441Y20664832D01*
X8728783Y20725908D01*
X8761722Y20777470D01*
X8818678Y20799823D01*
X8824598Y20800000D01*
X9261999Y20800000D01*
X9262000Y20800001D01*
X9262000Y21331698D01*
X9261999Y21331701D01*
X9250396Y21390037D01*
X9206193Y21456190D01*
X9206189Y21456194D01*
X9140036Y21500397D01*
X9081700Y21512000D01*
X8550000Y21512000D01*
X8550000Y21072192D01*
X8531093Y21014001D01*
X8481593Y20978037D01*
X8421821Y20977590D01*
X8367000Y20994500D01*
X8366998Y20994500D01*
X8266688Y20994500D01*
X8266681Y20994500D01*
X8163754Y20978987D01*
X8103395Y20989011D01*
X8060456Y21032598D01*
X8050000Y21076881D01*
X8050000Y21512000D01*
X7518299Y21512000D01*
X7459963Y21500397D01*
X7393810Y21456194D01*
X7393806Y21456190D01*
X7349603Y21390037D01*
X7338000Y21331701D01*
X7338000Y20800001D01*
X7338001Y20800000D01*
X7776988Y20800000D01*
X7835179Y20781093D01*
X7871143Y20731593D01*
X7873505Y20678972D01*
X7851736Y20583593D01*
X7851735Y20583593D01*
X7861748Y20449976D01*
X7861749Y20449972D01*
X7867559Y20435168D01*
X7871217Y20374092D01*
X7838278Y20322530D01*
X7781322Y20300177D01*
X7775402Y20300000D01*
X7338001Y20300000D01*
X7338000Y20299999D01*
X7338000Y19768300D01*
X5344500Y19768300D01*
X5344500Y24480001D01*
X13935280Y24480001D01*
X13954141Y24192230D01*
X14010406Y23909370D01*
X14103106Y23636285D01*
X14230656Y23377641D01*
X14390875Y23137858D01*
X14390878Y23137853D01*
X14415836Y23109394D01*
X15084038Y23777595D01*
X15138555Y23805372D01*
X15198987Y23795801D01*
X15227203Y23774287D01*
X15339297Y23651328D01*
X15361931Y23626500D01*
X15429601Y23575398D01*
X15464643Y23525242D01*
X15463512Y23464068D01*
X15439943Y23426391D01*
X14769391Y22755839D01*
X14797851Y22730880D01*
X14797856Y22730877D01*
X15037639Y22570658D01*
X15296283Y22443108D01*
X15569368Y22350408D01*
X15852228Y22294143D01*
X16140000Y22275281D01*
X16427771Y22294143D01*
X16710631Y22350408D01*
X16983716Y22443108D01*
X17242360Y22570658D01*
X17482144Y22730878D01*
X17482151Y22730882D01*
X17510607Y22755839D01*
X16840056Y23426391D01*
X16812279Y23480908D01*
X16821850Y23541340D01*
X16850395Y23575396D01*
X16918069Y23626500D01*
X17052797Y23774289D01*
X17105970Y23804553D01*
X17166779Y23797782D01*
X17195960Y23777595D01*
X17864162Y23109394D01*
X17889119Y23137850D01*
X17889123Y23137857D01*
X18049343Y23377641D01*
X18176893Y23636285D01*
X18269593Y23909370D01*
X18325858Y24192230D01*
X18344720Y24480001D01*
X18344720Y24480002D01*
X18325858Y24767773D01*
X18269593Y25050633D01*
X18176893Y25323718D01*
X18049343Y25582362D01*
X17889124Y25822145D01*
X17889121Y25822150D01*
X17864161Y25850610D01*
X17195959Y25182409D01*
X17141443Y25154632D01*
X17081011Y25164203D01*
X17052795Y25185717D01*
X16918075Y25333495D01*
X16918069Y25333502D01*
X16918061Y25333508D01*
X16918058Y25333511D01*
X16850398Y25384606D01*
X16815355Y25434762D01*
X16816486Y25495937D01*
X16840055Y25533613D01*
X17510607Y26204165D01*
X17482148Y26229123D01*
X17482143Y26229126D01*
X17242360Y26389345D01*
X16983716Y26516895D01*
X16710631Y26609595D01*
X16427771Y26665860D01*
X16140000Y26684721D01*
X15852228Y26665860D01*
X15569368Y26609595D01*
X15296283Y26516895D01*
X15037639Y26389345D01*
X14797849Y26229122D01*
X14797847Y26229120D01*
X14769391Y26204165D01*
X15439943Y25533612D01*
X15467720Y25479095D01*
X15458149Y25418663D01*
X15429601Y25384605D01*
X15361937Y25333507D01*
X15361934Y25333505D01*
X15361931Y25333502D01*
X15361927Y25333499D01*
X15361924Y25333495D01*
X15227204Y25185716D01*
X15174029Y25155450D01*
X15113219Y25162221D01*
X15084039Y25182408D01*
X14415836Y25850610D01*
X14390881Y25822154D01*
X14390879Y25822152D01*
X14230656Y25582362D01*
X14103106Y25323718D01*
X14010406Y25050633D01*
X13954141Y24767773D01*
X13935280Y24480002D01*
X13935280Y24480001D01*
X5344500Y24480001D01*
X5344500Y27778869D01*
X35501810Y27778869D01*
X35522447Y27622111D01*
X35522449Y27622103D01*
X35582954Y27476031D01*
X35582954Y27476030D01*
X35582956Y27476028D01*
X35679210Y27350587D01*
X35804651Y27254333D01*
X35950730Y27193825D01*
X36057747Y27179736D01*
X36107491Y27173187D01*
X36107492Y27173187D01*
X36107493Y27173187D01*
X36159267Y27180004D01*
X36205568Y27186099D01*
X36265729Y27174949D01*
X36307846Y27130567D01*
X36316643Y27100869D01*
X36327455Y27018742D01*
X36327457Y27018735D01*
X36387962Y26872663D01*
X36387962Y26872662D01*
X36387964Y26872660D01*
X36484218Y26747219D01*
X36609659Y26650965D01*
X36755738Y26590457D01*
X36873309Y26574979D01*
X36912499Y26569819D01*
X36912500Y26569819D01*
X36912501Y26569819D01*
X36943852Y26573947D01*
X37069262Y26590457D01*
X37215341Y26650965D01*
X37340782Y26747219D01*
X37437036Y26872660D01*
X37497544Y27018739D01*
X37500135Y27038422D01*
X37526476Y27093646D01*
X37580246Y27122841D01*
X37598288Y27124499D01*
X54609129Y27124499D01*
X54622804Y27122267D01*
X54622976Y27123493D01*
X54632057Y27122227D01*
X54632058Y27122226D01*
X54632058Y27122227D01*
X54632059Y27122226D01*
X54640800Y27122631D01*
X54680086Y27124447D01*
X54682363Y27124499D01*
X54702134Y27124499D01*
X54702137Y27124499D01*
X54705630Y27125153D01*
X54712434Y27125943D01*
X54744285Y27127414D01*
X54753269Y27131382D01*
X54775070Y27138134D01*
X54784726Y27139938D01*
X54811836Y27156725D01*
X54817882Y27159911D01*
X54847058Y27172793D01*
X54854002Y27179739D01*
X54871894Y27193910D01*
X54880245Y27199080D01*
X54899458Y27224525D01*
X54903955Y27229691D01*
X56042189Y28367925D01*
X57180438Y29506175D01*
X57234953Y29533950D01*
X57263361Y29534322D01*
X57318451Y29527070D01*
X57374646Y29519671D01*
X57374647Y29519671D01*
X57374648Y29519671D01*
X57405999Y29523799D01*
X57531409Y29540309D01*
X57677488Y29600817D01*
X57802929Y29697071D01*
X57899183Y29822512D01*
X57959691Y29968591D01*
X57980329Y30125353D01*
X57975984Y30158353D01*
X57971787Y30190233D01*
X57959691Y30282115D01*
X57958843Y30284163D01*
X57899184Y30428192D01*
X57899184Y30428193D01*
X57802933Y30553630D01*
X57802932Y30553631D01*
X57802929Y30553635D01*
X57802924Y30553639D01*
X57802923Y30553640D01*
X57692102Y30638675D01*
X57677488Y30649889D01*
X57677486Y30649890D01*
X57572134Y30693529D01*
X57525608Y30733266D01*
X57511325Y30792761D01*
X57534740Y30849289D01*
X57540003Y30854984D01*
X57624453Y30939434D01*
X57678968Y30967209D01*
X57732338Y30960893D01*
X57843238Y30914956D01*
X58000000Y30894318D01*
X58051997Y30901164D01*
X58112157Y30890014D01*
X58154275Y30845632D01*
X58158143Y30833991D01*
X58161134Y30826768D01*
X58199220Y30769769D01*
X58205448Y30760449D01*
X58271769Y30716134D01*
X58316231Y30707290D01*
X58330241Y30704503D01*
X58330246Y30704503D01*
X58330252Y30704501D01*
X58330253Y30704501D01*
X60069747Y30704501D01*
X60069748Y30704501D01*
X60128231Y30716134D01*
X60135496Y30720989D01*
X60194385Y30737599D01*
X60251789Y30716423D01*
X60285783Y30665549D01*
X60289500Y30638675D01*
X60289500Y29800404D01*
X60270593Y29742213D01*
X60221093Y29706249D01*
X60159907Y29706249D01*
X60110407Y29742213D01*
X60103190Y29753735D01*
X60102066Y29755837D01*
X60077685Y29801451D01*
X60077071Y29802199D01*
X59946414Y29961406D01*
X59946410Y29961411D01*
X59937656Y29968595D01*
X59786452Y30092685D01*
X59603954Y30190233D01*
X59405934Y30250302D01*
X59405929Y30250303D01*
X59200003Y30270584D01*
X59199997Y30270584D01*
X58994070Y30250303D01*
X58994065Y30250302D01*
X58796045Y30190233D01*
X58613547Y30092685D01*
X58453595Y29961416D01*
X58453585Y29961406D01*
X58322316Y29801454D01*
X58224768Y29618956D01*
X58164699Y29420936D01*
X58164698Y29420931D01*
X58144417Y29215005D01*
X58144417Y29214998D01*
X58164698Y29009072D01*
X58164699Y29009067D01*
X58224768Y28811047D01*
X58322316Y28628549D01*
X58453585Y28468597D01*
X58453590Y28468591D01*
X58453595Y28468587D01*
X58613547Y28337318D01*
X58613548Y28337318D01*
X58613550Y28337316D01*
X58796046Y28239769D01*
X58903591Y28207146D01*
X58994065Y28179701D01*
X58994070Y28179700D01*
X59199997Y28159418D01*
X59200000Y28159418D01*
X59200003Y28159418D01*
X59405929Y28179700D01*
X59405934Y28179701D01*
X59603954Y28239769D01*
X59786450Y28337316D01*
X59946410Y28468591D01*
X60077685Y28628551D01*
X60103191Y28676269D01*
X60147296Y28718674D01*
X60207904Y28727057D01*
X60261865Y28698214D01*
X60288566Y28643163D01*
X60289500Y28629599D01*
X60289500Y27666191D01*
X60270593Y27608000D01*
X60260504Y27596187D01*
X58925118Y26260802D01*
X58909265Y26247929D01*
X58899335Y26241441D01*
X58899332Y26241439D01*
X58878664Y26214886D01*
X58874605Y26210288D01*
X58871619Y26207302D01*
X58858955Y26189563D01*
X58827483Y26149126D01*
X58823981Y26142657D01*
X58820758Y26136064D01*
X58806138Y26086955D01*
X58789499Y26038488D01*
X58788293Y26031257D01*
X58787383Y26023953D01*
X58789500Y25972769D01*
X58789500Y25397482D01*
X58770593Y25339291D01*
X58721093Y25303327D01*
X58675502Y25300636D01*
X58675442Y25300023D01*
X58671572Y25300404D01*
X58671200Y25300382D01*
X58670615Y25300499D01*
X58670598Y25300500D01*
X56131102Y25300500D01*
X56131101Y25300500D01*
X56131091Y25300499D01*
X56072622Y25288868D01*
X56072616Y25288866D01*
X56006301Y25244555D01*
X56006295Y25244549D01*
X55961984Y25178234D01*
X55961982Y25178228D01*
X55950351Y25119759D01*
X55950350Y25119747D01*
X55950350Y20080254D01*
X55950351Y20080242D01*
X55961982Y20021773D01*
X55961984Y20021767D01*
X55991204Y19978037D01*
X56006298Y19955448D01*
X56072619Y19911133D01*
X56117081Y19902289D01*
X56131091Y19899502D01*
X56131096Y19899502D01*
X56131102Y19899500D01*
X56131103Y19899500D01*
X58670597Y19899500D01*
X58670598Y19899500D01*
X58671056Y19899592D01*
X58671182Y19899616D01*
X58671451Y19899585D01*
X58675442Y19899977D01*
X58675528Y19899102D01*
X58731944Y19892427D01*
X58776875Y19850896D01*
X58789500Y19802519D01*
X58789500Y17373297D01*
X58770593Y17315106D01*
X58760504Y17303293D01*
X55201708Y13744496D01*
X55147191Y13716719D01*
X55131704Y13715500D01*
X54613142Y13715500D01*
X54554951Y13734407D01*
X54525832Y13767831D01*
X54517214Y13783954D01*
X54427685Y13951450D01*
X54415372Y13966453D01*
X54296414Y14111405D01*
X54296410Y14111410D01*
X54296404Y14111415D01*
X54136452Y14242684D01*
X53953954Y14340232D01*
X53755934Y14400301D01*
X53755929Y14400302D01*
X53550003Y14420583D01*
X53549997Y14420583D01*
X53344070Y14400302D01*
X53344065Y14400301D01*
X53146045Y14340232D01*
X52963547Y14242684D01*
X52803595Y14111415D01*
X52803585Y14111405D01*
X52672316Y13951453D01*
X52574768Y13768955D01*
X52514699Y13570935D01*
X52514698Y13570930D01*
X52494417Y13365004D01*
X52494417Y13364997D01*
X52514698Y13159071D01*
X52514699Y13159066D01*
X52574768Y12961046D01*
X52672316Y12778548D01*
X52791275Y12633596D01*
X52803590Y12618590D01*
X52803595Y12618586D01*
X52885915Y12551028D01*
X52918902Y12499497D01*
X52915300Y12438418D01*
X52876485Y12391121D01*
X52823110Y12375500D01*
X52256613Y12375500D01*
X52236298Y12377607D01*
X52224685Y12380042D01*
X52191294Y12375880D01*
X52185169Y12375500D01*
X52180956Y12375500D01*
X52159448Y12371911D01*
X52108607Y12365574D01*
X52101575Y12363481D01*
X52094616Y12361092D01*
X52049555Y12336705D01*
X52003517Y12314199D01*
X51997542Y12309934D01*
X51991744Y12305421D01*
X51957042Y12267725D01*
X51513911Y11824596D01*
X51459395Y11796819D01*
X51415170Y11799863D01*
X51215934Y11860301D01*
X51215929Y11860302D01*
X51010003Y11880583D01*
X51009997Y11880583D01*
X50804070Y11860302D01*
X50804065Y11860301D01*
X50606045Y11800232D01*
X50423547Y11702684D01*
X50263595Y11571415D01*
X50263585Y11571405D01*
X50132316Y11411453D01*
X50034768Y11228955D01*
X49974699Y11030935D01*
X49974698Y11030930D01*
X49954417Y10825004D01*
X49954417Y10824997D01*
X49974698Y10619071D01*
X49974699Y10619066D01*
X50034768Y10421046D01*
X50132316Y10238548D01*
X50251275Y10093596D01*
X50263590Y10078590D01*
X50263595Y10078586D01*
X50423547Y9947317D01*
X50423548Y9947317D01*
X50423550Y9947315D01*
X50606046Y9849768D01*
X50743996Y9807922D01*
X50804065Y9789700D01*
X50804070Y9789699D01*
X51009997Y9769417D01*
X51010000Y9769417D01*
X51010003Y9769417D01*
X51215929Y9789699D01*
X51215934Y9789700D01*
X51413954Y9849768D01*
X51596450Y9947315D01*
X51756410Y10078590D01*
X51887685Y10238550D01*
X51985232Y10421046D01*
X52045300Y10619066D01*
X52045301Y10619071D01*
X52065583Y10824997D01*
X52065583Y10825004D01*
X52045301Y11030930D01*
X52045300Y11030935D01*
X51984862Y11230173D01*
X51986063Y11291346D01*
X52009596Y11328915D01*
X52326186Y11645504D01*
X52380702Y11673281D01*
X52396189Y11674500D01*
X52678876Y11674500D01*
X52737067Y11655593D01*
X52773031Y11606093D01*
X52773031Y11544907D01*
X52755404Y11512695D01*
X52672317Y11411453D01*
X52672316Y11411453D01*
X52574768Y11228955D01*
X52514699Y11030935D01*
X52514698Y11030930D01*
X52494417Y10825004D01*
X52494417Y10824997D01*
X52514698Y10619071D01*
X52514699Y10619066D01*
X52574768Y10421046D01*
X52672316Y10238548D01*
X52791275Y10093596D01*
X52803590Y10078590D01*
X52803595Y10078586D01*
X52963547Y9947317D01*
X52963548Y9947317D01*
X52963550Y9947315D01*
X53146046Y9849768D01*
X53283996Y9807922D01*
X53344065Y9789700D01*
X53344070Y9789699D01*
X53549997Y9769417D01*
X53550000Y9769417D01*
X53550003Y9769417D01*
X53755929Y9789699D01*
X53755934Y9789700D01*
X53755933Y9789700D01*
X53953954Y9849768D01*
X54136450Y9947315D01*
X54296410Y10078590D01*
X54427685Y10238550D01*
X54525232Y10421046D01*
X54585300Y10619066D01*
X54585301Y10619071D01*
X54605583Y10824997D01*
X54605583Y10825004D01*
X54604106Y10839997D01*
X59904417Y10839997D01*
X59924698Y10634071D01*
X59924699Y10634066D01*
X59984768Y10436046D01*
X60082316Y10253548D01*
X60213585Y10093596D01*
X60213590Y10093590D01*
X60213595Y10093586D01*
X60373547Y9962317D01*
X60373548Y9962317D01*
X60373550Y9962315D01*
X60556046Y9864768D01*
X60669192Y9830446D01*
X60754065Y9804700D01*
X60754070Y9804699D01*
X60959997Y9784417D01*
X60960000Y9784417D01*
X60960003Y9784417D01*
X61165929Y9804699D01*
X61165934Y9804700D01*
X61165933Y9804700D01*
X61363954Y9864768D01*
X61546450Y9962315D01*
X61706410Y10093590D01*
X61837685Y10253550D01*
X61935232Y10436046D01*
X61995300Y10634066D01*
X61995301Y10634071D01*
X62015583Y10839997D01*
X62444417Y10839997D01*
X62464698Y10634071D01*
X62464699Y10634066D01*
X62524768Y10436046D01*
X62622316Y10253548D01*
X62753585Y10093596D01*
X62753590Y10093590D01*
X62753595Y10093586D01*
X62913547Y9962317D01*
X62913548Y9962317D01*
X62913550Y9962315D01*
X63096046Y9864768D01*
X63209192Y9830446D01*
X63294065Y9804700D01*
X63294070Y9804699D01*
X63499997Y9784417D01*
X63500000Y9784417D01*
X63500003Y9784417D01*
X63705929Y9804699D01*
X63705934Y9804700D01*
X63705934Y9804701D01*
X63903954Y9864768D01*
X64086450Y9962315D01*
X64246410Y10093590D01*
X64377685Y10253550D01*
X64475232Y10436046D01*
X64535300Y10634066D01*
X64535301Y10634071D01*
X64555583Y10839997D01*
X64555583Y10840004D01*
X64535301Y11045930D01*
X64535300Y11045935D01*
X64479782Y11228954D01*
X64475232Y11243954D01*
X64377685Y11426450D01*
X64246410Y11586410D01*
X64194666Y11628875D01*
X64086452Y11717684D01*
X63903954Y11815232D01*
X63705934Y11875301D01*
X63705929Y11875302D01*
X63500003Y11895583D01*
X63499997Y11895583D01*
X63294070Y11875302D01*
X63294065Y11875301D01*
X63096045Y11815232D01*
X62913547Y11717684D01*
X62753595Y11586415D01*
X62753585Y11586405D01*
X62622316Y11426453D01*
X62524768Y11243955D01*
X62464699Y11045935D01*
X62464698Y11045930D01*
X62444417Y10840004D01*
X62444417Y10839997D01*
X62015583Y10839997D01*
X62015583Y10840004D01*
X61995301Y11045930D01*
X61995300Y11045935D01*
X61939782Y11228954D01*
X61935232Y11243954D01*
X61837685Y11426450D01*
X61706410Y11586410D01*
X61654666Y11628875D01*
X61546452Y11717684D01*
X61363954Y11815232D01*
X61165934Y11875301D01*
X61165929Y11875302D01*
X60960003Y11895583D01*
X60959997Y11895583D01*
X60754070Y11875302D01*
X60754065Y11875301D01*
X60556045Y11815232D01*
X60373547Y11717684D01*
X60213595Y11586415D01*
X60213585Y11586405D01*
X60082316Y11426453D01*
X59984768Y11243955D01*
X59924699Y11045935D01*
X59924698Y11045930D01*
X59904417Y10840004D01*
X59904417Y10839997D01*
X54604106Y10839997D01*
X54585301Y11030930D01*
X54585300Y11030935D01*
X54567078Y11091004D01*
X54525232Y11228954D01*
X54427685Y11411450D01*
X54415372Y11426453D01*
X54344596Y11512695D01*
X54322296Y11569672D01*
X54337745Y11628875D01*
X54385042Y11667690D01*
X54421124Y11674500D01*
X54638381Y11674500D01*
X54658696Y11672393D01*
X54660844Y11671943D01*
X54670315Y11669957D01*
X54703712Y11674121D01*
X54709837Y11674500D01*
X54714041Y11674500D01*
X54724790Y11676294D01*
X54735540Y11678088D01*
X54786393Y11684427D01*
X54786396Y11684429D01*
X54793429Y11686523D01*
X54800377Y11688908D01*
X54800381Y11688908D01*
X54845444Y11713296D01*
X54891484Y11735802D01*
X54897470Y11740077D01*
X54903256Y11744580D01*
X54911223Y11753234D01*
X54937957Y11782276D01*
X56535678Y13379997D01*
X59904417Y13379997D01*
X59924698Y13174071D01*
X59924699Y13174066D01*
X59984768Y12976046D01*
X60082316Y12793548D01*
X60213585Y12633596D01*
X60213590Y12633590D01*
X60213595Y12633586D01*
X60373547Y12502317D01*
X60373548Y12502317D01*
X60373550Y12502315D01*
X60556046Y12404768D01*
X60669192Y12370446D01*
X60754065Y12344700D01*
X60754070Y12344699D01*
X60959997Y12324417D01*
X60960000Y12324417D01*
X60960003Y12324417D01*
X61165929Y12344699D01*
X61165934Y12344700D01*
X61165934Y12344701D01*
X61363954Y12404768D01*
X61546450Y12502315D01*
X61706410Y12633590D01*
X61837685Y12793550D01*
X61909106Y12927170D01*
X61953212Y12969575D01*
X61996416Y12979500D01*
X62463584Y12979500D01*
X62521775Y12960593D01*
X62550892Y12927171D01*
X62594549Y12845496D01*
X62622316Y12793548D01*
X62753585Y12633596D01*
X62753590Y12633590D01*
X62753595Y12633586D01*
X62913547Y12502317D01*
X62913548Y12502317D01*
X62913550Y12502315D01*
X63096046Y12404768D01*
X63209192Y12370446D01*
X63294065Y12344700D01*
X63294070Y12344699D01*
X63499997Y12324417D01*
X63500000Y12324417D01*
X63500003Y12324417D01*
X63705929Y12344699D01*
X63705934Y12344700D01*
X63705933Y12344701D01*
X63903954Y12404768D01*
X64086450Y12502315D01*
X64246410Y12633590D01*
X64377685Y12793550D01*
X64475232Y12976046D01*
X64535300Y13174066D01*
X64535301Y13174071D01*
X64555583Y13379997D01*
X64555583Y13380004D01*
X64535301Y13585930D01*
X64535300Y13585935D01*
X64495627Y13716719D01*
X64475232Y13783954D01*
X64377685Y13966450D01*
X64246410Y14126410D01*
X64246404Y14126415D01*
X64086452Y14257684D01*
X63903954Y14355232D01*
X63705934Y14415301D01*
X63705929Y14415302D01*
X63500003Y14435583D01*
X63499997Y14435583D01*
X63294070Y14415302D01*
X63294065Y14415301D01*
X63096045Y14355232D01*
X62913547Y14257684D01*
X62753595Y14126415D01*
X62753585Y14126405D01*
X62622316Y13966453D01*
X62550894Y13832831D01*
X62506788Y13790425D01*
X62463584Y13780500D01*
X61996416Y13780500D01*
X61938225Y13799407D01*
X61909106Y13832831D01*
X61845702Y13951450D01*
X61837685Y13966450D01*
X61706410Y14126410D01*
X61706404Y14126415D01*
X61546452Y14257684D01*
X61363954Y14355232D01*
X61165934Y14415301D01*
X61165929Y14415302D01*
X60960003Y14435583D01*
X60959997Y14435583D01*
X60754070Y14415302D01*
X60754065Y14415301D01*
X60556045Y14355232D01*
X60373547Y14257684D01*
X60213595Y14126415D01*
X60213585Y14126405D01*
X60082316Y13966453D01*
X59984768Y13783955D01*
X59924699Y13585935D01*
X59924698Y13585930D01*
X59904417Y13380004D01*
X59904417Y13379997D01*
X56535678Y13379997D01*
X59075677Y15919997D01*
X59904417Y15919997D01*
X59924698Y15714071D01*
X59924699Y15714066D01*
X59984768Y15516046D01*
X60082316Y15333548D01*
X60213585Y15173596D01*
X60213590Y15173590D01*
X60213595Y15173586D01*
X60373547Y15042317D01*
X60373548Y15042317D01*
X60373550Y15042315D01*
X60556046Y14944768D01*
X60693997Y14902922D01*
X60754065Y14884700D01*
X60754070Y14884699D01*
X60959997Y14864417D01*
X60960000Y14864417D01*
X60960003Y14864417D01*
X61165929Y14884699D01*
X61165934Y14884700D01*
X61165933Y14884700D01*
X61363954Y14944768D01*
X61546450Y15042315D01*
X61706410Y15173590D01*
X61837685Y15333550D01*
X61935232Y15516046D01*
X61995300Y15714066D01*
X61995301Y15714071D01*
X62015583Y15919997D01*
X62444417Y15919997D01*
X62464698Y15714071D01*
X62464699Y15714066D01*
X62524768Y15516046D01*
X62622316Y15333548D01*
X62753585Y15173596D01*
X62753590Y15173590D01*
X62753595Y15173586D01*
X62913547Y15042317D01*
X62913548Y15042317D01*
X62913550Y15042315D01*
X63096046Y14944768D01*
X63233997Y14902922D01*
X63294065Y14884700D01*
X63294070Y14884699D01*
X63499997Y14864417D01*
X63500000Y14864417D01*
X63500003Y14864417D01*
X63705929Y14884699D01*
X63705934Y14884700D01*
X63705934Y14884701D01*
X63903954Y14944768D01*
X64086450Y15042315D01*
X64246410Y15173590D01*
X64377685Y15333550D01*
X64475232Y15516046D01*
X64535300Y15714066D01*
X64535301Y15714071D01*
X64555583Y15919997D01*
X64555583Y15920004D01*
X64535301Y16125930D01*
X64535300Y16125935D01*
X64517078Y16186004D01*
X64475232Y16323954D01*
X64377685Y16506450D01*
X64246410Y16666410D01*
X64246404Y16666415D01*
X64086452Y16797684D01*
X63903954Y16895232D01*
X63705934Y16955301D01*
X63705929Y16955302D01*
X63500003Y16975583D01*
X63499997Y16975583D01*
X63294070Y16955302D01*
X63294065Y16955301D01*
X63096045Y16895232D01*
X62913547Y16797684D01*
X62753595Y16666415D01*
X62753585Y16666405D01*
X62622316Y16506453D01*
X62524768Y16323955D01*
X62464699Y16125935D01*
X62464698Y16125930D01*
X62444417Y15920004D01*
X62444417Y15919997D01*
X62015583Y15919997D01*
X62015583Y15920004D01*
X61995301Y16125930D01*
X61995300Y16125935D01*
X61977078Y16186003D01*
X61935232Y16323954D01*
X61837685Y16506450D01*
X61706410Y16666410D01*
X61706404Y16666415D01*
X61546452Y16797684D01*
X61363954Y16895232D01*
X61165934Y16955301D01*
X61165929Y16955302D01*
X60960003Y16975583D01*
X60959997Y16975583D01*
X60754070Y16955302D01*
X60754065Y16955301D01*
X60556045Y16895232D01*
X60373547Y16797684D01*
X60213595Y16666415D01*
X60213585Y16666405D01*
X60082316Y16506453D01*
X59984768Y16323955D01*
X59924699Y16125935D01*
X59924698Y16125930D01*
X59904417Y15920004D01*
X59904417Y15919997D01*
X59075677Y15919997D01*
X59854884Y16699204D01*
X59870734Y16712074D01*
X59880669Y16718563D01*
X59901338Y16745121D01*
X59905388Y16749708D01*
X59908375Y16752693D01*
X59908381Y16752701D01*
X59921041Y16770434D01*
X59952516Y16810873D01*
X59956008Y16817327D01*
X59959237Y16823931D01*
X59959237Y16823932D01*
X59959239Y16823934D01*
X59973856Y16873034D01*
X59990500Y16921512D01*
X59990500Y16921516D01*
X59991706Y16928741D01*
X59992617Y16936046D01*
X59990500Y16987231D01*
X59990500Y17709527D01*
X60009407Y17767718D01*
X60058907Y17803682D01*
X60120093Y17803682D01*
X60166028Y17772331D01*
X60213936Y17713954D01*
X60213949Y17713941D01*
X60373829Y17582732D01*
X60373839Y17582725D01*
X60556232Y17485235D01*
X60556237Y17485233D01*
X60709999Y17438589D01*
X60710000Y17438589D01*
X60710000Y17876551D01*
X60728907Y17934742D01*
X60778407Y17970706D01*
X60823089Y17974543D01*
X60841565Y17971887D01*
X60924233Y17960000D01*
X60924237Y17960000D01*
X60995767Y17960000D01*
X61078434Y17971887D01*
X61096910Y17974543D01*
X61157199Y17964110D01*
X61199842Y17920233D01*
X61210000Y17876551D01*
X61210000Y17438589D01*
X61363762Y17485233D01*
X61363767Y17485235D01*
X61546160Y17582725D01*
X61546170Y17582732D01*
X61706050Y17713941D01*
X61706059Y17713950D01*
X61837268Y17873830D01*
X61837275Y17873840D01*
X61934765Y18056233D01*
X61934767Y18056238D01*
X61981411Y18210000D01*
X61539951Y18210000D01*
X61481760Y18228907D01*
X61445796Y18278407D01*
X61444961Y18336891D01*
X61459999Y18388108D01*
X61460000Y18388112D01*
X61460000Y18531889D01*
X61459999Y18531893D01*
X61444961Y18583109D01*
X61446708Y18644269D01*
X61484071Y18692722D01*
X61539951Y18710000D01*
X61981411Y18710000D01*
X61981411Y18710001D01*
X62478588Y18710001D01*
X62478589Y18710000D01*
X62920049Y18710000D01*
X62978240Y18691093D01*
X63014204Y18641593D01*
X63015039Y18583109D01*
X63000000Y18531893D01*
X63000000Y18388108D01*
X63015039Y18336891D01*
X63013292Y18275731D01*
X62975929Y18227278D01*
X62920049Y18210000D01*
X62478589Y18210000D01*
X62525232Y18056238D01*
X62525234Y18056233D01*
X62622724Y17873840D01*
X62622731Y17873830D01*
X62753940Y17713950D01*
X62753949Y17713941D01*
X62913829Y17582732D01*
X62913839Y17582725D01*
X63096232Y17485235D01*
X63096237Y17485233D01*
X63249999Y17438589D01*
X63250000Y17438589D01*
X63250000Y17876551D01*
X63268907Y17934742D01*
X63318407Y17970706D01*
X63363089Y17974543D01*
X63381565Y17971887D01*
X63464233Y17960000D01*
X63464237Y17960000D01*
X63535767Y17960000D01*
X63618434Y17971887D01*
X63636910Y17974543D01*
X63697199Y17964110D01*
X63739842Y17920233D01*
X63750000Y17876551D01*
X63750000Y17438589D01*
X63903762Y17485233D01*
X63903767Y17485235D01*
X64086160Y17582725D01*
X64086170Y17582732D01*
X64246050Y17713941D01*
X64246059Y17713950D01*
X64377268Y17873830D01*
X64377275Y17873840D01*
X64474765Y18056233D01*
X64474767Y18056238D01*
X64521411Y18210000D01*
X64079951Y18210000D01*
X64021760Y18228907D01*
X63985796Y18278407D01*
X63984961Y18336891D01*
X63999999Y18388108D01*
X64000000Y18388112D01*
X64000000Y18531889D01*
X63999999Y18531893D01*
X63984961Y18583109D01*
X63986708Y18644269D01*
X64024071Y18692722D01*
X64079951Y18710000D01*
X64521411Y18710000D01*
X64521411Y18710001D01*
X64474767Y18863763D01*
X64474765Y18863768D01*
X64377275Y19046161D01*
X64377268Y19046171D01*
X64246059Y19206051D01*
X64246050Y19206060D01*
X64086170Y19337269D01*
X64086160Y19337276D01*
X63903771Y19434764D01*
X63903758Y19434769D01*
X63750000Y19481412D01*
X63750000Y19043450D01*
X63731093Y18985259D01*
X63681593Y18949295D01*
X63636911Y18945458D01*
X63535768Y18960000D01*
X63535763Y18960000D01*
X63464237Y18960000D01*
X63464232Y18960000D01*
X63363089Y18945458D01*
X63302800Y18955891D01*
X63260158Y18999769D01*
X63250000Y19043450D01*
X63250000Y19481412D01*
X63096241Y19434769D01*
X63096228Y19434764D01*
X62913839Y19337276D01*
X62913829Y19337269D01*
X62753949Y19206060D01*
X62753940Y19206051D01*
X62622731Y19046171D01*
X62622724Y19046161D01*
X62525234Y18863768D01*
X62525232Y18863763D01*
X62478588Y18710001D01*
X61981411Y18710001D01*
X61934767Y18863763D01*
X61934765Y18863768D01*
X61837275Y19046161D01*
X61837268Y19046171D01*
X61706059Y19206051D01*
X61706050Y19206060D01*
X61546170Y19337269D01*
X61546160Y19337276D01*
X61363771Y19434764D01*
X61363758Y19434769D01*
X61210000Y19481412D01*
X61210000Y19043450D01*
X61191093Y18985259D01*
X61141593Y18949295D01*
X61096911Y18945458D01*
X60995768Y18960000D01*
X60995763Y18960000D01*
X60924237Y18960000D01*
X60924232Y18960000D01*
X60823089Y18945458D01*
X60762800Y18955891D01*
X60720158Y18999769D01*
X60710000Y19043450D01*
X60710000Y19481412D01*
X60556241Y19434769D01*
X60556228Y19434764D01*
X60373839Y19337276D01*
X60373829Y19337269D01*
X60213949Y19206060D01*
X60213940Y19206051D01*
X60166028Y19147669D01*
X60114497Y19114682D01*
X60053417Y19118284D01*
X60006120Y19157099D01*
X59990500Y19210474D01*
X59990500Y23910001D01*
X63427519Y23910001D01*
X63447417Y23631784D01*
X63506710Y23359215D01*
X63604187Y23097873D01*
X63604191Y23097864D01*
X63737861Y22853063D01*
X63737866Y22853056D01*
X63838101Y22719158D01*
X64326539Y23207595D01*
X64381056Y23235372D01*
X64441488Y23225801D01*
X64469703Y23204289D01*
X64585731Y23077013D01*
X64604430Y23056501D01*
X64672099Y23005399D01*
X64707142Y22955243D01*
X64706011Y22894068D01*
X64682442Y22856393D01*
X64191655Y22365605D01*
X64191655Y22365604D01*
X64325554Y22265368D01*
X64325561Y22265363D01*
X64570362Y22131693D01*
X64570371Y22131689D01*
X64831713Y22034212D01*
X65104282Y21974919D01*
X65382499Y21955021D01*
X65660717Y21974919D01*
X65933286Y22034212D01*
X66194628Y22131689D01*
X66194637Y22131693D01*
X66439432Y22265360D01*
X66573343Y22365604D01*
X66082556Y22856392D01*
X66054779Y22910909D01*
X66064350Y22971341D01*
X66092893Y23005394D01*
X66160569Y23056500D01*
X66295295Y23204287D01*
X66348470Y23234552D01*
X66409279Y23227781D01*
X66438460Y23207594D01*
X66926897Y22719158D01*
X67027141Y22853069D01*
X67160808Y23097864D01*
X67160812Y23097873D01*
X67258289Y23359215D01*
X67317582Y23631784D01*
X67337480Y23910001D01*
X67317582Y24188219D01*
X67258289Y24460788D01*
X67160812Y24722130D01*
X67160808Y24722139D01*
X67027138Y24966940D01*
X67027133Y24966947D01*
X66926897Y25100846D01*
X66926896Y25100846D01*
X66438458Y24612409D01*
X66383942Y24584632D01*
X66323510Y24594203D01*
X66295295Y24615716D01*
X66160569Y24763502D01*
X66092897Y24814606D01*
X66057856Y24864761D01*
X66058987Y24925936D01*
X66082556Y24963612D01*
X66573343Y25454400D01*
X66439445Y25554635D01*
X66439438Y25554640D01*
X66194637Y25688310D01*
X66194628Y25688314D01*
X65933286Y25785791D01*
X65660717Y25845084D01*
X65382500Y25864982D01*
X65104282Y25845084D01*
X64831713Y25785791D01*
X64570371Y25688314D01*
X64570362Y25688310D01*
X64325562Y25554641D01*
X64191656Y25454399D01*
X64682443Y24963612D01*
X64710220Y24909095D01*
X64700649Y24848663D01*
X64672101Y24814605D01*
X64604437Y24763507D01*
X64604429Y24763500D01*
X64469704Y24615716D01*
X64416528Y24585451D01*
X64355719Y24592222D01*
X64326539Y24612409D01*
X63838102Y25100845D01*
X63737860Y24966939D01*
X63604191Y24722139D01*
X63604187Y24722130D01*
X63506710Y24460788D01*
X63447417Y24188219D01*
X63427519Y23910001D01*
X59990500Y23910001D01*
X59990500Y25586705D01*
X60009407Y25644896D01*
X60019490Y25656703D01*
X60561042Y26198255D01*
X61710000Y26198255D01*
X61710001Y26198243D01*
X61721168Y26142108D01*
X61721633Y26139770D01*
X61765948Y26073449D01*
X61832269Y26029134D01*
X61876731Y26020290D01*
X61890741Y26017503D01*
X61890746Y26017503D01*
X61890752Y26017501D01*
X61890753Y26017501D01*
X63454247Y26017501D01*
X63454248Y26017501D01*
X63512731Y26029134D01*
X63579052Y26073449D01*
X63623367Y26139770D01*
X63635000Y26198253D01*
X63635000Y27761749D01*
X63623367Y27820232D01*
X63579052Y27886553D01*
X63579048Y27886556D01*
X63512733Y27930867D01*
X63512731Y27930868D01*
X63512728Y27930869D01*
X63512727Y27930869D01*
X63454258Y27942500D01*
X63454248Y27942501D01*
X61890752Y27942501D01*
X61890751Y27942501D01*
X61890741Y27942500D01*
X61832272Y27930869D01*
X61832266Y27930867D01*
X61765951Y27886556D01*
X61765945Y27886550D01*
X61721634Y27820235D01*
X61721632Y27820229D01*
X61710001Y27761760D01*
X61710000Y27761748D01*
X61710000Y26198255D01*
X60561042Y26198255D01*
X61354884Y26992098D01*
X61370734Y27004968D01*
X61380669Y27011457D01*
X61401338Y27038015D01*
X61405388Y27042602D01*
X61408375Y27045587D01*
X61408381Y27045595D01*
X61421041Y27063328D01*
X61445539Y27094804D01*
X61452517Y27103768D01*
X61452517Y27103771D01*
X61456008Y27110221D01*
X61459237Y27116825D01*
X61459237Y27116826D01*
X61459239Y27116828D01*
X61473856Y27165928D01*
X61490500Y27214406D01*
X61490500Y27214410D01*
X61491706Y27221635D01*
X61492617Y27228940D01*
X61490500Y27280125D01*
X61490500Y29479998D01*
X61705343Y29479998D01*
X61723925Y29291323D01*
X61723926Y29291318D01*
X61778963Y29109886D01*
X61778965Y29109881D01*
X61820145Y29032840D01*
X61868338Y28942677D01*
X61868340Y28942675D01*
X61868341Y28942673D01*
X61890442Y28915743D01*
X61988617Y28796118D01*
X62135176Y28675839D01*
X62302385Y28586464D01*
X62428780Y28548124D01*
X62483816Y28531428D01*
X62483821Y28531427D01*
X62672497Y28512844D01*
X62672500Y28512844D01*
X62672503Y28512844D01*
X62861178Y28531427D01*
X62861183Y28531428D01*
X62861183Y28531429D01*
X63042615Y28586464D01*
X63209824Y28675839D01*
X63356383Y28796118D01*
X63476662Y28942677D01*
X63566037Y29109886D01*
X63621073Y29291318D01*
X63621074Y29291323D01*
X63639657Y29479998D01*
X63639657Y29480005D01*
X63621074Y29668680D01*
X63621073Y29668685D01*
X63599006Y29741430D01*
X63566037Y29850116D01*
X63476662Y30017325D01*
X63356383Y30163884D01*
X63289387Y30218867D01*
X63209828Y30284160D01*
X63209826Y30284161D01*
X63209824Y30284163D01*
X63170459Y30305204D01*
X63042620Y30373536D01*
X63042616Y30373538D01*
X63023284Y30379402D01*
X63003957Y30385265D01*
X62953762Y30420249D01*
X62933715Y30478057D01*
X62951476Y30536608D01*
X63000260Y30573537D01*
X63003943Y30574734D01*
X63042615Y30586464D01*
X63209824Y30675839D01*
X63356383Y30796118D01*
X63476662Y30942677D01*
X63566037Y31109886D01*
X63621073Y31291318D01*
X63621074Y31291323D01*
X63639657Y31479998D01*
X63639657Y31480005D01*
X63621074Y31668680D01*
X63621073Y31668685D01*
X63597923Y31745001D01*
X63566037Y31850116D01*
X63476662Y32017325D01*
X63356383Y32163884D01*
X63209824Y32284163D01*
X63170459Y32305204D01*
X63042620Y32373536D01*
X63042615Y32373538D01*
X62861183Y32428575D01*
X62861178Y32428576D01*
X62672503Y32447158D01*
X62672497Y32447158D01*
X62483821Y32428576D01*
X62483816Y32428575D01*
X62302384Y32373538D01*
X62302379Y32373536D01*
X62135181Y32284166D01*
X62135171Y32284160D01*
X61988621Y32163888D01*
X61988613Y32163880D01*
X61868341Y32017330D01*
X61868335Y32017320D01*
X61778965Y31850122D01*
X61778963Y31850117D01*
X61723926Y31668685D01*
X61723925Y31668680D01*
X61705343Y31480005D01*
X61705343Y31479998D01*
X61723925Y31291323D01*
X61723926Y31291318D01*
X61778963Y31109886D01*
X61778965Y31109881D01*
X61842302Y30991387D01*
X61868338Y30942677D01*
X61868340Y30942675D01*
X61868341Y30942673D01*
X61956399Y30835375D01*
X61988617Y30796118D01*
X62135176Y30675839D01*
X62302385Y30586464D01*
X62341036Y30574740D01*
X62341041Y30574738D01*
X62391238Y30539753D01*
X62411284Y30481945D01*
X62393523Y30423394D01*
X62344738Y30386465D01*
X62341041Y30385264D01*
X62302384Y30373538D01*
X62302379Y30373536D01*
X62135181Y30284166D01*
X62135171Y30284160D01*
X61988621Y30163888D01*
X61988613Y30163880D01*
X61868341Y30017330D01*
X61868335Y30017320D01*
X61778965Y29850122D01*
X61778963Y29850117D01*
X61723926Y29668685D01*
X61723925Y29668680D01*
X61705343Y29480005D01*
X61705343Y29479998D01*
X61490500Y29479998D01*
X61490500Y33979998D01*
X61705845Y33979998D01*
X61724417Y33791421D01*
X61724418Y33791416D01*
X61779427Y33610078D01*
X61838501Y33499558D01*
X62111312Y33772368D01*
X62165829Y33800145D01*
X62226261Y33790574D01*
X62267053Y33751864D01*
X62269631Y33747398D01*
X62356083Y33638991D01*
X62356085Y33638989D01*
X62356086Y33638988D01*
X62419669Y33595638D01*
X62452957Y33572943D01*
X62490386Y33524541D01*
X62492217Y33463383D01*
X62467193Y33421141D01*
X62192055Y33146004D01*
X62302576Y33086929D01*
X62483914Y33031920D01*
X62483919Y33031919D01*
X62672497Y33013346D01*
X62672503Y33013346D01*
X62861080Y33031919D01*
X62861085Y33031920D01*
X63042425Y33086930D01*
X63152943Y33146004D01*
X63152943Y33146005D01*
X62877135Y33421814D01*
X62849358Y33476330D01*
X62858929Y33536762D01*
X62902194Y33580027D01*
X62904185Y33581013D01*
X62934554Y33595638D01*
X63036205Y33689956D01*
X63074143Y33755668D01*
X63119611Y33796608D01*
X63180462Y33803004D01*
X63229882Y33776171D01*
X63506496Y33499558D01*
X63506497Y33499558D01*
X63565571Y33610076D01*
X63620581Y33791416D01*
X63620582Y33791421D01*
X63639155Y33979998D01*
X63639155Y33980005D01*
X63620582Y34168582D01*
X63620581Y34168587D01*
X63565572Y34349925D01*
X63506497Y34460446D01*
X63506496Y34460446D01*
X63233686Y34187636D01*
X63179170Y34159859D01*
X63118738Y34169430D01*
X63077947Y34208139D01*
X63075370Y34212603D01*
X62988916Y34321012D01*
X62988917Y34321012D01*
X62892040Y34387061D01*
X62854612Y34435463D01*
X62852781Y34496621D01*
X62877806Y34538863D01*
X63152943Y34813999D01*
X63152943Y34814000D01*
X63042423Y34873074D01*
X62861085Y34928083D01*
X62861080Y34928084D01*
X62672503Y34946656D01*
X62672497Y34946656D01*
X62483919Y34928084D01*
X62483914Y34928083D01*
X62302576Y34873074D01*
X62192054Y34813999D01*
X62467864Y34538189D01*
X62495641Y34483673D01*
X62486070Y34423241D01*
X62442805Y34379976D01*
X62440817Y34378991D01*
X62410447Y34364365D01*
X62410444Y34364363D01*
X62308795Y34270048D01*
X62270856Y34204335D01*
X62225386Y34163395D01*
X62164536Y34157000D01*
X62115117Y34183832D01*
X61838502Y34460446D01*
X61779427Y34349925D01*
X61724418Y34168587D01*
X61724417Y34168582D01*
X61705845Y33980005D01*
X61705845Y33979998D01*
X61490500Y33979998D01*
X61490500Y37050002D01*
X63427519Y37050002D01*
X63447417Y36771784D01*
X63506710Y36499215D01*
X63604187Y36237873D01*
X63604191Y36237864D01*
X63737861Y35993063D01*
X63737866Y35993056D01*
X63838101Y35859158D01*
X64326539Y36347595D01*
X64381056Y36375372D01*
X64441488Y36365801D01*
X64469703Y36344289D01*
X64604431Y36196500D01*
X64647547Y36163940D01*
X64672099Y36145399D01*
X64707142Y36095243D01*
X64706011Y36034068D01*
X64682442Y35996393D01*
X64191655Y35505605D01*
X64191655Y35505604D01*
X64325554Y35405368D01*
X64325561Y35405363D01*
X64570362Y35271693D01*
X64570371Y35271689D01*
X64831713Y35174212D01*
X65104282Y35114919D01*
X65382500Y35095021D01*
X65660717Y35114919D01*
X65933286Y35174212D01*
X66194628Y35271689D01*
X66194637Y35271693D01*
X66439432Y35405360D01*
X66573343Y35505604D01*
X66082556Y35996392D01*
X66054779Y36050909D01*
X66064350Y36111341D01*
X66092893Y36145394D01*
X66160569Y36196500D01*
X66295295Y36344287D01*
X66348470Y36374552D01*
X66409279Y36367781D01*
X66438460Y36347594D01*
X66926897Y35859158D01*
X67027141Y35993069D01*
X67160808Y36237864D01*
X67160812Y36237873D01*
X67258289Y36499215D01*
X67317582Y36771784D01*
X67337480Y37050002D01*
X67317582Y37328219D01*
X67258289Y37600788D01*
X67160812Y37862130D01*
X67160808Y37862139D01*
X67027138Y38106940D01*
X67027133Y38106947D01*
X66926897Y38240846D01*
X66926896Y38240846D01*
X66438458Y37752409D01*
X66383942Y37724632D01*
X66323510Y37734203D01*
X66295295Y37755716D01*
X66160569Y37903502D01*
X66092897Y37954606D01*
X66057856Y38004761D01*
X66058987Y38065936D01*
X66082556Y38103612D01*
X66573343Y38594400D01*
X66439445Y38694635D01*
X66439438Y38694640D01*
X66194637Y38828310D01*
X66194628Y38828314D01*
X65933286Y38925791D01*
X65660717Y38985084D01*
X65382500Y39004982D01*
X65104282Y38985084D01*
X64831713Y38925791D01*
X64570371Y38828314D01*
X64570362Y38828310D01*
X64325562Y38694641D01*
X64191656Y38594399D01*
X64682443Y38103612D01*
X64710220Y38049095D01*
X64700649Y37988663D01*
X64672101Y37954605D01*
X64604437Y37903507D01*
X64604429Y37903500D01*
X64469704Y37755716D01*
X64416528Y37725451D01*
X64355719Y37732222D01*
X64326539Y37752409D01*
X63838102Y38240845D01*
X63737860Y38106939D01*
X63604191Y37862139D01*
X63604187Y37862130D01*
X63506710Y37600788D01*
X63447417Y37328219D01*
X63427519Y37050002D01*
X61490500Y37050002D01*
X61490500Y41979999D01*
X66677999Y41979999D01*
X66678000Y41448303D01*
X66678000Y41448300D01*
X66689603Y41389964D01*
X66733806Y41323811D01*
X66733810Y41323807D01*
X66799963Y41279604D01*
X66858299Y41268001D01*
X66858303Y41268000D01*
X67389999Y41268000D01*
X67390000Y41268002D01*
X67390000Y41707809D01*
X67408907Y41766000D01*
X67458407Y41801964D01*
X67518178Y41802411D01*
X67573002Y41785500D01*
X67573006Y41785500D01*
X67673307Y41785500D01*
X67673312Y41785500D01*
X67772499Y41800450D01*
X67772500Y41800451D01*
X67776245Y41801015D01*
X67836603Y41790992D01*
X67879543Y41747405D01*
X67890000Y41703121D01*
X67889999Y41268002D01*
X67890001Y41268000D01*
X68421697Y41268000D01*
X68421700Y41268001D01*
X68480036Y41279604D01*
X68546189Y41323807D01*
X68546193Y41323811D01*
X68590396Y41389964D01*
X68601990Y41448254D01*
X69217500Y41448254D01*
X69217501Y41448242D01*
X69229094Y41389964D01*
X69229133Y41389769D01*
X69273448Y41323448D01*
X69339769Y41279133D01*
X69384231Y41270289D01*
X69398241Y41267502D01*
X69398246Y41267502D01*
X69398252Y41267500D01*
X69398253Y41267500D01*
X70961747Y41267500D01*
X70961748Y41267500D01*
X71020231Y41279133D01*
X71086552Y41323448D01*
X71130867Y41389769D01*
X71142500Y41448252D01*
X71142500Y41979999D01*
X71757999Y41979999D01*
X71758000Y41448303D01*
X71758000Y41448300D01*
X71769603Y41389964D01*
X71813806Y41323811D01*
X71813810Y41323807D01*
X71879963Y41279604D01*
X71938299Y41268001D01*
X71938303Y41268000D01*
X72469999Y41268000D01*
X72470000Y41268002D01*
X72470000Y41707809D01*
X72488907Y41766000D01*
X72538407Y41801964D01*
X72598178Y41802411D01*
X72653002Y41785500D01*
X72653006Y41785500D01*
X72753307Y41785500D01*
X72753312Y41785500D01*
X72852499Y41800450D01*
X72852500Y41800451D01*
X72856245Y41801015D01*
X72916603Y41790992D01*
X72959543Y41747405D01*
X72970000Y41703121D01*
X72969999Y41268002D01*
X72970001Y41268000D01*
X73501697Y41268000D01*
X73501700Y41268001D01*
X73560036Y41279604D01*
X73626189Y41323807D01*
X73626193Y41323811D01*
X73670396Y41389964D01*
X73681999Y41448300D01*
X73682000Y41448303D01*
X73682000Y41979999D01*
X73681999Y41980000D01*
X73243012Y41980000D01*
X73184821Y41998907D01*
X73148857Y42048407D01*
X73146494Y42101029D01*
X73168264Y42196407D01*
X73158251Y42330028D01*
X73152441Y42344832D01*
X73148783Y42405908D01*
X73181722Y42457470D01*
X73238678Y42479823D01*
X73244598Y42480000D01*
X73681999Y42480000D01*
X73682000Y42480002D01*
X73682000Y43011698D01*
X73681999Y43011701D01*
X73670396Y43070037D01*
X73626193Y43136190D01*
X73626189Y43136194D01*
X73560036Y43180397D01*
X73501700Y43192000D01*
X72970000Y43192000D01*
X72970000Y42752192D01*
X72951093Y42694001D01*
X72901593Y42658037D01*
X72841821Y42657590D01*
X72787000Y42674500D01*
X72786998Y42674500D01*
X72686688Y42674500D01*
X72686681Y42674500D01*
X72583754Y42658987D01*
X72523395Y42669011D01*
X72480456Y42712598D01*
X72470000Y42756881D01*
X72470000Y43192000D01*
X71938299Y43192000D01*
X71879963Y43180397D01*
X71813810Y43136194D01*
X71813806Y43136190D01*
X71769603Y43070037D01*
X71758000Y43011701D01*
X71758000Y43011698D01*
X71757999Y42480002D01*
X71758001Y42480000D01*
X72196988Y42480000D01*
X72255179Y42461093D01*
X72291143Y42411593D01*
X72293505Y42358972D01*
X72271736Y42263593D01*
X72271735Y42263593D01*
X72281748Y42129976D01*
X72281749Y42129972D01*
X72287559Y42115168D01*
X72291217Y42054092D01*
X72258278Y42002530D01*
X72201322Y41980177D01*
X72195402Y41980000D01*
X71758001Y41980000D01*
X71757999Y41979999D01*
X71142500Y41979999D01*
X71142500Y43011748D01*
X71130867Y43070231D01*
X71086552Y43136552D01*
X71086548Y43136555D01*
X71020233Y43180866D01*
X71020231Y43180867D01*
X71020228Y43180868D01*
X71020227Y43180868D01*
X70961758Y43192499D01*
X70961748Y43192500D01*
X69398252Y43192500D01*
X69398251Y43192500D01*
X69398241Y43192499D01*
X69339772Y43180868D01*
X69339766Y43180866D01*
X69273451Y43136555D01*
X69273445Y43136549D01*
X69229134Y43070234D01*
X69229132Y43070228D01*
X69217501Y43011759D01*
X69217500Y43011747D01*
X69217500Y41448254D01*
X68601990Y41448254D01*
X68601999Y41448300D01*
X68602000Y41448303D01*
X68602000Y41979999D01*
X68601999Y41980000D01*
X68163012Y41980000D01*
X68104821Y41998907D01*
X68068857Y42048407D01*
X68066494Y42101029D01*
X68088264Y42196407D01*
X68078251Y42330028D01*
X68072441Y42344832D01*
X68068783Y42405908D01*
X68101722Y42457470D01*
X68158678Y42479823D01*
X68164598Y42480000D01*
X68601999Y42480000D01*
X68602000Y42480002D01*
X68602000Y43011698D01*
X68601999Y43011701D01*
X68590396Y43070037D01*
X68546193Y43136190D01*
X68546189Y43136194D01*
X68480036Y43180397D01*
X68421700Y43192000D01*
X67890000Y43192000D01*
X67890000Y42752192D01*
X67871093Y42694001D01*
X67821593Y42658037D01*
X67761821Y42657590D01*
X67707000Y42674500D01*
X67706998Y42674500D01*
X67606688Y42674500D01*
X67606681Y42674500D01*
X67503754Y42658987D01*
X67443395Y42669011D01*
X67400456Y42712598D01*
X67390000Y42756881D01*
X67390000Y43192000D01*
X66858299Y43192000D01*
X66799963Y43180397D01*
X66733810Y43136194D01*
X66733806Y43136190D01*
X66689603Y43070037D01*
X66678000Y43011701D01*
X66678000Y43011698D01*
X66677999Y42480002D01*
X66678001Y42480000D01*
X67116988Y42480000D01*
X67175179Y42461093D01*
X67211143Y42411593D01*
X67213505Y42358972D01*
X67191736Y42263593D01*
X67191735Y42263593D01*
X67201748Y42129976D01*
X67201749Y42129972D01*
X67207559Y42115168D01*
X67211217Y42054092D01*
X67178278Y42002530D01*
X67121322Y41980177D01*
X67115402Y41980000D01*
X66678001Y41980000D01*
X66677999Y41979999D01*
X61490500Y41979999D01*
X61490500Y44519999D01*
X66677999Y44519999D01*
X66678000Y43988303D01*
X66678000Y43988300D01*
X66689603Y43929964D01*
X66733806Y43863811D01*
X66733810Y43863807D01*
X66799963Y43819604D01*
X66858299Y43808001D01*
X66858303Y43808000D01*
X67389999Y43808000D01*
X67390000Y43808001D01*
X67390000Y44247809D01*
X67408907Y44306000D01*
X67458407Y44341964D01*
X67518178Y44342411D01*
X67573002Y44325500D01*
X67573006Y44325500D01*
X67673307Y44325500D01*
X67673312Y44325500D01*
X67772499Y44340450D01*
X67772500Y44340451D01*
X67776245Y44341015D01*
X67836603Y44330992D01*
X67879543Y44287405D01*
X67890000Y44243121D01*
X67889999Y43808002D01*
X67890001Y43808000D01*
X68421697Y43808000D01*
X68421700Y43808001D01*
X68480036Y43819604D01*
X68546189Y43863807D01*
X68546193Y43863811D01*
X68590396Y43929964D01*
X68601990Y43988254D01*
X69217500Y43988254D01*
X69217501Y43988242D01*
X69229094Y43929964D01*
X69229133Y43929769D01*
X69273448Y43863448D01*
X69339769Y43819133D01*
X69384231Y43810289D01*
X69398241Y43807502D01*
X69398246Y43807502D01*
X69398252Y43807500D01*
X69398253Y43807500D01*
X70961747Y43807500D01*
X70961748Y43807500D01*
X71020231Y43819133D01*
X71086552Y43863448D01*
X71130867Y43929769D01*
X71142500Y43988252D01*
X71142500Y44519999D01*
X71757999Y44519999D01*
X71758000Y43988303D01*
X71758000Y43988300D01*
X71769603Y43929964D01*
X71813806Y43863811D01*
X71813810Y43863807D01*
X71879963Y43819604D01*
X71938299Y43808001D01*
X71938303Y43808000D01*
X72469999Y43808000D01*
X72470000Y43808001D01*
X72470000Y44247809D01*
X72488907Y44306000D01*
X72538407Y44341964D01*
X72598178Y44342411D01*
X72653002Y44325500D01*
X72653006Y44325500D01*
X72753307Y44325500D01*
X72753312Y44325500D01*
X72852499Y44340450D01*
X72852500Y44340451D01*
X72856245Y44341015D01*
X72916603Y44330992D01*
X72959543Y44287405D01*
X72970000Y44243121D01*
X72969999Y43808002D01*
X72970001Y43808000D01*
X73501697Y43808000D01*
X73501700Y43808001D01*
X73560036Y43819604D01*
X73626189Y43863807D01*
X73626193Y43863811D01*
X73670396Y43929964D01*
X73681999Y43988300D01*
X73682000Y43988303D01*
X73682000Y44519999D01*
X73681999Y44520000D01*
X73243012Y44520000D01*
X73184821Y44538907D01*
X73148857Y44588407D01*
X73146494Y44641029D01*
X73168264Y44736407D01*
X73158251Y44870028D01*
X73152441Y44884832D01*
X73148783Y44945908D01*
X73181722Y44997470D01*
X73238678Y45019823D01*
X73244598Y45020000D01*
X73681999Y45020000D01*
X73682000Y45020002D01*
X73682000Y45551698D01*
X73681999Y45551701D01*
X73670396Y45610037D01*
X73626193Y45676190D01*
X73626189Y45676194D01*
X73560036Y45720397D01*
X73501700Y45732000D01*
X72970001Y45732000D01*
X72970000Y45731999D01*
X72970000Y45292192D01*
X72951093Y45234001D01*
X72901593Y45198037D01*
X72841821Y45197590D01*
X72787000Y45214500D01*
X72786998Y45214500D01*
X72686688Y45214500D01*
X72686681Y45214500D01*
X72583754Y45198987D01*
X72523395Y45209011D01*
X72480456Y45252598D01*
X72470000Y45296881D01*
X72470000Y45732000D01*
X71938299Y45732000D01*
X71879963Y45720397D01*
X71813810Y45676194D01*
X71813806Y45676190D01*
X71769603Y45610037D01*
X71758000Y45551701D01*
X71758000Y45551698D01*
X71757999Y45020002D01*
X71758001Y45020000D01*
X72196988Y45020000D01*
X72255179Y45001093D01*
X72291143Y44951593D01*
X72293505Y44898972D01*
X72271736Y44803593D01*
X72271735Y44803593D01*
X72281748Y44669976D01*
X72281749Y44669972D01*
X72287559Y44655168D01*
X72291217Y44594092D01*
X72258278Y44542530D01*
X72201322Y44520177D01*
X72195402Y44520000D01*
X71758001Y44520000D01*
X71757999Y44519999D01*
X71142500Y44519999D01*
X71142500Y45551748D01*
X71130867Y45610231D01*
X71086552Y45676552D01*
X71086548Y45676555D01*
X71020233Y45720866D01*
X71020231Y45720867D01*
X71020228Y45720868D01*
X71020227Y45720868D01*
X70961758Y45732499D01*
X70961748Y45732500D01*
X69398252Y45732500D01*
X69398251Y45732500D01*
X69398241Y45732499D01*
X69339772Y45720868D01*
X69339766Y45720866D01*
X69273451Y45676555D01*
X69273445Y45676549D01*
X69229134Y45610234D01*
X69229132Y45610228D01*
X69217501Y45551759D01*
X69217500Y45551747D01*
X69217500Y43988254D01*
X68601990Y43988254D01*
X68601999Y43988300D01*
X68602000Y43988303D01*
X68602000Y44519999D01*
X68601999Y44520000D01*
X68163012Y44520000D01*
X68104821Y44538907D01*
X68068857Y44588407D01*
X68066494Y44641029D01*
X68088264Y44736407D01*
X68078251Y44870028D01*
X68072441Y44884832D01*
X68068783Y44945908D01*
X68101722Y44997470D01*
X68158678Y45019823D01*
X68164598Y45020000D01*
X68601999Y45020000D01*
X68602000Y45020002D01*
X68602000Y45551698D01*
X68601999Y45551701D01*
X68590396Y45610037D01*
X68546193Y45676190D01*
X68546189Y45676194D01*
X68480036Y45720397D01*
X68421700Y45732000D01*
X67890001Y45732000D01*
X67890000Y45731999D01*
X67890000Y45292192D01*
X67871093Y45234001D01*
X67821593Y45198037D01*
X67761821Y45197590D01*
X67707000Y45214500D01*
X67706998Y45214500D01*
X67606688Y45214500D01*
X67606681Y45214500D01*
X67503754Y45198987D01*
X67443395Y45209011D01*
X67400456Y45252598D01*
X67390000Y45296881D01*
X67390000Y45731999D01*
X67389999Y45732000D01*
X66858299Y45732000D01*
X66799963Y45720397D01*
X66733810Y45676194D01*
X66733806Y45676190D01*
X66689603Y45610037D01*
X66678000Y45551701D01*
X66678000Y45551698D01*
X66677999Y45020002D01*
X66678001Y45020000D01*
X67116988Y45020000D01*
X67175179Y45001093D01*
X67211143Y44951593D01*
X67213505Y44898972D01*
X67191736Y44803593D01*
X67191735Y44803593D01*
X67201748Y44669976D01*
X67201749Y44669972D01*
X67207559Y44655168D01*
X67211217Y44594092D01*
X67178278Y44542530D01*
X67121322Y44520177D01*
X67115402Y44520000D01*
X66678001Y44520000D01*
X66677999Y44519999D01*
X61490500Y44519999D01*
X61490500Y45793811D01*
X61509407Y45852002D01*
X61519497Y45863815D01*
X62006187Y46350504D01*
X62060703Y46378281D01*
X62076190Y46379500D01*
X64353213Y46379500D01*
X64411404Y46360593D01*
X64431754Y46340768D01*
X64461718Y46301718D01*
X64587159Y46205464D01*
X64733238Y46144956D01*
X64850809Y46129478D01*
X64889999Y46124318D01*
X64890000Y46124318D01*
X64890001Y46124318D01*
X64921352Y46128446D01*
X65046762Y46144956D01*
X65192841Y46205464D01*
X65318282Y46301718D01*
X65414536Y46427159D01*
X65475044Y46573238D01*
X65495682Y46730000D01*
X65475044Y46886762D01*
X65469923Y46899126D01*
X65414537Y47032839D01*
X65414537Y47032840D01*
X65318286Y47158277D01*
X65318285Y47158278D01*
X65318282Y47158282D01*
X65318277Y47158286D01*
X65318276Y47158287D01*
X65247104Y47212899D01*
X65192841Y47254536D01*
X65192840Y47254537D01*
X65192838Y47254538D01*
X65046766Y47315043D01*
X65046758Y47315045D01*
X64890001Y47335682D01*
X64889999Y47335682D01*
X64733241Y47315045D01*
X64733233Y47315043D01*
X64587161Y47254538D01*
X64587160Y47254538D01*
X64461723Y47158287D01*
X64461714Y47158278D01*
X64431755Y47119233D01*
X64381331Y47084577D01*
X64353213Y47080500D01*
X61936613Y47080500D01*
X61916298Y47082607D01*
X61904685Y47085042D01*
X61871294Y47080880D01*
X61865169Y47080500D01*
X61860956Y47080500D01*
X61854858Y47079483D01*
X61794350Y47088563D01*
X61750735Y47131474D01*
X61740423Y47190057D01*
X61745682Y47230000D01*
X61725044Y47386762D01*
X61664537Y47532839D01*
X61664537Y47532840D01*
X61568286Y47658277D01*
X61568285Y47658278D01*
X61568282Y47658282D01*
X61568277Y47658286D01*
X61568276Y47658287D01*
X61442838Y47754538D01*
X61296766Y47815043D01*
X61296758Y47815045D01*
X61140001Y47835682D01*
X61139999Y47835682D01*
X60983241Y47815045D01*
X60983233Y47815043D01*
X60837161Y47754538D01*
X60837160Y47754538D01*
X60711723Y47658287D01*
X60711713Y47658277D01*
X60615462Y47532840D01*
X60615462Y47532839D01*
X60554957Y47386767D01*
X60554955Y47386759D01*
X60534318Y47230001D01*
X60534318Y47229998D01*
X60540741Y47181200D01*
X60529590Y47121039D01*
X60512592Y47098276D01*
X60425118Y47010802D01*
X60409265Y46997929D01*
X60399335Y46991441D01*
X60399332Y46991439D01*
X60378664Y46964886D01*
X60374605Y46960288D01*
X60371619Y46957302D01*
X60358955Y46939563D01*
X60327483Y46899126D01*
X60323981Y46892657D01*
X60320758Y46886064D01*
X60306138Y46836955D01*
X60289499Y46788488D01*
X60288293Y46781257D01*
X60287383Y46773953D01*
X60289500Y46722769D01*
X60289500Y32871328D01*
X60270593Y32813137D01*
X60221093Y32777173D01*
X60159907Y32777173D01*
X60135501Y32789011D01*
X60128235Y32793866D01*
X60128232Y32793867D01*
X60128231Y32793868D01*
X60128228Y32793869D01*
X60128227Y32793869D01*
X60069758Y32805500D01*
X60069748Y32805501D01*
X58330252Y32805501D01*
X58330251Y32805501D01*
X58330241Y32805500D01*
X58271772Y32793869D01*
X58271766Y32793867D01*
X58205451Y32749556D01*
X58205445Y32749550D01*
X58161134Y32683235D01*
X58161132Y32683229D01*
X58149501Y32624760D01*
X58149500Y32624748D01*
X58149500Y32198888D01*
X58130593Y32140697D01*
X58081093Y32104733D01*
X58037579Y32100735D01*
X58000001Y32105682D01*
X57999999Y32105682D01*
X57843241Y32085045D01*
X57843233Y32085043D01*
X57697161Y32024538D01*
X57697160Y32024538D01*
X57571723Y31928287D01*
X57571713Y31928277D01*
X57475462Y31802840D01*
X57475462Y31802839D01*
X57414956Y31656764D01*
X57407685Y31601539D01*
X57381343Y31546315D01*
X57379536Y31544459D01*
X54039576Y28204497D01*
X53985059Y28176720D01*
X53969572Y28175501D01*
X36608431Y28175501D01*
X36550240Y28194408D01*
X36538427Y28204497D01*
X36535777Y28207147D01*
X36535774Y28207151D01*
X36535769Y28207155D01*
X36535768Y28207156D01*
X36445047Y28276768D01*
X36410333Y28303405D01*
X36410332Y28303406D01*
X36410330Y28303407D01*
X36264258Y28363912D01*
X36264250Y28363914D01*
X36107493Y28384551D01*
X36107491Y28384551D01*
X35950733Y28363914D01*
X35950725Y28363912D01*
X35804653Y28303407D01*
X35804652Y28303407D01*
X35679215Y28207156D01*
X35679205Y28207146D01*
X35582954Y28081709D01*
X35582954Y28081708D01*
X35522449Y27935636D01*
X35522447Y27935628D01*
X35501810Y27778870D01*
X35501810Y27778869D01*
X5344500Y27778869D01*
X5344500Y29229998D01*
X17995161Y29229998D01*
X18014467Y29033972D01*
X18014468Y29033967D01*
X18071650Y28845466D01*
X18071652Y28845461D01*
X18137921Y28721479D01*
X18431077Y29014634D01*
X18485594Y29042411D01*
X18546026Y29032840D01*
X18584365Y28998153D01*
X18637325Y28915745D01*
X18637326Y28915744D01*
X18637327Y28915743D01*
X18740555Y28826296D01*
X18754530Y28819914D01*
X18799607Y28778545D01*
X18811759Y28718579D01*
X18786343Y28662922D01*
X18783408Y28659858D01*
X18491475Y28367925D01*
X18491476Y28367924D01*
X18615459Y28301654D01*
X18615464Y28301652D01*
X18803965Y28244470D01*
X18803970Y28244469D01*
X18999997Y28225162D01*
X19000003Y28225162D01*
X19196029Y28244469D01*
X19196034Y28244470D01*
X19384535Y28301652D01*
X19384540Y28301654D01*
X19508522Y28367924D01*
X19216590Y28659856D01*
X19188813Y28714373D01*
X19198384Y28774805D01*
X19241649Y28818070D01*
X19245426Y28819894D01*
X19259445Y28826296D01*
X19362673Y28915743D01*
X19415635Y28998156D01*
X19462998Y29036884D01*
X19524083Y29040378D01*
X19568920Y29014634D01*
X19862076Y28721479D01*
X19885973Y28725023D01*
X19946309Y28714859D01*
X19989146Y28671172D01*
X19999500Y28627095D01*
X19999500Y28410255D01*
X19999501Y28410243D01*
X20011132Y28351774D01*
X20011134Y28351768D01*
X20043450Y28303405D01*
X20055448Y28285449D01*
X20121769Y28241134D01*
X20166231Y28232290D01*
X20180241Y28229503D01*
X20180246Y28229503D01*
X20180252Y28229501D01*
X20180253Y28229501D01*
X21819747Y28229501D01*
X21819748Y28229501D01*
X21878231Y28241134D01*
X21944552Y28285449D01*
X21977832Y28335255D01*
X23562000Y28335255D01*
X23562001Y28335243D01*
X23573632Y28276774D01*
X23573634Y28276768D01*
X23608117Y28225162D01*
X23617948Y28210449D01*
X23684269Y28166134D01*
X23718033Y28159418D01*
X23742741Y28154503D01*
X23742746Y28154503D01*
X23742752Y28154501D01*
X23742753Y28154501D01*
X25482247Y28154501D01*
X25482248Y28154501D01*
X25540731Y28166134D01*
X25607052Y28210449D01*
X25651367Y28276770D01*
X25663000Y28335253D01*
X25663000Y30074749D01*
X25651367Y30133232D01*
X25607052Y30199553D01*
X25583137Y30215533D01*
X25540733Y30243867D01*
X25540731Y30243868D01*
X25540728Y30243869D01*
X25540727Y30243869D01*
X25482258Y30255500D01*
X25482248Y30255501D01*
X23742752Y30255501D01*
X23742751Y30255501D01*
X23742741Y30255500D01*
X23684272Y30243869D01*
X23684266Y30243867D01*
X23617951Y30199556D01*
X23617945Y30199550D01*
X23573634Y30133235D01*
X23573632Y30133229D01*
X23562001Y30074760D01*
X23562000Y30074748D01*
X23562000Y28335255D01*
X21977832Y28335255D01*
X21988867Y28351770D01*
X22000500Y28410253D01*
X22000500Y30049749D01*
X21988867Y30108232D01*
X21944552Y30174553D01*
X21944548Y30174556D01*
X21878233Y30218867D01*
X21878231Y30218868D01*
X21878228Y30218869D01*
X21878227Y30218869D01*
X21819758Y30230500D01*
X21819748Y30230501D01*
X20180252Y30230501D01*
X20180251Y30230501D01*
X20180241Y30230500D01*
X20121772Y30218869D01*
X20121766Y30218867D01*
X20055451Y30174556D01*
X20055445Y30174550D01*
X20011134Y30108235D01*
X20011132Y30108229D01*
X19999501Y30049760D01*
X19999500Y30049748D01*
X19999500Y29832909D01*
X19980593Y29774718D01*
X19931093Y29738754D01*
X19885975Y29734980D01*
X19862076Y29738525D01*
X19568920Y29445370D01*
X19514404Y29417593D01*
X19453972Y29427164D01*
X19415633Y29461851D01*
X19362674Y29544258D01*
X19259444Y29633707D01*
X19245466Y29640090D01*
X19200389Y29681463D01*
X19188239Y29741430D01*
X19213658Y29797086D01*
X19216591Y29800147D01*
X19508523Y30092079D01*
X19508523Y30092080D01*
X19384540Y30158349D01*
X19384535Y30158351D01*
X19196034Y30215533D01*
X19196029Y30215534D01*
X19000003Y30234840D01*
X18999997Y30234840D01*
X18803970Y30215534D01*
X18803965Y30215533D01*
X18615472Y30158353D01*
X18615460Y30158349D01*
X18491476Y30092079D01*
X18783408Y29800147D01*
X18811185Y29745630D01*
X18801614Y29685198D01*
X18758349Y29641933D01*
X18754535Y29640092D01*
X18740558Y29633709D01*
X18637327Y29544259D01*
X18584365Y29461849D01*
X18536999Y29423118D01*
X18475913Y29419626D01*
X18431077Y29445369D01*
X18137921Y29738525D01*
X18071652Y29614541D01*
X18071648Y29614529D01*
X18014468Y29426036D01*
X18014467Y29426031D01*
X17995161Y29230005D01*
X17995161Y29229998D01*
X5344500Y29229998D01*
X5344500Y31729998D01*
X17994659Y31729998D01*
X18013974Y31533875D01*
X18013975Y31533872D01*
X18071187Y31345271D01*
X18071188Y31345269D01*
X18077092Y31334224D01*
X18164090Y31171463D01*
X18164092Y31171461D01*
X18164093Y31171459D01*
X18289112Y31019123D01*
X18289121Y31019114D01*
X18441184Y30894319D01*
X18441462Y30894091D01*
X18615273Y30801187D01*
X18803868Y30743977D01*
X18803870Y30743977D01*
X18803873Y30743976D01*
X18999997Y30724660D01*
X19000000Y30724660D01*
X19000003Y30724660D01*
X19196126Y30743976D01*
X19196127Y30743977D01*
X19196132Y30743977D01*
X19384727Y30801187D01*
X19558538Y30894091D01*
X19710883Y31019118D01*
X19835910Y31171463D01*
X19912689Y31315108D01*
X19956796Y31357515D01*
X20017404Y31365898D01*
X20071365Y31337056D01*
X20087310Y31315108D01*
X20164090Y31171463D01*
X20164092Y31171461D01*
X20164093Y31171459D01*
X20289112Y31019123D01*
X20289121Y31019114D01*
X20441184Y30894319D01*
X20441462Y30894091D01*
X20615273Y30801187D01*
X20803868Y30743977D01*
X20803870Y30743977D01*
X20803873Y30743976D01*
X20999997Y30724660D01*
X21000000Y30724660D01*
X21000003Y30724660D01*
X21196126Y30743976D01*
X21196127Y30743977D01*
X21196132Y30743977D01*
X21384727Y30801187D01*
X21558538Y30894091D01*
X21710883Y31019118D01*
X21835910Y31171463D01*
X21928814Y31345274D01*
X21986024Y31533869D01*
X21986537Y31539072D01*
X22005341Y31729998D01*
X22005341Y31730005D01*
X22003864Y31744998D01*
X23556917Y31744998D01*
X23577198Y31539072D01*
X23577199Y31539067D01*
X23637268Y31341047D01*
X23734816Y31158549D01*
X23774753Y31109886D01*
X23866090Y30998591D01*
X23895338Y30974588D01*
X24026047Y30867318D01*
X24026048Y30867318D01*
X24026050Y30867316D01*
X24208546Y30769769D01*
X24314598Y30737599D01*
X24406565Y30709701D01*
X24406570Y30709700D01*
X24612497Y30689418D01*
X24612500Y30689418D01*
X24612503Y30689418D01*
X24818429Y30709700D01*
X24818434Y30709701D01*
X24839641Y30716134D01*
X25016454Y30769769D01*
X25198950Y30867316D01*
X25358910Y30998591D01*
X25490185Y31158551D01*
X25587732Y31341047D01*
X25647800Y31539067D01*
X25647801Y31539072D01*
X25668083Y31744998D01*
X25668083Y31745005D01*
X25647801Y31950931D01*
X25647800Y31950936D01*
X25607119Y32085044D01*
X25587732Y32148955D01*
X25490185Y32331451D01*
X25455645Y32373538D01*
X25358914Y32491406D01*
X25358910Y32491411D01*
X25317365Y32525506D01*
X25198952Y32622685D01*
X25016454Y32720233D01*
X24818434Y32780302D01*
X24818429Y32780303D01*
X24612503Y32800584D01*
X24612497Y32800584D01*
X24406570Y32780303D01*
X24406565Y32780302D01*
X24208545Y32720233D01*
X24026047Y32622685D01*
X23866095Y32491416D01*
X23866085Y32491406D01*
X23734816Y32331454D01*
X23637268Y32148956D01*
X23577199Y31950936D01*
X23577198Y31950931D01*
X23556917Y31745005D01*
X23556917Y31744998D01*
X22003864Y31744998D01*
X21986025Y31926128D01*
X21986024Y31926131D01*
X21986024Y31926133D01*
X21928814Y32114728D01*
X21835910Y32288539D01*
X21824174Y32302839D01*
X21710887Y32440880D01*
X21710878Y32440889D01*
X21558542Y32565908D01*
X21558540Y32565909D01*
X21558538Y32565911D01*
X21517618Y32587783D01*
X21384732Y32658813D01*
X21384730Y32658814D01*
X21304225Y32683235D01*
X21196132Y32716025D01*
X21196129Y32716026D01*
X21196126Y32716027D01*
X21000003Y32735342D01*
X20999997Y32735342D01*
X20803873Y32716027D01*
X20803870Y32716026D01*
X20615269Y32658814D01*
X20615267Y32658813D01*
X20441467Y32565914D01*
X20441457Y32565908D01*
X20289121Y32440889D01*
X20289112Y32440880D01*
X20164093Y32288544D01*
X20164089Y32288538D01*
X20087310Y32144894D01*
X20043204Y32102488D01*
X19982596Y32094105D01*
X19928635Y32122948D01*
X19912690Y32144894D01*
X19902537Y32163888D01*
X19835910Y32288539D01*
X19824174Y32302839D01*
X19710887Y32440880D01*
X19710878Y32440889D01*
X19558542Y32565908D01*
X19558540Y32565909D01*
X19558538Y32565911D01*
X19517618Y32587783D01*
X19384732Y32658813D01*
X19384730Y32658814D01*
X19304225Y32683235D01*
X19196132Y32716025D01*
X19196129Y32716026D01*
X19196126Y32716027D01*
X19000003Y32735342D01*
X18999997Y32735342D01*
X18803873Y32716027D01*
X18803870Y32716026D01*
X18615269Y32658814D01*
X18615267Y32658813D01*
X18441467Y32565914D01*
X18441457Y32565908D01*
X18289121Y32440889D01*
X18289112Y32440880D01*
X18164093Y32288544D01*
X18164087Y32288534D01*
X18071188Y32114734D01*
X18071187Y32114732D01*
X18013975Y31926131D01*
X18013974Y31926128D01*
X17994659Y31730005D01*
X17994659Y31729998D01*
X5344500Y31729998D01*
X5344500Y34000000D01*
X40644318Y34000000D01*
X40664955Y33843242D01*
X40664957Y33843234D01*
X40725462Y33697162D01*
X40725462Y33697161D01*
X40815342Y33580027D01*
X40821718Y33571718D01*
X40947159Y33475464D01*
X41093238Y33414956D01*
X41210809Y33399478D01*
X41249999Y33394318D01*
X41250000Y33394318D01*
X41250001Y33394318D01*
X41387165Y33412376D01*
X41447326Y33401226D01*
X41470091Y33384227D01*
X43971928Y30882390D01*
X43999705Y30827873D01*
X44000924Y30812386D01*
X44000924Y29802199D01*
X44008377Y29779262D01*
X44012003Y29764162D01*
X44015778Y29740330D01*
X44026725Y29718848D01*
X44032671Y29704494D01*
X44040127Y29681548D01*
X44040126Y29681548D01*
X44054308Y29662028D01*
X44062421Y29648789D01*
X44073374Y29627294D01*
X44073375Y29627293D01*
X44093455Y29607212D01*
X44095939Y29604728D01*
X44095940Y29604727D01*
X44123853Y29576814D01*
X44151629Y29522299D01*
X44152511Y29511083D01*
X44173485Y29351772D01*
X44173487Y29351764D01*
X44233992Y29205692D01*
X44233992Y29205691D01*
X44330243Y29080254D01*
X44330248Y29080248D01*
X44455689Y28983994D01*
X44455690Y28983994D01*
X44455691Y28983993D01*
X44601763Y28923488D01*
X44601768Y28923486D01*
X44719339Y28908008D01*
X44758529Y28902848D01*
X44758530Y28902848D01*
X44758531Y28902848D01*
X44789882Y28906976D01*
X44915292Y28923486D01*
X45061371Y28983994D01*
X45186812Y29080248D01*
X45283066Y29205689D01*
X45343574Y29351768D01*
X45364212Y29508530D01*
X45343574Y29665292D01*
X45335329Y29685198D01*
X45283067Y29811369D01*
X45283067Y29811370D01*
X45186816Y29936807D01*
X45186815Y29936808D01*
X45186812Y29936812D01*
X45186807Y29936816D01*
X45186806Y29936817D01*
X45115634Y29991429D01*
X45061371Y30033066D01*
X45061370Y30033067D01*
X45061368Y30033068D01*
X44915292Y30093574D01*
X44915293Y30093574D01*
X44887999Y30097168D01*
X44832774Y30123511D01*
X44803581Y30177283D01*
X44801924Y30195321D01*
X44801924Y30980098D01*
X44795743Y31019123D01*
X44787070Y31073880D01*
X44729474Y31186918D01*
X44639766Y31276626D01*
X44639763Y31276628D01*
X44526725Y31334224D01*
X44526703Y31334231D01*
X44526663Y31334256D01*
X44519787Y31337759D01*
X44520062Y31338301D01*
X44487305Y31358377D01*
X43845682Y32000000D01*
X44894318Y32000000D01*
X44914955Y31843242D01*
X44914957Y31843234D01*
X44975462Y31697162D01*
X44975462Y31697161D01*
X45071713Y31571724D01*
X45071718Y31571718D01*
X45197159Y31475464D01*
X45343238Y31414956D01*
X45460809Y31399478D01*
X45499999Y31394318D01*
X45500000Y31394318D01*
X45500001Y31394318D01*
X45531352Y31398446D01*
X45656762Y31414956D01*
X45802841Y31475464D01*
X45928282Y31571718D01*
X46024536Y31697159D01*
X46085044Y31843238D01*
X46105682Y32000000D01*
X46103400Y32017330D01*
X46092189Y32102488D01*
X46085044Y32156762D01*
X46032273Y32284163D01*
X46024537Y32302839D01*
X46024537Y32302840D01*
X45928286Y32428277D01*
X45928285Y32428278D01*
X45928282Y32428282D01*
X45928277Y32428286D01*
X45928276Y32428287D01*
X45839233Y32496612D01*
X45804577Y32547037D01*
X45800500Y32575154D01*
X45800500Y37424522D01*
X45819407Y37482713D01*
X45829496Y37494526D01*
X46575816Y38240846D01*
X47459048Y39124079D01*
X47513563Y39151854D01*
X47573995Y39142283D01*
X47613223Y39106187D01*
X47617927Y39098590D01*
X47621718Y39092466D01*
X47624916Y39086399D01*
X47637794Y39057235D01*
X47644745Y39050284D01*
X47658907Y39032404D01*
X47664081Y39024048D01*
X47689511Y39004844D01*
X47694690Y39000340D01*
X47947203Y38747826D01*
X48016519Y38700344D01*
X48125881Y38674621D01*
X48237151Y38690143D01*
X48335298Y38744811D01*
X48407070Y38831243D01*
X48442773Y38937765D01*
X48437585Y39049992D01*
X48392206Y39152766D01*
X48321906Y39223066D01*
X48219496Y39325477D01*
X48191719Y39379993D01*
X48190500Y39395480D01*
X48190500Y39404846D01*
X48209407Y39463037D01*
X48229233Y39483388D01*
X48268979Y39513888D01*
X48318282Y39551718D01*
X48414536Y39677159D01*
X48475044Y39823238D01*
X48495682Y39980000D01*
X48475044Y40136762D01*
X48414537Y40282839D01*
X48414537Y40282840D01*
X48318286Y40408277D01*
X48318285Y40408278D01*
X48318282Y40408282D01*
X48318277Y40408286D01*
X48318276Y40408287D01*
X48192838Y40504538D01*
X48046766Y40565043D01*
X48046758Y40565045D01*
X47890001Y40585682D01*
X47889999Y40585682D01*
X47733241Y40565045D01*
X47733233Y40565043D01*
X47587161Y40504538D01*
X47587160Y40504538D01*
X47461723Y40408287D01*
X47461713Y40408277D01*
X47365462Y40282840D01*
X47365462Y40282839D01*
X47304957Y40136767D01*
X47304955Y40136759D01*
X47284318Y39980001D01*
X47284318Y39980000D01*
X47298968Y39868719D01*
X47287818Y39808558D01*
X47270819Y39785793D01*
X45333590Y37848563D01*
X45322361Y37840450D01*
X45323090Y37839485D01*
X45315771Y37833959D01*
X45283372Y37798420D01*
X45281796Y37796769D01*
X45267830Y37782802D01*
X45267817Y37782787D01*
X45265813Y37779862D01*
X45261561Y37774496D01*
X45240084Y37750935D01*
X45240083Y37750933D01*
X45236529Y37741760D01*
X45225896Y37721588D01*
X45220346Y37713485D01*
X45220342Y37713476D01*
X45213045Y37682455D01*
X45211016Y37675902D01*
X45199500Y37646176D01*
X45199500Y37636349D01*
X45196870Y37613682D01*
X45194621Y37604121D01*
X45199025Y37572548D01*
X45199500Y37565702D01*
X45199500Y32575154D01*
X45180593Y32516963D01*
X45160767Y32496612D01*
X45071723Y32428287D01*
X45071713Y32428277D01*
X44975462Y32302840D01*
X44975462Y32302839D01*
X44914957Y32156767D01*
X44914955Y32156759D01*
X44894318Y32000001D01*
X44894318Y32000000D01*
X43845682Y32000000D01*
X41880960Y33964722D01*
X41853183Y34019239D01*
X41852811Y34021804D01*
X41844686Y34083517D01*
X41835044Y34156762D01*
X41774537Y34302839D01*
X41774537Y34302840D01*
X41678286Y34428277D01*
X41678285Y34428278D01*
X41678282Y34428282D01*
X41678277Y34428286D01*
X41678276Y34428287D01*
X41552838Y34524538D01*
X41406766Y34585043D01*
X41406758Y34585045D01*
X41250001Y34605682D01*
X41249999Y34605682D01*
X41093241Y34585045D01*
X41093233Y34585043D01*
X40947161Y34524538D01*
X40947160Y34524538D01*
X40821723Y34428287D01*
X40821713Y34428277D01*
X40725462Y34302840D01*
X40725462Y34302839D01*
X40664957Y34156767D01*
X40664955Y34156759D01*
X40644318Y34000001D01*
X40644318Y34000000D01*
X5344500Y34000000D01*
X5344500Y36480001D01*
X13935280Y36480001D01*
X13954141Y36192230D01*
X14010406Y35909370D01*
X14103106Y35636285D01*
X14230656Y35377641D01*
X14390875Y35137858D01*
X14390878Y35137853D01*
X14415836Y35109394D01*
X15084038Y35777595D01*
X15138555Y35805372D01*
X15198987Y35795801D01*
X15227203Y35774287D01*
X15339297Y35651328D01*
X15361931Y35626500D01*
X15429601Y35575398D01*
X15464643Y35525242D01*
X15463512Y35464068D01*
X15439943Y35426391D01*
X14769391Y34755839D01*
X14797851Y34730880D01*
X14797856Y34730877D01*
X15037639Y34570658D01*
X15296283Y34443108D01*
X15569368Y34350408D01*
X15852228Y34294143D01*
X16139999Y34275281D01*
X16427771Y34294143D01*
X16710631Y34350408D01*
X16983716Y34443108D01*
X17242360Y34570658D01*
X17482144Y34730878D01*
X17482151Y34730882D01*
X17510607Y34755839D01*
X16840056Y35426391D01*
X16812279Y35480908D01*
X16821850Y35541340D01*
X16850395Y35575396D01*
X16918069Y35626500D01*
X17052797Y35774289D01*
X17105970Y35804553D01*
X17166779Y35797782D01*
X17195960Y35777595D01*
X17864162Y35109394D01*
X17889119Y35137850D01*
X17889123Y35137857D01*
X18049343Y35377641D01*
X18176893Y35636285D01*
X18269593Y35909370D01*
X18325858Y36192230D01*
X18344720Y36480001D01*
X18344720Y36480002D01*
X18325858Y36767773D01*
X18269593Y37050633D01*
X18176893Y37323718D01*
X18049343Y37582362D01*
X17889124Y37822145D01*
X17889121Y37822150D01*
X17864161Y37850610D01*
X17195959Y37182409D01*
X17141443Y37154632D01*
X17081011Y37164203D01*
X17052795Y37185717D01*
X16918075Y37333495D01*
X16918069Y37333502D01*
X16918061Y37333508D01*
X16918058Y37333511D01*
X16850398Y37384606D01*
X16815355Y37434762D01*
X16816486Y37495937D01*
X16840055Y37533613D01*
X17510607Y38204165D01*
X17482148Y38229123D01*
X17482143Y38229126D01*
X17242360Y38389345D01*
X16983716Y38516895D01*
X16710631Y38609595D01*
X16427771Y38665860D01*
X16140000Y38684721D01*
X15852228Y38665860D01*
X15569368Y38609595D01*
X15296283Y38516895D01*
X15037639Y38389345D01*
X14797849Y38229122D01*
X14797847Y38229120D01*
X14769391Y38204165D01*
X15439943Y37533612D01*
X15467720Y37479095D01*
X15458149Y37418663D01*
X15429601Y37384605D01*
X15361937Y37333507D01*
X15361934Y37333505D01*
X15361931Y37333502D01*
X15361927Y37333499D01*
X15361924Y37333495D01*
X15227204Y37185716D01*
X15174029Y37155450D01*
X15113219Y37162221D01*
X15084039Y37182408D01*
X14415836Y37850610D01*
X14390881Y37822154D01*
X14390879Y37822152D01*
X14230656Y37582362D01*
X14103106Y37323718D01*
X14010406Y37050633D01*
X13954141Y36767773D01*
X13935280Y36480002D01*
X13935280Y36480001D01*
X5344500Y36480001D01*
X5344500Y44280254D01*
X25500350Y44280254D01*
X25500351Y44280242D01*
X25511982Y44221773D01*
X25511983Y44221769D01*
X25556298Y44155448D01*
X25622619Y44111133D01*
X25667081Y44102289D01*
X25681091Y44099502D01*
X25681096Y44099502D01*
X25681102Y44099500D01*
X25681103Y44099500D01*
X28220597Y44099500D01*
X28220598Y44099500D01*
X28279081Y44111133D01*
X28345402Y44155448D01*
X28389717Y44221769D01*
X28401350Y44280252D01*
X28401350Y49319748D01*
X28389717Y49378231D01*
X28345402Y49444552D01*
X28345398Y49444555D01*
X28279083Y49488866D01*
X28279081Y49488867D01*
X28279078Y49488868D01*
X28279077Y49488868D01*
X28220608Y49500499D01*
X28220598Y49500500D01*
X25681102Y49500500D01*
X25681101Y49500500D01*
X25681091Y49500499D01*
X25622622Y49488868D01*
X25622616Y49488866D01*
X25556301Y49444555D01*
X25556295Y49444549D01*
X25511984Y49378234D01*
X25511982Y49378228D01*
X25500351Y49319759D01*
X25500350Y49319747D01*
X25500350Y44280254D01*
X5344500Y44280254D01*
X5344500Y55481000D01*
X5363407Y55539191D01*
X5412907Y55575155D01*
X5443500Y55580000D01*
X55911585Y55580000D01*
X55969776Y55561093D01*
G37*
%TD.AperFunction*%
%TD*%
M02*
