%TF.GenerationSoftware,KiCad,Pcbnew,7.0.7-7.0.7~ubuntu23.04.1*%
%TF.CreationDate,2023-09-27T06:57:11+00:00*%
%TF.ProjectId,USBSDREADER01,55534253-4452-4454-9144-455230312e6b,rev?*%
%TF.SameCoordinates,Original*%
%TF.FileFunction,Paste,Bot*%
%TF.FilePolarity,Positive*%
%FSLAX46Y46*%
G04 Gerber Fmt 4.6, Leading zero omitted, Abs format (unit mm)*
G04 Created by KiCad (PCBNEW 7.0.7-7.0.7~ubuntu23.04.1) date 2023-09-27 06:57:11*
%MOMM*%
%LPD*%
G01*
G04 APERTURE LIST*
G04 Aperture macros list*
%AMRoundRect*
0 Rectangle with rounded corners*
0 $1 Rounding radius*
0 $2 $3 $4 $5 $6 $7 $8 $9 X,Y pos of 4 corners*
0 Add a 4 corners polygon primitive as box body*
4,1,4,$2,$3,$4,$5,$6,$7,$8,$9,$2,$3,0*
0 Add four circle primitives for the rounded corners*
1,1,$1+$1,$2,$3*
1,1,$1+$1,$4,$5*
1,1,$1+$1,$6,$7*
1,1,$1+$1,$8,$9*
0 Add four rect primitives between the rounded corners*
20,1,$1+$1,$2,$3,$4,$5,0*
20,1,$1+$1,$4,$5,$6,$7,0*
20,1,$1+$1,$6,$7,$8,$9,0*
20,1,$1+$1,$8,$9,$2,$3,0*%
G04 Aperture macros list end*
%ADD10RoundRect,0.250000X0.262500X0.450000X-0.262500X0.450000X-0.262500X-0.450000X0.262500X-0.450000X0*%
%ADD11RoundRect,0.150000X0.150000X-0.512500X0.150000X0.512500X-0.150000X0.512500X-0.150000X-0.512500X0*%
%ADD12RoundRect,0.250000X0.450000X-0.262500X0.450000X0.262500X-0.450000X0.262500X-0.450000X-0.262500X0*%
%ADD13RoundRect,0.250000X0.475000X-0.250000X0.475000X0.250000X-0.475000X0.250000X-0.475000X-0.250000X0*%
%ADD14RoundRect,0.250000X0.250000X0.475000X-0.250000X0.475000X-0.250000X-0.475000X0.250000X-0.475000X0*%
%ADD15RoundRect,0.250000X-0.450000X0.262500X-0.450000X-0.262500X0.450000X-0.262500X0.450000X0.262500X0*%
%ADD16R,1.800000X2.500000*%
%ADD17RoundRect,0.250000X1.000000X0.650000X-1.000000X0.650000X-1.000000X-0.650000X1.000000X-0.650000X0*%
%ADD18RoundRect,0.166667X-0.583333X0.458333X-0.583333X-0.458333X0.583333X-0.458333X0.583333X0.458333X0*%
%ADD19RoundRect,0.166667X0.583333X-0.458333X0.583333X0.458333X-0.583333X0.458333X-0.583333X-0.458333X0*%
%ADD20R,0.850000X0.200000*%
%ADD21R,0.200000X0.850000*%
%ADD22R,3.600000X3.600000*%
%ADD23RoundRect,0.250000X0.850000X-0.375000X0.850000X0.375000X-0.850000X0.375000X-0.850000X-0.375000X0*%
%ADD24RoundRect,0.250000X-0.250000X-0.475000X0.250000X-0.475000X0.250000X0.475000X-0.250000X0.475000X0*%
%ADD25RoundRect,0.250000X0.159099X-0.512652X0.512652X-0.159099X-0.159099X0.512652X-0.512652X0.159099X0*%
%ADD26RoundRect,0.150000X0.512500X0.150000X-0.512500X0.150000X-0.512500X-0.150000X0.512500X-0.150000X0*%
G04 APERTURE END LIST*
D10*
%TO.C,R4*%
X53852500Y7980000D03*
X52027500Y7980000D03*
%TD*%
D11*
%TO.C,Q2*%
X52350000Y16350000D03*
X50450000Y16350000D03*
X51400000Y18625000D03*
%TD*%
D12*
%TO.C,R3*%
X21300000Y23587500D03*
X21300000Y25412500D03*
%TD*%
D10*
%TO.C,R1*%
X33412500Y32800000D03*
X31587500Y32800000D03*
%TD*%
D13*
%TO.C,C1*%
X63640000Y41730000D03*
X63640000Y43630000D03*
%TD*%
D14*
%TO.C,C7*%
X31900000Y36800000D03*
X30000000Y36800000D03*
%TD*%
D15*
%TO.C,R9*%
X63890000Y48392500D03*
X63890000Y46567500D03*
%TD*%
D16*
%TO.C,D1*%
X58140000Y40980000D03*
X58140000Y44980000D03*
%TD*%
D11*
%TO.C,Q1*%
X55850000Y16350000D03*
X53950000Y16350000D03*
X54900000Y18625000D03*
%TD*%
D17*
%TO.C,D2*%
X23112500Y50750000D03*
X19112500Y50750000D03*
%TD*%
D14*
%TO.C,C5*%
X38162500Y36650000D03*
X36262500Y36650000D03*
%TD*%
D18*
%TO.C,D3*%
X64280000Y53700000D03*
D19*
X64280000Y50100000D03*
%TD*%
D13*
%TO.C,C9*%
X19200000Y20062500D03*
X19200000Y21962500D03*
%TD*%
D10*
%TO.C,R5*%
X57365000Y7980000D03*
X55540000Y7980000D03*
%TD*%
D20*
%TO.C,IC1*%
X40250000Y33650000D03*
X40250000Y33250000D03*
X40250000Y32850000D03*
X40250000Y32450000D03*
X40250000Y32050000D03*
X40250000Y31650000D03*
X40250000Y31250000D03*
X40250000Y30850000D03*
X40250000Y30450000D03*
X40250000Y30050000D03*
D21*
X39600000Y29400000D03*
X39200000Y29400000D03*
X38800000Y29400000D03*
X38400000Y29400000D03*
X38000000Y29400000D03*
X37600000Y29400000D03*
X37200000Y29400000D03*
X36800000Y29400000D03*
X36400000Y29400000D03*
X36000000Y29400000D03*
D20*
X35350000Y30050000D03*
X35350000Y30450000D03*
X35350000Y30850000D03*
X35350000Y31250000D03*
X35350000Y31650000D03*
X35350000Y32050000D03*
X35350000Y32450000D03*
X35350000Y32850000D03*
X35350000Y33250000D03*
X35350000Y33650000D03*
D21*
X36000000Y34300000D03*
X36400000Y34300000D03*
X36800000Y34300000D03*
X37200000Y34300000D03*
X37600000Y34300000D03*
X38000000Y34300000D03*
X38400000Y34300000D03*
X38800000Y34300000D03*
X39200000Y34300000D03*
X39600000Y34300000D03*
D22*
X37800000Y31850000D03*
%TD*%
D23*
%TO.C,L1*%
X44300000Y20900000D03*
X44300000Y23050000D03*
%TD*%
D10*
%TO.C,R13*%
X41362500Y19450000D03*
X39537500Y19450000D03*
%TD*%
%TO.C,R12*%
X50352500Y7980000D03*
X48527500Y7980000D03*
%TD*%
D13*
%TO.C,C10*%
X17100000Y20062500D03*
X17100000Y21962500D03*
%TD*%
D12*
%TO.C,R11*%
X54250000Y20512500D03*
X54250000Y22337500D03*
%TD*%
D13*
%TO.C,C2*%
X61640000Y41780000D03*
X61640000Y43680000D03*
%TD*%
D24*
%TO.C,C3*%
X39912500Y36650000D03*
X41812500Y36650000D03*
%TD*%
D12*
%TO.C,R10*%
X51950000Y20500000D03*
X51950000Y22325000D03*
%TD*%
%TO.C,R2*%
X21300000Y20100000D03*
X21300000Y21925000D03*
%TD*%
D25*
%TO.C,C6*%
X46250000Y30750000D03*
X47593502Y32093502D03*
%TD*%
D18*
%TO.C,D4*%
X61640000Y53700000D03*
D19*
X61640000Y50100000D03*
%TD*%
D14*
%TO.C,C8*%
X44150000Y17000000D03*
X42250000Y17000000D03*
%TD*%
D15*
%TO.C,R8*%
X61890000Y48392500D03*
X61890000Y46567500D03*
%TD*%
D26*
%TO.C,U1*%
X41850000Y23200000D03*
X41850000Y22250000D03*
X41850000Y21300000D03*
X39575000Y21300000D03*
X39575000Y23200000D03*
%TD*%
D10*
%TO.C,R6*%
X48050000Y38850000D03*
X46225000Y38850000D03*
%TD*%
D24*
%TO.C,C4*%
X52712500Y38650000D03*
X54612500Y38650000D03*
%TD*%
M02*
