M48
; DRILL file {KiCad 7.0.7-7.0.7~ubuntu23.04.1} date Wed Sep 27 06:57:11 2023
; FORMAT={3:3/ absolute / metric / suppress leading zeros}
; #@! TF.CreationDate,2023-09-27T06:57:11+00:00
; #@! TF.GenerationSoftware,Kicad,Pcbnew,7.0.7-7.0.7~ubuntu23.04.1
; #@! TF.FileFunction,Plated,1,2,PTH
FMAT,2
METRIC,TZ
; #@! TA.AperFunction,Plated,PTH,ViaDrill
T1C0.400
; #@! TA.AperFunction,Plated,PTH,ComponentDrill
T2C0.889
; #@! TA.AperFunction,Plated,PTH,ComponentDrill
T3C0.920
; #@! TA.AperFunction,Plated,PTH,ComponentDrill
T4C0.950
; #@! TA.AperFunction,Plated,PTH,ComponentDrill
T5C1.000
; #@! TA.AperFunction,Plated,PTH,ComponentDrill
T6C2.300
; #@! TA.AperFunction,Plated,PTH,ComponentDrill
T7C3.000
%
G90
G05
T1
X36107Y27779
X36913Y27176
X41250Y34000
X43800Y18200
X44638Y18160
X44759Y29509
X45500Y32000
X46151Y21950
X47890Y39980
X57375Y30125
X58000Y31500
X61140Y47230
X64890Y46730
T2
X8300Y20550
X8300Y18010
X10840Y20550
X10840Y18010
X13380Y20550
X13380Y18010
X67640Y44770
X67640Y42230
X70180Y44770
X70180Y42230
X72720Y44770
X72720Y42230
T3
X62673Y33980
X62673Y31480
X62673Y29480
X62673Y26980
T4
X19000Y31730
X19000Y29230
X21000Y31730
X21000Y29230
T5
X20530Y13365
X20530Y10825
X23070Y13365
X23070Y10825
X24612Y31745
X24612Y29205
X25610Y13365
X25610Y10825
X28150Y13365
X28150Y10825
X30690Y13365
X30690Y10825
X33230Y13365
X33230Y10825
X35770Y13365
X35770Y10825
X40850Y13365
X40850Y10825
X40850Y8285
X43390Y13365
X43390Y10825
X43390Y8285
X45930Y13365
X45930Y10825
X45930Y8285
X48470Y13365
X48470Y10825
X51010Y13365
X51010Y10825
X53550Y13365
X53550Y10825
X59200Y31755
X59200Y29215
X60960Y18460
X60960Y15920
X60960Y13380
X60960Y10840
X60960Y8300
X63500Y18460
X63500Y15920
X63500Y13380
X63500Y10840
X63500Y8300
T6
X16140Y36480
X16140Y24480
X65382Y37050
X65382Y23910
T7
X10160Y50800
X10160Y10160
X71120Y50800
X71120Y10160
T0
M30
