%TF.GenerationSoftware,KiCad,Pcbnew,7.0.7-7.0.7~ubuntu23.04.1*%
%TF.CreationDate,2023-09-27T06:57:11+00:00*%
%TF.ProjectId,USBSDREADER01,55534253-4452-4454-9144-455230312e6b,rev?*%
%TF.SameCoordinates,Original*%
%TF.FileFunction,Soldermask,Bot*%
%TF.FilePolarity,Negative*%
%FSLAX46Y46*%
G04 Gerber Fmt 4.6, Leading zero omitted, Abs format (unit mm)*
G04 Created by KiCad (PCBNEW 7.0.7-7.0.7~ubuntu23.04.1) date 2023-09-27 06:57:11*
%MOMM*%
%LPD*%
G01*
G04 APERTURE LIST*
G04 Aperture macros list*
%AMRoundRect*
0 Rectangle with rounded corners*
0 $1 Rounding radius*
0 $2 $3 $4 $5 $6 $7 $8 $9 X,Y pos of 4 corners*
0 Add a 4 corners polygon primitive as box body*
4,1,4,$2,$3,$4,$5,$6,$7,$8,$9,$2,$3,0*
0 Add four circle primitives for the rounded corners*
1,1,$1+$1,$2,$3*
1,1,$1+$1,$4,$5*
1,1,$1+$1,$6,$7*
1,1,$1+$1,$8,$9*
0 Add four rect primitives between the rounded corners*
20,1,$1+$1,$2,$3,$4,$5,0*
20,1,$1+$1,$4,$5,$6,$7,0*
20,1,$1+$1,$6,$7,$8,$9,0*
20,1,$1+$1,$8,$9,$2,$3,0*%
G04 Aperture macros list end*
%ADD10C,6.000000*%
%ADD11R,1.700000X1.700000*%
%ADD12O,1.700000X1.700000*%
%ADD13R,1.600000X1.600000*%
%ADD14C,1.600000*%
%ADD15C,4.000000*%
%ADD16R,1.524000X1.524000*%
%ADD17C,1.524000*%
%ADD18C,3.500000*%
%ADD19RoundRect,0.250000X0.262500X0.450000X-0.262500X0.450000X-0.262500X-0.450000X0.262500X-0.450000X0*%
%ADD20RoundRect,0.150000X0.150000X-0.512500X0.150000X0.512500X-0.150000X0.512500X-0.150000X-0.512500X0*%
%ADD21RoundRect,0.250000X0.450000X-0.262500X0.450000X0.262500X-0.450000X0.262500X-0.450000X-0.262500X0*%
%ADD22RoundRect,0.250000X0.475000X-0.250000X0.475000X0.250000X-0.475000X0.250000X-0.475000X-0.250000X0*%
%ADD23RoundRect,0.250000X0.250000X0.475000X-0.250000X0.475000X-0.250000X-0.475000X0.250000X-0.475000X0*%
%ADD24RoundRect,0.250000X-0.450000X0.262500X-0.450000X-0.262500X0.450000X-0.262500X0.450000X0.262500X0*%
%ADD25R,1.800000X2.500000*%
%ADD26RoundRect,0.250000X1.000000X0.650000X-1.000000X0.650000X-1.000000X-0.650000X1.000000X-0.650000X0*%
%ADD27RoundRect,0.166667X-0.583333X0.458333X-0.583333X-0.458333X0.583333X-0.458333X0.583333X0.458333X0*%
%ADD28RoundRect,0.166667X0.583333X-0.458333X0.583333X0.458333X-0.583333X0.458333X-0.583333X-0.458333X0*%
%ADD29R,0.850000X0.200000*%
%ADD30R,0.200000X0.850000*%
%ADD31R,3.600000X3.600000*%
%ADD32RoundRect,0.250000X0.850000X-0.375000X0.850000X0.375000X-0.850000X0.375000X-0.850000X-0.375000X0*%
%ADD33RoundRect,0.250000X-0.262500X-0.450000X0.262500X-0.450000X0.262500X0.450000X-0.262500X0.450000X0*%
%ADD34C,1.000000*%
%ADD35RoundRect,0.250000X-0.250000X-0.475000X0.250000X-0.475000X0.250000X0.475000X-0.250000X0.475000X0*%
%ADD36RoundRect,0.250000X0.159099X-0.512652X0.512652X-0.159099X-0.159099X0.512652X-0.512652X0.159099X0*%
%ADD37RoundRect,0.150000X0.512500X0.150000X-0.512500X0.150000X-0.512500X-0.150000X0.512500X-0.150000X0*%
G04 APERTURE END LIST*
D10*
%TO.C,M2*%
X71120000Y50800000D03*
%TD*%
D11*
%TO.C,J7*%
X40850000Y10825000D03*
D12*
X40850000Y13365000D03*
X43390000Y10825000D03*
X43390000Y13365000D03*
X45930000Y10825000D03*
X45930000Y13365000D03*
X48470000Y10825000D03*
X48470000Y13365000D03*
X51010000Y10825000D03*
X51010000Y13365000D03*
X53550000Y10825000D03*
X53550000Y13365000D03*
%TD*%
D10*
%TO.C,M4*%
X71120000Y10160000D03*
%TD*%
D11*
%TO.C,J6*%
X63500000Y8300000D03*
D12*
X60960000Y8300000D03*
X63500000Y10840000D03*
X60960000Y10840000D03*
X63500000Y13380000D03*
X60960000Y13380000D03*
X63500000Y15920000D03*
X60960000Y15920000D03*
X63500000Y18460000D03*
X60960000Y18460000D03*
%TD*%
D11*
%TO.C,J10*%
X24612500Y29205001D03*
D12*
X24612500Y31745001D03*
%TD*%
D13*
%TO.C,J2*%
X21000000Y29230001D03*
D14*
X21000000Y31730001D03*
X19000000Y31730001D03*
X19000000Y29230001D03*
D15*
X16140000Y24480001D03*
X16140000Y36480001D03*
%TD*%
D16*
%TO.C,J1*%
X67640000Y42230000D03*
X67640000Y44770000D03*
X70180000Y42230000D03*
X70180000Y44770000D03*
X72720000Y42230000D03*
X72720000Y44770000D03*
%TD*%
D10*
%TO.C,M3*%
X10160000Y10160000D03*
%TD*%
D16*
%TO.C,J3*%
X62672500Y26980001D03*
D17*
X62672500Y29480001D03*
X62672500Y31480001D03*
X62672500Y33980001D03*
D18*
X65382500Y23910001D03*
X65382500Y37050001D03*
%TD*%
D10*
%TO.C,M1*%
X10160000Y50800000D03*
%TD*%
D11*
%TO.C,J5*%
X35770000Y13365000D03*
D12*
X35770000Y10825000D03*
X33230000Y13365000D03*
X33230000Y10825000D03*
X30690000Y13365000D03*
X30690000Y10825000D03*
X28150000Y13365000D03*
X28150000Y10825000D03*
X25610000Y13365000D03*
X25610000Y10825000D03*
X23070000Y13365000D03*
X23070000Y10825000D03*
X20530000Y13365000D03*
X20530000Y10825000D03*
%TD*%
D11*
%TO.C,J11*%
X59200000Y31755001D03*
D12*
X59200000Y29215001D03*
%TD*%
D11*
%TO.C,J8*%
X40850000Y8285000D03*
D12*
X43390000Y8285000D03*
X45930000Y8285000D03*
%TD*%
D16*
%TO.C,J4*%
X13380000Y20550000D03*
X13380000Y18010000D03*
X10840000Y20550000D03*
X10840000Y18010000D03*
X8300000Y20550000D03*
X8300000Y18010000D03*
%TD*%
D19*
%TO.C,R4*%
X53852500Y7980000D03*
X52027500Y7980000D03*
%TD*%
D20*
%TO.C,Q2*%
X52350000Y16350000D03*
X50450000Y16350000D03*
X51400000Y18625000D03*
%TD*%
D21*
%TO.C,R3*%
X21300000Y23587500D03*
X21300000Y25412500D03*
%TD*%
D19*
%TO.C,R1*%
X33412500Y32800000D03*
X31587500Y32800000D03*
%TD*%
D22*
%TO.C,C1*%
X63640000Y41730000D03*
X63640000Y43630000D03*
%TD*%
D23*
%TO.C,C7*%
X31900000Y36800000D03*
X30000000Y36800000D03*
%TD*%
D24*
%TO.C,R9*%
X63890000Y48392500D03*
X63890000Y46567500D03*
%TD*%
D25*
%TO.C,D1*%
X58140000Y40980000D03*
X58140000Y44980000D03*
%TD*%
D20*
%TO.C,Q1*%
X55850000Y16350000D03*
X53950000Y16350000D03*
X54900000Y18625000D03*
%TD*%
D26*
%TO.C,D2*%
X23112500Y50750000D03*
X19112500Y50750000D03*
%TD*%
D23*
%TO.C,C5*%
X38162500Y36650000D03*
X36262500Y36650000D03*
%TD*%
D27*
%TO.C,D3*%
X64280000Y53700000D03*
D28*
X64280000Y50100000D03*
%TD*%
D22*
%TO.C,C9*%
X19200000Y20062500D03*
X19200000Y21962500D03*
%TD*%
D19*
%TO.C,R5*%
X57365000Y7980000D03*
X55540000Y7980000D03*
%TD*%
D29*
%TO.C,IC1*%
X40250000Y33650000D03*
X40250000Y33250000D03*
X40250000Y32850000D03*
X40250000Y32450000D03*
X40250000Y32050000D03*
X40250000Y31650000D03*
X40250000Y31250000D03*
X40250000Y30850000D03*
X40250000Y30450000D03*
X40250000Y30050000D03*
D30*
X39600000Y29400000D03*
X39200000Y29400000D03*
X38800000Y29400000D03*
X38400000Y29400000D03*
X38000000Y29400000D03*
X37600000Y29400000D03*
X37200000Y29400000D03*
X36800000Y29400000D03*
X36400000Y29400000D03*
X36000000Y29400000D03*
D29*
X35350000Y30050000D03*
X35350000Y30450000D03*
X35350000Y30850000D03*
X35350000Y31250000D03*
X35350000Y31650000D03*
X35350000Y32050000D03*
X35350000Y32450000D03*
X35350000Y32850000D03*
X35350000Y33250000D03*
X35350000Y33650000D03*
D30*
X36000000Y34300000D03*
X36400000Y34300000D03*
X36800000Y34300000D03*
X37200000Y34300000D03*
X37600000Y34300000D03*
X38000000Y34300000D03*
X38400000Y34300000D03*
X38800000Y34300000D03*
X39200000Y34300000D03*
X39600000Y34300000D03*
D31*
X37800000Y31850000D03*
%TD*%
D32*
%TO.C,L1*%
X44300000Y20900000D03*
X44300000Y23050000D03*
%TD*%
D19*
%TO.C,R13*%
X41362500Y19450000D03*
X39537500Y19450000D03*
%TD*%
%TO.C,R12*%
X50352500Y7980000D03*
X48527500Y7980000D03*
%TD*%
D33*
%TO.C,R7*%
X46237500Y40850000D03*
X48062500Y40850000D03*
%TD*%
D34*
%TO.C,FID2*%
X58890000Y36980000D03*
%TD*%
D22*
%TO.C,C10*%
X17100000Y20062500D03*
X17100000Y21962500D03*
%TD*%
D34*
%TO.C,FID1*%
X18100000Y7100000D03*
%TD*%
D21*
%TO.C,R11*%
X54250000Y20512500D03*
X54250000Y22337500D03*
%TD*%
D22*
%TO.C,C2*%
X61640000Y41780000D03*
X61640000Y43680000D03*
%TD*%
D35*
%TO.C,C3*%
X39912500Y36650000D03*
X41812500Y36650000D03*
%TD*%
D21*
%TO.C,R10*%
X51950000Y20500000D03*
X51950000Y22325000D03*
%TD*%
%TO.C,R2*%
X21300000Y20100000D03*
X21300000Y21925000D03*
%TD*%
D36*
%TO.C,C6*%
X46250000Y30750000D03*
X47593502Y32093502D03*
%TD*%
D27*
%TO.C,D4*%
X61640000Y53700000D03*
D28*
X61640000Y50100000D03*
%TD*%
D23*
%TO.C,C8*%
X44150000Y17000000D03*
X42250000Y17000000D03*
%TD*%
D24*
%TO.C,R8*%
X61890000Y48392500D03*
X61890000Y46567500D03*
%TD*%
D37*
%TO.C,U1*%
X41850000Y23200000D03*
X41850000Y22250000D03*
X41850000Y21300000D03*
X39575000Y21300000D03*
X39575000Y23200000D03*
%TD*%
D19*
%TO.C,R6*%
X48050000Y38850000D03*
X46225000Y38850000D03*
%TD*%
D35*
%TO.C,C4*%
X52712500Y38650000D03*
X54612500Y38650000D03*
%TD*%
M02*
